<svg xmlns="http://www.w3.org/2000/svg" xmlns:xlink="http://www.w3.org/1999/xlink" width="234" height="225.072" viewBox="0 0 234 225.072">
  <defs>
    <clipPath id="clip-path">
      <rect id="Rect치ngulo_56418" data-name="Rect치ngulo 56418" width="227.545" height="193.165" fill="#e9660c"/>
    </clipPath>
    <clipPath id="clip-path-2">
      <rect id="Rect치ngulo_56417" data-name="Rect치ngulo 56417" width="110.458" height="105.022" fill="#fff"/>
    </clipPath>
  </defs>
  <g id="Grupo_175905" data-name="Grupo 175905" transform="translate(-1148.492 -3904.964)">
    <g id="Grupo_175893" data-name="Grupo 175893" transform="translate(1148.492 3904.964)">
      <g id="Grupo_169306" data-name="Grupo 169306" transform="translate(50.712 225.072) rotate(-90)">
        <circle id="Elipse_5566" data-name="Elipse 5566" cx="39.043" cy="39.043" r="39.043" transform="translate(69.723 55.216) rotate(-45)" fill="#def2f4"/>
        <ellipse id="Elipse_5567" data-name="Elipse 5567" cx="62.7" cy="62.7" rx="62.7" ry="62.7" transform="translate(0 64.547) rotate(-22.5)" fill="#fff"/>
        <g id="Grupo_152550" data-name="Grupo 152550" transform="translate(5.139 7.922)">
          <ellipse id="Elipse_5568" data-name="Elipse 5568" cx="0.044" cy="0.044" rx="0.044" ry="0.044" transform="translate(40.111 126.958)" fill="#e8e8e8"/>
          <path id="Trazado_193815" data-name="Trazado 193815" d="M.372,0A.372.372,0,1,1,0,.372.372.372,0,0,1,.372,0Z" transform="translate(47.678 126.63)" fill="#e8e8e8"/>
          <path id="Trazado_193816" data-name="Trazado 193816" d="M.635,0A.635.635,0,1,1,0,.635.636.636,0,0,1,.635,0Z" transform="translate(55.31 126.366)" fill="#e8e8e8"/>
          <ellipse id="Elipse_5569" data-name="Elipse 5569" cx="0.679" cy="0.679" rx="0.679" ry="0.679" transform="translate(63.161 126.323)" fill="#e8e8e8"/>
          <path id="Trazado_193817" data-name="Trazado 193817" d="M.635,0A.635.635,0,1,1,0,.635.635.635,0,0,1,.635,0Z" transform="translate(71.1 126.366)" fill="#e8e8e8"/>
          <path id="Trazado_193818" data-name="Trazado 193818" d="M.35,0A.35.35,0,1,1,0,.35.349.349,0,0,1,.35,0Z" transform="translate(79.281 126.652)" fill="#e8e8e8"/>
          <ellipse id="Elipse_5570" data-name="Elipse 5570" cx="0.022" cy="0.022" rx="0.022" ry="0.022" transform="translate(87.504 126.98)" fill="#e8e8e8"/>
          <ellipse id="Elipse_5571" data-name="Elipse 5571" cx="0.022" cy="0.022" rx="0.022" ry="0.022" transform="translate(24.342 119.085)" fill="#e8e8e8"/>
          <path id="Trazado_193819" data-name="Trazado 193819" d="M.657,0A.657.657,0,1,1,0,.657.658.658,0,0,1,.657,0Z" transform="translate(31.603 118.449)" fill="#e8e8e8"/>
          <path id="Trazado_193820" data-name="Trazado 193820" d="M1.336,0A1.336,1.336,0,1,1,0,1.336,1.336,1.336,0,0,1,1.336,0Z" transform="translate(38.819 117.77)" fill="#e8e8e8"/>
          <ellipse id="Elipse_5572" data-name="Elipse 5572" cx="1.489" cy="1.489" rx="1.489" ry="1.489" transform="translate(46.561 117.618)" fill="#e8e8e8"/>
          <ellipse id="Elipse_5573" data-name="Elipse 5573" cx="1.489" cy="1.489" rx="1.489" ry="1.489" transform="translate(54.456 117.618)" fill="#e8e8e8"/>
          <path id="Trazado_193821" data-name="Trazado 193821" d="M1.489,0A1.489,1.489,0,1,1,0,1.489,1.49,1.49,0,0,1,1.489,0Z" transform="translate(62.351 117.617)" fill="#e8e8e8"/>
          <path id="Trazado_193822" data-name="Trazado 193822" d="M1.489,0A1.489,1.489,0,1,1,0,1.489,1.49,1.49,0,0,1,1.489,0Z" transform="translate(70.246 117.617)" fill="#e8e8e8"/>
          <path id="Trazado_193823" data-name="Trazado 193823" d="M1.489,0A1.489,1.489,0,1,1,0,1.489,1.49,1.49,0,0,1,1.489,0Z" transform="translate(78.141 117.617)" fill="#e8e8e8"/>
          <path id="Trazado_193824" data-name="Trazado 193824" d="M1.314,0A1.314,1.314,0,1,1,0,1.314,1.315,1.315,0,0,1,1.314,0Z" transform="translate(86.211 117.792)" fill="#e8e8e8"/>
          <path id="Trazado_193825" data-name="Trazado 193825" d="M.613,0A.613.613,0,1,1,0,.613.613.613,0,0,1,.613,0Z" transform="translate(94.808 118.493)" fill="#e8e8e8"/>
          <ellipse id="Elipse_5574" data-name="Elipse 5574" cx="0.022" cy="0.022" rx="0.022" ry="0.022" transform="translate(103.294 119.085)" fill="#e8e8e8"/>
          <path id="Trazado_193826" data-name="Trazado 193826" d="M.11,0A.108.108,0,0,1,.219.109.11.11,0,1,1,.11,0Z" transform="translate(16.359 111.103)" fill="#e8e8e8"/>
          <path id="Trazado_193827" data-name="Trazado 193827" d="M1.073,0A1.073,1.073,0,1,1,0,1.073,1.073,1.073,0,0,1,1.073,0Z" transform="translate(23.292 110.138)" fill="#e8e8e8"/>
          <ellipse id="Elipse_5575" data-name="Elipse 5575" cx="1.489" cy="1.489" rx="1.489" ry="1.489" transform="translate(30.771 109.722)" fill="#e8e8e8"/>
          <ellipse id="Elipse_5576" data-name="Elipse 5576" cx="1.489" cy="1.489" rx="1.489" ry="1.489" transform="translate(38.666 109.722)" fill="#e8e8e8"/>
          <ellipse id="Elipse_5577" data-name="Elipse 5577" cx="1.489" cy="1.489" rx="1.489" ry="1.489" transform="translate(46.561 109.722)" fill="#e8e8e8"/>
          <ellipse id="Elipse_5578" data-name="Elipse 5578" cx="1.489" cy="1.489" rx="1.489" ry="1.489" transform="translate(54.456 109.722)" fill="#e8e8e8"/>
          <path id="Trazado_193828" data-name="Trazado 193828" d="M1.489,0A1.489,1.489,0,1,1,0,1.489,1.49,1.49,0,0,1,1.489,0Z" transform="translate(62.351 109.722)" fill="#e8e8e8"/>
          <path id="Trazado_193829" data-name="Trazado 193829" d="M1.489,0A1.489,1.489,0,1,1,0,1.489,1.49,1.49,0,0,1,1.489,0Z" transform="translate(70.246 109.722)" fill="#e8e8e8"/>
          <path id="Trazado_193830" data-name="Trazado 193830" d="M1.489,0A1.489,1.489,0,1,1,0,1.489,1.49,1.49,0,0,1,1.489,0Z" transform="translate(78.141 109.722)" fill="#e8e8e8"/>
          <path id="Trazado_193831" data-name="Trazado 193831" d="M1.489,0A1.489,1.489,0,1,1,0,1.489,1.49,1.49,0,0,1,1.489,0Z" transform="translate(86.036 109.722)" fill="#e8e8e8"/>
          <path id="Trazado_193832" data-name="Trazado 193832" d="M1.489,0A1.489,1.489,0,1,1,0,1.489,1.49,1.49,0,0,1,1.489,0Z" transform="translate(93.932 109.722)" fill="#e8e8e8"/>
          <path id="Trazado_193833" data-name="Trazado 193833" d="M1.051,0A1.051,1.051,0,1,1,0,1.051,1.051,1.051,0,0,1,1.051,0Z" transform="translate(102.265 110.16)" fill="#e8e8e8"/>
          <path id="Trazado_193834" data-name="Trazado 193834" d="M.065,0a.066.066,0,1,1,0,.132A.066.066,0,0,1,.065,0Z" transform="translate(111.146 111.145)" fill="#e8e8e8"/>
          <ellipse id="Elipse_5579" data-name="Elipse 5579" cx="0.022" cy="0.022" rx="0.022" ry="0.022" transform="translate(8.552 103.294)" fill="#e8e8e8"/>
          <path id="Trazado_193835" data-name="Trazado 193835" d="M1.073,0A1.073,1.073,0,1,1,0,1.073,1.072,1.072,0,0,1,1.073,0Z" transform="translate(15.397 102.243)" fill="#e8e8e8"/>
          <ellipse id="Elipse_5580" data-name="Elipse 5580" cx="1.489" cy="1.489" rx="1.489" ry="1.489" transform="translate(22.876 101.827)" fill="#e8e8e8"/>
          <ellipse id="Elipse_5581" data-name="Elipse 5581" cx="1.489" cy="1.489" rx="1.489" ry="1.489" transform="translate(30.771 101.827)" fill="#e8e8e8"/>
          <ellipse id="Elipse_5582" data-name="Elipse 5582" cx="1.489" cy="1.489" rx="1.489" ry="1.489" transform="translate(38.666 101.827)" fill="#e8e8e8"/>
          <ellipse id="Elipse_5583" data-name="Elipse 5583" cx="1.489" cy="1.489" rx="1.489" ry="1.489" transform="translate(46.561 101.827)" fill="#e8e8e8"/>
          <ellipse id="Elipse_5584" data-name="Elipse 5584" cx="1.489" cy="1.489" rx="1.489" ry="1.489" transform="translate(54.456 101.827)" fill="#e8e8e8"/>
          <path id="Trazado_193836" data-name="Trazado 193836" d="M1.489,0A1.489,1.489,0,1,1,0,1.489,1.49,1.49,0,0,1,1.489,0Z" transform="translate(62.351 101.827)" fill="#e8e8e8"/>
          <path id="Trazado_193837" data-name="Trazado 193837" d="M1.489,0A1.489,1.489,0,1,1,0,1.489,1.49,1.49,0,0,1,1.489,0Z" transform="translate(70.246 101.827)" fill="#e8e8e8"/>
          <path id="Trazado_193838" data-name="Trazado 193838" d="M1.489,0A1.489,1.489,0,1,1,0,1.489,1.49,1.49,0,0,1,1.489,0Z" transform="translate(78.141 101.827)" fill="#e8e8e8"/>
          <path id="Trazado_193839" data-name="Trazado 193839" d="M1.489,0A1.489,1.489,0,1,1,0,1.489,1.49,1.49,0,0,1,1.489,0Z" transform="translate(86.036 101.827)" fill="#e8e8e8"/>
          <path id="Trazado_193840" data-name="Trazado 193840" d="M1.489,0A1.489,1.489,0,1,1,0,1.489,1.49,1.49,0,0,1,1.489,0Z" transform="translate(93.932 101.827)" fill="#e8e8e8"/>
          <path id="Trazado_193841" data-name="Trazado 193841" d="M1.489,0A1.489,1.489,0,1,1,0,1.489,1.49,1.49,0,0,1,1.489,0Z" transform="translate(101.827 101.827)" fill="#e8e8e8"/>
          <path id="Trazado_193842" data-name="Trazado 193842" d="M1.051,0A1.051,1.051,0,1,1,0,1.051,1.051,1.051,0,0,1,1.051,0Z" transform="translate(110.16 102.265)" fill="#e8e8e8"/>
          <ellipse id="Elipse_5585" data-name="Elipse 5585" cx="0.022" cy="0.022" rx="0.022" ry="0.022" transform="translate(119.085 103.294)" fill="#e8e8e8"/>
          <path id="Trazado_193843" data-name="Trazado 193843" d="M.657,0A.657.657,0,1,1,0,.657.656.656,0,0,1,.657,0Z" transform="translate(7.918 94.764)" fill="#e8e8e8"/>
          <ellipse id="Elipse_5586" data-name="Elipse 5586" cx="1.489" cy="1.489" rx="1.489" ry="1.489" transform="translate(14.98 93.932)" fill="#e8e8e8"/>
          <ellipse id="Elipse_5587" data-name="Elipse 5587" cx="1.489" cy="1.489" rx="1.489" ry="1.489" transform="translate(22.876 93.932)" fill="#e8e8e8"/>
          <ellipse id="Elipse_5588" data-name="Elipse 5588" cx="1.489" cy="1.489" rx="1.489" ry="1.489" transform="translate(30.771 93.932)" fill="#e8e8e8"/>
          <ellipse id="Elipse_5589" data-name="Elipse 5589" cx="1.489" cy="1.489" rx="1.489" ry="1.489" transform="translate(38.666 93.932)" fill="#e8e8e8"/>
          <ellipse id="Elipse_5590" data-name="Elipse 5590" cx="1.489" cy="1.489" rx="1.489" ry="1.489" transform="translate(46.561 93.932)" fill="#e8e8e8"/>
          <ellipse id="Elipse_5591" data-name="Elipse 5591" cx="1.489" cy="1.489" rx="1.489" ry="1.489" transform="translate(54.456 93.932)" fill="#e8e8e8"/>
          <path id="Trazado_193844" data-name="Trazado 193844" d="M1.489,0A1.489,1.489,0,1,1,0,1.489,1.49,1.49,0,0,1,1.489,0Z" transform="translate(62.351 93.932)" fill="#e8e8e8"/>
          <path id="Trazado_193845" data-name="Trazado 193845" d="M1.489,0A1.489,1.489,0,1,1,0,1.489,1.49,1.49,0,0,1,1.489,0Z" transform="translate(70.246 93.932)" fill="#e8e8e8"/>
          <path id="Trazado_193846" data-name="Trazado 193846" d="M1.489,0A1.489,1.489,0,1,1,0,1.489,1.49,1.49,0,0,1,1.489,0Z" transform="translate(78.141 93.932)" fill="#e8e8e8"/>
          <path id="Trazado_193847" data-name="Trazado 193847" d="M1.489,0A1.489,1.489,0,1,1,0,1.489,1.49,1.49,0,0,1,1.489,0Z" transform="translate(86.036 93.932)" fill="#e8e8e8"/>
          <path id="Trazado_193848" data-name="Trazado 193848" d="M1.489,0A1.489,1.489,0,1,1,0,1.489,1.49,1.49,0,0,1,1.489,0Z" transform="translate(93.932 93.932)" fill="#e8e8e8"/>
          <path id="Trazado_193849" data-name="Trazado 193849" d="M1.489,0A1.489,1.489,0,1,1,0,1.489,1.49,1.49,0,0,1,1.489,0Z" transform="translate(101.827 93.932)" fill="#e8e8e8"/>
          <path id="Trazado_193850" data-name="Trazado 193850" d="M1.489,0A1.489,1.489,0,1,1,0,1.489,1.49,1.49,0,0,1,1.489,0Z" transform="translate(109.722 93.932)" fill="#e8e8e8"/>
          <path id="Trazado_193851" data-name="Trazado 193851" d="M.613,0A.613.613,0,1,1,0,.613.613.613,0,0,1,.613,0Z" transform="translate(118.493 94.808)" fill="#e8e8e8"/>
          <ellipse id="Elipse_5592" data-name="Elipse 5592" cx="0.044" cy="0.044" rx="0.044" ry="0.044" transform="translate(0.635 87.482)" fill="#e8e8e8"/>
          <path id="Trazado_193852" data-name="Trazado 193852" d="M1.314,0A1.314,1.314,0,1,1,0,1.314,1.313,1.313,0,0,1,1.314,0Z" transform="translate(7.26 86.212)" fill="#e8e8e8"/>
          <ellipse id="Elipse_5593" data-name="Elipse 5593" cx="1.489" cy="1.489" rx="1.489" ry="1.489" transform="translate(14.98 86.037)" fill="#e8e8e8"/>
          <ellipse id="Elipse_5594" data-name="Elipse 5594" cx="1.489" cy="1.489" rx="1.489" ry="1.489" transform="translate(22.876 86.037)" fill="#e8e8e8"/>
          <ellipse id="Elipse_5595" data-name="Elipse 5595" cx="1.489" cy="1.489" rx="1.489" ry="1.489" transform="translate(30.771 86.037)" fill="#e8e8e8"/>
          <ellipse id="Elipse_5596" data-name="Elipse 5596" cx="1.489" cy="1.489" rx="1.489" ry="1.489" transform="translate(38.666 86.037)" fill="#e8e8e8"/>
          <ellipse id="Elipse_5597" data-name="Elipse 5597" cx="1.489" cy="1.489" rx="1.489" ry="1.489" transform="translate(46.561 86.037)" fill="#e8e8e8"/>
          <ellipse id="Elipse_5598" data-name="Elipse 5598" cx="1.489" cy="1.489" rx="1.489" ry="1.489" transform="translate(54.456 86.037)" fill="#e8e8e8"/>
          <path id="Trazado_193853" data-name="Trazado 193853" d="M1.489,0A1.489,1.489,0,1,1,0,1.489,1.49,1.49,0,0,1,1.489,0Z" transform="translate(62.351 86.037)" fill="#e8e8e8"/>
          <path id="Trazado_193854" data-name="Trazado 193854" d="M1.489,0A1.489,1.489,0,1,1,0,1.489,1.49,1.49,0,0,1,1.489,0Z" transform="translate(70.246 86.037)" fill="#e8e8e8"/>
          <path id="Trazado_193855" data-name="Trazado 193855" d="M1.489,0A1.489,1.489,0,1,1,0,1.489,1.49,1.49,0,0,1,1.489,0Z" transform="translate(78.141 86.037)" fill="#e8e8e8"/>
          <path id="Trazado_193856" data-name="Trazado 193856" d="M1.489,0A1.489,1.489,0,1,1,0,1.489,1.49,1.49,0,0,1,1.489,0Z" transform="translate(86.036 86.037)" fill="#e8e8e8"/>
          <path id="Trazado_193857" data-name="Trazado 193857" d="M1.489,0A1.489,1.489,0,1,1,0,1.489,1.49,1.49,0,0,1,1.489,0Z" transform="translate(93.932 86.037)" fill="#e8e8e8"/>
          <path id="Trazado_193858" data-name="Trazado 193858" d="M1.489,0A1.489,1.489,0,1,1,0,1.489,1.49,1.49,0,0,1,1.489,0Z" transform="translate(101.827 86.037)" fill="#e8e8e8"/>
          <path id="Trazado_193859" data-name="Trazado 193859" d="M1.489,0A1.489,1.489,0,1,1,0,1.489,1.49,1.49,0,0,1,1.489,0Z" transform="translate(109.722 86.037)" fill="#e8e8e8"/>
          <path id="Trazado_193860" data-name="Trazado 193860" d="M1.29,0A1.292,1.292,0,1,1,0,1.292,1.292,1.292,0,0,1,1.29,0Z" transform="translate(117.815 86.234)" fill="#e8e8e8"/>
          <ellipse id="Elipse_5599" data-name="Elipse 5599" cx="0.044" cy="0.044" rx="0.044" ry="0.044" transform="translate(126.958 87.482)" fill="#e8e8e8"/>
          <ellipse id="Elipse_5600" data-name="Elipse 5600" cx="0.372" cy="0.372" rx="0.372" ry="0.372" transform="translate(0.306 79.258)" fill="#e8e8e8"/>
          <ellipse id="Elipse_5601" data-name="Elipse 5601" cx="1.489" cy="1.489" rx="1.489" ry="1.489" transform="translate(7.085 78.142)" fill="#e8e8e8"/>
          <ellipse id="Elipse_5602" data-name="Elipse 5602" cx="1.489" cy="1.489" rx="1.489" ry="1.489" transform="translate(14.98 78.142)" fill="#e8e8e8"/>
          <ellipse id="Elipse_5603" data-name="Elipse 5603" cx="1.489" cy="1.489" rx="1.489" ry="1.489" transform="translate(22.876 78.142)" fill="#e8e8e8"/>
          <ellipse id="Elipse_5604" data-name="Elipse 5604" cx="1.489" cy="1.489" rx="1.489" ry="1.489" transform="translate(30.771 78.142)" fill="#e8e8e8"/>
          <ellipse id="Elipse_5605" data-name="Elipse 5605" cx="1.489" cy="1.489" rx="1.489" ry="1.489" transform="translate(38.666 78.142)" fill="#e8e8e8"/>
          <ellipse id="Elipse_5606" data-name="Elipse 5606" cx="1.489" cy="1.489" rx="1.489" ry="1.489" transform="translate(46.561 78.142)" fill="#e8e8e8"/>
          <ellipse id="Elipse_5607" data-name="Elipse 5607" cx="1.489" cy="1.489" rx="1.489" ry="1.489" transform="translate(54.456 78.142)" fill="#e8e8e8"/>
          <path id="Trazado_193861" data-name="Trazado 193861" d="M1.489,0A1.489,1.489,0,1,1,0,1.489,1.489,1.489,0,0,1,1.489,0Z" transform="translate(62.351 78.142)" fill="#e8e8e8"/>
          <path id="Trazado_193862" data-name="Trazado 193862" d="M1.489,0A1.489,1.489,0,1,1,0,1.489,1.489,1.489,0,0,1,1.489,0Z" transform="translate(70.246 78.142)" fill="#e8e8e8"/>
          <path id="Trazado_193863" data-name="Trazado 193863" d="M1.489,0A1.489,1.489,0,1,1,0,1.489,1.489,1.489,0,0,1,1.489,0Z" transform="translate(78.141 78.142)" fill="#e8e8e8"/>
          <path id="Trazado_193864" data-name="Trazado 193864" d="M1.489,0A1.489,1.489,0,1,1,0,1.489,1.489,1.489,0,0,1,1.489,0Z" transform="translate(86.036 78.142)" fill="#e8e8e8"/>
          <path id="Trazado_193865" data-name="Trazado 193865" d="M1.489,0A1.489,1.489,0,1,1,0,1.489,1.489,1.489,0,0,1,1.489,0Z" transform="translate(93.932 78.142)" fill="#e8e8e8"/>
          <path id="Trazado_193866" data-name="Trazado 193866" d="M1.489,0A1.489,1.489,0,1,1,0,1.489,1.489,1.489,0,0,1,1.489,0Z" transform="translate(101.827 78.142)" fill="#e8e8e8"/>
          <path id="Trazado_193867" data-name="Trazado 193867" d="M1.489,0A1.489,1.489,0,1,1,0,1.489,1.489,1.489,0,0,1,1.489,0Z" transform="translate(109.722 78.142)" fill="#e8e8e8"/>
          <path id="Trazado_193868" data-name="Trazado 193868" d="M1.487,0A1.489,1.489,0,1,1,0,1.489,1.488,1.488,0,0,1,1.487,0Z" transform="translate(117.619 78.142)" fill="#e8e8e8"/>
          <ellipse id="Elipse_5608" data-name="Elipse 5608" cx="0.328" cy="0.328" rx="0.328" ry="0.328" transform="translate(126.673 79.302)" fill="#e8e8e8"/>
          <path id="Trazado_193869" data-name="Trazado 193869" d="M.635,0A.635.635,0,1,1,0,.635.635.635,0,0,1,.635,0Z" transform="translate(0.044 71.101)" fill="#e8e8e8"/>
          <path id="Trazado_193870" data-name="Trazado 193870" d="M1.489,0A1.489,1.489,0,1,1,0,1.489,1.487,1.487,0,0,1,1.489,0Z" transform="translate(7.086 70.247)" fill="#e8e8e8"/>
          <path id="Trazado_193871" data-name="Trazado 193871" d="M1.489,0A1.489,1.489,0,1,1,0,1.489,1.487,1.487,0,0,1,1.489,0Z" transform="translate(14.981 70.247)" fill="#e8e8e8"/>
          <path id="Trazado_193872" data-name="Trazado 193872" d="M1.489,0A1.489,1.489,0,1,1,0,1.489,1.487,1.487,0,0,1,1.489,0Z" transform="translate(22.876 70.247)" fill="#e8e8e8"/>
          <path id="Trazado_193873" data-name="Trazado 193873" d="M1.489,0A1.489,1.489,0,1,1,0,1.489,1.487,1.487,0,0,1,1.489,0Z" transform="translate(30.771 70.247)" fill="#e8e8e8"/>
          <path id="Trazado_193874" data-name="Trazado 193874" d="M1.489,0A1.489,1.489,0,1,1,0,1.489,1.489,1.489,0,0,1,1.489,0Z" transform="translate(38.666 70.247)" fill="#e8e8e8"/>
          <path id="Trazado_193875" data-name="Trazado 193875" d="M1.489,0A1.489,1.489,0,1,1,0,1.489,1.489,1.489,0,0,1,1.489,0Z" transform="translate(46.561 70.247)" fill="#e8e8e8"/>
          <path id="Trazado_193876" data-name="Trazado 193876" d="M1.489,0A1.489,1.489,0,1,1,0,1.489,1.489,1.489,0,0,1,1.489,0Z" transform="translate(54.456 70.247)" fill="#e8e8e8"/>
          <path id="Trazado_193877" data-name="Trazado 193877" d="M1.489,0A1.489,1.489,0,1,1,0,1.489,1.489,1.489,0,0,1,1.489,0Z" transform="translate(62.351 70.247)" fill="#e8e8e8"/>
          <path id="Trazado_193878" data-name="Trazado 193878" d="M1.489,0A1.489,1.489,0,1,1,0,1.489,1.489,1.489,0,0,1,1.489,0Z" transform="translate(70.246 70.247)" fill="#e8e8e8"/>
          <path id="Trazado_193879" data-name="Trazado 193879" d="M1.489,0A1.489,1.489,0,1,1,0,1.489,1.489,1.489,0,0,1,1.489,0Z" transform="translate(78.141 70.247)" fill="#e8e8e8"/>
          <path id="Trazado_193880" data-name="Trazado 193880" d="M1.489,0A1.489,1.489,0,1,1,0,1.489,1.489,1.489,0,0,1,1.489,0Z" transform="translate(86.036 70.247)" fill="#e8e8e8"/>
          <path id="Trazado_193881" data-name="Trazado 193881" d="M1.489,0A1.489,1.489,0,1,1,0,1.489,1.489,1.489,0,0,1,1.489,0Z" transform="translate(93.932 70.247)" fill="#e8e8e8"/>
          <path id="Trazado_193882" data-name="Trazado 193882" d="M1.489,0A1.489,1.489,0,1,1,0,1.489,1.489,1.489,0,0,1,1.489,0Z" transform="translate(101.827 70.247)" fill="#e8e8e8"/>
          <path id="Trazado_193883" data-name="Trazado 193883" d="M1.489,0A1.489,1.489,0,1,1,0,1.489,1.489,1.489,0,0,1,1.489,0Z" transform="translate(109.722 70.247)" fill="#e8e8e8"/>
          <path id="Trazado_193884" data-name="Trazado 193884" d="M1.487,0A1.489,1.489,0,1,1,0,1.489,1.488,1.488,0,0,1,1.487,0Z" transform="translate(117.619 70.247)" fill="#e8e8e8"/>
          <path id="Trazado_193885" data-name="Trazado 193885" d="M.613,0A.613.613,0,1,1,0,.613.612.612,0,0,1,.613,0Z" transform="translate(126.388 71.123)" fill="#e8e8e8"/>
          <ellipse id="Elipse_5609" data-name="Elipse 5609" cx="0.679" cy="0.679" rx="0.679" ry="0.679" transform="translate(0 63.162)" fill="#e8e8e8"/>
          <path id="Trazado_193886" data-name="Trazado 193886" d="M1.489,0A1.489,1.489,0,1,1,0,1.489,1.487,1.487,0,0,1,1.489,0Z" transform="translate(7.086 62.352)" fill="#e8e8e8"/>
          <path id="Trazado_193887" data-name="Trazado 193887" d="M1.489,0A1.489,1.489,0,1,1,0,1.489,1.487,1.487,0,0,1,1.489,0Z" transform="translate(14.981 62.352)" fill="#e8e8e8"/>
          <path id="Trazado_193888" data-name="Trazado 193888" d="M1.489,0A1.489,1.489,0,1,1,0,1.489,1.487,1.487,0,0,1,1.489,0Z" transform="translate(22.876 62.352)" fill="#e8e8e8"/>
          <path id="Trazado_193889" data-name="Trazado 193889" d="M1.489,0A1.489,1.489,0,1,1,0,1.489,1.487,1.487,0,0,1,1.489,0Z" transform="translate(30.771 62.352)" fill="#e8e8e8"/>
          <path id="Trazado_193890" data-name="Trazado 193890" d="M1.489,0A1.489,1.489,0,1,1,0,1.489,1.489,1.489,0,0,1,1.489,0Z" transform="translate(38.666 62.352)" fill="#e8e8e8"/>
          <path id="Trazado_193891" data-name="Trazado 193891" d="M1.489,0A1.489,1.489,0,1,1,0,1.489,1.489,1.489,0,0,1,1.489,0Z" transform="translate(46.561 62.352)" fill="#e8e8e8"/>
          <path id="Trazado_193892" data-name="Trazado 193892" d="M1.489,0A1.489,1.489,0,1,1,0,1.489,1.489,1.489,0,0,1,1.489,0Z" transform="translate(54.456 62.352)" fill="#e8e8e8"/>
          <path id="Trazado_193893" data-name="Trazado 193893" d="M1.489,0A1.489,1.489,0,1,1,0,1.489,1.489,1.489,0,0,1,1.489,0Z" transform="translate(62.351 62.352)" fill="#e8e8e8"/>
          <path id="Trazado_193894" data-name="Trazado 193894" d="M1.489,0A1.489,1.489,0,1,1,0,1.489,1.489,1.489,0,0,1,1.489,0Z" transform="translate(70.246 62.352)" fill="#e8e8e8"/>
          <path id="Trazado_193895" data-name="Trazado 193895" d="M1.489,0A1.489,1.489,0,1,1,0,1.489,1.489,1.489,0,0,1,1.489,0Z" transform="translate(78.141 62.352)" fill="#e8e8e8"/>
          <path id="Trazado_193896" data-name="Trazado 193896" d="M1.489,0A1.489,1.489,0,1,1,0,1.489,1.489,1.489,0,0,1,1.489,0Z" transform="translate(86.036 62.352)" fill="#e8e8e8"/>
          <path id="Trazado_193897" data-name="Trazado 193897" d="M1.489,0A1.489,1.489,0,1,1,0,1.489,1.489,1.489,0,0,1,1.489,0Z" transform="translate(93.932 62.352)" fill="#e8e8e8"/>
          <path id="Trazado_193898" data-name="Trazado 193898" d="M1.489,0A1.489,1.489,0,1,1,0,1.489,1.489,1.489,0,0,1,1.489,0Z" transform="translate(101.827 62.352)" fill="#e8e8e8"/>
          <path id="Trazado_193899" data-name="Trazado 193899" d="M1.489,0A1.489,1.489,0,1,1,0,1.489,1.489,1.489,0,0,1,1.489,0Z" transform="translate(109.722 62.352)" fill="#e8e8e8"/>
          <path id="Trazado_193900" data-name="Trazado 193900" d="M1.487,0A1.489,1.489,0,1,1,0,1.489,1.488,1.488,0,0,1,1.487,0Z" transform="translate(117.619 62.352)" fill="#e8e8e8"/>
          <path id="Trazado_193901" data-name="Trazado 193901" d="M.677,0A.678.678,0,1,1,0,.679.679.679,0,0,1,.677,0Z" transform="translate(126.323 63.162)" fill="#e8e8e8"/>
          <path id="Trazado_193902" data-name="Trazado 193902" d="M.635,0A.635.635,0,1,1,0,.635.635.635,0,0,1,.635,0Z" transform="translate(0.044 55.311)" fill="#e8e8e8"/>
          <path id="Trazado_193903" data-name="Trazado 193903" d="M1.489,0A1.488,1.488,0,1,1,0,1.489,1.487,1.487,0,0,1,1.489,0Z" transform="translate(7.086 54.457)" fill="#e8e8e8"/>
          <path id="Trazado_193904" data-name="Trazado 193904" d="M1.489,0A1.488,1.488,0,1,1,0,1.489,1.487,1.487,0,0,1,1.489,0Z" transform="translate(14.981 54.457)" fill="#e8e8e8"/>
          <path id="Trazado_193905" data-name="Trazado 193905" d="M1.489,0A1.488,1.488,0,1,1,0,1.489,1.487,1.487,0,0,1,1.489,0Z" transform="translate(22.876 54.457)" fill="#e8e8e8"/>
          <path id="Trazado_193906" data-name="Trazado 193906" d="M1.489,0A1.488,1.488,0,1,1,0,1.489,1.487,1.487,0,0,1,1.489,0Z" transform="translate(30.771 54.457)" fill="#e8e8e8"/>
          <path id="Trazado_193907" data-name="Trazado 193907" d="M1.489,0A1.488,1.488,0,1,1,0,1.489,1.489,1.489,0,0,1,1.489,0Z" transform="translate(38.666 54.457)" fill="#e8e8e8"/>
          <path id="Trazado_193908" data-name="Trazado 193908" d="M1.489,0A1.488,1.488,0,1,1,0,1.489,1.489,1.489,0,0,1,1.489,0Z" transform="translate(46.561 54.457)" fill="#e8e8e8"/>
          <path id="Trazado_193909" data-name="Trazado 193909" d="M1.489,0A1.488,1.488,0,1,1,0,1.489,1.489,1.489,0,0,1,1.489,0Z" transform="translate(54.456 54.457)" fill="#e8e8e8"/>
          <path id="Trazado_193910" data-name="Trazado 193910" d="M1.489,0A1.488,1.488,0,1,1,0,1.489,1.489,1.489,0,0,1,1.489,0Z" transform="translate(62.351 54.457)" fill="#e8e8e8"/>
          <path id="Trazado_193911" data-name="Trazado 193911" d="M1.489,0A1.488,1.488,0,1,1,0,1.489,1.489,1.489,0,0,1,1.489,0Z" transform="translate(70.246 54.457)" fill="#e8e8e8"/>
          <path id="Trazado_193912" data-name="Trazado 193912" d="M1.489,0A1.488,1.488,0,1,1,0,1.489,1.489,1.489,0,0,1,1.489,0Z" transform="translate(78.141 54.457)" fill="#e8e8e8"/>
          <path id="Trazado_193913" data-name="Trazado 193913" d="M1.489,0A1.488,1.488,0,1,1,0,1.489,1.489,1.489,0,0,1,1.489,0Z" transform="translate(86.036 54.457)" fill="#e8e8e8"/>
          <path id="Trazado_193914" data-name="Trazado 193914" d="M1.489,0A1.488,1.488,0,1,1,0,1.489,1.489,1.489,0,0,1,1.489,0Z" transform="translate(93.932 54.457)" fill="#e8e8e8"/>
          <path id="Trazado_193915" data-name="Trazado 193915" d="M1.489,0A1.488,1.488,0,1,1,0,1.489,1.489,1.489,0,0,1,1.489,0Z" transform="translate(101.827 54.457)" fill="#e8e8e8"/>
          <path id="Trazado_193916" data-name="Trazado 193916" d="M1.489,0A1.488,1.488,0,1,1,0,1.489,1.489,1.489,0,0,1,1.489,0Z" transform="translate(109.722 54.457)" fill="#e8e8e8"/>
          <path id="Trazado_193917" data-name="Trazado 193917" d="M1.487,0A1.488,1.488,0,1,1,0,1.489,1.488,1.488,0,0,1,1.487,0Z" transform="translate(117.619 54.457)" fill="#e8e8e8"/>
          <path id="Trazado_193918" data-name="Trazado 193918" d="M.591,0A.591.591,0,1,1,0,.591.591.591,0,0,1,.591,0Z" transform="translate(126.41 55.355)" fill="#e8e8e8"/>
          <ellipse id="Elipse_5610" data-name="Elipse 5610" cx="0.35" cy="0.35" rx="0.35" ry="0.35" transform="translate(0.328 47.7)" fill="#e8e8e8"/>
          <path id="Trazado_193919" data-name="Trazado 193919" d="M1.489,0A1.488,1.488,0,1,1,0,1.489,1.487,1.487,0,0,1,1.489,0Z" transform="translate(7.086 46.561)" fill="#e8e8e8"/>
          <path id="Trazado_193920" data-name="Trazado 193920" d="M1.489,0A1.488,1.488,0,1,1,0,1.489,1.487,1.487,0,0,1,1.489,0Z" transform="translate(14.981 46.561)" fill="#e8e8e8"/>
          <path id="Trazado_193921" data-name="Trazado 193921" d="M1.489,0A1.488,1.488,0,1,1,0,1.489,1.487,1.487,0,0,1,1.489,0Z" transform="translate(22.876 46.561)" fill="#e8e8e8"/>
          <path id="Trazado_193922" data-name="Trazado 193922" d="M1.489,0A1.488,1.488,0,1,1,0,1.489,1.487,1.487,0,0,1,1.489,0Z" transform="translate(30.771 46.561)" fill="#e8e8e8"/>
          <path id="Trazado_193923" data-name="Trazado 193923" d="M1.489,0A1.488,1.488,0,1,1,0,1.489,1.489,1.489,0,0,1,1.489,0Z" transform="translate(38.666 46.561)" fill="#e8e8e8"/>
          <path id="Trazado_193924" data-name="Trazado 193924" d="M1.489,0A1.488,1.488,0,1,1,0,1.489,1.489,1.489,0,0,1,1.489,0Z" transform="translate(46.561 46.561)" fill="#e8e8e8"/>
          <path id="Trazado_193925" data-name="Trazado 193925" d="M1.489,0A1.488,1.488,0,1,1,0,1.489,1.489,1.489,0,0,1,1.489,0Z" transform="translate(54.456 46.561)" fill="#e8e8e8"/>
          <path id="Trazado_193926" data-name="Trazado 193926" d="M1.489,0A1.488,1.488,0,1,1,0,1.489,1.489,1.489,0,0,1,1.489,0Z" transform="translate(62.351 46.561)" fill="#e8e8e8"/>
          <path id="Trazado_193927" data-name="Trazado 193927" d="M1.489,0A1.488,1.488,0,1,1,0,1.489,1.489,1.489,0,0,1,1.489,0Z" transform="translate(70.246 46.561)" fill="#e8e8e8"/>
          <path id="Trazado_193928" data-name="Trazado 193928" d="M1.489,0A1.488,1.488,0,1,1,0,1.489,1.489,1.489,0,0,1,1.489,0Z" transform="translate(78.141 46.561)" fill="#e8e8e8"/>
          <path id="Trazado_193929" data-name="Trazado 193929" d="M1.489,0A1.488,1.488,0,1,1,0,1.489,1.489,1.489,0,0,1,1.489,0Z" transform="translate(86.036 46.561)" fill="#e8e8e8"/>
          <path id="Trazado_193930" data-name="Trazado 193930" d="M1.489,0A1.488,1.488,0,1,1,0,1.489,1.489,1.489,0,0,1,1.489,0Z" transform="translate(93.932 46.561)" fill="#e8e8e8"/>
          <path id="Trazado_193931" data-name="Trazado 193931" d="M1.489,0A1.488,1.488,0,1,1,0,1.489,1.489,1.489,0,0,1,1.489,0Z" transform="translate(101.827 46.561)" fill="#e8e8e8"/>
          <path id="Trazado_193932" data-name="Trazado 193932" d="M1.489,0A1.488,1.488,0,1,1,0,1.489,1.489,1.489,0,0,1,1.489,0Z" transform="translate(109.722 46.561)" fill="#e8e8e8"/>
          <path id="Trazado_193933" data-name="Trazado 193933" d="M1.487,0A1.488,1.488,0,1,1,0,1.489,1.488,1.488,0,0,1,1.487,0Z" transform="translate(117.619 46.561)" fill="#e8e8e8"/>
          <ellipse id="Elipse_5611" data-name="Elipse 5611" cx="0.328" cy="0.328" rx="0.328" ry="0.328" transform="translate(126.673 47.721)" fill="#e8e8e8"/>
          <ellipse id="Elipse_5612" data-name="Elipse 5612" cx="0.022" cy="0.022" rx="0.022" ry="0.022" transform="translate(0.657 40.133)" fill="#e8e8e8"/>
          <path id="Trazado_193934" data-name="Trazado 193934" d="M1.314,0A1.313,1.313,0,1,1,0,1.313,1.312,1.312,0,0,1,1.314,0Z" transform="translate(7.26 38.841)" fill="#e8e8e8"/>
          <path id="Trazado_193935" data-name="Trazado 193935" d="M1.489,0A1.488,1.488,0,1,1,0,1.487,1.487,1.487,0,0,1,1.489,0Z" transform="translate(14.981 38.666)" fill="#e8e8e8"/>
          <path id="Trazado_193936" data-name="Trazado 193936" d="M1.489,0A1.488,1.488,0,1,1,0,1.487,1.487,1.487,0,0,1,1.489,0" transform="translate(22.876 38.666)" fill="#e8e8e8"/>
          <path id="Trazado_193937" data-name="Trazado 193937" d="M1.489,0A1.488,1.488,0,1,1,0,1.487,1.487,1.487,0,0,1,1.489,0Z" transform="translate(30.771 38.666)" fill="#e8e8e8"/>
          <path id="Trazado_193938" data-name="Trazado 193938" d="M1.489,0A1.488,1.488,0,1,1,0,1.487,1.488,1.488,0,0,1,1.489,0Z" transform="translate(38.666 38.666)" fill="#e8e8e8"/>
          <path id="Trazado_193939" data-name="Trazado 193939" d="M1.489,0A1.488,1.488,0,1,1,0,1.487,1.488,1.488,0,0,1,1.489,0Z" transform="translate(46.561 38.666)" fill="#e8e8e8"/>
          <path id="Trazado_193940" data-name="Trazado 193940" d="M1.489,0A1.488,1.488,0,1,1,0,1.487,1.488,1.488,0,0,1,1.489,0Z" transform="translate(54.456 38.666)" fill="#e8e8e8"/>
          <path id="Trazado_193941" data-name="Trazado 193941" d="M1.489,0A1.488,1.488,0,1,1,0,1.487,1.488,1.488,0,0,1,1.489,0Z" transform="translate(62.351 38.666)" fill="#e8e8e8"/>
          <path id="Trazado_193942" data-name="Trazado 193942" d="M1.489,0A1.488,1.488,0,1,1,0,1.487,1.488,1.488,0,0,1,1.489,0Z" transform="translate(70.246 38.666)" fill="#e8e8e8"/>
          <path id="Trazado_193943" data-name="Trazado 193943" d="M1.489,0A1.488,1.488,0,1,1,0,1.487,1.488,1.488,0,0,1,1.489,0Z" transform="translate(78.141 38.666)" fill="#e8e8e8"/>
          <path id="Trazado_193944" data-name="Trazado 193944" d="M1.489,0A1.488,1.488,0,1,1,0,1.487,1.488,1.488,0,0,1,1.489,0Z" transform="translate(86.036 38.666)" fill="#e8e8e8"/>
          <path id="Trazado_193945" data-name="Trazado 193945" d="M1.489,0A1.488,1.488,0,1,1,0,1.487,1.488,1.488,0,0,1,1.489,0Z" transform="translate(93.932 38.666)" fill="#e8e8e8"/>
          <path id="Trazado_193946" data-name="Trazado 193946" d="M1.489,0A1.488,1.488,0,1,1,0,1.487,1.488,1.488,0,0,1,1.489,0Z" transform="translate(101.827 38.666)" fill="#e8e8e8"/>
          <path id="Trazado_193947" data-name="Trazado 193947" d="M1.489,0A1.488,1.488,0,1,1,0,1.487,1.488,1.488,0,0,1,1.489,0Z" transform="translate(109.722 38.666)" fill="#e8e8e8"/>
          <path id="Trazado_193948" data-name="Trazado 193948" d="M1.29,0A1.291,1.291,0,1,1,0,1.29,1.29,1.29,0,0,1,1.29,0Z" transform="translate(117.815 38.863)" fill="#e8e8e8"/>
          <ellipse id="Elipse_5613" data-name="Elipse 5613" cx="0.044" cy="0.044" rx="0.044" ry="0.044" transform="translate(126.958 40.111)" fill="#e8e8e8"/>
          <path id="Trazado_193949" data-name="Trazado 193949" d="M.615,0A.614.614,0,1,1,0,.613.614.614,0,0,1,.615,0Z" transform="translate(7.96 31.646)" fill="#e8e8e8"/>
          <path id="Trazado_193950" data-name="Trazado 193950" d="M1.489,0A1.488,1.488,0,1,1,0,1.487,1.487,1.487,0,0,1,1.489,0Z" transform="translate(14.981 30.771)" fill="#e8e8e8"/>
          <path id="Trazado_193951" data-name="Trazado 193951" d="M1.489,0A1.488,1.488,0,1,1,0,1.487,1.487,1.487,0,0,1,1.489,0Z" transform="translate(22.876 30.771)" fill="#e8e8e8"/>
          <path id="Trazado_193952" data-name="Trazado 193952" d="M1.489,0A1.488,1.488,0,1,1,0,1.487,1.487,1.487,0,0,1,1.489,0Z" transform="translate(30.771 30.771)" fill="#e8e8e8"/>
          <path id="Trazado_193953" data-name="Trazado 193953" d="M1.489,0A1.488,1.488,0,1,1,0,1.487,1.488,1.488,0,0,1,1.489,0Z" transform="translate(38.666 30.771)" fill="#e8e8e8"/>
          <path id="Trazado_193954" data-name="Trazado 193954" d="M1.489,0A1.488,1.488,0,1,1,0,1.487,1.488,1.488,0,0,1,1.489,0Z" transform="translate(46.561 30.771)" fill="#e8e8e8"/>
          <path id="Trazado_193955" data-name="Trazado 193955" d="M1.489,0A1.488,1.488,0,1,1,0,1.487,1.488,1.488,0,0,1,1.489,0Z" transform="translate(54.456 30.771)" fill="#e8e8e8"/>
          <path id="Trazado_193956" data-name="Trazado 193956" d="M1.489,0A1.488,1.488,0,1,1,0,1.487,1.488,1.488,0,0,1,1.489,0Z" transform="translate(62.351 30.771)" fill="#e8e8e8"/>
          <path id="Trazado_193957" data-name="Trazado 193957" d="M1.489,0A1.488,1.488,0,1,1,0,1.487,1.488,1.488,0,0,1,1.489,0Z" transform="translate(70.246 30.771)" fill="#e8e8e8"/>
          <path id="Trazado_193958" data-name="Trazado 193958" d="M1.489,0A1.488,1.488,0,1,1,0,1.487,1.488,1.488,0,0,1,1.489,0Z" transform="translate(78.141 30.771)" fill="#e8e8e8"/>
          <path id="Trazado_193959" data-name="Trazado 193959" d="M1.489,0A1.488,1.488,0,1,1,0,1.487,1.488,1.488,0,0,1,1.489,0Z" transform="translate(86.036 30.771)" fill="#e8e8e8"/>
          <path id="Trazado_193960" data-name="Trazado 193960" d="M1.489,0A1.488,1.488,0,1,1,0,1.487,1.488,1.488,0,0,1,1.489,0Z" transform="translate(93.932 30.771)" fill="#e8e8e8"/>
          <path id="Trazado_193961" data-name="Trazado 193961" d="M1.489,0A1.488,1.488,0,1,1,0,1.487,1.488,1.488,0,0,1,1.489,0Z" transform="translate(101.827 30.771)" fill="#e8e8e8"/>
          <path id="Trazado_193962" data-name="Trazado 193962" d="M1.489,0A1.488,1.488,0,1,1,0,1.487,1.488,1.488,0,0,1,1.489,0Z" transform="translate(109.722 30.771)" fill="#e8e8e8"/>
          <path id="Trazado_193963" data-name="Trazado 193963" d="M.591,0A.592.592,0,1,1,0,.591.592.592,0,0,1,.591,0Z" transform="translate(118.515 31.668)" fill="#e8e8e8"/>
          <ellipse id="Elipse_5614" data-name="Elipse 5614" cx="0.022" cy="0.022" rx="0.022" ry="0.022" transform="translate(8.552 24.342)" fill="#e8e8e8"/>
          <path id="Trazado_193964" data-name="Trazado 193964" d="M1.051,0A1.051,1.051,0,1,1,0,1.051,1.053,1.053,0,0,1,1.051,0Z" transform="translate(15.419 23.313)" fill="#e8e8e8"/>
          <ellipse id="Elipse_5615" data-name="Elipse 5615" cx="1.489" cy="1.489" rx="1.489" ry="1.489" transform="translate(22.876 22.876)" fill="#e8e8e8"/>
          <ellipse id="Elipse_5616" data-name="Elipse 5616" cx="1.489" cy="1.489" rx="1.489" ry="1.489" transform="translate(30.771 22.876)" fill="#e8e8e8"/>
          <ellipse id="Elipse_5617" data-name="Elipse 5617" cx="1.489" cy="1.489" rx="1.489" ry="1.489" transform="translate(38.666 22.876)" fill="#e8e8e8"/>
          <ellipse id="Elipse_5618" data-name="Elipse 5618" cx="1.489" cy="1.489" rx="1.489" ry="1.489" transform="translate(46.561 22.876)" fill="#e8e8e8"/>
          <ellipse id="Elipse_5619" data-name="Elipse 5619" cx="1.489" cy="1.489" rx="1.489" ry="1.489" transform="translate(54.456 22.876)" fill="#e8e8e8"/>
          <path id="Trazado_193965" data-name="Trazado 193965" d="M1.489,0A1.488,1.488,0,1,1,0,1.487,1.488,1.488,0,0,1,1.489,0Z" transform="translate(62.351 22.876)" fill="#e8e8e8"/>
          <path id="Trazado_193966" data-name="Trazado 193966" d="M1.489,0A1.488,1.488,0,1,1,0,1.487,1.488,1.488,0,0,1,1.489,0Z" transform="translate(70.246 22.876)" fill="#e8e8e8"/>
          <path id="Trazado_193967" data-name="Trazado 193967" d="M1.489,0A1.488,1.488,0,1,1,0,1.487,1.488,1.488,0,0,1,1.489,0Z" transform="translate(78.141 22.876)" fill="#e8e8e8"/>
          <path id="Trazado_193968" data-name="Trazado 193968" d="M1.489,0A1.488,1.488,0,1,1,0,1.487,1.488,1.488,0,0,1,1.489,0Z" transform="translate(86.036 22.876)" fill="#e8e8e8"/>
          <path id="Trazado_193969" data-name="Trazado 193969" d="M1.489,0A1.488,1.488,0,1,1,0,1.487,1.488,1.488,0,0,1,1.489,0Z" transform="translate(93.932 22.876)" fill="#e8e8e8"/>
          <path id="Trazado_193970" data-name="Trazado 193970" d="M1.489,0A1.488,1.488,0,1,1,0,1.487,1.488,1.488,0,0,1,1.489,0Z" transform="translate(101.827 22.876)" fill="#e8e8e8"/>
          <path id="Trazado_193971" data-name="Trazado 193971" d="M1.029,0A1.03,1.03,0,1,1,0,1.029,1.029,1.029,0,0,1,1.029,0Z" transform="translate(110.182 23.335)" fill="#e8e8e8"/>
          <ellipse id="Elipse_5620" data-name="Elipse 5620" cx="0.022" cy="0.022" rx="0.022" ry="0.022" transform="translate(119.085 24.342)" fill="#e8e8e8"/>
          <ellipse id="Elipse_5621" data-name="Elipse 5621" cx="0.066" cy="0.066" rx="0.066" ry="0.066" transform="translate(16.403 16.403)" fill="#e8e8e8"/>
          <path id="Trazado_193972" data-name="Trazado 193972" d="M1.051,0A1.051,1.051,0,1,1,0,1.051,1.053,1.053,0,0,1,1.051,0Z" transform="translate(23.314 15.418)" fill="#e8e8e8"/>
          <ellipse id="Elipse_5622" data-name="Elipse 5622" cx="1.489" cy="1.489" rx="1.489" ry="1.489" transform="translate(30.771 14.98)" fill="#e8e8e8"/>
          <ellipse id="Elipse_5623" data-name="Elipse 5623" cx="1.489" cy="1.489" rx="1.489" ry="1.489" transform="translate(38.666 14.98)" fill="#e8e8e8"/>
          <ellipse id="Elipse_5624" data-name="Elipse 5624" cx="1.489" cy="1.489" rx="1.489" ry="1.489" transform="translate(46.561 14.98)" fill="#e8e8e8"/>
          <ellipse id="Elipse_5625" data-name="Elipse 5625" cx="1.489" cy="1.489" rx="1.489" ry="1.489" transform="translate(54.456 14.98)" fill="#e8e8e8"/>
          <path id="Trazado_193973" data-name="Trazado 193973" d="M1.489,0A1.488,1.488,0,1,1,0,1.487,1.488,1.488,0,0,1,1.489,0Z" transform="translate(62.351 14.981)" fill="#e8e8e8"/>
          <path id="Trazado_193974" data-name="Trazado 193974" d="M1.489,0A1.488,1.488,0,1,1,0,1.487,1.488,1.488,0,0,1,1.489,0Z" transform="translate(70.246 14.981)" fill="#e8e8e8"/>
          <path id="Trazado_193975" data-name="Trazado 193975" d="M1.489,0A1.488,1.488,0,1,1,0,1.487,1.488,1.488,0,0,1,1.489,0Z" transform="translate(78.141 14.981)" fill="#e8e8e8"/>
          <path id="Trazado_193976" data-name="Trazado 193976" d="M1.489,0A1.488,1.488,0,1,1,0,1.487,1.488,1.488,0,0,1,1.489,0Z" transform="translate(86.036 14.981)" fill="#e8e8e8"/>
          <path id="Trazado_193977" data-name="Trazado 193977" d="M1.489,0A1.488,1.488,0,1,1,0,1.487,1.488,1.488,0,0,1,1.489,0Z" transform="translate(93.932 14.981)" fill="#e8e8e8"/>
          <path id="Trazado_193978" data-name="Trazado 193978" d="M1.029,0A1.029,1.029,0,1,1,0,1.029,1.029,1.029,0,0,1,1.029,0Z" transform="translate(102.287 15.44)" fill="#e8e8e8"/>
          <path id="Trazado_193979" data-name="Trazado 193979" d="M.087,0A.087.087,0,1,1,0,.087.087.087,0,0,1,.087,0Z" transform="translate(111.124 16.382)" fill="#e8e8e8"/>
          <ellipse id="Elipse_5626" data-name="Elipse 5626" cx="0.022" cy="0.022" rx="0.022" ry="0.022" transform="translate(24.342 8.552)" fill="#e8e8e8"/>
          <path id="Trazado_193980" data-name="Trazado 193980" d="M.613,0A.613.613,0,1,1,0,.613.614.614,0,0,1,.613,0Z" transform="translate(31.647 7.96)" fill="#e8e8e8"/>
          <path id="Trazado_193981" data-name="Trazado 193981" d="M1.292,0A1.291,1.291,0,1,1,0,1.29,1.291,1.291,0,0,1,1.292,0Z" transform="translate(38.863 7.283)" fill="#e8e8e8"/>
          <ellipse id="Elipse_5627" data-name="Elipse 5627" cx="1.489" cy="1.489" rx="1.489" ry="1.489" transform="translate(46.561 7.085)" fill="#e8e8e8"/>
          <ellipse id="Elipse_5628" data-name="Elipse 5628" cx="1.489" cy="1.489" rx="1.489" ry="1.489" transform="translate(54.456 7.085)" fill="#e8e8e8"/>
          <path id="Trazado_193982" data-name="Trazado 193982" d="M1.489,0A1.488,1.488,0,1,1,0,1.487,1.488,1.488,0,0,1,1.489,0Z" transform="translate(62.351 7.086)" fill="#e8e8e8"/>
          <path id="Trazado_193983" data-name="Trazado 193983" d="M1.489,0A1.488,1.488,0,1,1,0,1.487,1.488,1.488,0,0,1,1.489,0Z" transform="translate(70.246 7.086)" fill="#e8e8e8"/>
          <path id="Trazado_193984" data-name="Trazado 193984" d="M1.489,0A1.488,1.488,0,1,1,0,1.487,1.488,1.488,0,0,1,1.489,0Z" transform="translate(78.141 7.086)" fill="#e8e8e8"/>
          <path id="Trazado_193985" data-name="Trazado 193985" d="M1.292,0A1.291,1.291,0,1,1,0,1.29,1.291,1.291,0,0,1,1.292,0Z" transform="translate(86.233 7.283)" fill="#e8e8e8"/>
          <path id="Trazado_193986" data-name="Trazado 193986" d="M.591,0A.591.591,0,1,1,0,.591.591.591,0,0,1,.591,0Z" transform="translate(94.83 7.983)" fill="#e8e8e8"/>
          <ellipse id="Elipse_5629" data-name="Elipse 5629" cx="0.022" cy="0.022" rx="0.022" ry="0.022" transform="translate(103.294 8.552)" fill="#e8e8e8"/>
          <ellipse id="Elipse_5630" data-name="Elipse 5630" cx="0.044" cy="0.044" rx="0.044" ry="0.044" transform="translate(40.111 0.635)" fill="#e8e8e8"/>
          <path id="Trazado_193987" data-name="Trazado 193987" d="M.328,0A.329.329,0,1,1,0,.328.327.327,0,0,1,.328,0Z" transform="translate(47.722 0.351)" fill="#e8e8e8"/>
          <path id="Trazado_193988" data-name="Trazado 193988" d="M.613,0A.613.613,0,1,1,0,.613.614.614,0,0,1,.613,0Z" transform="translate(55.332 0.065)" fill="#e8e8e8"/>
          <ellipse id="Elipse_5631" data-name="Elipse 5631" cx="0.679" cy="0.679" rx="0.679" ry="0.679" transform="translate(63.161)" fill="#e8e8e8"/>
          <path id="Trazado_193989" data-name="Trazado 193989" d="M.613,0A.613.613,0,1,1,0,.613.614.614,0,0,1,.613,0Z" transform="translate(71.122 0.065)" fill="#e8e8e8"/>
          <path id="Trazado_193990" data-name="Trazado 193990" d="M.328,0A.329.329,0,1,1,0,.328.327.327,0,0,1,.328,0Z" transform="translate(79.303 0.351)" fill="#e8e8e8"/>
          <ellipse id="Elipse_5632" data-name="Elipse 5632" cx="0.044" cy="0.044" rx="0.044" ry="0.044" transform="translate(87.482 0.635)" fill="#e8e8e8"/>
        </g>
      </g>
      <g id="Grupo_169387" data-name="Grupo 169387" transform="translate(0 154.98)">
        <path id="Trazado_211593" data-name="Trazado 211593" d="M3.736,292.245c.18.293.367.577.561.856l30.081-18.439c-.16-.3-.33-.6-.509-.889-.265-.431-.546-.846-.841-1.248L3,290.929c.223.444.466.884.731,1.316" transform="translate(-1.239 -265.544)" fill="#43a99b"/>
        <path id="Trazado_211594" data-name="Trazado 211594" d="M21.812,308.751l20.4-12.5a17.712,17.712,0,0,0,.613-3.338L18.559,307.782a17.78,17.78,0,0,0,3.253.969" transform="translate(-7.649 -273.946)" fill="#43a99b"/>
        <path id="Trazado_211595" data-name="Trazado 211595" d="M11.138,301.239,38.8,284.282a17.483,17.483,0,0,0-.577-2.609L9.074,299.541a17.548,17.548,0,0,0,2.064,1.7" transform="translate(-3.74 -269.314)" fill="#43a99b"/>
        <path id="Trazado_211596" data-name="Trazado 211596" d="M41.317,312.923a17.62,17.62,0,0,0,4.838-4.373l-10.931,6.7a17.628,17.628,0,0,0,6.093-2.328" transform="translate(-14.518 -280.392)" fill="#43a99b"/>
        <path id="Trazado_211597" data-name="Trazado 211597" d="M.506,284.644l28.923-17.729a17.462,17.462,0,0,0-2.135-1.655L0,281.991a17.487,17.487,0,0,0,.506,2.653" transform="translate(0 -262.549)" fill="#43a99b"/>
        <path id="Trazado_211598" data-name="Trazado 211598" d="M11.439,263.326a17.656,17.656,0,0,0-3.893,3.232l8.538-5.233a17.645,17.645,0,0,0-4.646,2" transform="translate(-3.11 -260.928)" fill="#43a99b"/>
        <path id="Trazado_211599" data-name="Trazado 211599" d="M.029,276.016l23.638-14.489a17.784,17.784,0,0,0-3.4-.878L.793,272.584a17.732,17.732,0,0,0-.764,3.432" transform="translate(-0.012 -260.649)" fill="#43a99b"/>
      </g>
    </g>
    <g id="Grupo_175904" data-name="Grupo 175904" transform="translate(1154.947 3904.964)" clip-path="url(#clip-path)">
      <path id="Trazado_218610" data-name="Trazado 218610" d="M165.83,163.284s119.913-89.935,38.8-113.741S39.745-33.338,17.7,24.856s37.914,82.881,9.7,114.623,35.269,89.053,138.429,23.806" transform="translate(-5.243 0)" fill="#e9660c"/>
    </g>
    <g id="Grupo_175903" data-name="Grupo 175903" transform="translate(-25.459 -37.179)">
      <g id="Grupo_175902" data-name="Grupo 175902" transform="translate(1230 3985.195)">
        <g id="Grupo_175901" data-name="Grupo 175901" transform="translate(0 0)" clip-path="url(#clip-path-2)">
          <path id="Trazado_218605" data-name="Trazado 218605" d="M35.393,0A11.784,11.784,0,0,1,47.268,11.649a11.877,11.877,0,0,1-23.75,0A11.786,11.786,0,0,1,35.393,0" transform="translate(20.112 0)" fill="#fff"/>
          <path id="Trazado_218606" data-name="Trazado 218606" d="M9.812,25.135v.045a2.119,2.119,0,0,0-.058.427A1.438,1.438,0,0,0,10.8,26.949a9.057,9.057,0,0,0,3.265.438,7.7,7.7,0,0,0,2.631-.36q.96-.362.959-.991c0-.636-1.262-1.148-3.773-1.551-.293-.046-.514-.082-.657-.1-.161-.032-.4-.067-.7-.113q-5.991-.96-7.7-2.076a3.847,3.847,0,0,1-1.26-1.286,3.4,3.4,0,0,1-.416-1.673q0-2.285,2.749-3.477a21.05,21.05,0,0,1,8.053-1.193q5.237,0,7.758,1.117a3.656,3.656,0,0,1,2.527,3.445V19.3H17.624v-.069c0-.534-.332-.933-1-1.208a8.089,8.089,0,0,0-2.94-.416,7.1,7.1,0,0,0-2.317.293q-.818.295-.818.835c0,.647,1.443,1.191,4.326,1.646.553.083.993.15,1.3.195q3.083.5,4.389.868a11.518,11.518,0,0,1,2.254.852,4.375,4.375,0,0,1,1.631,1.421,3.334,3.334,0,0,1,.573,1.885q0,2.354-3,3.623A23.044,23.044,0,0,1,13.4,30.5q-5.563,0-8.055-1.219a4.08,4.08,0,0,1-2.484-3.913v-.23Zm18.118,5.1V14.8H46.781v3.332H35.009v2.456H45.892v3.287H35.009v2.994H47.226v3.371Zm22.251,0V14.8h8.961l9.588,10.361V14.8h6.8V30.237H66.24L56.962,19.842V30.237Zm43.636-6.157-3.386-5.612-3.584,5.612ZM83.035,30.237h-7.1L86.893,14.8h7.853L105.2,30.237H97.316l-1.6-2.786H84.74Z" transform="translate(2.443 12.457)" fill="#fff"/>
          <path id="Trazado_218607" data-name="Trazado 218607" d="M20.954,75.642l-6.324-5.8L33.881,37.267a2.668,2.668,0,0,0-2.367-4H0V25.123H50.723Z" transform="translate(0 21.485)" fill="#fff"/>
          <path id="Trazado_218608" data-name="Trazado 218608" d="M61.967,75.642l6.324-5.8L49.041,37.267a2.666,2.666,0,0,1,2.367-4H82.921V25.123H32.2Z" transform="translate(27.537 21.485)" fill="#fff"/>
          <path id="Trazado_218609" data-name="Trazado 218609" d="M42.586,29.817c.046-.076.069-.115.069-.115L71.235,75.77l-7.59,3.851L45.229,49.543a2.829,2.829,0,0,0-4.8,0l-18.3,30.078L14.7,76.037s26.355-43.688,27.882-46.22" transform="translate(12.575 25.401)" fill="#fff"/>
        </g>
      </g>
    </g>
  </g>
</svg>
