<svg xmlns="http://www.w3.org/2000/svg" xmlns:xlink="http://www.w3.org/1999/xlink" width="295" height="283.745" viewBox="0 0 295 283.745">
  <defs>
    <clipPath id="clip-path">
      <rect id="Rectángulo_52193" data-name="Rectángulo 52193" width="286.862" height="243.52" fill="#8c5be1"/>
    </clipPath>
    <clipPath id="clip-path-2">
      <rect id="Rectángulo_55798" data-name="Rectángulo 55798" width="290" height="224.948" fill="none"/>
    </clipPath>
    <clipPath id="clip-path-4">
      <path id="Trazado_216794" data-name="Trazado 216794" d="M123.208,97.207c-.481,1.136-.943,2.259-1.382,3.382-.086.218-.175.441-.256.661A148.8,148.8,0,0,0,111.4,149.829h0s1.237,29.87-.138,46.86c-.046.573-.457,1.02-.148,1.675.918,1.948,7.22,1.215,8.137.31s.046-1.719.163-2.423c2.29-13.806,7.82-26.968,8.625-31.206,1.738-9.18.3-15.215.3-15.215l.561-1.327v-.008L140.7,120.6l6.473-15.293.594-1.407.437-1.03,2.4-5.663Z" transform="translate(-111 -97.207)" fill="none"/>
    </clipPath>
    <linearGradient id="linear-gradient" x1="-3.081" y1="1.139" x2="-3.053" y2="1.139" gradientUnits="objectBoundingBox">
      <stop offset="0" stop-color="#4d2e37"/>
      <stop offset="1" stop-color="#8c4256"/>
    </linearGradient>
    <clipPath id="clip-path-5">
      <path id="Trazado_216795" data-name="Trazado 216795" d="M132.719,97.207s-.049,2.627.093,6.027c.012.271.024.55.04.829s.028.544.045.824c.069,1.214.165,2.478.294,3.732.545,2.113,2.624,6.71,5.195,11.979l0,0c5.45,11.166,13.122,25.341,13.134,25.363h0c3.127,21.526,12,29.571,19.875,51.936.122.343-.072.517.364,1.042.86,1.041,6.191,3.035,8.379,0,.316-.437-.429-1.483-.429-1.483-7.043-24.672-3.485-30.27-11.044-51.495h0s-1.8-18.362-11.008-44.187c-.134-.375-.268-.751-.4-1.127q-.612-1.7-1.273-3.443Z" transform="translate(-132.711 -97.207)" fill="none"/>
    </clipPath>
    <linearGradient id="linear-gradient-2" x1="-1.857" y1="1.073" x2="-1.842" y2="1.073" gradientUnits="objectBoundingBox">
      <stop offset="0" stop-color="#4d2e37"/>
      <stop offset="0.226" stop-color="#532f39"/>
      <stop offset="0.529" stop-color="#643542"/>
      <stop offset="0.874" stop-color="#7f3e50"/>
      <stop offset="1" stop-color="#8c4256"/>
    </linearGradient>
    <clipPath id="clip-path-7">
      <rect id="Rectángulo_55796" data-name="Rectángulo 55796" width="11.804" height="44.756" fill="none"/>
    </clipPath>
  </defs>
  <g id="Grupo_177340" data-name="Grupo 177340" transform="translate(-1280 6459)">
    <path id="Trazado_216650" data-name="Trazado 216650" d="M274.641,212.718c0,6.093-58.675,11.033-131.054,11.033s-131.054-4.94-131.054-11.033,58.675-11.033,131.054-11.033,131.054,4.94,131.054,11.033" transform="translate(1295.359 -6420.703)" fill="#d8d8d8" opacity="0.4"/>
    <g id="Grupo_177212" data-name="Grupo 177212">
      <g id="Grupo_174740" data-name="Grupo 174740" transform="translate(1280 -6459)">
        <g id="Grupo_169303" data-name="Grupo 169303" transform="translate(8.138 0)">
          <g id="Grupo_168636" data-name="Grupo 168636" transform="translate(0 0)" clip-path="url(#clip-path)">
            <path id="Trazado_211592" data-name="Trazado 211592" d="M205.743,205.85S356.916,92.471,254.651,62.459,46.789-42.028,19,31.335s47.8,104.487,12.227,144.5S75.69,288.105,205.743,205.85" transform="translate(-3.294 0)" fill="#8c5be1"/>
          </g>
        </g>
        <g id="Grupo_169306" data-name="Grupo 169306" transform="translate(63.931 283.745) rotate(-90)">
          <circle id="Elipse_5566" data-name="Elipse 5566" cx="49.221" cy="49.221" r="49.221" transform="translate(87.898 69.61) rotate(-45)" fill="#def2f4"/>
          <ellipse id="Elipse_5567" data-name="Elipse 5567" cx="79.045" cy="79.045" rx="79.045" ry="79.045" transform="translate(0 81.374) rotate(-22.5)" fill="#fff"/>
          <g id="Grupo_152550" data-name="Grupo 152550" transform="translate(6.478 9.987)">
            <ellipse id="Elipse_5568" data-name="Elipse 5568" cx="0.055" cy="0.055" rx="0.055" ry="0.055" transform="translate(50.567 160.054)" fill="#e8e8e8"/>
            <path id="Trazado_193815" data-name="Trazado 193815" d="M.469,0A.469.469,0,1,1,0,.469.469.469,0,0,1,.469,0Z" transform="translate(60.107 159.64)" fill="#e8e8e8"/>
            <path id="Trazado_193816" data-name="Trazado 193816" d="M.8,0A.8.8,0,1,1,0,.8.8.8,0,0,1,.8,0Z" transform="translate(69.729 159.308)" fill="#e8e8e8"/>
            <ellipse id="Elipse_5569" data-name="Elipse 5569" cx="0.856" cy="0.856" rx="0.856" ry="0.856" transform="translate(79.627 159.253)" fill="#e8e8e8"/>
            <path id="Trazado_193817" data-name="Trazado 193817" d="M.8,0A.8.8,0,1,1,0,.8.8.8,0,0,1,.8,0Z" transform="translate(89.635 159.308)" fill="#e8e8e8"/>
            <path id="Trazado_193818" data-name="Trazado 193818" d="M.441,0A.441.441,0,1,1,0,.441.44.44,0,0,1,.441,0Z" transform="translate(99.948 159.668)" fill="#e8e8e8"/>
            <ellipse id="Elipse_5570" data-name="Elipse 5570" cx="0.028" cy="0.028" rx="0.028" ry="0.028" transform="translate(110.315 160.081)" fill="#e8e8e8"/>
            <ellipse id="Elipse_5571" data-name="Elipse 5571" cx="0.028" cy="0.028" rx="0.028" ry="0.028" transform="translate(30.688 150.128)" fill="#e8e8e8"/>
            <path id="Trazado_193819" data-name="Trazado 193819" d="M.828,0A.828.828,0,1,1,0,.828.829.829,0,0,1,.828,0Z" transform="translate(39.841 149.327)" fill="#e8e8e8"/>
            <path id="Trazado_193820" data-name="Trazado 193820" d="M1.685,0A1.685,1.685,0,1,1,0,1.684,1.684,1.684,0,0,1,1.685,0Z" transform="translate(48.938 148.471)" fill="#e8e8e8"/>
            <ellipse id="Elipse_5572" data-name="Elipse 5572" cx="1.877" cy="1.877" rx="1.877" ry="1.877" transform="translate(58.699 148.279)" fill="#e8e8e8"/>
            <ellipse id="Elipse_5573" data-name="Elipse 5573" cx="1.877" cy="1.877" rx="1.877" ry="1.877" transform="translate(68.652 148.279)" fill="#e8e8e8"/>
            <path id="Trazado_193821" data-name="Trazado 193821" d="M1.877,0A1.877,1.877,0,1,1,0,1.877,1.878,1.878,0,0,1,1.877,0Z" transform="translate(78.605 148.278)" fill="#e8e8e8"/>
            <path id="Trazado_193822" data-name="Trazado 193822" d="M1.877,0A1.877,1.877,0,1,1,0,1.877,1.878,1.878,0,0,1,1.877,0Z" transform="translate(88.558 148.278)" fill="#e8e8e8"/>
            <path id="Trazado_193823" data-name="Trazado 193823" d="M1.877,0A1.877,1.877,0,1,1,0,1.877,1.878,1.878,0,0,1,1.877,0Z" transform="translate(98.512 148.278)" fill="#e8e8e8"/>
            <path id="Trazado_193824" data-name="Trazado 193824" d="M1.657,0A1.657,1.657,0,1,1,0,1.657,1.658,1.658,0,0,1,1.657,0Z" transform="translate(108.685 148.499)" fill="#e8e8e8"/>
            <path id="Trazado_193825" data-name="Trazado 193825" d="M.773,0A.773.773,0,1,1,0,.773.772.772,0,0,1,.773,0Z" transform="translate(119.522 149.383)" fill="#e8e8e8"/>
            <ellipse id="Elipse_5574" data-name="Elipse 5574" cx="0.028" cy="0.028" rx="0.028" ry="0.028" transform="translate(130.221 150.128)" fill="#e8e8e8"/>
            <path id="Trazado_193826" data-name="Trazado 193826" d="M.139,0A.137.137,0,0,1,.276.137.138.138,0,1,1,.139,0Z" transform="translate(20.624 140.065)" fill="#e8e8e8"/>
            <path id="Trazado_193827" data-name="Trazado 193827" d="M1.353,0A1.353,1.353,0,1,1,0,1.353,1.353,1.353,0,0,1,1.353,0Z" transform="translate(29.363 138.849)" fill="#e8e8e8"/>
            <ellipse id="Elipse_5575" data-name="Elipse 5575" cx="1.877" cy="1.877" rx="1.877" ry="1.877" transform="translate(38.792 138.325)" fill="#e8e8e8"/>
            <ellipse id="Elipse_5576" data-name="Elipse 5576" cx="1.877" cy="1.877" rx="1.877" ry="1.877" transform="translate(48.745 138.325)" fill="#e8e8e8"/>
            <ellipse id="Elipse_5577" data-name="Elipse 5577" cx="1.877" cy="1.877" rx="1.877" ry="1.877" transform="translate(58.699 138.325)" fill="#e8e8e8"/>
            <ellipse id="Elipse_5578" data-name="Elipse 5578" cx="1.877" cy="1.877" rx="1.877" ry="1.877" transform="translate(68.652 138.325)" fill="#e8e8e8"/>
            <path id="Trazado_193828" data-name="Trazado 193828" d="M1.877,0A1.877,1.877,0,1,1,0,1.877,1.878,1.878,0,0,1,1.877,0Z" transform="translate(78.605 138.325)" fill="#e8e8e8"/>
            <path id="Trazado_193829" data-name="Trazado 193829" d="M1.877,0A1.877,1.877,0,1,1,0,1.877,1.878,1.878,0,0,1,1.877,0Z" transform="translate(88.558 138.325)" fill="#e8e8e8"/>
            <path id="Trazado_193830" data-name="Trazado 193830" d="M1.877,0A1.877,1.877,0,1,1,0,1.877,1.878,1.878,0,0,1,1.877,0Z" transform="translate(98.512 138.325)" fill="#e8e8e8"/>
            <path id="Trazado_193831" data-name="Trazado 193831" d="M1.877,0A1.877,1.877,0,1,1,0,1.877,1.878,1.878,0,0,1,1.877,0Z" transform="translate(108.465 138.325)" fill="#e8e8e8"/>
            <path id="Trazado_193832" data-name="Trazado 193832" d="M1.877,0A1.877,1.877,0,1,1,0,1.877,1.878,1.878,0,0,1,1.877,0Z" transform="translate(118.418 138.325)" fill="#e8e8e8"/>
            <path id="Trazado_193833" data-name="Trazado 193833" d="M1.325,0A1.325,1.325,0,1,1,0,1.325,1.325,1.325,0,0,1,1.325,0Z" transform="translate(128.923 138.877)" fill="#e8e8e8"/>
            <path id="Trazado_193834" data-name="Trazado 193834" d="M.081,0a.083.083,0,1,1,0,.167A.084.084,0,0,1,.081,0Z" transform="translate(140.12 140.119)" fill="#e8e8e8"/>
            <ellipse id="Elipse_5579" data-name="Elipse 5579" cx="0.028" cy="0.028" rx="0.028" ry="0.028" transform="translate(10.781 130.221)" fill="#e8e8e8"/>
            <path id="Trazado_193835" data-name="Trazado 193835" d="M1.353,0A1.353,1.353,0,1,1,0,1.353,1.351,1.351,0,0,1,1.353,0Z" transform="translate(19.41 128.896)" fill="#e8e8e8"/>
            <ellipse id="Elipse_5580" data-name="Elipse 5580" cx="1.877" cy="1.877" rx="1.877" ry="1.877" transform="translate(28.839 128.372)" fill="#e8e8e8"/>
            <ellipse id="Elipse_5581" data-name="Elipse 5581" cx="1.877" cy="1.877" rx="1.877" ry="1.877" transform="translate(38.792 128.372)" fill="#e8e8e8"/>
            <ellipse id="Elipse_5582" data-name="Elipse 5582" cx="1.877" cy="1.877" rx="1.877" ry="1.877" transform="translate(48.745 128.372)" fill="#e8e8e8"/>
            <ellipse id="Elipse_5583" data-name="Elipse 5583" cx="1.877" cy="1.877" rx="1.877" ry="1.877" transform="translate(58.699 128.372)" fill="#e8e8e8"/>
            <ellipse id="Elipse_5584" data-name="Elipse 5584" cx="1.877" cy="1.877" rx="1.877" ry="1.877" transform="translate(68.652 128.372)" fill="#e8e8e8"/>
            <path id="Trazado_193836" data-name="Trazado 193836" d="M1.877,0A1.877,1.877,0,1,1,0,1.877,1.878,1.878,0,0,1,1.877,0Z" transform="translate(78.605 128.372)" fill="#e8e8e8"/>
            <path id="Trazado_193837" data-name="Trazado 193837" d="M1.877,0A1.877,1.877,0,1,1,0,1.877,1.878,1.878,0,0,1,1.877,0Z" transform="translate(88.558 128.372)" fill="#e8e8e8"/>
            <path id="Trazado_193838" data-name="Trazado 193838" d="M1.877,0A1.877,1.877,0,1,1,0,1.877,1.878,1.878,0,0,1,1.877,0Z" transform="translate(98.512 128.372)" fill="#e8e8e8"/>
            <path id="Trazado_193839" data-name="Trazado 193839" d="M1.877,0A1.877,1.877,0,1,1,0,1.877,1.878,1.878,0,0,1,1.877,0Z" transform="translate(108.465 128.372)" fill="#e8e8e8"/>
            <path id="Trazado_193840" data-name="Trazado 193840" d="M1.877,0A1.877,1.877,0,1,1,0,1.877,1.878,1.878,0,0,1,1.877,0Z" transform="translate(118.418 128.372)" fill="#e8e8e8"/>
            <path id="Trazado_193841" data-name="Trazado 193841" d="M1.877,0A1.877,1.877,0,1,1,0,1.877,1.878,1.878,0,0,1,1.877,0Z" transform="translate(128.371 128.372)" fill="#e8e8e8"/>
            <path id="Trazado_193842" data-name="Trazado 193842" d="M1.325,0A1.325,1.325,0,1,1,0,1.325,1.325,1.325,0,0,1,1.325,0Z" transform="translate(138.877 128.924)" fill="#e8e8e8"/>
            <ellipse id="Elipse_5585" data-name="Elipse 5585" cx="0.028" cy="0.028" rx="0.028" ry="0.028" transform="translate(150.128 130.221)" fill="#e8e8e8"/>
            <path id="Trazado_193843" data-name="Trazado 193843" d="M.828,0A.828.828,0,1,1,0,.828.827.827,0,0,1,.828,0Z" transform="translate(9.981 119.467)" fill="#e8e8e8"/>
            <ellipse id="Elipse_5586" data-name="Elipse 5586" cx="1.877" cy="1.877" rx="1.877" ry="1.877" transform="translate(18.885 118.419)" fill="#e8e8e8"/>
            <ellipse id="Elipse_5587" data-name="Elipse 5587" cx="1.877" cy="1.877" rx="1.877" ry="1.877" transform="translate(28.839 118.419)" fill="#e8e8e8"/>
            <ellipse id="Elipse_5588" data-name="Elipse 5588" cx="1.877" cy="1.877" rx="1.877" ry="1.877" transform="translate(38.792 118.419)" fill="#e8e8e8"/>
            <ellipse id="Elipse_5589" data-name="Elipse 5589" cx="1.877" cy="1.877" rx="1.877" ry="1.877" transform="translate(48.745 118.419)" fill="#e8e8e8"/>
            <ellipse id="Elipse_5590" data-name="Elipse 5590" cx="1.877" cy="1.877" rx="1.877" ry="1.877" transform="translate(58.699 118.419)" fill="#e8e8e8"/>
            <ellipse id="Elipse_5591" data-name="Elipse 5591" cx="1.877" cy="1.877" rx="1.877" ry="1.877" transform="translate(68.652 118.419)" fill="#e8e8e8"/>
            <path id="Trazado_193844" data-name="Trazado 193844" d="M1.877,0A1.877,1.877,0,1,1,0,1.877,1.878,1.878,0,0,1,1.877,0Z" transform="translate(78.605 118.419)" fill="#e8e8e8"/>
            <path id="Trazado_193845" data-name="Trazado 193845" d="M1.877,0A1.877,1.877,0,1,1,0,1.877,1.878,1.878,0,0,1,1.877,0Z" transform="translate(88.558 118.419)" fill="#e8e8e8"/>
            <path id="Trazado_193846" data-name="Trazado 193846" d="M1.877,0A1.877,1.877,0,1,1,0,1.877,1.878,1.878,0,0,1,1.877,0Z" transform="translate(98.512 118.419)" fill="#e8e8e8"/>
            <path id="Trazado_193847" data-name="Trazado 193847" d="M1.877,0A1.877,1.877,0,1,1,0,1.877,1.878,1.878,0,0,1,1.877,0Z" transform="translate(108.465 118.419)" fill="#e8e8e8"/>
            <path id="Trazado_193848" data-name="Trazado 193848" d="M1.877,0A1.877,1.877,0,1,1,0,1.877,1.878,1.878,0,0,1,1.877,0Z" transform="translate(118.418 118.419)" fill="#e8e8e8"/>
            <path id="Trazado_193849" data-name="Trazado 193849" d="M1.877,0A1.877,1.877,0,1,1,0,1.877,1.878,1.878,0,0,1,1.877,0Z" transform="translate(128.371 118.419)" fill="#e8e8e8"/>
            <path id="Trazado_193850" data-name="Trazado 193850" d="M1.877,0A1.877,1.877,0,1,1,0,1.877,1.878,1.878,0,0,1,1.877,0Z" transform="translate(138.324 118.419)" fill="#e8e8e8"/>
            <path id="Trazado_193851" data-name="Trazado 193851" d="M.773,0A.773.773,0,1,1,0,.773.772.772,0,0,1,.773,0Z" transform="translate(149.382 119.523)" fill="#e8e8e8"/>
            <ellipse id="Elipse_5592" data-name="Elipse 5592" cx="0.055" cy="0.055" rx="0.055" ry="0.055" transform="translate(0.8 110.287)" fill="#e8e8e8"/>
            <path id="Trazado_193852" data-name="Trazado 193852" d="M1.657,0A1.657,1.657,0,1,1,0,1.657,1.655,1.655,0,0,1,1.657,0Z" transform="translate(9.153 108.686)" fill="#e8e8e8"/>
            <ellipse id="Elipse_5593" data-name="Elipse 5593" cx="1.877" cy="1.877" rx="1.877" ry="1.877" transform="translate(18.885 108.466)" fill="#e8e8e8"/>
            <ellipse id="Elipse_5594" data-name="Elipse 5594" cx="1.877" cy="1.877" rx="1.877" ry="1.877" transform="translate(28.839 108.466)" fill="#e8e8e8"/>
            <ellipse id="Elipse_5595" data-name="Elipse 5595" cx="1.877" cy="1.877" rx="1.877" ry="1.877" transform="translate(38.792 108.466)" fill="#e8e8e8"/>
            <ellipse id="Elipse_5596" data-name="Elipse 5596" cx="1.877" cy="1.877" rx="1.877" ry="1.877" transform="translate(48.745 108.466)" fill="#e8e8e8"/>
            <ellipse id="Elipse_5597" data-name="Elipse 5597" cx="1.877" cy="1.877" rx="1.877" ry="1.877" transform="translate(58.699 108.466)" fill="#e8e8e8"/>
            <ellipse id="Elipse_5598" data-name="Elipse 5598" cx="1.877" cy="1.877" rx="1.877" ry="1.877" transform="translate(68.652 108.466)" fill="#e8e8e8"/>
            <path id="Trazado_193853" data-name="Trazado 193853" d="M1.877,0A1.877,1.877,0,1,1,0,1.877,1.878,1.878,0,0,1,1.877,0Z" transform="translate(78.605 108.465)" fill="#e8e8e8"/>
            <path id="Trazado_193854" data-name="Trazado 193854" d="M1.877,0A1.877,1.877,0,1,1,0,1.877,1.878,1.878,0,0,1,1.877,0Z" transform="translate(88.558 108.465)" fill="#e8e8e8"/>
            <path id="Trazado_193855" data-name="Trazado 193855" d="M1.877,0A1.877,1.877,0,1,1,0,1.877,1.878,1.878,0,0,1,1.877,0Z" transform="translate(98.512 108.465)" fill="#e8e8e8"/>
            <path id="Trazado_193856" data-name="Trazado 193856" d="M1.877,0A1.877,1.877,0,1,1,0,1.877,1.878,1.878,0,0,1,1.877,0Z" transform="translate(108.465 108.465)" fill="#e8e8e8"/>
            <path id="Trazado_193857" data-name="Trazado 193857" d="M1.877,0A1.877,1.877,0,1,1,0,1.877,1.878,1.878,0,0,1,1.877,0Z" transform="translate(118.418 108.465)" fill="#e8e8e8"/>
            <path id="Trazado_193858" data-name="Trazado 193858" d="M1.877,0A1.877,1.877,0,1,1,0,1.877,1.878,1.878,0,0,1,1.877,0Z" transform="translate(128.371 108.465)" fill="#e8e8e8"/>
            <path id="Trazado_193859" data-name="Trazado 193859" d="M1.877,0A1.877,1.877,0,1,1,0,1.877,1.878,1.878,0,0,1,1.877,0Z" transform="translate(138.324 108.465)" fill="#e8e8e8"/>
            <path id="Trazado_193860" data-name="Trazado 193860" d="M1.627,0A1.629,1.629,0,1,1,0,1.629,1.628,1.628,0,0,1,1.627,0Z" transform="translate(148.528 108.714)" fill="#e8e8e8"/>
            <ellipse id="Elipse_5599" data-name="Elipse 5599" cx="0.055" cy="0.055" rx="0.055" ry="0.055" transform="translate(160.054 110.287)" fill="#e8e8e8"/>
            <ellipse id="Elipse_5600" data-name="Elipse 5600" cx="0.469" cy="0.469" rx="0.469" ry="0.469" transform="translate(0.386 99.92)" fill="#e8e8e8"/>
            <ellipse id="Elipse_5601" data-name="Elipse 5601" cx="1.877" cy="1.877" rx="1.877" ry="1.877" transform="translate(8.932 98.512)" fill="#e8e8e8"/>
            <ellipse id="Elipse_5602" data-name="Elipse 5602" cx="1.877" cy="1.877" rx="1.877" ry="1.877" transform="translate(18.885 98.512)" fill="#e8e8e8"/>
            <ellipse id="Elipse_5603" data-name="Elipse 5603" cx="1.877" cy="1.877" rx="1.877" ry="1.877" transform="translate(28.839 98.512)" fill="#e8e8e8"/>
            <ellipse id="Elipse_5604" data-name="Elipse 5604" cx="1.877" cy="1.877" rx="1.877" ry="1.877" transform="translate(38.792 98.512)" fill="#e8e8e8"/>
            <ellipse id="Elipse_5605" data-name="Elipse 5605" cx="1.877" cy="1.877" rx="1.877" ry="1.877" transform="translate(48.745 98.512)" fill="#e8e8e8"/>
            <ellipse id="Elipse_5606" data-name="Elipse 5606" cx="1.877" cy="1.877" rx="1.877" ry="1.877" transform="translate(58.699 98.512)" fill="#e8e8e8"/>
            <ellipse id="Elipse_5607" data-name="Elipse 5607" cx="1.877" cy="1.877" rx="1.877" ry="1.877" transform="translate(68.652 98.512)" fill="#e8e8e8"/>
            <path id="Trazado_193861" data-name="Trazado 193861" d="M1.877,0A1.877,1.877,0,1,1,0,1.877,1.877,1.877,0,0,1,1.877,0Z" transform="translate(78.605 98.512)" fill="#e8e8e8"/>
            <path id="Trazado_193862" data-name="Trazado 193862" d="M1.877,0A1.877,1.877,0,1,1,0,1.877,1.877,1.877,0,0,1,1.877,0Z" transform="translate(88.558 98.512)" fill="#e8e8e8"/>
            <path id="Trazado_193863" data-name="Trazado 193863" d="M1.877,0A1.877,1.877,0,1,1,0,1.877,1.877,1.877,0,0,1,1.877,0Z" transform="translate(98.512 98.512)" fill="#e8e8e8"/>
            <path id="Trazado_193864" data-name="Trazado 193864" d="M1.877,0A1.877,1.877,0,1,1,0,1.877,1.877,1.877,0,0,1,1.877,0Z" transform="translate(108.465 98.512)" fill="#e8e8e8"/>
            <path id="Trazado_193865" data-name="Trazado 193865" d="M1.877,0A1.877,1.877,0,1,1,0,1.877,1.877,1.877,0,0,1,1.877,0Z" transform="translate(118.418 98.512)" fill="#e8e8e8"/>
            <path id="Trazado_193866" data-name="Trazado 193866" d="M1.877,0A1.877,1.877,0,1,1,0,1.877,1.877,1.877,0,0,1,1.877,0Z" transform="translate(128.371 98.512)" fill="#e8e8e8"/>
            <path id="Trazado_193867" data-name="Trazado 193867" d="M1.877,0A1.877,1.877,0,1,1,0,1.877,1.877,1.877,0,0,1,1.877,0Z" transform="translate(138.324 98.512)" fill="#e8e8e8"/>
            <path id="Trazado_193868" data-name="Trazado 193868" d="M1.875,0A1.877,1.877,0,1,1,0,1.877,1.875,1.875,0,0,1,1.875,0Z" transform="translate(148.28 98.512)" fill="#e8e8e8"/>
            <ellipse id="Elipse_5608" data-name="Elipse 5608" cx="0.414" cy="0.414" rx="0.414" ry="0.414" transform="translate(159.695 99.975)" fill="#e8e8e8"/>
            <path id="Trazado_193869" data-name="Trazado 193869" d="M.8,0A.8.8,0,1,1,0,.8.8.8,0,0,1,.8,0Z" transform="translate(0.056 89.636)" fill="#e8e8e8"/>
            <path id="Trazado_193870" data-name="Trazado 193870" d="M1.877,0A1.877,1.877,0,1,1,0,1.877,1.875,1.875,0,0,1,1.877,0Z" transform="translate(8.933 88.559)" fill="#e8e8e8"/>
            <path id="Trazado_193871" data-name="Trazado 193871" d="M1.877,0A1.877,1.877,0,1,1,0,1.877,1.875,1.875,0,0,1,1.877,0Z" transform="translate(18.886 88.559)" fill="#e8e8e8"/>
            <path id="Trazado_193872" data-name="Trazado 193872" d="M1.877,0A1.877,1.877,0,1,1,0,1.877,1.875,1.875,0,0,1,1.877,0Z" transform="translate(28.839 88.559)" fill="#e8e8e8"/>
            <path id="Trazado_193873" data-name="Trazado 193873" d="M1.877,0A1.877,1.877,0,1,1,0,1.877,1.875,1.875,0,0,1,1.877,0Z" transform="translate(38.792 88.559)" fill="#e8e8e8"/>
            <path id="Trazado_193874" data-name="Trazado 193874" d="M1.877,0A1.877,1.877,0,1,1,0,1.877,1.877,1.877,0,0,1,1.877,0Z" transform="translate(48.745 88.559)" fill="#e8e8e8"/>
            <path id="Trazado_193875" data-name="Trazado 193875" d="M1.877,0A1.877,1.877,0,1,1,0,1.877,1.877,1.877,0,0,1,1.877,0Z" transform="translate(58.699 88.559)" fill="#e8e8e8"/>
            <path id="Trazado_193876" data-name="Trazado 193876" d="M1.877,0A1.877,1.877,0,1,1,0,1.877,1.877,1.877,0,0,1,1.877,0Z" transform="translate(68.652 88.559)" fill="#e8e8e8"/>
            <path id="Trazado_193877" data-name="Trazado 193877" d="M1.877,0A1.877,1.877,0,1,1,0,1.877,1.877,1.877,0,0,1,1.877,0Z" transform="translate(78.605 88.559)" fill="#e8e8e8"/>
            <path id="Trazado_193878" data-name="Trazado 193878" d="M1.877,0A1.877,1.877,0,1,1,0,1.877,1.877,1.877,0,0,1,1.877,0Z" transform="translate(88.558 88.559)" fill="#e8e8e8"/>
            <path id="Trazado_193879" data-name="Trazado 193879" d="M1.877,0A1.877,1.877,0,1,1,0,1.877,1.877,1.877,0,0,1,1.877,0Z" transform="translate(98.512 88.559)" fill="#e8e8e8"/>
            <path id="Trazado_193880" data-name="Trazado 193880" d="M1.877,0A1.877,1.877,0,1,1,0,1.877,1.877,1.877,0,0,1,1.877,0Z" transform="translate(108.465 88.559)" fill="#e8e8e8"/>
            <path id="Trazado_193881" data-name="Trazado 193881" d="M1.877,0A1.877,1.877,0,1,1,0,1.877,1.877,1.877,0,0,1,1.877,0Z" transform="translate(118.418 88.559)" fill="#e8e8e8"/>
            <path id="Trazado_193882" data-name="Trazado 193882" d="M1.877,0A1.877,1.877,0,1,1,0,1.877,1.877,1.877,0,0,1,1.877,0Z" transform="translate(128.371 88.559)" fill="#e8e8e8"/>
            <path id="Trazado_193883" data-name="Trazado 193883" d="M1.877,0A1.877,1.877,0,1,1,0,1.877,1.877,1.877,0,0,1,1.877,0Z" transform="translate(138.324 88.559)" fill="#e8e8e8"/>
            <path id="Trazado_193884" data-name="Trazado 193884" d="M1.875,0A1.877,1.877,0,1,1,0,1.877,1.875,1.875,0,0,1,1.875,0Z" transform="translate(148.28 88.559)" fill="#e8e8e8"/>
            <path id="Trazado_193885" data-name="Trazado 193885" d="M.773,0A.773.773,0,1,1,0,.773.771.771,0,0,1,.773,0Z" transform="translate(159.335 89.663)" fill="#e8e8e8"/>
            <ellipse id="Elipse_5609" data-name="Elipse 5609" cx="0.856" cy="0.856" rx="0.856" ry="0.856" transform="translate(0 79.627)" fill="#e8e8e8"/>
            <path id="Trazado_193886" data-name="Trazado 193886" d="M1.877,0A1.877,1.877,0,1,1,0,1.877,1.875,1.875,0,0,1,1.877,0Z" transform="translate(8.933 78.606)" fill="#e8e8e8"/>
            <path id="Trazado_193887" data-name="Trazado 193887" d="M1.877,0A1.877,1.877,0,1,1,0,1.877,1.875,1.875,0,0,1,1.877,0Z" transform="translate(18.886 78.606)" fill="#e8e8e8"/>
            <path id="Trazado_193888" data-name="Trazado 193888" d="M1.877,0A1.877,1.877,0,1,1,0,1.877,1.875,1.875,0,0,1,1.877,0Z" transform="translate(28.839 78.606)" fill="#e8e8e8"/>
            <path id="Trazado_193889" data-name="Trazado 193889" d="M1.877,0A1.877,1.877,0,1,1,0,1.877,1.875,1.875,0,0,1,1.877,0Z" transform="translate(38.792 78.606)" fill="#e8e8e8"/>
            <path id="Trazado_193890" data-name="Trazado 193890" d="M1.877,0A1.877,1.877,0,1,1,0,1.877,1.877,1.877,0,0,1,1.877,0Z" transform="translate(48.745 78.606)" fill="#e8e8e8"/>
            <path id="Trazado_193891" data-name="Trazado 193891" d="M1.877,0A1.877,1.877,0,1,1,0,1.877,1.877,1.877,0,0,1,1.877,0Z" transform="translate(58.699 78.606)" fill="#e8e8e8"/>
            <path id="Trazado_193892" data-name="Trazado 193892" d="M1.877,0A1.877,1.877,0,1,1,0,1.877,1.877,1.877,0,0,1,1.877,0Z" transform="translate(68.652 78.606)" fill="#e8e8e8"/>
            <path id="Trazado_193893" data-name="Trazado 193893" d="M1.877,0A1.877,1.877,0,1,1,0,1.877,1.877,1.877,0,0,1,1.877,0Z" transform="translate(78.605 78.606)" fill="#e8e8e8"/>
            <path id="Trazado_193894" data-name="Trazado 193894" d="M1.877,0A1.877,1.877,0,1,1,0,1.877,1.877,1.877,0,0,1,1.877,0Z" transform="translate(88.558 78.606)" fill="#e8e8e8"/>
            <path id="Trazado_193895" data-name="Trazado 193895" d="M1.877,0A1.877,1.877,0,1,1,0,1.877,1.877,1.877,0,0,1,1.877,0Z" transform="translate(98.512 78.606)" fill="#e8e8e8"/>
            <path id="Trazado_193896" data-name="Trazado 193896" d="M1.877,0A1.877,1.877,0,1,1,0,1.877,1.877,1.877,0,0,1,1.877,0Z" transform="translate(108.465 78.606)" fill="#e8e8e8"/>
            <path id="Trazado_193897" data-name="Trazado 193897" d="M1.877,0A1.877,1.877,0,1,1,0,1.877,1.877,1.877,0,0,1,1.877,0Z" transform="translate(118.418 78.606)" fill="#e8e8e8"/>
            <path id="Trazado_193898" data-name="Trazado 193898" d="M1.877,0A1.877,1.877,0,1,1,0,1.877,1.877,1.877,0,0,1,1.877,0Z" transform="translate(128.371 78.606)" fill="#e8e8e8"/>
            <path id="Trazado_193899" data-name="Trazado 193899" d="M1.877,0A1.877,1.877,0,1,1,0,1.877,1.877,1.877,0,0,1,1.877,0Z" transform="translate(138.324 78.606)" fill="#e8e8e8"/>
            <path id="Trazado_193900" data-name="Trazado 193900" d="M1.875,0A1.877,1.877,0,1,1,0,1.877,1.875,1.875,0,0,1,1.875,0Z" transform="translate(148.28 78.606)" fill="#e8e8e8"/>
            <path id="Trazado_193901" data-name="Trazado 193901" d="M.854,0A.855.855,0,1,1,0,.856.856.856,0,0,1,.854,0Z" transform="translate(159.254 79.627)" fill="#e8e8e8"/>
            <path id="Trazado_193902" data-name="Trazado 193902" d="M.8,0A.8.8,0,1,1,0,.8.8.8,0,0,1,.8,0Z" transform="translate(0.056 69.729)" fill="#e8e8e8"/>
            <path id="Trazado_193903" data-name="Trazado 193903" d="M1.877,0A1.876,1.876,0,1,1,0,1.877,1.875,1.875,0,0,1,1.877,0Z" transform="translate(8.933 68.652)" fill="#e8e8e8"/>
            <path id="Trazado_193904" data-name="Trazado 193904" d="M1.877,0A1.876,1.876,0,1,1,0,1.877,1.875,1.875,0,0,1,1.877,0Z" transform="translate(18.886 68.652)" fill="#e8e8e8"/>
            <path id="Trazado_193905" data-name="Trazado 193905" d="M1.877,0A1.876,1.876,0,1,1,0,1.877,1.875,1.875,0,0,1,1.877,0Z" transform="translate(28.839 68.652)" fill="#e8e8e8"/>
            <path id="Trazado_193906" data-name="Trazado 193906" d="M1.877,0A1.876,1.876,0,1,1,0,1.877,1.875,1.875,0,0,1,1.877,0Z" transform="translate(38.792 68.652)" fill="#e8e8e8"/>
            <path id="Trazado_193907" data-name="Trazado 193907" d="M1.877,0A1.876,1.876,0,1,1,0,1.877,1.877,1.877,0,0,1,1.877,0Z" transform="translate(48.745 68.652)" fill="#e8e8e8"/>
            <path id="Trazado_193908" data-name="Trazado 193908" d="M1.877,0A1.876,1.876,0,1,1,0,1.877,1.877,1.877,0,0,1,1.877,0Z" transform="translate(58.699 68.652)" fill="#e8e8e8"/>
            <path id="Trazado_193909" data-name="Trazado 193909" d="M1.877,0A1.876,1.876,0,1,1,0,1.877,1.877,1.877,0,0,1,1.877,0Z" transform="translate(68.652 68.652)" fill="#e8e8e8"/>
            <path id="Trazado_193910" data-name="Trazado 193910" d="M1.877,0A1.876,1.876,0,1,1,0,1.877,1.877,1.877,0,0,1,1.877,0Z" transform="translate(78.605 68.652)" fill="#e8e8e8"/>
            <path id="Trazado_193911" data-name="Trazado 193911" d="M1.877,0A1.876,1.876,0,1,1,0,1.877,1.877,1.877,0,0,1,1.877,0Z" transform="translate(88.558 68.652)" fill="#e8e8e8"/>
            <path id="Trazado_193912" data-name="Trazado 193912" d="M1.877,0A1.876,1.876,0,1,1,0,1.877,1.877,1.877,0,0,1,1.877,0Z" transform="translate(98.512 68.652)" fill="#e8e8e8"/>
            <path id="Trazado_193913" data-name="Trazado 193913" d="M1.877,0A1.876,1.876,0,1,1,0,1.877,1.877,1.877,0,0,1,1.877,0Z" transform="translate(108.465 68.652)" fill="#e8e8e8"/>
            <path id="Trazado_193914" data-name="Trazado 193914" d="M1.877,0A1.876,1.876,0,1,1,0,1.877,1.877,1.877,0,0,1,1.877,0Z" transform="translate(118.418 68.652)" fill="#e8e8e8"/>
            <path id="Trazado_193915" data-name="Trazado 193915" d="M1.877,0A1.876,1.876,0,1,1,0,1.877,1.877,1.877,0,0,1,1.877,0Z" transform="translate(128.371 68.652)" fill="#e8e8e8"/>
            <path id="Trazado_193916" data-name="Trazado 193916" d="M1.877,0A1.876,1.876,0,1,1,0,1.877,1.877,1.877,0,0,1,1.877,0Z" transform="translate(138.324 68.652)" fill="#e8e8e8"/>
            <path id="Trazado_193917" data-name="Trazado 193917" d="M1.875,0A1.876,1.876,0,1,1,0,1.877,1.875,1.875,0,0,1,1.875,0Z" transform="translate(148.28 68.652)" fill="#e8e8e8"/>
            <path id="Trazado_193918" data-name="Trazado 193918" d="M.745,0A.745.745,0,1,1,0,.745.745.745,0,0,1,.745,0Z" transform="translate(159.363 69.785)" fill="#e8e8e8"/>
            <ellipse id="Elipse_5610" data-name="Elipse 5610" cx="0.442" cy="0.442" rx="0.442" ry="0.442" transform="translate(0.414 60.134)" fill="#e8e8e8"/>
            <path id="Trazado_193919" data-name="Trazado 193919" d="M1.877,0A1.876,1.876,0,1,1,0,1.877,1.875,1.875,0,0,1,1.877,0Z" transform="translate(8.933 58.699)" fill="#e8e8e8"/>
            <path id="Trazado_193920" data-name="Trazado 193920" d="M1.877,0A1.876,1.876,0,1,1,0,1.877,1.875,1.875,0,0,1,1.877,0Z" transform="translate(18.886 58.699)" fill="#e8e8e8"/>
            <path id="Trazado_193921" data-name="Trazado 193921" d="M1.877,0A1.876,1.876,0,1,1,0,1.877,1.875,1.875,0,0,1,1.877,0Z" transform="translate(28.839 58.699)" fill="#e8e8e8"/>
            <path id="Trazado_193922" data-name="Trazado 193922" d="M1.877,0A1.876,1.876,0,1,1,0,1.877,1.875,1.875,0,0,1,1.877,0Z" transform="translate(38.792 58.699)" fill="#e8e8e8"/>
            <path id="Trazado_193923" data-name="Trazado 193923" d="M1.877,0A1.876,1.876,0,1,1,0,1.877,1.877,1.877,0,0,1,1.877,0Z" transform="translate(48.745 58.699)" fill="#e8e8e8"/>
            <path id="Trazado_193924" data-name="Trazado 193924" d="M1.877,0A1.876,1.876,0,1,1,0,1.877,1.877,1.877,0,0,1,1.877,0Z" transform="translate(58.699 58.699)" fill="#e8e8e8"/>
            <path id="Trazado_193925" data-name="Trazado 193925" d="M1.877,0A1.876,1.876,0,1,1,0,1.877,1.877,1.877,0,0,1,1.877,0Z" transform="translate(68.652 58.699)" fill="#e8e8e8"/>
            <path id="Trazado_193926" data-name="Trazado 193926" d="M1.877,0A1.876,1.876,0,1,1,0,1.877,1.877,1.877,0,0,1,1.877,0Z" transform="translate(78.605 58.699)" fill="#e8e8e8"/>
            <path id="Trazado_193927" data-name="Trazado 193927" d="M1.877,0A1.876,1.876,0,1,1,0,1.877,1.877,1.877,0,0,1,1.877,0Z" transform="translate(88.558 58.699)" fill="#e8e8e8"/>
            <path id="Trazado_193928" data-name="Trazado 193928" d="M1.877,0A1.876,1.876,0,1,1,0,1.877,1.877,1.877,0,0,1,1.877,0Z" transform="translate(98.512 58.699)" fill="#e8e8e8"/>
            <path id="Trazado_193929" data-name="Trazado 193929" d="M1.877,0A1.876,1.876,0,1,1,0,1.877,1.877,1.877,0,0,1,1.877,0Z" transform="translate(108.465 58.699)" fill="#e8e8e8"/>
            <path id="Trazado_193930" data-name="Trazado 193930" d="M1.877,0A1.876,1.876,0,1,1,0,1.877,1.877,1.877,0,0,1,1.877,0Z" transform="translate(118.418 58.699)" fill="#e8e8e8"/>
            <path id="Trazado_193931" data-name="Trazado 193931" d="M1.877,0A1.876,1.876,0,1,1,0,1.877,1.877,1.877,0,0,1,1.877,0Z" transform="translate(128.371 58.699)" fill="#e8e8e8"/>
            <path id="Trazado_193932" data-name="Trazado 193932" d="M1.877,0A1.876,1.876,0,1,1,0,1.877,1.877,1.877,0,0,1,1.877,0Z" transform="translate(138.324 58.699)" fill="#e8e8e8"/>
            <path id="Trazado_193933" data-name="Trazado 193933" d="M1.875,0A1.876,1.876,0,1,1,0,1.877,1.875,1.875,0,0,1,1.875,0Z" transform="translate(148.28 58.699)" fill="#e8e8e8"/>
            <ellipse id="Elipse_5611" data-name="Elipse 5611" cx="0.414" cy="0.414" rx="0.414" ry="0.414" transform="translate(159.695 60.162)" fill="#e8e8e8"/>
            <ellipse id="Elipse_5612" data-name="Elipse 5612" cx="0.028" cy="0.028" rx="0.028" ry="0.028" transform="translate(0.828 50.595)" fill="#e8e8e8"/>
            <path id="Trazado_193934" data-name="Trazado 193934" d="M1.657,0A1.656,1.656,0,1,1,0,1.655,1.654,1.654,0,0,1,1.657,0Z" transform="translate(9.153 48.967)" fill="#e8e8e8"/>
            <path id="Trazado_193935" data-name="Trazado 193935" d="M1.877,0A1.876,1.876,0,1,1,0,1.875,1.874,1.874,0,0,1,1.877,0Z" transform="translate(18.886 48.746)" fill="#e8e8e8"/>
            <path id="Trazado_193936" data-name="Trazado 193936" d="M1.877,0A1.876,1.876,0,1,1,0,1.875,1.874,1.874,0,0,1,1.877,0" transform="translate(28.839 48.746)" fill="#e8e8e8"/>
            <path id="Trazado_193937" data-name="Trazado 193937" d="M1.877,0A1.876,1.876,0,1,1,0,1.875,1.874,1.874,0,0,1,1.877,0Z" transform="translate(38.792 48.746)" fill="#e8e8e8"/>
            <path id="Trazado_193938" data-name="Trazado 193938" d="M1.877,0A1.876,1.876,0,1,1,0,1.875,1.876,1.876,0,0,1,1.877,0Z" transform="translate(48.745 48.746)" fill="#e8e8e8"/>
            <path id="Trazado_193939" data-name="Trazado 193939" d="M1.877,0A1.876,1.876,0,1,1,0,1.875,1.876,1.876,0,0,1,1.877,0Z" transform="translate(58.699 48.746)" fill="#e8e8e8"/>
            <path id="Trazado_193940" data-name="Trazado 193940" d="M1.877,0A1.876,1.876,0,1,1,0,1.875,1.876,1.876,0,0,1,1.877,0Z" transform="translate(68.652 48.746)" fill="#e8e8e8"/>
            <path id="Trazado_193941" data-name="Trazado 193941" d="M1.877,0A1.876,1.876,0,1,1,0,1.875,1.876,1.876,0,0,1,1.877,0Z" transform="translate(78.605 48.746)" fill="#e8e8e8"/>
            <path id="Trazado_193942" data-name="Trazado 193942" d="M1.877,0A1.876,1.876,0,1,1,0,1.875,1.876,1.876,0,0,1,1.877,0Z" transform="translate(88.558 48.746)" fill="#e8e8e8"/>
            <path id="Trazado_193943" data-name="Trazado 193943" d="M1.877,0A1.876,1.876,0,1,1,0,1.875,1.876,1.876,0,0,1,1.877,0Z" transform="translate(98.512 48.746)" fill="#e8e8e8"/>
            <path id="Trazado_193944" data-name="Trazado 193944" d="M1.877,0A1.876,1.876,0,1,1,0,1.875,1.876,1.876,0,0,1,1.877,0Z" transform="translate(108.465 48.746)" fill="#e8e8e8"/>
            <path id="Trazado_193945" data-name="Trazado 193945" d="M1.877,0A1.876,1.876,0,1,1,0,1.875,1.876,1.876,0,0,1,1.877,0Z" transform="translate(118.418 48.746)" fill="#e8e8e8"/>
            <path id="Trazado_193946" data-name="Trazado 193946" d="M1.877,0A1.876,1.876,0,1,1,0,1.875,1.876,1.876,0,0,1,1.877,0Z" transform="translate(128.371 48.746)" fill="#e8e8e8"/>
            <path id="Trazado_193947" data-name="Trazado 193947" d="M1.877,0A1.876,1.876,0,1,1,0,1.875,1.876,1.876,0,0,1,1.877,0Z" transform="translate(138.324 48.746)" fill="#e8e8e8"/>
            <path id="Trazado_193948" data-name="Trazado 193948" d="M1.627,0A1.628,1.628,0,1,1,0,1.627,1.627,1.627,0,0,1,1.627,0Z" transform="translate(148.528 48.994)" fill="#e8e8e8"/>
            <ellipse id="Elipse_5613" data-name="Elipse 5613" cx="0.055" cy="0.055" rx="0.055" ry="0.055" transform="translate(160.054 50.567)" fill="#e8e8e8"/>
            <path id="Trazado_193949" data-name="Trazado 193949" d="M.775,0A.774.774,0,1,1,0,.773.774.774,0,0,1,.775,0Z" transform="translate(10.035 39.895)" fill="#e8e8e8"/>
            <path id="Trazado_193950" data-name="Trazado 193950" d="M1.877,0A1.876,1.876,0,1,1,0,1.875,1.875,1.875,0,0,1,1.877,0Z" transform="translate(18.886 38.793)" fill="#e8e8e8"/>
            <path id="Trazado_193951" data-name="Trazado 193951" d="M1.877,0A1.876,1.876,0,1,1,0,1.875,1.875,1.875,0,0,1,1.877,0Z" transform="translate(28.839 38.793)" fill="#e8e8e8"/>
            <path id="Trazado_193952" data-name="Trazado 193952" d="M1.877,0A1.876,1.876,0,1,1,0,1.875,1.875,1.875,0,0,1,1.877,0Z" transform="translate(38.792 38.793)" fill="#e8e8e8"/>
            <path id="Trazado_193953" data-name="Trazado 193953" d="M1.877,0A1.876,1.876,0,1,1,0,1.875,1.876,1.876,0,0,1,1.877,0Z" transform="translate(48.745 38.793)" fill="#e8e8e8"/>
            <path id="Trazado_193954" data-name="Trazado 193954" d="M1.877,0A1.876,1.876,0,1,1,0,1.875,1.876,1.876,0,0,1,1.877,0Z" transform="translate(58.699 38.793)" fill="#e8e8e8"/>
            <path id="Trazado_193955" data-name="Trazado 193955" d="M1.877,0A1.876,1.876,0,1,1,0,1.875,1.876,1.876,0,0,1,1.877,0Z" transform="translate(68.652 38.793)" fill="#e8e8e8"/>
            <path id="Trazado_193956" data-name="Trazado 193956" d="M1.877,0A1.876,1.876,0,1,1,0,1.875,1.876,1.876,0,0,1,1.877,0Z" transform="translate(78.605 38.793)" fill="#e8e8e8"/>
            <path id="Trazado_193957" data-name="Trazado 193957" d="M1.877,0A1.876,1.876,0,1,1,0,1.875,1.876,1.876,0,0,1,1.877,0Z" transform="translate(88.558 38.793)" fill="#e8e8e8"/>
            <path id="Trazado_193958" data-name="Trazado 193958" d="M1.877,0A1.876,1.876,0,1,1,0,1.875,1.876,1.876,0,0,1,1.877,0Z" transform="translate(98.512 38.793)" fill="#e8e8e8"/>
            <path id="Trazado_193959" data-name="Trazado 193959" d="M1.877,0A1.876,1.876,0,1,1,0,1.875,1.876,1.876,0,0,1,1.877,0Z" transform="translate(108.465 38.793)" fill="#e8e8e8"/>
            <path id="Trazado_193960" data-name="Trazado 193960" d="M1.877,0A1.876,1.876,0,1,1,0,1.875,1.876,1.876,0,0,1,1.877,0Z" transform="translate(118.418 38.793)" fill="#e8e8e8"/>
            <path id="Trazado_193961" data-name="Trazado 193961" d="M1.877,0A1.876,1.876,0,1,1,0,1.875,1.876,1.876,0,0,1,1.877,0Z" transform="translate(128.371 38.793)" fill="#e8e8e8"/>
            <path id="Trazado_193962" data-name="Trazado 193962" d="M1.877,0A1.876,1.876,0,1,1,0,1.875,1.876,1.876,0,0,1,1.877,0Z" transform="translate(138.324 38.793)" fill="#e8e8e8"/>
            <path id="Trazado_193963" data-name="Trazado 193963" d="M.745,0A.746.746,0,1,1,0,.745.746.746,0,0,1,.745,0Z" transform="translate(149.41 39.923)" fill="#e8e8e8"/>
            <ellipse id="Elipse_5614" data-name="Elipse 5614" cx="0.028" cy="0.028" rx="0.028" ry="0.028" transform="translate(10.781 30.688)" fill="#e8e8e8"/>
            <path id="Trazado_193964" data-name="Trazado 193964" d="M1.325,0A1.325,1.325,0,1,1,0,1.325,1.327,1.327,0,0,1,1.325,0Z" transform="translate(19.438 29.39)" fill="#e8e8e8"/>
            <ellipse id="Elipse_5615" data-name="Elipse 5615" cx="1.877" cy="1.877" rx="1.877" ry="1.877" transform="translate(28.839 28.839)" fill="#e8e8e8"/>
            <ellipse id="Elipse_5616" data-name="Elipse 5616" cx="1.877" cy="1.877" rx="1.877" ry="1.877" transform="translate(38.792 28.839)" fill="#e8e8e8"/>
            <ellipse id="Elipse_5617" data-name="Elipse 5617" cx="1.877" cy="1.877" rx="1.877" ry="1.877" transform="translate(48.745 28.839)" fill="#e8e8e8"/>
            <ellipse id="Elipse_5618" data-name="Elipse 5618" cx="1.877" cy="1.877" rx="1.877" ry="1.877" transform="translate(58.699 28.839)" fill="#e8e8e8"/>
            <ellipse id="Elipse_5619" data-name="Elipse 5619" cx="1.877" cy="1.877" rx="1.877" ry="1.877" transform="translate(68.652 28.839)" fill="#e8e8e8"/>
            <path id="Trazado_193965" data-name="Trazado 193965" d="M1.877,0A1.876,1.876,0,1,1,0,1.875,1.876,1.876,0,0,1,1.877,0Z" transform="translate(78.605 28.84)" fill="#e8e8e8"/>
            <path id="Trazado_193966" data-name="Trazado 193966" d="M1.877,0A1.876,1.876,0,1,1,0,1.875,1.876,1.876,0,0,1,1.877,0Z" transform="translate(88.558 28.84)" fill="#e8e8e8"/>
            <path id="Trazado_193967" data-name="Trazado 193967" d="M1.877,0A1.876,1.876,0,1,1,0,1.875,1.876,1.876,0,0,1,1.877,0Z" transform="translate(98.512 28.84)" fill="#e8e8e8"/>
            <path id="Trazado_193968" data-name="Trazado 193968" d="M1.877,0A1.876,1.876,0,1,1,0,1.875,1.876,1.876,0,0,1,1.877,0Z" transform="translate(108.465 28.84)" fill="#e8e8e8"/>
            <path id="Trazado_193969" data-name="Trazado 193969" d="M1.877,0A1.876,1.876,0,1,1,0,1.875,1.876,1.876,0,0,1,1.877,0Z" transform="translate(118.418 28.84)" fill="#e8e8e8"/>
            <path id="Trazado_193970" data-name="Trazado 193970" d="M1.877,0A1.876,1.876,0,1,1,0,1.875,1.876,1.876,0,0,1,1.877,0Z" transform="translate(128.371 28.84)" fill="#e8e8e8"/>
            <path id="Trazado_193971" data-name="Trazado 193971" d="M1.3,0A1.3,1.3,0,1,1,0,1.3,1.3,1.3,0,0,1,1.3,0Z" transform="translate(138.904 29.418)" fill="#e8e8e8"/>
            <ellipse id="Elipse_5620" data-name="Elipse 5620" cx="0.028" cy="0.028" rx="0.028" ry="0.028" transform="translate(150.128 30.688)" fill="#e8e8e8"/>
            <ellipse id="Elipse_5621" data-name="Elipse 5621" cx="0.083" cy="0.083" rx="0.083" ry="0.083" transform="translate(20.679 20.679)" fill="#e8e8e8"/>
            <path id="Trazado_193972" data-name="Trazado 193972" d="M1.325,0A1.325,1.325,0,1,1,0,1.325,1.327,1.327,0,0,1,1.325,0Z" transform="translate(29.391 19.437)" fill="#e8e8e8"/>
            <ellipse id="Elipse_5622" data-name="Elipse 5622" cx="1.877" cy="1.877" rx="1.877" ry="1.877" transform="translate(38.792 18.885)" fill="#e8e8e8"/>
            <ellipse id="Elipse_5623" data-name="Elipse 5623" cx="1.877" cy="1.877" rx="1.877" ry="1.877" transform="translate(48.745 18.885)" fill="#e8e8e8"/>
            <ellipse id="Elipse_5624" data-name="Elipse 5624" cx="1.877" cy="1.877" rx="1.877" ry="1.877" transform="translate(58.699 18.885)" fill="#e8e8e8"/>
            <ellipse id="Elipse_5625" data-name="Elipse 5625" cx="1.877" cy="1.877" rx="1.877" ry="1.877" transform="translate(68.652 18.885)" fill="#e8e8e8"/>
            <path id="Trazado_193973" data-name="Trazado 193973" d="M1.877,0A1.876,1.876,0,1,1,0,1.875,1.876,1.876,0,0,1,1.877,0Z" transform="translate(78.605 18.886)" fill="#e8e8e8"/>
            <path id="Trazado_193974" data-name="Trazado 193974" d="M1.877,0A1.876,1.876,0,1,1,0,1.875,1.876,1.876,0,0,1,1.877,0Z" transform="translate(88.558 18.886)" fill="#e8e8e8"/>
            <path id="Trazado_193975" data-name="Trazado 193975" d="M1.877,0A1.876,1.876,0,1,1,0,1.875,1.876,1.876,0,0,1,1.877,0Z" transform="translate(98.512 18.886)" fill="#e8e8e8"/>
            <path id="Trazado_193976" data-name="Trazado 193976" d="M1.877,0A1.876,1.876,0,1,1,0,1.875,1.876,1.876,0,0,1,1.877,0Z" transform="translate(108.465 18.886)" fill="#e8e8e8"/>
            <path id="Trazado_193977" data-name="Trazado 193977" d="M1.877,0A1.876,1.876,0,1,1,0,1.875,1.876,1.876,0,0,1,1.877,0Z" transform="translate(118.418 18.886)" fill="#e8e8e8"/>
            <path id="Trazado_193978" data-name="Trazado 193978" d="M1.3,0A1.3,1.3,0,1,1,0,1.3,1.3,1.3,0,0,1,1.3,0Z" transform="translate(128.951 19.464)" fill="#e8e8e8"/>
            <path id="Trazado_193979" data-name="Trazado 193979" d="M.109,0A.11.11,0,1,1,0,.109.11.11,0,0,1,.109,0Z" transform="translate(140.092 20.652)" fill="#e8e8e8"/>
            <ellipse id="Elipse_5626" data-name="Elipse 5626" cx="0.028" cy="0.028" rx="0.028" ry="0.028" transform="translate(30.688 10.781)" fill="#e8e8e8"/>
            <path id="Trazado_193980" data-name="Trazado 193980" d="M.773,0A.773.773,0,1,1,0,.773.774.774,0,0,1,.773,0Z" transform="translate(39.897 10.036)" fill="#e8e8e8"/>
            <path id="Trazado_193981" data-name="Trazado 193981" d="M1.629,0A1.628,1.628,0,1,1,0,1.627,1.628,1.628,0,0,1,1.629,0Z" transform="translate(48.994 9.182)" fill="#e8e8e8"/>
            <ellipse id="Elipse_5627" data-name="Elipse 5627" cx="1.877" cy="1.877" rx="1.877" ry="1.877" transform="translate(58.699 8.932)" fill="#e8e8e8"/>
            <ellipse id="Elipse_5628" data-name="Elipse 5628" cx="1.877" cy="1.877" rx="1.877" ry="1.877" transform="translate(68.652 8.932)" fill="#e8e8e8"/>
            <path id="Trazado_193982" data-name="Trazado 193982" d="M1.877,0A1.876,1.876,0,1,1,0,1.875,1.876,1.876,0,0,1,1.877,0Z" transform="translate(78.605 8.933)" fill="#e8e8e8"/>
            <path id="Trazado_193983" data-name="Trazado 193983" d="M1.877,0A1.876,1.876,0,1,1,0,1.875,1.876,1.876,0,0,1,1.877,0Z" transform="translate(88.558 8.933)" fill="#e8e8e8"/>
            <path id="Trazado_193984" data-name="Trazado 193984" d="M1.877,0A1.876,1.876,0,1,1,0,1.875,1.876,1.876,0,0,1,1.877,0Z" transform="translate(98.512 8.933)" fill="#e8e8e8"/>
            <path id="Trazado_193985" data-name="Trazado 193985" d="M1.629,0A1.628,1.628,0,1,1,0,1.627,1.628,1.628,0,0,1,1.629,0Z" transform="translate(108.713 9.182)" fill="#e8e8e8"/>
            <path id="Trazado_193986" data-name="Trazado 193986" d="M.745,0A.745.745,0,1,1,0,.745.745.745,0,0,1,.745,0Z" transform="translate(119.55 10.063)" fill="#e8e8e8"/>
            <ellipse id="Elipse_5629" data-name="Elipse 5629" cx="0.028" cy="0.028" rx="0.028" ry="0.028" transform="translate(130.221 10.781)" fill="#e8e8e8"/>
            <ellipse id="Elipse_5630" data-name="Elipse 5630" cx="0.055" cy="0.055" rx="0.055" ry="0.055" transform="translate(50.567 0.8)" fill="#e8e8e8"/>
            <path id="Trazado_193987" data-name="Trazado 193987" d="M.413,0A.414.414,0,1,1,0,.413.412.412,0,0,1,.413,0Z" transform="translate(60.163 0.442)" fill="#e8e8e8"/>
            <path id="Trazado_193988" data-name="Trazado 193988" d="M.773,0A.773.773,0,1,1,0,.773.774.774,0,0,1,.773,0Z" transform="translate(69.756 0.082)" fill="#e8e8e8"/>
            <ellipse id="Elipse_5631" data-name="Elipse 5631" cx="0.856" cy="0.856" rx="0.856" ry="0.856" transform="translate(79.627)" fill="#e8e8e8"/>
            <path id="Trazado_193989" data-name="Trazado 193989" d="M.773,0A.773.773,0,1,1,0,.773.774.774,0,0,1,.773,0Z" transform="translate(89.663 0.082)" fill="#e8e8e8"/>
            <path id="Trazado_193990" data-name="Trazado 193990" d="M.413,0A.414.414,0,1,1,0,.413.412.412,0,0,1,.413,0Z" transform="translate(99.976 0.442)" fill="#e8e8e8"/>
            <ellipse id="Elipse_5632" data-name="Elipse 5632" cx="0.055" cy="0.055" rx="0.055" ry="0.055" transform="translate(110.287 0.8)" fill="#e8e8e8"/>
          </g>
        </g>
        <g id="Grupo_169387" data-name="Grupo 169387" transform="translate(0 195.381)">
          <path id="Trazado_211593" data-name="Trazado 211593" d="M3.926,297.385c.227.369.463.728.707,1.08L42.556,275.22c-.2-.376-.416-.751-.642-1.121-.333-.544-.688-1.066-1.06-1.573L3,295.727c.282.56.588,1.115.921,1.659" transform="translate(-0.778 -263.724)" fill="#43a99b"/>
          <path id="Trazado_211594" data-name="Trazado 211594" d="M22.66,312.881,48.373,297.12a22.328,22.328,0,0,0,.772-4.209L18.559,311.659a22.418,22.418,0,0,0,4.1,1.222" transform="translate(-4.805 -269.002)" fill="#43a99b"/>
          <path id="Trazado_211595" data-name="Trazado 211595" d="M11.677,306.34,46.55,284.963a22.041,22.041,0,0,0-.727-3.29L9.074,304.2a22.125,22.125,0,0,0,2.6,2.141" transform="translate(-2.349 -266.093)" fill="#43a99b"/>
          <path id="Trazado_211596" data-name="Trazado 211596" d="M42.905,314.063a22.213,22.213,0,0,0,6.1-5.513L35.224,317a22.224,22.224,0,0,0,7.681-2.935" transform="translate(-9.12 -273.052)" fill="#43a99b"/>
          <path id="Trazado_211597" data-name="Trazado 211597" d="M.637,289.7,37.1,267.346a22.013,22.013,0,0,0-2.692-2.086L0,286.352A22.045,22.045,0,0,0,.637,289.7" transform="translate(0 -261.843)" fill="#43a99b"/>
          <path id="Trazado_211598" data-name="Trazado 211598" d="M12.453,263.848a22.259,22.259,0,0,0-4.907,4.074l10.764-6.6a22.243,22.243,0,0,0-5.857,2.523" transform="translate(-1.954 -260.824)" fill="#43a99b"/>
          <path id="Trazado_211599" data-name="Trazado 211599" d="M.029,280.022l29.8-18.266a22.418,22.418,0,0,0-4.292-1.106L.992,275.7a22.354,22.354,0,0,0-.963,4.326" transform="translate(-0.008 -260.649)" fill="#43a99b"/>
        </g>
      </g>
      <g id="Grupo_174741" data-name="Grupo 174741" transform="translate(1280 -6421.9)">
        <g id="Grupo_174766" data-name="Grupo 174766" clip-path="url(#clip-path-2)">
          <g id="Grupo_174756" data-name="Grupo 174756">
            <g id="Grupo_174755" data-name="Grupo 174755" clip-path="url(#clip-path-2)">
              <path id="Trazado_216745" data-name="Trazado 216745" d="M201.477,135.114c-.8-.456-1.6-.9-2.393-1.369a41.255,41.255,0,0,1-8.1-6.269,40.9,40.9,0,0,1-11.535-22.5,41.49,41.49,0,0,1-.439-9.285,40.939,40.939,0,0,1,23.4-34.489,41.082,41.082,0,0,1,10.03-3.235,41.813,41.813,0,0,1,10.889-.542,40.925,40.925,0,0,1,37.152,34.117,41.264,41.264,0,0,1-3.252,24.163,40.8,40.8,0,0,1-7.754,11.282,40.228,40.228,0,0,1-6.832,5.659,1.945,1.945,0,0,0-.611.475,3.5,3.5,0,0,0-.929.518c-1.043.647-2.159,1.161-3.227,1.761l-3.309,1.4-.78.3c-1.215.334-2.4.753-3.628,1.059a42.467,42.467,0,0,1-7.521,1.176,41,41,0,0,1-13.326-1.31c-.173-.046-.352-.069-.529-.1a2.908,2.908,0,0,0-.708-.194c-.994-.392-2.008-.722-3.024-1.053-.633-.273-1.267-.544-1.9-.821-.559-.246-1.115-.5-1.673-.745m-13.889-37.3A32.364,32.364,0,1,0,220.01,65.477a32.3,32.3,0,0,0-32.422,32.342" transform="translate(19.04 6.097)" fill="#e17326"/>
              <path id="Trazado_216746" data-name="Trazado 216746" d="M186.755,97.032a32.364,32.364,0,1,1,32.286,32.421,32.29,32.29,0,0,1-32.286-32.421M218.531,76.6A20.258,20.258,0,1,0,238.8,96.821,20.274,20.274,0,0,0,218.531,76.6" transform="translate(19.873 6.884)" fill="#fff5d5"/>
              <path id="Trazado_216747" data-name="Trazado 216747" d="M217.421,75.451a20.258,20.258,0,1,1-20.237,20.26,20.16,20.16,0,0,1,20.237-20.26m-8.911,20a7.985,7.985,0,0,0,3.331,6.113,10.146,10.146,0,0,0,3.715,1.629,7.96,7.96,0,0,0,7.939-2.206,8.714,8.714,0,0,0,2.533-6.309,7.829,7.829,0,0,0-4.783-7.557,8.551,8.551,0,0,0-10.958,2.71,8.6,8.6,0,0,0-1.777,5.621" transform="translate(20.983 8.029)" fill="#e17226"/>
              <path id="Trazado_216748" data-name="Trazado 216748" d="M207.421,94.424A8.6,8.6,0,0,1,209.2,88.8a8.551,8.551,0,0,1,10.958-2.71,7.829,7.829,0,0,1,4.783,7.557,8.714,8.714,0,0,1-2.533,6.309,7.96,7.96,0,0,1-7.939,2.206,10.146,10.146,0,0,1-3.715-1.629,7.985,7.985,0,0,1-3.331-6.113" transform="translate(22.073 9.06)" fill="#fff4d5"/>
              <path id="Trazado_216749" data-name="Trazado 216749" d="M217.156,90.919a5.577,5.577,0,0,1,.584,1.416,22.907,22.907,0,0,1,1.235,3.742,4.709,4.709,0,0,0,.3.885c.223.548.053.845-.536.953a2.778,2.778,0,0,1-.8.046c-.592-.066-1.186-.113-1.779-.167a5.407,5.407,0,0,0-2.182-.269L212.62,97.4c-.266-.06-.518-.221-.808-.108-.455-.175-.544-.342-.343-.786a8.053,8.053,0,0,1,.946-1.459c.2-.264.6-.485.522-.8-.061-.249-.429-.424-.663-.63-1.019-.9-2.029-1.807-3.06-2.691-1.233-1.057-2.433-2.154-3.617-3.261-1.682-1.57-3.406-3.089-5.13-4.608-2.308-2.03-4.638-4.036-7.021-5.978q-2.561-2.086-5.134-4.157c-1.907-1.536-3.75-3.147-5.567-4.786a1.717,1.717,0,0,1-.532-.591c.456-.174.906-.361,1.369-.514.195-.064.312-.15.329-.355a.264.264,0,0,0,.131.02,21.731,21.731,0,0,0,2.284,1.934c1.117.872,2.259,1.711,3.373,2.586,2.2,1.729,4.443,3.412,6.58,5.227,2.494,2.117,5,4.223,7.457,6.378q3.59,3.145,7.1,6.384c.882.809,1.852,1.52,2.661,2.41a3.165,3.165,0,0,0,.443.293c.778.6.777.6,1.405-.188a3.333,3.333,0,0,1,1.161-1.145l.542.183v0a.178.178,0,0,0,.114.165" transform="translate(19.39 7.095)" fill="#437286"/>
              <path id="Trazado_216750" data-name="Trazado 216750" d="M175.388,64.839q-1.759-1.769-3.521-3.541a.909.909,0,0,1,.688-.218c1.087-.116,2.173-.232,3.262-.325.343-.03.477-.123.5-.512.083-1.334.23-2.665.353-4a.349.349,0,0,1,.136-.306c.049.012.128.008.169.045q1.645,1.517,3.283,3.042a.486.486,0,0,0-.052.121,8.2,8.2,0,0,0-.444,2.083,15.34,15.34,0,0,1-.387,2.167c-.06.228-.126.4-.384.485a16.354,16.354,0,0,1-2.828.782,2.19,2.19,0,0,0-.777.174" transform="translate(18.289 5.953)" fill="#fedc5a"/>
              <path id="Trazado_216751" data-name="Trazado 216751" d="M180.4,59.172a4.22,4.22,0,0,1,1.153.9,6.309,6.309,0,0,1,1.231,1.115c-.126-.046-.264-.115-.324.075a5.728,5.728,0,0,0-.167.647c-.19,1.032-.416,2.06-.547,3.1a1.375,1.375,0,0,1-1.16,1.277c-.152.039-.3.092-.448.137l-2.5.751A18.466,18.466,0,0,1,175.6,65.1a22.3,22.3,0,0,0,3.359-.893.984.984,0,0,0,.715-.7,33.785,33.785,0,0,0,.778-4.139c.012-.059-.034-.128-.053-.193" transform="translate(18.687 6.297)" fill="#fcda59"/>
              <path id="Trazado_216752" data-name="Trazado 216752" d="M184.372,67.243c-.017.2-.135.291-.329.355-.462.153-.914.341-1.369.514-.884.308-1.772.6-2.65.929a.625.625,0,0,1-.782-.133c-.451-.493-.916-.974-1.375-1.459.841-.22,1.682-.437,2.52-.662a4.377,4.377,0,0,0,1-.385,1.6,1.6,0,0,0,.835-1.063c.252-1,.417-2.008.615-3.013a2.569,2.569,0,0,0,.152-.985,17.107,17.107,0,0,1,2.148,1.733c.281.235.049.485,0,.727a.352.352,0,0,0-.139.516q-.277,1.112-.553,2.223a.445.445,0,0,0-.068.7" transform="translate(18.928 6.528)" fill="#fddb5a"/>
              <path id="Trazado_216753" data-name="Trazado 216753" d="M183.03,61.385a2.559,2.559,0,0,1-.15.984c-.2,1.006-.363,2.018-.616,3.014a1.6,1.6,0,0,1-.835,1.062,4.38,4.38,0,0,1-1,.386c-.839.224-1.68.44-2.52.661a1.21,1.21,0,0,1-.47-.51l2.5-.751c.15-.045.3-.1.449-.137a1.376,1.376,0,0,0,1.16-1.277c.131-1.04.355-2.068.547-3.1a5.663,5.663,0,0,1,.166-.647c.06-.19.2-.122.324-.075.156.122.214.352.441.391" transform="translate(18.882 6.485)" fill="#4a7582"/>
              <path id="Trazado_216754" data-name="Trazado 216754" d="M180.459,59.207c.019.064.065.134.053.193a33.785,33.785,0,0,1-.778,4.139.984.984,0,0,1-.715.7,22.3,22.3,0,0,1-3.359.893,1.93,1.93,0,0,1-.613-.6,2.149,2.149,0,0,1,.777-.174,16.354,16.354,0,0,0,2.828-.782c.258-.081.324-.257.384-.486a15.325,15.325,0,0,0,.387-2.166,8.177,8.177,0,0,1,.444-2.083l.324.256.268.113" transform="translate(18.628 6.261)" fill="#497582"/>
              <path id="Trazado_216755" data-name="Trazado 216755" d="M210.925,94.561a5.39,5.39,0,0,1,2.182.269,11.871,11.871,0,0,1-2.182-.269" transform="translate(22.445 10.06)" fill="#95d0d6"/>
              <path id="Trazado_216756" data-name="Trazado 216756" d="M183.759,66.743a.445.445,0,0,1,.068-.7.9.9,0,0,1,.063.722.264.264,0,0,1-.131-.02" transform="translate(19.54 7.028)" fill="#ffe893"/>
              <path id="Trazado_216757" data-name="Trazado 216757" d="M184.313,64.081a.352.352,0,0,1,.139-.516.367.367,0,0,1-.139.516" transform="translate(19.607 6.764)" fill="#ffe893"/>
              <path id="Trazado_216758" data-name="Trazado 216758" d="M208.965,94.354c.289-.113.541.049.808.108a1.047,1.047,0,0,1-.808-.108" transform="translate(22.237 10.036)" fill="#78b6c0"/>
              <path id="Trazado_216759" data-name="Trazado 216759" d="M179.729,59.106l-.324-.256a.433.433,0,0,1,.052-.121c.173.065.31.157.272.376" transform="translate(19.091 6.25)" fill="#c7b96a"/>
              <path id="Trazado_216760" data-name="Trazado 216760" d="M213.745,88.464l-.543-.184a.361.361,0,0,1,.543.184" transform="translate(22.688 9.388)" fill="#9691a1"/>
              <path id="Trazado_216761" data-name="Trazado 216761" d="M213.806,88.6a.178.178,0,0,1-.114-.165.16.16,0,0,1,.114.165" transform="translate(22.74 9.411)" fill="#9691a1"/>
              <path id="Trazado_216763" data-name="Trazado 216763" d="M84.269,156.723H60.255a.843.843,0,0,0-.843.842v4.312a.843.843,0,0,0,.843.843H84.269Z" transform="translate(6.322 16.678)" fill="#f4e5dd"/>
              <path id="Trazado_216764" data-name="Trazado 216764" d="M122.009,162.143H77.589v34.32h42.505a1.915,1.915,0,0,0,1.915-1.915Z" transform="translate(8.257 17.254)" fill="#e9c8b6"/>
              <path id="Trazado_216765" data-name="Trazado 216765" d="M123.393,157.76v3.922a1.037,1.037,0,0,1-1.037,1.037H81.4a1.037,1.037,0,0,1-1.037-1.037V157.76a1.037,1.037,0,0,1,1.037-1.037h40.956a1.036,1.036,0,0,1,1.037,1.037" transform="translate(8.552 16.678)" fill="#eed5c8"/>
              <path id="Trazado_216766" data-name="Trazado 216766" d="M84.155,162.143H60.484v32.691a1.629,1.629,0,0,0,1.629,1.629H82.526a1.629,1.629,0,0,0,1.629-1.629Z" transform="translate(6.436 17.254)" fill="#eed5c8"/>
              <rect id="Rectángulo_55789" data-name="Rectángulo 55789" width="6.466" height="34.32" transform="translate(108.629 179.397)" fill="#799ab6"/>
              <path id="Trazado_216767" data-name="Trazado 216767" d="M99.333,156.547h5.819a.324.324,0,0,1,.324.324v5.866H99.01v-5.866a.324.324,0,0,1,.323-.324" transform="translate(10.536 16.659)" fill="#799ab6"/>
              <rect id="Rectángulo_55790" data-name="Rectángulo 55790" width="6.466" height="34.32" transform="translate(74.186 179.397)" fill="#c4d1dd"/>
              <path id="Trazado_216768" data-name="Trazado 216768" d="M72.365,156.547H66.546a.325.325,0,0,0-.324.324v5.866h6.466v-5.866a.323.323,0,0,0-.323-.324" transform="translate(7.047 16.659)" fill="#c4d1dd"/>
              <path id="Trazado_216769" data-name="Trazado 216769" d="M92.757,130.94q-.046-.241-.113-.481c-.044-.162-.1-.323-.155-.482a4.837,4.837,0,0,0-.469-.944,9.019,9.019,0,0,0-.835-1.134,6.735,6.735,0,0,0-1.084-1.013,5.035,5.035,0,0,0-1.412-.738,4.418,4.418,0,0,0-.829-.185,4.086,4.086,0,0,0-.878-.008,3.591,3.591,0,0,0-.444.07l-.1.022c-.114.028-.227.06-.337.1a3.989,3.989,0,0,0-.813.383,4.123,4.123,0,0,0-.7.543,4.256,4.256,0,0,0-.579.682,4.162,4.162,0,0,0-.422.784,4.389,4.389,0,0,0-.245.833,4.794,4.794,0,0,0-.084.835,4.982,4.982,0,0,0,.058.809,5.875,5.875,0,0,0,.428,1.478,7.234,7.234,0,0,0,.715,1.271c.069.1.138.194.211.287.035.048.072.094.108.139l.059.074.064.077a4.711,4.711,0,0,0,.551.551,5.763,5.763,0,0,0,.6.449,6.7,6.7,0,0,0,.624.358,9.543,9.543,0,0,0,2.569.841c.432.081.863.138,1.3.176.215.018.43.031.647.038.092,0,.184,0,.275.006h.212l.17,0,.358.044.114-.383.033-.115.032-.111.059-.218c.038-.146.073-.292.105-.439q.1-.438.174-.885a13.105,13.105,0,0,0,.179-1.817,8.749,8.749,0,0,0-.142-1.89m-2,4.6h0c-.381-.117-.756-.248-1.121-.391a9.475,9.475,0,0,1-2.017-1.044,4.655,4.655,0,0,1-.769-.676,3.037,3.037,0,0,1-.281-.368l-.03-.048-.014-.023-.018-.028c-.023-.039-.048-.077-.07-.116-.045-.077-.087-.155-.129-.233a5.555,5.555,0,0,1-.4-.946,3.872,3.872,0,0,1-.174-.928,2.581,2.581,0,0,1,.081-.827,1.838,1.838,0,0,1,.134-.349,1.749,1.749,0,0,1,.188-.3,1.768,1.768,0,0,1,.241-.249,2.062,2.062,0,0,1,.665-.366,1.9,1.9,0,0,1,.268-.07,2.479,2.479,0,0,1,.758-.021,3.178,3.178,0,0,1,.864.243,4.083,4.083,0,0,1,.865.52,5.2,5.2,0,0,1,.778.753,3.74,3.74,0,0,1,.667,1.251,7.261,7.261,0,0,1,.315,1.551,11.939,11.939,0,0,1,.046,1.656q-.017.418-.056.839c-.012.127-.027.253-.042.381l-.167-.044q-.29-.08-.578-.168" transform="translate(8.86 13.401)" fill="#c4d1dd"/>
              <path id="Trazado_216770" data-name="Trazado 216770" d="M91.2,132.626a12.108,12.108,0,0,1,.046,1.656c-.011.279-.03.559-.056.838-.012.128-.027.254-.042.382l-.167-.044c-.194-.054-.386-.11-.578-.168h0l.007-.06c.027-.279.045-.559.055-.838a12.094,12.094,0,0,0-.045-1.655,7.4,7.4,0,0,0-.315-1.552,3.724,3.724,0,0,0-.669-1.251,5.137,5.137,0,0,0-.777-.753,4.017,4.017,0,0,0-.866-.52,3.16,3.16,0,0,0-.863-.243c-.082-.01-.162-.015-.24-.018a1.864,1.864,0,0,1,.268-.071,2.481,2.481,0,0,1,.758-.02,3.19,3.19,0,0,1,.864.243,4.038,4.038,0,0,1,.865.52,5.2,5.2,0,0,1,.778.753,3.74,3.74,0,0,1,.667,1.251,7.316,7.316,0,0,1,.315,1.551" transform="translate(9.224 13.652)" fill="#799ab6"/>
              <path id="Trazado_216771" data-name="Trazado 216771" d="M89.388,131.6a18.793,18.793,0,0,0,.61,2.539q.193.619.419,1.22c.075.2.154.4.236.6l.126.3.066.149.07.156.237.521.5-.133.242-.027c.077-.01.155-.02.231-.032.024,0,.046-.006.07-.01.131-.019.26-.039.389-.061q.458-.078.911-.181a18.069,18.069,0,0,0,1.8-.5,13.7,13.7,0,0,0,3.476-1.694,9.747,9.747,0,0,0,.813-.632,8.357,8.357,0,0,0,.758-.751,6.82,6.82,0,0,0,.672-.891l.075-.122.07-.116c.043-.072.085-.145.126-.218.084-.147.164-.3.241-.448a10.307,10.307,0,0,0,.765-1.942,8.428,8.428,0,0,0,.318-2.177,7.333,7.333,0,0,0-.076-1.157,6.855,6.855,0,0,0-.283-1.168,6.275,6.275,0,0,0-.511-1.133,5.965,5.965,0,0,0-.75-1.027,6.071,6.071,0,0,0-.954-.853,5.919,5.919,0,0,0-1.1-.632A5.715,5.715,0,0,0,97.7,120.8c-.165-.032-.332-.055-.5-.072l-.141-.012a5.181,5.181,0,0,0-.642-.012,5.869,5.869,0,0,0-1.244.185,6.23,6.23,0,0,0-1.137.423,7.213,7.213,0,0,0-1.854,1.322,9.64,9.64,0,0,0-1.34,1.647,13.286,13.286,0,0,0-.961,1.771,7.016,7.016,0,0,0-.478,1.428c-.053.24-.094.478-.125.715s-.053.471-.065.7a12.532,12.532,0,0,0,.169,2.705m2.774,3.77-.228.1c-.046-.176-.092-.353-.134-.531q-.139-.586-.245-1.177A17.175,17.175,0,0,1,91.3,131.4a10.457,10.457,0,0,1,.143-2.26,5.344,5.344,0,0,1,.7-1.9,7.6,7.6,0,0,1,.954-1.22,5.837,5.837,0,0,1,1.125-.906,4.431,4.431,0,0,1,1.176-.512,3.514,3.514,0,0,1,1.078-.122,2.974,2.974,0,0,1,1.406.437,2.332,2.332,0,0,1,.391.305,2.38,2.38,0,0,1,.324.385,2.673,2.673,0,0,1,.26.467,3.779,3.779,0,0,1,.277,1.157,5.621,5.621,0,0,1-.065,1.349A8.068,8.068,0,0,1,98.683,130c-.044.118-.09.238-.138.356-.023.059-.05.118-.075.177l-.019.044-.017.035-.032.073a4.516,4.516,0,0,1-.329.579,6.691,6.691,0,0,1-.956,1.108,13.518,13.518,0,0,1-2.652,1.874c-.489.274-1,.532-1.512.773l-.006,0c-.259.122-.521.238-.786.352" transform="translate(9.493 12.844)" fill="#c4d1dd"/>
              <path id="Trazado_216772" data-name="Trazado 216772" d="M91.1,131.041a17.172,17.172,0,0,0,.259,2.356q.1.589.245,1.176c.042.178.087.355.134.531l.228-.1q.4-.169.786-.352l.006,0-.02-.082q-.139-.586-.243-1.176a17,17,0,0,1-.26-2.356,10.457,10.457,0,0,1,.143-2.26,5.345,5.345,0,0,1,.7-1.9,7.539,7.539,0,0,1,.954-1.22,5.81,5.81,0,0,1,1.125-.906,4.416,4.416,0,0,1,1.176-.512c.114-.03.226-.055.336-.074a3.049,3.049,0,0,0-.393-.048,3.514,3.514,0,0,0-1.078.122,4.431,4.431,0,0,0-1.176.512,5.844,5.844,0,0,0-1.125.906,7.54,7.54,0,0,0-.954,1.22,5.344,5.344,0,0,0-.7,1.9,10.388,10.388,0,0,0-.143,2.26" transform="translate(9.693 13.207)" fill="#799ab6"/>
              <path id="Trazado_216773" data-name="Trazado 216773" d="M86.246,134.51H71.608a.514.514,0,0,0-.514.513v2.629a.514.514,0,0,0,.514.513H86.246Z" transform="translate(7.565 14.314)" fill="#f4e5dd"/>
              <path id="Trazado_216774" data-name="Trazado 216774" d="M109.251,137.814H82.174v20.92h25.91a1.167,1.167,0,0,0,1.167-1.167Z" transform="translate(8.745 14.665)" fill="#e9c8b6"/>
              <path id="Trazado_216775" data-name="Trazado 216775" d="M110.095,135.143v2.39a.632.632,0,0,1-.632.633H84.5a.633.633,0,0,1-.633-.633v-2.39a.633.633,0,0,1,.633-.633h24.965a.632.632,0,0,1,.632.633" transform="translate(8.924 14.314)" fill="#eed5c8"/>
              <path id="Trazado_216776" data-name="Trazado 216776" d="M86.177,137.814H71.748v19.927a.993.993,0,0,0,.992.994H85.184a.993.993,0,0,0,.992-.994Z" transform="translate(7.635 14.665)" fill="#eed5c8"/>
              <rect id="Rectángulo_55791" data-name="Rectángulo 55791" width="3.942" height="20.92" transform="translate(104.806 152.479)" fill="#799ab6"/>
              <path id="Trazado_216777" data-name="Trazado 216777" d="M95.429,134.4h3.546a.2.2,0,0,1,.2.2v3.576H95.232V134.6a.2.2,0,0,1,.2-.2" transform="translate(10.134 14.303)" fill="#799ab6"/>
              <rect id="Rectángulo_55792" data-name="Rectángulo 55792" width="3.942" height="20.92" transform="translate(83.812 152.479)" fill="#c4d1dd"/>
              <path id="Trazado_216778" data-name="Trazado 216778" d="M78.989,134.4H75.442a.2.2,0,0,0-.2.2v3.576h3.941V134.6a.2.2,0,0,0-.2-.2" transform="translate(8.007 14.303)" fill="#c4d1dd"/>
              <path id="Trazado_216779" data-name="Trazado 216779" d="M91.031,134.909H89.923a3.423,3.423,0,0,0-1.445-1.92,5.258,5.258,0,0,0-2.8-.853,5.607,5.607,0,0,0-2.829.71,6.411,6.411,0,0,0-2.148,2,9.817,9.817,0,0,0-1.266,2.769,15.643,15.643,0,0,0-.545,3.091,28.337,28.337,0,0,0,.292,6.405L77.8,145.985,76.95,147.4a30.6,30.6,0,0,1,0-6.891,17.649,17.649,0,0,1,.766-3.432,11.6,11.6,0,0,1,1.642-3.194,8.028,8.028,0,0,1,2.794-2.375,7.048,7.048,0,0,1,3.6-.734A6.553,6.553,0,0,1,89.186,132a5.054,5.054,0,0,1,.7.624,4.473,4.473,0,0,1,.579.752,4.072,4.072,0,0,1,.565,1.538" transform="translate(8.168 13.914)" fill="#799ab6"/>
              <path id="Trazado_216780" data-name="Trazado 216780" d="M105.415,140.788l-1.5-1.707-.742,1.914a14.373,14.373,0,0,0-.974-4.594,8.322,8.322,0,0,0-1.14-1.962,6.151,6.151,0,0,0-1.655-1.466,5.506,5.506,0,0,0-4.3-.587,4.655,4.655,0,0,0-1.932,1.054,3.2,3.2,0,0,0-.912,1.473H91.153a3.865,3.865,0,0,1,.339-1.135,4.506,4.506,0,0,1,.819-1.2,5.906,5.906,0,0,1,2.389-1.5,6.957,6.957,0,0,1,2.787-.347,7.117,7.117,0,0,1,2.723.783,7.866,7.866,0,0,1,2.228,1.749,10.116,10.116,0,0,1,1.541,2.32,16.407,16.407,0,0,1,1.436,5.2" transform="translate(9.7 13.91)" fill="#799ab6"/>
              <path id="Trazado_216781" data-name="Trazado 216781" d="M91.712,136.356H49.676A14.306,14.306,0,0,1,35.37,122.049V92.176A14.306,14.306,0,0,1,49.677,77.869H91.712a14.306,14.306,0,0,1,14.307,14.307v29.873a14.307,14.307,0,0,1-14.307,14.307" transform="translate(3.764 8.286)" fill="#e2f1f3"/>
              <path id="Trazado_216782" data-name="Trazado 216782" d="M53.226,93.006H67.137a6.2,6.2,0,0,1,.731.018.765.765,0,0,1,.69.741.694.694,0,0,1-.561.75,2.777,2.777,0,0,1-.866.1H39.38a2.834,2.834,0,0,1-1.009-.124c-.34-.126-.649-.321-.634-.709a.786.786,0,0,1,.772-.747,7.331,7.331,0,0,1,.949-.031H53.226" transform="translate(4.016 9.897)" fill="#4c4b4a"/>
              <path id="Trazado_216783" data-name="Trazado 216783" d="M53.223,97.772H67.135a6.2,6.2,0,0,1,.731.018.764.764,0,0,1,.692.739.691.691,0,0,1-.559.751,2.746,2.746,0,0,1-.866.1q-13.911,0-27.823,0a2.687,2.687,0,0,1-.937-.124c-.341-.123-.649-.32-.635-.707a.784.784,0,0,1,.77-.748,7.139,7.139,0,0,1,.949-.032H53.223" transform="translate(4.016 10.404)" fill="#4c4b4a"/>
              <path id="Trazado_216784" data-name="Trazado 216784" d="M53.219,102.538H67.131a6.712,6.712,0,0,1,.731.017.765.765,0,0,1,.7.737.69.69,0,0,1-.554.753,2.747,2.747,0,0,1-.866.1q-13.911,0-27.824,0a2.578,2.578,0,0,1-.936-.124c-.362-.136-.689-.336-.634-.774a.792.792,0,0,1,.76-.68,7.539,7.539,0,0,1,.949-.032H53.219" transform="translate(4.016 10.911)" fill="#4c4b4a"/>
              <path id="Trazado_216785" data-name="Trazado 216785" d="M53.219,107.3H67.131a6.712,6.712,0,0,1,.731.017.764.764,0,0,1,.695.737.69.69,0,0,1-.555.753,2.736,2.736,0,0,1-.865.1q-13.913,0-27.824,0a2.578,2.578,0,0,1-.936-.124c-.362-.137-.69-.337-.634-.776a.792.792,0,0,1,.761-.679,7.539,7.539,0,0,1,.949-.032H53.219" transform="translate(4.016 11.419)" fill="#4c4b4a"/>
              <path id="Trazado_216786" data-name="Trazado 216786" d="M53.149,112.07H67.134a6.192,6.192,0,0,1,.731.018.764.764,0,0,1,.693.739.692.692,0,0,1-.559.751,2.746,2.746,0,0,1-.866.1q-13.913,0-27.824,0a2.707,2.707,0,0,1-.936-.124c-.342-.123-.649-.32-.636-.707a.784.784,0,0,1,.77-.748,7.148,7.148,0,0,1,.95-.032H53.149" transform="translate(4.016 11.926)" fill="#4c4b4a"/>
              <path id="Trazado_216787" data-name="Trazado 216787" d="M53.2,116.837H67.184a4.865,4.865,0,0,1,.73.025.759.759,0,0,1,.643.707.685.685,0,0,1-.534.767,2.609,2.609,0,0,1-.864.112q-13.913,0-27.824,0a2.482,2.482,0,0,1-1.074-.167c-.291-.134-.57-.336-.522-.713a.732.732,0,0,1,.605-.658,5.47,5.47,0,0,1,1.017-.072q6.919-.007,13.839,0" transform="translate(4.015 12.433)" fill="#4c4b4a"/>
              <path id="Trazado_216788" data-name="Trazado 216788" d="M69.478,103.743q.2.144,0,.289-.219-.144,0-.289" transform="translate(7.382 11.04)" fill="#edbaa5"/>
              <path id="Trazado_216789" data-name="Trazado 216789" d="M101,108.125A17.259,17.259,0,1,1,83.737,90.866,17.259,17.259,0,0,1,101,108.125" transform="translate(7.074 9.669)" fill="#3c67cc"/>
              <path id="Trazado_216790" data-name="Trazado 216790" d="M80.72,108.115s9.7-6.477,15.4-10.234a17.239,17.239,0,0,0-12.043-6.925c-1.111,5.425-3.355,17.159-3.355,17.159" transform="translate(8.59 9.679)" fill="#dca946"/>
              <path id="Trazado_216791" data-name="Trazado 216791" d="M168.034,189.157l-.144.8a9.715,9.715,0,0,0,1.026,6.356h12.68a5.974,5.974,0,0,0-3.259-6.2l-1.922-.955Z" transform="translate(17.85 20.129)" fill="#362b35"/>
              <path id="Trazado_216792" data-name="Trazado 216792" d="M112.047,188.635c-1.245,1.611-4.222,2.662-6.626,3.278a4.227,4.227,0,0,0-3.17,4.452h19.161a7.628,7.628,0,0,0-.469-5.97l-.921-1.76Z" transform="translate(10.879 20.074)" fill="#362b35"/>
              <path id="Trazado_216793" data-name="Trazado 216793" d="M138.754,46.525c-5.18,1.66-26.551,25.76-26.551,25.76l4.626,4.8s16.886-9.188,25.491-16.561Z" transform="translate(11.94 4.951)" fill="#d8cddf"/>
            </g>
          </g>
          <g id="Grupo_174758" data-name="Grupo 174758" transform="translate(122.812 107.551)">
            <g id="Grupo_174757" data-name="Grupo 174757" clip-path="url(#clip-path-4)">
              <rect id="Rectángulo_55794" data-name="Rectángulo 55794" width="39.797" height="103.106" transform="translate(-0.195 0)" fill="url(#linear-gradient)"/>
            </g>
          </g>
          <g id="Grupo_174760" data-name="Grupo 174760" transform="translate(146.833 107.551)">
            <g id="Grupo_174759" data-name="Grupo 174759" clip-path="url(#clip-path-5)">
              <rect id="Rectángulo_55795" data-name="Rectángulo 55795" width="72.42" height="113.38" transform="matrix(0.968, -0.25, 0.25, 0.968, -25.358, 6.524)" fill="url(#linear-gradient-2)"/>
            </g>
          </g>
          <g id="Grupo_174765" data-name="Grupo 174765">
            <g id="Grupo_174764" data-name="Grupo 174764" clip-path="url(#clip-path-2)">
              <path id="Trazado_216796" data-name="Trazado 216796" d="M156.931,37.583s-.626,1.677-1.325,4.192c-.044.165-.094.335-.138.506-.064.242-.129.485-.194.735-.044.183-.093.373-.142.562-.02.1-.044.19-.069.288-.117.485-.235.986-.343,1.5-.3,1.379-.559,2.85-.737,4.346l0,0v0c-.069.588-.129,1.177-.17,1.767l-10.988-2.98c.553-.747,1.063-1.463,1.52-2.151.024-.032.044-.06.064-.092l.207-.3c.7-1.054,1.293-2.037,1.8-2.939,2.867-5.126,2.867-7.774,2.867-7.774Z" transform="translate(15.198 3.751)" fill="#864950"/>
              <path id="Trazado_216797" data-name="Trazado 216797" d="M164.894,52.746l-4.633,13.975s-.163.558-.429,1.5c-.238.865-.573,2.05-.946,3.432-1.107,4.072-2.614,9.86-3.489,14.146l0,.02a29.139,29.139,0,0,0-.69,4.815,40.611,40.611,0,0,0,1.6,9.245c.449,1.654,1.941,2.183.817,2.79h0c-16.292,8.764-34.622.217-35.079,0l-.008,0a89.767,89.767,0,0,0,7.365-15.48,26.09,26.09,0,0,0,1.3-5.559q.085-.606.146-1.217c.375-3.638.34-7.576.437-11.679.032-1.418.084-2.858.174-4.313A53.222,53.222,0,0,1,133,54.128a42.976,42.976,0,0,1,2.847-5.723,4.9,4.9,0,0,1,4.107-2.413l6.185-.146c4.779,1.4,9.9,2.7,10.055,2.745h0a26.435,26.435,0,0,1,8.7,4.156" transform="translate(12.986 4.879)" fill="#e7daea"/>
              <path id="Trazado_216798" data-name="Trazado 216798" d="M154.255,48.592c-.866,4.318-13.016,1.733-13.892-.206s3.834-2.538,3.834-2.538c4.777,1.4,9.9,2.7,10.055,2.743h0" transform="translate(14.925 4.879)" fill="#864950"/>
              <path id="Trazado_216799" data-name="Trazado 216799" d="M156.3,97.4c.449,1.653,1.941,2.183.817,2.789-16.159,8.692-34.322.36-35.066.008a84.689,84.689,0,0,0,9.786,1.094,19.632,19.632,0,0,0,20.674-17.05,24.077,24.077,0,0,1,2.26-7.875L141.843,80.83a2.924,2.924,0,0,0,.518-.263,77.568,77.568,0,0,0,16.522-11.392c-1.108,4.07-2.616,9.86-3.489,14.144l0,.021a29.055,29.055,0,0,0-.692,4.814A40.622,40.622,0,0,0,156.3,97.4" transform="translate(12.988 7.361)" fill="#d8cddf"/>
              <path id="Trazado_216800" data-name="Trazado 216800" d="M144.785,66.81q-1.382,1.638-2.837,3.464l-11.559-3.594c.012-.5.024-.995.044-1.5Z" transform="translate(13.875 6.937)" fill="#d8cddf"/>
              <path id="Trazado_216801" data-name="Trazado 216801" d="M164.244,35.525a20.734,20.734,0,0,1-2.292,4.2c-1.844,1.875-3.184.137-5.982,3.183-.031.041-.071.08-.106.121v0l-.013.014s-1.955,2.825-2.119,3.015c-2.338,1.659-6.715,1.424-9.672,1.02a.783.783,0,0,1-.1-.018c-.191-.027-.377-.062-.563-.106a7.4,7.4,0,0,1-1.517-.528l-1.69-.812a1.212,1.212,0,0,1-.581-1.281c.31-4,2.439-10.6,3.229-11.495.133-.15.257-.283.35-.391.165-.189.27-.3.27-.3s.125-.444.32-1.011c.04-.115.084-.236.128-.36.028-.056.044-.114.067-.168a.538.538,0,0,1,.031-.075l.021-.062a.138.138,0,0,1,.019-.035,3.213,3.213,0,0,1,.4-.7c.382-.506,1.057-1.353,1.663-2.1a11.248,11.248,0,0,1,3.939-3.1c2.593-1.224,6.695-2.456,10.522-.625,8.882,4.253,3.681,11.614,3.681,11.614" transform="translate(14.855 2.446)" fill="#9b6c71"/>
              <path id="Trazado_216802" data-name="Trazado 216802" d="M148,34.567c.009.01.02.02.03.03a7.031,7.031,0,0,0,1.495,1.046,5.187,5.187,0,0,0,2.041.579.677.677,0,0,0,.089-.429,4.148,4.148,0,0,0-2.3-2.8,2.657,2.657,0,0,0-.758.215,1.133,1.133,0,0,0-.372.27c-.323.385-.462.838-.225,1.094" transform="translate(15.736 3.51)" fill="#fff"/>
              <path id="Trazado_216803" data-name="Trazado 216803" d="M148.007,34.433c-.009.027-.017.052-.023.08a.369.369,0,0,0,.03.029,7,7,0,0,0,1.495,1.047,1.559,1.559,0,0,0,.32-.558.993.993,0,1,0-1.821-.6" transform="translate(15.748 3.565)" fill="#34233f"/>
              <path id="Trazado_216804" data-name="Trazado 216804" d="M149.461,34.566a.3.3,0,1,0,.4-.142.3.3,0,0,0-.4.142" transform="translate(15.902 3.66)" fill="#fff"/>
              <path id="Trazado_216805" data-name="Trazado 216805" d="M143.129,31.323a1.32,1.32,0,0,0,.068.471c.249.734,1.116,1.017,1.5,1.144l.028.008a4.833,4.833,0,0,0,1.474-.03v-.03a2.2,2.2,0,0,0-1.381-2.051c-.682-.271-1-.231-1.458.236-.072.073-.148.157-.228.252" transform="translate(15.231 3.263)" fill="#fff"/>
              <path id="Trazado_216806" data-name="Trazado 216806" d="M143.19,31.751c.249.732,1.116,1.016,1.5,1.143l.028.009a1.4,1.4,0,0,0,.168-.268,1.085,1.085,0,0,0-.354-1.475,1.07,1.07,0,0,0-1.34.591" transform="translate(15.237 3.308)" fill="#34233f"/>
              <path id="Trazado_216807" data-name="Trazado 216807" d="M144.624,31.972a.267.267,0,1,0,.356-.126.268.268,0,0,0-.356.126" transform="translate(15.387 3.386)" fill="#fff"/>
              <path id="Trazado_216808" data-name="Trazado 216808" d="M154.476,35.539s-.269-1.892-1.054-2.35a41.542,41.542,0,0,0-5.15-1.9.064.064,0,0,0-.048.118c1.348.653,3.968,1.932,4.727,2.374a6.251,6.251,0,0,1,1.526,1.757" transform="translate(15.769 3.329)" fill="#321b29"/>
              <path id="Trazado_216809" data-name="Trazado 216809" d="M147.262,31.062a5.964,5.964,0,0,0-2.32-2.391c-.825-.311-.859-.243-.859-.243s-.2.455.1.6a8.876,8.876,0,0,1,3.082,2.038" transform="translate(15.326 3.024)" fill="#321b29"/>
              <path id="Trazado_216810" data-name="Trazado 216810" d="M148.523,33.2l.007.042a4.5,4.5,0,0,1,2.962,2.977.684.684,0,0,0,.09-.429,4.148,4.148,0,0,0-2.3-2.8,2.657,2.657,0,0,0-.758.215" transform="translate(15.805 3.51)" fill="#864950"/>
              <path id="Trazado_216811" data-name="Trazado 216811" d="M143.335,31.071c0,.017.006.033.009.05,2.132-.6,2.83,1.8,2.83,1.8a.211.211,0,0,1,0-.03,2.207,2.207,0,0,0-1.381-2.051c-.682-.271-1-.231-1.458.236" transform="translate(15.253 3.263)" fill="#864950"/>
              <path id="Trazado_216812" data-name="Trazado 216812" d="M142.032,37.848a3.141,3.141,0,0,1,2.014,1.892s-.526.243-1.89-.618c-.273-.918-.19-1.136-.124-1.273" transform="translate(15.107 4.028)" fill="#864950"/>
              <path id="Trazado_216813" data-name="Trazado 216813" d="M142.161,39.83a5.439,5.439,0,0,1-.135-.64,1.744,1.744,0,0,1-.014-.321.888.888,0,0,1,.023-.154.608.608,0,0,1,.023-.072l.014-.033.009-.018s.008-.015,0-.01l.052-.045.063-.05.128-.1c.086-.069.172-.137.256-.208.169-.142.334-.285.5-.434a15.629,15.629,0,0,0,1.784-1.945,16.964,16.964,0,0,0,2.528-4.606,25.594,25.594,0,0,1-1.213,2.326,21.092,21.092,0,0,1-1.469,2.161,18.272,18.272,0,0,1-1.74,1.947q-.236.227-.479.445l-.246.216-.124.108-.062.055a.57.57,0,0,0-.067.069.092.092,0,0,0-.013.028l-.009.02c0,.014-.011.028-.015.041a.826.826,0,0,0-.022.086.928.928,0,0,0-.013.174,1.852,1.852,0,0,0,.042.333,3.962,3.962,0,0,0,.2.63" transform="translate(15.102 3.319)" fill="#ae878c"/>
              <path id="Trazado_216814" data-name="Trazado 216814" d="M164.919,36.781c-1.564,4.72-7.755,6.629-7.755,6.629l-1.295-.468c-.634-.35-.231-1.349-.3-2.222a1.675,1.675,0,0,0-.121-.542c-.649-1.517,1.966-1.444,1.353-3.127-.358-.981.531-1.735.444-3.165-.082-1.372-4.958-5.914-9.547-3.583.893-1.37,2.9-2.081,5.154-1.667-4.172-2.4-6.482-3.118-8.443.247.562-2.8,1.365-5.743,5.811-7.417,3.333-1.255,9.8-.166,12.907,3.753.413.529,4.076,4.654,1.787,11.563" transform="translate(15.368 2.231)" fill="#321b29"/>
              <path id="Trazado_216815" data-name="Trazado 216815" d="M157.118,41.533a6.028,6.028,0,0,1-2.847.755,2.637,2.637,0,0,1-.333-.023,1.771,1.771,0,0,1-1.14-.466c-.669-.762.174-1.8,1.4-3.028a4.584,4.584,0,0,1,.386-.351,3.821,3.821,0,0,1,2.013-.913,1.382,1.382,0,0,1,1.126.35c.718.722.693,2.524-.607,3.677" transform="translate(16.235 3.991)" fill="#9b6c71"/>
              <path id="Trazado_216816" data-name="Trazado 216816" d="M157.824,38.657a4.374,4.374,0,0,1-.287,1.209c-.036.1-.082.189-.123.284s-.091.185-.146.271a3.679,3.679,0,0,1-.354.5l.022-.019a6.151,6.151,0,0,1-1.054.435,4.983,4.983,0,0,1-1.121.191,7.8,7.8,0,0,1-1.147-.03.718.718,0,0,1-.467-.259A.868.868,0,0,1,153,41a.41.41,0,0,1-.023-.279.405.405,0,0,0-.007.289.9.9,0,0,0,.131.266.771.771,0,0,0,.5.324c.194.029.386.054.581.067.1.009.195.011.293.017s.195,0,.293,0a4.6,4.6,0,0,0,1.162-.181,5.549,5.549,0,0,0,1.081-.459l0,0a.088.088,0,0,0,.019-.015,3.414,3.414,0,0,0,.354-.534c.053-.092.093-.191.139-.287s.08-.2.11-.3a3.7,3.7,0,0,0,.146-.616,3.327,3.327,0,0,0,.041-.628" transform="translate(16.276 4.114)" fill="#864950"/>
              <path id="Trazado_216817" data-name="Trazado 216817" d="M156.456,38.419a2.969,2.969,0,0,0-.989.272,2.136,2.136,0,0,0-.445.281,1.6,1.6,0,0,0-.34.409c-.178.3-.31.612-.477.9a1.22,1.22,0,0,1-.309.372.484.484,0,0,1-.219.089.611.611,0,0,1-.247-.023.583.583,0,0,0,.249.071.541.541,0,0,0,.261-.065,1.18,1.18,0,0,0,.376-.371c.2-.287.339-.6.511-.881a1.438,1.438,0,0,1,.3-.377,2.349,2.349,0,0,1,.4-.284,4.626,4.626,0,0,1,.928-.391" transform="translate(16.327 4.088)" fill="#864950"/>
              <path id="Trazado_216818" data-name="Trazado 216818" d="M143.947,42.537a2.6,2.6,0,0,1-.846-.122.111.111,0,0,1,.075-.208,3.1,3.1,0,0,0,1.977-.117.109.109,0,0,1,.141.065.11.11,0,0,1-.064.143,3.632,3.632,0,0,1-1.282.239" transform="translate(15.22 4.478)" fill="#ae878c"/>
              <path id="Trazado_216819" data-name="Trazado 216819" d="M158.55,100.65a43.545,43.545,0,0,1-11.8,3.251,55.412,55.412,0,0,1-12.605.162q-1.389-.133-2.687-.324a63.838,63.838,0,0,1-10.9-2.489c.081-.218.169-.441.254-.659.44-1.124.9-2.247,1.383-3.383l.008,0a47.28,47.28,0,0,0,12.443,3.494,43.2,43.2,0,0,0,9.112.343,33.492,33.492,0,0,0,13.523-3.84q.661,1.739,1.273,3.444" transform="translate(12.829 10.344)" fill="#473a4d"/>
              <g id="Grupo_174763" data-name="Grupo 174763" transform="translate(140.708 114.084)" opacity="0.5" style="mix-blend-mode: multiply;isolation: isolate">
                <g id="Grupo_174762" data-name="Grupo 174762">
                  <g id="Grupo_174761" data-name="Grupo 174761" clip-path="url(#clip-path-7)">
                    <path id="Trazado_216820" data-name="Trazado 216820" d="M127.175,147.867l8.494-29.944-2.414-3.662c-2.413-3.668-2.506-11.146-2.506-11.146l0,0q1.3.189,2.687.324c.012.27.029.545.045.824.069,1.213.165,2.478.294,3.731.547,2.114,2.624,6.712,5.195,11.979l0,0Z" transform="translate(-127.175 -103.111)" fill="#753b4b"/>
                  </g>
                </g>
              </g>
              <path id="Trazado_216821" data-name="Trazado 216821" d="M168,129.6,82.886,83.607a2.031,2.031,0,0,1-.451-2.788L102.817,43.1a2.031,2.031,0,0,1,2.579-1.15L190.51,87.941a2.033,2.033,0,0,1,.451,2.788L170.579,128.45A2.033,2.033,0,0,1,168,129.6" transform="translate(8.736 4.447)" fill="#465e73"/>
              <path id="Trazado_216822" data-name="Trazado 216822" d="M167.106,129.117,81.993,83.124a2.031,2.031,0,0,1-.453-2.787l20.382-37.721a2.032,2.032,0,0,1,2.58-1.15l85.114,45.993a2.032,2.032,0,0,1,.451,2.788l-20.382,37.72a2.032,2.032,0,0,1-2.58,1.15" transform="translate(8.641 4.395)" fill="#c4d1dd"/>
              <path id="Trazado_216823" data-name="Trazado 216823" d="M191.049,88.94,114.222,47.427l3.471-6.38-57.323.435L88.636,94.46l4.539-8.343L170.11,127.69a.53.53,0,0,0,.674-.3l20.383-37.72a.534.534,0,0,0-.118-.729" transform="translate(6.424 4.368)" fill="#d8d8d8"/>
              <path id="Trazado_216824" data-name="Trazado 216824" d="M161.492,52.082c3.241,2.387,13.229,31.19,13.488,34.44l-6.745,3.251c-1.832-5.185-11.987-16.34-14.212-23.194a.992.992,0,0,1,0-.313,17.85,17.85,0,0,1,6.645-13.518Z" transform="translate(16.389 5.542)" fill="#e7daea"/>
              <path id="Trazado_216825" data-name="Trazado 216825" d="M150.419,101.309l-4.609,6.783a.43.43,0,0,0,.677.527l3.763-4.235-3.5,5.1a.4.4,0,0,0,.627.484l3.889-4.5-2.864,4.438a.39.39,0,0,0,.625.462l3.464-4.083-2.739,4.028a.39.39,0,0,0,.62.471l4.5-5.321-2.26-3.173Z" transform="translate(15.509 10.781)" fill="#864950"/>
              <path id="Trazado_216826" data-name="Trazado 216826" d="M162.8,97.13c-.622.5-1.208.96-1.757,1.383-2.918,2.259-4.772,3.49-4.782,3.5s-.028,3.554-2.193,4.615a2.841,2.841,0,0,1-2.073-.254,3.428,3.428,0,0,1-2.13-3.7,1.42,1.42,0,0,1,.125-.429,7.755,7.755,0,0,1,2.936-2.519c2.027-2.068,3.687-3.875,5.071-5.459.523-.6,1.007-1.171,1.455-1.709A7.76,7.76,0,0,0,162.8,97.13" transform="translate(15.943 9.849)" fill="#9b6c71"/>
              <path id="Trazado_216827" data-name="Trazado 216827" d="M174.5,83.324s-4.176-2.419-7.147-.367c-3.118,2.155-3.758,4.6-8.831,10.7a7.754,7.754,0,0,0,3.348,4.578,9.882,9.882,0,0,0,.947.57,67.955,67.955,0,0,0,7.2-7.639c.016-.019.025-.029.025-.029,1.4-1.311,2.829-2.72,4.273-4.213.878-.909.188-3.6.188-3.6" transform="translate(16.869 8.74)" fill="#e7daea"/>
              <path id="Trazado_216828" data-name="Trazado 216828" d="M162.009,97.13c-.622.5-1.208.96-1.757,1.383-1.742-.944-2.689-3.2-3.046-4.251.523-.6,1.007-1.171,1.455-1.709a7.76,7.76,0,0,0,3.348,4.577" transform="translate(16.729 9.849)" fill="#864950"/>
              <path id="Trazado_216829" data-name="Trazado 216829" d="M158.877,104.831l-3.82-18.407-9.983,14.521L139.31,82.18,120.842,92.409l-8.719-39.145-11.718,6.224.236-6.224L93.9,57.072,65.4,20.222,55.022,24.876,31.029,5.177" transform="translate(3.302 0.551)" fill="none" stroke="#3c67cc" stroke-miterlimit="10" stroke-width="2.372"/>
              <path id="Trazado_216830" data-name="Trazado 216830" d="M37.319,6.658A6.657,6.657,0,1,1,30.661,0a6.657,6.657,0,0,1,6.657,6.657" transform="translate(2.554 0)" fill="#eeac3a"/>
              <path id="Trazado_216831" data-name="Trazado 216831" d="M66.517,19.163a4.031,4.031,0,1,1-4.032-4.031,4.032,4.032,0,0,1,4.032,4.031" transform="translate(6.22 1.61)" fill="#eeac3a"/>
              <path id="Trazado_216832" data-name="Trazado 216832" d="M108.129,48.538a4.031,4.031,0,1,1-4.031-4.031,4.031,4.031,0,0,1,4.031,4.031" transform="translate(10.649 4.736)" fill="#eeac3a"/>
              <path id="Trazado_216833" data-name="Trazado 216833" d="M126.69,101.17a3.4,3.4,0,1,1-3.4-3.4,3.4,3.4,0,0,1,3.4,3.4" transform="translate(0.758 -8.084)" fill="#eeac3a"/>
              <path id="Trazado_216834" data-name="Trazado 216834" d="M221.654,129.331a3.986,3.986,0,0,1-.554-.752,1.155,1.155,0,0,1-.669-.465,21.57,21.57,0,0,0-5.076-3.919c-.277-.162-1.474-.835-1.842-1.012a32.989,32.989,0,0,0-7.177-2.353,23.966,23.966,0,0,0-3.511-.4,29.729,29.729,0,0,0-6.018.41,26.569,26.569,0,0,0-12.193,5.559,25.023,25.023,0,0,0-5.007,5.274,29.133,29.133,0,0,0-2.679,4.7,27.2,27.2,0,0,0-2.346,9.556,25.627,25.627,0,0,0,.35,5.81,26.809,26.809,0,0,0,10.354,17.239,1.19,1.19,0,0,1,.532,1.345c-.116.478-.094.975-.2,1.439-.253,1.134-.074,2.294-.279,3.422a15.075,15.075,0,0,0-.077,3.437,1.258,1.258,0,0,0,1.819,1.1,5.091,5.091,0,0,0,1-.55c2.485-1.664,4.991-3.295,7.559-4.828a1.714,1.714,0,0,1,1.275-.327,26.292,26.292,0,0,0,4.762.406c1.5.038,2.976-.278,4.472-.254a1.527,1.527,0,0,1,.856-.342,26.463,26.463,0,0,0,6.756-2.307,2.788,2.788,0,0,1,.976-.335,1.711,1.711,0,0,1,.614-.551,22.1,22.1,0,0,0,4.869-3.72,1.262,1.262,0,0,1,.776-.489,5.537,5.537,0,0,1,1.181-1.579,27.178,27.178,0,0,0-.528-35.511" transform="translate(18.573 12.815)" fill="#7aa3f4"/>
              <path id="Trazado_216835" data-name="Trazado 216835" d="M209.616,134.5c.8,0,1.6-.021,2.4,0,.761.014.922.119.892.82a37.392,37.392,0,0,0,.29,5.094,33.042,33.042,0,0,0,.336,4.873,1.058,1.058,0,0,1,.014.313c-.1,1.845.191,3.674.263,5.513.091,2.353.225,4.713.434,7.057a31.9,31.9,0,0,0,.288,4.25c.113.5-.137.762-.632.638a4.087,4.087,0,0,0-1.643.024,6.169,6.169,0,0,1-2.283-.052,4.793,4.793,0,0,0-.824-.1c-5.04-.268-10.084-.184-15.127-.208l-.836-.009c.086-.9.159-1.8.26-2.7.45-4.012.845-8.031,1.381-12.031.591-4.42.855-8.877,1.541-13.285l4.193-.019a1.944,1.944,0,0,0-.15.489c-.046,1.384-.3,2.758-.23,4.15a1.885,1.885,0,0,1-.373,1.363,1.943,1.943,0,0,0-.145,1.888.872.872,0,0,0,.938.672.959.959,0,0,0,.9-.75,2.091,2.091,0,0,0-.041-1.625,2.674,2.674,0,0,1-.237-1.7c.05-.691.085-1.385.139-2.076a9.292,9.292,0,0,1,.425-2.442l.386-.054,1.042.013c1.715.154,3.434.055,5.151.056a43.018,43.018,0,0,1,.114,5,2.009,2.009,0,0,1-.428,1.559,1.234,1.234,0,0,0-.211.995,1.057,1.057,0,0,0,.865,1.032c.449.031.836-.339.947-.929a2.176,2.176,0,0,0,.039-.622,67.321,67.321,0,0,1-.08-7.182" transform="translate(20.558 14.312)" fill="#b1c9c3"/>
              <path id="Trazado_216836" data-name="Trazado 216836" d="M197.206,134.684c-.686,4.408-.949,8.865-1.541,13.285-.534,4-.93,8.019-1.381,12.031-.1.9-.174,1.8-.259,2.7a1.668,1.668,0,0,1-1.108.194c-2.229.042-4.446-.277-6.677-.237-.783.014-.955-.253-.846-1.067.706-5.281,1.136-10.594,1.822-15.876.381-2.931.58-5.879.992-8.806.068-.481.029-.977.091-1.459.1-.743.168-.8.925-.809,1.5-.023,3-.032,4.492-.046a3.72,3.72,0,0,0,1.183,0l2.307.084" transform="translate(19.725 14.323)" fill="#6da699"/>
              <path id="Trazado_216837" data-name="Trazado 216837" d="M194.1,135.274a3.72,3.72,0,0,1-1.183,0,13.34,13.34,0,0,1,1.79-4.983,4.153,4.153,0,0,1,4.891-1.823c.2.059.4.134.6.187a2.2,2.2,0,0,1,1.653,1.3c.155.389.4.574.783.212.905-.862,2.052-.736,3.157-.759a6.555,6.555,0,0,1,.933.111,2.175,2.175,0,0,1,1.906,1.411,8.414,8.414,0,0,1,.807,3.007,7.834,7.834,0,0,0,.214,1.233,67.632,67.632,0,0,0,.08,7.183,2.21,2.21,0,0,1-.038.621c-.112.592-.5.961-.948.929a1.056,1.056,0,0,1-.864-1.032,1.231,1.231,0,0,1,.211-.995,2.016,2.016,0,0,0,.428-1.558,42.762,42.762,0,0,0-.115-5,9.45,9.45,0,0,0-.742-3.753,1.51,1.51,0,0,0-1.331-1,10.067,10.067,0,0,0-1.975.006,1.666,1.666,0,0,0-1.47,2.149,6.212,6.212,0,0,1,.367,2.546l-1.042-.012c-.1-.173-.046-.425-.3-.631-.035.291-.059.487-.083.684a9.3,9.3,0,0,0-.425,2.442c-.054.692-.089,1.384-.138,2.076a2.68,2.68,0,0,0,.236,1.7,2.091,2.091,0,0,1,.041,1.625.958.958,0,0,1-.9.75.873.873,0,0,1-.939-.672,1.944,1.944,0,0,1,.145-1.888,1.878,1.878,0,0,0,.373-1.363c-.065-1.392.184-2.765.23-4.15a1.9,1.9,0,0,1,.152-.489c.223-1.016.457-2.03.666-3.049a2.127,2.127,0,0,0-.922-2.287,3.263,3.263,0,0,0-4.8,1.057,11.222,11.222,0,0,0-1.449,4.214" transform="translate(20.529 13.649)" fill="#e37529"/>
              <path id="Trazado_216838" data-name="Trazado 216838" d="M200.963,134.691c.024-.2.048-.393.083-.684.257.206.2.458.3.631-.128.017-.257.035-.386.053" transform="translate(21.385 14.26)" fill="#7aa3f4"/>
            </g>
          </g>
        </g>
      </g>
    </g>
  </g>
</svg>
