<svg xmlns="http://www.w3.org/2000/svg" width="138.887" height="121.908" viewBox="0 0 138.887 121.908">
  <g id="Grupo_177350" data-name="Grupo 177350" transform="translate(-1486.303 4111.939)">
    <path id="Trazado_216881" data-name="Trazado 216881" d="M109.35,103.051s75.679-56.759,24.484-71.783S29.776-21.04,15.865,15.687s23.928,52.307,6.121,72.34,22.258,56.2,87.365,15.024" transform="translate(1473.581 -4111.939)" fill="#fff"/>
    <g id="libro-abierto" transform="translate(1502.803 -4094.031)">
      <path id="Trazado_216864" data-name="Trazado 216864" d="M250.022,282.924a1.522,1.522,0,0,0-1.522,1.522v18.269a1.522,1.522,0,0,0,3.045,0V284.446A1.522,1.522,0,0,0,250.022,282.924Z" transform="translate(-196.862 -225.493)"/>
      <path id="Trazado_216865" data-name="Trazado 216865" d="M103.3,60.476a1.522,1.522,0,0,0,1.522-1.522V12.879a3.6,3.6,0,0,0-5.294-3.1l-1.034.582L93.609,5.4a1.524,1.524,0,0,0-1.425-.416A67.745,67.745,0,0,0,83.967,7.6V1.522A1.522,1.522,0,0,0,81.891.1C67.659,5.663,60.2,14.423,56.454,20.793a41.461,41.461,0,0,0-3.293,6.993,41.461,41.461,0,0,0-3.293-6.993C46.119,14.423,38.662,5.663,24.431.1a1.522,1.522,0,0,0-2.076,1.418V7.6a67.765,67.765,0,0,0-8.217-2.617,1.523,1.523,0,0,0-1.425.416L7.828,10.365,6.794,9.783a3.6,3.6,0,0,0-5.294,3.1V76.862a3.557,3.557,0,0,0,1.811,3.1l39.245,22.075a4.1,4.1,0,0,0,2.83.286,3.55,3.55,0,0,0,2.971,1.611h9.608a3.55,3.55,0,0,0,2.971-1.611,3.508,3.508,0,0,0,2.83-.286l39.245-22.075a3.557,3.557,0,0,0,1.81-3.1V68.7a1.523,1.523,0,0,0-3.045,0v8.166a.508.508,0,0,1-.259.442L62.273,99.38a.508.508,0,0,1-.756-.442V35.8c-.056-.3-.067-1.1.259-1.285L101.02,12.437a.508.508,0,0,1,.757.442V58.953a1.523,1.523,0,0,0,1.523,1.522ZM80.922,3.8V8.832c-1.438.613-2.961,1.308-4.537,2.093A65.313,65.313,0,0,0,58.067,24.164q.464-.892,1.011-1.826C62.4,16.7,68.848,9.044,80.922,3.8Zm-22.45,42.3H47.849V42.37H58.472ZM47.849,49.137H58.472v37.9H47.849Zm0,40.947H58.472V93.8H47.849ZM58.472,39.326H47.849V35.8a.508.508,0,0,1,.507-.507h9.608a.508.508,0,0,1,.507.507ZM14.27,8.16a79.805,79.805,0,0,1,15.88,6.3,1.524,1.524,0,0,0,1.42-2.694c-2.158-1.138-4.24-2.107-6.17-2.93V3.8C37.4,9.013,43.842,16.608,47.165,22.2c.388.654.742,1.3,1.068,1.921a56.714,56.714,0,0,0-8.206-7.151,1.523,1.523,0,0,0-1.78,2.47,48.747,48.747,0,0,1,12.533,12.8c-1.767-.145-3.278.437-4.742-.386L10.578,11.912ZM44.553,99.376q-.252,0-.505,0L4.8,77.3a.508.508,0,0,1-.259-.443V12.879a.513.513,0,0,1,.756-.442L44.546,34.512c.326.184.315.981.259,1.285v63.14a.492.492,0,0,1-.251.438Zm13.919,1a.508.508,0,0,1-.507.507H48.357a.508.508,0,0,1-.507-.507V96.85H58.472Zm1.811-68.52c-1.491.839-2.939.262-4.74.386C61.5,23.112,70.73,17.152,77.674,13.685A79.675,79.675,0,0,1,92.052,8.16l3.692,3.751Z" transform="translate(0 0)"/>
      <path id="Trazado_216866" data-name="Trazado 216866" d="M348.017,130.188,319.6,146.427a1.522,1.522,0,0,0-.767,1.322v9.815a1.536,1.536,0,0,0,2.278,1.322l28.419-16.239a1.522,1.522,0,0,0,.767-1.322V131.51A1.543,1.543,0,0,0,348.017,130.188Zm-.767,10.253-25.375,14.5v-6.308l25.375-14.5Z" transform="translate(-252.915 -103.603)"/>
    </g>
  </g>
</svg>
