<svg id="Grupo_177341" data-name="Grupo 177341" xmlns="http://www.w3.org/2000/svg" xmlns:xlink="http://www.w3.org/1999/xlink" width="1030" height="395" viewBox="0 0 1030 395">
  <defs>
    <clipPath id="clip-path">
      <rect id="Rectángulo_57017" data-name="Rectángulo 57017" width="1030" height="395" fill="none"/>
    </clipPath>
    <clipPath id="clip-path-7">
      <rect id="Rectángulo_56988" data-name="Rectángulo 56988" width="35.274" height="88" transform="translate(994.726)" fill="none"/>
    </clipPath>
    <clipPath id="clip-path-8">
      <rect id="Rectángulo_57014" data-name="Rectángulo 57014" width="35.274" height="88" transform="translate(11.726 294.521)" fill="none"/>
    </clipPath>
  </defs>
  <g id="Grupo_176908" data-name="Grupo 176908" clip-path="url(#clip-path)">
    <path id="Trazado_222322" data-name="Trazado 222322" d="M0,0V395H421.9L649.948,0Z" fill="#ecf3fb"/>
    <path id="Trazado_222323" data-name="Trazado 222323" d="M412.718,302.535h92.364L458.9,382.521Z" fill="#eeac3a"/>
    <path id="Trazado_222324" data-name="Trazado 222324" d="M505.082,302.535l-18.908-18.908-10.893,18.908Z" fill="#c60"/>
    <path id="Trazado_222325" data-name="Trazado 222325" d="M362.358,215.3H555.442L516.03,283.571H401.77Z" fill="#0b67d1"/>
    <path id="Trazado_222326" data-name="Trazado 222326" d="M555.442,215.3,536.59,196.344,525.645,215.3Z" fill="#083e7d"/>
    <path id="Trazado_222327" data-name="Trazado 222327" d="M312,128.075H605.8l-39.412,68.269H351.41Z" fill="#43a99b"/>
    <path id="Trazado_222328" data-name="Trazado 222328" d="M605.8,128.075l-18.848-18.964L576,128.075Z" fill="#065f80"/>
    <path id="Trazado_222329" data-name="Trazado 222329" d="M262,41l39.412,68.263h315.7L656.524,41Z" fill="#8c5be1"/>
    <path id="Trazado_222330" data-name="Trazado 222330" d="M626.364,40.848h29.8L637.313,21.884Z" fill="#503383"/>
    <g id="Grupo_176893" data-name="Grupo 176893">
      <g id="Grupo_176892" data-name="Grupo 176892" clip-path="url(#clip-path)">
        <path id="Trazado_222331" data-name="Trazado 222331" d="M431.816,74.491V79h-2.637V66.2h4.992a5.769,5.769,0,0,1,2.536.527,3.89,3.89,0,0,1,1.683,1.5,4.179,4.179,0,0,1,.589,2.211,3.675,3.675,0,0,1-1.288,2.967,5.364,5.364,0,0,1-3.563,1.085Zm0-2.136h2.355a2.319,2.319,0,0,0,1.6-.492,1.79,1.79,0,0,0,.549-1.406,2.113,2.113,0,0,0-.554-1.521,2.068,2.068,0,0,0-1.529-.6h-2.417Z" fill="#fff"/>
        <path id="Trazado_222332" data-name="Trazado 222332" d="M446.318,78.033a3.185,3.185,0,0,1-2.6,1.143,3,3,0,0,1-2.333-.879,3.758,3.758,0,0,1-.822-2.575V69.49H443.1v6.151q0,1.487,1.354,1.487a1.831,1.831,0,0,0,1.774-.9V69.49h2.549V79h-2.391ZM445.185,65.5h2.768l-2.435,2.725h-2.065Z" fill="#fff"/>
        <path id="Trazado_222333" data-name="Trazado 222333" d="M459.264,74.332a5.752,5.752,0,0,1-.976,3.564,3.229,3.229,0,0,1-2.724,1.279,2.969,2.969,0,0,1-2.47-1.186L452.98,79H450.7V65.5h2.54v4.843a2.893,2.893,0,0,1,2.311-1.028,3.257,3.257,0,0,1,2.729,1.279,5.766,5.766,0,0,1,.989,3.6Zm-2.54-.193a3.8,3.8,0,0,0-.457-2.111,1.542,1.542,0,0,0-1.362-.666,1.674,1.674,0,0,0-1.67,1v3.764a1.7,1.7,0,0,0,1.687,1,1.567,1.567,0,0,0,1.617-1.217,6.283,6.283,0,0,0,.185-1.771" fill="#fff"/>
        <rect id="Rectángulo_56948" data-name="Rectángulo 56948" width="2.549" height="13.5" transform="translate(460.961 65.5)" fill="#fff"/>
        <path id="Trazado_222334" data-name="Trazado 222334" d="M465.584,67.029a1.253,1.253,0,0,1,.382-.941,1.649,1.649,0,0,1,2.079,0,1.341,1.341,0,0,1-.005,1.89,1.629,1.629,0,0,1-2.065,0,1.245,1.245,0,0,1-.391-.949M468.282,79h-2.549V69.49h2.549Z" fill="#fff"/>
        <path id="Trazado_222335" data-name="Trazado 222335" d="M474.329,77.128a1.666,1.666,0,0,0,1.143-.387,1.355,1.355,0,0,0,.457-1.028h2.381a3.252,3.252,0,0,1-.527,1.771,3.478,3.478,0,0,1-1.419,1.248,4.456,4.456,0,0,1-1.991.444,4.127,4.127,0,0,1-3.217-1.3,5.128,5.128,0,0,1-1.178-3.581v-.167a5.073,5.073,0,0,1,1.169-3.507,4.082,4.082,0,0,1,3.208-1.309,3.994,3.994,0,0,1,2.861,1.015,3.588,3.588,0,0,1,1.094,2.7h-2.381a1.747,1.747,0,0,0-.457-1.206,1.7,1.7,0,0,0-2.5.183,3.75,3.75,0,0,0-.453,2.1v.265a3.791,3.791,0,0,0,.449,2.112,1.548,1.548,0,0,0,1.362.643" fill="#fff"/>
        <path id="Trazado_222336" data-name="Trazado 222336" d="M479.365,74.156a5.642,5.642,0,0,1,.545-2.522,3.986,3.986,0,0,1,1.569-1.714,4.577,4.577,0,0,1,2.377-.606A4.33,4.33,0,0,1,487,70.491a4.727,4.727,0,0,1,1.358,3.2l.018.65a4.97,4.97,0,0,1-1.222,3.512,4.736,4.736,0,0,1-6.561,0,5.061,5.061,0,0,1-1.226-3.586Zm2.54.181a3.549,3.549,0,0,0,.51,2.072,1.83,1.83,0,0,0,2.9.009,3.885,3.885,0,0,0,.519-2.267,3.516,3.516,0,0,0-.519-2.059,1.686,1.686,0,0,0-1.459-.731,1.659,1.659,0,0,0-1.441.727,3.949,3.949,0,0,0-.51,2.249" fill="#fff"/>
      </g>
    </g>
    <rect id="Rectángulo_56950" data-name="Rectángulo 56950" width="2.637" height="12.797" transform="translate(431.548 154.203)" fill="#fff"/>
    <g id="Grupo_176895" data-name="Grupo 176895">
      <g id="Grupo_176894" data-name="Grupo 176894" clip-path="url(#clip-path)">
        <path id="Trazado_222337" data-name="Trazado 222337" d="M438.8,157.49l.079,1.1a3.321,3.321,0,0,1,2.734-1.275,2.758,2.758,0,0,1,2.249.888,4.132,4.132,0,0,1,.756,2.654V167h-2.54v-6.1a1.658,1.658,0,0,0-.351-1.177,1.575,1.575,0,0,0-1.169-.365,1.749,1.749,0,0,0-1.609.916V167h-2.54v-9.51Z" fill="#fff"/>
        <path id="Trazado_222338" data-name="Trazado 222338" d="M449.584,155.152v2.338h1.626v1.863h-1.626V164.1a1.131,1.131,0,0,0,.2.756,1.018,1.018,0,0,0,.774.229,4.052,4.052,0,0,0,.747-.062v1.925a5.241,5.241,0,0,1-1.538.228,2.425,2.425,0,0,1-2.725-2.7v-5.124h-1.389V157.49h1.389v-2.338Z" fill="#fff"/>
        <path id="Trazado_222339" data-name="Trazado 222339" d="M457,167.175a4.668,4.668,0,0,1-3.406-1.283,4.56,4.56,0,0,1-1.314-3.419v-.246a5.743,5.743,0,0,1,.554-2.561,4.072,4.072,0,0,1,1.568-1.741,4.411,4.411,0,0,1,2.317-.611,3.943,3.943,0,0,1,3.071,1.231,5,5,0,0,1,1.121,3.489v1.037h-6.055a2.359,2.359,0,0,0,.742,1.494,2.245,2.245,0,0,0,1.569.563,2.742,2.742,0,0,0,2.294-1.064l1.248,1.4a3.794,3.794,0,0,1-1.547,1.26,5.07,5.07,0,0,1-2.162.453m-.29-7.813a1.591,1.591,0,0,0-1.227.512,2.658,2.658,0,0,0-.6,1.466h3.533v-.2a1.888,1.888,0,0,0-.457-1.31,1.634,1.634,0,0,0-1.248-.464" fill="#fff"/>
        <path id="Trazado_222340" data-name="Trazado 222340" d="M467.7,159.872a6.873,6.873,0,0,0-.914-.07,1.861,1.861,0,0,0-1.89.975V167h-2.54v-9.51h2.4l.07,1.134a2.354,2.354,0,0,1,2.118-1.31,2.636,2.636,0,0,1,.791.115Z" fill="#fff"/>
        <path id="Trazado_222341" data-name="Trazado 222341" d="M473.13,167.176a4.677,4.677,0,0,1-3.407-1.283,4.566,4.566,0,0,1-1.313-3.419v-.246a5.735,5.735,0,0,1,.554-2.563,4.06,4.06,0,0,1,1.568-1.739,4.407,4.407,0,0,1,2.316-.612,3.95,3.95,0,0,1,3.072,1.231,5,5,0,0,1,1.121,3.489v1.037h-6.056a2.359,2.359,0,0,0,.742,1.493,2.249,2.249,0,0,0,1.57.564,2.74,2.74,0,0,0,2.293-1.064l1.249,1.4a3.811,3.811,0,0,1-1.547,1.261,5.1,5.1,0,0,1-2.162.453m-.291-7.814a1.589,1.589,0,0,0-1.226.512,2.648,2.648,0,0,0-.6,1.466h3.534v-.2a1.9,1.9,0,0,0-.457-1.311,1.639,1.639,0,0,0-1.249-.464m.229-5.863h2.769l-2.435,2.726h-2.065Z" fill="#fff"/>
        <path id="Trazado_222342" data-name="Trazado 222342" d="M483.633,164.372a.816.816,0,0,0-.462-.733,5.243,5.243,0,0,0-1.48-.48q-3.393-.711-3.393-2.883a2.616,2.616,0,0,1,1.05-2.114,4.245,4.245,0,0,1,2.747-.848,4.558,4.558,0,0,1,2.895.853,2.686,2.686,0,0,1,1.086,2.215h-2.54a1.234,1.234,0,0,0-.351-.9,1.5,1.5,0,0,0-1.1-.355,1.521,1.521,0,0,0-.993.29.916.916,0,0,0-.352.738.781.781,0,0,0,.4.681,4.086,4.086,0,0,0,1.349.449,11.064,11.064,0,0,1,1.6.426,2.628,2.628,0,0,1,2.013,2.558,2.478,2.478,0,0,1-1.116,2.1,4.813,4.813,0,0,1-2.883.8,5.048,5.048,0,0,1-2.123-.426,3.544,3.544,0,0,1-1.454-1.17,2.71,2.71,0,0,1-.528-1.6h2.408a1.331,1.331,0,0,0,.5,1.038,1.99,1.99,0,0,0,1.248.36,1.849,1.849,0,0,0,1.1-.276.865.865,0,0,0,.374-.726" fill="#fff"/>
      </g>
    </g>
    <path id="Trazado_222343" data-name="Trazado 222343" d="M33.966,199.363H29.343L28.464,202h-2.8l4.764-12.8h2.444l4.79,12.8h-2.8Zm-3.911-2.136h3.2l-1.608-4.79Z" fill="#0b67d1"/>
    <rect id="Rectángulo_56952" data-name="Rectángulo 56952" width="2.549" height="13.5" transform="translate(38.818 188.5)" fill="#0b67d1"/>
    <g id="Grupo_176897" data-name="Grupo 176897">
      <g id="Grupo_176896" data-name="Grupo 176896" clip-path="url(#clip-path)">
        <path id="Trazado_222344" data-name="Trazado 222344" d="M47.414,200.128a1.663,1.663,0,0,0,1.142-.387,1.359,1.359,0,0,0,.458-1.028H51.4a3.26,3.26,0,0,1-.527,1.771,3.485,3.485,0,0,1-1.419,1.248,4.459,4.459,0,0,1-1.991.444,4.126,4.126,0,0,1-3.217-1.3,5.128,5.128,0,0,1-1.178-3.581v-.167a5.072,5.072,0,0,1,1.168-3.507,4.085,4.085,0,0,1,3.208-1.309A3.991,3.991,0,0,1,50.3,193.33a3.589,3.589,0,0,1,1.1,2.7H49.014a1.753,1.753,0,0,0-.458-1.206,1.7,1.7,0,0,0-2.5.183,3.742,3.742,0,0,0-.453,2.1v.265a3.793,3.793,0,0,0,.448,2.112,1.55,1.55,0,0,0,1.363.643" fill="#0b67d1"/>
        <path id="Trazado_222345" data-name="Trazado 222345" d="M58.356,202a2.783,2.783,0,0,1-.255-.853,3.073,3.073,0,0,1-2.4,1.028,3.379,3.379,0,0,1-2.316-.808,2.6,2.6,0,0,1-.918-2.039,2.686,2.686,0,0,1,1.121-2.321,5.529,5.529,0,0,1,3.238-.817h1.169v-.545a1.572,1.572,0,0,0-.338-1.055,1.334,1.334,0,0,0-1.068-.395,1.507,1.507,0,0,0-1.006.308,1.042,1.042,0,0,0-.365.843h-2.54a2.552,2.552,0,0,1,.51-1.529,3.365,3.365,0,0,1,1.441-1.1,5.262,5.262,0,0,1,2.092-.4,4.152,4.152,0,0,1,2.79.883,3.091,3.091,0,0,1,1.033,2.483V199.8a4.549,4.549,0,0,0,.378,2.048V202Zm-2.1-1.767a2.175,2.175,0,0,0,1.037-.251,1.635,1.635,0,0,0,.7-.672v-1.635h-.949q-1.906,0-2.03,1.319l-.009.149a1.014,1.014,0,0,0,.334.782,1.3,1.3,0,0,0,.914.308" fill="#0b67d1"/>
        <path id="Trazado_222346" data-name="Trazado 222346" d="M64.834,192.49l.078,1.1a3.322,3.322,0,0,1,2.734-1.275,2.758,2.758,0,0,1,2.25.888,4.132,4.132,0,0,1,.755,2.654V202H68.112v-6.1a1.658,1.658,0,0,0-.352-1.177,1.575,1.575,0,0,0-1.169-.365,1.75,1.75,0,0,0-1.609.916V202H62.443v-9.51Z" fill="#0b67d1"/>
        <path id="Trazado_222347" data-name="Trazado 222347" d="M76.532,200.128a1.666,1.666,0,0,0,1.143-.387,1.355,1.355,0,0,0,.457-1.028h2.381a3.252,3.252,0,0,1-.527,1.771,3.478,3.478,0,0,1-1.419,1.248,4.456,4.456,0,0,1-1.991.444,4.127,4.127,0,0,1-3.217-1.3,5.128,5.128,0,0,1-1.178-3.581v-.167a5.073,5.073,0,0,1,1.169-3.507,4.082,4.082,0,0,1,3.208-1.309,3.994,3.994,0,0,1,2.861,1.015,3.588,3.588,0,0,1,1.094,2.7H78.132a1.747,1.747,0,0,0-.457-1.206,1.7,1.7,0,0,0-2.5.183,3.75,3.75,0,0,0-.453,2.1v.265a3.791,3.791,0,0,0,.449,2.112,1.548,1.548,0,0,0,1.362.643" fill="#0b67d1"/>
        <path id="Trazado_222348" data-name="Trazado 222348" d="M86.34,202.175a4.668,4.668,0,0,1-3.406-1.283,4.56,4.56,0,0,1-1.314-3.419v-.246a5.743,5.743,0,0,1,.554-2.561,4.068,4.068,0,0,1,1.569-1.741,4.407,4.407,0,0,1,2.316-.611,3.946,3.946,0,0,1,3.072,1.231,5,5,0,0,1,1.12,3.489v1.037H84.2a2.359,2.359,0,0,0,.742,1.494,2.245,2.245,0,0,0,1.569.563,2.742,2.742,0,0,0,2.294-1.064l1.248,1.4a3.794,3.794,0,0,1-1.547,1.26,5.07,5.07,0,0,1-2.162.453m-.29-7.813a1.587,1.587,0,0,0-1.226.512,2.651,2.651,0,0,0-.6,1.466h3.533v-.2a1.888,1.888,0,0,0-.457-1.31,1.634,1.634,0,0,0-1.248-.464" fill="#0b67d1"/>
        <path id="Trazado_222349" data-name="Trazado 222349" d="M95.78,197.174a5.726,5.726,0,0,1,1-3.542,3.235,3.235,0,0,1,2.729-1.318,2.912,2.912,0,0,1,2.293,1.037V188.5h2.549V202h-2.294l-.123-1.011a2.988,2.988,0,0,1-2.443,1.186,3.228,3.228,0,0,1-2.694-1.322,5.915,5.915,0,0,1-1.015-3.679m2.54.181a3.776,3.776,0,0,0,.466,2.058,1.516,1.516,0,0,0,1.353.714,1.7,1.7,0,0,0,1.661-1V195.36a1.674,1.674,0,0,0-1.643-1q-1.837,0-1.837,2.993" fill="#0b67d1"/>
        <path id="Trazado_222350" data-name="Trazado 222350" d="M110.695,202.175a4.668,4.668,0,0,1-3.406-1.283,4.56,4.56,0,0,1-1.314-3.419v-.246a5.743,5.743,0,0,1,.554-2.561,4.068,4.068,0,0,1,1.569-1.741,4.407,4.407,0,0,1,2.316-.611,3.946,3.946,0,0,1,3.072,1.231,5,5,0,0,1,1.12,3.489v1.037h-6.055a2.359,2.359,0,0,0,.742,1.494,2.245,2.245,0,0,0,1.569.563,2.742,2.742,0,0,0,2.294-1.064l1.248,1.4a3.794,3.794,0,0,1-1.547,1.26,5.07,5.07,0,0,1-2.162.453m-.29-7.813a1.587,1.587,0,0,0-1.226.512,2.651,2.651,0,0,0-.6,1.466h3.533v-.2a1.888,1.888,0,0,0-.457-1.31,1.634,1.634,0,0,0-1.248-.464" fill="#0b67d1"/>
        <path id="Trazado_222351" data-name="Trazado 222351" d="M129.09,197.332a5.7,5.7,0,0,1-1,3.521,3.2,3.2,0,0,1-2.693,1.322,2.961,2.961,0,0,1-2.329-1v4.483h-2.541V192.49h2.356l.088.931a2.985,2.985,0,0,1,2.408-1.107,3.217,3.217,0,0,1,2.733,1.3,5.853,5.853,0,0,1,.976,3.586Zm-2.54-.193a3.772,3.772,0,0,0-.47-2.055,1.532,1.532,0,0,0-1.367-.722,1.66,1.66,0,0,0-1.643.917v3.9a1.689,1.689,0,0,0,1.661.943q1.819,0,1.819-2.988" fill="#0b67d1"/>
        <path id="Trazado_222352" data-name="Trazado 222352" d="M135.04,202.175a4.668,4.668,0,0,1-3.406-1.283,4.56,4.56,0,0,1-1.314-3.419v-.246a5.743,5.743,0,0,1,.554-2.561,4.068,4.068,0,0,1,1.569-1.741,4.407,4.407,0,0,1,2.316-.611,3.946,3.946,0,0,1,3.072,1.231,5,5,0,0,1,1.12,3.489v1.037H132.9a2.359,2.359,0,0,0,.742,1.494,2.245,2.245,0,0,0,1.569.563,2.742,2.742,0,0,0,2.294-1.064l1.248,1.4a3.794,3.794,0,0,1-1.547,1.26,5.07,5.07,0,0,1-2.162.453m-.29-7.813a1.587,1.587,0,0,0-1.226.512,2.651,2.651,0,0,0-.6,1.466h3.533v-.2a1.888,1.888,0,0,0-.457-1.31,1.634,1.634,0,0,0-1.248-.464" fill="#0b67d1"/>
        <path id="Trazado_222353" data-name="Trazado 222353" d="M145.737,194.872a6.873,6.873,0,0,0-.914-.07,1.861,1.861,0,0,0-1.89.975V202h-2.54v-9.51h2.4l.07,1.134a2.354,2.354,0,0,1,2.118-1.31,2.636,2.636,0,0,1,.791.115Z" fill="#0b67d1"/>
        <path id="Trazado_222354" data-name="Trazado 222354" d="M152.109,199.372a.817.817,0,0,0-.461-.733,5.252,5.252,0,0,0-1.481-.48q-3.393-.711-3.393-2.883a2.615,2.615,0,0,1,1.05-2.114,4.247,4.247,0,0,1,2.747-.848,4.563,4.563,0,0,1,2.9.853,2.685,2.685,0,0,1,1.085,2.215h-2.54a1.234,1.234,0,0,0-.351-.9,1.5,1.5,0,0,0-1.1-.355,1.521,1.521,0,0,0-.993.29.916.916,0,0,0-.352.738.783.783,0,0,0,.4.681,4.094,4.094,0,0,0,1.349.449,11.064,11.064,0,0,1,1.6.426,2.628,2.628,0,0,1,2.013,2.558,2.478,2.478,0,0,1-1.116,2.1,4.813,4.813,0,0,1-2.883.8,5.048,5.048,0,0,1-2.123-.426A3.55,3.55,0,0,1,147,200.58a2.71,2.71,0,0,1-.528-1.6h2.408a1.331,1.331,0,0,0,.5,1.038,1.99,1.99,0,0,0,1.248.36,1.849,1.849,0,0,0,1.1-.276.865.865,0,0,0,.374-.726" fill="#0b67d1"/>
        <path id="Trazado_222355" data-name="Trazado 222355" d="M155.818,197.156a5.642,5.642,0,0,1,.545-2.522,3.986,3.986,0,0,1,1.569-1.714,4.577,4.577,0,0,1,2.377-.606,4.33,4.33,0,0,1,3.142,1.177,4.727,4.727,0,0,1,1.358,3.2l.018.65a4.97,4.97,0,0,1-1.222,3.512,4.736,4.736,0,0,1-6.561,0,5.061,5.061,0,0,1-1.226-3.586Zm2.54.181a3.549,3.549,0,0,0,.51,2.072,1.83,1.83,0,0,0,2.9.009,3.885,3.885,0,0,0,.519-2.267,3.516,3.516,0,0,0-.519-2.059,1.686,1.686,0,0,0-1.459-.731,1.659,1.659,0,0,0-1.441.727,3.949,3.949,0,0,0-.51,2.249" fill="#0b67d1"/>
        <path id="Trazado_222356" data-name="Trazado 222356" d="M168.729,192.49l.079,1.1a3.321,3.321,0,0,1,2.734-1.275,2.758,2.758,0,0,1,2.249.888,4.132,4.132,0,0,1,.756,2.654V202h-2.54v-6.1a1.658,1.658,0,0,0-.351-1.177,1.575,1.575,0,0,0-1.169-.365,1.749,1.749,0,0,0-1.609.916V202h-2.54v-9.51Z" fill="#0b67d1"/>
        <path id="Trazado_222357" data-name="Trazado 222357" d="M181.983,202a2.783,2.783,0,0,1-.255-.853,3.073,3.073,0,0,1-2.4,1.028,3.379,3.379,0,0,1-2.316-.808,2.6,2.6,0,0,1-.918-2.039,2.686,2.686,0,0,1,1.121-2.321,5.529,5.529,0,0,1,3.238-.817h1.169v-.545a1.572,1.572,0,0,0-.338-1.055,1.334,1.334,0,0,0-1.068-.395,1.507,1.507,0,0,0-1.006.308,1.042,1.042,0,0,0-.365.843H176.3a2.552,2.552,0,0,1,.51-1.529,3.365,3.365,0,0,1,1.441-1.1,5.262,5.262,0,0,1,2.092-.4,4.152,4.152,0,0,1,2.79.883,3.091,3.091,0,0,1,1.033,2.483V199.8a4.549,4.549,0,0,0,.378,2.048V202Zm-2.1-1.767a2.175,2.175,0,0,0,1.037-.251,1.635,1.635,0,0,0,.7-.672v-1.635h-.949q-1.907,0-2.03,1.319l-.009.149a1.014,1.014,0,0,0,.334.782,1.3,1.3,0,0,0,.914.308" fill="#0b67d1"/>
        <path id="Trazado_222358" data-name="Trazado 222358" d="M191.273,199.372a.817.817,0,0,0-.461-.733,5.252,5.252,0,0,0-1.481-.48q-3.393-.711-3.393-2.883a2.615,2.615,0,0,1,1.05-2.114,4.247,4.247,0,0,1,2.747-.848,4.563,4.563,0,0,1,2.9.853,2.685,2.685,0,0,1,1.085,2.215h-2.54a1.234,1.234,0,0,0-.351-.9,1.5,1.5,0,0,0-1.1-.355,1.521,1.521,0,0,0-.993.29.916.916,0,0,0-.352.738.783.783,0,0,0,.4.681,4.094,4.094,0,0,0,1.349.449,11.064,11.064,0,0,1,1.6.426,2.628,2.628,0,0,1,2.013,2.558,2.478,2.478,0,0,1-1.116,2.1,4.813,4.813,0,0,1-2.883.8,5.048,5.048,0,0,1-2.123-.426,3.55,3.55,0,0,1-1.454-1.17,2.71,2.71,0,0,1-.528-1.6h2.408a1.331,1.331,0,0,0,.5,1.038,1.99,1.99,0,0,0,1.248.36,1.849,1.849,0,0,0,1.1-.276.865.865,0,0,0,.374-.726" fill="#0b67d1"/>
        <path id="Trazado_222359" data-name="Trazado 222359" d="M853.9,75.165a4.444,4.444,0,0,1-1.415,2.959,4.641,4.641,0,0,1-3.167,1.042,4.262,4.262,0,0,1-3.433-1.535,6.185,6.185,0,0,1-1.29-4.11V72.359a6.888,6.888,0,0,1,.6-2.963,4.5,4.5,0,0,1,1.705-1.963,4.757,4.757,0,0,1,2.557-.685,4.366,4.366,0,0,1,3.088,1.075A4.5,4.5,0,0,1,853.9,70.8h-1.6a3.476,3.476,0,0,0-.9-2.1,2.728,2.728,0,0,0-1.938-.649,2.852,2.852,0,0,0-2.4,1.131A5.185,5.185,0,0,0,846.2,72.4v1.171a5.332,5.332,0,0,0,.822,3.133,2.653,2.653,0,0,0,2.3,1.163,3.071,3.071,0,0,0,2.038-.6,3.343,3.343,0,0,0,.942-2.1Z" fill="#12263f"/>
        <path id="Trazado_222360" data-name="Trazado 222360" d="M861.382,79a3.233,3.233,0,0,1-.215-.946,3.428,3.428,0,0,1-2.557,1.112,3.17,3.17,0,0,1-2.179-.751,2.432,2.432,0,0,1-.851-1.9,2.539,2.539,0,0,1,1.067-2.179,5.023,5.023,0,0,1,3-.776h1.5V72.85a1.728,1.728,0,0,0-.482-1.284,1.935,1.935,0,0,0-1.419-.476,2.235,2.235,0,0,0-1.378.414,1.224,1.224,0,0,0-.556,1.005h-1.544a2.119,2.119,0,0,1,.477-1.3,3.251,3.251,0,0,1,1.295-.992,4.364,4.364,0,0,1,1.8-.366,3.546,3.546,0,0,1,2.432.777,2.8,2.8,0,0,1,.913,2.137V76.9a5.037,5.037,0,0,0,.316,1.967V79Zm-2.548-1.17a2.7,2.7,0,0,0,1.37-.374,2.264,2.264,0,0,0,.938-.972V74.642h-1.2q-2.821,0-2.822,1.652a1.4,1.4,0,0,0,.481,1.129,1.853,1.853,0,0,0,1.237.407" fill="#12263f"/>
        <path id="Trazado_222361" data-name="Trazado 222361" d="M866.529,70.018l.042,1a3.317,3.317,0,0,1,2.664-1.162A2.568,2.568,0,0,1,871.8,71.3a3.411,3.411,0,0,1,1.166-1.046,3.454,3.454,0,0,1,1.7-.4q2.955,0,3.005,3.13V79h-1.536V73.073a2.062,2.062,0,0,0-.44-1.441,1.937,1.937,0,0,0-1.477-.476,2.044,2.044,0,0,0-1.42.509,2.076,2.076,0,0,0-.656,1.374V79H870.6V73.115a1.713,1.713,0,0,0-1.917-1.959,2.054,2.054,0,0,0-2.067,1.286V79h-1.536V70.018Z" fill="#12263f"/>
        <path id="Trazado_222362" data-name="Trazado 222362" d="M887.572,74.609a5.378,5.378,0,0,1-.938,3.3,3.009,3.009,0,0,1-2.54,1.253,3.294,3.294,0,0,1-2.574-1.037v4.325h-1.535V70.018h1.4l.074,1a3.167,3.167,0,0,1,2.607-1.162,3.062,3.062,0,0,1,2.56,1.22,5.432,5.432,0,0,1,.943,3.4Zm-1.536-.175a3.973,3.973,0,0,0-.647-2.4,2.087,2.087,0,0,0-1.777-.879,2.258,2.258,0,0,0-2.092,1.236v4.291a2.263,2.263,0,0,0,2.109,1.229,2.073,2.073,0,0,0,1.755-.875,4.33,4.33,0,0,0,.652-2.6" fill="#12263f"/>
        <path id="Trazado_222363" data-name="Trazado 222363" d="M895.067,79a3.233,3.233,0,0,1-.215-.946,3.428,3.428,0,0,1-2.557,1.112,3.17,3.17,0,0,1-2.179-.751,2.432,2.432,0,0,1-.851-1.9,2.539,2.539,0,0,1,1.067-2.179,5.023,5.023,0,0,1,3-.776h1.5V72.85a1.728,1.728,0,0,0-.482-1.284,1.935,1.935,0,0,0-1.419-.476,2.235,2.235,0,0,0-1.378.414,1.224,1.224,0,0,0-.556,1.005h-1.544a2.119,2.119,0,0,1,.477-1.3,3.251,3.251,0,0,1,1.295-.992,4.364,4.364,0,0,1,1.8-.366,3.546,3.546,0,0,1,2.432.777,2.8,2.8,0,0,1,.913,2.137V76.9a5.037,5.037,0,0,0,.316,1.967V79Zm-2.548-1.17a2.7,2.7,0,0,0,1.37-.374,2.264,2.264,0,0,0,.938-.972V74.642h-1.2q-2.821,0-2.822,1.652a1.4,1.4,0,0,0,.481,1.129,1.853,1.853,0,0,0,1.237.407" fill="#12263f"/>
        <path id="Trazado_222364" data-name="Trazado 222364" d="M900.222,70.018l.05,1.129a3.272,3.272,0,0,1,2.689-1.3q2.847,0,2.872,3.212V79H904.3V73.056a2.069,2.069,0,0,0-.445-1.436,1.777,1.777,0,0,0-1.357-.464,2.211,2.211,0,0,0-1.311.4,2.7,2.7,0,0,0-.88,1.045V79h-1.536V70.018Zm5.08-3.5a2.066,2.066,0,0,1-.51,1.453,1.662,1.662,0,0,1-1.275.556,1.877,1.877,0,0,1-.589-.083,3.256,3.256,0,0,1-.652-.34,2.855,2.855,0,0,0-.581-.312,1.423,1.423,0,0,0-.411-.053.765.765,0,0,0-.581.26.953.953,0,0,0-.24.669l-1.03-.058a2.169,2.169,0,0,1,.5-1.469,1.611,1.611,0,0,1,1.275-.582,1.53,1.53,0,0,1,.523.084,3.857,3.857,0,0,1,.631.323,3.8,3.8,0,0,0,.609.316,1.43,1.43,0,0,0,.47.074.744.744,0,0,0,.593-.281.994.994,0,0,0,.237-.657Z" fill="#12263f"/>
        <path id="Trazado_222365" data-name="Trazado 222365" d="M913.694,79a3.235,3.235,0,0,1-.215-.946,3.428,3.428,0,0,1-2.557,1.112,3.17,3.17,0,0,1-2.179-.751,2.432,2.432,0,0,1-.851-1.9,2.539,2.539,0,0,1,1.067-2.179,5.023,5.023,0,0,1,3-.776h1.495V72.85a1.728,1.728,0,0,0-.482-1.284,1.935,1.935,0,0,0-1.419-.476,2.235,2.235,0,0,0-1.378.414,1.224,1.224,0,0,0-.556,1.005h-1.544a2.119,2.119,0,0,1,.477-1.3,3.251,3.251,0,0,1,1.295-.992,4.364,4.364,0,0,1,1.8-.366,3.546,3.546,0,0,1,2.432.777,2.8,2.8,0,0,1,.913,2.137V76.9a5.037,5.037,0,0,0,.316,1.967V79Zm-2.548-1.17a2.7,2.7,0,0,0,1.37-.374,2.263,2.263,0,0,0,.938-.972V74.642h-1.2q-2.821,0-2.822,1.652a1.4,1.4,0,0,0,.481,1.129,1.853,1.853,0,0,0,1.237.407" fill="#12263f"/>
        <path id="Trazado_222366" data-name="Trazado 222366" d="M922.626,76.617a1.131,1.131,0,0,0-.469-.967,4.529,4.529,0,0,0-1.635-.594,7.736,7.736,0,0,1-1.851-.6,2.631,2.631,0,0,1-1.013-.83,1.98,1.98,0,0,1-.328-1.145,2.332,2.332,0,0,1,.934-1.868,3.648,3.648,0,0,1,2.386-.764,3.756,3.756,0,0,1,2.478.788,2.507,2.507,0,0,1,.951,2.018h-1.544A1.388,1.388,0,0,0,922,71.57a2.005,2.005,0,0,0-1.349-.456,2.1,2.1,0,0,0-1.311.365,1.148,1.148,0,0,0-.473.954.931.931,0,0,0,.44.839,5.392,5.392,0,0,0,1.59.54,8.257,8.257,0,0,1,1.863.614,2.718,2.718,0,0,1,1.058.859,2.111,2.111,0,0,1,.345,1.225,2.3,2.3,0,0,1-.963,1.929,4.035,4.035,0,0,1-2.5.727,4.515,4.515,0,0,1-1.909-.382,3.115,3.115,0,0,1-1.3-1.066,2.571,2.571,0,0,1-.469-1.482h1.536a1.59,1.59,0,0,0,.618,1.224,2.4,2.4,0,0,0,1.523.452,2.47,2.47,0,0,0,1.4-.353,1.083,1.083,0,0,0,.527-.942" fill="#12263f"/>
        <path id="Trazado_222367" data-name="Trazado 222367" d="M751.53,164.414a3.686,3.686,0,0,1-1.714,1.316,6.934,6.934,0,0,1-2.561.436,4.968,4.968,0,0,1-2.623-.693,4.622,4.622,0,0,1-1.772-1.971,6.813,6.813,0,0,1-.643-2.964v-1.054a6.355,6.355,0,0,1,1.274-4.234,4.44,4.44,0,0,1,3.581-1.5,4.585,4.585,0,0,1,3.047.967,4.209,4.209,0,0,1,1.411,2.744h-1.594a2.635,2.635,0,0,0-2.855-2.408,2.822,2.822,0,0,0-2.428,1.126,5.491,5.491,0,0,0-.834,3.26v.99a5.155,5.155,0,0,0,.929,3.235,3.012,3.012,0,0,0,2.515,1.2,5.535,5.535,0,0,0,1.569-.2,2.435,2.435,0,0,0,1.113-.671v-2.708h-2.8v-1.3h4.383Z" fill="#12263f"/>
        <path id="Trazado_222368" data-name="Trazado 222368" d="M759.49,166a3.233,3.233,0,0,1-.215-.946,3.428,3.428,0,0,1-2.557,1.112,3.17,3.17,0,0,1-2.179-.751,2.432,2.432,0,0,1-.851-1.9,2.539,2.539,0,0,1,1.067-2.179,5.023,5.023,0,0,1,3-.776h1.495v-.7a1.728,1.728,0,0,0-.482-1.284,1.935,1.935,0,0,0-1.419-.476,2.235,2.235,0,0,0-1.378.414,1.223,1.223,0,0,0-.556,1.005h-1.544a2.119,2.119,0,0,1,.477-1.3,3.251,3.251,0,0,1,1.295-.992,4.364,4.364,0,0,1,1.8-.366,3.546,3.546,0,0,1,2.432.777,2.8,2.8,0,0,1,.913,2.137V163.9a5.036,5.036,0,0,0,.316,1.967V166Zm-2.548-1.17a2.7,2.7,0,0,0,1.37-.374,2.263,2.263,0,0,0,.938-.972v-1.842h-1.2q-2.822,0-2.822,1.652a1.4,1.4,0,0,0,.481,1.129,1.853,1.853,0,0,0,1.237.407" fill="#12263f"/>
        <path id="Trazado_222369" data-name="Trazado 222369" d="M764.645,157.018l.05,1.129a3.272,3.272,0,0,1,2.689-1.295q2.847,0,2.872,3.212V166h-1.535v-5.943a2.064,2.064,0,0,0-.445-1.435,1.773,1.773,0,0,0-1.357-.465,2.218,2.218,0,0,0-1.311.4,2.7,2.7,0,0,0-.88,1.045V166h-1.536v-8.981Z" fill="#12263f"/>
        <path id="Trazado_222370" data-name="Trazado 222370" d="M776.175,164.912a2.213,2.213,0,0,0,1.436-.5,1.751,1.751,0,0,0,.681-1.244h1.452a2.78,2.78,0,0,1-.531,1.469,3.508,3.508,0,0,1-1.308,1.112,3.774,3.774,0,0,1-1.73.415,3.7,3.7,0,0,1-2.918-1.225,4.875,4.875,0,0,1-1.083-3.349v-.257a5.425,5.425,0,0,1,.481-2.333,3.67,3.67,0,0,1,1.382-1.585,3.933,3.933,0,0,1,2.13-.565,3.6,3.6,0,0,1,2.511.906,3.23,3.23,0,0,1,1.066,2.348h-1.452a2.115,2.115,0,0,0-.66-1.431,2.052,2.052,0,0,0-1.465-.561,2.149,2.149,0,0,0-1.814.843,3.951,3.951,0,0,0-.643,2.435v.291a3.876,3.876,0,0,0,.639,2.391,2.158,2.158,0,0,0,1.826.838" fill="#12263f"/>
        <path id="Trazado_222371" data-name="Trazado 222371" d="M783.007,158.1a3.266,3.266,0,0,1,2.656-1.253q2.847,0,2.872,3.212V166H787v-5.944a2.064,2.064,0,0,0-.445-1.435,1.773,1.773,0,0,0-1.357-.465,2.218,2.218,0,0,0-1.311.4,2.7,2.7,0,0,0-.88,1.045V166h-1.536V153.25h1.536Z" fill="#12263f"/>
        <path id="Trazado_222372" data-name="Trazado 222372" d="M790.428,161.425a5.3,5.3,0,0,1,.519-2.373,3.864,3.864,0,0,1,1.444-1.627,3.93,3.93,0,0,1,2.113-.573,3.786,3.786,0,0,1,2.968,1.271A4.887,4.887,0,0,1,798.6,161.5v.108a5.349,5.349,0,0,1-.5,2.353,3.818,3.818,0,0,1-1.436,1.623,3.979,3.979,0,0,1-2.146.581,3.78,3.78,0,0,1-2.959-1.27,4.862,4.862,0,0,1-1.133-3.362Zm1.544.184a3.84,3.84,0,0,0,.693,2.4,2.349,2.349,0,0,0,3.715-.012,4.206,4.206,0,0,0,.689-2.57,3.832,3.832,0,0,0-.7-2.394,2.229,2.229,0,0,0-1.863-.917,2.206,2.206,0,0,0-1.835.9,4.168,4.168,0,0,0-.7,2.59" fill="#12263f"/>
        <path id="Trazado_222373" data-name="Trazado 222373" d="M805.759,163.617a1.131,1.131,0,0,0-.469-.967,4.53,4.53,0,0,0-1.635-.594,7.736,7.736,0,0,1-1.851-.6,2.631,2.631,0,0,1-1.013-.83,1.98,1.98,0,0,1-.328-1.145,2.332,2.332,0,0,1,.934-1.868,3.648,3.648,0,0,1,2.386-.764,3.756,3.756,0,0,1,2.478.788,2.507,2.507,0,0,1,.951,2.018h-1.544a1.388,1.388,0,0,0-.536-1.088,2.005,2.005,0,0,0-1.349-.456,2.1,2.1,0,0,0-1.311.365,1.147,1.147,0,0,0-.473.954.931.931,0,0,0,.44.839,5.392,5.392,0,0,0,1.59.54,8.259,8.259,0,0,1,1.863.614,2.718,2.718,0,0,1,1.058.859,2.111,2.111,0,0,1,.345,1.225,2.3,2.3,0,0,1-.963,1.929,4.035,4.035,0,0,1-2.5.727,4.515,4.515,0,0,1-1.909-.382,3.115,3.115,0,0,1-1.3-1.066,2.571,2.571,0,0,1-.469-1.482h1.536a1.59,1.59,0,0,0,.618,1.224,2.4,2.4,0,0,0,1.523.452,2.47,2.47,0,0,0,1.4-.353,1.083,1.083,0,0,0,.527-.942" fill="#12263f"/>
        <path id="Trazado_222374" data-name="Trazado 222374" d="M821.091,161.609a5.378,5.378,0,0,1-.938,3.3,3.01,3.01,0,0,1-2.54,1.253,3.294,3.294,0,0,1-2.574-1.037v4.325H813.5V157.018h1.4l.074,1a3.166,3.166,0,0,1,2.607-1.162,3.062,3.062,0,0,1,2.56,1.22,5.432,5.432,0,0,1,.943,3.395Zm-1.536-.175a3.973,3.973,0,0,0-.647-2.4,2.088,2.088,0,0,0-1.777-.879,2.258,2.258,0,0,0-2.092,1.236v4.291a2.263,2.263,0,0,0,2.109,1.229,2.073,2.073,0,0,0,1.755-.875,4.33,4.33,0,0,0,.652-2.6" fill="#12263f"/>
        <path id="Trazado_222375" data-name="Trazado 222375" d="M827.383,158.4a4.562,4.562,0,0,0-.755-.059,2.025,2.025,0,0,0-2.051,1.288V166h-1.535v-8.982h1.494l.025,1.038a2.389,2.389,0,0,1,2.141-1.2,1.578,1.578,0,0,1,.681.116Z" fill="#12263f"/>
        <path id="Trazado_222376" data-name="Trazado 222376" d="M828.221,161.425a5.3,5.3,0,0,1,.519-2.373,3.865,3.865,0,0,1,1.444-1.627,3.93,3.93,0,0,1,2.113-.573,3.786,3.786,0,0,1,2.968,1.271A4.888,4.888,0,0,1,836.4,161.5v.108a5.35,5.35,0,0,1-.5,2.353,3.819,3.819,0,0,1-1.436,1.623,3.979,3.979,0,0,1-2.146.581,3.78,3.78,0,0,1-2.959-1.27,4.862,4.862,0,0,1-1.133-3.362Zm1.544.184a3.84,3.84,0,0,0,.693,2.4,2.349,2.349,0,0,0,3.715-.012,4.206,4.206,0,0,0,.689-2.57,3.832,3.832,0,0,0-.7-2.394,2.229,2.229,0,0,0-1.863-.917,2.206,2.206,0,0,0-1.835.9,4.169,4.169,0,0,0-.7,2.59" fill="#12263f"/>
        <path id="Trazado_222377" data-name="Trazado 222377" d="M839.768,157.018l.042,1a3.314,3.314,0,0,1,2.664-1.162,2.57,2.57,0,0,1,2.565,1.444,3.4,3.4,0,0,1,1.165-1.046,3.457,3.457,0,0,1,1.7-.4q2.955,0,3.005,3.13V166h-1.536v-5.926a2.063,2.063,0,0,0-.44-1.441,1.936,1.936,0,0,0-1.477-.476,2.044,2.044,0,0,0-1.42.509,2.085,2.085,0,0,0-.656,1.374V166h-1.544v-5.884a1.713,1.713,0,0,0-1.917-1.959,2.054,2.054,0,0,0-2.067,1.286V166h-1.535v-8.981Z" fill="#12263f"/>
        <path id="Trazado_222378" data-name="Trazado 222378" d="M852.816,161.425a5.3,5.3,0,0,1,.519-2.373,3.864,3.864,0,0,1,1.444-1.627,3.93,3.93,0,0,1,2.113-.573,3.786,3.786,0,0,1,2.968,1.271,4.887,4.887,0,0,1,1.132,3.378v.108a5.349,5.349,0,0,1-.5,2.353,3.818,3.818,0,0,1-1.436,1.623,3.979,3.979,0,0,1-2.146.581,3.78,3.78,0,0,1-2.959-1.27,4.862,4.862,0,0,1-1.133-3.362Zm1.544.184a3.84,3.84,0,0,0,.693,2.4,2.349,2.349,0,0,0,3.715-.012,4.206,4.206,0,0,0,.689-2.57,3.832,3.832,0,0,0-.7-2.394,2.229,2.229,0,0,0-1.863-.917,2.206,2.206,0,0,0-1.835.9,4.168,4.168,0,0,0-.7,2.59" fill="#12263f"/>
        <path id="Trazado_222379" data-name="Trazado 222379" d="M866.521,164.912a2.213,2.213,0,0,0,1.436-.5,1.751,1.751,0,0,0,.681-1.244h1.452a2.78,2.78,0,0,1-.531,1.469,3.508,3.508,0,0,1-1.308,1.112,3.774,3.774,0,0,1-1.73.415,3.7,3.7,0,0,1-2.918-1.225,4.875,4.875,0,0,1-1.083-3.349v-.257A5.426,5.426,0,0,1,863,159a3.671,3.671,0,0,1,1.382-1.585,3.933,3.933,0,0,1,2.13-.565,3.6,3.6,0,0,1,2.511.906,3.23,3.23,0,0,1,1.066,2.348h-1.452a2.115,2.115,0,0,0-.66-1.431,2.052,2.052,0,0,0-1.465-.561,2.149,2.149,0,0,0-1.814.843,3.952,3.952,0,0,0-.643,2.435v.291a3.876,3.876,0,0,0,.639,2.391,2.158,2.158,0,0,0,1.826.838" fill="#12263f"/>
        <path id="Trazado_222380" data-name="Trazado 222380" d="M871.825,154.636a.915.915,0,0,1,.228-.631.861.861,0,0,1,.677-.257.873.873,0,0,1,.681.257.909.909,0,0,1,.232.631.909.909,0,1,1-1.818,0M873.485,166h-1.536v-8.981h1.536Z" fill="#12263f"/>
        <path id="Trazado_222381" data-name="Trazado 222381" d="M875.536,161.425a5.292,5.292,0,0,1,.519-2.373,3.862,3.862,0,0,1,1.443-1.627,3.934,3.934,0,0,1,2.114-.573,3.789,3.789,0,0,1,2.968,1.271,4.892,4.892,0,0,1,1.131,3.378v.108a5.349,5.349,0,0,1-.5,2.353,3.812,3.812,0,0,1-1.436,1.623,3.978,3.978,0,0,1-2.145.581,3.78,3.78,0,0,1-2.959-1.27,4.857,4.857,0,0,1-1.133-3.362Zm1.544.184a3.833,3.833,0,0,0,.693,2.4,2.348,2.348,0,0,0,3.714-.012,4.206,4.206,0,0,0,.69-2.57,3.826,3.826,0,0,0-.7-2.394,2.332,2.332,0,0,0-3.7-.012,4.175,4.175,0,0,0-.7,2.59" fill="#12263f"/>
        <path id="Trazado_222382" data-name="Trazado 222382" d="M887.09,157.018l.05,1.129a3.272,3.272,0,0,1,2.689-1.295q2.847,0,2.872,3.212V166h-1.535v-5.943a2.064,2.064,0,0,0-.445-1.435,1.773,1.773,0,0,0-1.357-.465,2.218,2.218,0,0,0-1.311.4,2.7,2.7,0,0,0-.88,1.045V166h-1.536v-8.981Z" fill="#12263f"/>
        <path id="Trazado_222383" data-name="Trazado 222383" d="M900.562,166a3.233,3.233,0,0,1-.215-.946,3.428,3.428,0,0,1-2.557,1.112,3.17,3.17,0,0,1-2.179-.751,2.432,2.432,0,0,1-.851-1.9,2.539,2.539,0,0,1,1.067-2.179,5.023,5.023,0,0,1,3-.776h1.495v-.7a1.728,1.728,0,0,0-.482-1.284,1.935,1.935,0,0,0-1.419-.476,2.235,2.235,0,0,0-1.378.414,1.223,1.223,0,0,0-.556,1.005h-1.544a2.119,2.119,0,0,1,.477-1.3,3.251,3.251,0,0,1,1.3-.992,4.364,4.364,0,0,1,1.8-.366,3.546,3.546,0,0,1,2.432.777,2.8,2.8,0,0,1,.913,2.137V163.9a5.037,5.037,0,0,0,.316,1.967V166Zm-2.548-1.17a2.7,2.7,0,0,0,1.37-.374,2.264,2.264,0,0,0,.938-.972v-1.842h-1.2q-2.821,0-2.822,1.652a1.4,1.4,0,0,0,.481,1.129,1.853,1.853,0,0,0,1.237.407" fill="#12263f"/>
        <rect id="Rectángulo_56953" data-name="Rectángulo 56953" width="1.536" height="12.75" transform="translate(904.397 153.25)" fill="#12263f"/>
        <path id="Trazado_222384" data-name="Trazado 222384" d="M912.117,166.166a3.928,3.928,0,0,1-2.972-1.2A4.457,4.457,0,0,1,908,161.758v-.282a5.391,5.391,0,0,1,.51-2.386,3.981,3.981,0,0,1,1.428-1.644,3.6,3.6,0,0,1,1.988-.594,3.367,3.367,0,0,1,2.723,1.154,5,5,0,0,1,.971,3.3v.639h-6.085a3.184,3.184,0,0,0,.777,2.145,2.438,2.438,0,0,0,1.888.818,2.681,2.681,0,0,0,1.378-.332,3.472,3.472,0,0,0,.988-.879l.938.73a3.772,3.772,0,0,1-3.387,1.735m-.191-8.052a2.05,2.05,0,0,0-1.561.677,3.293,3.293,0,0,0-.78,1.9h4.5v-.116a2.916,2.916,0,0,0-.631-1.813,1.927,1.927,0,0,0-1.527-.644" fill="#12263f"/>
        <path id="Trazado_222385" data-name="Trazado 222385" d="M922.626,163.617a1.131,1.131,0,0,0-.469-.967,4.53,4.53,0,0,0-1.635-.594,7.736,7.736,0,0,1-1.851-.6,2.631,2.631,0,0,1-1.013-.83,1.98,1.98,0,0,1-.328-1.145,2.332,2.332,0,0,1,.934-1.868,3.648,3.648,0,0,1,2.386-.764,3.756,3.756,0,0,1,2.478.788,2.507,2.507,0,0,1,.951,2.018h-1.544A1.388,1.388,0,0,0,922,158.57a2.005,2.005,0,0,0-1.349-.456,2.1,2.1,0,0,0-1.311.365,1.147,1.147,0,0,0-.473.954.931.931,0,0,0,.44.839,5.392,5.392,0,0,0,1.59.54,8.257,8.257,0,0,1,1.863.614,2.718,2.718,0,0,1,1.058.859,2.111,2.111,0,0,1,.345,1.225,2.3,2.3,0,0,1-.963,1.929,4.035,4.035,0,0,1-2.5.727,4.515,4.515,0,0,1-1.909-.382,3.115,3.115,0,0,1-1.3-1.066,2.571,2.571,0,0,1-.469-1.482h1.536a1.59,1.59,0,0,0,.618,1.224,2.4,2.4,0,0,0,1.523.452,2.47,2.47,0,0,0,1.4-.353,1.083,1.083,0,0,0,.527-.942" fill="#12263f"/>
      </g>
    </g>
    <path id="Trazado_222386" data-name="Trazado 222386" d="M869.276,342.662H864.2V348H862.61V335.914H870.1v1.3H864.2v4.142h5.072Z" fill="#12263f"/>
    <g id="Grupo_176899" data-name="Grupo 176899">
      <g id="Grupo_176898" data-name="Grupo 176898" clip-path="url(#clip-path)">
        <path id="Trazado_222387" data-name="Trazado 222387" d="M871.775,336.636a.915.915,0,0,1,.228-.631.859.859,0,0,1,.677-.257.87.87,0,0,1,.68.257.9.9,0,0,1,.233.631.951.951,0,0,1-1.59.622.887.887,0,0,1-.228-.622M873.435,348H871.9v-8.981h1.536Z" fill="#12263f"/>
        <path id="Trazado_222388" data-name="Trazado 222388" d="M875.518,343.434a5.259,5.259,0,0,1,.98-3.324,3.332,3.332,0,0,1,5.063-.179V335.25H883.1V348h-1.411l-.075-.963a3.126,3.126,0,0,1-2.565,1.129,3.067,3.067,0,0,1-2.544-1.279,5.32,5.32,0,0,1-.984-3.337Zm1.536.175a3.985,3.985,0,0,0,.631,2.391,2.039,2.039,0,0,0,1.743.863,2.24,2.24,0,0,0,2.133-1.313v-4.125a2.257,2.257,0,0,0-2.116-1.269,2.048,2.048,0,0,0-1.76.871,4.382,4.382,0,0,0-.631,2.582" fill="#12263f"/>
        <path id="Trazado_222389" data-name="Trazado 222389" d="M889.207,348.166a3.928,3.928,0,0,1-2.972-1.2,4.457,4.457,0,0,1-1.145-3.209v-.282a5.392,5.392,0,0,1,.51-2.386,3.981,3.981,0,0,1,1.428-1.644,3.6,3.6,0,0,1,1.988-.594,3.367,3.367,0,0,1,2.723,1.154,5,5,0,0,1,.971,3.3v.639h-6.085a3.184,3.184,0,0,0,.777,2.145,2.438,2.438,0,0,0,1.888.818,2.681,2.681,0,0,0,1.378-.332,3.472,3.472,0,0,0,.988-.879l.938.73a3.772,3.772,0,0,1-3.387,1.735m-.191-8.052a2.05,2.05,0,0,0-1.561.677,3.294,3.294,0,0,0-.78,1.9h4.5v-.116a2.916,2.916,0,0,0-.631-1.813,1.927,1.927,0,0,0-1.527-.644" fill="#12263f"/>
        <rect id="Rectángulo_56955" data-name="Rectángulo 56955" width="1.536" height="12.75" transform="translate(894.618 335.25)" fill="#12263f"/>
        <path id="Trazado_222390" data-name="Trazado 222390" d="M898.62,336.636a.915.915,0,0,1,.228-.631.859.859,0,0,1,.676-.257.873.873,0,0,1,.681.257.9.9,0,0,1,.232.631.877.877,0,0,1-.232.622.887.887,0,0,1-.681.249.872.872,0,0,1-.676-.249.887.887,0,0,1-.228-.622M900.28,348h-1.536v-8.981h1.536Z" fill="#12263f"/>
        <path id="Trazado_222391" data-name="Trazado 222391" d="M904.181,346.746h5.254V348h-7.13v-1.129l4.956-6.582H902.38v-1.271h6.806V340.1Z" fill="#12263f"/>
        <path id="Trazado_222392" data-name="Trazado 222392" d="M916.707,348a3.235,3.235,0,0,1-.215-.946,3.428,3.428,0,0,1-2.557,1.112,3.17,3.17,0,0,1-2.179-.751,2.432,2.432,0,0,1-.851-1.9,2.539,2.539,0,0,1,1.067-2.179,5.023,5.023,0,0,1,3-.776h1.495v-.7a1.728,1.728,0,0,0-.482-1.284,1.935,1.935,0,0,0-1.419-.476,2.235,2.235,0,0,0-1.378.414,1.224,1.224,0,0,0-.556,1.005h-1.544a2.119,2.119,0,0,1,.477-1.3,3.251,3.251,0,0,1,1.295-.992,4.364,4.364,0,0,1,1.8-.366,3.546,3.546,0,0,1,2.432.777,2.8,2.8,0,0,1,.913,2.137V345.9a5.037,5.037,0,0,0,.316,1.967V348Zm-2.548-1.17a2.7,2.7,0,0,0,1.37-.374,2.263,2.263,0,0,0,.938-.972v-1.842h-1.2q-2.821,0-2.822,1.652a1.4,1.4,0,0,0,.481,1.129,1.853,1.853,0,0,0,1.237.407" fill="#12263f"/>
        <path id="Trazado_222393" data-name="Trazado 222393" d="M924.75,340.4a4.562,4.562,0,0,0-.755-.059,2.025,2.025,0,0,0-2.051,1.288V348h-1.535v-8.982H921.9l.025,1.038a2.389,2.389,0,0,1,2.141-1.2,1.578,1.578,0,0,1,.681.116Z" fill="#12263f"/>
        <path id="Trazado_222394" data-name="Trazado 222394" d="M694.985,242.165a4.444,4.444,0,0,1-1.415,2.959,4.641,4.641,0,0,1-3.167,1.042,4.262,4.262,0,0,1-3.433-1.535,6.185,6.185,0,0,1-1.29-4.11v-1.162a6.888,6.888,0,0,1,.6-2.963,4.5,4.5,0,0,1,1.705-1.963,4.757,4.757,0,0,1,2.557-.685,4.366,4.366,0,0,1,3.088,1.075,4.5,4.5,0,0,1,1.353,2.976h-1.6a3.476,3.476,0,0,0-.9-2.1,2.728,2.728,0,0,0-1.938-.649,2.852,2.852,0,0,0-2.4,1.131,5.185,5.185,0,0,0-.867,3.214v1.171a5.332,5.332,0,0,0,.822,3.133,2.654,2.654,0,0,0,2.3,1.163,3.071,3.071,0,0,0,2.038-.6,3.343,3.343,0,0,0,.942-2.1Z" fill="#12263f"/>
        <path id="Trazado_222395" data-name="Trazado 222395" d="M696.512,241.425a5.3,5.3,0,0,1,.519-2.373,3.864,3.864,0,0,1,1.444-1.627,3.93,3.93,0,0,1,2.113-.573,3.786,3.786,0,0,1,2.968,1.271,4.888,4.888,0,0,1,1.132,3.378v.108a5.349,5.349,0,0,1-.5,2.353,3.818,3.818,0,0,1-1.436,1.623,3.979,3.979,0,0,1-2.146.581,3.78,3.78,0,0,1-2.959-1.27,4.862,4.862,0,0,1-1.133-3.362Zm1.544.184a3.84,3.84,0,0,0,.693,2.4,2.349,2.349,0,0,0,3.715-.012,4.206,4.206,0,0,0,.689-2.57,3.832,3.832,0,0,0-.7-2.394,2.229,2.229,0,0,0-1.863-.917,2.206,2.206,0,0,0-1.835.9,4.169,4.169,0,0,0-.7,2.59" fill="#12263f"/>
        <path id="Trazado_222396" data-name="Trazado 222396" d="M708.067,237.018l.05,1.129a3.272,3.272,0,0,1,2.689-1.295q2.847,0,2.872,3.212V246h-1.535v-5.943a2.064,2.064,0,0,0-.445-1.435,1.773,1.773,0,0,0-1.357-.465,2.218,2.218,0,0,0-1.311.4,2.7,2.7,0,0,0-.88,1.045V246h-1.536v-8.981Z" fill="#12263f"/>
        <path id="Trazado_222397" data-name="Trazado 222397" d="M718.958,243.915l2.225-6.9h1.568L719.531,246h-1.171l-3.254-8.981h1.569Z" fill="#12263f"/>
        <path id="Trazado_222398" data-name="Trazado 222398" d="M727.848,246.166a3.928,3.928,0,0,1-2.972-1.2,4.457,4.457,0,0,1-1.145-3.209v-.282a5.391,5.391,0,0,1,.51-2.386,3.981,3.981,0,0,1,1.428-1.644,3.6,3.6,0,0,1,1.988-.594,3.367,3.367,0,0,1,2.723,1.154,5,5,0,0,1,.971,3.3v.639h-6.085a3.184,3.184,0,0,0,.777,2.145,2.438,2.438,0,0,0,1.888.818,2.681,2.681,0,0,0,1.378-.332,3.473,3.473,0,0,0,.988-.879l.938.73a3.772,3.772,0,0,1-3.387,1.735m-.191-8.052a2.05,2.05,0,0,0-1.561.677,3.294,3.294,0,0,0-.78,1.9h4.5v-.116a2.916,2.916,0,0,0-.631-1.813,1.927,1.927,0,0,0-1.527-.644" fill="#12263f"/>
        <path id="Trazado_222399" data-name="Trazado 222399" d="M737.468,238.4a4.562,4.562,0,0,0-.755-.059,2.025,2.025,0,0,0-2.051,1.288V246h-1.535v-8.982h1.494l.025,1.038a2.389,2.389,0,0,1,2.141-1.2,1.578,1.578,0,0,1,.681.116Z" fill="#12263f"/>
        <path id="Trazado_222400" data-name="Trazado 222400" d="M741.378,234.843v2.175h1.677V238.2h-1.677v5.577a1.249,1.249,0,0,0,.224.811.945.945,0,0,0,.764.271,3.754,3.754,0,0,0,.73-.1V246a4.436,4.436,0,0,1-1.178.165,1.912,1.912,0,0,1-1.553-.623,2.674,2.674,0,0,1-.523-1.767V238.2h-1.635v-1.186h1.635v-2.175Z" fill="#12263f"/>
        <path id="Trazado_222401" data-name="Trazado 222401" d="M744.856,234.636a.915.915,0,0,1,.228-.631.859.859,0,0,1,.677-.257.869.869,0,0,1,.68.257.9.9,0,0,1,.233.631.951.951,0,0,1-1.59.622.887.887,0,0,1-.228-.622M746.516,246H744.98v-8.981h1.536Z" fill="#12263f"/>
        <path id="Trazado_222402" data-name="Trazado 222402" d="M753.314,238.4a4.563,4.563,0,0,0-.755-.059,2.025,2.025,0,0,0-2.051,1.288V246h-1.535v-8.982h1.494l.025,1.038a2.389,2.389,0,0,1,2.141-1.2,1.578,1.578,0,0,1,.681.116Z" fill="#12263f"/>
        <path id="Trazado_222403" data-name="Trazado 222403" d="M762.661,246.166a3.928,3.928,0,0,1-2.972-1.2,4.457,4.457,0,0,1-1.145-3.209v-.282a5.391,5.391,0,0,1,.51-2.386,3.981,3.981,0,0,1,1.428-1.644,3.6,3.6,0,0,1,1.988-.594,3.367,3.367,0,0,1,2.723,1.154,5,5,0,0,1,.971,3.3v.639h-6.085a3.184,3.184,0,0,0,.777,2.145,2.438,2.438,0,0,0,1.888.818,2.681,2.681,0,0,0,1.378-.332,3.472,3.472,0,0,0,.988-.879l.938.73a3.772,3.772,0,0,1-3.387,1.735m-.191-8.052a2.05,2.05,0,0,0-1.561.677,3.293,3.293,0,0,0-.78,1.9h4.5v-.116a2.916,2.916,0,0,0-.631-1.813,1.927,1.927,0,0,0-1.527-.644" fill="#12263f"/>
        <path id="Trazado_222404" data-name="Trazado 222404" d="M769.393,237.018l.05,1.129a3.272,3.272,0,0,1,2.689-1.295q2.847,0,2.872,3.212V246h-1.535v-5.943a2.064,2.064,0,0,0-.445-1.435,1.773,1.773,0,0,0-1.357-.465,2.218,2.218,0,0,0-1.311.4,2.7,2.7,0,0,0-.88,1.045V246H767.94v-8.981Z" fill="#12263f"/>
        <path id="Trazado_222405" data-name="Trazado 222405" d="M781.155,241.434a5.259,5.259,0,0,1,.98-3.324,3.332,3.332,0,0,1,5.063-.179V233.25h1.536V246h-1.411l-.075-.963a3.126,3.126,0,0,1-2.565,1.129,3.067,3.067,0,0,1-2.544-1.279,5.32,5.32,0,0,1-.984-3.337Zm1.536.175a3.985,3.985,0,0,0,.631,2.391,2.039,2.039,0,0,0,1.743.863,2.24,2.24,0,0,0,2.133-1.313v-4.125a2.257,2.257,0,0,0-2.116-1.269,2.048,2.048,0,0,0-1.76.871,4.382,4.382,0,0,0-.631,2.582" fill="#12263f"/>
        <path id="Trazado_222406" data-name="Trazado 222406" d="M791.124,234.636a.92.92,0,0,1,.228-.631.861.861,0,0,1,.677-.257.873.873,0,0,1,.681.257.9.9,0,0,1,.232.631.877.877,0,0,1-.232.622.887.887,0,0,1-.681.249.875.875,0,0,1-.677-.249.892.892,0,0,1-.228-.622M792.785,246h-1.536v-8.981h1.536Z" fill="#12263f"/>
        <path id="Trazado_222407" data-name="Trazado 222407" d="M796.694,237.018l.05,1.129a3.272,3.272,0,0,1,2.689-1.295q2.847,0,2.872,3.212V246H800.77v-5.943a2.064,2.064,0,0,0-.445-1.435,1.773,1.773,0,0,0-1.357-.465,2.218,2.218,0,0,0-1.311.4,2.7,2.7,0,0,0-.88,1.045V246h-1.536v-8.981Z" fill="#12263f"/>
        <path id="Trazado_222408" data-name="Trazado 222408" d="M808.349,246.166a3.928,3.928,0,0,1-2.972-1.2,4.457,4.457,0,0,1-1.145-3.209v-.282a5.391,5.391,0,0,1,.51-2.386,3.981,3.981,0,0,1,1.428-1.644,3.6,3.6,0,0,1,1.988-.594,3.367,3.367,0,0,1,2.723,1.154,5,5,0,0,1,.971,3.3v.639h-6.085a3.183,3.183,0,0,0,.777,2.145,2.438,2.438,0,0,0,1.888.818,2.681,2.681,0,0,0,1.378-.332,3.472,3.472,0,0,0,.988-.879l.938.73a3.772,3.772,0,0,1-3.387,1.735m-.191-8.052a2.05,2.05,0,0,0-1.561.677,3.293,3.293,0,0,0-.78,1.9h4.5v-.116a2.916,2.916,0,0,0-.631-1.813,1.927,1.927,0,0,0-1.527-.644" fill="#12263f"/>
        <path id="Trazado_222409" data-name="Trazado 222409" d="M817.969,238.4a4.562,4.562,0,0,0-.755-.059,2.025,2.025,0,0,0-2.051,1.288V246h-1.535v-8.982h1.494l.025,1.038a2.389,2.389,0,0,1,2.141-1.2,1.578,1.578,0,0,1,.681.116Z" fill="#12263f"/>
        <path id="Trazado_222410" data-name="Trazado 222410" d="M818.807,241.425a5.3,5.3,0,0,1,.519-2.373,3.865,3.865,0,0,1,1.444-1.627,3.93,3.93,0,0,1,2.113-.573,3.789,3.789,0,0,1,2.969,1.271,4.892,4.892,0,0,1,1.131,3.378v.108a5.35,5.35,0,0,1-.5,2.353,3.819,3.819,0,0,1-1.436,1.623,3.979,3.979,0,0,1-2.146.581,3.78,3.78,0,0,1-2.959-1.27,4.862,4.862,0,0,1-1.133-3.362Zm1.545.184a3.839,3.839,0,0,0,.692,2.4,2.349,2.349,0,0,0,3.715-.012,4.206,4.206,0,0,0,.689-2.57,3.832,3.832,0,0,0-.7-2.394,2.229,2.229,0,0,0-1.863-.917,2.206,2.206,0,0,0-1.835.9,4.169,4.169,0,0,0-.7,2.59" fill="#12263f"/>
        <rect id="Rectángulo_56956" data-name="Rectángulo 56956" width="1.536" height="12.75" transform="translate(833.251 233.25)" fill="#12263f"/>
        <path id="Trazado_222411" data-name="Trazado 222411" d="M842.788,246a3.233,3.233,0,0,1-.215-.946,3.428,3.428,0,0,1-2.557,1.112,3.17,3.17,0,0,1-2.179-.751,2.432,2.432,0,0,1-.851-1.9,2.539,2.539,0,0,1,1.067-2.179,5.023,5.023,0,0,1,3-.776h1.495v-.7a1.728,1.728,0,0,0-.482-1.284,1.935,1.935,0,0,0-1.419-.476,2.235,2.235,0,0,0-1.378.414,1.224,1.224,0,0,0-.556,1.005h-1.544a2.119,2.119,0,0,1,.477-1.3,3.251,3.251,0,0,1,1.295-.992,4.364,4.364,0,0,1,1.8-.366,3.546,3.546,0,0,1,2.432.777,2.8,2.8,0,0,1,.913,2.137V243.9a5.037,5.037,0,0,0,.316,1.967V246Zm-2.548-1.17a2.7,2.7,0,0,0,1.37-.374,2.263,2.263,0,0,0,.938-.972v-1.842h-1.2q-2.821,0-2.822,1.652a1.4,1.4,0,0,0,.481,1.129,1.853,1.853,0,0,0,1.237.407" fill="#12263f"/>
        <path id="Trazado_222412" data-name="Trazado 222412" d="M854.426,246.166a3.928,3.928,0,0,1-2.972-1.2,4.457,4.457,0,0,1-1.145-3.209v-.282a5.392,5.392,0,0,1,.51-2.386,3.981,3.981,0,0,1,1.428-1.644,3.6,3.6,0,0,1,1.988-.594,3.367,3.367,0,0,1,2.723,1.154,5,5,0,0,1,.971,3.3v.639h-6.085a3.184,3.184,0,0,0,.777,2.145,2.438,2.438,0,0,0,1.888.818,2.681,2.681,0,0,0,1.378-.332,3.473,3.473,0,0,0,.988-.879l.938.73a3.772,3.772,0,0,1-3.387,1.735m-.191-8.052a2.05,2.05,0,0,0-1.561.677,3.294,3.294,0,0,0-.78,1.9h4.5v-.116a2.916,2.916,0,0,0-.631-1.813,1.927,1.927,0,0,0-1.527-.644" fill="#12263f"/>
        <path id="Trazado_222413" data-name="Trazado 222413" d="M864.935,243.617a1.131,1.131,0,0,0-.469-.967,4.53,4.53,0,0,0-1.635-.594,7.736,7.736,0,0,1-1.851-.6,2.632,2.632,0,0,1-1.013-.83,1.98,1.98,0,0,1-.328-1.145,2.332,2.332,0,0,1,.934-1.868,3.648,3.648,0,0,1,2.386-.764,3.756,3.756,0,0,1,2.478.788,2.508,2.508,0,0,1,.951,2.018h-1.544a1.388,1.388,0,0,0-.536-1.088,2,2,0,0,0-1.349-.456,2.1,2.1,0,0,0-1.311.365,1.147,1.147,0,0,0-.473.954.931.931,0,0,0,.44.839,5.393,5.393,0,0,0,1.59.54,8.258,8.258,0,0,1,1.863.614,2.717,2.717,0,0,1,1.058.859,2.111,2.111,0,0,1,.345,1.225,2.3,2.3,0,0,1-.963,1.929,4.035,4.035,0,0,1-2.5.727,4.515,4.515,0,0,1-1.909-.382,3.115,3.115,0,0,1-1.3-1.066,2.571,2.571,0,0,1-.469-1.482h1.536a1.59,1.59,0,0,0,.618,1.224,2.4,2.4,0,0,0,1.523.452,2.47,2.47,0,0,0,1.4-.353,1.083,1.083,0,0,0,.527-.942" fill="#12263f"/>
        <path id="Trazado_222414" data-name="Trazado 222414" d="M870.555,234.843v2.175h1.677V238.2h-1.677v5.577a1.249,1.249,0,0,0,.224.811.945.945,0,0,0,.764.271,3.755,3.755,0,0,0,.73-.1V246a4.436,4.436,0,0,1-1.178.165,1.912,1.912,0,0,1-1.553-.623,2.674,2.674,0,0,1-.523-1.767V238.2h-1.635v-1.186h1.635v-2.175Z" fill="#12263f"/>
        <path id="Trazado_222415" data-name="Trazado 222415" d="M878.366,238.4a4.563,4.563,0,0,0-.755-.059,2.025,2.025,0,0,0-2.051,1.288V246h-1.535v-8.982h1.494l.025,1.038a2.389,2.389,0,0,1,2.141-1.2,1.578,1.578,0,0,1,.681.116Z" fill="#12263f"/>
        <path id="Trazado_222416" data-name="Trazado 222416" d="M884.989,246a3.233,3.233,0,0,1-.215-.946,3.428,3.428,0,0,1-2.557,1.112,3.17,3.17,0,0,1-2.179-.751,2.432,2.432,0,0,1-.851-1.9,2.539,2.539,0,0,1,1.067-2.179,5.023,5.023,0,0,1,3-.776h1.495v-.7a1.728,1.728,0,0,0-.482-1.284,1.935,1.935,0,0,0-1.419-.476,2.235,2.235,0,0,0-1.378.414,1.224,1.224,0,0,0-.556,1.005H879.37a2.119,2.119,0,0,1,.477-1.3,3.251,3.251,0,0,1,1.3-.992,4.364,4.364,0,0,1,1.8-.366,3.546,3.546,0,0,1,2.432.777,2.8,2.8,0,0,1,.913,2.137V243.9a5.037,5.037,0,0,0,.316,1.967V246Zm-2.548-1.17a2.7,2.7,0,0,0,1.37-.374,2.264,2.264,0,0,0,.938-.972v-1.842h-1.2q-2.821,0-2.822,1.652a1.4,1.4,0,0,0,.481,1.129,1.853,1.853,0,0,0,1.237.407" fill="#12263f"/>
        <path id="Trazado_222417" data-name="Trazado 222417" d="M890.775,234.843v2.175h1.677V238.2h-1.677v5.577a1.249,1.249,0,0,0,.224.811.945.945,0,0,0,.764.271,3.754,3.754,0,0,0,.73-.1V246a4.436,4.436,0,0,1-1.178.165,1.912,1.912,0,0,1-1.553-.623,2.674,2.674,0,0,1-.523-1.767V238.2H887.6v-1.186h1.635v-2.175Z" fill="#12263f"/>
        <path id="Trazado_222418" data-name="Trazado 222418" d="M897.972,246.166a3.928,3.928,0,0,1-2.972-1.2,4.457,4.457,0,0,1-1.145-3.209v-.282a5.392,5.392,0,0,1,.51-2.386,3.981,3.981,0,0,1,1.428-1.644,3.6,3.6,0,0,1,1.988-.594,3.367,3.367,0,0,1,2.723,1.154,5,5,0,0,1,.971,3.3v.639H895.39a3.184,3.184,0,0,0,.777,2.145,2.438,2.438,0,0,0,1.888.818,2.681,2.681,0,0,0,1.378-.332,3.472,3.472,0,0,0,.988-.879l.938.73a3.772,3.772,0,0,1-3.387,1.735m-.191-8.052a2.05,2.05,0,0,0-1.561.677,3.293,3.293,0,0,0-.78,1.9h4.5v-.116a2.916,2.916,0,0,0-.631-1.813,1.927,1.927,0,0,0-1.527-.644" fill="#12263f"/>
        <path id="Trazado_222419" data-name="Trazado 222419" d="M902.886,241.434a5.283,5.283,0,0,1,.971-3.341,3.348,3.348,0,0,1,5.138-.079l.075-1h1.4v8.766a3.655,3.655,0,0,1-1.033,2.747,3.815,3.815,0,0,1-2.777,1,4.63,4.63,0,0,1-1.9-.415,3.279,3.279,0,0,1-1.419-1.137l.8-.922a3,3,0,0,0,2.416,1.221,2.353,2.353,0,0,0,1.747-.631,2.414,2.414,0,0,0,.627-1.777V245.1a3.158,3.158,0,0,1-2.515,1.063,3.069,3.069,0,0,1-2.552-1.27,5.549,5.549,0,0,1-.976-3.462m1.544.175a4.027,4.027,0,0,0,.623,2.386,2.024,2.024,0,0,0,1.743.868,2.251,2.251,0,0,0,2.133-1.32v-4.1a2.276,2.276,0,0,0-2.117-1.286,2.039,2.039,0,0,0-1.751.871,4.383,4.383,0,0,0-.631,2.582" fill="#12263f"/>
        <path id="Trazado_222420" data-name="Trazado 222420" d="M912.8,234.636a.915.915,0,0,1,.228-.631.861.861,0,0,1,.677-.257.873.873,0,0,1,.681.257.9.9,0,0,1,.232.631.877.877,0,0,1-.232.622.887.887,0,0,1-.681.249.874.874,0,0,1-.677-.249.887.887,0,0,1-.228-.622M914.457,246h-1.536v-8.981h1.536Z" fill="#12263f"/>
        <path id="Trazado_222421" data-name="Trazado 222421" d="M922.459,246a3.233,3.233,0,0,1-.215-.946,3.428,3.428,0,0,1-2.557,1.112,3.17,3.17,0,0,1-2.179-.751,2.432,2.432,0,0,1-.851-1.9,2.539,2.539,0,0,1,1.067-2.179,5.023,5.023,0,0,1,3-.776h1.495v-.7a1.728,1.728,0,0,0-.482-1.284,1.935,1.935,0,0,0-1.419-.476,2.235,2.235,0,0,0-1.378.414,1.223,1.223,0,0,0-.556,1.005H916.84a2.119,2.119,0,0,1,.477-1.3,3.251,3.251,0,0,1,1.295-.992,4.364,4.364,0,0,1,1.8-.366,3.546,3.546,0,0,1,2.432.777,2.8,2.8,0,0,1,.913,2.137V243.9a5.037,5.037,0,0,0,.316,1.967V246Zm-2.548-1.17a2.7,2.7,0,0,0,1.37-.374,2.263,2.263,0,0,0,.938-.972v-1.842h-1.2q-2.822,0-2.822,1.652a1.4,1.4,0,0,0,.481,1.129,1.853,1.853,0,0,0,1.237.407" fill="#12263f"/>
        <path id="Trazado_222422" data-name="Trazado 222422" d="M716.509,261.093a12.825,12.825,0,0,1,.5-3.6,10.452,10.452,0,0,1,1.5-3.138,6.373,6.373,0,0,1,2.066-1.992l.316,1.013a6.594,6.594,0,0,0-1.987,2.838,12.307,12.307,0,0,0-.852,4.276l-.008.7a12.378,12.378,0,0,0,1.17,5.562,6.633,6.633,0,0,0,1.677,2.207l-.316.939a6.6,6.6,0,0,1-2.108-2.059,11.539,11.539,0,0,1-1.959-6.749" fill="#12263f"/>
        <path id="Trazado_222423" data-name="Trazado 222423" d="M725.98,264.912a2.213,2.213,0,0,0,1.436-.5,1.747,1.747,0,0,0,.68-1.244h1.453a2.8,2.8,0,0,1-.531,1.469,3.516,3.516,0,0,1-1.308,1.112,3.777,3.777,0,0,1-1.73.415,3.7,3.7,0,0,1-2.918-1.225,4.875,4.875,0,0,1-1.083-3.349v-.257A5.41,5.41,0,0,1,722.46,259a3.67,3.67,0,0,1,1.382-1.585,3.932,3.932,0,0,1,2.129-.565,3.6,3.6,0,0,1,2.512.906,3.234,3.234,0,0,1,1.066,2.348H728.1a2.11,2.11,0,0,0-.659-1.431,2.054,2.054,0,0,0-1.466-.561,2.147,2.147,0,0,0-1.813.843,3.951,3.951,0,0,0-.644,2.435v.291a3.869,3.869,0,0,0,.64,2.391,2.158,2.158,0,0,0,1.826.838" fill="#12263f"/>
        <path id="Trazado_222424" data-name="Trazado 222424" d="M730.869,261.425a5.292,5.292,0,0,1,.52-2.373,3.858,3.858,0,0,1,1.444-1.627,3.924,3.924,0,0,1,2.112-.573,3.786,3.786,0,0,1,2.968,1.271,4.883,4.883,0,0,1,1.133,3.378v.108a5.364,5.364,0,0,1-.5,2.353,3.821,3.821,0,0,1-1.437,1.623,3.978,3.978,0,0,1-2.145.581A3.779,3.779,0,0,1,732,264.9a4.863,4.863,0,0,1-1.134-3.362Zm1.544.184a3.839,3.839,0,0,0,.693,2.4,2.349,2.349,0,0,0,3.715-.012,4.206,4.206,0,0,0,.689-2.57,3.838,3.838,0,0,0-.7-2.394,2.232,2.232,0,0,0-1.864-.917,2.206,2.206,0,0,0-1.835.9,4.169,4.169,0,0,0-.7,2.59" fill="#12263f"/>
        <path id="Trazado_222425" data-name="Trazado 222425" d="M742.424,257.018l.05,1.129a3.274,3.274,0,0,1,2.689-1.3q2.848,0,2.872,3.212V266H746.5v-5.943a2.064,2.064,0,0,0-.444-1.435,1.776,1.776,0,0,0-1.358-.465,2.22,2.22,0,0,0-1.311.4,2.712,2.712,0,0,0-.88,1.045V266h-1.535v-8.981Z" fill="#12263f"/>
        <path id="Trazado_222426" data-name="Trazado 222426" d="M753.314,263.915l2.225-6.9h1.569L753.887,266h-1.171l-3.254-8.981h1.57Z" fill="#12263f"/>
        <path id="Trazado_222427" data-name="Trazado 222427" d="M762.205,266.166a3.924,3.924,0,0,1-2.971-1.2,4.453,4.453,0,0,1-1.146-3.209v-.282a5.391,5.391,0,0,1,.51-2.386,3.981,3.981,0,0,1,1.428-1.644,3.6,3.6,0,0,1,1.988-.594,3.365,3.365,0,0,1,2.723,1.154,5,5,0,0,1,.971,3.3v.639h-6.085a3.194,3.194,0,0,0,.777,2.145,2.44,2.44,0,0,0,1.888.818,2.681,2.681,0,0,0,1.378-.332,3.472,3.472,0,0,0,.988-.879l.938.73a3.772,3.772,0,0,1-3.387,1.735m-.191-8.052a2.052,2.052,0,0,0-1.561.677,3.3,3.3,0,0,0-.78,1.9h4.5v-.116a2.916,2.916,0,0,0-.631-1.813,1.926,1.926,0,0,0-1.527-.644" fill="#12263f"/>
        <path id="Trazado_222428" data-name="Trazado 222428" d="M771.825,258.4a4.562,4.562,0,0,0-.755-.059,2.026,2.026,0,0,0-2.051,1.288V266h-1.535v-8.982h1.494l.025,1.038a2.391,2.391,0,0,1,2.141-1.2,1.575,1.575,0,0,1,.681.116Z" fill="#12263f"/>
        <path id="Trazado_222429" data-name="Trazado 222429" d="M778.466,263.617a1.131,1.131,0,0,0-.469-.967,4.514,4.514,0,0,0-1.635-.594,7.735,7.735,0,0,1-1.851-.6,2.639,2.639,0,0,1-1.013-.83,1.98,1.98,0,0,1-.328-1.145,2.332,2.332,0,0,1,.934-1.868,3.65,3.65,0,0,1,2.386-.764,3.754,3.754,0,0,1,2.478.788,2.508,2.508,0,0,1,.951,2.018h-1.544a1.388,1.388,0,0,0-.536-1.088,2,2,0,0,0-1.349-.456,2.1,2.1,0,0,0-1.311.365,1.147,1.147,0,0,0-.473.954.933.933,0,0,0,.44.839,5.4,5.4,0,0,0,1.59.54,8.257,8.257,0,0,1,1.863.614,2.71,2.71,0,0,1,1.058.859A2.111,2.111,0,0,1,780,263.51a2.3,2.3,0,0,1-.963,1.929,4.033,4.033,0,0,1-2.5.727,4.518,4.518,0,0,1-1.909-.382,3.116,3.116,0,0,1-1.3-1.066,2.579,2.579,0,0,1-.469-1.482H774.4a1.593,1.593,0,0,0,.618,1.224,2.4,2.4,0,0,0,1.523.452,2.47,2.47,0,0,0,1.4-.353,1.083,1.083,0,0,0,.527-.942" fill="#12263f"/>
        <path id="Trazado_222430" data-name="Trazado 222430" d="M782.011,254.636a.919.919,0,0,1,.227-.631.861.861,0,0,1,.677-.257.873.873,0,0,1,.681.257.9.9,0,0,1,.232.631.877.877,0,0,1-.232.622.887.887,0,0,1-.681.249.875.875,0,0,1-.677-.249.891.891,0,0,1-.227-.622M783.671,266h-1.536v-8.981h1.536Z" fill="#12263f"/>
        <path id="Trazado_222431" data-name="Trazado 222431" d="M785.721,261.425a5.286,5.286,0,0,1,.519-2.373,3.865,3.865,0,0,1,1.444-1.627,3.922,3.922,0,0,1,2.113-.573,3.79,3.79,0,0,1,2.968,1.27A4.891,4.891,0,0,1,793.9,261.5v.109a5.356,5.356,0,0,1-.5,2.352,3.808,3.808,0,0,1-1.436,1.623,3.971,3.971,0,0,1-2.146.581,3.779,3.779,0,0,1-2.959-1.269,4.862,4.862,0,0,1-1.133-3.362Zm1.544.184a3.839,3.839,0,0,0,.693,2.4,2.349,2.349,0,0,0,3.715-.012,4.206,4.206,0,0,0,.688-2.57,3.832,3.832,0,0,0-.7-2.394,2.229,2.229,0,0,0-1.863-.917,2.2,2.2,0,0,0-1.835.9,4.167,4.167,0,0,0-.7,2.59m3.229-8.343h1.859l-2.224,2.44-1.238,0Z" fill="#12263f"/>
        <path id="Trazado_222432" data-name="Trazado 222432" d="M797.275,257.018l.05,1.129a3.274,3.274,0,0,1,2.689-1.3q2.849,0,2.872,3.212V266h-1.535v-5.943a2.064,2.064,0,0,0-.444-1.435,1.776,1.776,0,0,0-1.358-.465,2.221,2.221,0,0,0-1.311.4,2.712,2.712,0,0,0-.88,1.045V266h-1.535v-8.981Z" fill="#12263f"/>
        <path id="Trazado_222433" data-name="Trazado 222433" d="M809.038,261.434a5.259,5.259,0,0,1,.979-3.324,3.333,3.333,0,0,1,5.064-.179V253.25h1.535V266h-1.411l-.074-.963a3.129,3.129,0,0,1-2.566,1.129,3.067,3.067,0,0,1-2.544-1.279,5.32,5.32,0,0,1-.983-3.337Zm1.535.175A3.993,3.993,0,0,0,811.2,264a2.041,2.041,0,0,0,1.743.863,2.24,2.24,0,0,0,2.134-1.313v-4.125a2.259,2.259,0,0,0-2.117-1.269,2.05,2.05,0,0,0-1.76.871,4.39,4.39,0,0,0-.631,2.582" fill="#12263f"/>
        <path id="Trazado_222434" data-name="Trazado 222434" d="M822.725,266.166a3.926,3.926,0,0,1-2.971-1.2,4.453,4.453,0,0,1-1.146-3.209v-.282a5.392,5.392,0,0,1,.511-2.386,3.981,3.981,0,0,1,1.428-1.644,3.594,3.594,0,0,1,1.988-.594,3.367,3.367,0,0,1,2.723,1.154,5,5,0,0,1,.97,3.3v.639h-6.084a3.184,3.184,0,0,0,.777,2.145,2.438,2.438,0,0,0,1.887.818,2.676,2.676,0,0,0,1.378-.332,3.461,3.461,0,0,0,.989-.879l.937.73a3.77,3.77,0,0,1-3.387,1.735m-.19-8.052a2.049,2.049,0,0,0-1.561.677,3.294,3.294,0,0,0-.78,1.9h4.5v-.116a2.928,2.928,0,0,0-.631-1.813,1.929,1.929,0,0,0-1.527-.644" fill="#12263f"/>
        <rect id="Rectángulo_56957" data-name="Rectángulo 56957" width="1.535" height="12.75" transform="translate(832.347 253.25)" fill="#12263f"/>
        <path id="Trazado_222435" data-name="Trazado 222435" d="M841.884,266a3.26,3.26,0,0,1-.216-.946,3.427,3.427,0,0,1-2.557,1.112,3.169,3.169,0,0,1-2.178-.751,2.429,2.429,0,0,1-.851-1.9,2.541,2.541,0,0,1,1.066-2.179,5.024,5.024,0,0,1,3-.776h1.495v-.7a1.732,1.732,0,0,0-.482-1.284,1.936,1.936,0,0,0-1.42-.476,2.237,2.237,0,0,0-1.378.414,1.225,1.225,0,0,0-.555,1.005h-1.544a2.123,2.123,0,0,1,.476-1.3,3.258,3.258,0,0,1,1.295-.992,4.372,4.372,0,0,1,1.8-.366,3.548,3.548,0,0,1,2.432.777,2.8,2.8,0,0,1,.913,2.137V263.9a5.057,5.057,0,0,0,.315,1.967V266Zm-2.548-1.17a2.7,2.7,0,0,0,1.369-.374,2.266,2.266,0,0,0,.939-.972v-1.842h-1.2q-2.821,0-2.823,1.652a1.4,1.4,0,0,0,.482,1.129,1.851,1.851,0,0,0,1.237.407" fill="#12263f"/>
        <path id="Trazado_222436" data-name="Trazado 222436" d="M853.4,264.912a2.213,2.213,0,0,0,1.436-.5,1.747,1.747,0,0,0,.68-1.244h1.453a2.8,2.8,0,0,1-.531,1.469,3.516,3.516,0,0,1-1.308,1.112,3.777,3.777,0,0,1-1.73.415,3.7,3.7,0,0,1-2.918-1.225,4.875,4.875,0,0,1-1.083-3.349v-.257a5.411,5.411,0,0,1,.481-2.333,3.67,3.67,0,0,1,1.382-1.585,3.932,3.932,0,0,1,2.129-.565,3.6,3.6,0,0,1,2.512.906,3.234,3.234,0,0,1,1.066,2.348h-1.453a2.11,2.11,0,0,0-.659-1.431,2.054,2.054,0,0,0-1.466-.561,2.147,2.147,0,0,0-1.813.843,3.951,3.951,0,0,0-.644,2.435v.291a3.869,3.869,0,0,0,.64,2.391,2.158,2.158,0,0,0,1.826.838" fill="#12263f"/>
        <path id="Trazado_222437" data-name="Trazado 222437" d="M864.238,266a3.2,3.2,0,0,1-.216-.946,3.428,3.428,0,0,1-2.557,1.112,3.166,3.166,0,0,1-2.178-.751,2.43,2.43,0,0,1-.852-1.9,2.539,2.539,0,0,1,1.067-2.179,5.023,5.023,0,0,1,3-.776H864v-.7a1.728,1.728,0,0,0-.482-1.284,1.933,1.933,0,0,0-1.419-.476,2.235,2.235,0,0,0-1.378.414,1.223,1.223,0,0,0-.556,1.005h-1.544a2.119,2.119,0,0,1,.477-1.3,3.258,3.258,0,0,1,1.3-.992,4.367,4.367,0,0,1,1.8-.366,3.551,3.551,0,0,1,2.433.777,2.8,2.8,0,0,1,.913,2.137V263.9a5.039,5.039,0,0,0,.315,1.967V266Zm-2.549-1.17a2.7,2.7,0,0,0,1.37-.374,2.258,2.258,0,0,0,.938-.972v-1.842h-1.2q-2.822,0-2.822,1.652a1.4,1.4,0,0,0,.482,1.129,1.849,1.849,0,0,0,1.236.407" fill="#12263f"/>
        <path id="Trazado_222438" data-name="Trazado 222438" d="M869.385,257.018l.041,1a3.32,3.32,0,0,1,2.665-1.162,2.568,2.568,0,0,1,2.565,1.444,3.4,3.4,0,0,1,1.166-1.046,3.451,3.451,0,0,1,1.7-.4q2.953,0,3.005,3.13V266h-1.536v-5.926a2.067,2.067,0,0,0-.44-1.441,1.939,1.939,0,0,0-1.477-.476,2.042,2.042,0,0,0-1.42.509,2.077,2.077,0,0,0-.656,1.374V266h-1.544v-5.884a1.713,1.713,0,0,0-1.918-1.959,2.053,2.053,0,0,0-2.066,1.286V266h-1.536v-8.981Z" fill="#12263f"/>
        <path id="Trazado_222439" data-name="Trazado 222439" d="M890.426,261.609a5.378,5.378,0,0,1-.937,3.3,3.01,3.01,0,0,1-2.54,1.253,3.292,3.292,0,0,1-2.574-1.037v4.325h-1.536V257.018h1.4l.074,1a3.166,3.166,0,0,1,2.606-1.162,3.064,3.064,0,0,1,2.561,1.22,5.432,5.432,0,0,1,.942,3.4Zm-1.535-.175a3.973,3.973,0,0,0-.647-2.4,2.089,2.089,0,0,0-1.777-.879,2.258,2.258,0,0,0-2.092,1.236v4.291a2.262,2.262,0,0,0,2.109,1.229,2.074,2.074,0,0,0,1.755-.875,4.338,4.338,0,0,0,.652-2.6" fill="#12263f"/>
        <path id="Trazado_222440" data-name="Trazado 222440" d="M897.923,266a3.2,3.2,0,0,1-.216-.946,3.428,3.428,0,0,1-2.557,1.112,3.166,3.166,0,0,1-2.178-.751,2.43,2.43,0,0,1-.852-1.9,2.539,2.539,0,0,1,1.067-2.179,5.023,5.023,0,0,1,3-.776h1.495v-.7a1.728,1.728,0,0,0-.482-1.284,1.933,1.933,0,0,0-1.419-.476,2.235,2.235,0,0,0-1.378.414,1.223,1.223,0,0,0-.556,1.005H892.3a2.118,2.118,0,0,1,.477-1.3,3.258,3.258,0,0,1,1.295-.992,4.367,4.367,0,0,1,1.8-.366,3.551,3.551,0,0,1,2.433.777,2.8,2.8,0,0,1,.913,2.137V263.9a5.039,5.039,0,0,0,.315,1.967V266Zm-2.549-1.17a2.7,2.7,0,0,0,1.37-.374,2.258,2.258,0,0,0,.938-.972v-1.842h-1.2q-2.822,0-2.822,1.652a1.4,1.4,0,0,0,.482,1.129,1.849,1.849,0,0,0,1.236.407" fill="#12263f"/>
        <path id="Trazado_222441" data-name="Trazado 222441" d="M903.077,257.018l.05,1.129a3.274,3.274,0,0,1,2.689-1.3q2.849,0,2.872,3.212V266h-1.535v-5.943a2.069,2.069,0,0,0-.444-1.436,1.779,1.779,0,0,0-1.358-.464,2.214,2.214,0,0,0-1.311.4,2.712,2.712,0,0,0-.88,1.045V266h-1.535v-8.981Zm5.08-3.5a2.066,2.066,0,0,1-.51,1.453,1.661,1.661,0,0,1-1.274.556,1.878,1.878,0,0,1-.59-.083,3.226,3.226,0,0,1-.651-.34,2.884,2.884,0,0,0-.581-.312,1.431,1.431,0,0,0-.412-.053.768.768,0,0,0-.581.26.953.953,0,0,0-.24.669l-1.029-.058a2.164,2.164,0,0,1,.5-1.469,1.61,1.61,0,0,1,1.274-.582,1.531,1.531,0,0,1,.523.084,3.821,3.821,0,0,1,.631.323,3.762,3.762,0,0,0,.61.316,1.424,1.424,0,0,0,.469.074.743.743,0,0,0,.593-.281.989.989,0,0,0,.237-.657Z" fill="#12263f"/>
        <path id="Trazado_222442" data-name="Trazado 222442" d="M916.55,266a3.194,3.194,0,0,1-.216-.946,3.428,3.428,0,0,1-2.557,1.112,3.166,3.166,0,0,1-2.178-.751,2.43,2.43,0,0,1-.852-1.9,2.539,2.539,0,0,1,1.067-2.179,5.023,5.023,0,0,1,3-.776h1.495v-.7a1.728,1.728,0,0,0-.482-1.284,1.933,1.933,0,0,0-1.419-.476,2.235,2.235,0,0,0-1.378.414,1.223,1.223,0,0,0-.556,1.005H910.93a2.119,2.119,0,0,1,.477-1.3,3.258,3.258,0,0,1,1.3-.992,4.367,4.367,0,0,1,1.8-.366,3.551,3.551,0,0,1,2.433.777,2.8,2.8,0,0,1,.913,2.137V263.9a5.039,5.039,0,0,0,.315,1.967V266ZM914,264.83a2.7,2.7,0,0,0,1.37-.374,2.258,2.258,0,0,0,.938-.972v-1.842h-1.2q-2.821,0-2.822,1.652a1.4,1.4,0,0,0,.482,1.129,1.848,1.848,0,0,0,1.236.407" fill="#12263f"/>
        <path id="Trazado_222443" data-name="Trazado 222443" d="M923.8,261.177a12.831,12.831,0,0,1-.485,3.548,10.514,10.514,0,0,1-1.486,3.134,6.531,6.531,0,0,1-2.1,2.042l-.324-.939a6.675,6.675,0,0,0,2.055-3.042,13.167,13.167,0,0,0,.792-4.577v-.266a13.647,13.647,0,0,0-.365-3.242,10.9,10.9,0,0,0-1.017-2.685,6.2,6.2,0,0,0-1.465-1.851l.324-.938a6.509,6.509,0,0,1,2.088,2.025,10.551,10.551,0,0,1,1.486,3.13,13.145,13.145,0,0,1,.493,3.661" fill="#12263f"/>
        <path id="Trazado_222444" data-name="Trazado 222444" d="M437.876,249.737a4.53,4.53,0,0,1-1.525,3.252,5.354,5.354,0,0,1-3.625,1.186,4.813,4.813,0,0,1-3.872-1.656,6.8,6.8,0,0,1-1.411-4.549v-.782a7.668,7.668,0,0,1,.651-3.252,4.864,4.864,0,0,1,1.859-2.157,5.806,5.806,0,0,1,6.376.435,4.869,4.869,0,0,1,1.565,3.331h-2.637a2.675,2.675,0,0,0-.69-1.8,2.557,2.557,0,0,0-1.806-.559,2.241,2.241,0,0,0-1.973.945,5.293,5.293,0,0,0-.673,2.931v.967a5.666,5.666,0,0,0,.629,3.032,2.2,2.2,0,0,0,1.982.958,2.6,2.6,0,0,0,1.823-.557,2.52,2.52,0,0,0,.69-1.728Z" fill="#fff"/>
        <path id="Trazado_222445" data-name="Trazado 222445" d="M439.045,249.156a5.642,5.642,0,0,1,.545-2.522,3.986,3.986,0,0,1,1.569-1.714,4.578,4.578,0,0,1,2.377-.606,4.33,4.33,0,0,1,3.142,1.177,4.727,4.727,0,0,1,1.358,3.2l.018.65a4.97,4.97,0,0,1-1.222,3.512,4.736,4.736,0,0,1-6.561,0,5.061,5.061,0,0,1-1.226-3.586Zm2.54.181a3.549,3.549,0,0,0,.51,2.072,1.83,1.83,0,0,0,2.9.009,3.885,3.885,0,0,0,.519-2.267,3.516,3.516,0,0,0-.519-2.059,1.686,1.686,0,0,0-1.459-.731,1.659,1.659,0,0,0-1.441.727,3.949,3.949,0,0,0-.51,2.249" fill="#fff"/>
        <path id="Trazado_222446" data-name="Trazado 222446" d="M452,244.49l.079,1.063a3.343,3.343,0,0,1,2.734-1.239,2.537,2.537,0,0,1,2.522,1.45,3.267,3.267,0,0,1,2.856-1.45,2.838,2.838,0,0,1,2.3.9,4.141,4.141,0,0,1,.756,2.712V254H460.7v-6.078a1.821,1.821,0,0,0-.316-1.186,1.4,1.4,0,0,0-1.116-.374,1.584,1.584,0,0,0-1.582,1.093L457.7,254h-2.54v-6.07a1.793,1.793,0,0,0-.325-1.2,1.413,1.413,0,0,0-1.107-.37,1.646,1.646,0,0,0-1.565.9V254h-2.54v-9.51Z" fill="#fff"/>
        <path id="Trazado_222447" data-name="Trazado 222447" d="M473.762,249.332a5.7,5.7,0,0,1-1,3.521,3.2,3.2,0,0,1-2.693,1.322,2.961,2.961,0,0,1-2.329-1v4.483H465.2V244.49h2.356l.088.931a2.985,2.985,0,0,1,2.408-1.107,3.217,3.217,0,0,1,2.733,1.3,5.853,5.853,0,0,1,.976,3.586Zm-2.54-.193a3.772,3.772,0,0,0-.47-2.055,1.532,1.532,0,0,0-1.367-.722,1.66,1.66,0,0,0-1.643.917v3.9a1.689,1.689,0,0,0,1.661.943q1.819,0,1.819-2.988" fill="#fff"/>
        <path id="Trazado_222448" data-name="Trazado 222448" d="M480.679,246.872a6.873,6.873,0,0,0-.914-.07,1.861,1.861,0,0,0-1.89.975V254h-2.54v-9.51h2.4l.07,1.134a2.354,2.354,0,0,1,2.118-1.31,2.636,2.636,0,0,1,.791.115Z" fill="#fff"/>
        <path id="Trazado_222449" data-name="Trazado 222449" d="M487.148,254a2.783,2.783,0,0,1-.255-.853,3.073,3.073,0,0,1-2.4,1.028,3.379,3.379,0,0,1-2.316-.808,2.6,2.6,0,0,1-.918-2.039,2.686,2.686,0,0,1,1.121-2.321,5.529,5.529,0,0,1,3.238-.817h1.169v-.545a1.572,1.572,0,0,0-.338-1.055,1.335,1.335,0,0,0-1.068-.395,1.507,1.507,0,0,0-1.006.308,1.042,1.042,0,0,0-.365.843h-2.54a2.552,2.552,0,0,1,.51-1.529,3.365,3.365,0,0,1,1.441-1.1,5.262,5.262,0,0,1,2.092-.4,4.152,4.152,0,0,1,2.79.883,3.091,3.091,0,0,1,1.033,2.483V251.8a4.549,4.549,0,0,0,.378,2.048V254Zm-2.1-1.767a2.175,2.175,0,0,0,1.037-.251,1.635,1.635,0,0,0,.7-.672v-1.635h-.949q-1.907,0-2.03,1.319l-.009.149a1.014,1.014,0,0,0,.334.782,1.3,1.3,0,0,0,.914.308" fill="#fff"/>
        <path id="Trazado_222450" data-name="Trazado 222450" d="M254.931,347V334.2h3.938a5.989,5.989,0,0,1,3.019.76,5.314,5.314,0,0,1,2.078,2.162,6.676,6.676,0,0,1,.748,3.187v.589a6.686,6.686,0,0,1-.734,3.172,5.267,5.267,0,0,1-2.07,2.154,6.037,6.037,0,0,1-3.015.773Zm2.637-10.661v8.543h1.274a2.864,2.864,0,0,0,2.365-1.011,4.567,4.567,0,0,0,.835-2.891V340.3a4.638,4.638,0,0,0-.809-2.957,2.853,2.853,0,0,0-2.364-1.007Z" fill="#c38b2a"/>
        <path id="Trazado_222451" data-name="Trazado 222451" d="M270.84,347.175a4.668,4.668,0,0,1-3.406-1.283,4.56,4.56,0,0,1-1.314-3.419v-.246a5.743,5.743,0,0,1,.554-2.561,4.068,4.068,0,0,1,1.569-1.741,4.407,4.407,0,0,1,2.316-.611,3.946,3.946,0,0,1,3.072,1.231,5,5,0,0,1,1.12,3.489v1.037H268.7a2.359,2.359,0,0,0,.742,1.494,2.245,2.245,0,0,0,1.569.563,2.742,2.742,0,0,0,2.294-1.064l1.248,1.4a3.794,3.794,0,0,1-1.547,1.26,5.07,5.07,0,0,1-2.162.453m-.29-7.813a1.587,1.587,0,0,0-1.226.512,2.651,2.651,0,0,0-.6,1.466h3.533v-.2a1.888,1.888,0,0,0-.457-1.31,1.634,1.634,0,0,0-1.248-.464" fill="#c38b2a"/>
        <path id="Trazado_222452" data-name="Trazado 222452" d="M281.343,344.372a.817.817,0,0,0-.461-.733,5.251,5.251,0,0,0-1.481-.48q-3.393-.711-3.393-2.883a2.616,2.616,0,0,1,1.05-2.114,4.247,4.247,0,0,1,2.747-.848,4.563,4.563,0,0,1,2.9.853,2.685,2.685,0,0,1,1.085,2.215h-2.54a1.234,1.234,0,0,0-.351-.9,1.5,1.5,0,0,0-1.1-.355,1.52,1.52,0,0,0-.993.29.916.916,0,0,0-.352.738.783.783,0,0,0,.4.681,4.094,4.094,0,0,0,1.349.449,11.063,11.063,0,0,1,1.6.426,2.628,2.628,0,0,1,2.013,2.558,2.478,2.478,0,0,1-1.116,2.1,4.813,4.813,0,0,1-2.883.8,5.048,5.048,0,0,1-2.123-.426,3.551,3.551,0,0,1-1.454-1.17,2.71,2.71,0,0,1-.528-1.6h2.408a1.331,1.331,0,0,0,.5,1.038,1.99,1.99,0,0,0,1.248.36,1.849,1.849,0,0,0,1.1-.276.865.865,0,0,0,.374-.726" fill="#c38b2a"/>
        <path id="Trazado_222453" data-name="Trazado 222453" d="M290.958,347a2.783,2.783,0,0,1-.255-.853,3.073,3.073,0,0,1-2.4,1.028,3.379,3.379,0,0,1-2.316-.808,2.6,2.6,0,0,1-.918-2.039,2.686,2.686,0,0,1,1.121-2.321,5.529,5.529,0,0,1,3.238-.817H290.6v-.545a1.572,1.572,0,0,0-.338-1.055,1.335,1.335,0,0,0-1.068-.395,1.507,1.507,0,0,0-1.006.308,1.042,1.042,0,0,0-.365.843h-2.54a2.552,2.552,0,0,1,.51-1.529,3.365,3.365,0,0,1,1.441-1.1,5.263,5.263,0,0,1,2.092-.4,4.152,4.152,0,0,1,2.79.883,3.091,3.091,0,0,1,1.033,2.483V344.8a4.549,4.549,0,0,0,.378,2.048V347Zm-2.1-1.767a2.175,2.175,0,0,0,1.037-.251,1.634,1.634,0,0,0,.7-.672v-1.635h-.949q-1.906,0-2.03,1.319l-.009.149a1.014,1.014,0,0,0,.334.782,1.3,1.3,0,0,0,.914.308" fill="#c38b2a"/>
        <path id="Trazado_222454" data-name="Trazado 222454" d="M300.441,339.872a6.874,6.874,0,0,0-.914-.07,1.861,1.861,0,0,0-1.89.975V347H295.1v-9.51h2.4l.07,1.134a2.354,2.354,0,0,1,2.118-1.31,2.636,2.636,0,0,1,.791.115Z" fill="#c38b2a"/>
        <path id="Trazado_222455" data-name="Trazado 222455" d="M307.007,339.872a6.873,6.873,0,0,0-.914-.07,1.861,1.861,0,0,0-1.89.975V347h-2.54v-9.51h2.4l.07,1.134a2.354,2.354,0,0,1,2.118-1.31,2.636,2.636,0,0,1,.791.115Z" fill="#c38b2a"/>
        <path id="Trazado_222456" data-name="Trazado 222456" d="M307.517,342.156a5.642,5.642,0,0,1,.545-2.522,3.985,3.985,0,0,1,1.569-1.714,4.577,4.577,0,0,1,2.377-.606,4.33,4.33,0,0,1,3.142,1.177,4.727,4.727,0,0,1,1.358,3.2l.018.65a4.97,4.97,0,0,1-1.222,3.512,4.736,4.736,0,0,1-6.561,0,5.061,5.061,0,0,1-1.226-3.586Zm2.54.181a3.549,3.549,0,0,0,.51,2.072,1.83,1.83,0,0,0,2.9.009,3.885,3.885,0,0,0,.519-2.267,3.516,3.516,0,0,0-.519-2.059,1.686,1.686,0,0,0-1.459-.731,1.659,1.659,0,0,0-1.441.727,3.949,3.949,0,0,0-.51,2.249" fill="#c38b2a"/>
        <rect id="Rectángulo_56958" data-name="Rectángulo 56958" width="2.549" height="13.5" transform="translate(318.221 333.5)" fill="#c38b2a"/>
        <rect id="Rectángulo_56959" data-name="Rectángulo 56959" width="2.549" height="13.5" transform="translate(322.994 333.5)" fill="#c38b2a"/>
        <path id="Trazado_222457" data-name="Trazado 222457" d="M327.239,342.156a5.642,5.642,0,0,1,.545-2.522,3.986,3.986,0,0,1,1.569-1.714,4.577,4.577,0,0,1,2.377-.606,4.33,4.33,0,0,1,3.142,1.177,4.727,4.727,0,0,1,1.358,3.2l.018.65a4.97,4.97,0,0,1-1.222,3.512,4.736,4.736,0,0,1-6.561,0,5.061,5.061,0,0,1-1.226-3.586Zm2.54.181a3.549,3.549,0,0,0,.51,2.072,1.83,1.83,0,0,0,2.9.009,3.885,3.885,0,0,0,.519-2.267,3.516,3.516,0,0,0-.519-2.059,1.686,1.686,0,0,0-1.459-.731,1.659,1.659,0,0,0-1.441.727,3.949,3.949,0,0,0-.51,2.249" fill="#c38b2a"/>
        <path id="Trazado_222458" data-name="Trazado 222458" d="M341.9,342.174a5.726,5.726,0,0,1,1-3.542,3.235,3.235,0,0,1,2.729-1.318,2.912,2.912,0,0,1,2.293,1.037V333.5h2.549V347h-2.294l-.123-1.011a2.988,2.988,0,0,1-2.443,1.186,3.228,3.228,0,0,1-2.694-1.322,5.915,5.915,0,0,1-1.015-3.679m2.54.181a3.775,3.775,0,0,0,.466,2.058,1.516,1.516,0,0,0,1.353.714,1.7,1.7,0,0,0,1.661-1V340.36a1.674,1.674,0,0,0-1.643-1q-1.838,0-1.837,2.993" fill="#c38b2a"/>
        <path id="Trazado_222459" data-name="Trazado 222459" d="M356.814,347.175a4.668,4.668,0,0,1-3.406-1.283,4.56,4.56,0,0,1-1.314-3.419v-.246a5.743,5.743,0,0,1,.554-2.561,4.068,4.068,0,0,1,1.569-1.741,4.407,4.407,0,0,1,2.316-.611,3.946,3.946,0,0,1,3.072,1.231,5,5,0,0,1,1.12,3.489v1.037H354.67a2.359,2.359,0,0,0,.742,1.494,2.245,2.245,0,0,0,1.569.563,2.742,2.742,0,0,0,2.294-1.064l1.248,1.4a3.794,3.794,0,0,1-1.547,1.26,5.07,5.07,0,0,1-2.162.453m-.29-7.813a1.587,1.587,0,0,0-1.226.512,2.651,2.651,0,0,0-.6,1.466h3.533v-.2a1.888,1.888,0,0,0-.457-1.31,1.634,1.634,0,0,0-1.248-.464" fill="#c38b2a"/>
        <rect id="Rectángulo_56960" data-name="Rectángulo 56960" width="2.549" height="13.5" transform="translate(362.299 333.5)" fill="#c38b2a"/>
        <path id="Trazado_222460" data-name="Trazado 222460" d="M375.377,345.127a1.665,1.665,0,0,0,1.143-.386,1.357,1.357,0,0,0,.457-1.028h2.381a3.257,3.257,0,0,1-.527,1.771,3.469,3.469,0,0,1-1.419,1.247,4.442,4.442,0,0,1-1.991.444,4.13,4.13,0,0,1-3.217-1.3,5.131,5.131,0,0,1-1.178-3.581v-.167a5.073,5.073,0,0,1,1.169-3.507,4.079,4.079,0,0,1,3.208-1.31,4,4,0,0,1,2.861,1.016,3.588,3.588,0,0,1,1.094,2.7h-2.381a1.746,1.746,0,0,0-.457-1.206,1.7,1.7,0,0,0-2.5.182,3.754,3.754,0,0,0-.453,2.1v.265a3.794,3.794,0,0,0,.449,2.112,1.547,1.547,0,0,0,1.362.642" fill="#c38b2a"/>
        <rect id="Rectángulo_56961" data-name="Rectángulo 56961" width="2.549" height="13.5" transform="translate(380.94 333.5)" fill="#c38b2a"/>
        <path id="Trazado_222461" data-name="Trazado 222461" d="M385.563,335.029a1.252,1.252,0,0,1,.383-.941,1.647,1.647,0,0,1,2.078,0,1.342,1.342,0,0,1,0,1.89,1.629,1.629,0,0,1-2.065,0,1.246,1.246,0,0,1-.392-.949m2.7,11.971h-2.549v-9.51h2.549Z" fill="#c38b2a"/>
        <path id="Trazado_222462" data-name="Trazado 222462" d="M394.73,347.175a4.668,4.668,0,0,1-3.406-1.283,4.56,4.56,0,0,1-1.314-3.419v-.246a5.743,5.743,0,0,1,.554-2.561,4.068,4.068,0,0,1,1.569-1.741,4.407,4.407,0,0,1,2.316-.611,3.946,3.946,0,0,1,3.072,1.231,5,5,0,0,1,1.12,3.489v1.037h-6.055a2.359,2.359,0,0,0,.742,1.494,2.245,2.245,0,0,0,1.569.563,2.742,2.742,0,0,0,2.294-1.064l1.248,1.4a3.794,3.794,0,0,1-1.547,1.26,5.07,5.07,0,0,1-2.162.453m-.29-7.813a1.587,1.587,0,0,0-1.226.512,2.651,2.651,0,0,0-.6,1.466h3.533v-.2a1.888,1.888,0,0,0-.457-1.31,1.634,1.634,0,0,0-1.248-.464" fill="#c38b2a"/>
        <path id="Trazado_222463" data-name="Trazado 222463" d="M402.421,337.49l.079,1.1a3.321,3.321,0,0,1,2.734-1.275,2.757,2.757,0,0,1,2.249.888,4.132,4.132,0,0,1,.756,2.654V347H405.7v-6.1a1.658,1.658,0,0,0-.351-1.177,1.576,1.576,0,0,0-1.169-.365,1.749,1.749,0,0,0-1.609.916V347h-2.54v-9.51Z" fill="#c38b2a"/>
        <path id="Trazado_222464" data-name="Trazado 222464" d="M413.2,335.152v2.338h1.626v1.863H413.2V344.1a1.131,1.131,0,0,0,.2.756,1.018,1.018,0,0,0,.774.229,4.053,4.053,0,0,0,.747-.062v1.925a5.241,5.241,0,0,1-1.538.228,2.425,2.425,0,0,1-2.725-2.7v-5.124h-1.389V337.49h1.389v-2.338Z" fill="#c38b2a"/>
        <path id="Trazado_222465" data-name="Trazado 222465" d="M420.623,347.175a4.668,4.668,0,0,1-3.406-1.283,4.56,4.56,0,0,1-1.314-3.419v-.246a5.743,5.743,0,0,1,.554-2.561,4.068,4.068,0,0,1,1.569-1.741,4.407,4.407,0,0,1,2.316-.611,3.946,3.946,0,0,1,3.072,1.231,5,5,0,0,1,1.12,3.489v1.037h-6.055a2.359,2.359,0,0,0,.742,1.494,2.245,2.245,0,0,0,1.569.563,2.742,2.742,0,0,0,2.294-1.064l1.248,1.4a3.794,3.794,0,0,1-1.547,1.26,5.07,5.07,0,0,1-2.162.453m-.29-7.813a1.587,1.587,0,0,0-1.226.512,2.651,2.651,0,0,0-.6,1.466h3.533v-.2a1.888,1.888,0,0,0-.457-1.31,1.634,1.634,0,0,0-1.248-.464" fill="#c38b2a"/>
      </g>
    </g>
    <path id="Trazado_222466" data-name="Trazado 222466" d="M240.334,40.849H219.078V192.02L210,201.1l9.078,9.078V385.2h21.256" fill="none" stroke="#174a84" stroke-width="1.5"/>
    <path id="Trazado_222467" data-name="Trazado 222467" d="M665.3,41H820v68.263H628" fill="none" stroke="#8c5be1" stroke-width="1"/>
    <path id="Trazado_222468" data-name="Trazado 222468" d="M615.9,128H725v68.263H577.5" fill="none" stroke="#43a99b" stroke-width="1"/>
    <path id="Trazado_222469" data-name="Trazado 222469" d="M564.6,215.3h97.331v68.263H524.25" fill="none" stroke="#0b67d1" stroke-width="1"/>
    <path id="Trazado_222470" data-name="Trazado 222470" d="M515.67,302.534H841V382.52H472.323" fill="none" stroke="#eeac3a" stroke-width="1"/>
    <g id="Grupo_176907" data-name="Grupo 176907">
      <g id="Grupo_176906" data-name="Grupo 176906" clip-path="url(#clip-path)">
        <g id="Grupo_176902" data-name="Grupo 176902" opacity="0.65">
          <g id="Grupo_176901" data-name="Grupo 176901">
            <g id="Grupo_176900" data-name="Grupo 176900" clip-path="url(#clip-path-7)">
              <rect id="Rectángulo_56963" data-name="Rectángulo 56963" width="24.393" height="81.918" transform="translate(994.726)" fill="#def2f4"/>
              <rect id="Rectángulo_56964" data-name="Rectángulo 56964" width="4.145" height="4.145" transform="translate(1025.855 22.197)" fill="#7f4fc7"/>
              <rect id="Rectángulo_56965" data-name="Rectángulo 56965" width="4.145" height="4.145" transform="translate(1025.855 31.005)" fill="#7f4fc7"/>
              <rect id="Rectángulo_56966" data-name="Rectángulo 56966" width="4.145" height="4.145" transform="translate(1025.855 39.813)" fill="#7f4fc7"/>
              <rect id="Rectángulo_56967" data-name="Rectángulo 56967" width="4.145" height="4.145" transform="translate(1025.855 48.622)" fill="#7f4fc7"/>
              <rect id="Rectángulo_56968" data-name="Rectángulo 56968" width="4.145" height="4.145" transform="translate(1025.855 57.43)" fill="#7f4fc7"/>
              <rect id="Rectángulo_56969" data-name="Rectángulo 56969" width="4.145" height="4.145" transform="translate(1025.855 66.238)" fill="#7f4fc7"/>
              <rect id="Rectángulo_56970" data-name="Rectángulo 56970" width="4.145" height="4.145" transform="translate(1025.855 75.047)" fill="#7f4fc7"/>
              <rect id="Rectángulo_56971" data-name="Rectángulo 56971" width="4.145" height="4.145" transform="translate(1025.855 83.855)" fill="#7f4fc7"/>
              <rect id="Rectángulo_56972" data-name="Rectángulo 56972" width="4.145" height="4.145" transform="translate(1017.046 22.197)" fill="#7f4fc7"/>
              <rect id="Rectángulo_56973" data-name="Rectángulo 56973" width="4.145" height="4.145" transform="translate(1017.046 31.005)" fill="#7f4fc7"/>
              <rect id="Rectángulo_56974" data-name="Rectángulo 56974" width="4.145" height="4.145" transform="translate(1017.046 39.813)" fill="#7f4fc7"/>
              <rect id="Rectángulo_56975" data-name="Rectángulo 56975" width="4.145" height="4.145" transform="translate(1017.046 48.622)" fill="#7f4fc7"/>
              <rect id="Rectángulo_56976" data-name="Rectángulo 56976" width="4.145" height="4.145" transform="translate(1017.046 57.43)" fill="#7f4fc7"/>
              <rect id="Rectángulo_56977" data-name="Rectángulo 56977" width="4.145" height="4.145" transform="translate(1017.046 66.238)" fill="#7f4fc7"/>
              <rect id="Rectángulo_56978" data-name="Rectángulo 56978" width="4.145" height="4.145" transform="translate(1017.046 75.047)" fill="#7f4fc7"/>
              <rect id="Rectángulo_56979" data-name="Rectángulo 56979" width="4.145" height="4.145" transform="translate(1017.046 83.855)" fill="#7f4fc7"/>
              <rect id="Rectángulo_56980" data-name="Rectángulo 56980" width="4.145" height="4.145" transform="translate(1008.238 22.197)" fill="#7f4fc7"/>
              <rect id="Rectángulo_56981" data-name="Rectángulo 56981" width="4.145" height="4.145" transform="translate(1008.238 31.005)" fill="#7f4fc7"/>
              <rect id="Rectángulo_56982" data-name="Rectángulo 56982" width="4.145" height="4.145" transform="translate(1008.238 39.813)" fill="#7f4fc7"/>
              <rect id="Rectángulo_56983" data-name="Rectángulo 56983" width="4.145" height="4.145" transform="translate(1008.238 48.622)" fill="#7f4fc7"/>
              <rect id="Rectángulo_56984" data-name="Rectángulo 56984" width="4.145" height="4.145" transform="translate(1008.238 57.43)" fill="#7f4fc7"/>
              <rect id="Rectángulo_56985" data-name="Rectángulo 56985" width="4.145" height="4.145" transform="translate(1008.238 66.238)" fill="#7f4fc7"/>
              <rect id="Rectángulo_56986" data-name="Rectángulo 56986" width="4.145" height="4.145" transform="translate(1008.238 75.047)" fill="#7f4fc7"/>
              <rect id="Rectángulo_56987" data-name="Rectángulo 56987" width="4.145" height="4.145" transform="translate(1008.238 83.855)" fill="#7f4fc7"/>
            </g>
          </g>
        </g>
        <g id="Grupo_176905" data-name="Grupo 176905" opacity="0.65">
          <g id="Grupo_176904" data-name="Grupo 176904">
            <g id="Grupo_176903" data-name="Grupo 176903" clip-path="url(#clip-path-8)">
              <rect id="Rectángulo_56989" data-name="Rectángulo 56989" width="24.393" height="81.918" transform="translate(11.726 294.521)" fill="#fff"/>
              <rect id="Rectángulo_56990" data-name="Rectángulo 56990" width="4.145" height="4.145" transform="translate(42.855 316.718)" fill="#7f4fc7"/>
              <rect id="Rectángulo_56991" data-name="Rectángulo 56991" width="4.145" height="4.145" transform="translate(42.855 325.526)" fill="#7f4fc7"/>
              <rect id="Rectángulo_56992" data-name="Rectángulo 56992" width="4.145" height="4.145" transform="translate(42.855 334.334)" fill="#7f4fc7"/>
              <rect id="Rectángulo_56993" data-name="Rectángulo 56993" width="4.145" height="4.145" transform="translate(42.855 343.143)" fill="#7f4fc7"/>
              <rect id="Rectángulo_56994" data-name="Rectángulo 56994" width="4.145" height="4.145" transform="translate(42.855 351.951)" fill="#7f4fc7"/>
              <rect id="Rectángulo_56995" data-name="Rectángulo 56995" width="4.145" height="4.145" transform="translate(42.855 360.759)" fill="#7f4fc7"/>
              <rect id="Rectángulo_56996" data-name="Rectángulo 56996" width="4.145" height="4.145" transform="translate(42.855 369.568)" fill="#7f4fc7"/>
              <rect id="Rectángulo_56997" data-name="Rectángulo 56997" width="4.145" height="4.145" transform="translate(42.855 378.376)" fill="#7f4fc7"/>
              <rect id="Rectángulo_56998" data-name="Rectángulo 56998" width="4.145" height="4.145" transform="translate(34.046 316.718)" fill="#7f4fc7"/>
              <rect id="Rectángulo_56999" data-name="Rectángulo 56999" width="4.145" height="4.145" transform="translate(34.046 325.526)" fill="#7f4fc7"/>
              <rect id="Rectángulo_57000" data-name="Rectángulo 57000" width="4.145" height="4.145" transform="translate(34.046 334.334)" fill="#7f4fc7"/>
              <rect id="Rectángulo_57001" data-name="Rectángulo 57001" width="4.145" height="4.145" transform="translate(34.046 343.143)" fill="#7f4fc7"/>
              <rect id="Rectángulo_57002" data-name="Rectángulo 57002" width="4.145" height="4.145" transform="translate(34.046 351.951)" fill="#7f4fc7"/>
              <rect id="Rectángulo_57003" data-name="Rectángulo 57003" width="4.145" height="4.145" transform="translate(34.046 360.759)" fill="#7f4fc7"/>
              <rect id="Rectángulo_57004" data-name="Rectángulo 57004" width="4.145" height="4.145" transform="translate(34.046 369.568)" fill="#7f4fc7"/>
              <rect id="Rectángulo_57005" data-name="Rectángulo 57005" width="4.145" height="4.145" transform="translate(34.046 378.376)" fill="#7f4fc7"/>
              <rect id="Rectángulo_57006" data-name="Rectángulo 57006" width="4.145" height="4.145" transform="translate(25.238 316.718)" fill="#7f4fc7"/>
              <rect id="Rectángulo_57007" data-name="Rectángulo 57007" width="4.145" height="4.145" transform="translate(25.238 325.526)" fill="#7f4fc7"/>
              <rect id="Rectángulo_57008" data-name="Rectángulo 57008" width="4.145" height="4.145" transform="translate(25.238 334.334)" fill="#7f4fc7"/>
              <rect id="Rectángulo_57009" data-name="Rectángulo 57009" width="4.145" height="4.145" transform="translate(25.238 343.143)" fill="#7f4fc7"/>
              <rect id="Rectángulo_57010" data-name="Rectángulo 57010" width="4.145" height="4.145" transform="translate(25.238 351.951)" fill="#7f4fc7"/>
              <rect id="Rectángulo_57011" data-name="Rectángulo 57011" width="4.145" height="4.145" transform="translate(25.238 360.759)" fill="#7f4fc7"/>
              <rect id="Rectángulo_57012" data-name="Rectángulo 57012" width="4.145" height="4.145" transform="translate(25.238 369.568)" fill="#7f4fc7"/>
              <rect id="Rectángulo_57013" data-name="Rectángulo 57013" width="4.145" height="4.145" transform="translate(25.238 378.376)" fill="#7f4fc7"/>
            </g>
          </g>
        </g>
      </g>
    </g>
    <rect id="Rectángulo_57016" data-name="Rectángulo 57016" width="200" height="2" transform="translate(255 351)" fill="#eeac3a"/>
  </g>
</svg>
