<svg xmlns="http://www.w3.org/2000/svg" width="138.886" height="121.909" viewBox="0 0 138.886 121.909">
  <g id="Grupo_177346" data-name="Grupo 177346" transform="translate(-1170 4428.087)">
    <path id="Trazado_226204" data-name="Trazado 226204" d="M109.35,103.051s75.679-56.759,24.484-71.783S29.776-21.04,15.865,15.687s23.928,52.307,6.121,72.34,22.258,56.2,87.365,15.024" transform="translate(1157.278 -4428.087)" fill="#fff"/>
    <g id="Layer_1_00000035530295354740822520000017378134644457070245_" transform="translate(946.7 -4699.009)">
      <g id="Grupo_174776" data-name="Grupo 174776" transform="translate(238.3 288.9)">
        <g id="Grupo_174775" data-name="Grupo 174775" transform="translate(0 0)">
          <g id="Grupo_174767" data-name="Grupo 174767" transform="translate(10.953)">
            <path id="Trazado_216839" data-name="Trazado 216839" d="M600.2,315.7a13.4,13.4,0,1,1,13.4-13.4A13.417,13.417,0,0,1,600.2,315.7Zm0-23.027a9.625,9.625,0,1,0,9.623,9.626A9.636,9.636,0,0,0,600.2,292.674Z" transform="translate(-586.8 -288.9)" fill-rule="evenodd"/>
          </g>
          <g id="Grupo_174768" data-name="Grupo 174768" transform="translate(0 29.329)">
            <path id="Trazado_216840" data-name="Trazado 216840" d="M279.223,1262.693h-4.343a1.889,1.889,0,0,1,0-3.778h4.343a4.018,4.018,0,0,0,4.013-4.013v-12.508a16.538,16.538,0,0,0-16.519-16.519h-8.124a16.541,16.541,0,0,0-16.522,16.519V1254.9a4.018,4.018,0,0,0,4.013,4.013h4.343a1.889,1.889,0,1,1,0,3.778h-4.34a7.8,7.8,0,0,1-7.788-7.788V1242.4a20.319,20.319,0,0,1,20.3-20.3h8.121a20.319,20.319,0,0,1,20.3,20.3V1254.9A7.8,7.8,0,0,1,279.223,1262.693Z" transform="translate(-238.3 -1222.1)" fill-rule="evenodd"/>
          </g>
          <g id="Grupo_174769" data-name="Grupo 174769" transform="translate(10.242 57.649)">
            <path id="Trazado_216841" data-name="Trazado 216841" d="M578.311,2169.469h-6.936c-3.957,0-7.175-3.724-7.175-8.3v-36.076a1.889,1.889,0,1,1,3.778,0v36.076c0,2.454,1.556,4.526,3.4,4.526h5.051v-32.883a1.889,1.889,0,1,1,3.778,0v34.775A1.893,1.893,0,0,1,578.311,2169.469Z" transform="translate(-564.2 -2123.2)" fill-rule="evenodd"/>
          </g>
          <g id="Grupo_174770" data-name="Grupo 174770" transform="translate(22.465 57.649)">
            <path id="Trazado_216842" data-name="Trazado 216842" d="M961.928,2169.469h-6.939a1.889,1.889,0,0,1,0-3.778h6.939c1.842,0,3.4-2.071,3.4-4.526v-36.076a1.889,1.889,0,1,1,3.778,0v36.076C969.1,2165.744,965.885,2169.469,961.928,2169.469Z" transform="translate(-953.1 -2123.2)" fill-rule="evenodd"/>
          </g>
          <g id="Grupo_174771" data-name="Grupo 174771" transform="translate(67.015)">
            <path id="Trazado_216843" data-name="Trazado 216843" d="M2384,315.7a13.4,13.4,0,1,1,13.4-13.4A13.417,13.417,0,0,1,2384,315.7Zm0-23.027a9.623,9.623,0,1,0,9.623,9.623A9.634,9.634,0,0,0,2384,292.674Z" transform="translate(-2370.6 -288.9)" fill-rule="evenodd"/>
          </g>
          <g id="Grupo_174772" data-name="Grupo 174772" transform="translate(53.953 29.329)">
            <path id="Trazado_216844" data-name="Trazado 216844" d="M2000.127,1262.693h-2.734a1.889,1.889,0,1,1,0-3.778h2.734a3.841,3.841,0,0,0,3.108-1.477,3.9,3.9,0,0,0,.808-3.41c-2.577-12.543-5.786-28.154-18.521-28.154H1977.4c-12.763,0-15.959,15.692-18.533,28.219a4.013,4.013,0,0,0,3.929,4.821h2.734a1.889,1.889,0,1,1,0,3.778H1962.8a7.779,7.779,0,0,1-7.631-9.356l.013-.066c2.7-13.153,6.408-31.171,22.22-31.171h8.121c15.812,0,19.514,18.015,22.22,31.171a7.787,7.787,0,0,1-7.612,9.422Z" transform="translate(-1955.002 -1222.1)" fill-rule="evenodd"/>
          </g>
          <g id="Grupo_174773" data-name="Grupo 174773" transform="translate(61.356 48.978)">
            <path id="Trazado_216845" data-name="Trazado 216845" d="M2215.948,1902.262H2203.3a7.8,7.8,0,0,1-7.788-7.788l-.009-16.585a7.789,7.789,0,0,1-4.391-10.079l7.5-19.291a1.889,1.889,0,1,1,3.52,1.37l-7.5,19.291a3.865,3.865,0,0,0,.427,3.721,3.817,3.817,0,0,0,2.624,1.694,1.888,1.888,0,0,1,1.594,1.864l.012,18.018a4.018,4.018,0,0,0,4.013,4.013l12.65,0a4.018,4.018,0,0,0,4.013-4.013v-17.942a1.89,1.89,0,0,1,1.584-1.864,4.019,4.019,0,0,0,2.646-1.772,3.857,3.857,0,0,0,.427-3.721l-7.5-19.291a1.889,1.889,0,1,1,3.52-1.37l7.5,19.291a7.9,7.9,0,0,1-4.4,10.142v16.522A7.809,7.809,0,0,1,2215.948,1902.262Z" transform="translate(-2190.565 -1847.31)" fill-rule="evenodd"/>
          </g>
          <g id="Grupo_174774" data-name="Grupo 174774" transform="translate(78.527 78.91)">
            <path id="Trazado_216846" data-name="Trazado 216846" d="M2738.789,2824.72a1.889,1.889,0,0,1-1.889-1.889v-21.242a1.889,1.889,0,1,1,3.778,0v21.242A1.893,1.893,0,0,1,2738.789,2824.72Z" transform="translate(-2736.9 -2799.7)" fill-rule="evenodd"/>
          </g>
        </g>
      </g>
    </g>
  </g>
</svg>
