<svg xmlns="http://www.w3.org/2000/svg" width="190" height="125" viewBox="0 0 190 125">
  <g id="Grupo_174812" data-name="Grupo 174812" transform="translate(-180 -1172)">
    <g id="Grupo_174794" data-name="Grupo 174794" transform="translate(195 1172.137)" opacity="0.65">
      <g id="Grupo_152551" data-name="Grupo 152551" transform="translate(0 77.964) rotate(-90)">
        <rect id="Rectángulo_45220" data-name="Rectángulo 45220" width="72.576" height="21.611" transform="translate(77.964 21.611) rotate(180)" fill="#fff"/>
        <g id="Grupo_152556" data-name="Grupo 152556" transform="translate(0 11.971)">
          <rect id="Rectángulo_45221" data-name="Rectángulo 45221" width="3.672" height="3.672" transform="translate(54.626 15.608)" fill="#7f4fc7"/>
          <rect id="Rectángulo_45222" data-name="Rectángulo 45222" width="3.672" height="3.672" transform="translate(46.823 15.608)" fill="#7f4fc7"/>
          <rect id="Rectángulo_45223" data-name="Rectángulo 45223" width="3.672" height="3.672" transform="translate(39.019 15.608)" fill="#7f4fc7"/>
          <rect id="Rectángulo_45224" data-name="Rectángulo 45224" width="3.672" height="3.672" transform="translate(31.215 15.608)" fill="#7f4fc7"/>
          <rect id="Rectángulo_45225" data-name="Rectángulo 45225" width="3.672" height="3.672" transform="translate(23.411 15.608)" fill="#7f4fc7"/>
          <rect id="Rectángulo_45226" data-name="Rectángulo 45226" width="3.672" height="3.672" transform="translate(15.608 15.608)" fill="#7f4fc7"/>
          <rect id="Rectángulo_45227" data-name="Rectángulo 45227" width="3.672" height="3.672" transform="translate(7.804 15.608)" fill="#7f4fc7"/>
          <rect id="Rectángulo_45228" data-name="Rectángulo 45228" width="3.672" height="3.672" transform="translate(0 15.608)" fill="#7f4fc7"/>
          <rect id="Rectángulo_45232" data-name="Rectángulo 45232" width="3.672" height="3.672" transform="translate(54.626 7.804)" fill="#7f4fc7"/>
          <rect id="Rectángulo_45233" data-name="Rectángulo 45233" width="3.672" height="3.672" transform="translate(46.823 7.804)" fill="#7f4fc7"/>
          <rect id="Rectángulo_45234" data-name="Rectángulo 45234" width="3.672" height="3.672" transform="translate(39.019 7.804)" fill="#7f4fc7"/>
          <rect id="Rectángulo_45235" data-name="Rectángulo 45235" width="3.672" height="3.672" transform="translate(31.215 7.804)" fill="#7f4fc7"/>
          <rect id="Rectángulo_45236" data-name="Rectángulo 45236" width="3.672" height="3.672" transform="translate(23.411 7.804)" fill="#7f4fc7"/>
          <rect id="Rectángulo_45237" data-name="Rectángulo 45237" width="3.672" height="3.672" transform="translate(15.608 7.804)" fill="#7f4fc7"/>
          <rect id="Rectángulo_45238" data-name="Rectángulo 45238" width="3.672" height="3.672" transform="translate(7.804 7.804)" fill="#7f4fc7"/>
          <rect id="Rectángulo_45239" data-name="Rectángulo 45239" width="3.672" height="3.672" transform="translate(0 7.804)" fill="#7f4fc7"/>
          <rect id="Rectángulo_45243" data-name="Rectángulo 45243" width="3.672" height="3.672" transform="translate(54.626)" fill="#7f4fc7"/>
          <rect id="Rectángulo_45244" data-name="Rectángulo 45244" width="3.672" height="3.672" transform="translate(46.823)" fill="#7f4fc7"/>
          <rect id="Rectángulo_45245" data-name="Rectángulo 45245" width="3.672" height="3.672" transform="translate(39.019)" fill="#7f4fc7"/>
          <rect id="Rectángulo_45246" data-name="Rectángulo 45246" width="3.672" height="3.672" transform="translate(31.215)" fill="#7f4fc7"/>
          <rect id="Rectángulo_45247" data-name="Rectángulo 45247" width="3.672" height="3.672" transform="translate(23.411)" fill="#7f4fc7"/>
          <rect id="Rectángulo_45248" data-name="Rectángulo 45248" width="3.672" height="3.672" transform="translate(15.608)" fill="#7f4fc7"/>
          <rect id="Rectángulo_45249" data-name="Rectángulo 45249" width="3.672" height="3.672" transform="translate(7.804)" fill="#7f4fc7"/>
          <rect id="Rectángulo_45250" data-name="Rectángulo 45250" width="3.672" height="3.672" fill="#7f4fc7"/>
        </g>
      </g>
    </g>
    <g id="afiliacion" transform="translate(222.251 1177.252)">
      <g id="Grupo_174796" data-name="Grupo 174796" transform="translate(24.603)">
        <path id="Trazado_216921" data-name="Trazado 216921" d="M161.539,119.5H101.462a5.107,5.107,0,0,1-5.107-5.107V5.107A5.107,5.107,0,0,1,101.462,0h60.078a5.107,5.107,0,0,1,5.107,5.107V114.39A5.107,5.107,0,0,1,161.539,119.5Z" transform="translate(-96.355)" fill="#0b67d1"/>
        <path id="Trazado_216922" data-name="Trazado 216922" d="M112.7,164.526V67.447h61.946v97.079a1.021,1.021,0,0,1-1.021,1.021h-59.9A1.021,1.021,0,0,1,112.7,164.526Z" transform="translate(-108.525 -50.225)" fill="#fff"/>
        <g id="Grupo_174795" data-name="Grupo 174795" transform="translate(0 13.047)">
          <path id="Trazado_216923" data-name="Trazado 216923" d="M311.792,69.221h-.368a8.6,8.6,0,0,1-8.6-8.6V51.1h17.573v9.523A8.6,8.6,0,0,1,311.792,69.221Z" transform="translate(-250.104 -51.096)" fill="#afafaf"/>
          <path id="Trazado_216924" data-name="Trazado 216924" d="M242.969,69.221H242.6a8.6,8.6,0,0,1-8.6-8.6V51.1h17.573v9.523a8.6,8.6,0,0,1-8.6,8.6Z" transform="translate(-198.854 -51.096)" fill="#ffd085"/>
          <path id="Trazado_216925" data-name="Trazado 216925" d="M165.178,60.431V51.1h17.573V60.43a8.786,8.786,0,1,1-17.573,0Z" transform="translate(-147.605 -51.096)" fill="#afafaf"/>
          <path id="Trazado_216926" data-name="Trazado 216926" d="M105.325,69.221h-.368a8.6,8.6,0,0,1-8.6-8.6V51.1h17.573v9.523A8.6,8.6,0,0,1,105.325,69.221Z" transform="translate(-96.355 -51.096)" fill="#ffd085"/>
        </g>
        <path id="Trazado_216927" data-name="Trazado 216927" d="M224.228,22.467h-6.47a1.277,1.277,0,1,1,0-2.553h6.47a1.277,1.277,0,1,1,0,2.553Z" transform="translate(-185.809 -14.829)" fill="#fff"/>
      </g>
      <g id="Grupo_174798" data-name="Grupo 174798" transform="translate(43.579 40.604)">
        <g id="Grupo_174797" data-name="Grupo 174797">
          <ellipse id="Elipse_6119" data-name="Elipse 6119" cx="16.169" cy="16.178" rx="16.169" ry="16.178" fill="#eeac3a"/>
          <path id="Trazado_216928" data-name="Trazado 216928" d="M215.382,186.571v-4.852a6.79,6.79,0,0,1,2.794,1.26,1.238,1.238,0,0,0,.687.217,1.415,1.415,0,0,0,1.412-1.395,1.271,1.271,0,0,0-.375-.906,7.943,7.943,0,0,0-4.532-1.871V177.44a1.035,1.035,0,0,0-1.023-1.043,1.063,1.063,0,0,0-1.127,1.043v1.528c-3.262.286-5.537,2.385-5.537,5.115,0,3.3,2.616,4.3,5.537,5.091v5.56a7.45,7.45,0,0,1-3.635-1.655,1.394,1.394,0,0,0-.838-.3,1.425,1.425,0,0,0-1.328,1.438,1.271,1.271,0,0,0,.372.9,8.808,8.808,0,0,0,5.443,2.242v1.465a1.065,1.065,0,0,0,1.1,1.043,1.046,1.046,0,0,0,1.046-1.045v-1.5c3.514-.28,5.61-2.3,5.61-5.409,0-3.519-2.89-4.611-5.61-5.354Zm2.626,5.676c0,1.026-.691,2.222-2.625,2.518v-4.949C216.969,190.287,218.02,190.885,218.007,192.247ZM213.232,181.6v4.414c-1.393-.418-2.538-.872-2.538-2.108S211.689,181.774,213.232,181.6Z" transform="translate(-198.035 -171.958)" fill="#fff"/>
        </g>
        <path id="Trazado_216929" data-name="Trazado 216929" d="M202.226,395.522H185.2a5.3,5.3,0,0,1-5.3-5.3v-.232a5.3,5.3,0,0,1,5.3-5.3h17.024a5.3,5.3,0,0,1,5.3,5.3v.232A5.3,5.3,0,0,1,202.226,395.522Z" transform="translate(-177.545 -327.067)" fill="#fdbf38"/>
        <path id="Trazado_216930" data-name="Trazado 216930" d="M221.43,326.307l-1.759-1.438a1.277,1.277,0,1,1,1.616-1.977l.826.675,3.686-4.016a1.277,1.277,0,1,1,1.881,1.726l-4.5,4.9a1.3,1.3,0,0,1-1.749.125Z" transform="translate(-206.811 -278.254)" fill="#dfdef9"/>
      </g>
      <g id="Grupo_174811" data-name="Grupo 174811" transform="translate(0 71.259)">
        <g id="Grupo_174801" data-name="Grupo 174801" transform="translate(0 14.243)">
          <path id="Trazado_216931" data-name="Trazado 216931" d="M52.074,339.969V363.75a5.107,5.107,0,0,1-5.107,5.107H5.107A5.107,5.107,0,0,1,0,363.75V339.969a5.107,5.107,0,0,1,5.107-5.107h41.86A5.107,5.107,0,0,1,52.074,339.969Z" transform="translate(0 -334.862)" fill="#43a99b"/>
          <g id="Grupo_174800" data-name="Grupo 174800" transform="translate(7.181 8.442)">
            <g id="Grupo_174799" data-name="Grupo 174799" transform="translate(0 9.47)">
              <path id="Trazado_216932" data-name="Trazado 216932" d="M32.338,407.567H29.4a1.277,1.277,0,1,1,0-2.553h2.936a1.277,1.277,0,1,1,0,2.553Z" transform="translate(-28.125 -405.014)" fill="#fff"/>
              <path id="Trazado_216933" data-name="Trazado 216933" d="M81.411,407.567H75.554a1.277,1.277,0,1,1,0-2.553h5.857a1.277,1.277,0,1,1,0,2.553Zm-11.714,0H63.84a1.277,1.277,0,0,1,0-2.553H69.7a1.277,1.277,0,0,1,0,2.553Z" transform="translate(-53.77 -405.014)" fill="#fff"/>
              <path id="Trazado_216934" data-name="Trazado 216934" d="M158.53,407.567h-2.936a1.277,1.277,0,0,1,0-2.553h2.936a1.277,1.277,0,0,1,0,2.553Z" transform="translate(-122.096 -405.014)" fill="#fff"/>
            </g>
            <path id="Trazado_216935" data-name="Trazado 216935" d="M52.124,370.479H29.43a1.277,1.277,0,1,1,0-2.553H52.124a1.277,1.277,0,1,1,0,2.553Z" transform="translate(-28.146 -367.926)" fill="#fff"/>
          </g>
        </g>
        <g id="Grupo_174810" data-name="Grupo 174810" transform="translate(68.935)">
          <g id="Grupo_174805" data-name="Grupo 174805" transform="translate(0 5.641)">
            <g id="Grupo_174802" data-name="Grupo 174802">
              <path id="Trazado_216936" data-name="Trazado 216936" d="M320.541,306.39a5.217,5.217,0,0,0-5.216-5.219H275.2a5.217,5.217,0,0,0-5.216,5.219v6.067h50.561Z" transform="translate(-269.98 -301.171)" fill="#636363"/>
              <path id="Trazado_216937" data-name="Trazado 216937" d="M269.98,345.369v26.093a5.217,5.217,0,0,0,5.216,5.219h40.13a5.217,5.217,0,0,0,5.216-5.219V345.369Z" transform="translate(-269.98 -334.084)" fill="#afafaf"/>
            </g>
            <g id="Grupo_174804" data-name="Grupo 174804" transform="translate(8.606 20.94)">
              <g id="Grupo_174803" data-name="Grupo 174803" transform="translate(21.352)">
                <path id="Trazado_216938" data-name="Trazado 216938" d="M396.754,395.183h-6.89a2.553,2.553,0,0,1-2.553-2.553v-6.9a2.553,2.553,0,0,1,2.553-2.553h6.89a2.553,2.553,0,0,1,2.553,2.553v6.9A2.553,2.553,0,0,1,396.754,395.183Z" transform="translate(-387.311 -383.18)" fill="#fff"/>
              </g>
              <path id="Trazado_216939" data-name="Trazado 216939" d="M313.129,395.183h-6.89a2.553,2.553,0,0,1-2.553-2.553v-6.9a2.553,2.553,0,0,1,2.553-2.553h6.89a2.553,2.553,0,0,1,2.553,2.553v6.9A2.553,2.553,0,0,1,313.129,395.183Z" transform="translate(-303.686 -383.18)" fill="#fff"/>
            </g>
          </g>
          <g id="Grupo_174809" data-name="Grupo 174809" transform="translate(11.808)">
            <g id="Grupo_174807" data-name="Grupo 174807" transform="translate(24.392)">
              <g id="Grupo_174806" data-name="Grupo 174806">
                <path id="Trazado_216940" data-name="Trazado 216940" d="M413.032,291.739a1.276,1.276,0,0,1-1.277-1.277V280.356a1.277,1.277,0,0,1,2.553,0v10.107A1.276,1.276,0,0,1,413.032,291.739Z" transform="translate(-411.755 -279.079)" fill="#eeac3a"/>
              </g>
            </g>
            <g id="Grupo_174808" data-name="Grupo 174808">
              <path id="Trazado_216941" data-name="Trazado 216941" d="M317.5,291.739a1.276,1.276,0,0,1-1.277-1.277V280.356a1.277,1.277,0,0,1,2.553,0v10.107A1.277,1.277,0,0,1,317.5,291.739Z" transform="translate(-316.227 -279.079)" fill="#eeac3a"/>
            </g>
          </g>
        </g>
      </g>
    </g>
    <rect id="Rectángulo_55806" data-name="Rectángulo 55806" width="190" height="125" transform="translate(180 1172)" fill="none"/>
  </g>
</svg>
