<svg xmlns="http://www.w3.org/2000/svg" width="49.208" height="42.024" viewBox="0 0 49.208 42.024">
  <g id="Grupo_177324" data-name="Grupo 177324" transform="translate(-3586 5829)">
    <g id="Grupo_177323" data-name="Grupo 177323" transform="translate(3586 -5768.231) rotate(-90)">
      <rect id="Rectángulo_45220" data-name="Rectángulo 45220" width="28.614" height="28.408" transform="translate(60.769 28.408) rotate(180)" fill="#a680e1"/>
      <g id="Grupo_152581" data-name="Grupo 152581" transform="translate(22.769 21.164)">
        <g id="Grupo_152556" data-name="Grupo 152556" transform="translate(0 15.183)">
          <rect id="Rectángulo_45221" data-name="Rectángulo 45221" width="2.45" height="2.45" transform="translate(26.03 10.412)" fill="#fff"/>
          <rect id="Rectángulo_45222" data-name="Rectángulo 45222" width="2.45" height="2.45" transform="translate(20.824 10.412)" fill="#fff"/>
          <rect id="Rectángulo_45223" data-name="Rectángulo 45223" width="2.45" height="2.45" transform="translate(15.618 10.412)" fill="#fff"/>
          <rect id="Rectángulo_45224" data-name="Rectángulo 45224" width="2.45" height="2.45" transform="translate(10.412 10.412)" fill="#fff"/>
          <rect id="Rectángulo_45225" data-name="Rectángulo 45225" width="2.45" height="2.45" transform="translate(5.206 10.412)" fill="#fff"/>
          <rect id="Rectángulo_45226" data-name="Rectángulo 45226" width="2.45" height="2.45" transform="translate(0 10.412)" fill="#fff"/>
          <rect id="Rectángulo_45232" data-name="Rectángulo 45232" width="2.45" height="2.45" transform="translate(26.03 5.206)" fill="#fff"/>
          <rect id="Rectángulo_45233" data-name="Rectángulo 45233" width="2.45" height="2.45" transform="translate(20.824 5.206)" fill="#fff"/>
          <rect id="Rectángulo_45234" data-name="Rectángulo 45234" width="2.45" height="2.45" transform="translate(15.618 5.206)" fill="#fff"/>
          <rect id="Rectángulo_45235" data-name="Rectángulo 45235" width="2.45" height="2.45" transform="translate(10.412 5.206)" fill="#fff"/>
          <rect id="Rectángulo_45236" data-name="Rectángulo 45236" width="2.45" height="2.45" transform="translate(5.206 5.206)" fill="#fff"/>
          <rect id="Rectángulo_45237" data-name="Rectángulo 45237" width="2.45" height="2.45" transform="translate(0 5.206)" fill="#fff"/>
          <rect id="Rectángulo_45243" data-name="Rectángulo 45243" width="2.45" height="2.45" transform="translate(26.03)" fill="#fff"/>
          <rect id="Rectángulo_45244" data-name="Rectángulo 45244" width="2.45" height="2.45" transform="translate(20.824)" fill="#fff"/>
          <rect id="Rectángulo_45245" data-name="Rectángulo 45245" width="2.45" height="2.45" transform="translate(15.618)" fill="#fff"/>
          <rect id="Rectángulo_45246" data-name="Rectángulo 45246" width="2.45" height="2.45" transform="translate(10.412)" fill="#fff"/>
          <rect id="Rectángulo_45247" data-name="Rectángulo 45247" width="2.45" height="2.45" transform="translate(5.206)" fill="#fff"/>
          <rect id="Rectángulo_45248" data-name="Rectángulo 45248" width="2.45" height="2.45" fill="#fff"/>
        </g>
        <g id="Grupo_152580" data-name="Grupo 152580" transform="translate(0)">
          <rect id="Rectángulo_45221-2" data-name="Rectángulo 45221" width="2.45" height="2.45" transform="translate(26.03 10.412)" fill="#fff"/>
          <rect id="Rectángulo_45222-2" data-name="Rectángulo 45222" width="2.45" height="2.45" transform="translate(20.824 10.412)" fill="#fff"/>
          <rect id="Rectángulo_45223-2" data-name="Rectángulo 45223" width="2.45" height="2.45" transform="translate(15.618 10.412)" fill="#fff"/>
          <rect id="Rectángulo_45224-2" data-name="Rectángulo 45224" width="2.45" height="2.45" transform="translate(10.412 10.412)" fill="#fff"/>
          <rect id="Rectángulo_45225-2" data-name="Rectángulo 45225" width="2.45" height="2.45" transform="translate(5.206 10.412)" fill="#fff"/>
          <rect id="Rectángulo_45226-2" data-name="Rectángulo 45226" width="2.45" height="2.45" transform="translate(0 10.412)" fill="#fff"/>
          <rect id="Rectángulo_45232-2" data-name="Rectángulo 45232" width="2.45" height="2.45" transform="translate(26.03 5.206)" fill="#fff"/>
          <rect id="Rectángulo_45233-2" data-name="Rectángulo 45233" width="2.45" height="2.45" transform="translate(20.824 5.206)" fill="#fff"/>
          <rect id="Rectángulo_45234-2" data-name="Rectángulo 45234" width="2.45" height="2.45" transform="translate(15.618 5.206)" fill="#fff"/>
          <rect id="Rectángulo_45235-2" data-name="Rectángulo 45235" width="2.45" height="2.45" transform="translate(10.412 5.206)" fill="#fff"/>
          <rect id="Rectángulo_45236-2" data-name="Rectángulo 45236" width="2.45" height="2.45" transform="translate(5.206 5.206)" fill="#fff"/>
          <rect id="Rectángulo_45237-2" data-name="Rectángulo 45237" width="2.45" height="2.45" transform="translate(0 5.206)" fill="#fff"/>
          <rect id="Rectángulo_45243-2" data-name="Rectángulo 45243" width="2.45" height="2.45" transform="translate(26.03)" fill="#fff"/>
          <rect id="Rectángulo_45244-2" data-name="Rectángulo 45244" width="2.45" height="2.45" transform="translate(20.824)" fill="#fff"/>
          <rect id="Rectángulo_45245-2" data-name="Rectángulo 45245" width="2.45" height="2.45" transform="translate(15.618)" fill="#fff"/>
          <rect id="Rectángulo_45246-2" data-name="Rectángulo 45246" width="2.45" height="2.45" transform="translate(10.412)" fill="#fff"/>
          <rect id="Rectángulo_45247-2" data-name="Rectángulo 45247" width="2.45" height="2.45" transform="translate(5.206)" fill="#fff"/>
          <rect id="Rectángulo_45248-2" data-name="Rectángulo 45248" width="2.45" height="2.45" fill="#fff"/>
        </g>
      </g>
    </g>
    <path id="Trazado_226182" data-name="Trazado 226182" d="M23.078,15.656v-.163a2.213,2.213,0,0,0-2.206-2.206H15.543c-1.6-.078-3.971.01-4.536-.739a2.489,2.489,0,0,1-.226-2.232C14.4,5.29,10.83-.722,8.45.071s.3,6.144-2.214,8.393-3.3,6.685-3.3,6.685L0,15.031V29.667H2.587c3.369,3.888,12.38,1.765,14.462,1.209h3.667a1.868,1.868,0,0,0,1.863-1.863v-.138a1.868,1.868,0,0,0-1.863-1.863h.157a2.213,2.213,0,0,0,2.206-2.206v-.163a2.213,2.213,0,0,0-2.206-2.206,2.213,2.213,0,0,0,2.206-2.206v-.163a2.213,2.213,0,0,0-2.206-2.206,2.213,2.213,0,0,0,2.206-2.206" transform="matrix(0.951, -0.309, 0.309, 0.951, 3595.285, -5821.134)" fill="#fff"/>
    <rect id="Rectángulo_57418" data-name="Rectángulo 57418" width="7.928" height="22.043" transform="matrix(0.951, -0.309, 0.309, 0.951, 3592.1, -5807.94)" fill="#3b5997"/>
    <rect id="Rectángulo_57419" data-name="Rectángulo 57419" width="0.823" height="22.043" transform="matrix(0.951, -0.309, 0.309, 0.951, 3592.1, -5807.94)" fill="#2a4c87"/>
    <rect id="Rectángulo_57420" data-name="Rectángulo 57420" width="1.051" height="22.043" transform="matrix(0.951, -0.309, 0.309, 0.951, 3598.641, -5810.066)" fill="#2a4c87"/>
  </g>
</svg>
