<svg xmlns="http://www.w3.org/2000/svg" xmlns:xlink="http://www.w3.org/1999/xlink" width="190" height="125" viewBox="0 0 190 125">
  <defs>
    <clipPath id="clip-path">
      <rect id="Rectángulo_56089" data-name="Rectángulo 56089" width="126.48" height="113.115" fill="none"/>
    </clipPath>
    <clipPath id="clip-path-3">
      <rect id="Rectángulo_56087" data-name="Rectángulo 56087" width="17.896" height="3.702" fill="none"/>
    </clipPath>
  </defs>
  <g id="Grupo_175466" data-name="Grupo 175466" transform="translate(-7305 9050)">
    <rect id="Rectángulo_56072" data-name="Rectángulo 56072" width="190" height="124" transform="translate(7305 -9049)" fill="none"/>
    <g id="Grupo_175266" data-name="Grupo 175266" transform="translate(7337 -9050)">
      <g id="Grupo_175287" data-name="Grupo 175287" clip-path="url(#clip-path)">
        <rect id="Rectángulo_56083" data-name="Rectángulo 56083" width="17.896" height="23.407" transform="translate(54.319 88.914)" fill="#acd4f7"/>
        <g id="Grupo_175286" data-name="Grupo 175286" transform="translate(0 0)">
          <g id="Grupo_175285" data-name="Grupo 175285" clip-path="url(#clip-path)">
            <path id="Trazado_217671" data-name="Trazado 217671" d="M77.388,121.631h-17.9a.794.794,0,0,1-.793-.793V97.429a.794.794,0,0,1,.793-.793h17.9a.793.793,0,0,1,.793.793v23.408a.793.793,0,0,1-.793.793m-17.1-1.587h16.31V98.223H60.285Z" transform="translate(-5.173 -8.516)"/>
            <path id="Trazado_217672" data-name="Trazado 217672" d="M93.19,123.893H40.175a.793.793,0,1,1,0-1.587H93.19a.793.793,0,1,1,0,1.587" transform="translate(-3.47 -10.778)"/>
            <rect id="Rectángulo_56084" data-name="Rectángulo 56084" width="124.839" height="90.108" transform="translate(0.848 0.793)" fill="#fff"/>
            <path id="Trazado_217673" data-name="Trazado 217673" d="M125.692,91.695H.853A.794.794,0,0,1,.06,90.9V.793A.794.794,0,0,1,.853,0H125.692a.794.794,0,0,1,.793.793V90.9a.794.794,0,0,1-.793.793M1.647,90.108H124.9V1.587H1.647Z" transform="translate(-0.005 0)"/>
            <rect id="Rectángulo_56085" data-name="Rectángulo 56085" width="124.839" height="11.403" transform="translate(0.793 79.497)" fill="#acd4f7"/>
            <path id="Trazado_217674" data-name="Trazado 217674" d="M125.632,99.3H.793A.794.794,0,0,1,0,98.507V87.1a.794.794,0,0,1,.793-.793H125.632a.793.793,0,0,1,.793.793v11.4a.793.793,0,0,1-.793.793M1.587,97.714H124.839V87.9H1.587Z" transform="translate(0 -7.606)"/>
            <g id="Grupo_175284" data-name="Grupo 175284" transform="translate(54.319 91.757)" opacity="0.129">
              <g id="Grupo_175283" data-name="Grupo 175283">
                <g id="Grupo_175282" data-name="Grupo 175282" clip-path="url(#clip-path-3)">
                  <rect id="Rectángulo_56086" data-name="Rectángulo 56086" width="17.896" height="3.702" transform="translate(0 0)"/>
                </g>
              </g>
            </g>
            <path id="Trazado_217675" data-name="Trazado 217675" d="M18.615,58.378a.793.793,0,0,1-.425-1.464l21.166-13.4a.794.794,0,0,1,.761-.048l21.7,10.163L94.947,24.33a.8.8,0,0,1,1.022-.025L110.08,35.633a.793.793,0,0,1-.993,1.237L95.5,25.961l-33.014,29.2a.793.793,0,0,1-.862.124l-21.782-10.2-20.8,13.172a.794.794,0,0,1-.424.123" transform="translate(-1.57 -2.127)"/>
            <path id="Trazado_217676" data-name="Trazado 217676" d="M41.711,75.138a.265.265,0,0,1-.264-.264V46.841a.264.264,0,1,1,.529,0V74.873a.265.265,0,0,1-.264.264" transform="translate(-3.652 -4.105)"/>
            <path id="Trazado_217677" data-name="Trazado 217677" d="M21.768,76.126h0a.265.265,0,0,1-.262-.267l.224-17.8a.265.265,0,0,1,.264-.261h0a.263.263,0,0,1,.261.267l-.224,17.8a.264.264,0,0,1-.264.262" transform="translate(-1.895 -5.093)"/>
            <path id="Trazado_217678" data-name="Trazado 217678" d="M65.991,76.1h0a.264.264,0,0,1-.262-.267l.224-18.922a.265.265,0,0,1,.264-.262h0a.264.264,0,0,1,.261.268L66.256,75.84a.265.265,0,0,1-.264.262" transform="translate(-5.792 -4.992)"/>
            <path id="Trazado_217679" data-name="Trazado 217679" d="M102.827,72.991h0a.265.265,0,0,1-.264-.265l.224-47.752a.266.266,0,0,1,.264-.264h0a.265.265,0,0,1,.264.266l-.224,47.751a.264.264,0,0,1-.264.264" transform="translate(-9.038 -2.178)"/>
            <path id="Trazado_217680" data-name="Trazado 217680" d="M68.545,58.866a.264.264,0,0,1-.175-.462L97.03,33.129a.265.265,0,0,1,.35.4L68.721,58.8a.265.265,0,0,1-.175.066" transform="translate(-6.017 -2.914)"/>
            <path id="Trazado_217681" data-name="Trazado 217681" d="M68.545,63.8a.265.265,0,0,1-.175-.463L97.03,38.059a.265.265,0,0,1,.35.4L68.721,63.73a.261.261,0,0,1-.175.067" transform="translate(-6.017 -3.348)"/>
            <path id="Trazado_217682" data-name="Trazado 217682" d="M68.545,68.726a.264.264,0,0,1-.175-.462L97.03,42.989a.265.265,0,0,1,.35.4L68.721,68.661a.265.265,0,0,1-.175.066" transform="translate(-6.017 -3.783)"/>
            <path id="Trazado_217683" data-name="Trazado 217683" d="M68.545,73.366a.264.264,0,0,1-.175-.462L97.03,47.629a.265.265,0,0,1,.35.4L68.721,73.3a.265.265,0,0,1-.175.066" transform="translate(-6.017 -4.191)"/>
            <path id="Trazado_217684" data-name="Trazado 217684" d="M70.89,75.994a.264.264,0,0,1-.173-.464L97.236,52.495a.265.265,0,0,1,.347.4L71.064,75.929a.263.263,0,0,1-.173.065" transform="translate(-6.224 -4.62)"/>
            <path id="Trazado_217685" data-name="Trazado 217685" d="M75.886,76.416a.264.264,0,0,1-.171-.466L97.68,57.28a.264.264,0,1,1,.343.4L76.058,76.353a.267.267,0,0,1-.171.063" transform="translate(-6.664 -5.042)"/>
            <path id="Trazado_217686" data-name="Trazado 217686" d="M81.4,76.871a.264.264,0,0,1-.168-.469L98.169,62.45a.264.264,0,1,1,.336.409L81.564,76.811a.265.265,0,0,1-.168.06" transform="translate(-7.15 -5.498)"/>
            <path id="Trazado_217687" data-name="Trazado 217687" d="M87.93,77.318a.264.264,0,0,1-.171-.466l10.983-9.335a.265.265,0,1,1,.343.4L88.1,77.255a.267.267,0,0,1-.171.063" transform="translate(-7.725 -5.944)"/>
            <path id="Trazado_217688" data-name="Trazado 217688" d="M93.952,77.788a.264.264,0,0,1-.167-.47l5.491-4.473a.264.264,0,0,1,.334.41l-5.491,4.473a.267.267,0,0,1-.167.059" transform="translate(-8.256 -6.414)"/>
            <path id="Trazado_217689" data-name="Trazado 217689" d="M17.231,35.057c9.327,0,17.448.065,26.2,0,0-7.73-.38-15.5-.242-23.288-8.924-.074-17.317,0-25.993,0,0,7.785.031,15.543.031,23.288" transform="translate(-1.516 -1.034)" fill="#fff"/>
            <path id="Trazado_217690" data-name="Trazado 217690" d="M34.738,35.622c-2.772,0-5.546-.006-8.4-.014-2.964-.007-6-.015-9.166-.015A.594.594,0,0,1,16.58,35q0-5.8-.016-11.614-.011-5.83-.016-11.675a.594.594,0,0,1,.594-.594c2.892,0,5.754-.007,8.614-.016,5.62-.016,11.432-.033,17.384.016a.595.595,0,0,1,.588.6c-.08,4.489.015,9.047.106,13.456.067,3.221.136,6.552.136,9.822a.594.594,0,0,1-.589.594c-2.934.021-5.789.028-8.644.028M17.767,35h0Zm0-.594c2.957,0,5.8.007,8.576.015,5.589.014,10.881.027,16.439-.011-.007-3.068-.072-6.186-.135-9.207-.088-4.224-.178-8.585-.116-12.9-5.735-.044-11.342-.027-16.772-.012-2.665.008-5.331.016-8.024.016q0,5.548.016,11.078t.016,11.023" transform="translate(-1.458 -0.977)"/>
            <path id="Trazado_217691" data-name="Trazado 217691" d="M19.917,16.427a.2.2,0,0,1-.118-.038.2.2,0,0,1-.042-.277A15.955,15.955,0,0,1,21.521,14.1a.2.2,0,1,1,.274.285,15.638,15.638,0,0,0-1.719,1.962.2.2,0,0,1-.16.08" transform="translate(-1.738 -1.238)"/>
            <path id="Trazado_217692" data-name="Trazado 217692" d="M19.178,21.084a.2.2,0,0,1-.145-.333c2.132-2.288,4.248-4.655,6.293-7.037a.2.2,0,1,1,.3.258c-2.047,2.385-4.168,4.757-6.3,7.049a.2.2,0,0,1-.145.063" transform="translate(-1.673 -1.203)"/>
            <path id="Trazado_217693" data-name="Trazado 217693" d="M19.2,25.834a.2.2,0,0,1-.151-.326l9.706-11.473a.2.2,0,0,1,.3.256L19.349,25.764a.2.2,0,0,1-.151.07" transform="translate(-1.674 -1.231)"/>
            <path id="Trazado_217694" data-name="Trazado 217694" d="M19.434,30.215a.2.2,0,0,1-.132-.051.2.2,0,0,1-.015-.279c4.549-5.08,9.025-10.351,13.3-15.664a.2.2,0,1,1,.308.248c-4.282,5.319-8.762,10.6-13.317,15.681a.2.2,0,0,1-.147.066" transform="translate(-1.695 -1.247)"/>
            <path id="Trazado_217695" data-name="Trazado 217695" d="M20.987,33.6a.2.2,0,0,1-.154-.322c5.18-6.455,10.573-12.9,16.027-19.147a.2.2,0,0,1,.3.26c-5.451,6.246-10.839,12.683-16.017,19.135a.2.2,0,0,1-.154.074" transform="translate(-1.832 -1.239)"/>
            <path id="Trazado_217696" data-name="Trazado 217696" d="M25.733,33.463a.2.2,0,0,1-.153-.323L41.072,14.182a.2.2,0,1,1,.306.25L25.886,33.39a.2.2,0,0,1-.153.073" transform="translate(-2.25 -1.243)"/>
            <path id="Trazado_217697" data-name="Trazado 217697" d="M30.6,33.975a.2.2,0,0,1-.129-.048.2.2,0,0,1-.02-.279c3.943-4.574,7.863-9.291,11.653-14.017a.2.2,0,0,1,.309.247C38.62,24.608,34.7,29.328,30.749,33.906a.194.194,0,0,1-.15.068" transform="translate(-2.679 -1.723)"/>
            <path id="Trazado_217698" data-name="Trazado 217698" d="M36.012,34.49a.2.2,0,0,1-.116-.037.2.2,0,0,1-.045-.276c2.022-2.8,4.163-5.559,6.364-8.208a.2.2,0,0,1,.3.253c-2.2,2.643-4.331,5.4-6.348,8.187a.2.2,0,0,1-.16.082" transform="translate(-3.156 -2.282)"/>
            <path id="Trazado_217699" data-name="Trazado 217699" d="M40.284,35.156a.2.2,0,0,1-.15-.326c.833-.976,1.632-2,2.379-3.047a.2.2,0,0,1,.322.23c-.752,1.056-1.56,2.09-2.4,3.075a.2.2,0,0,1-.15.069" transform="translate(-3.533 -2.793)"/>
          </g>
        </g>
      </g>
    </g>
  </g>
</svg>
