<svg xmlns="http://www.w3.org/2000/svg" xmlns:xlink="http://www.w3.org/1999/xlink" width="190" height="124" viewBox="0 0 190 124">
  <defs>
    <clipPath id="clip-path">
      <rect id="Rectángulo_56071" data-name="Rectángulo 56071" width="126.48" height="110.983" fill="none"/>
    </clipPath>
    <clipPath id="clip-path-3">
      <rect id="Rectángulo_56064" data-name="Rectángulo 56064" width="10.277" height="9.22" fill="none"/>
    </clipPath>
    <clipPath id="clip-path-4">
      <rect id="Rectángulo_56065" data-name="Rectángulo 56065" width="11.942" height="3.901" fill="none"/>
    </clipPath>
    <clipPath id="clip-path-5">
      <rect id="Rectángulo_56066" data-name="Rectángulo 56066" width="9.626" height="11.569" fill="none"/>
    </clipPath>
    <clipPath id="clip-path-6">
      <rect id="Rectángulo_56069" data-name="Rectángulo 56069" width="124.893" height="3.704" fill="none"/>
    </clipPath>
  </defs>
  <g id="Grupo_175465" data-name="Grupo 175465" transform="translate(-7305 9410)">
    <rect id="Rectángulo_56061" data-name="Rectángulo 56061" width="190" height="124" transform="translate(7305 -9410)" fill="none"/>
    <g id="Grupo_175248" data-name="Grupo 175248" transform="translate(7337 -9410)">
      <g id="Grupo_175263" data-name="Grupo 175263" clip-path="url(#clip-path)">
        <rect id="Rectángulo_56062" data-name="Rectángulo 56062" width="124.893" height="86.464" transform="translate(0.794 4.477)" fill="#fff"/>
        <g id="Grupo_175262" data-name="Grupo 175262" transform="translate(0 0)">
          <g id="Grupo_175261" data-name="Grupo 175261" clip-path="url(#clip-path)">
            <path id="Trazado_217609" data-name="Trazado 217609" d="M125.686,92.089H.794A.794.794,0,0,1,0,91.295V4.831a.794.794,0,0,1,.794-.794H125.686a.794.794,0,0,1,.794.794V91.295a.794.794,0,0,1-.794.794M1.587,90.5H124.893V5.624H1.587Z" transform="translate(0 -0.354)"/>
            <rect id="Rectángulo_56063" data-name="Rectángulo 56063" width="124.893" height="11.409" transform="translate(0.794 0.794)" fill="#acd4f7"/>
            <path id="Trazado_217610" data-name="Trazado 217610" d="M125.686,13H.794A.794.794,0,0,1,0,12.2V.794A.794.794,0,0,1,.794,0H125.686a.794.794,0,0,1,.794.794V12.2a.794.794,0,0,1-.794.794M1.587,11.409H124.893V1.587H1.587Z" transform="translate(0 0)"/>
            <path id="Trazado_217611" data-name="Trazado 217611" d="M99.173,7.84H92.587a.794.794,0,1,1,0-1.587h6.587a.794.794,0,1,1,0,1.587" transform="translate(-8.053 -0.549)"/>
            <path id="Trazado_217612" data-name="Trazado 217612" d="M113.822,7.84h-6.587a.794.794,0,0,1,0-1.587h6.587a.794.794,0,1,1,0,1.587" transform="translate(-9.338 -0.549)"/>
            <path id="Trazado_217613" data-name="Trazado 217613" d="M128.472,7.84h-6.587a.794.794,0,0,1,0-1.587h6.587a.794.794,0,0,1,0,1.587" transform="translate(-10.623 -0.549)"/>
            <path id="Trazado_217614" data-name="Trazado 217614" d="M68.534,86.455l9.12-2.562-3.676-12.13-7.965,2.564-5.238-7.717L65.171,59,54.114,54.052l-3.489,8.587-9.339.119-3.728-7.483L26.243,61.558l4.721,6.764-6.249,7.327-6.151-2.058L15.318,86.93l7.266,1.482,3.147,8.606-5.5,5.8,9.319,8.24,4.446-6.1,8.563,1.782.872,8.189,11.4-.717-1.095-7.456,6.631-4.291,6.286,5.762,8.558-10.485-7.586-4.416ZM46.486,92.561a8.069,8.069,0,1,1,8.069-8.069,8.069,8.069,0,0,1-8.069,8.069" transform="translate(-1.344 -4.742)" fill="#fff"/>
            <path id="Trazado_217615" data-name="Trazado 217615" d="M43.352,115.649a.793.793,0,0,1-.788-.71l-.813-7.614-7.494-1.558-4.145,5.684a.79.79,0,0,1-.555.321.8.8,0,0,1-.612-.194l-9.318-8.239a.794.794,0,0,1-.05-1.141l5.165-5.445-2.826-7.729-6.832-1.392a.792.792,0,0,1-.612-.965l3.247-13.339a.792.792,0,0,1,1.023-.566l5.642,1.887,5.5-6.452-4.37-6.261a.793.793,0,0,1,.265-1.148L37.1,54.5a.794.794,0,0,1,1.1.34L41.7,61.881l8.313-.106,3.291-8.1a.794.794,0,0,1,1.06-.426L65.419,58.2a.795.795,0,0,1,.362,1.121L61.633,66.5l4.625,6.813,7.4-2.382a.793.793,0,0,1,1,.525l3.676,12.13a.8.8,0,0,1-.545.994L69.175,87l-.77,5.83,7.128,4.151a.794.794,0,0,1,.215,1.188l-8.558,10.485a.793.793,0,0,1-1.151.083l-5.832-5.347-5.688,3.68,1.02,6.952a.787.787,0,0,1-.169.615.8.8,0,0,1-.567.293l-11.4.716-.05,0m-9.436-11.558a.817.817,0,0,1,.162.016l8.563,1.782a.792.792,0,0,1,.627.692l.793,7.434,9.784-.615-.97-6.6a.794.794,0,0,1,.354-.782l6.632-4.291a.794.794,0,0,1,.967.081L66.493,107l7.439-9.114L67.15,93.937a.792.792,0,0,1-.388-.789l.908-6.873a.8.8,0,0,1,.573-.66l8.339-2.343L73.375,72.69l-7.2,2.317a.794.794,0,0,1-.9-.309L60.041,66.98a.793.793,0,0,1-.031-.843l3.957-6.845-9.5-4.257-3.179,7.825a.8.8,0,0,1-.725.5l-9.338.119H41.21a.792.792,0,0,1-.71-.44l-3.358-6.741-9.822,5.454,4.217,6.042a.8.8,0,0,1-.047.97l-6.248,7.326a.8.8,0,0,1-.856.238l-5.332-1.783-2.847,11.7,6.459,1.316a.8.8,0,0,1,.587.505L26.4,96.669a.8.8,0,0,1-.171.819l-4.938,5.206,8.05,7.117,3.933-5.393a.793.793,0,0,1,.64-.327M46.409,93.278a8.863,8.863,0,1,1,8.863-8.863,8.873,8.873,0,0,1-8.863,8.863m0-16.138a7.275,7.275,0,1,0,7.275,7.275,7.283,7.283,0,0,0-7.275-7.275" transform="translate(-1.267 -4.666)"/>
            <g id="Grupo_175251" data-name="Grupo 175251" transform="translate(19.493 95.925)" opacity="0.129">
              <g id="Grupo_175250" data-name="Grupo 175250">
                <g id="Grupo_175249" data-name="Grupo 175249" clip-path="url(#clip-path-3)">
                  <path id="Trazado_217616" data-name="Trazado 217616" d="M31.58,112.083c-.311-1.037-1.47-1.451-2.23-2.119-.245-.219-1.56-1.129-2.923-2.354a15.864,15.864,0,0,0-2.543-2.293,1.815,1.815,0,0,0-1.987,2.948,45.431,45.431,0,0,0,6.4,5.382c.5.261.239.544,1.543.722a1.825,1.825,0,0,0,1.742-2.286" transform="translate(-21.367 -105.15)"/>
                </g>
              </g>
            </g>
            <g id="Grupo_175254" data-name="Grupo 175254" transform="translate(41.381 106.401)" opacity="0.129">
              <g id="Grupo_175253" data-name="Grupo 175253">
                <g id="Grupo_175252" data-name="Grupo 175252" clip-path="url(#clip-path-4)">
                  <path id="Trazado_217617" data-name="Trazado 217617" d="M56.019,116.962a2.3,2.3,0,0,0-1.09.03,21.122,21.122,0,0,1-3.4-.041c-1.106-.109-2.217-.139-3.323-.224a3.035,3.035,0,0,0-1.7.065,1.888,1.888,0,0,0,.729,3.621,42.547,42.547,0,0,0,5.414.069,22.344,22.344,0,0,0,2.569-.04,2.257,2.257,0,0,0,1.223-.252,1.776,1.776,0,0,0-.422-3.228" transform="translate(-45.361 -116.633)"/>
                </g>
              </g>
            </g>
            <g id="Grupo_175257" data-name="Grupo 175257" transform="translate(63.201 91.386)" opacity="0.129">
              <g id="Grupo_175256" data-name="Grupo 175256">
                <g id="Grupo_175255" data-name="Grupo 175255" clip-path="url(#clip-path-5)">
                  <path id="Trazado_217618" data-name="Trazado 217618" d="M75.729,101c-1.588,2.56-4.239,5.693-4.9,6.827-.4.591-1.147.92-1.4,1.6a1.664,1.664,0,0,0,2.7,1.821,24.222,24.222,0,0,0,2.789-3.409c1.018-1.252,2-2.538,2.9-3.874.348-.619.987-1.147,1.056-1.88A1.7,1.7,0,0,0,75.729,101" transform="translate(-69.278 -100.174)"/>
                </g>
              </g>
            </g>
            <path id="Trazado_217619" data-name="Trazado 217619" d="M51.148,31.947H19.731a.794.794,0,1,1,0-1.587H51.148a.794.794,0,1,1,0,1.587" transform="translate(-1.661 -2.663)"/>
            <path id="Trazado_217620" data-name="Trazado 217620" d="M124.2,74.867h-23.81a.794.794,0,1,1,0-1.587H124.2a.794.794,0,1,1,0,1.587" transform="translate(-8.738 -6.429)"/>
            <path id="Trazado_217621" data-name="Trazado 217621" d="M39.9,45.05H19.793a.794.794,0,0,1,0-1.587H39.9a.794.794,0,1,1,0,1.587" transform="translate(-1.667 -3.813)"/>
            <rect id="Rectángulo_56067" data-name="Rectángulo 56067" width="35.98" height="26.985" transform="translate(77.404 24.427)" fill="#fff"/>
            <path id="Trazado_217622" data-name="Trazado 217622" d="M120.751,54.478H84.771a.794.794,0,0,1-.794-.794V26.7a.794.794,0,0,1,.794-.794h35.98a.794.794,0,0,1,.794.794V53.685a.794.794,0,0,1-.794.794M85.564,52.891h34.393v-25.4H85.564Z" transform="translate(-7.367 -2.273)"/>
            <path id="Trazado_217623" data-name="Trazado 217623" d="M18.881,86.8a.271.271,0,0,1-.138-.038.264.264,0,0,1-.088-.364l3.518-5.766a.265.265,0,0,1,.452.276l-3.518,5.765a.265.265,0,0,1-.226.127" transform="translate(-1.633 -7.063)"/>
            <path id="Trazado_217624" data-name="Trazado 217624" d="M23.473,86.105a.259.259,0,0,1-.15-.047.264.264,0,0,1-.068-.368c4.759-6.936,9.771-13.831,14.9-20.5a.265.265,0,1,1,.42.323C33.451,72.175,28.445,79.063,23.691,85.99a.264.264,0,0,1-.218.115" transform="translate(-2.036 -5.71)"/>
            <path id="Trazado_217625" data-name="Trazado 217625" d="M33.451,65.281a.264.264,0,0,1-.211-.425l3.934-5.175A.265.265,0,1,1,37.6,60l-3.935,5.176a.267.267,0,0,1-.211.1" transform="translate(-2.911 -5.227)"/>
            <path id="Trazado_217626" data-name="Trazado 217626" d="M27.019,90.992a.265.265,0,0,1-.223-.408C32.035,82.455,37.625,74.4,43.41,66.649a.264.264,0,0,1,.423.316C38.056,74.709,32.474,82.752,27.24,90.87a.263.263,0,0,1-.222.121" transform="translate(-2.347 -5.838)"/>
            <path id="Trazado_217627" data-name="Trazado 217627" d="M29.488,97.635a.264.264,0,0,1-.208-.429c2.46-3.127,4.836-6.39,7.062-9.7a.265.265,0,1,1,.44.3c-2.233,3.318-4.618,6.591-7.086,9.728a.266.266,0,0,1-.208.1" transform="translate(-2.564 -7.667)"/>
            <path id="Trazado_217628" data-name="Trazado 217628" d="M44.442,76.383a.264.264,0,0,1-.215-.419c2.262-3.144,4.617-6.288,7-9.348a.265.265,0,1,1,.418.326c-2.378,3.053-4.728,6.193-6.986,9.331a.265.265,0,0,1-.215.11" transform="translate(-3.876 -5.835)"/>
            <path id="Trazado_217629" data-name="Trazado 217629" d="M52,74.132a.265.265,0,0,1-.224-.406c3.052-4.84,6.29-9.646,9.624-14.286a.265.265,0,0,1,.431.309c-3.329,4.631-6.561,9.428-9.608,14.26a.264.264,0,0,1-.224.123" transform="translate(-4.539 -5.205)"/>
            <path id="Trazado_217630" data-name="Trazado 217630" d="M27.152,108.355a.265.265,0,0,1-.209-.426c3.6-4.664,7.4-9.27,11.307-13.685a.265.265,0,0,1,.4.35c-3.9,4.407-7.693,9-11.286,13.658a.263.263,0,0,1-.209.1" transform="translate(-2.359 -8.26)"/>
            <path id="Trazado_217631" data-name="Trazado 217631" d="M35.977,106.113a.265.265,0,0,1-.215-.418c1.711-2.4,3.51-4.791,5.346-7.107a.264.264,0,0,1,.414.328c-1.831,2.308-3.624,4.692-5.329,7.085a.264.264,0,0,1-.215.111" transform="translate(-3.133 -8.64)"/>
            <path id="Trazado_217632" data-name="Trazado 217632" d="M56.87,77.051a.265.265,0,0,1-.213-.422A64.673,64.673,0,0,1,62.621,69.7a.264.264,0,0,1,.375.373,64.084,64.084,0,0,0-5.914,6.871.264.264,0,0,1-.213.107" transform="translate(-4.966 -6.108)"/>
            <path id="Trazado_217633" data-name="Trazado 217633" d="M41.24,107.488a.259.259,0,0,1-.15-.047.264.264,0,0,1-.068-.368c1.518-2.214,3.133-4.4,4.8-6.509a.265.265,0,0,1,.415.328c-1.659,2.1-3.267,4.275-4.778,6.48a.264.264,0,0,1-.218.115" transform="translate(-3.595 -8.814)"/>
            <path id="Trazado_217634" data-name="Trazado 217634" d="M59.934,82.71a.265.265,0,0,1-.21-.426c1.932-2.513,3.95-5.009,6-7.418a.265.265,0,0,1,.4.343c-2.042,2.4-4.055,4.891-5.981,7.4a.264.264,0,0,1-.21.1" transform="translate(-5.235 -6.56)"/>
            <path id="Trazado_217635" data-name="Trazado 217635" d="M47.011,106.987a.261.261,0,0,1-.163-.057.265.265,0,0,1-.045-.372c7.68-9.74,15.806-19.336,24.151-28.515a.264.264,0,1,1,.391.355c-8.335,9.171-16.453,18.756-24.126,28.488a.263.263,0,0,1-.208.1" transform="translate(-4.101 -6.839)"/>
            <path id="Trazado_217636" data-name="Trazado 217636" d="M48.781,113.967a.265.265,0,0,1-.2-.435L66.524,92.255a.264.264,0,0,1,.4.341L48.982,113.873a.263.263,0,0,1-.2.094" transform="translate(-4.256 -8.085)"/>
            <path id="Trazado_217637" data-name="Trazado 217637" d="M74.107,85.489a.268.268,0,0,1-.174-.065.265.265,0,0,1-.026-.374l4.527-5.184a.265.265,0,1,1,.4.348L74.306,85.4a.266.266,0,0,1-.2.09" transform="translate(-6.478 -6.998)"/>
            <path id="Trazado_217638" data-name="Trazado 217638" d="M65.292,103.683a.265.265,0,0,1-.2-.439l3.417-3.9a.264.264,0,0,1,.4.348l-3.417,3.9a.262.262,0,0,1-.2.09" transform="translate(-5.705 -8.707)"/>
            <path id="Trazado_217639" data-name="Trazado 217639" d="M69.771,106.824a.258.258,0,0,1-.167-.059.263.263,0,0,1-.039-.371c.519-.641,1.079-1.286,1.621-1.91.735-.847,1.5-1.721,2.171-2.6a1.361,1.361,0,0,1,.107-.125.263.263,0,0,1,.194-.246c.113-.031.322-.088.428.108a.311.311,0,0,1-.119.391,1.322,1.322,0,0,0-.19.193c-.684.9-1.451,1.778-2.191,2.631-.539.619-1.1,1.262-1.61,1.895a.26.26,0,0,1-.2.1" transform="translate(-6.098 -8.902)"/>
            <g id="Grupo_175260" data-name="Grupo 175260" transform="translate(0.024 12.669)" opacity="0.129">
              <g id="Grupo_175259" data-name="Grupo 175259">
                <g id="Grupo_175258" data-name="Grupo 175258" clip-path="url(#clip-path-6)">
                  <rect id="Rectángulo_56068" data-name="Rectángulo 56068" width="124.893" height="3.704" transform="translate(0)"/>
                </g>
              </g>
            </g>
          </g>
        </g>
      </g>
    </g>
  </g>
</svg>
