<svg xmlns="http://www.w3.org/2000/svg" xmlns:xlink="http://www.w3.org/1999/xlink" width="190" height="124" viewBox="0 0 190 124">
  <defs>
    <clipPath id="clip-path">
      <rect id="Rectángulo_56146" data-name="Rectángulo 56146" width="126.48" height="113.115" fill="none"/>
    </clipPath>
    <clipPath id="clip-path-3">
      <rect id="Rectángulo_56142" data-name="Rectángulo 56142" width="17.896" height="3.702" fill="none"/>
    </clipPath>
    <clipPath id="clip-path-4">
      <rect id="Rectángulo_56144" data-name="Rectángulo 56144" width="7.738" height="4.538" fill="none"/>
    </clipPath>
  </defs>
  <g id="Grupo_175470" data-name="Grupo 175470" transform="translate(-7305 7500)">
    <rect id="Rectángulo_56093" data-name="Rectángulo 56093" width="190" height="124" transform="translate(7305 -7500)" fill="none"/>
    <g id="Grupo_175350" data-name="Grupo 175350" transform="translate(7337 -7500)">
      <g id="Grupo_175358" data-name="Grupo 175358" clip-path="url(#clip-path)">
        <rect id="Rectángulo_56138" data-name="Rectángulo 56138" width="17.896" height="23.407" transform="translate(54.319 88.914)" fill="#acd4f7"/>
        <g id="Grupo_175357" data-name="Grupo 175357" transform="translate(0 0)">
          <g id="Grupo_175356" data-name="Grupo 175356" clip-path="url(#clip-path)">
            <path id="Trazado_217770" data-name="Trazado 217770" d="M77.388,121.631h-17.9a.794.794,0,0,1-.793-.793V97.429a.794.794,0,0,1,.793-.793h17.9a.793.793,0,0,1,.793.793v23.408a.793.793,0,0,1-.793.793m-17.1-1.587H76.595V98.223H60.286Z" transform="translate(-5.173 -8.516)"/>
            <path id="Trazado_217771" data-name="Trazado 217771" d="M93.191,123.893H40.176a.793.793,0,1,1,0-1.587H93.191a.793.793,0,0,1,0,1.587" transform="translate(-3.471 -10.778)"/>
            <rect id="Rectángulo_56139" data-name="Rectángulo 56139" width="124.839" height="90.108" transform="translate(0.848 0.793)" fill="#fff"/>
            <path id="Trazado_217772" data-name="Trazado 217772" d="M125.692,91.695H.853A.794.794,0,0,1,.06,90.9V.793A.794.794,0,0,1,.853,0H125.692a.793.793,0,0,1,.793.793V90.9a.793.793,0,0,1-.793.793M1.647,90.108H124.9V1.587H1.647Z" transform="translate(-0.005 0)"/>
            <rect id="Rectángulo_56140" data-name="Rectángulo 56140" width="124.839" height="11.403" transform="translate(0.793 79.497)" fill="#acd4f7"/>
            <path id="Trazado_217773" data-name="Trazado 217773" d="M125.632,99.3H.793A.794.794,0,0,1,0,98.507V87.1a.794.794,0,0,1,.793-.793H125.632a.793.793,0,0,1,.793.793v11.4a.793.793,0,0,1-.793.793M1.587,97.714H124.839V87.9H1.587Z" transform="translate(0 -7.606)"/>
            <g id="Grupo_175352" data-name="Grupo 175352" transform="translate(54.319 91.757)" opacity="0.129">
              <g id="Grupo_175351" data-name="Grupo 175351">
                <g id="Grupo_175350-2" data-name="Grupo 175350" clip-path="url(#clip-path-3)">
                  <rect id="Rectángulo_56141" data-name="Rectángulo 56141" width="17.896" height="3.702" transform="translate(0 0)"/>
                </g>
              </g>
            </g>
            <path id="Trazado_217774" data-name="Trazado 217774" d="M124.47,21.191H66.556a.793.793,0,1,1,0-1.587H124.47a.793.793,0,0,1,0,1.587" transform="translate(-5.795 -1.728)"/>
            <path id="Trazado_217775" data-name="Trazado 217775" d="M124.47,32.956H66.556a.793.793,0,1,1,0-1.587H124.47a.793.793,0,0,1,0,1.587" transform="translate(-5.795 -2.764)"/>
            <path id="Trazado_217776" data-name="Trazado 217776" d="M124.47,46.161H66.556a.793.793,0,1,1,0-1.587H124.47a.793.793,0,0,1,0,1.587" transform="translate(-5.795 -3.928)"/>
            <path id="Trazado_217777" data-name="Trazado 217777" d="M46.009,58.683h-31.4a.793.793,0,0,1,0-1.587h31.4a.793.793,0,1,1,0,1.587" transform="translate(-1.217 -5.032)"/>
            <path id="Trazado_217778" data-name="Trazado 217778" d="M46.009,71.786h-31.4a.793.793,0,0,1,0-1.587h31.4a.793.793,0,0,1,0,1.587" transform="translate(-1.217 -6.186)"/>
            <rect id="Rectángulo_56143" data-name="Rectángulo 56143" width="35.964" height="26.973" transform="translate(13.389 13.673)" fill="#fff"/>
            <path id="Trazado_217779" data-name="Trazado 217779" d="M50.571,42.684H14.606a.794.794,0,0,1-.793-.793V14.917a.793.793,0,0,1,.793-.793H50.571a.793.793,0,0,1,.793.793V41.891a.794.794,0,0,1-.793.793M15.4,41.1H49.777V15.711H15.4Z" transform="translate(-1.217 -1.245)"/>
            <path id="Trazado_217780" data-name="Trazado 217780" d="M34.612,21.837a4.464,4.464,0,0,0-3.421,1.438,3.607,3.607,0,0,0-.778,3.348,3.49,3.49,0,0,0,1.149,1.735,4.148,4.148,0,0,0,4.286.4,3.736,3.736,0,0,0,2.085-3.472,3.629,3.629,0,0,0-3.32-3.454" transform="translate(-2.668 -1.924)" fill="#fff"/>
            <path id="Trazado_217781" data-name="Trazado 217781" d="M33.993,29.577a4.421,4.421,0,0,1-2.757-.915,3.957,3.957,0,0,1-1.3-1.959,4.065,4.065,0,0,1,.872-3.769,4.949,4.949,0,0,1,3.771-1.59,4.084,4.084,0,0,1,3.755,3.876A4.176,4.176,0,0,1,36,29.12a4.525,4.525,0,0,1-2.012.457m.452-7.338a4.006,4.006,0,0,0-2.961,1.287,3.161,3.161,0,0,0-.684,2.929,3.05,3.05,0,0,0,1,1.511,3.687,3.687,0,0,0,3.8.353,3.271,3.271,0,0,0,1.837-3.046,3.19,3.19,0,0,0-2.885-3.032l-.111,0" transform="translate(-2.625 -1.881)"/>
            <path id="Trazado_217782" data-name="Trazado 217782" d="M33.678,39.394c5,0,6.16-1.635,6.334-1.791-.4-1.932-1.129-4.41-2.388-5.649a5.44,5.44,0,0,0-3.635-1.687A4.012,4.012,0,0,0,31.7,30.8c-2.413,1.652-3.562,4.564-4.1,6.682a8.734,8.734,0,0,0,6.083,1.913" transform="translate(-2.432 -2.667)" fill="#acd4f7"/>
            <path id="Trazado_217783" data-name="Trazado 217783" d="M33.635,39.8A9.051,9.051,0,0,1,27.6,38.021c-.108-.078-.206-.149-.3-.211a.449.449,0,0,1-.185-.483c.564-2.215,1.764-5.217,4.282-6.942a4.366,4.366,0,0,1,2.553-.609A5.832,5.832,0,0,1,37.9,31.592c1.347,1.327,2.109,3.928,2.512,5.878a.449.449,0,0,1-.14.424l-.024.026c-1.455,1.554-4.4,1.88-6.609,1.88m-5.571-2.549.061.045a8.253,8.253,0,0,0,5.51,1.608c2.77,0,4.835-.527,5.845-1.486-.539-2.5-1.3-4.289-2.214-5.186a5.056,5.056,0,0,0-3.326-1.558,3.534,3.534,0,0,0-2.035.453,10.777,10.777,0,0,0-3.841,6.125" transform="translate(-2.388 -2.624)"/>
            <g id="Grupo_175355" data-name="Grupo 175355" transform="translate(27.434 24.067)" opacity="0.129">
              <g id="Grupo_175354" data-name="Grupo 175354">
                <g id="Grupo_175353" data-name="Grupo 175353" clip-path="url(#clip-path-4)">
                  <path id="Trazado_217784" data-name="Trazado 217784" d="M35.391,29.969c-.437.094-.622-.564-.185-.672a3.938,3.938,0,0,0,1.2-.473,2.95,2.95,0,0,0,.8-.757,7.2,7.2,0,0,0,.614-1.042.575.575,0,0,0-.689.1c-1.031,1.413-3.26,1.339-3.79,1.264a4.015,4.015,0,0,1-1.4-.514,4.265,4.265,0,0,1-1.339-1.045,1.578,1.578,0,0,0-.522-.438c.129.27.233.551.349.833s.23.567.346.851c.007.011.013.022.02.032a4.368,4.368,0,0,0,.658.768,7.458,7.458,0,0,0,.709.542c.071-.026.143-.048.215-.069a1.1,1.1,0,0,1,.123-.029.521.521,0,0,1,.212,0,.306.306,0,0,1,.17.1.346.346,0,0,1,.092.222.337.337,0,0,1-.092.222.322.322,0,0,1-.207.1h0l-.007,0h0a1.714,1.714,0,0,0-.248.073.421.421,0,0,1-.15.165.657.657,0,0,0,.656.709c.617.008,1.236.039,1.853.012.255-.026.549,0,.74-.2a.6.6,0,0,0,.049-.788l-.181.041" transform="translate(-30.085 -26.393)"/>
                </g>
              </g>
            </g>
            <path id="Trazado_217785" data-name="Trazado 217785" d="M82.185,56.331c-.225,4.579-.3,7.536-.3,10.578-5.256-.078-11.4,0-16.62,0,.119-2.708.165-6.7-.012-10.758,5.671.109,11.481.091,16.931.181" transform="translate(-5.75 -4.948)" fill="#fff"/>
            <path id="Trazado_217786" data-name="Trazado 217786" d="M65.222,67.313a.446.446,0,0,1-.447-.468c.143-3.245.14-7.252-.012-10.719a.449.449,0,0,1,.448-.468h.009c3.036.058,6.145.08,9.153.1,2.578.018,5.244.037,7.776.079a.447.447,0,0,1,.44.47c-.214,4.358-.3,7.318-.3,10.556a.449.449,0,0,1-.133.319.444.444,0,0,1-.322.129c-3.534-.053-7.461-.034-11.259-.016-1.841.008-3.648.016-5.355.016m.457-10.749c.126,3.211.129,6.822.011,9.853,1.567,0,3.211-.009,4.883-.016,3.64-.016,7.4-.035,10.823.01.006-2.965.087-5.758.276-9.681-2.389-.037-4.886-.055-7.305-.072-2.853-.02-5.8-.041-8.688-.093" transform="translate(-5.707 -4.905)"/>
            <path id="Trazado_217787" data-name="Trazado 217787" d="M105.908,56.331c-.225,4.579-.3,7.536-.3,10.578-5.256-.078-11.4,0-16.62,0,.119-2.708.165-6.7-.012-10.758,5.671.109,11.481.091,16.931.181" transform="translate(-7.841 -4.948)" fill="#fff"/>
            <path id="Trazado_217788" data-name="Trazado 217788" d="M88.945,67.313a.447.447,0,0,1-.448-.468c.144-3.245.14-7.252-.011-10.719a.447.447,0,0,1,.448-.468h.008c3.037.058,6.146.08,9.154.1,2.578.018,5.244.037,7.776.079a.447.447,0,0,1,.44.47c-.214,4.358-.3,7.318-.3,10.556a.449.449,0,0,1-.133.319.444.444,0,0,1-.322.129c-3.534-.053-7.461-.034-11.259-.016-1.841.008-3.648.016-5.355.016M89.4,56.563c.126,3.211.129,6.822.011,9.853,1.567,0,3.211-.009,4.883-.016,3.64-.016,7.4-.035,10.822.01.007-2.965.088-5.758.277-9.681-2.389-.037-4.886-.055-7.305-.072-2.853-.02-5.8-.041-8.688-.093" transform="translate(-7.798 -4.905)"/>
            <path id="Trazado_217789" data-name="Trazado 217789" d="M128.885,56.331c-.225,4.579-.3,7.536-.3,10.578-5.256-.078-11.4,0-16.62,0,.119-2.708.165-6.7-.012-10.758,5.671.109,11.481.091,16.931.181" transform="translate(-9.866 -4.948)" fill="#fff"/>
            <path id="Trazado_217790" data-name="Trazado 217790" d="M111.922,67.313a.447.447,0,0,1-.448-.468c.144-3.245.14-7.252-.011-10.719a.447.447,0,0,1,.448-.468h.008c3.037.058,6.146.08,9.154.1,2.578.018,5.244.037,7.776.079a.447.447,0,0,1,.44.47c-.214,4.358-.3,7.318-.3,10.556a.446.446,0,0,1-.134.319.44.44,0,0,1-.321.129c-3.534-.053-7.461-.034-11.259-.016-1.841.008-3.648.016-5.355.016m.457-10.749c.126,3.211.129,6.822.011,9.853,1.567,0,3.211-.009,4.883-.016,3.64-.016,7.4-.035,10.822.01.007-2.965.088-5.758.277-9.681-2.389-.037-4.886-.055-7.305-.072-2.853-.02-5.8-.041-8.688-.093" transform="translate(-9.822 -4.905)"/>
          </g>
        </g>
      </g>
    </g>
  </g>
</svg>
