<svg xmlns="http://www.w3.org/2000/svg" xmlns:xlink="http://www.w3.org/1999/xlink" width="190" height="124" viewBox="0 0 190 124">
  <defs>
    <clipPath id="clip-path">
      <rect id="Rectángulo_56192" data-name="Rectángulo 56192" width="126.48" height="91.734" fill="none"/>
    </clipPath>
    <clipPath id="clip-path-3">
      <rect id="Rectángulo_56183" data-name="Rectángulo 56183" width="124.893" height="3.704" fill="none"/>
    </clipPath>
    <clipPath id="clip-path-4">
      <rect id="Rectángulo_56184" data-name="Rectángulo 56184" width="46.904" height="38.442" fill="none"/>
    </clipPath>
    <clipPath id="clip-path-6">
      <rect id="Rectángulo_56189" data-name="Rectángulo 56189" width="7.741" height="4.54" fill="none"/>
    </clipPath>
    <clipPath id="clip-path-7">
      <rect id="Rectángulo_56190" data-name="Rectángulo 56190" width="27.474" height="10.307" fill="none"/>
    </clipPath>
  </defs>
  <g id="Grupo_175475" data-name="Grupo 175475" transform="translate(-7305 5696)">
    <rect id="Rectángulo_56098" data-name="Rectángulo 56098" width="190" height="124" transform="translate(7305 -5696)" fill="none"/>
    <g id="Grupo_175435" data-name="Grupo 175435" transform="translate(7337 -5696)">
      <g id="Grupo_175434" data-name="Grupo 175434" clip-path="url(#clip-path)">
        <rect id="Rectángulo_56180" data-name="Rectángulo 56180" width="124.893" height="86.464" transform="translate(0.794 4.477)" fill="#fff"/>
        <g id="Grupo_175433" data-name="Grupo 175433">
          <g id="Grupo_175432" data-name="Grupo 175432" clip-path="url(#clip-path)">
            <path id="Trazado_217961" data-name="Trazado 217961" d="M125.686,92.088H.794A.794.794,0,0,1,0,91.295V4.831a.794.794,0,0,1,.794-.794H125.686a.794.794,0,0,1,.794.794V91.295a.794.794,0,0,1-.794.794M1.587,90.5H124.893V5.624H1.587Z" transform="translate(0 -0.354)"/>
            <rect id="Rectángulo_56181" data-name="Rectángulo 56181" width="124.893" height="11.409" transform="translate(0.794 0.794)" fill="#acd4f7"/>
            <path id="Trazado_217962" data-name="Trazado 217962" d="M125.686,13H.794A.794.794,0,0,1,0,12.2V.794A.794.794,0,0,1,.794,0H125.686a.794.794,0,0,1,.794.794V12.2a.794.794,0,0,1-.794.794M1.587,11.408H124.893V1.586H1.587Z"/>
            <path id="Trazado_217963" data-name="Trazado 217963" d="M99.173,7.84H92.587a.794.794,0,1,1,0-1.587h6.587a.794.794,0,0,1,0,1.587" transform="translate(-8.053 -0.549)"/>
            <path id="Trazado_217964" data-name="Trazado 217964" d="M113.822,7.84h-6.587a.794.794,0,0,1,0-1.587h6.587a.794.794,0,1,1,0,1.587" transform="translate(-9.338 -0.549)"/>
            <path id="Trazado_217965" data-name="Trazado 217965" d="M128.472,7.84h-6.587a.794.794,0,0,1,0-1.587h6.587a.794.794,0,0,1,0,1.587" transform="translate(-10.623 -0.549)"/>
            <path id="Trazado_217966" data-name="Trazado 217966" d="M51.147,31.947H19.731a.794.794,0,0,1,0-1.587H51.147a.794.794,0,1,1,0,1.587" transform="translate(-1.661 -2.663)"/>
            <path id="Trazado_217967" data-name="Trazado 217967" d="M125.2,89.867h-23.81a.794.794,0,1,1,0-1.587H125.2a.794.794,0,1,1,0,1.587" transform="translate(-8.825 -7.745)"/>
            <path id="Trazado_217968" data-name="Trazado 217968" d="M39.9,45.05H19.793a.794.794,0,1,1,0-1.587H39.9a.794.794,0,0,1,0,1.587" transform="translate(-1.667 -3.813)"/>
            <g id="Grupo_175419" data-name="Grupo 175419" transform="translate(0.024 12.668)" opacity="0.129">
              <g id="Grupo_175418" data-name="Grupo 175418">
                <g id="Grupo_175417" data-name="Grupo 175417" clip-path="url(#clip-path-3)">
                  <rect id="Rectángulo_56182" data-name="Rectángulo 56182" width="124.893" height="3.704" transform="translate(0 0)"/>
                </g>
              </g>
            </g>
            <path id="Trazado_217969" data-name="Trazado 217969" d="M81.077,78.2a.13.13,0,0,1-.092-.223L83.569,75.4a.131.131,0,0,1,.185,0,.133.133,0,0,1,0,.185L81.17,78.164a.129.129,0,0,1-.092.038" transform="translate(-7.101 -6.611)"/>
            <path id="Trazado_217970" data-name="Trazado 217970" d="M84.654,78.2a.13.13,0,0,1-.092-.223L87.146,75.4a.131.131,0,0,1,.185,0,.133.133,0,0,1,0,.185l-2.584,2.584a.129.129,0,0,1-.092.038" transform="translate(-7.415 -6.611)"/>
            <path id="Trazado_217971" data-name="Trazado 217971" d="M88.087,78.2A.13.13,0,0,1,88,77.98L90.579,75.4a.131.131,0,0,1,.185,0,.133.133,0,0,1,0,.185L88.18,78.164a.129.129,0,0,1-.092.038" transform="translate(-7.716 -6.611)"/>
            <path id="Trazado_217972" data-name="Trazado 217972" d="M91.563,78.2a.13.13,0,0,1-.092-.223L94.055,75.4a.131.131,0,0,1,.185,0,.133.133,0,0,1,0,.185l-2.584,2.584a.129.129,0,0,1-.092.038" transform="translate(-8.021 -6.611)"/>
            <path id="Trazado_217973" data-name="Trazado 217973" d="M94.62,78.2a.13.13,0,0,1-.092-.223L97.112,75.4a.131.131,0,0,1,.185,0,.133.133,0,0,1,0,.185l-2.584,2.584a.129.129,0,0,1-.092.038" transform="translate(-8.29 -6.611)"/>
            <path id="Trazado_217974" data-name="Trazado 217974" d="M98.2,78.2a.13.13,0,0,1-.092-.223l2.584-2.584a.131.131,0,0,1,.185,0,.133.133,0,0,1,0,.185l-2.584,2.584a.129.129,0,0,1-.092.038" transform="translate(-8.603 -6.611)"/>
            <path id="Trazado_217975" data-name="Trazado 217975" d="M101.63,78.2a.13.13,0,0,1-.092-.223l2.584-2.584a.131.131,0,0,1,.185,0,.133.133,0,0,1,0,.185l-2.584,2.584a.129.129,0,0,1-.092.038" transform="translate(-8.905 -6.611)"/>
            <path id="Trazado_217976" data-name="Trazado 217976" d="M105.106,78.2a.13.13,0,0,1-.092-.223L107.6,75.4a.131.131,0,0,1,.185,0,.133.133,0,0,1,0,.185L105.2,78.164a.129.129,0,0,1-.092.038" transform="translate(-9.209 -6.611)"/>
            <path id="Trazado_217977" data-name="Trazado 217977" d="M108.926,78.2a.13.13,0,0,1-.092-.223l2.584-2.584a.131.131,0,0,1,.185,0,.133.133,0,0,1,0,.185l-2.584,2.584a.129.129,0,0,1-.092.038" transform="translate(-9.545 -6.611)"/>
            <path id="Trazado_217978" data-name="Trazado 217978" d="M112.5,78.2a.13.13,0,0,1-.092-.223l2.584-2.584a.131.131,0,0,1,.185,0,.133.133,0,0,1,0,.185l-2.584,2.584a.129.129,0,0,1-.092.038" transform="translate(-9.858 -6.611)"/>
            <path id="Trazado_217979" data-name="Trazado 217979" d="M115.934,78.16a.13.13,0,0,1-.092-.223l3.045-3.045a.13.13,0,0,1,.184.184l-3.045,3.045a.129.129,0,0,1-.092.038" transform="translate(-10.159 -6.567)"/>
            <path id="Trazado_217980" data-name="Trazado 217980" d="M128.031,48.179a.13.13,0,0,1-.092-.223l3.137-3.138a.13.13,0,1,1,.184.184l-3.137,3.138a.129.129,0,0,1-.092.038" transform="translate(-11.221 -3.929)"/>
            <path id="Trazado_217981" data-name="Trazado 217981" d="M128.281,44.873a.13.13,0,0,1-.092-.223l1.8-1.8a.131.131,0,1,1,.185.184l-1.8,1.8a.129.129,0,0,1-.092.038" transform="translate(-11.243 -3.756)"/>
            <path id="Trazado_217982" data-name="Trazado 217982" d="M127.856,41.669a.13.13,0,0,1-.092-.223l.785-.785a.13.13,0,1,1,.184.184l-.785.785a.129.129,0,0,1-.092.038" transform="translate(-11.205 -3.564)"/>
            <g id="Grupo_175422" data-name="Grupo 175422" transform="translate(70.873 34.449)" opacity="0.129">
              <g id="Grupo_175421" data-name="Grupo 175421">
                <g id="Grupo_175420" data-name="Grupo 175420" clip-path="url(#clip-path-4)">
                  <path id="Trazado_217983" data-name="Trazado 217983" d="M124.563,50.056c-.084-2.169-.382-4.33-.344-6.5a10.72,10.72,0,0,0-.731-4.653c-.331-.643-.543-1.209-1.295-1.131a.884.884,0,0,0-.749.645,1.065,1.065,0,0,0,.006.492l0-.005,0,.005a.742.742,0,0,0,.083.2,5.443,5.443,0,0,0,.261.551l0,0a7.044,7.044,0,0,1,.4,1.537c.149,1.169.06,2.35.095,3.525.057,1.535.173,3.067.247,4.6.087,2.675-.079,5.35-.073,8.026a24.642,24.642,0,0,1-.214,4.406c-.016.075-.036.149-.053.223-.013.04-.026.079-.04.118a16.042,16.042,0,0,1-.538,1.534c-.811,2.109-3.725,5.814-5.657,6.412a11.678,11.678,0,0,1-4.943.571c-1.811.015-3.622-.046-5.433-.046-1.859-.059-3.718.064-5.577.009-2.171-.106-4.344.05-6.517-.006a85.774,85.774,0,0,0-9.465.07c-1.289.1-1.485-.167-2.332.19-1.352,1.006-2.342,2.433-3.682,3.464A1.116,1.116,0,0,0,79.6,75.872c.967-.775,2.329-2.356,2.992-2.99.3.031.6.044.9.068,3.27-.027,6.541-.2,9.812-.224,3.455-.02,6.909-.042,10.362-.137,2.517-.016,5.035.013,7.548-.124a17.2,17.2,0,0,0,3.168-.192,10.124,10.124,0,0,0,2.9-.831,8.508,8.508,0,0,0,1.909-1.334,17.065,17.065,0,0,0,2.815-3.262,13.158,13.158,0,0,0,1.439-2.718,8.983,8.983,0,0,0,.754-2.48,21.8,21.8,0,0,0,.3-2.342c-.026-1.218-.01-2.436,0-3.655-.036-1.867.162-3.731.061-5.6" transform="translate(-77.689 -37.761)"/>
                </g>
              </g>
            </g>
            <path id="Trazado_217984" data-name="Trazado 217984" d="M109.251,30.62H74.392a11.8,11.8,0,0,0-11.8,11.8V58.49a11.807,11.807,0,0,0,8.605,11.362l-2.41,13.065L79.664,70.295h29.587a11.8,11.8,0,0,0,11.8-11.8V42.425a11.8,11.8,0,0,0-11.8-11.8" transform="translate(-5.491 -2.686)" fill="#fff"/>
            <path id="Trazado_217985" data-name="Trazado 217985" d="M68.744,83.27a.387.387,0,0,1-.17-.038.392.392,0,0,1-.215-.424l2.347-12.718a12.236,12.236,0,0,1-8.548-11.637V42.387a12.21,12.21,0,0,1,12.2-12.2h34.858a12.21,12.21,0,0,1,12.2,12.2V58.452a12.21,12.21,0,0,1-12.2,12.2H79.8L69.04,83.134a.391.391,0,0,1-.3.136m5.61-52.3A11.426,11.426,0,0,0,62.941,42.387V58.452a11.449,11.449,0,0,0,8.32,10.986.391.391,0,0,1,.279.448L69.391,81.528,79.329,70a.389.389,0,0,1,.3-.136h29.587a11.426,11.426,0,0,0,11.413-11.413V42.387a11.426,11.426,0,0,0-11.413-11.413Z" transform="translate(-5.453 -2.649)"/>
            <path id="Trazado_217986" data-name="Trazado 217986" d="M81.077,78.2a.13.13,0,0,1-.092-.223L83.569,75.4a.131.131,0,0,1,.185,0,.133.133,0,0,1,0,.185L81.17,78.164a.129.129,0,0,1-.092.038" transform="translate(-7.101 -6.611)"/>
            <path id="Trazado_217987" data-name="Trazado 217987" d="M84.654,78.2a.13.13,0,0,1-.092-.223L87.146,75.4a.131.131,0,0,1,.185,0,.133.133,0,0,1,0,.185l-2.584,2.584a.129.129,0,0,1-.092.038" transform="translate(-7.415 -6.611)"/>
            <path id="Trazado_217988" data-name="Trazado 217988" d="M88.087,78.2A.13.13,0,0,1,88,77.98L90.579,75.4a.131.131,0,0,1,.185,0,.133.133,0,0,1,0,.185L88.18,78.164a.129.129,0,0,1-.092.038" transform="translate(-7.716 -6.611)"/>
            <path id="Trazado_217989" data-name="Trazado 217989" d="M91.563,78.2a.13.13,0,0,1-.092-.223L94.055,75.4a.131.131,0,0,1,.185,0,.133.133,0,0,1,0,.185l-2.584,2.584a.129.129,0,0,1-.092.038" transform="translate(-8.021 -6.611)"/>
            <path id="Trazado_217990" data-name="Trazado 217990" d="M94.62,78.2a.13.13,0,0,1-.092-.223L97.112,75.4a.131.131,0,0,1,.185,0,.133.133,0,0,1,0,.185l-2.584,2.584a.129.129,0,0,1-.092.038" transform="translate(-8.29 -6.611)"/>
            <path id="Trazado_217991" data-name="Trazado 217991" d="M98.2,78.2a.13.13,0,0,1-.092-.223l2.584-2.584a.131.131,0,0,1,.185,0,.133.133,0,0,1,0,.185l-2.584,2.584a.129.129,0,0,1-.092.038" transform="translate(-8.603 -6.611)"/>
            <path id="Trazado_217992" data-name="Trazado 217992" d="M101.63,78.2a.13.13,0,0,1-.092-.223l2.584-2.584a.131.131,0,0,1,.185,0,.133.133,0,0,1,0,.185l-2.584,2.584a.129.129,0,0,1-.092.038" transform="translate(-8.905 -6.611)"/>
            <path id="Trazado_217993" data-name="Trazado 217993" d="M105.106,78.2a.13.13,0,0,1-.092-.223L107.6,75.4a.131.131,0,0,1,.185,0,.133.133,0,0,1,0,.185L105.2,78.164a.129.129,0,0,1-.092.038" transform="translate(-9.209 -6.611)"/>
            <path id="Trazado_217994" data-name="Trazado 217994" d="M108.926,78.2a.13.13,0,0,1-.092-.223l2.584-2.584a.131.131,0,0,1,.185,0,.133.133,0,0,1,0,.185l-2.584,2.584a.129.129,0,0,1-.092.038" transform="translate(-9.545 -6.611)"/>
            <path id="Trazado_217995" data-name="Trazado 217995" d="M112.5,78.2a.13.13,0,0,1-.092-.223l2.584-2.584a.131.131,0,0,1,.185,0,.133.133,0,0,1,0,.185l-2.584,2.584a.129.129,0,0,1-.092.038" transform="translate(-9.858 -6.611)"/>
            <path id="Trazado_217996" data-name="Trazado 217996" d="M115.934,78.16a.13.13,0,0,1-.092-.223l3.045-3.045a.13.13,0,0,1,.184.184l-3.045,3.045a.129.129,0,0,1-.092.038" transform="translate(-10.159 -6.567)"/>
            <path id="Trazado_217997" data-name="Trazado 217997" d="M128.031,48.179a.13.13,0,0,1-.092-.223l3.137-3.138a.13.13,0,1,1,.184.184l-3.137,3.138a.129.129,0,0,1-.092.038" transform="translate(-11.221 -3.929)"/>
            <path id="Trazado_217998" data-name="Trazado 217998" d="M128.281,44.873a.13.13,0,0,1-.092-.223l1.8-1.8a.131.131,0,1,1,.185.184l-1.8,1.8a.129.129,0,0,1-.092.038" transform="translate(-11.243 -3.756)"/>
            <path id="Trazado_217999" data-name="Trazado 217999" d="M127.856,41.669a.13.13,0,0,1-.092-.223l.785-.785a.13.13,0,1,1,.184.184l-.785.785a.129.129,0,0,1-.092.038" transform="translate(-11.205 -3.564)"/>
            <g id="Grupo_175425" data-name="Grupo 175425" transform="translate(70.873 34.449)" opacity="0.129">
              <g id="Grupo_175424" data-name="Grupo 175424">
                <g id="Grupo_175423" data-name="Grupo 175423" clip-path="url(#clip-path-4)">
                  <path id="Trazado_218000" data-name="Trazado 218000" d="M124.563,50.056c-.084-2.169-.382-4.33-.344-6.5a10.72,10.72,0,0,0-.731-4.653c-.331-.643-.543-1.209-1.295-1.131a.884.884,0,0,0-.749.645,1.065,1.065,0,0,0,.006.492l0-.005,0,.005a.742.742,0,0,0,.083.2,5.443,5.443,0,0,0,.261.551l0,0a7.044,7.044,0,0,1,.4,1.537c.149,1.169.06,2.35.095,3.525.057,1.535.173,3.067.247,4.6.087,2.675-.079,5.35-.073,8.026a24.642,24.642,0,0,1-.214,4.406c-.016.075-.036.149-.053.223-.013.04-.026.079-.04.118a16.042,16.042,0,0,1-.538,1.534c-.811,2.109-3.725,5.814-5.657,6.412a11.678,11.678,0,0,1-4.943.571c-1.811.015-3.622-.046-5.433-.046-1.859-.059-3.718.064-5.577.009-2.171-.106-4.344.05-6.517-.006a85.774,85.774,0,0,0-9.465.07c-1.289.1-1.485-.167-2.332.19-1.352,1.006-2.342,2.433-3.682,3.464A1.116,1.116,0,0,0,79.6,75.872c.967-.775,2.329-2.356,2.992-2.99.3.031.6.044.9.068,3.27-.027,6.541-.2,9.812-.224,3.455-.02,6.909-.042,10.362-.137,2.517-.016,5.035.013,7.548-.124a17.2,17.2,0,0,0,3.168-.192,10.124,10.124,0,0,0,2.9-.831,8.508,8.508,0,0,0,1.909-1.334,17.065,17.065,0,0,0,2.815-3.262,13.158,13.158,0,0,0,1.439-2.718,8.983,8.983,0,0,0,.754-2.48,21.8,21.8,0,0,0,.3-2.342c-.026-1.218-.01-2.436,0-3.655-.036-1.867.162-3.731.061-5.6" transform="translate(-77.689 -37.761)"/>
                </g>
              </g>
            </g>
            <rect id="Rectángulo_56186" data-name="Rectángulo 56186" width="24.665" height="3.081" transform="translate(67.621 38.518)" fill="#acd4f7"/>
            <path id="Trazado_218001" data-name="Trazado 218001" d="M98.761,45.656H74.1a.354.354,0,0,1-.3-.391V42.184a.354.354,0,0,1,.3-.391H98.761a.354.354,0,0,1,.3.391v3.081a.354.354,0,0,1-.3.391m-24.369-.784H98.464v-2.3H74.392Z" transform="translate(-6.474 -3.666)"/>
            <rect id="Rectángulo_56187" data-name="Rectángulo 56187" width="20.009" height="3.081" transform="translate(67.567 45.864)" fill="#fff"/>
            <path id="Trazado_218002" data-name="Trazado 218002" d="M94.036,53.708H74.027a.391.391,0,0,1-.391-.391V50.236a.391.391,0,0,1,.391-.391H94.036a.391.391,0,0,1,.391.391v3.081a.391.391,0,0,1-.391.391m-19.617-.783H93.644v-2.3H74.419Z" transform="translate(-6.46 -4.373)"/>
            <rect id="Rectángulo_56188" data-name="Rectángulo 56188" width="32.567" height="3.081" transform="translate(67.567 53.209)" fill="#acd4f7"/>
            <path id="Trazado_218003" data-name="Trazado 218003" d="M106.595,61.76H74.027a.391.391,0,0,1-.391-.391v-3.08a.392.392,0,0,1,.391-.392h32.567a.393.393,0,0,1,.392.392v3.08a.392.392,0,0,1-.392.391m-32.176-.783H106.2v-2.3H74.419Z" transform="translate(-6.46 -5.079)"/>
            <path id="Trazado_218004" data-name="Trazado 218004" d="M38.011,53.938a13.685,13.685,0,0,0-13.552,4.433,16.711,16.711,0,0,0-3.427,14.116c1.161,5.6,6.511,9.874,10.638,10.383,6.705.826,12.2-2.4,13.916-4.479A16.3,16.3,0,0,0,49,64.46c-1.167-4.817-5.053-8.916-10.987-10.522" transform="translate(-1.814 -4.696)" fill="#fff"/>
            <path id="Trazado_218005" data-name="Trazado 218005" d="M33.756,83.4a18.016,18.016,0,0,1-2.184-.133c-4.359-.537-9.828-4.979-11.022-10.737a17.236,17.236,0,0,1,3.526-14.5,14.088,14.088,0,0,1,14.01-4.573c5.815,1.574,10.041,5.63,11.306,10.85a16.8,16.8,0,0,1-3.5,14.321c-1.765,2.142-6.5,4.773-12.132,4.773m1.077-29.472A13.507,13.507,0,0,0,24.756,58.62a16.322,16.322,0,0,0-3.327,13.732c1.115,5.381,6.2,9.53,10.253,10.029,6.826.839,12.054-2.548,13.515-4.32A15.888,15.888,0,0,0,48.52,64.522c-1.186-4.9-5.173-8.709-10.668-10.2a11.567,11.567,0,0,0-3.018-.394" transform="translate(-1.771 -4.653)"/>
            <path id="Trazado_218006" data-name="Trazado 218006" d="M36.631,60.464A4.466,4.466,0,0,0,33.208,61.9a3.608,3.608,0,0,0-.778,3.35,3.485,3.485,0,0,0,1.149,1.735,4.148,4.148,0,0,0,4.288.406,3.737,3.737,0,0,0,2.085-3.474,3.631,3.631,0,0,0-3.322-3.456" transform="translate(-2.833 -5.304)" fill="#fff"/>
            <path id="Trazado_218007" data-name="Trazado 218007" d="M36.012,68.208a4.426,4.426,0,0,1-2.758-.914,3.961,3.961,0,0,1-1.3-1.96,4.065,4.065,0,0,1,.872-3.77A4.957,4.957,0,0,1,36.6,59.972a4.087,4.087,0,0,1,3.757,3.878,4.178,4.178,0,0,1-2.333,3.9,4.526,4.526,0,0,1-2.012.456m.452-7.341A4,4,0,0,0,33.5,62.155a3.159,3.159,0,0,0-.684,2.929,3.053,3.053,0,0,0,1,1.513,3.687,3.687,0,0,0,3.805.352A3.27,3.27,0,0,0,39.461,63.9a3.189,3.189,0,0,0-2.886-3.031l-.111,0" transform="translate(-2.79 -5.261)"/>
            <path id="Trazado_218008" data-name="Trazado 218008" d="M35.7,78.026c5,0,6.162-1.636,6.337-1.792-.4-1.933-1.129-4.412-2.389-5.651a5.44,5.44,0,0,0-3.636-1.689,4.014,4.014,0,0,0-2.294.532c-2.414,1.653-3.563,4.566-4.1,6.685A8.738,8.738,0,0,0,35.7,78.026" transform="translate(-2.598 -6.044)" fill="#acd4f7"/>
            <path id="Trazado_218009" data-name="Trazado 218009" d="M35.656,78.431a9.055,9.055,0,0,1-6.037-1.779c-.108-.078-.206-.149-.3-.211a.449.449,0,0,1-.185-.484c.564-2.216,1.764-5.219,4.284-6.945a4.368,4.368,0,0,1,2.554-.609,5.838,5.838,0,0,1,3.945,1.816c1.347,1.327,2.11,3.93,2.513,5.88a.449.449,0,0,1-.14.424l-.024.026c-1.456,1.555-4.4,1.881-6.612,1.881m-5.573-2.55.061.045a8.257,8.257,0,0,0,5.512,1.608c2.771,0,4.837-.527,5.848-1.487-.539-2.5-1.3-4.29-2.215-5.188A5.059,5.059,0,0,0,35.961,69.3a3.535,3.535,0,0,0-2.036.453,10.781,10.781,0,0,0-3.842,6.128" transform="translate(-2.555 -6.001)"/>
            <g id="Grupo_175428" data-name="Grupo 175428" transform="translate(29.286 59.316)" opacity="0.129">
              <g id="Grupo_175427" data-name="Grupo 175427">
                <g id="Grupo_175426" data-name="Grupo 175426" clip-path="url(#clip-path-6)">
                  <path id="Trazado_218010" data-name="Trazado 218010" d="M37.411,68.6c-.437.094-.622-.565-.185-.671a3.965,3.965,0,0,0,1.205-.474,2.951,2.951,0,0,0,.8-.757,7.2,7.2,0,0,0,.614-1.043.576.576,0,0,0-.69.1c-1.032,1.414-3.261,1.339-3.791,1.264a4.017,4.017,0,0,1-1.4-.515,4.267,4.267,0,0,1-1.339-1.045,1.579,1.579,0,0,0-.522-.438c.129.27.234.551.349.833s.23.567.346.851c.007.011.013.022.02.032a4.337,4.337,0,0,0,.659.768,7.461,7.461,0,0,0,.709.542c.071-.026.143-.048.215-.069a1.1,1.1,0,0,1,.123-.029.522.522,0,0,1,.213,0,.306.306,0,0,1,.17.1.351.351,0,0,1,.092.222.337.337,0,0,1-.092.222.322.322,0,0,1-.207.1h0l-.007,0h0a1.714,1.714,0,0,0-.248.073.421.421,0,0,1-.15.165.657.657,0,0,0,.656.709c.618.008,1.236.039,1.854.012.255-.026.549,0,.74-.2a.6.6,0,0,0,.049-.788l-.182.041" transform="translate(-32.102 -65.02)"/>
                </g>
              </g>
            </g>
            <g id="Grupo_175431" data-name="Grupo 175431" transform="translate(18.862 68.293)" opacity="0.129">
              <g id="Grupo_175430" data-name="Grupo 175430">
                <g id="Grupo_175429" data-name="Grupo 175429" clip-path="url(#clip-path-7)">
                  <path id="Trazado_218011" data-name="Trazado 218011" d="M38.881,84.432a16.994,16.994,0,0,0,5.951-3.27,9.24,9.24,0,0,0,2.216-2.407c.393-.654.753-1.332,1.1-2.012a.743.743,0,0,0-.594.219,21.042,21.042,0,0,1-3.437,3.189,12.377,12.377,0,0,1-4.567,2.34,15.228,15.228,0,0,1-6.809,1.049,12.233,12.233,0,0,1-2.631-.53,15.943,15.943,0,0,1-1.986-.922c-.824-.472-1.618-.991-2.389-1.54a9.929,9.929,0,0,1-1.248-1.132,16.047,16.047,0,0,1-1.738-1.7c-.028-.035-.018-.022.029.037-.374-.43-.868-1.241-1.175-1.545a1.016,1.016,0,0,0-.929-1.345,19.9,19.9,0,0,0,1.114,2.767c.084.17.175.338.266.5q.346.571.7,1.138a17.21,17.21,0,0,0,2.486,2.888,19.247,19.247,0,0,0,2.891,1.759,9.584,9.584,0,0,0,2.757.945,16.341,16.341,0,0,0,5.1.189c.887-.118,1.783-.259,2.664-.457a.4.4,0,0,1,.231-.161" transform="translate(-20.676 -74.86)"/>
                </g>
              </g>
            </g>
          </g>
        </g>
      </g>
    </g>
  </g>
</svg>
