<svg xmlns="http://www.w3.org/2000/svg" xmlns:xlink="http://www.w3.org/1999/xlink" width="196.249" height="188.762" viewBox="0 0 196.249 188.762">
  <defs>
    <clipPath id="clip-path">
      <rect id="Rect치ngulo_52193" data-name="Rect치ngulo 52193" width="190.835" height="162.002" fill="#ece5f7"/>
    </clipPath>
    <clipPath id="clip-path-2">
      <rect id="Rect치ngulo_55065" data-name="Rect치ngulo 55065" width="101.92" height="166.219" fill="none"/>
    </clipPath>
  </defs>
  <g id="Grupo_177310" data-name="Grupo 177310" transform="translate(-229 -2904.304)">
    <g id="Grupo_173413" data-name="Grupo 173413" transform="translate(42.007 -1895.544)">
      <g id="Grupo_169303" data-name="Grupo 169303" transform="translate(192.407 4799.848)">
        <g id="Grupo_168636" data-name="Grupo 168636" transform="translate(0 0)" clip-path="url(#clip-path)">
          <path id="Trazado_211592" data-name="Trazado 211592" d="M141.129,136.942S241.7,61.516,173.666,41.551,35.385-27.959,16.9,20.846s31.8,69.51,8.134,96.131,29.579,74.686,116.1,19.966" transform="translate(-6.45 0)" fill="#ece5f7"/>
        </g>
      </g>
      <g id="Grupo_169306" data-name="Grupo 169306" transform="translate(229.524 4988.609) rotate(-90)">
        <circle id="Elipse_5566" data-name="Elipse 5566" cx="32.745" cy="32.745" r="32.745" transform="translate(58.474 46.308) rotate(-45)" fill="#def2f4"/>
        <ellipse id="Elipse_5567" data-name="Elipse 5567" cx="52.584" cy="52.584" rx="52.584" ry="52.584" transform="translate(0 54.134) rotate(-22.5)" fill="#fff"/>
        <g id="Grupo_152550" data-name="Grupo 152550" transform="translate(4.31 6.644)">
          <ellipse id="Elipse_5568" data-name="Elipse 5568" cx="0.037" cy="0.037" rx="0.037" ry="0.037" transform="translate(33.64 106.476)" fill="#e8e8e8"/>
          <path id="Trazado_193815" data-name="Trazado 193815" d="M.312,0A.312.312,0,1,1,0,.312.312.312,0,0,1,.312,0Z" transform="translate(39.986 106.201)" fill="#e8e8e8"/>
          <path id="Trazado_193816" data-name="Trazado 193816" d="M.533,0A.533.533,0,1,1,0,.533.534.534,0,0,1,.533,0Z" transform="translate(46.387 105.98)" fill="#e8e8e8"/>
          <ellipse id="Elipse_5569" data-name="Elipse 5569" cx="0.569" cy="0.569" rx="0.569" ry="0.569" transform="translate(52.972 105.943)" fill="#e8e8e8"/>
          <path id="Trazado_193817" data-name="Trazado 193817" d="M.533,0A.533.533,0,1,1,0,.533.533.533,0,0,1,.533,0Z" transform="translate(59.63 105.98)" fill="#e8e8e8"/>
          <path id="Trazado_193818" data-name="Trazado 193818" d="M.293,0A.293.293,0,1,1,0,.293.293.293,0,0,1,.293,0Z" transform="translate(66.49 106.219)" fill="#e8e8e8"/>
          <ellipse id="Elipse_5570" data-name="Elipse 5570" cx="0.018" cy="0.018" rx="0.018" ry="0.018" transform="translate(73.387 106.494)" fill="#e8e8e8"/>
          <ellipse id="Elipse_5571" data-name="Elipse 5571" cx="0.018" cy="0.018" rx="0.018" ry="0.018" transform="translate(20.415 99.873)" fill="#e8e8e8"/>
          <path id="Trazado_193819" data-name="Trazado 193819" d="M.551,0A.551.551,0,1,1,0,.551.551.551,0,0,1,.551,0Z" transform="translate(26.504 99.34)" fill="#e8e8e8"/>
          <path id="Trazado_193820" data-name="Trazado 193820" d="M1.121,0A1.121,1.121,0,1,1,0,1.121,1.121,1.121,0,0,1,1.121,0Z" transform="translate(32.556 98.77)" fill="#e8e8e8"/>
          <ellipse id="Elipse_5572" data-name="Elipse 5572" cx="1.249" cy="1.249" rx="1.249" ry="1.249" transform="translate(39.049 98.643)" fill="#e8e8e8"/>
          <ellipse id="Elipse_5573" data-name="Elipse 5573" cx="1.249" cy="1.249" rx="1.249" ry="1.249" transform="translate(45.671 98.643)" fill="#e8e8e8"/>
          <path id="Trazado_193821" data-name="Trazado 193821" d="M1.249,0A1.249,1.249,0,1,1,0,1.249,1.249,1.249,0,0,1,1.249,0Z" transform="translate(52.292 98.642)" fill="#e8e8e8"/>
          <path id="Trazado_193822" data-name="Trazado 193822" d="M1.249,0A1.249,1.249,0,1,1,0,1.249,1.249,1.249,0,0,1,1.249,0Z" transform="translate(58.914 98.642)" fill="#e8e8e8"/>
          <path id="Trazado_193823" data-name="Trazado 193823" d="M1.249,0A1.249,1.249,0,1,1,0,1.249,1.249,1.249,0,0,1,1.249,0Z" transform="translate(65.535 98.642)" fill="#e8e8e8"/>
          <path id="Trazado_193824" data-name="Trazado 193824" d="M1.1,0A1.1,1.1,0,1,1,0,1.1,1.1,1.1,0,0,1,1.1,0Z" transform="translate(72.303 98.789)" fill="#e8e8e8"/>
          <path id="Trazado_193825" data-name="Trazado 193825" d="M.514,0A.514.514,0,1,1,0,.514.514.514,0,0,1,.514,0Z" transform="translate(79.512 99.377)" fill="#e8e8e8"/>
          <ellipse id="Elipse_5574" data-name="Elipse 5574" cx="0.018" cy="0.018" rx="0.018" ry="0.018" transform="translate(86.63 99.873)" fill="#e8e8e8"/>
          <path id="Trazado_193826" data-name="Trazado 193826" d="M.093,0A.091.091,0,0,1,.184.091.092.092,0,1,1,.093,0Z" transform="translate(13.72 93.178)" fill="#e8e8e8"/>
          <path id="Trazado_193827" data-name="Trazado 193827" d="M.9,0A.9.9,0,1,1,0,.9.9.9,0,0,1,.9,0Z" transform="translate(19.534 92.37)" fill="#e8e8e8"/>
          <ellipse id="Elipse_5575" data-name="Elipse 5575" cx="1.249" cy="1.249" rx="1.249" ry="1.249" transform="translate(25.806 92.021)" fill="#e8e8e8"/>
          <ellipse id="Elipse_5576" data-name="Elipse 5576" cx="1.249" cy="1.249" rx="1.249" ry="1.249" transform="translate(32.428 92.021)" fill="#e8e8e8"/>
          <ellipse id="Elipse_5577" data-name="Elipse 5577" cx="1.249" cy="1.249" rx="1.249" ry="1.249" transform="translate(39.049 92.021)" fill="#e8e8e8"/>
          <ellipse id="Elipse_5578" data-name="Elipse 5578" cx="1.249" cy="1.249" rx="1.249" ry="1.249" transform="translate(45.671 92.021)" fill="#e8e8e8"/>
          <path id="Trazado_193828" data-name="Trazado 193828" d="M1.249,0A1.249,1.249,0,1,1,0,1.249,1.249,1.249,0,0,1,1.249,0Z" transform="translate(52.292 92.021)" fill="#e8e8e8"/>
          <path id="Trazado_193829" data-name="Trazado 193829" d="M1.249,0A1.249,1.249,0,1,1,0,1.249,1.249,1.249,0,0,1,1.249,0Z" transform="translate(58.914 92.021)" fill="#e8e8e8"/>
          <path id="Trazado_193830" data-name="Trazado 193830" d="M1.249,0A1.249,1.249,0,1,1,0,1.249,1.249,1.249,0,0,1,1.249,0Z" transform="translate(65.535 92.021)" fill="#e8e8e8"/>
          <path id="Trazado_193831" data-name="Trazado 193831" d="M1.249,0A1.249,1.249,0,1,1,0,1.249,1.249,1.249,0,0,1,1.249,0Z" transform="translate(72.156 92.021)" fill="#e8e8e8"/>
          <path id="Trazado_193832" data-name="Trazado 193832" d="M1.249,0A1.249,1.249,0,1,1,0,1.249,1.249,1.249,0,0,1,1.249,0Z" transform="translate(78.778 92.021)" fill="#e8e8e8"/>
          <path id="Trazado_193833" data-name="Trazado 193833" d="M.881,0A.881.881,0,1,1,0,.881.881.881,0,0,1,.881,0Z" transform="translate(85.766 92.388)" fill="#e8e8e8"/>
          <path id="Trazado_193834" data-name="Trazado 193834" d="M.054,0a.056.056,0,1,1,0,.111A.056.056,0,0,1,.054,0Z" transform="translate(93.215 93.214)" fill="#e8e8e8"/>
          <ellipse id="Elipse_5579" data-name="Elipse 5579" cx="0.018" cy="0.018" rx="0.018" ry="0.018" transform="translate(7.172 86.63)" fill="#e8e8e8"/>
          <path id="Trazado_193835" data-name="Trazado 193835" d="M.9,0A.9.9,0,1,1,0,.9.9.9,0,0,1,.9,0Z" transform="translate(12.913 85.748)" fill="#e8e8e8"/>
          <ellipse id="Elipse_5580" data-name="Elipse 5580" cx="1.249" cy="1.249" rx="1.249" ry="1.249" transform="translate(19.185 85.4)" fill="#e8e8e8"/>
          <ellipse id="Elipse_5581" data-name="Elipse 5581" cx="1.249" cy="1.249" rx="1.249" ry="1.249" transform="translate(25.806 85.4)" fill="#e8e8e8"/>
          <ellipse id="Elipse_5582" data-name="Elipse 5582" cx="1.249" cy="1.249" rx="1.249" ry="1.249" transform="translate(32.428 85.4)" fill="#e8e8e8"/>
          <ellipse id="Elipse_5583" data-name="Elipse 5583" cx="1.249" cy="1.249" rx="1.249" ry="1.249" transform="translate(39.049 85.4)" fill="#e8e8e8"/>
          <ellipse id="Elipse_5584" data-name="Elipse 5584" cx="1.249" cy="1.249" rx="1.249" ry="1.249" transform="translate(45.671 85.4)" fill="#e8e8e8"/>
          <path id="Trazado_193836" data-name="Trazado 193836" d="M1.249,0A1.249,1.249,0,1,1,0,1.249,1.249,1.249,0,0,1,1.249,0Z" transform="translate(52.292 85.399)" fill="#e8e8e8"/>
          <path id="Trazado_193837" data-name="Trazado 193837" d="M1.249,0A1.249,1.249,0,1,1,0,1.249,1.249,1.249,0,0,1,1.249,0Z" transform="translate(58.914 85.399)" fill="#e8e8e8"/>
          <path id="Trazado_193838" data-name="Trazado 193838" d="M1.249,0A1.249,1.249,0,1,1,0,1.249,1.249,1.249,0,0,1,1.249,0Z" transform="translate(65.535 85.399)" fill="#e8e8e8"/>
          <path id="Trazado_193839" data-name="Trazado 193839" d="M1.249,0A1.249,1.249,0,1,1,0,1.249,1.249,1.249,0,0,1,1.249,0Z" transform="translate(72.156 85.399)" fill="#e8e8e8"/>
          <path id="Trazado_193840" data-name="Trazado 193840" d="M1.249,0A1.249,1.249,0,1,1,0,1.249,1.249,1.249,0,0,1,1.249,0Z" transform="translate(78.778 85.399)" fill="#e8e8e8"/>
          <path id="Trazado_193841" data-name="Trazado 193841" d="M1.249,0A1.249,1.249,0,1,1,0,1.249,1.249,1.249,0,0,1,1.249,0Z" transform="translate(85.399 85.399)" fill="#e8e8e8"/>
          <path id="Trazado_193842" data-name="Trazado 193842" d="M.881,0A.881.881,0,1,1,0,.881.881.881,0,0,1,.881,0Z" transform="translate(92.388 85.767)" fill="#e8e8e8"/>
          <ellipse id="Elipse_5585" data-name="Elipse 5585" cx="0.018" cy="0.018" rx="0.018" ry="0.018" transform="translate(99.873 86.63)" fill="#e8e8e8"/>
          <path id="Trazado_193843" data-name="Trazado 193843" d="M.551,0A.551.551,0,1,1,0,.551.55.55,0,0,1,.551,0Z" transform="translate(6.64 79.476)" fill="#e8e8e8"/>
          <ellipse id="Elipse_5586" data-name="Elipse 5586" cx="1.249" cy="1.249" rx="1.249" ry="1.249" transform="translate(12.564 78.778)" fill="#e8e8e8"/>
          <ellipse id="Elipse_5587" data-name="Elipse 5587" cx="1.249" cy="1.249" rx="1.249" ry="1.249" transform="translate(19.185 78.778)" fill="#e8e8e8"/>
          <ellipse id="Elipse_5588" data-name="Elipse 5588" cx="1.249" cy="1.249" rx="1.249" ry="1.249" transform="translate(25.806 78.778)" fill="#e8e8e8"/>
          <ellipse id="Elipse_5589" data-name="Elipse 5589" cx="1.249" cy="1.249" rx="1.249" ry="1.249" transform="translate(32.428 78.778)" fill="#e8e8e8"/>
          <ellipse id="Elipse_5590" data-name="Elipse 5590" cx="1.249" cy="1.249" rx="1.249" ry="1.249" transform="translate(39.049 78.778)" fill="#e8e8e8"/>
          <ellipse id="Elipse_5591" data-name="Elipse 5591" cx="1.249" cy="1.249" rx="1.249" ry="1.249" transform="translate(45.671 78.778)" fill="#e8e8e8"/>
          <path id="Trazado_193844" data-name="Trazado 193844" d="M1.249,0A1.249,1.249,0,1,1,0,1.249,1.249,1.249,0,0,1,1.249,0Z" transform="translate(52.292 78.778)" fill="#e8e8e8"/>
          <path id="Trazado_193845" data-name="Trazado 193845" d="M1.249,0A1.249,1.249,0,1,1,0,1.249,1.249,1.249,0,0,1,1.249,0Z" transform="translate(58.914 78.778)" fill="#e8e8e8"/>
          <path id="Trazado_193846" data-name="Trazado 193846" d="M1.249,0A1.249,1.249,0,1,1,0,1.249,1.249,1.249,0,0,1,1.249,0Z" transform="translate(65.535 78.778)" fill="#e8e8e8"/>
          <path id="Trazado_193847" data-name="Trazado 193847" d="M1.249,0A1.249,1.249,0,1,1,0,1.249,1.249,1.249,0,0,1,1.249,0Z" transform="translate(72.156 78.778)" fill="#e8e8e8"/>
          <path id="Trazado_193848" data-name="Trazado 193848" d="M1.249,0A1.249,1.249,0,1,1,0,1.249,1.249,1.249,0,0,1,1.249,0Z" transform="translate(78.778 78.778)" fill="#e8e8e8"/>
          <path id="Trazado_193849" data-name="Trazado 193849" d="M1.249,0A1.249,1.249,0,1,1,0,1.249,1.249,1.249,0,0,1,1.249,0Z" transform="translate(85.399 78.778)" fill="#e8e8e8"/>
          <path id="Trazado_193850" data-name="Trazado 193850" d="M1.249,0A1.249,1.249,0,1,1,0,1.249,1.249,1.249,0,0,1,1.249,0Z" transform="translate(92.02 78.778)" fill="#e8e8e8"/>
          <path id="Trazado_193851" data-name="Trazado 193851" d="M.514,0A.514.514,0,1,1,0,.514.514.514,0,0,1,.514,0Z" transform="translate(99.377 79.513)" fill="#e8e8e8"/>
          <ellipse id="Elipse_5592" data-name="Elipse 5592" cx="0.037" cy="0.037" rx="0.037" ry="0.037" transform="translate(0.532 73.369)" fill="#e8e8e8"/>
          <path id="Trazado_193852" data-name="Trazado 193852" d="M1.1,0A1.1,1.1,0,1,1,0,1.1,1.1,1.1,0,0,1,1.1,0Z" transform="translate(6.089 72.303)" fill="#e8e8e8"/>
          <ellipse id="Elipse_5593" data-name="Elipse 5593" cx="1.249" cy="1.249" rx="1.249" ry="1.249" transform="translate(12.564 72.157)" fill="#e8e8e8"/>
          <ellipse id="Elipse_5594" data-name="Elipse 5594" cx="1.249" cy="1.249" rx="1.249" ry="1.249" transform="translate(19.185 72.157)" fill="#e8e8e8"/>
          <ellipse id="Elipse_5595" data-name="Elipse 5595" cx="1.249" cy="1.249" rx="1.249" ry="1.249" transform="translate(25.806 72.157)" fill="#e8e8e8"/>
          <ellipse id="Elipse_5596" data-name="Elipse 5596" cx="1.249" cy="1.249" rx="1.249" ry="1.249" transform="translate(32.428 72.157)" fill="#e8e8e8"/>
          <ellipse id="Elipse_5597" data-name="Elipse 5597" cx="1.249" cy="1.249" rx="1.249" ry="1.249" transform="translate(39.049 72.157)" fill="#e8e8e8"/>
          <ellipse id="Elipse_5598" data-name="Elipse 5598" cx="1.249" cy="1.249" rx="1.249" ry="1.249" transform="translate(45.671 72.157)" fill="#e8e8e8"/>
          <path id="Trazado_193853" data-name="Trazado 193853" d="M1.249,0A1.249,1.249,0,1,1,0,1.249,1.249,1.249,0,0,1,1.249,0Z" transform="translate(52.292 72.157)" fill="#e8e8e8"/>
          <path id="Trazado_193854" data-name="Trazado 193854" d="M1.249,0A1.249,1.249,0,1,1,0,1.249,1.249,1.249,0,0,1,1.249,0Z" transform="translate(58.914 72.157)" fill="#e8e8e8"/>
          <path id="Trazado_193855" data-name="Trazado 193855" d="M1.249,0A1.249,1.249,0,1,1,0,1.249,1.249,1.249,0,0,1,1.249,0Z" transform="translate(65.535 72.157)" fill="#e8e8e8"/>
          <path id="Trazado_193856" data-name="Trazado 193856" d="M1.249,0A1.249,1.249,0,1,1,0,1.249,1.249,1.249,0,0,1,1.249,0Z" transform="translate(72.156 72.157)" fill="#e8e8e8"/>
          <path id="Trazado_193857" data-name="Trazado 193857" d="M1.249,0A1.249,1.249,0,1,1,0,1.249,1.249,1.249,0,0,1,1.249,0Z" transform="translate(78.778 72.157)" fill="#e8e8e8"/>
          <path id="Trazado_193858" data-name="Trazado 193858" d="M1.249,0A1.249,1.249,0,1,1,0,1.249,1.249,1.249,0,0,1,1.249,0Z" transform="translate(85.399 72.157)" fill="#e8e8e8"/>
          <path id="Trazado_193859" data-name="Trazado 193859" d="M1.249,0A1.249,1.249,0,1,1,0,1.249,1.249,1.249,0,0,1,1.249,0Z" transform="translate(92.02 72.157)" fill="#e8e8e8"/>
          <path id="Trazado_193860" data-name="Trazado 193860" d="M1.082,0A1.084,1.084,0,1,1,0,1.084,1.083,1.083,0,0,1,1.082,0Z" transform="translate(98.808 72.322)" fill="#e8e8e8"/>
          <ellipse id="Elipse_5599" data-name="Elipse 5599" cx="0.037" cy="0.037" rx="0.037" ry="0.037" transform="translate(106.476 73.369)" fill="#e8e8e8"/>
          <ellipse id="Elipse_5600" data-name="Elipse 5600" cx="0.312" cy="0.312" rx="0.312" ry="0.312" transform="translate(0.257 66.472)" fill="#e8e8e8"/>
          <ellipse id="Elipse_5601" data-name="Elipse 5601" cx="1.249" cy="1.249" rx="1.249" ry="1.249" transform="translate(5.942 65.535)" fill="#e8e8e8"/>
          <ellipse id="Elipse_5602" data-name="Elipse 5602" cx="1.249" cy="1.249" rx="1.249" ry="1.249" transform="translate(12.564 65.535)" fill="#e8e8e8"/>
          <ellipse id="Elipse_5603" data-name="Elipse 5603" cx="1.249" cy="1.249" rx="1.249" ry="1.249" transform="translate(19.185 65.535)" fill="#e8e8e8"/>
          <ellipse id="Elipse_5604" data-name="Elipse 5604" cx="1.249" cy="1.249" rx="1.249" ry="1.249" transform="translate(25.806 65.535)" fill="#e8e8e8"/>
          <ellipse id="Elipse_5605" data-name="Elipse 5605" cx="1.249" cy="1.249" rx="1.249" ry="1.249" transform="translate(32.428 65.535)" fill="#e8e8e8"/>
          <ellipse id="Elipse_5606" data-name="Elipse 5606" cx="1.249" cy="1.249" rx="1.249" ry="1.249" transform="translate(39.049 65.535)" fill="#e8e8e8"/>
          <ellipse id="Elipse_5607" data-name="Elipse 5607" cx="1.249" cy="1.249" rx="1.249" ry="1.249" transform="translate(45.671 65.535)" fill="#e8e8e8"/>
          <path id="Trazado_193861" data-name="Trazado 193861" d="M1.249,0A1.249,1.249,0,1,1,0,1.249,1.249,1.249,0,0,1,1.249,0Z" transform="translate(52.292 65.535)" fill="#e8e8e8"/>
          <path id="Trazado_193862" data-name="Trazado 193862" d="M1.249,0A1.249,1.249,0,1,1,0,1.249,1.249,1.249,0,0,1,1.249,0Z" transform="translate(58.914 65.535)" fill="#e8e8e8"/>
          <path id="Trazado_193863" data-name="Trazado 193863" d="M1.249,0A1.249,1.249,0,1,1,0,1.249,1.249,1.249,0,0,1,1.249,0Z" transform="translate(65.535 65.535)" fill="#e8e8e8"/>
          <path id="Trazado_193864" data-name="Trazado 193864" d="M1.249,0A1.249,1.249,0,1,1,0,1.249,1.249,1.249,0,0,1,1.249,0Z" transform="translate(72.156 65.535)" fill="#e8e8e8"/>
          <path id="Trazado_193865" data-name="Trazado 193865" d="M1.249,0A1.249,1.249,0,1,1,0,1.249,1.249,1.249,0,0,1,1.249,0Z" transform="translate(78.778 65.535)" fill="#e8e8e8"/>
          <path id="Trazado_193866" data-name="Trazado 193866" d="M1.249,0A1.249,1.249,0,1,1,0,1.249,1.249,1.249,0,0,1,1.249,0Z" transform="translate(85.399 65.535)" fill="#e8e8e8"/>
          <path id="Trazado_193867" data-name="Trazado 193867" d="M1.249,0A1.249,1.249,0,1,1,0,1.249,1.249,1.249,0,0,1,1.249,0Z" transform="translate(92.02 65.535)" fill="#e8e8e8"/>
          <path id="Trazado_193868" data-name="Trazado 193868" d="M1.247,0A1.249,1.249,0,1,1,0,1.249,1.248,1.248,0,0,1,1.247,0Z" transform="translate(98.643 65.535)" fill="#e8e8e8"/>
          <ellipse id="Elipse_5608" data-name="Elipse 5608" cx="0.275" cy="0.275" rx="0.275" ry="0.275" transform="translate(106.237 66.508)" fill="#e8e8e8"/>
          <path id="Trazado_193869" data-name="Trazado 193869" d="M.533,0A.533.533,0,1,1,0,.533.533.533,0,0,1,.533,0Z" transform="translate(0.037 59.63)" fill="#e8e8e8"/>
          <path id="Trazado_193870" data-name="Trazado 193870" d="M1.249,0A1.249,1.249,0,1,1,0,1.249,1.247,1.247,0,0,1,1.249,0Z" transform="translate(5.942 58.914)" fill="#e8e8e8"/>
          <path id="Trazado_193871" data-name="Trazado 193871" d="M1.249,0A1.249,1.249,0,1,1,0,1.249,1.247,1.247,0,0,1,1.249,0Z" transform="translate(12.564 58.914)" fill="#e8e8e8"/>
          <path id="Trazado_193872" data-name="Trazado 193872" d="M1.249,0A1.249,1.249,0,1,1,0,1.249,1.247,1.247,0,0,1,1.249,0Z" transform="translate(19.185 58.914)" fill="#e8e8e8"/>
          <path id="Trazado_193873" data-name="Trazado 193873" d="M1.249,0A1.249,1.249,0,1,1,0,1.249,1.247,1.247,0,0,1,1.249,0Z" transform="translate(25.807 58.914)" fill="#e8e8e8"/>
          <path id="Trazado_193874" data-name="Trazado 193874" d="M1.249,0A1.249,1.249,0,1,1,0,1.249,1.248,1.248,0,0,1,1.249,0Z" transform="translate(32.428 58.914)" fill="#e8e8e8"/>
          <path id="Trazado_193875" data-name="Trazado 193875" d="M1.249,0A1.249,1.249,0,1,1,0,1.249,1.248,1.248,0,0,1,1.249,0Z" transform="translate(39.049 58.914)" fill="#e8e8e8"/>
          <path id="Trazado_193876" data-name="Trazado 193876" d="M1.249,0A1.249,1.249,0,1,1,0,1.249,1.248,1.248,0,0,1,1.249,0Z" transform="translate(45.671 58.914)" fill="#e8e8e8"/>
          <path id="Trazado_193877" data-name="Trazado 193877" d="M1.249,0A1.249,1.249,0,1,1,0,1.249,1.248,1.248,0,0,1,1.249,0Z" transform="translate(52.292 58.914)" fill="#e8e8e8"/>
          <path id="Trazado_193878" data-name="Trazado 193878" d="M1.249,0A1.249,1.249,0,1,1,0,1.249,1.248,1.248,0,0,1,1.249,0Z" transform="translate(58.914 58.914)" fill="#e8e8e8"/>
          <path id="Trazado_193879" data-name="Trazado 193879" d="M1.249,0A1.249,1.249,0,1,1,0,1.249,1.248,1.248,0,0,1,1.249,0Z" transform="translate(65.535 58.914)" fill="#e8e8e8"/>
          <path id="Trazado_193880" data-name="Trazado 193880" d="M1.249,0A1.249,1.249,0,1,1,0,1.249,1.248,1.248,0,0,1,1.249,0Z" transform="translate(72.156 58.914)" fill="#e8e8e8"/>
          <path id="Trazado_193881" data-name="Trazado 193881" d="M1.249,0A1.249,1.249,0,1,1,0,1.249,1.248,1.248,0,0,1,1.249,0Z" transform="translate(78.778 58.914)" fill="#e8e8e8"/>
          <path id="Trazado_193882" data-name="Trazado 193882" d="M1.249,0A1.249,1.249,0,1,1,0,1.249,1.248,1.248,0,0,1,1.249,0Z" transform="translate(85.399 58.914)" fill="#e8e8e8"/>
          <path id="Trazado_193883" data-name="Trazado 193883" d="M1.249,0A1.249,1.249,0,1,1,0,1.249,1.248,1.248,0,0,1,1.249,0Z" transform="translate(92.02 58.914)" fill="#e8e8e8"/>
          <path id="Trazado_193884" data-name="Trazado 193884" d="M1.247,0A1.249,1.249,0,1,1,0,1.249,1.248,1.248,0,0,1,1.247,0Z" transform="translate(98.643 58.914)" fill="#e8e8e8"/>
          <path id="Trazado_193885" data-name="Trazado 193885" d="M.514,0A.514.514,0,1,1,0,.514.513.513,0,0,1,.514,0Z" transform="translate(105.998 59.649)" fill="#e8e8e8"/>
          <ellipse id="Elipse_5609" data-name="Elipse 5609" cx="0.569" cy="0.569" rx="0.569" ry="0.569" transform="translate(0 52.972)" fill="#e8e8e8"/>
          <path id="Trazado_193886" data-name="Trazado 193886" d="M1.249,0A1.249,1.249,0,1,1,0,1.249,1.247,1.247,0,0,1,1.249,0Z" transform="translate(5.942 52.293)" fill="#e8e8e8"/>
          <path id="Trazado_193887" data-name="Trazado 193887" d="M1.249,0A1.249,1.249,0,1,1,0,1.249,1.247,1.247,0,0,1,1.249,0Z" transform="translate(12.564 52.293)" fill="#e8e8e8"/>
          <path id="Trazado_193888" data-name="Trazado 193888" d="M1.249,0A1.249,1.249,0,1,1,0,1.249,1.247,1.247,0,0,1,1.249,0Z" transform="translate(19.185 52.293)" fill="#e8e8e8"/>
          <path id="Trazado_193889" data-name="Trazado 193889" d="M1.249,0A1.249,1.249,0,1,1,0,1.249,1.247,1.247,0,0,1,1.249,0Z" transform="translate(25.807 52.293)" fill="#e8e8e8"/>
          <path id="Trazado_193890" data-name="Trazado 193890" d="M1.249,0A1.249,1.249,0,1,1,0,1.249,1.249,1.249,0,0,1,1.249,0Z" transform="translate(32.428 52.293)" fill="#e8e8e8"/>
          <path id="Trazado_193891" data-name="Trazado 193891" d="M1.249,0A1.249,1.249,0,1,1,0,1.249,1.249,1.249,0,0,1,1.249,0Z" transform="translate(39.049 52.293)" fill="#e8e8e8"/>
          <path id="Trazado_193892" data-name="Trazado 193892" d="M1.249,0A1.249,1.249,0,1,1,0,1.249,1.249,1.249,0,0,1,1.249,0Z" transform="translate(45.671 52.293)" fill="#e8e8e8"/>
          <path id="Trazado_193893" data-name="Trazado 193893" d="M1.249,0A1.249,1.249,0,1,1,0,1.249,1.249,1.249,0,0,1,1.249,0Z" transform="translate(52.292 52.293)" fill="#e8e8e8"/>
          <path id="Trazado_193894" data-name="Trazado 193894" d="M1.249,0A1.249,1.249,0,1,1,0,1.249,1.249,1.249,0,0,1,1.249,0Z" transform="translate(58.914 52.293)" fill="#e8e8e8"/>
          <path id="Trazado_193895" data-name="Trazado 193895" d="M1.249,0A1.249,1.249,0,1,1,0,1.249,1.249,1.249,0,0,1,1.249,0Z" transform="translate(65.535 52.293)" fill="#e8e8e8"/>
          <path id="Trazado_193896" data-name="Trazado 193896" d="M1.249,0A1.249,1.249,0,1,1,0,1.249,1.249,1.249,0,0,1,1.249,0Z" transform="translate(72.156 52.293)" fill="#e8e8e8"/>
          <path id="Trazado_193897" data-name="Trazado 193897" d="M1.249,0A1.249,1.249,0,1,1,0,1.249,1.249,1.249,0,0,1,1.249,0Z" transform="translate(78.778 52.293)" fill="#e8e8e8"/>
          <path id="Trazado_193898" data-name="Trazado 193898" d="M1.249,0A1.249,1.249,0,1,1,0,1.249,1.249,1.249,0,0,1,1.249,0Z" transform="translate(85.399 52.293)" fill="#e8e8e8"/>
          <path id="Trazado_193899" data-name="Trazado 193899" d="M1.249,0A1.249,1.249,0,1,1,0,1.249,1.249,1.249,0,0,1,1.249,0Z" transform="translate(92.02 52.293)" fill="#e8e8e8"/>
          <path id="Trazado_193900" data-name="Trazado 193900" d="M1.247,0A1.249,1.249,0,1,1,0,1.249,1.248,1.248,0,0,1,1.247,0Z" transform="translate(98.643 52.293)" fill="#e8e8e8"/>
          <path id="Trazado_193901" data-name="Trazado 193901" d="M.568,0A.569.569,0,1,1,0,.57.569.569,0,0,1,.568,0Z" transform="translate(105.944 52.972)" fill="#e8e8e8"/>
          <path id="Trazado_193902" data-name="Trazado 193902" d="M.533,0A.533.533,0,1,1,0,.533.533.533,0,0,1,.533,0Z" transform="translate(0.037 46.387)" fill="#e8e8e8"/>
          <path id="Trazado_193903" data-name="Trazado 193903" d="M1.249,0A1.248,1.248,0,1,1,0,1.249,1.247,1.247,0,0,1,1.249,0Z" transform="translate(5.942 45.671)" fill="#e8e8e8"/>
          <path id="Trazado_193904" data-name="Trazado 193904" d="M1.249,0A1.248,1.248,0,1,1,0,1.249,1.247,1.247,0,0,1,1.249,0Z" transform="translate(12.564 45.671)" fill="#e8e8e8"/>
          <path id="Trazado_193905" data-name="Trazado 193905" d="M1.249,0A1.248,1.248,0,1,1,0,1.249,1.247,1.247,0,0,1,1.249,0Z" transform="translate(19.185 45.671)" fill="#e8e8e8"/>
          <path id="Trazado_193906" data-name="Trazado 193906" d="M1.249,0A1.248,1.248,0,1,1,0,1.249,1.247,1.247,0,0,1,1.249,0Z" transform="translate(25.807 45.671)" fill="#e8e8e8"/>
          <path id="Trazado_193907" data-name="Trazado 193907" d="M1.249,0A1.248,1.248,0,1,1,0,1.249,1.249,1.249,0,0,1,1.249,0Z" transform="translate(32.428 45.671)" fill="#e8e8e8"/>
          <path id="Trazado_193908" data-name="Trazado 193908" d="M1.249,0A1.248,1.248,0,1,1,0,1.249,1.249,1.249,0,0,1,1.249,0Z" transform="translate(39.049 45.671)" fill="#e8e8e8"/>
          <path id="Trazado_193909" data-name="Trazado 193909" d="M1.249,0A1.248,1.248,0,1,1,0,1.249,1.249,1.249,0,0,1,1.249,0Z" transform="translate(45.671 45.671)" fill="#e8e8e8"/>
          <path id="Trazado_193910" data-name="Trazado 193910" d="M1.249,0A1.248,1.248,0,1,1,0,1.249,1.249,1.249,0,0,1,1.249,0Z" transform="translate(52.292 45.671)" fill="#e8e8e8"/>
          <path id="Trazado_193911" data-name="Trazado 193911" d="M1.249,0A1.248,1.248,0,1,1,0,1.249,1.249,1.249,0,0,1,1.249,0Z" transform="translate(58.914 45.671)" fill="#e8e8e8"/>
          <path id="Trazado_193912" data-name="Trazado 193912" d="M1.249,0A1.248,1.248,0,1,1,0,1.249,1.249,1.249,0,0,1,1.249,0Z" transform="translate(65.535 45.671)" fill="#e8e8e8"/>
          <path id="Trazado_193913" data-name="Trazado 193913" d="M1.249,0A1.248,1.248,0,1,1,0,1.249,1.249,1.249,0,0,1,1.249,0Z" transform="translate(72.156 45.671)" fill="#e8e8e8"/>
          <path id="Trazado_193914" data-name="Trazado 193914" d="M1.249,0A1.248,1.248,0,1,1,0,1.249,1.249,1.249,0,0,1,1.249,0Z" transform="translate(78.778 45.671)" fill="#e8e8e8"/>
          <path id="Trazado_193915" data-name="Trazado 193915" d="M1.249,0A1.248,1.248,0,1,1,0,1.249,1.249,1.249,0,0,1,1.249,0Z" transform="translate(85.399 45.671)" fill="#e8e8e8"/>
          <path id="Trazado_193916" data-name="Trazado 193916" d="M1.249,0A1.248,1.248,0,1,1,0,1.249,1.249,1.249,0,0,1,1.249,0Z" transform="translate(92.02 45.671)" fill="#e8e8e8"/>
          <path id="Trazado_193917" data-name="Trazado 193917" d="M1.247,0A1.248,1.248,0,1,1,0,1.249,1.248,1.248,0,0,1,1.247,0Z" transform="translate(98.643 45.671)" fill="#e8e8e8"/>
          <path id="Trazado_193918" data-name="Trazado 193918" d="M.5,0A.5.5,0,1,1,0,.5.5.5,0,0,1,.5,0Z" transform="translate(106.016 46.424)" fill="#e8e8e8"/>
          <ellipse id="Elipse_5610" data-name="Elipse 5610" cx="0.294" cy="0.294" rx="0.294" ry="0.294" transform="translate(0.275 40.004)" fill="#e8e8e8"/>
          <path id="Trazado_193919" data-name="Trazado 193919" d="M1.249,0A1.248,1.248,0,1,1,0,1.249,1.247,1.247,0,0,1,1.249,0Z" transform="translate(5.942 39.05)" fill="#e8e8e8"/>
          <path id="Trazado_193920" data-name="Trazado 193920" d="M1.249,0A1.248,1.248,0,1,1,0,1.249,1.247,1.247,0,0,1,1.249,0Z" transform="translate(12.564 39.05)" fill="#e8e8e8"/>
          <path id="Trazado_193921" data-name="Trazado 193921" d="M1.249,0A1.248,1.248,0,1,1,0,1.249,1.247,1.247,0,0,1,1.249,0Z" transform="translate(19.185 39.05)" fill="#e8e8e8"/>
          <path id="Trazado_193922" data-name="Trazado 193922" d="M1.249,0A1.248,1.248,0,1,1,0,1.249,1.247,1.247,0,0,1,1.249,0Z" transform="translate(25.807 39.05)" fill="#e8e8e8"/>
          <path id="Trazado_193923" data-name="Trazado 193923" d="M1.249,0A1.248,1.248,0,1,1,0,1.249,1.249,1.249,0,0,1,1.249,0Z" transform="translate(32.428 39.05)" fill="#e8e8e8"/>
          <path id="Trazado_193924" data-name="Trazado 193924" d="M1.249,0A1.248,1.248,0,1,1,0,1.249,1.249,1.249,0,0,1,1.249,0Z" transform="translate(39.049 39.05)" fill="#e8e8e8"/>
          <path id="Trazado_193925" data-name="Trazado 193925" d="M1.249,0A1.248,1.248,0,1,1,0,1.249,1.249,1.249,0,0,1,1.249,0Z" transform="translate(45.671 39.05)" fill="#e8e8e8"/>
          <path id="Trazado_193926" data-name="Trazado 193926" d="M1.249,0A1.248,1.248,0,1,1,0,1.249,1.249,1.249,0,0,1,1.249,0Z" transform="translate(52.292 39.05)" fill="#e8e8e8"/>
          <path id="Trazado_193927" data-name="Trazado 193927" d="M1.249,0A1.248,1.248,0,1,1,0,1.249,1.249,1.249,0,0,1,1.249,0Z" transform="translate(58.914 39.05)" fill="#e8e8e8"/>
          <path id="Trazado_193928" data-name="Trazado 193928" d="M1.249,0A1.248,1.248,0,1,1,0,1.249,1.249,1.249,0,0,1,1.249,0Z" transform="translate(65.535 39.05)" fill="#e8e8e8"/>
          <path id="Trazado_193929" data-name="Trazado 193929" d="M1.249,0A1.248,1.248,0,1,1,0,1.249,1.249,1.249,0,0,1,1.249,0Z" transform="translate(72.156 39.05)" fill="#e8e8e8"/>
          <path id="Trazado_193930" data-name="Trazado 193930" d="M1.249,0A1.248,1.248,0,1,1,0,1.249,1.249,1.249,0,0,1,1.249,0Z" transform="translate(78.778 39.05)" fill="#e8e8e8"/>
          <path id="Trazado_193931" data-name="Trazado 193931" d="M1.249,0A1.248,1.248,0,1,1,0,1.249,1.249,1.249,0,0,1,1.249,0Z" transform="translate(85.399 39.05)" fill="#e8e8e8"/>
          <path id="Trazado_193932" data-name="Trazado 193932" d="M1.249,0A1.248,1.248,0,1,1,0,1.249,1.249,1.249,0,0,1,1.249,0Z" transform="translate(92.02 39.05)" fill="#e8e8e8"/>
          <path id="Trazado_193933" data-name="Trazado 193933" d="M1.247,0A1.248,1.248,0,1,1,0,1.249,1.248,1.248,0,0,1,1.247,0Z" transform="translate(98.643 39.05)" fill="#e8e8e8"/>
          <ellipse id="Elipse_5611" data-name="Elipse 5611" cx="0.275" cy="0.275" rx="0.275" ry="0.275" transform="translate(106.237 40.023)" fill="#e8e8e8"/>
          <ellipse id="Elipse_5612" data-name="Elipse 5612" cx="0.018" cy="0.018" rx="0.018" ry="0.018" transform="translate(0.551 33.658)" fill="#e8e8e8"/>
          <path id="Trazado_193934" data-name="Trazado 193934" d="M1.1,0A1.1,1.1,0,1,1,0,1.1,1.1,1.1,0,0,1,1.1,0Z" transform="translate(6.089 32.575)" fill="#e8e8e8"/>
          <path id="Trazado_193935" data-name="Trazado 193935" d="M1.249,0A1.248,1.248,0,1,1,0,1.247,1.247,1.247,0,0,1,1.249,0Z" transform="translate(12.564 32.428)" fill="#e8e8e8"/>
          <path id="Trazado_193936" data-name="Trazado 193936" d="M1.249,0A1.248,1.248,0,1,1,0,1.247,1.247,1.247,0,0,1,1.249,0" transform="translate(19.185 32.428)" fill="#e8e8e8"/>
          <path id="Trazado_193937" data-name="Trazado 193937" d="M1.249,0A1.248,1.248,0,1,1,0,1.247,1.247,1.247,0,0,1,1.249,0Z" transform="translate(25.807 32.428)" fill="#e8e8e8"/>
          <path id="Trazado_193938" data-name="Trazado 193938" d="M1.249,0A1.248,1.248,0,1,1,0,1.247,1.248,1.248,0,0,1,1.249,0Z" transform="translate(32.428 32.428)" fill="#e8e8e8"/>
          <path id="Trazado_193939" data-name="Trazado 193939" d="M1.249,0A1.248,1.248,0,1,1,0,1.247,1.248,1.248,0,0,1,1.249,0Z" transform="translate(39.049 32.428)" fill="#e8e8e8"/>
          <path id="Trazado_193940" data-name="Trazado 193940" d="M1.249,0A1.248,1.248,0,1,1,0,1.247,1.248,1.248,0,0,1,1.249,0Z" transform="translate(45.671 32.428)" fill="#e8e8e8"/>
          <path id="Trazado_193941" data-name="Trazado 193941" d="M1.249,0A1.248,1.248,0,1,1,0,1.247,1.248,1.248,0,0,1,1.249,0Z" transform="translate(52.292 32.428)" fill="#e8e8e8"/>
          <path id="Trazado_193942" data-name="Trazado 193942" d="M1.249,0A1.248,1.248,0,1,1,0,1.247,1.248,1.248,0,0,1,1.249,0Z" transform="translate(58.914 32.428)" fill="#e8e8e8"/>
          <path id="Trazado_193943" data-name="Trazado 193943" d="M1.249,0A1.248,1.248,0,1,1,0,1.247,1.248,1.248,0,0,1,1.249,0Z" transform="translate(65.535 32.428)" fill="#e8e8e8"/>
          <path id="Trazado_193944" data-name="Trazado 193944" d="M1.249,0A1.248,1.248,0,1,1,0,1.247,1.248,1.248,0,0,1,1.249,0Z" transform="translate(72.156 32.428)" fill="#e8e8e8"/>
          <path id="Trazado_193945" data-name="Trazado 193945" d="M1.249,0A1.248,1.248,0,1,1,0,1.247,1.248,1.248,0,0,1,1.249,0Z" transform="translate(78.778 32.428)" fill="#e8e8e8"/>
          <path id="Trazado_193946" data-name="Trazado 193946" d="M1.249,0A1.248,1.248,0,1,1,0,1.247,1.248,1.248,0,0,1,1.249,0Z" transform="translate(85.399 32.428)" fill="#e8e8e8"/>
          <path id="Trazado_193947" data-name="Trazado 193947" d="M1.249,0A1.248,1.248,0,1,1,0,1.247,1.248,1.248,0,0,1,1.249,0Z" transform="translate(92.02 32.428)" fill="#e8e8e8"/>
          <path id="Trazado_193948" data-name="Trazado 193948" d="M1.082,0A1.083,1.083,0,1,1,0,1.082,1.082,1.082,0,0,1,1.082,0Z" transform="translate(98.808 32.594)" fill="#e8e8e8"/>
          <ellipse id="Elipse_5613" data-name="Elipse 5613" cx="0.037" cy="0.037" rx="0.037" ry="0.037" transform="translate(106.476 33.64)" fill="#e8e8e8"/>
          <path id="Trazado_193949" data-name="Trazado 193949" d="M.515,0A.515.515,0,1,1,0,.514.515.515,0,0,1,.515,0Z" transform="translate(6.676 26.54)" fill="#e8e8e8"/>
          <path id="Trazado_193950" data-name="Trazado 193950" d="M1.249,0A1.248,1.248,0,1,1,0,1.247,1.247,1.247,0,0,1,1.249,0Z" transform="translate(12.564 25.807)" fill="#e8e8e8"/>
          <path id="Trazado_193951" data-name="Trazado 193951" d="M1.249,0A1.248,1.248,0,1,1,0,1.247,1.247,1.247,0,0,1,1.249,0Z" transform="translate(19.185 25.807)" fill="#e8e8e8"/>
          <path id="Trazado_193952" data-name="Trazado 193952" d="M1.249,0A1.248,1.248,0,1,1,0,1.247,1.247,1.247,0,0,1,1.249,0Z" transform="translate(25.807 25.807)" fill="#e8e8e8"/>
          <path id="Trazado_193953" data-name="Trazado 193953" d="M1.249,0A1.248,1.248,0,1,1,0,1.247,1.248,1.248,0,0,1,1.249,0Z" transform="translate(32.428 25.807)" fill="#e8e8e8"/>
          <path id="Trazado_193954" data-name="Trazado 193954" d="M1.249,0A1.248,1.248,0,1,1,0,1.247,1.248,1.248,0,0,1,1.249,0Z" transform="translate(39.049 25.807)" fill="#e8e8e8"/>
          <path id="Trazado_193955" data-name="Trazado 193955" d="M1.249,0A1.248,1.248,0,1,1,0,1.247,1.248,1.248,0,0,1,1.249,0Z" transform="translate(45.671 25.807)" fill="#e8e8e8"/>
          <path id="Trazado_193956" data-name="Trazado 193956" d="M1.249,0A1.248,1.248,0,1,1,0,1.247,1.248,1.248,0,0,1,1.249,0Z" transform="translate(52.292 25.807)" fill="#e8e8e8"/>
          <path id="Trazado_193957" data-name="Trazado 193957" d="M1.249,0A1.248,1.248,0,1,1,0,1.247,1.248,1.248,0,0,1,1.249,0Z" transform="translate(58.914 25.807)" fill="#e8e8e8"/>
          <path id="Trazado_193958" data-name="Trazado 193958" d="M1.249,0A1.248,1.248,0,1,1,0,1.247,1.248,1.248,0,0,1,1.249,0Z" transform="translate(65.535 25.807)" fill="#e8e8e8"/>
          <path id="Trazado_193959" data-name="Trazado 193959" d="M1.249,0A1.248,1.248,0,1,1,0,1.247,1.248,1.248,0,0,1,1.249,0Z" transform="translate(72.156 25.807)" fill="#e8e8e8"/>
          <path id="Trazado_193960" data-name="Trazado 193960" d="M1.249,0A1.248,1.248,0,1,1,0,1.247,1.248,1.248,0,0,1,1.249,0Z" transform="translate(78.778 25.807)" fill="#e8e8e8"/>
          <path id="Trazado_193961" data-name="Trazado 193961" d="M1.249,0A1.248,1.248,0,1,1,0,1.247,1.248,1.248,0,0,1,1.249,0Z" transform="translate(85.399 25.807)" fill="#e8e8e8"/>
          <path id="Trazado_193962" data-name="Trazado 193962" d="M1.249,0A1.248,1.248,0,1,1,0,1.247,1.248,1.248,0,0,1,1.249,0Z" transform="translate(92.02 25.807)" fill="#e8e8e8"/>
          <path id="Trazado_193963" data-name="Trazado 193963" d="M.5,0A.5.5,0,1,1,0,.5.5.5,0,0,1,.5,0Z" transform="translate(99.395 26.559)" fill="#e8e8e8"/>
          <ellipse id="Elipse_5614" data-name="Elipse 5614" cx="0.018" cy="0.018" rx="0.018" ry="0.018" transform="translate(7.172 20.415)" fill="#e8e8e8"/>
          <path id="Trazado_193964" data-name="Trazado 193964" d="M.881,0A.881.881,0,1,1,0,.881.883.883,0,0,1,.881,0Z" transform="translate(12.931 19.552)" fill="#e8e8e8"/>
          <ellipse id="Elipse_5615" data-name="Elipse 5615" cx="1.249" cy="1.249" rx="1.249" ry="1.249" transform="translate(19.185 19.185)" fill="#e8e8e8"/>
          <ellipse id="Elipse_5616" data-name="Elipse 5616" cx="1.249" cy="1.249" rx="1.249" ry="1.249" transform="translate(25.806 19.185)" fill="#e8e8e8"/>
          <ellipse id="Elipse_5617" data-name="Elipse 5617" cx="1.249" cy="1.249" rx="1.249" ry="1.249" transform="translate(32.428 19.185)" fill="#e8e8e8"/>
          <ellipse id="Elipse_5618" data-name="Elipse 5618" cx="1.249" cy="1.249" rx="1.249" ry="1.249" transform="translate(39.049 19.185)" fill="#e8e8e8"/>
          <ellipse id="Elipse_5619" data-name="Elipse 5619" cx="1.249" cy="1.249" rx="1.249" ry="1.249" transform="translate(45.671 19.185)" fill="#e8e8e8"/>
          <path id="Trazado_193965" data-name="Trazado 193965" d="M1.249,0A1.248,1.248,0,1,1,0,1.247,1.248,1.248,0,0,1,1.249,0Z" transform="translate(52.292 19.186)" fill="#e8e8e8"/>
          <path id="Trazado_193966" data-name="Trazado 193966" d="M1.249,0A1.248,1.248,0,1,1,0,1.247,1.248,1.248,0,0,1,1.249,0Z" transform="translate(58.914 19.186)" fill="#e8e8e8"/>
          <path id="Trazado_193967" data-name="Trazado 193967" d="M1.249,0A1.248,1.248,0,1,1,0,1.247,1.248,1.248,0,0,1,1.249,0Z" transform="translate(65.535 19.186)" fill="#e8e8e8"/>
          <path id="Trazado_193968" data-name="Trazado 193968" d="M1.249,0A1.248,1.248,0,1,1,0,1.247,1.248,1.248,0,0,1,1.249,0Z" transform="translate(72.156 19.186)" fill="#e8e8e8"/>
          <path id="Trazado_193969" data-name="Trazado 193969" d="M1.249,0A1.248,1.248,0,1,1,0,1.247,1.248,1.248,0,0,1,1.249,0Z" transform="translate(78.778 19.186)" fill="#e8e8e8"/>
          <path id="Trazado_193970" data-name="Trazado 193970" d="M1.249,0A1.248,1.248,0,1,1,0,1.247,1.248,1.248,0,0,1,1.249,0Z" transform="translate(85.399 19.186)" fill="#e8e8e8"/>
          <path id="Trazado_193971" data-name="Trazado 193971" d="M.863,0A.864.864,0,1,1,0,.863.863.863,0,0,1,.863,0Z" transform="translate(92.406 19.57)" fill="#e8e8e8"/>
          <ellipse id="Elipse_5620" data-name="Elipse 5620" cx="0.018" cy="0.018" rx="0.018" ry="0.018" transform="translate(99.873 20.415)" fill="#e8e8e8"/>
          <ellipse id="Elipse_5621" data-name="Elipse 5621" cx="0.055" cy="0.055" rx="0.055" ry="0.055" transform="translate(13.757 13.757)" fill="#e8e8e8"/>
          <path id="Trazado_193972" data-name="Trazado 193972" d="M.881,0A.881.881,0,1,1,0,.881.883.883,0,0,1,.881,0Z" transform="translate(19.553 12.93)" fill="#e8e8e8"/>
          <ellipse id="Elipse_5622" data-name="Elipse 5622" cx="1.249" cy="1.249" rx="1.249" ry="1.249" transform="translate(25.806 12.564)" fill="#e8e8e8"/>
          <ellipse id="Elipse_5623" data-name="Elipse 5623" cx="1.249" cy="1.249" rx="1.249" ry="1.249" transform="translate(32.428 12.564)" fill="#e8e8e8"/>
          <ellipse id="Elipse_5624" data-name="Elipse 5624" cx="1.249" cy="1.249" rx="1.249" ry="1.249" transform="translate(39.049 12.564)" fill="#e8e8e8"/>
          <ellipse id="Elipse_5625" data-name="Elipse 5625" cx="1.249" cy="1.249" rx="1.249" ry="1.249" transform="translate(45.671 12.564)" fill="#e8e8e8"/>
          <path id="Trazado_193973" data-name="Trazado 193973" d="M1.249,0A1.248,1.248,0,1,1,0,1.247,1.248,1.248,0,0,1,1.249,0Z" transform="translate(52.292 12.564)" fill="#e8e8e8"/>
          <path id="Trazado_193974" data-name="Trazado 193974" d="M1.249,0A1.248,1.248,0,1,1,0,1.247,1.248,1.248,0,0,1,1.249,0Z" transform="translate(58.914 12.564)" fill="#e8e8e8"/>
          <path id="Trazado_193975" data-name="Trazado 193975" d="M1.249,0A1.248,1.248,0,1,1,0,1.247,1.248,1.248,0,0,1,1.249,0Z" transform="translate(65.535 12.564)" fill="#e8e8e8"/>
          <path id="Trazado_193976" data-name="Trazado 193976" d="M1.249,0A1.248,1.248,0,1,1,0,1.247,1.248,1.248,0,0,1,1.249,0Z" transform="translate(72.156 12.564)" fill="#e8e8e8"/>
          <path id="Trazado_193977" data-name="Trazado 193977" d="M1.249,0A1.248,1.248,0,1,1,0,1.247,1.248,1.248,0,0,1,1.249,0Z" transform="translate(78.778 12.564)" fill="#e8e8e8"/>
          <path id="Trazado_193978" data-name="Trazado 193978" d="M.863,0A.863.863,0,1,1,0,.863.863.863,0,0,1,.863,0Z" transform="translate(85.785 12.949)" fill="#e8e8e8"/>
          <path id="Trazado_193979" data-name="Trazado 193979" d="M.073,0A.073.073,0,1,1,0,.073.073.073,0,0,1,.073,0Z" transform="translate(93.197 13.739)" fill="#e8e8e8"/>
          <ellipse id="Elipse_5626" data-name="Elipse 5626" cx="0.018" cy="0.018" rx="0.018" ry="0.018" transform="translate(20.415 7.172)" fill="#e8e8e8"/>
          <path id="Trazado_193980" data-name="Trazado 193980" d="M.514,0A.514.514,0,1,1,0,.514.515.515,0,0,1,.514,0Z" transform="translate(26.541 6.676)" fill="#e8e8e8"/>
          <path id="Trazado_193981" data-name="Trazado 193981" d="M1.084,0A1.083,1.083,0,1,1,0,1.082,1.083,1.083,0,0,1,1.084,0Z" transform="translate(32.593 6.108)" fill="#e8e8e8"/>
          <ellipse id="Elipse_5627" data-name="Elipse 5627" cx="1.249" cy="1.249" rx="1.249" ry="1.249" transform="translate(39.049 5.942)" fill="#e8e8e8"/>
          <ellipse id="Elipse_5628" data-name="Elipse 5628" cx="1.249" cy="1.249" rx="1.249" ry="1.249" transform="translate(45.671 5.942)" fill="#e8e8e8"/>
          <path id="Trazado_193982" data-name="Trazado 193982" d="M1.249,0A1.248,1.248,0,1,1,0,1.247,1.248,1.248,0,0,1,1.249,0Z" transform="translate(52.292 5.943)" fill="#e8e8e8"/>
          <path id="Trazado_193983" data-name="Trazado 193983" d="M1.249,0A1.248,1.248,0,1,1,0,1.247,1.248,1.248,0,0,1,1.249,0Z" transform="translate(58.914 5.943)" fill="#e8e8e8"/>
          <path id="Trazado_193984" data-name="Trazado 193984" d="M1.249,0A1.248,1.248,0,1,1,0,1.247,1.248,1.248,0,0,1,1.249,0Z" transform="translate(65.535 5.943)" fill="#e8e8e8"/>
          <path id="Trazado_193985" data-name="Trazado 193985" d="M1.084,0A1.083,1.083,0,1,1,0,1.082,1.083,1.083,0,0,1,1.084,0Z" transform="translate(72.321 6.108)" fill="#e8e8e8"/>
          <path id="Trazado_193986" data-name="Trazado 193986" d="M.5,0A.5.5,0,1,1,0,.5.5.5,0,0,1,.5,0Z" transform="translate(79.531 6.695)" fill="#e8e8e8"/>
          <ellipse id="Elipse_5629" data-name="Elipse 5629" cx="0.018" cy="0.018" rx="0.018" ry="0.018" transform="translate(86.63 7.172)" fill="#e8e8e8"/>
          <ellipse id="Elipse_5630" data-name="Elipse 5630" cx="0.037" cy="0.037" rx="0.037" ry="0.037" transform="translate(33.64 0.532)" fill="#e8e8e8"/>
          <path id="Trazado_193987" data-name="Trazado 193987" d="M.275,0A.276.276,0,1,1,0,.275.274.274,0,0,1,.275,0Z" transform="translate(40.023 0.294)" fill="#e8e8e8"/>
          <path id="Trazado_193988" data-name="Trazado 193988" d="M.514,0A.514.514,0,1,1,0,.514.515.515,0,0,1,.514,0Z" transform="translate(46.406 0.055)" fill="#e8e8e8"/>
          <ellipse id="Elipse_5631" data-name="Elipse 5631" cx="0.569" cy="0.569" rx="0.569" ry="0.569" transform="translate(52.972)" fill="#e8e8e8"/>
          <path id="Trazado_193989" data-name="Trazado 193989" d="M.514,0A.514.514,0,1,1,0,.514.515.515,0,0,1,.514,0Z" transform="translate(59.648 0.055)" fill="#e8e8e8"/>
          <path id="Trazado_193990" data-name="Trazado 193990" d="M.275,0A.276.276,0,1,1,0,.275.274.274,0,0,1,.275,0Z" transform="translate(66.509 0.294)" fill="#e8e8e8"/>
          <ellipse id="Elipse_5632" data-name="Elipse 5632" cx="0.037" cy="0.037" rx="0.037" ry="0.037" transform="translate(73.369 0.532)" fill="#e8e8e8"/>
        </g>
      </g>
      <g id="Grupo_169387" data-name="Grupo 169387" transform="translate(186.993 4929.825)">
        <path id="Trazado_211593" data-name="Trazado 211593" d="M3.618,289.064c.151.246.308.484.47.718l25.228-15.464c-.135-.25-.277-.5-.427-.745-.222-.362-.458-.709-.7-1.047L3,287.96c.187.373.391.741.613,1.1" transform="translate(-1.524 -266.671)" fill="#def2f4"/>
        <path id="Trazado_211594" data-name="Trazado 211594" d="M21.287,306.2l17.105-10.485a14.854,14.854,0,0,0,.514-2.8L18.559,305.383a14.913,14.913,0,0,0,2.728.813" transform="translate(-9.409 -277.006)" fill="#def2f4"/>
        <path id="Trazado_211595" data-name="Trazado 211595" d="M10.805,298.083l23.2-14.221a14.663,14.663,0,0,0-.484-2.188L9.074,296.658a14.721,14.721,0,0,0,1.731,1.424" transform="translate(-4.6 -271.308)" fill="#def2f4"/>
        <path id="Trazado_211596" data-name="Trazado 211596" d="M40.334,312.217a14.778,14.778,0,0,0,4.058-3.667l-9.168,5.62a14.784,14.784,0,0,0,5.11-1.953" transform="translate(-17.858 -284.935)" fill="#def2f4"/>
        <path id="Trazado_211597" data-name="Trazado 211597" d="M.424,281.517l24.257-14.869a14.646,14.646,0,0,0-1.791-1.388L0,279.291a14.665,14.665,0,0,0,.424,2.225" transform="translate(0 -262.987)" fill="#def2f4"/>
        <path id="Trazado_211598" data-name="Trazado 211598" d="M10.811,263a14.808,14.808,0,0,0-3.265,2.711l7.161-4.389a14.8,14.8,0,0,0-3.9,1.678" transform="translate(-3.826 -260.992)" fill="#def2f4"/>
        <path id="Trazado_211599" data-name="Trazado 211599" d="M.029,273.537l19.825-12.152A14.913,14.913,0,0,0,17,260.649L.669,270.658a14.872,14.872,0,0,0-.64,2.878" transform="translate(-0.015 -260.649)" fill="#def2f4"/>
      </g>
    </g>
    <g id="Grupo_173415" data-name="Grupo 173415" transform="translate(277 2915.575)">
      <g id="Grupo_173414" data-name="Grupo 173414" transform="translate(0 0)" clip-path="url(#clip-path-2)">
        <path id="Trazado_214037" data-name="Trazado 214037" d="M66.654,38.48a8.543,8.543,0,0,0,2.87,5.022A23.146,23.146,0,0,0,81.7,49.479a30.166,30.166,0,0,0,9.424.07,36.362,36.362,0,0,0,4.222-.852,17.563,17.563,0,0,0,6.163-2.7,8.359,8.359,0,0,0,3.459-5.605c.365-3.5-2.146-6.708-5.061-8.681A4.751,4.751,0,0,0,101.33,26.9a9.37,9.37,0,0,0-2.793-4.414A19.735,19.735,0,0,0,89.1,17.558a5.8,5.8,0,0,0-5.054,1.153,7.793,7.793,0,0,0-2.569,8.168,14.887,14.887,0,0,0-13.351,6.643,7.871,7.871,0,0,0-1.473,4.958" transform="translate(-58.781 -2.854)" fill="#252727"/>
        <path id="Trazado_214038" data-name="Trazado 214038" d="M83.256,38.738a8.543,8.543,0,0,0,2.87,5.022A23.146,23.146,0,0,0,98.3,49.737a30.166,30.166,0,0,0,9.424.07,27.186,27.186,0,0,1-10.384-2.216,15.9,15.9,0,0,1-7.06-5.42,8.744,8.744,0,0,1-.872-8.564,8.765,8.765,0,0,1,5.51-4.235,16.955,16.955,0,0,1,7.091-.224,10.756,10.756,0,0,1-1.364-10.179,7.793,7.793,0,0,0-2.569,8.168A14.887,14.887,0,0,0,84.729,33.78a7.871,7.871,0,0,0-1.473,4.958" transform="translate(-75.383 -3.112)" fill="#424242"/>
        <path id="Trazado_214039" data-name="Trazado 214039" d="M24.879,60.791l1.749-.654A6.774,6.774,0,0,1,30.139,57.4a5.532,5.532,0,0,1,3.881-.006c.154.064.314.128.461.2,2.877,1.416,4.651,5.272,5.362,8.3.186.8,1.423.461,1.231-.346-1.115-4.805-4.517-10.8-10.417-9.622a7.872,7.872,0,0,0-5.778,4.862" transform="translate(40.028 -9.15)" fill="#e94e21"/>
        <path id="Trazado_214040" data-name="Trazado 214040" d="M32.764,104.515a66.8,66.8,0,0,0,30.313,0l-2.536-31.71H35.3L33.154,99.6Z" transform="translate(11.453 -11.943)" fill="#0b67d1"/>
        <path id="Trazado_214041" data-name="Trazado 214041" d="M19.805,59.106l1.582-.589A4.076,4.076,0,0,1,25.1,55.628c4.318-.32,8.289,3.408,10.122,6.925.378.736,1.486.084,1.108-.647-2.2-4.216-7.848-9.1-13.024-7.245a5.653,5.653,0,0,0-3.5,4.446" transform="translate(48.959 -8.9)" fill="#3a435e"/>
        <path id="Trazado_214042" data-name="Trazado 214042" d="M28.221,48.816c-.341-.484-9.07,3.3-9.07,3.3a6.739,6.739,0,0,0,.477-4.426c0-.013-.007-.028-.011-.041-.037-.131-.1-.268-.227-.3a.363.363,0,0,0-.186.013,1.889,1.889,0,0,0-1.122,1.094A14.472,14.472,0,0,0,17.6,50a8.014,8.014,0,0,1-1.639,2.583c-1.113,1.343-.183,4.359-.183,4.359s-.21.14-.495.337l2.387,4.178,1.827-1.063,1.341.131c.971-.034,8.933-4.472,8.8-5.068a3.948,3.948,0,0,0-.151-.5c-.094-.254-.2-.487-.273-.641-.055-.114-.092-.181-.092-.181a6.058,6.058,0,0,0,.023-.731,3.35,3.35,0,0,0-.07-.7.677.677,0,0,0-.281-.486,4.108,4.108,0,0,0-1.448.207c-1.822.43-4.667,1.3-4.6,1.086.094-.292,5.705-3.709,5.705-3.709a1.286,1.286,0,0,0-.006-.468,1.332,1.332,0,0,0-.22-.521" transform="translate(59.511 -7.767)" fill="#ffa07f"/>
        <path id="Trazado_214043" data-name="Trazado 214043" d="M27.253,53.174a4.1,4.1,0,0,0-1.448.208c-.14.529-.137,1.156-.3,1.637a5.2,5.2,0,0,1-1.246,2,8.2,8.2,0,0,1-3.391,1.833c-1.237.389-2.517.655-3.72,1.135a13.527,13.527,0,0,0-1.868.935l.94,1.687,1.737-1.264,1.341.131c.971-.034,8.933-4.472,8.8-5.067a3.786,3.786,0,0,0-.151-.5c-.094-.254-.2-.487-.273-.641-.055-.114-.092-.181-.092-.181a5.86,5.86,0,0,0,.023-.731,3.4,3.4,0,0,0-.069-.7.675.675,0,0,0-.282-.487" transform="translate(61.047 -8.719)" fill="#ff7d6f"/>
        <path id="Trazado_214044" data-name="Trazado 214044" d="M19.97,54.459c-.156.069-.317.138-.481.2a14.567,14.567,0,0,1-2.535.736c-.624.12-1.034.161-1.083.164.043-.023.4-.219.972-.495.608-.294,1.445-.682,2.389-1.053.227-.089.451-.173.666-.253a3.453,3.453,0,0,1,.071.7" transform="translate(68.683 -8.819)" fill="#cf4a57"/>
        <path id="Trazado_214045" data-name="Trazado 214045" d="M18.383,56.327a15.407,15.407,0,0,1-2.918.89,15.543,15.543,0,0,1,2.648-1.531c.071.155.176.388.27.641" transform="translate(70.609 -9.135)" fill="#cf4a57"/>
        <path id="Trazado_214046" data-name="Trazado 214046" d="M28.1,58.285c.023-.016.051-.03.074-.047a3.482,3.482,0,0,0,.358-.263,1.239,1.239,0,0,0,.222-.281,1.55,1.55,0,0,0,.077-.952,8.51,8.51,0,0,1-.119-3.137c.3-1.207,1.226-2.153,1.743-3.286a8.49,8.49,0,0,1,1.169-2.43c.074-.079.156-.155.24-.237-.038-.127-.1-.268-.227-.3a.417.417,0,0,0-.187.014,1.87,1.87,0,0,0-1.12,1.1A14.245,14.245,0,0,0,29.843,50a8.033,8.033,0,0,1-1.637,2.582c-1.115,1.344-.189,4.36-.189,4.36s-.223.106-.491.2l-.064.026-.2.081Z" transform="translate(47.265 -7.767)" fill="#ffbf90"/>
        <path id="Trazado_214047" data-name="Trazado 214047" d="M26.622,59.863l.168-.087a2.51,2.51,0,0,0,.426-.3,3.054,3.054,0,0,0,.953-3.172,2.561,2.561,0,0,0-.192-.484l-.092-.166s0,.069-.01.188-.016.29-.038.492a9.015,9.015,0,0,1-.879,2.933c-.094.181-.176.332-.241.431l-.1.162" transform="translate(51.378 -9.13)" fill="#cf4a57"/>
        <path id="Trazado_214048" data-name="Trazado 214048" d="M28.643,33.022a27.41,27.41,0,0,1,2.543,2.011,14.494,14.494,0,0,1,3.408,4.132c.564,1.172,6.194,19.776,6.194,19.776l5.061-1.883L47.6,56.4l2.107-.782,1.582-.589,3.7-1.378.3-.109.166.314L59.6,61.824s-3.5,1.756-7.7,3.683c-.371.173-.743.34-1.121.512-5.259,2.383-11.21,4.831-12.735,4.452A10.42,10.42,0,0,1,34.9,68.646,79.756,79.756,0,0,1,27.823,62.3V37.884Z" transform="translate(19.057 -5.417)" fill="#fde4d9"/>
        <path id="Trazado_214049" data-name="Trazado 214049" d="M50.089,68.994a17.853,17.853,0,0,0,2.8-3.426.323.323,0,0,1,.6.161,16.034,16.034,0,0,0,.463,3.188.321.321,0,0,1-.618.171,16.938,16.938,0,0,1-.416-2.412,18.461,18.461,0,0,1-2.375,2.771c-.3.284-.752-.168-.453-.453" transform="translate(6.168 -10.731)" fill="#e1bfb2"/>
        <path id="Trazado_214050" data-name="Trazado 214050" d="M53.611,35.29l.7,79.77s8.847-.756,10.347-3.536c.794-1.48-1.025-23.037-2.96-42.876C60,51.331,58.229,35.328,58.025,35.085c-.013-.019-.032-.038-.038-.052a27.41,27.41,0,0,0-2.543-2.011Z" transform="translate(-7.743 -5.417)" fill="#fde4d9"/>
        <path id="Trazado_214051" data-name="Trazado 214051" d="M60.222,160.953l5.087,3.209,10.128-13.5,14.4-19.2.045.038c.173-.269.333-.506.474-.736l.007-.007a11.713,11.713,0,0,0,.974-1.684c.243-.782.742-6.47,1.261-13.671.378-5.253.487-14.266.711-20.756a32.557,32.557,0,0,0-2.434-13.606c-.243-.6-.4-.93-.4-.93L76.584,83.092l4.286,31.121-.3,8.59L68.2,146Z" transform="translate(-41.754 -13.142)" fill="#254f79"/>
        <path id="Trazado_214052" data-name="Trazado 214052" d="M81.627,173.882l5.087,3.209,10.128-13.5L89.6,158.93Z" transform="translate(-63.157 -26.071)" fill="#ff7d6f"/>
        <path id="Trazado_214053" data-name="Trazado 214053" d="M53.5,102.024c1.314,2.216,5.542,11.076,8.63,17.624.9,1.9,1.7,3.6,2.3,4.894.032.058.057.115.083.167.051.109.1.212.141.313.154.32.288.609.41.865.026.064.058.121.084.179.077.18.154.334.211.461.013.019.018.045.031.064.129.282.206.436.206.436s.583,10.666,1.333,11.813c.006.013.013.019.018.032.424.711,3.57,7.22,6.933,14.222,4.195,8.725,8.718,18.219,8.718,18.219l4.619-.974-4.959-21.134L76.086,122.9l-1.256-6.259-6.983-34.7-10.993-.647-1.243-.5s-4.26,17.6-2.108,21.237" transform="translate(-29.519 -13.252)" fill="#ffa07f"/>
        <path id="Trazado_214054" data-name="Trazado 214054" d="M88.138,171.172c-1.07-2.243-14.667-30.761-15.585-32.3-.007-.013-.014-.023-.019-.033-.745-1.147-1.333-11.813-1.333-11.813s-.006-.011-.017-.034-.021-.045-.036-.079l-.011-.023c-.007-.014-.016-.03-.023-.048l-.031-.064c-.025-.056-.054-.117-.088-.189-.009-.02-.018-.042-.029-.064-.061-.129-.131-.282-.214-.458-.027-.058-.056-.119-.084-.181-.119-.252-.253-.543-.4-.867-.048-.1-.1-.2-.145-.309-.025-.056-.053-.112-.079-.17-.567-1.21-1.3-2.784-2.133-4.538-.054-.117-.11-.236-.167-.354-3.088-6.546-7.32-15.408-8.632-17.627-2.149-3.63,2.111-21.237,2.111-21.237l1.243.5c-.745,5.713-2.167,17.4-1.511,19.043.581,1.456,6,11.841,9.585,18.654.111.216.222.428.333.635.013.023.025.046.036.069q.227.433.441.837a.566.566,0,0,1,.03.059c.042.077.081.155.123.23.219.421.428.817.624,1.187l.191.363c.064.119.122.234.181.346.053.1.1.192.15.283s.1.184.142.27c.036.067.07.131.1.194s.055.108.084.159c.052.1.1.192.147.28.018.033.034.064.05.1l.511.968s.354,11.427,1.268,13.334c.005.013.013.027.02.043.919,2,10.662,27.471,13.169,32.834" transform="translate(-35.123 -13.252)" fill="#ff7d6f"/>
        <path id="Trazado_214055" data-name="Trazado 214055" d="M56.386,189.017a1.143,1.143,0,0,0-.876-.706c-1.375-.193-6.335-.594-7.819-1.2-1.152-.471-3.977-1.475-4.813-1.8L36.5,187.443a65.592,65.592,0,0,0,1.136,7.33Z" transform="translate(15.019 -30.398)" fill="#3a435e"/>
        <path id="Trazado_214056" data-name="Trazado 214056" d="M55.137,191.589,36.39,197.345l-.575-1.845,18.746-5.756Z" transform="translate(16.843 -31.126)" fill="#fde4d9"/>
        <path id="Trazado_214057" data-name="Trazado 214057" d="M45.747,188.254c-.007.025-.013.05-.018.076-.041.19-.023.456.226.487a.625.625,0,0,0,.363-.1,4.058,4.058,0,0,0,1.015-.808,3.056,3.056,0,0,0,.8-1.154c.143-.469-.332-.721-.75-.493a3.489,3.489,0,0,0-1.638,1.991" transform="translate(15.545 -30.541)" fill="#fde4d9"/>
        <path id="Trazado_214058" data-name="Trazado 214058" d="M43.693,188.919c-.007.025-.013.05-.018.076-.041.19-.023.456.225.487a.626.626,0,0,0,.364-.1,4.039,4.039,0,0,0,1.014-.808,3.049,3.049,0,0,0,.8-1.154c.143-.469-.332-.721-.75-.493a3.489,3.489,0,0,0-1.638,1.991" transform="translate(19.316 -30.65)" fill="#fde4d9"/>
        <path id="Trazado_214059" data-name="Trazado 214059" d="M41.374,189.062c-.007.025-.013.05-.018.076-.041.19-.023.456.226.487a.628.628,0,0,0,.364-.1,4.058,4.058,0,0,0,1.015-.808,3.056,3.056,0,0,0,.8-1.154c.143-.469-.332-.721-.75-.493a3.491,3.491,0,0,0-1.639,1.991" transform="translate(23.573 -30.673)" fill="#fde4d9"/>
        <path id="Trazado_214060" data-name="Trazado 214060" d="M101.187,190.2a1.14,1.14,0,0,0-.082-1.123c-.8-1.136-3.892-5.032-4.462-6.531-.443-1.164-1.639-3.913-1.97-4.748l-5.914-3.2a65.512,65.512,0,0,0-4.578,5.836Z" transform="translate(-69.747 -28.641)" fill="#3a435e"/>
        <path id="Trazado_214061" data-name="Trazado 214061" d="M101.318,193.022,84.31,183.259l.955-1.68,17.008,9.763Z" transform="translate(-70.832 -29.786)" fill="#fde4d9"/>
        <path id="Trazado_214062" data-name="Trazado 214062" d="M88.524,183.617l-.068.038c-.166.1-.349.3-.2.5a.635.635,0,0,0,.32.2,4.054,4.054,0,0,0,1.284.188,3.054,3.054,0,0,0,1.391-.2c.441-.216.3-.734-.151-.884a3.491,3.491,0,0,0-2.574.163" transform="translate(-63.329 -30.066)" fill="#fde4d9"/>
        <path id="Trazado_214063" data-name="Trazado 214063" d="M87.607,185.571l-.068.038c-.166.1-.349.3-.2.5a.635.635,0,0,0,.32.2,4.054,4.054,0,0,0,1.284.188,3.054,3.054,0,0,0,1.391-.2c.441-.216.3-.734-.151-.884a3.492,3.492,0,0,0-2.574.163" transform="translate(-61.646 -30.387)" fill="#fde4d9"/>
        <path id="Trazado_214064" data-name="Trazado 214064" d="M86.127,187.362l-.068.038c-.166.1-.349.3-.2.5a.634.634,0,0,0,.32.2,4.053,4.053,0,0,0,1.284.188,3.054,3.054,0,0,0,1.391-.2c.441-.216.3-.735-.151-.884a3.492,3.492,0,0,0-2.574.163" transform="translate(-58.929 -30.68)" fill="#fde4d9"/>
        <path id="Trazado_214065" data-name="Trazado 214065" d="M59.435,102.024c1.314,2.216,5.542,11.076,8.63,17.624.9,1.9,1.7,3.6,2.3,4.894.032.058.057.115.083.167.051.109.1.212.141.313.154.32.288.609.41.865.026.064.058.121.084.179.077.18.154.334.211.461.013.019.018.045.031.064.129.282.206.436.206.436s.583,10.666,1.333,11.813c.006.013.013.019.018.032.424.711,3.57,7.22,6.933,14.222l8.379-3.889L82.017,122.9l-1.256-6.259-6.983-34.7-4.626-.269-1.312-.083-5.054-.3-1.243-.5s-.64,2.64-1.294,6.086c-.084.416-.16.846-.243,1.288-.1.544-.192,1.1-.288,1.665-.07.423-.14.846-.2,1.275-.692,4.548-1.077,9.238-.078,10.923" transform="translate(-35.45 -13.252)" fill="#456997"/>
        <path id="Trazado_214066" data-name="Trazado 214066" d="M78.637,91.3a13.286,13.286,0,0,0,12.063-8.3c.32-.756-.788-1.409-1.108-.647a12.121,12.121,0,0,1-10.75,7.668c-.07.423-.14.846-.2,1.275" transform="translate(-54.575 -13.455)" fill="#254f79"/>
        <path id="Trazado_214067" data-name="Trazado 214067" d="M81.6,88.317a10.1,10.1,0,0,0,9.1-6.266.628.628,0,0,0,.05-.231l-1.312-.083a8.846,8.846,0,0,1-7.592,5.292c-.083.416-.159.845-.243,1.287" transform="translate(-57.049 -13.408)" fill="#254f79"/>
        <path id="Trazado_214068" data-name="Trazado 214068" d="M66.718,18.54a3.037,3.037,0,0,0-4.7-2.047,4.923,4.923,0,0,1,4.7,2.047" transform="translate(-16.644 -2.622)" fill="#252727"/>
        <path id="Trazado_214069" data-name="Trazado 214069" d="M66.649,20.578A3.037,3.037,0,0,0,63.3,16.7a4.923,4.923,0,0,1,3.352,3.876" transform="translate(-17.764 -2.735)" fill="#252727"/>
        <path id="Trazado_214070" data-name="Trazado 214070" d="M83.429,54.387c-.1.089-.173.147-.211.18-.013.013-.026.019-.026.032s-.013.007-.013.007.687,13.768,1.574,20.3a32.778,32.778,0,0,1-17,1.6L57.74,74.9c.421-1.493,2.265-6.73,2.717-8.631a75.363,75.363,0,0,0,1.71-9.039c.371-3.734-.244-9.013-1.063-13.818-.129-.346-.25-.7-.365-1.063a47.16,47.16,0,0,1-1.892-10.016l2.705-.887a.175.175,0,0,1,.038-.007l.506-.019.379-.019,2.5-.115c.666-.4,1.557-6.739,1.557-6.739l5.323,1.807s-1.166,4.535-.558,5.285c.283.32,1.154.262,1.525.282.961.064,1.922.051,2.889.019.045,0,.1-.007.154-.007.263-.006.526-.013.788-.025.371-.013.743-.033,1.108-.045,2.088-.1,3.863-.231,3.863-.231a46.318,46.318,0,0,1,4.586,8.9v.007a.007.007,0,0,1,.007.007,19.308,19.308,0,0,1,1.358,6.534,12.537,12.537,0,0,1-4.151,7.31" transform="translate(-33.928 -4.027)" fill="#d94562"/>
        <path id="Trazado_214071" data-name="Trazado 214071" d="M64.617,59.373a10.9,10.9,0,0,0,4.956-1.8,14.729,14.729,0,0,0,6.562,2.382,9.05,9.05,0,0,1-6.454-1.265,13.429,13.429,0,0,1-5.065.679" transform="translate(-28.233 -9.445)" fill="#b3314f"/>
        <path id="Trazado_214072" data-name="Trazado 214072" d="M70.806,31.4c2.441,4,8.1,6.086,11.121,5.6,2.441-.4,2.96-3.5,3.062-5.093-.262.013-.525.019-.787.026-.052,0-.11.007-.154.007-.967.032-1.929.044-2.889-.019-.372-.019-1.243.038-1.525-.283-.609-.749.558-5.285.558-5.285l-5.324-1.807s-.89,6.336-1.557,6.74Z" transform="translate(-42.26 -4.027)" fill="#ffa07f"/>
        <path id="Trazado_214073" data-name="Trazado 214073" d="M72.067,1.617c.2-.014,7.752,1.231,9.145,3.712s3.66,11.758,1.941,16.355-4.805,4.13-5.909,3.867-6.322-2.143-7.586-3.752S65.435,11.709,65.889,9.438s6.179-7.821,6.179-7.821" transform="translate(-36.892 -0.265)" fill="#ffbf90"/>
        <path id="Trazado_214074" data-name="Trazado 214074" d="M72.525.83c.2-.014,7.752,1.23,9.145,3.712S85.329,16.3,83.61,20.9s-4.8,4.13-5.908,3.867-6.322-2.143-7.586-3.752S65.892,10.922,66.346,8.651,72.525.83,72.525.83" transform="translate(-37.732 -0.136)" fill="#ffa07f"/>
        <path id="Trazado_214075" data-name="Trazado 214075" d="M69.584,23.624a8.626,8.626,0,0,1,7.1-.778s-1.274,3.025-3.12,3.18c-2.24.187-3.982-2.4-3.982-2.4" transform="translate(-32.935 -3.67)" fill="#fc5b68"/>
        <path id="Trazado_214076" data-name="Trazado 214076" d="M69.83,23.789a17.5,17.5,0,0,1,6.678-.764,3.717,3.717,0,0,1-3.16,2.548,3.822,3.822,0,0,1-3.519-1.784" transform="translate(-32.963 -3.772)" fill="#fff0e7"/>
        <path id="Trazado_214077" data-name="Trazado 214077" d="M79.943,16.977a2.147,2.147,0,0,0-2.331-1.012,3.075,3.075,0,0,0-2.024,1.7,4.992,4.992,0,0,1,4.354-.684" transform="translate(-41.213 -2.611)" fill="#252727"/>
        <path id="Trazado_214078" data-name="Trazado 214078" d="M69.817,15.617a1.215,1.215,0,0,0-1.461-.805,2.282,2.282,0,0,0-1.3,1.423,2.613,2.613,0,0,1,2.763-.618" transform="translate(-23.951 -2.422)" fill="#252727"/>
        <path id="Trazado_214079" data-name="Trazado 214079" d="M71.787,19.923a1.591,1.591,0,0,0-.7-.011,2.273,2.273,0,0,0,1.486.862.313.313,0,0,0,.134,0,.337.337,0,0,0,.137-.092,2.688,2.688,0,0,0,.592-.863.521.521,0,0,0,.054-.2c0-.235-.145-.149-.263-.064a2.034,2.034,0,0,1-.449.241,2.109,2.109,0,0,1-.986.134" transform="translate(-30.988 -3.192)" fill="#ff7d6f"/>
        <path id="Trazado_214080" data-name="Trazado 214080" d="M71.331,19.841c.106-.155.233-.3.343-.447a3.56,3.56,0,0,0,.353-.6c-.845-.32-1.024-1.077-1.2-1.941a2.568,2.568,0,0,1,.039-1.182,2.6,2.6,0,0,1,.237-.579,2.556,2.556,0,0,1,.172-.268.917.917,0,0,1,.217-.2c-.033.062-.048.129-.075.191a4.879,4.879,0,0,0-.2.487,3.28,3.28,0,0,0-.118.522,3.11,3.11,0,0,0,.033,1.067,2.581,2.581,0,0,0,.41.962,2.04,2.04,0,0,0,.954.755s-.352.7-.39.757a2.654,2.654,0,0,1-.33.425.927.927,0,0,1-.44.313.287.287,0,0,1-.168-.008.591.591,0,0,0,.068-.089l.025-.043c.023-.042.049-.083.076-.122" transform="translate(-29.734 -2.399)" fill="#fc5b68"/>
        <path id="Trazado_214081" data-name="Trazado 214081" d="M86.14,20c-.279-.116-1.75-1.847-2.658-.7a3.122,3.122,0,0,0-.1,3.942c.881.884,2.093,1.823,3.488,1.389Z" transform="translate(-54.1 -3.103)" fill="#ffa07f"/>
        <path id="Trazado_214082" data-name="Trazado 214082" d="M83.75,20.923a1.375,1.375,0,0,0,.1.728,5.84,5.84,0,0,0,2.335,2.366,2.679,2.679,0,0,1-.419-1.566c.008-.189.034-.379.023-.567-.04-.759-1.785-2.408-2.039-.961" transform="translate(-54.263 -3.338)" fill="#ff7d6f"/>
        <path id="Trazado_214083" data-name="Trazado 214083" d="M85.861,24.272l-.054-.028c-.034-.019-.089-.044-.152-.084a2.093,2.093,0,0,1-.476-.4,2.015,2.015,0,0,1-.42-.781,1.781,1.781,0,0,1,.048-1.071.973.973,0,0,1,.058-.137l.016-.033c0-.008,0,0,0,0v0h0l0-.005-.017-.028-.034-.056c-.023-.036-.046-.073-.07-.109a4.574,4.574,0,0,0-.3-.4c-.1-.124-.21-.237-.314-.339a2.646,2.646,0,0,0-.306-.267.628.628,0,0,0-.3-.12.435.435,0,0,0-.247.06.238.238,0,0,0-.1.115.184.184,0,0,0-.013.052.192.192,0,0,1,0-.054.241.241,0,0,1,.085-.144.492.492,0,0,1,.282-.115.772.772,0,0,1,.4.094,2.588,2.588,0,0,1,.372.247,3.968,3.968,0,0,1,.371.328,3.561,3.561,0,0,1,.35.406c.028.037.054.075.081.114l.038.059.052.083.036.058c-.008.021-.018.042-.028.062l-.041.089a.773.773,0,0,0-.049.119,1.87,1.87,0,0,0-.088.95,2.094,2.094,0,0,0,.288.753,2.232,2.232,0,0,0,.373.445c.052.048.1.081.127.106l.045.038" transform="translate(-53.466 -3.333)" fill="#cf4a57"/>
        <path id="Trazado_214084" data-name="Trazado 214084" d="M70.751,11.4a4.471,4.471,0,0,0-2.24-.844c-.838.125-1.051.91-.711,1.047a18.314,18.314,0,0,0,2.951-.2" transform="translate(-25.381 -1.73)" fill="#424242"/>
        <path id="Trazado_214085" data-name="Trazado 214085" d="M76.125,13.07a9.872,9.872,0,0,1,3.483-1.513c1.33-.074,1.715.748,1.187.986a40.962,40.962,0,0,1-4.67.527" transform="translate(-42.74 -1.895)" fill="#424242"/>
        <path id="Trazado_214086" data-name="Trazado 214086" d="M81.188,20.632c-.032.4-.921.661-1.986.577s-1.9-.481-1.871-.884.922-.661,1.987-.577,1.9.481,1.87.884" transform="translate(-43.913 -3.237)" fill="#ff7d6f"/>
        <path id="Trazado_214087" data-name="Trazado 214087" d="M68.068,17.683c.145.27-.4.843-1.21,1.279s-1.59.572-1.735.3.4-.843,1.21-1.279,1.591-.572,1.735-.3" transform="translate(-20.591 -2.878)" fill="#ff7d6f"/>
        <path id="Trazado_214088" data-name="Trazado 214088" d="M87,6.468c-.955,1.516-4.6,2.366-4.6,2.366l.143-2.226c-.507,1.741-3.29,2.225-3.29,2.225l.956-2.5c-1.261,2.513-8.8,5.017-8.8,5.017l1.127,5.173a5.381,5.381,0,0,0-1.668-.588c-.7-.053-1.644,1.988-1.644,1.988a27.187,27.187,0,0,1-2.8-6.775,7.5,7.5,0,0,1,.255-4.994C70.01-.67,79.557-.581,82.627.633a8.18,8.18,0,0,1,4.308,3.84A2.109,2.109,0,0,1,87,6.468" transform="translate(-40.583 0)" fill="#252727"/>
        <path id="Trazado_214089" data-name="Trazado 214089" d="M84.332,6.183a3.264,3.264,0,0,0-.339-2.449,6.551,6.551,0,0,1-2.439,2.038,4.556,4.556,0,0,0-.1-2.26,25.361,25.361,0,0,1-14.681,7.629,9.148,9.148,0,0,1-.236-3.321,5.4,5.4,0,0,1,.492-1.669C70.351-.668,79.9-.582,82.971.632a8.875,8.875,0,0,1,3.3,2.323,5.885,5.885,0,0,1,1.006,1.516,12.835,12.835,0,0,1-2.944,1.711" transform="translate(-40.924 0)" fill="#424242"/>
        <path id="Trazado_214090" data-name="Trazado 214090" d="M87.411,2.955a2.28,2.28,0,0,1-.942.761,4.163,4.163,0,0,0-1.5-1.988,3.623,3.623,0,0,1-1.654,1.777,4.269,4.269,0,0,0-.34-1.756,11.249,11.249,0,0,1-5.283,2.988,3.767,3.767,0,0,0,1.589-2.382,24.668,24.668,0,0,1-11.6,5.466,5.426,5.426,0,0,1,.492-1.669C71.493-.668,81.041-.582,84.112.632a8.887,8.887,0,0,1,3.3,2.323" transform="translate(-42.066 0)" fill="#595959"/>
        <path id="Trazado_214091" data-name="Trazado 214091" d="M85.205,20.7a3.037,3.037,0,0,0-4.7-2.047,4.924,4.924,0,0,1,4.7,2.047" transform="translate(-50.586 -2.975)" fill="#252727"/>
        <path id="Trazado_214092" data-name="Trazado 214092" d="M85.136,22.735a3.037,3.037,0,0,0-3.352-3.876,4.923,4.923,0,0,1,3.352,3.876" transform="translate(-51.706 -3.089)" fill="#252727"/>
        <path id="Trazado_214093" data-name="Trazado 214093" d="M94.573,32.74s5.55,13.391,4.839,21.292.032,59.427.032,59.427-15.263-.848-17.185-4.406,4.7-49.256,4.7-49.256l1.121-24.29s2.622-3.173,6.5-2.768" transform="translate(-66.027 -5.365)" fill="#fde4d9"/>
        <path id="Trazado_214094" data-name="Trazado 214094" d="M95.57,103.781l1.81,2.723-11.211,5.925-1.259-2.082Z" transform="translate(-66.441 -17.024)" fill="#e1bfb2"/>
        <path id="Trazado_214095" data-name="Trazado 214095" d="M85.658,115.486a66.773,66.773,0,0,0,30.313,0l-2.536-31.71H88.2l-2.147,26.791Z" transform="translate(-85.658 -13.743)" fill="#8c5be1"/>
        <path id="Trazado_214096" data-name="Trazado 214096" d="M104.555,97.008c-.77.325-2.4-5.21-2.4-5.21l-1.6-.119.466,2.377-1.055,3.368s-.681.088-1.521.145c-.1.008-.212.013-.319.02a13.917,13.917,0,0,1-1.5.014c-.044,0-.09-.005-.134-.006a4.337,4.337,0,0,1-.615-.087.947.947,0,0,1-.433-.193l.233-2.741a24.8,24.8,0,0,1-2.9-3.185,8.544,8.544,0,0,1,.535-2.272c.164-.521.816-2.541.987-3.048l2.459-.41,2.613,1.786c.317.2.731.472,1.181.792h0c.222.156.452.325.685.5a11.626,11.626,0,0,1,2.229,2.1,2.811,2.811,0,0,1,.471.887c.555,1.957,1.386,4.952.618,5.277" transform="translate(-80.495 -14.052)" fill="#ffa07f"/>
        <path id="Trazado_214097" data-name="Trazado 214097" d="M101.724,99.124c-.044,0-.09,0-.134-.006.024-.112.059-.258.1-.435.088-.4.2-.944.305-1.534a9.158,9.158,0,0,0,.157-1.538c0-.1,0-.2-.005-.28s-.015-.155-.022-.213l-.016-.189s.037.059.1.17c.031.055.069.125.11.2s.069.177.107.285a3.608,3.608,0,0,1,.116,1.709,4.3,4.3,0,0,1-.593,1.514c-.082.128-.158.232-.222.313" transform="translate(-85.596 -15.572)" fill="#cf4a57"/>
        <path id="Trazado_214098" data-name="Trazado 214098" d="M100.055,99.16c-.1.008-.212.013-.32.02a.711.711,0,0,1,.014-.071c.088-.4.2-.943.3-1.532a9.108,9.108,0,0,0,.158-1.54c0-.1,0-.2,0-.278s-.017-.155-.022-.214c-.011-.12-.017-.187-.017-.187s.036.057.1.167c.029.055.069.124.108.206s.07.178.108.284a3.585,3.585,0,0,1,.115,1.71,4.244,4.244,0,0,1-.543,1.435" transform="translate(-82.106 -15.643)" fill="#cf4a57"/>
        <path id="Trazado_214099" data-name="Trazado 214099" d="M111.361,36.057s-17.777,18.525-18.2,24.29,6.192,20.477,6.192,20.477l9.4-3.29-3.554-17.828,7.931-5.552.25-17.084Z" transform="translate(-89.311 -5.915)" fill="#fde4d9"/>
        <path id="Trazado_214100" data-name="Trazado 214100" d="M90.388,52.423a14.2,14.2,0,0,0,1.857-14.1c-.157-.381.462-.547.618-.171a14.831,14.831,0,0,1-2.021,14.721c-.252.325-.7-.131-.453-.453" transform="translate(-67.548 -6.224)" fill="#e1bfb2"/>
        <path id="Trazado_214101" data-name="Trazado 214101" d="M104.1,63.869l2.717-.221-1.812-.8c-.377-.166-.051-.718.323-.553l2.929,1.293c.319.14.119.573-.162.6l-4,.324c-.411.033-.409-.607,0-.64" transform="translate(-93.258 -10.214)" fill="#e1bfb2"/>
        <path id="Trazado_214102" data-name="Trazado 214102" d="M93.842,82.169h1.3a7.908,7.908,0,0,1,15.688,0h1.307a9.2,9.2,0,0,0-18.3,0" transform="translate(-88.666 -12.136)" fill="#254f79"/>
        <path id="Trazado_214103" data-name="Trazado 214103" d="M13.9,100.71a66.774,66.774,0,0,0,30.1-3.633L37.675,65.9,12.616,68.924,13.7,95.779Z" transform="translate(47.381 -10.81)" fill="#ffb15f"/>
        <path id="Trazado_214104" data-name="Trazado 214104" d="M7.791,99.433A66.958,66.958,0,0,0,22.7,96.21,66.911,66.911,0,0,0,36.5,89.688L23.9,60.476,0,68.59,6.58,94.648Z" transform="translate(65.424 -9.921)" fill="#43a99b"/>
        <path id="Trazado_214105" data-name="Trazado 214105" d="M42.184,67.682l1.275-.154a13.048,13.048,0,0,1,1.768-6.535l-1.749.654a16.552,16.552,0,0,0-1.294,6.035" transform="translate(21.429 -10.005)" fill="#e94e21"/>
        <path id="Trazado_214106" data-name="Trazado 214106" d="M38.231,67.214l1.243-.423c-.449-2.408-.615-5.317.173-7.438l-1.582.589a18.3,18.3,0,0,0,.166,7.271" transform="translate(30.699 -9.736)" fill="#3a435e"/>
      </g>
    </g>
  </g>
</svg>
