<svg xmlns="http://www.w3.org/2000/svg" xmlns:xlink="http://www.w3.org/1999/xlink" width="196.249" height="188.762" viewBox="0 0 196.249 188.762">
  <defs>
    <clipPath id="clip-path">
      <rect id="Rect치ngulo_52193" data-name="Rect치ngulo 52193" width="190.835" height="162.002" fill="#ece5f7"/>
    </clipPath>
    <clipPath id="clip-path-2">
      <rect id="Rect치ngulo_55068" data-name="Rect치ngulo 55068" width="130.602" height="166.218" fill="none"/>
    </clipPath>
  </defs>
  <g id="Grupo_177307" data-name="Grupo 177307" transform="translate(-1174 -2904.304)">
    <g id="Grupo_173418" data-name="Grupo 173418" transform="translate(987.007 -1895.544)">
      <g id="Grupo_169303" data-name="Grupo 169303" transform="translate(192.407 4799.848)">
        <g id="Grupo_168636" data-name="Grupo 168636" transform="translate(0 0)" clip-path="url(#clip-path)">
          <path id="Trazado_211592" data-name="Trazado 211592" d="M141.129,136.942S241.7,61.516,173.666,41.551,35.385-27.959,16.9,20.846s31.8,69.51,8.134,96.131,29.579,74.686,116.1,19.966" transform="translate(-6.45 0)" fill="#ece5f7"/>
        </g>
      </g>
      <g id="Grupo_169306" data-name="Grupo 169306" transform="translate(229.524 4988.609) rotate(-90)">
        <circle id="Elipse_5566" data-name="Elipse 5566" cx="32.745" cy="32.745" r="32.745" transform="translate(58.474 46.308) rotate(-45)" fill="#def2f4"/>
        <ellipse id="Elipse_5567" data-name="Elipse 5567" cx="52.584" cy="52.584" rx="52.584" ry="52.584" transform="translate(0 54.134) rotate(-22.5)" fill="#fff"/>
        <g id="Grupo_152550" data-name="Grupo 152550" transform="translate(4.31 6.644)">
          <ellipse id="Elipse_5568" data-name="Elipse 5568" cx="0.037" cy="0.037" rx="0.037" ry="0.037" transform="translate(33.64 106.476)" fill="#e8e8e8"/>
          <path id="Trazado_193815" data-name="Trazado 193815" d="M.312,0A.312.312,0,1,1,0,.312.312.312,0,0,1,.312,0Z" transform="translate(39.986 106.201)" fill="#e8e8e8"/>
          <path id="Trazado_193816" data-name="Trazado 193816" d="M.533,0A.533.533,0,1,1,0,.533.534.534,0,0,1,.533,0Z" transform="translate(46.387 105.98)" fill="#e8e8e8"/>
          <ellipse id="Elipse_5569" data-name="Elipse 5569" cx="0.569" cy="0.569" rx="0.569" ry="0.569" transform="translate(52.972 105.943)" fill="#e8e8e8"/>
          <path id="Trazado_193817" data-name="Trazado 193817" d="M.533,0A.533.533,0,1,1,0,.533.533.533,0,0,1,.533,0Z" transform="translate(59.63 105.98)" fill="#e8e8e8"/>
          <path id="Trazado_193818" data-name="Trazado 193818" d="M.293,0A.293.293,0,1,1,0,.293.293.293,0,0,1,.293,0Z" transform="translate(66.49 106.219)" fill="#e8e8e8"/>
          <ellipse id="Elipse_5570" data-name="Elipse 5570" cx="0.018" cy="0.018" rx="0.018" ry="0.018" transform="translate(73.387 106.494)" fill="#e8e8e8"/>
          <ellipse id="Elipse_5571" data-name="Elipse 5571" cx="0.018" cy="0.018" rx="0.018" ry="0.018" transform="translate(20.415 99.873)" fill="#e8e8e8"/>
          <path id="Trazado_193819" data-name="Trazado 193819" d="M.551,0A.551.551,0,1,1,0,.551.551.551,0,0,1,.551,0Z" transform="translate(26.504 99.34)" fill="#e8e8e8"/>
          <path id="Trazado_193820" data-name="Trazado 193820" d="M1.121,0A1.121,1.121,0,1,1,0,1.121,1.121,1.121,0,0,1,1.121,0Z" transform="translate(32.556 98.77)" fill="#e8e8e8"/>
          <ellipse id="Elipse_5572" data-name="Elipse 5572" cx="1.249" cy="1.249" rx="1.249" ry="1.249" transform="translate(39.049 98.643)" fill="#e8e8e8"/>
          <ellipse id="Elipse_5573" data-name="Elipse 5573" cx="1.249" cy="1.249" rx="1.249" ry="1.249" transform="translate(45.671 98.643)" fill="#e8e8e8"/>
          <path id="Trazado_193821" data-name="Trazado 193821" d="M1.249,0A1.249,1.249,0,1,1,0,1.249,1.249,1.249,0,0,1,1.249,0Z" transform="translate(52.292 98.642)" fill="#e8e8e8"/>
          <path id="Trazado_193822" data-name="Trazado 193822" d="M1.249,0A1.249,1.249,0,1,1,0,1.249,1.249,1.249,0,0,1,1.249,0Z" transform="translate(58.914 98.642)" fill="#e8e8e8"/>
          <path id="Trazado_193823" data-name="Trazado 193823" d="M1.249,0A1.249,1.249,0,1,1,0,1.249,1.249,1.249,0,0,1,1.249,0Z" transform="translate(65.535 98.642)" fill="#e8e8e8"/>
          <path id="Trazado_193824" data-name="Trazado 193824" d="M1.1,0A1.1,1.1,0,1,1,0,1.1,1.1,1.1,0,0,1,1.1,0Z" transform="translate(72.303 98.789)" fill="#e8e8e8"/>
          <path id="Trazado_193825" data-name="Trazado 193825" d="M.514,0A.514.514,0,1,1,0,.514.514.514,0,0,1,.514,0Z" transform="translate(79.512 99.377)" fill="#e8e8e8"/>
          <ellipse id="Elipse_5574" data-name="Elipse 5574" cx="0.018" cy="0.018" rx="0.018" ry="0.018" transform="translate(86.63 99.873)" fill="#e8e8e8"/>
          <path id="Trazado_193826" data-name="Trazado 193826" d="M.093,0A.091.091,0,0,1,.184.091.092.092,0,1,1,.093,0Z" transform="translate(13.72 93.178)" fill="#e8e8e8"/>
          <path id="Trazado_193827" data-name="Trazado 193827" d="M.9,0A.9.9,0,1,1,0,.9.9.9,0,0,1,.9,0Z" transform="translate(19.534 92.37)" fill="#e8e8e8"/>
          <ellipse id="Elipse_5575" data-name="Elipse 5575" cx="1.249" cy="1.249" rx="1.249" ry="1.249" transform="translate(25.806 92.021)" fill="#e8e8e8"/>
          <ellipse id="Elipse_5576" data-name="Elipse 5576" cx="1.249" cy="1.249" rx="1.249" ry="1.249" transform="translate(32.428 92.021)" fill="#e8e8e8"/>
          <ellipse id="Elipse_5577" data-name="Elipse 5577" cx="1.249" cy="1.249" rx="1.249" ry="1.249" transform="translate(39.049 92.021)" fill="#e8e8e8"/>
          <ellipse id="Elipse_5578" data-name="Elipse 5578" cx="1.249" cy="1.249" rx="1.249" ry="1.249" transform="translate(45.671 92.021)" fill="#e8e8e8"/>
          <path id="Trazado_193828" data-name="Trazado 193828" d="M1.249,0A1.249,1.249,0,1,1,0,1.249,1.249,1.249,0,0,1,1.249,0Z" transform="translate(52.292 92.021)" fill="#e8e8e8"/>
          <path id="Trazado_193829" data-name="Trazado 193829" d="M1.249,0A1.249,1.249,0,1,1,0,1.249,1.249,1.249,0,0,1,1.249,0Z" transform="translate(58.914 92.021)" fill="#e8e8e8"/>
          <path id="Trazado_193830" data-name="Trazado 193830" d="M1.249,0A1.249,1.249,0,1,1,0,1.249,1.249,1.249,0,0,1,1.249,0Z" transform="translate(65.535 92.021)" fill="#e8e8e8"/>
          <path id="Trazado_193831" data-name="Trazado 193831" d="M1.249,0A1.249,1.249,0,1,1,0,1.249,1.249,1.249,0,0,1,1.249,0Z" transform="translate(72.156 92.021)" fill="#e8e8e8"/>
          <path id="Trazado_193832" data-name="Trazado 193832" d="M1.249,0A1.249,1.249,0,1,1,0,1.249,1.249,1.249,0,0,1,1.249,0Z" transform="translate(78.778 92.021)" fill="#e8e8e8"/>
          <path id="Trazado_193833" data-name="Trazado 193833" d="M.881,0A.881.881,0,1,1,0,.881.881.881,0,0,1,.881,0Z" transform="translate(85.766 92.388)" fill="#e8e8e8"/>
          <path id="Trazado_193834" data-name="Trazado 193834" d="M.054,0a.056.056,0,1,1,0,.111A.056.056,0,0,1,.054,0Z" transform="translate(93.215 93.214)" fill="#e8e8e8"/>
          <ellipse id="Elipse_5579" data-name="Elipse 5579" cx="0.018" cy="0.018" rx="0.018" ry="0.018" transform="translate(7.172 86.63)" fill="#e8e8e8"/>
          <path id="Trazado_193835" data-name="Trazado 193835" d="M.9,0A.9.9,0,1,1,0,.9.9.9,0,0,1,.9,0Z" transform="translate(12.913 85.748)" fill="#e8e8e8"/>
          <ellipse id="Elipse_5580" data-name="Elipse 5580" cx="1.249" cy="1.249" rx="1.249" ry="1.249" transform="translate(19.185 85.4)" fill="#e8e8e8"/>
          <ellipse id="Elipse_5581" data-name="Elipse 5581" cx="1.249" cy="1.249" rx="1.249" ry="1.249" transform="translate(25.806 85.4)" fill="#e8e8e8"/>
          <ellipse id="Elipse_5582" data-name="Elipse 5582" cx="1.249" cy="1.249" rx="1.249" ry="1.249" transform="translate(32.428 85.4)" fill="#e8e8e8"/>
          <ellipse id="Elipse_5583" data-name="Elipse 5583" cx="1.249" cy="1.249" rx="1.249" ry="1.249" transform="translate(39.049 85.4)" fill="#e8e8e8"/>
          <ellipse id="Elipse_5584" data-name="Elipse 5584" cx="1.249" cy="1.249" rx="1.249" ry="1.249" transform="translate(45.671 85.4)" fill="#e8e8e8"/>
          <path id="Trazado_193836" data-name="Trazado 193836" d="M1.249,0A1.249,1.249,0,1,1,0,1.249,1.249,1.249,0,0,1,1.249,0Z" transform="translate(52.292 85.399)" fill="#e8e8e8"/>
          <path id="Trazado_193837" data-name="Trazado 193837" d="M1.249,0A1.249,1.249,0,1,1,0,1.249,1.249,1.249,0,0,1,1.249,0Z" transform="translate(58.914 85.399)" fill="#e8e8e8"/>
          <path id="Trazado_193838" data-name="Trazado 193838" d="M1.249,0A1.249,1.249,0,1,1,0,1.249,1.249,1.249,0,0,1,1.249,0Z" transform="translate(65.535 85.399)" fill="#e8e8e8"/>
          <path id="Trazado_193839" data-name="Trazado 193839" d="M1.249,0A1.249,1.249,0,1,1,0,1.249,1.249,1.249,0,0,1,1.249,0Z" transform="translate(72.156 85.399)" fill="#e8e8e8"/>
          <path id="Trazado_193840" data-name="Trazado 193840" d="M1.249,0A1.249,1.249,0,1,1,0,1.249,1.249,1.249,0,0,1,1.249,0Z" transform="translate(78.778 85.399)" fill="#e8e8e8"/>
          <path id="Trazado_193841" data-name="Trazado 193841" d="M1.249,0A1.249,1.249,0,1,1,0,1.249,1.249,1.249,0,0,1,1.249,0Z" transform="translate(85.399 85.399)" fill="#e8e8e8"/>
          <path id="Trazado_193842" data-name="Trazado 193842" d="M.881,0A.881.881,0,1,1,0,.881.881.881,0,0,1,.881,0Z" transform="translate(92.388 85.767)" fill="#e8e8e8"/>
          <ellipse id="Elipse_5585" data-name="Elipse 5585" cx="0.018" cy="0.018" rx="0.018" ry="0.018" transform="translate(99.873 86.63)" fill="#e8e8e8"/>
          <path id="Trazado_193843" data-name="Trazado 193843" d="M.551,0A.551.551,0,1,1,0,.551.55.55,0,0,1,.551,0Z" transform="translate(6.64 79.476)" fill="#e8e8e8"/>
          <ellipse id="Elipse_5586" data-name="Elipse 5586" cx="1.249" cy="1.249" rx="1.249" ry="1.249" transform="translate(12.564 78.778)" fill="#e8e8e8"/>
          <ellipse id="Elipse_5587" data-name="Elipse 5587" cx="1.249" cy="1.249" rx="1.249" ry="1.249" transform="translate(19.185 78.778)" fill="#e8e8e8"/>
          <ellipse id="Elipse_5588" data-name="Elipse 5588" cx="1.249" cy="1.249" rx="1.249" ry="1.249" transform="translate(25.806 78.778)" fill="#e8e8e8"/>
          <ellipse id="Elipse_5589" data-name="Elipse 5589" cx="1.249" cy="1.249" rx="1.249" ry="1.249" transform="translate(32.428 78.778)" fill="#e8e8e8"/>
          <ellipse id="Elipse_5590" data-name="Elipse 5590" cx="1.249" cy="1.249" rx="1.249" ry="1.249" transform="translate(39.049 78.778)" fill="#e8e8e8"/>
          <ellipse id="Elipse_5591" data-name="Elipse 5591" cx="1.249" cy="1.249" rx="1.249" ry="1.249" transform="translate(45.671 78.778)" fill="#e8e8e8"/>
          <path id="Trazado_193844" data-name="Trazado 193844" d="M1.249,0A1.249,1.249,0,1,1,0,1.249,1.249,1.249,0,0,1,1.249,0Z" transform="translate(52.292 78.778)" fill="#e8e8e8"/>
          <path id="Trazado_193845" data-name="Trazado 193845" d="M1.249,0A1.249,1.249,0,1,1,0,1.249,1.249,1.249,0,0,1,1.249,0Z" transform="translate(58.914 78.778)" fill="#e8e8e8"/>
          <path id="Trazado_193846" data-name="Trazado 193846" d="M1.249,0A1.249,1.249,0,1,1,0,1.249,1.249,1.249,0,0,1,1.249,0Z" transform="translate(65.535 78.778)" fill="#e8e8e8"/>
          <path id="Trazado_193847" data-name="Trazado 193847" d="M1.249,0A1.249,1.249,0,1,1,0,1.249,1.249,1.249,0,0,1,1.249,0Z" transform="translate(72.156 78.778)" fill="#e8e8e8"/>
          <path id="Trazado_193848" data-name="Trazado 193848" d="M1.249,0A1.249,1.249,0,1,1,0,1.249,1.249,1.249,0,0,1,1.249,0Z" transform="translate(78.778 78.778)" fill="#e8e8e8"/>
          <path id="Trazado_193849" data-name="Trazado 193849" d="M1.249,0A1.249,1.249,0,1,1,0,1.249,1.249,1.249,0,0,1,1.249,0Z" transform="translate(85.399 78.778)" fill="#e8e8e8"/>
          <path id="Trazado_193850" data-name="Trazado 193850" d="M1.249,0A1.249,1.249,0,1,1,0,1.249,1.249,1.249,0,0,1,1.249,0Z" transform="translate(92.02 78.778)" fill="#e8e8e8"/>
          <path id="Trazado_193851" data-name="Trazado 193851" d="M.514,0A.514.514,0,1,1,0,.514.514.514,0,0,1,.514,0Z" transform="translate(99.377 79.513)" fill="#e8e8e8"/>
          <ellipse id="Elipse_5592" data-name="Elipse 5592" cx="0.037" cy="0.037" rx="0.037" ry="0.037" transform="translate(0.532 73.369)" fill="#e8e8e8"/>
          <path id="Trazado_193852" data-name="Trazado 193852" d="M1.1,0A1.1,1.1,0,1,1,0,1.1,1.1,1.1,0,0,1,1.1,0Z" transform="translate(6.089 72.303)" fill="#e8e8e8"/>
          <ellipse id="Elipse_5593" data-name="Elipse 5593" cx="1.249" cy="1.249" rx="1.249" ry="1.249" transform="translate(12.564 72.157)" fill="#e8e8e8"/>
          <ellipse id="Elipse_5594" data-name="Elipse 5594" cx="1.249" cy="1.249" rx="1.249" ry="1.249" transform="translate(19.185 72.157)" fill="#e8e8e8"/>
          <ellipse id="Elipse_5595" data-name="Elipse 5595" cx="1.249" cy="1.249" rx="1.249" ry="1.249" transform="translate(25.806 72.157)" fill="#e8e8e8"/>
          <ellipse id="Elipse_5596" data-name="Elipse 5596" cx="1.249" cy="1.249" rx="1.249" ry="1.249" transform="translate(32.428 72.157)" fill="#e8e8e8"/>
          <ellipse id="Elipse_5597" data-name="Elipse 5597" cx="1.249" cy="1.249" rx="1.249" ry="1.249" transform="translate(39.049 72.157)" fill="#e8e8e8"/>
          <ellipse id="Elipse_5598" data-name="Elipse 5598" cx="1.249" cy="1.249" rx="1.249" ry="1.249" transform="translate(45.671 72.157)" fill="#e8e8e8"/>
          <path id="Trazado_193853" data-name="Trazado 193853" d="M1.249,0A1.249,1.249,0,1,1,0,1.249,1.249,1.249,0,0,1,1.249,0Z" transform="translate(52.292 72.157)" fill="#e8e8e8"/>
          <path id="Trazado_193854" data-name="Trazado 193854" d="M1.249,0A1.249,1.249,0,1,1,0,1.249,1.249,1.249,0,0,1,1.249,0Z" transform="translate(58.914 72.157)" fill="#e8e8e8"/>
          <path id="Trazado_193855" data-name="Trazado 193855" d="M1.249,0A1.249,1.249,0,1,1,0,1.249,1.249,1.249,0,0,1,1.249,0Z" transform="translate(65.535 72.157)" fill="#e8e8e8"/>
          <path id="Trazado_193856" data-name="Trazado 193856" d="M1.249,0A1.249,1.249,0,1,1,0,1.249,1.249,1.249,0,0,1,1.249,0Z" transform="translate(72.156 72.157)" fill="#e8e8e8"/>
          <path id="Trazado_193857" data-name="Trazado 193857" d="M1.249,0A1.249,1.249,0,1,1,0,1.249,1.249,1.249,0,0,1,1.249,0Z" transform="translate(78.778 72.157)" fill="#e8e8e8"/>
          <path id="Trazado_193858" data-name="Trazado 193858" d="M1.249,0A1.249,1.249,0,1,1,0,1.249,1.249,1.249,0,0,1,1.249,0Z" transform="translate(85.399 72.157)" fill="#e8e8e8"/>
          <path id="Trazado_193859" data-name="Trazado 193859" d="M1.249,0A1.249,1.249,0,1,1,0,1.249,1.249,1.249,0,0,1,1.249,0Z" transform="translate(92.02 72.157)" fill="#e8e8e8"/>
          <path id="Trazado_193860" data-name="Trazado 193860" d="M1.082,0A1.084,1.084,0,1,1,0,1.084,1.083,1.083,0,0,1,1.082,0Z" transform="translate(98.808 72.322)" fill="#e8e8e8"/>
          <ellipse id="Elipse_5599" data-name="Elipse 5599" cx="0.037" cy="0.037" rx="0.037" ry="0.037" transform="translate(106.476 73.369)" fill="#e8e8e8"/>
          <ellipse id="Elipse_5600" data-name="Elipse 5600" cx="0.312" cy="0.312" rx="0.312" ry="0.312" transform="translate(0.257 66.472)" fill="#e8e8e8"/>
          <ellipse id="Elipse_5601" data-name="Elipse 5601" cx="1.249" cy="1.249" rx="1.249" ry="1.249" transform="translate(5.942 65.535)" fill="#e8e8e8"/>
          <ellipse id="Elipse_5602" data-name="Elipse 5602" cx="1.249" cy="1.249" rx="1.249" ry="1.249" transform="translate(12.564 65.535)" fill="#e8e8e8"/>
          <ellipse id="Elipse_5603" data-name="Elipse 5603" cx="1.249" cy="1.249" rx="1.249" ry="1.249" transform="translate(19.185 65.535)" fill="#e8e8e8"/>
          <ellipse id="Elipse_5604" data-name="Elipse 5604" cx="1.249" cy="1.249" rx="1.249" ry="1.249" transform="translate(25.806 65.535)" fill="#e8e8e8"/>
          <ellipse id="Elipse_5605" data-name="Elipse 5605" cx="1.249" cy="1.249" rx="1.249" ry="1.249" transform="translate(32.428 65.535)" fill="#e8e8e8"/>
          <ellipse id="Elipse_5606" data-name="Elipse 5606" cx="1.249" cy="1.249" rx="1.249" ry="1.249" transform="translate(39.049 65.535)" fill="#e8e8e8"/>
          <ellipse id="Elipse_5607" data-name="Elipse 5607" cx="1.249" cy="1.249" rx="1.249" ry="1.249" transform="translate(45.671 65.535)" fill="#e8e8e8"/>
          <path id="Trazado_193861" data-name="Trazado 193861" d="M1.249,0A1.249,1.249,0,1,1,0,1.249,1.249,1.249,0,0,1,1.249,0Z" transform="translate(52.292 65.535)" fill="#e8e8e8"/>
          <path id="Trazado_193862" data-name="Trazado 193862" d="M1.249,0A1.249,1.249,0,1,1,0,1.249,1.249,1.249,0,0,1,1.249,0Z" transform="translate(58.914 65.535)" fill="#e8e8e8"/>
          <path id="Trazado_193863" data-name="Trazado 193863" d="M1.249,0A1.249,1.249,0,1,1,0,1.249,1.249,1.249,0,0,1,1.249,0Z" transform="translate(65.535 65.535)" fill="#e8e8e8"/>
          <path id="Trazado_193864" data-name="Trazado 193864" d="M1.249,0A1.249,1.249,0,1,1,0,1.249,1.249,1.249,0,0,1,1.249,0Z" transform="translate(72.156 65.535)" fill="#e8e8e8"/>
          <path id="Trazado_193865" data-name="Trazado 193865" d="M1.249,0A1.249,1.249,0,1,1,0,1.249,1.249,1.249,0,0,1,1.249,0Z" transform="translate(78.778 65.535)" fill="#e8e8e8"/>
          <path id="Trazado_193866" data-name="Trazado 193866" d="M1.249,0A1.249,1.249,0,1,1,0,1.249,1.249,1.249,0,0,1,1.249,0Z" transform="translate(85.399 65.535)" fill="#e8e8e8"/>
          <path id="Trazado_193867" data-name="Trazado 193867" d="M1.249,0A1.249,1.249,0,1,1,0,1.249,1.249,1.249,0,0,1,1.249,0Z" transform="translate(92.02 65.535)" fill="#e8e8e8"/>
          <path id="Trazado_193868" data-name="Trazado 193868" d="M1.247,0A1.249,1.249,0,1,1,0,1.249,1.248,1.248,0,0,1,1.247,0Z" transform="translate(98.643 65.535)" fill="#e8e8e8"/>
          <ellipse id="Elipse_5608" data-name="Elipse 5608" cx="0.275" cy="0.275" rx="0.275" ry="0.275" transform="translate(106.237 66.508)" fill="#e8e8e8"/>
          <path id="Trazado_193869" data-name="Trazado 193869" d="M.533,0A.533.533,0,1,1,0,.533.533.533,0,0,1,.533,0Z" transform="translate(0.037 59.63)" fill="#e8e8e8"/>
          <path id="Trazado_193870" data-name="Trazado 193870" d="M1.249,0A1.249,1.249,0,1,1,0,1.249,1.247,1.247,0,0,1,1.249,0Z" transform="translate(5.942 58.914)" fill="#e8e8e8"/>
          <path id="Trazado_193871" data-name="Trazado 193871" d="M1.249,0A1.249,1.249,0,1,1,0,1.249,1.247,1.247,0,0,1,1.249,0Z" transform="translate(12.564 58.914)" fill="#e8e8e8"/>
          <path id="Trazado_193872" data-name="Trazado 193872" d="M1.249,0A1.249,1.249,0,1,1,0,1.249,1.247,1.247,0,0,1,1.249,0Z" transform="translate(19.185 58.914)" fill="#e8e8e8"/>
          <path id="Trazado_193873" data-name="Trazado 193873" d="M1.249,0A1.249,1.249,0,1,1,0,1.249,1.247,1.247,0,0,1,1.249,0Z" transform="translate(25.807 58.914)" fill="#e8e8e8"/>
          <path id="Trazado_193874" data-name="Trazado 193874" d="M1.249,0A1.249,1.249,0,1,1,0,1.249,1.248,1.248,0,0,1,1.249,0Z" transform="translate(32.428 58.914)" fill="#e8e8e8"/>
          <path id="Trazado_193875" data-name="Trazado 193875" d="M1.249,0A1.249,1.249,0,1,1,0,1.249,1.248,1.248,0,0,1,1.249,0Z" transform="translate(39.049 58.914)" fill="#e8e8e8"/>
          <path id="Trazado_193876" data-name="Trazado 193876" d="M1.249,0A1.249,1.249,0,1,1,0,1.249,1.248,1.248,0,0,1,1.249,0Z" transform="translate(45.671 58.914)" fill="#e8e8e8"/>
          <path id="Trazado_193877" data-name="Trazado 193877" d="M1.249,0A1.249,1.249,0,1,1,0,1.249,1.248,1.248,0,0,1,1.249,0Z" transform="translate(52.292 58.914)" fill="#e8e8e8"/>
          <path id="Trazado_193878" data-name="Trazado 193878" d="M1.249,0A1.249,1.249,0,1,1,0,1.249,1.248,1.248,0,0,1,1.249,0Z" transform="translate(58.914 58.914)" fill="#e8e8e8"/>
          <path id="Trazado_193879" data-name="Trazado 193879" d="M1.249,0A1.249,1.249,0,1,1,0,1.249,1.248,1.248,0,0,1,1.249,0Z" transform="translate(65.535 58.914)" fill="#e8e8e8"/>
          <path id="Trazado_193880" data-name="Trazado 193880" d="M1.249,0A1.249,1.249,0,1,1,0,1.249,1.248,1.248,0,0,1,1.249,0Z" transform="translate(72.156 58.914)" fill="#e8e8e8"/>
          <path id="Trazado_193881" data-name="Trazado 193881" d="M1.249,0A1.249,1.249,0,1,1,0,1.249,1.248,1.248,0,0,1,1.249,0Z" transform="translate(78.778 58.914)" fill="#e8e8e8"/>
          <path id="Trazado_193882" data-name="Trazado 193882" d="M1.249,0A1.249,1.249,0,1,1,0,1.249,1.248,1.248,0,0,1,1.249,0Z" transform="translate(85.399 58.914)" fill="#e8e8e8"/>
          <path id="Trazado_193883" data-name="Trazado 193883" d="M1.249,0A1.249,1.249,0,1,1,0,1.249,1.248,1.248,0,0,1,1.249,0Z" transform="translate(92.02 58.914)" fill="#e8e8e8"/>
          <path id="Trazado_193884" data-name="Trazado 193884" d="M1.247,0A1.249,1.249,0,1,1,0,1.249,1.248,1.248,0,0,1,1.247,0Z" transform="translate(98.643 58.914)" fill="#e8e8e8"/>
          <path id="Trazado_193885" data-name="Trazado 193885" d="M.514,0A.514.514,0,1,1,0,.514.513.513,0,0,1,.514,0Z" transform="translate(105.998 59.649)" fill="#e8e8e8"/>
          <ellipse id="Elipse_5609" data-name="Elipse 5609" cx="0.569" cy="0.569" rx="0.569" ry="0.569" transform="translate(0 52.972)" fill="#e8e8e8"/>
          <path id="Trazado_193886" data-name="Trazado 193886" d="M1.249,0A1.249,1.249,0,1,1,0,1.249,1.247,1.247,0,0,1,1.249,0Z" transform="translate(5.942 52.293)" fill="#e8e8e8"/>
          <path id="Trazado_193887" data-name="Trazado 193887" d="M1.249,0A1.249,1.249,0,1,1,0,1.249,1.247,1.247,0,0,1,1.249,0Z" transform="translate(12.564 52.293)" fill="#e8e8e8"/>
          <path id="Trazado_193888" data-name="Trazado 193888" d="M1.249,0A1.249,1.249,0,1,1,0,1.249,1.247,1.247,0,0,1,1.249,0Z" transform="translate(19.185 52.293)" fill="#e8e8e8"/>
          <path id="Trazado_193889" data-name="Trazado 193889" d="M1.249,0A1.249,1.249,0,1,1,0,1.249,1.247,1.247,0,0,1,1.249,0Z" transform="translate(25.807 52.293)" fill="#e8e8e8"/>
          <path id="Trazado_193890" data-name="Trazado 193890" d="M1.249,0A1.249,1.249,0,1,1,0,1.249,1.249,1.249,0,0,1,1.249,0Z" transform="translate(32.428 52.293)" fill="#e8e8e8"/>
          <path id="Trazado_193891" data-name="Trazado 193891" d="M1.249,0A1.249,1.249,0,1,1,0,1.249,1.249,1.249,0,0,1,1.249,0Z" transform="translate(39.049 52.293)" fill="#e8e8e8"/>
          <path id="Trazado_193892" data-name="Trazado 193892" d="M1.249,0A1.249,1.249,0,1,1,0,1.249,1.249,1.249,0,0,1,1.249,0Z" transform="translate(45.671 52.293)" fill="#e8e8e8"/>
          <path id="Trazado_193893" data-name="Trazado 193893" d="M1.249,0A1.249,1.249,0,1,1,0,1.249,1.249,1.249,0,0,1,1.249,0Z" transform="translate(52.292 52.293)" fill="#e8e8e8"/>
          <path id="Trazado_193894" data-name="Trazado 193894" d="M1.249,0A1.249,1.249,0,1,1,0,1.249,1.249,1.249,0,0,1,1.249,0Z" transform="translate(58.914 52.293)" fill="#e8e8e8"/>
          <path id="Trazado_193895" data-name="Trazado 193895" d="M1.249,0A1.249,1.249,0,1,1,0,1.249,1.249,1.249,0,0,1,1.249,0Z" transform="translate(65.535 52.293)" fill="#e8e8e8"/>
          <path id="Trazado_193896" data-name="Trazado 193896" d="M1.249,0A1.249,1.249,0,1,1,0,1.249,1.249,1.249,0,0,1,1.249,0Z" transform="translate(72.156 52.293)" fill="#e8e8e8"/>
          <path id="Trazado_193897" data-name="Trazado 193897" d="M1.249,0A1.249,1.249,0,1,1,0,1.249,1.249,1.249,0,0,1,1.249,0Z" transform="translate(78.778 52.293)" fill="#e8e8e8"/>
          <path id="Trazado_193898" data-name="Trazado 193898" d="M1.249,0A1.249,1.249,0,1,1,0,1.249,1.249,1.249,0,0,1,1.249,0Z" transform="translate(85.399 52.293)" fill="#e8e8e8"/>
          <path id="Trazado_193899" data-name="Trazado 193899" d="M1.249,0A1.249,1.249,0,1,1,0,1.249,1.249,1.249,0,0,1,1.249,0Z" transform="translate(92.02 52.293)" fill="#e8e8e8"/>
          <path id="Trazado_193900" data-name="Trazado 193900" d="M1.247,0A1.249,1.249,0,1,1,0,1.249,1.248,1.248,0,0,1,1.247,0Z" transform="translate(98.643 52.293)" fill="#e8e8e8"/>
          <path id="Trazado_193901" data-name="Trazado 193901" d="M.568,0A.569.569,0,1,1,0,.57.569.569,0,0,1,.568,0Z" transform="translate(105.944 52.972)" fill="#e8e8e8"/>
          <path id="Trazado_193902" data-name="Trazado 193902" d="M.533,0A.533.533,0,1,1,0,.533.533.533,0,0,1,.533,0Z" transform="translate(0.037 46.387)" fill="#e8e8e8"/>
          <path id="Trazado_193903" data-name="Trazado 193903" d="M1.249,0A1.248,1.248,0,1,1,0,1.249,1.247,1.247,0,0,1,1.249,0Z" transform="translate(5.942 45.671)" fill="#e8e8e8"/>
          <path id="Trazado_193904" data-name="Trazado 193904" d="M1.249,0A1.248,1.248,0,1,1,0,1.249,1.247,1.247,0,0,1,1.249,0Z" transform="translate(12.564 45.671)" fill="#e8e8e8"/>
          <path id="Trazado_193905" data-name="Trazado 193905" d="M1.249,0A1.248,1.248,0,1,1,0,1.249,1.247,1.247,0,0,1,1.249,0Z" transform="translate(19.185 45.671)" fill="#e8e8e8"/>
          <path id="Trazado_193906" data-name="Trazado 193906" d="M1.249,0A1.248,1.248,0,1,1,0,1.249,1.247,1.247,0,0,1,1.249,0Z" transform="translate(25.807 45.671)" fill="#e8e8e8"/>
          <path id="Trazado_193907" data-name="Trazado 193907" d="M1.249,0A1.248,1.248,0,1,1,0,1.249,1.249,1.249,0,0,1,1.249,0Z" transform="translate(32.428 45.671)" fill="#e8e8e8"/>
          <path id="Trazado_193908" data-name="Trazado 193908" d="M1.249,0A1.248,1.248,0,1,1,0,1.249,1.249,1.249,0,0,1,1.249,0Z" transform="translate(39.049 45.671)" fill="#e8e8e8"/>
          <path id="Trazado_193909" data-name="Trazado 193909" d="M1.249,0A1.248,1.248,0,1,1,0,1.249,1.249,1.249,0,0,1,1.249,0Z" transform="translate(45.671 45.671)" fill="#e8e8e8"/>
          <path id="Trazado_193910" data-name="Trazado 193910" d="M1.249,0A1.248,1.248,0,1,1,0,1.249,1.249,1.249,0,0,1,1.249,0Z" transform="translate(52.292 45.671)" fill="#e8e8e8"/>
          <path id="Trazado_193911" data-name="Trazado 193911" d="M1.249,0A1.248,1.248,0,1,1,0,1.249,1.249,1.249,0,0,1,1.249,0Z" transform="translate(58.914 45.671)" fill="#e8e8e8"/>
          <path id="Trazado_193912" data-name="Trazado 193912" d="M1.249,0A1.248,1.248,0,1,1,0,1.249,1.249,1.249,0,0,1,1.249,0Z" transform="translate(65.535 45.671)" fill="#e8e8e8"/>
          <path id="Trazado_193913" data-name="Trazado 193913" d="M1.249,0A1.248,1.248,0,1,1,0,1.249,1.249,1.249,0,0,1,1.249,0Z" transform="translate(72.156 45.671)" fill="#e8e8e8"/>
          <path id="Trazado_193914" data-name="Trazado 193914" d="M1.249,0A1.248,1.248,0,1,1,0,1.249,1.249,1.249,0,0,1,1.249,0Z" transform="translate(78.778 45.671)" fill="#e8e8e8"/>
          <path id="Trazado_193915" data-name="Trazado 193915" d="M1.249,0A1.248,1.248,0,1,1,0,1.249,1.249,1.249,0,0,1,1.249,0Z" transform="translate(85.399 45.671)" fill="#e8e8e8"/>
          <path id="Trazado_193916" data-name="Trazado 193916" d="M1.249,0A1.248,1.248,0,1,1,0,1.249,1.249,1.249,0,0,1,1.249,0Z" transform="translate(92.02 45.671)" fill="#e8e8e8"/>
          <path id="Trazado_193917" data-name="Trazado 193917" d="M1.247,0A1.248,1.248,0,1,1,0,1.249,1.248,1.248,0,0,1,1.247,0Z" transform="translate(98.643 45.671)" fill="#e8e8e8"/>
          <path id="Trazado_193918" data-name="Trazado 193918" d="M.5,0A.5.5,0,1,1,0,.5.5.5,0,0,1,.5,0Z" transform="translate(106.016 46.424)" fill="#e8e8e8"/>
          <ellipse id="Elipse_5610" data-name="Elipse 5610" cx="0.294" cy="0.294" rx="0.294" ry="0.294" transform="translate(0.275 40.004)" fill="#e8e8e8"/>
          <path id="Trazado_193919" data-name="Trazado 193919" d="M1.249,0A1.248,1.248,0,1,1,0,1.249,1.247,1.247,0,0,1,1.249,0Z" transform="translate(5.942 39.05)" fill="#e8e8e8"/>
          <path id="Trazado_193920" data-name="Trazado 193920" d="M1.249,0A1.248,1.248,0,1,1,0,1.249,1.247,1.247,0,0,1,1.249,0Z" transform="translate(12.564 39.05)" fill="#e8e8e8"/>
          <path id="Trazado_193921" data-name="Trazado 193921" d="M1.249,0A1.248,1.248,0,1,1,0,1.249,1.247,1.247,0,0,1,1.249,0Z" transform="translate(19.185 39.05)" fill="#e8e8e8"/>
          <path id="Trazado_193922" data-name="Trazado 193922" d="M1.249,0A1.248,1.248,0,1,1,0,1.249,1.247,1.247,0,0,1,1.249,0Z" transform="translate(25.807 39.05)" fill="#e8e8e8"/>
          <path id="Trazado_193923" data-name="Trazado 193923" d="M1.249,0A1.248,1.248,0,1,1,0,1.249,1.249,1.249,0,0,1,1.249,0Z" transform="translate(32.428 39.05)" fill="#e8e8e8"/>
          <path id="Trazado_193924" data-name="Trazado 193924" d="M1.249,0A1.248,1.248,0,1,1,0,1.249,1.249,1.249,0,0,1,1.249,0Z" transform="translate(39.049 39.05)" fill="#e8e8e8"/>
          <path id="Trazado_193925" data-name="Trazado 193925" d="M1.249,0A1.248,1.248,0,1,1,0,1.249,1.249,1.249,0,0,1,1.249,0Z" transform="translate(45.671 39.05)" fill="#e8e8e8"/>
          <path id="Trazado_193926" data-name="Trazado 193926" d="M1.249,0A1.248,1.248,0,1,1,0,1.249,1.249,1.249,0,0,1,1.249,0Z" transform="translate(52.292 39.05)" fill="#e8e8e8"/>
          <path id="Trazado_193927" data-name="Trazado 193927" d="M1.249,0A1.248,1.248,0,1,1,0,1.249,1.249,1.249,0,0,1,1.249,0Z" transform="translate(58.914 39.05)" fill="#e8e8e8"/>
          <path id="Trazado_193928" data-name="Trazado 193928" d="M1.249,0A1.248,1.248,0,1,1,0,1.249,1.249,1.249,0,0,1,1.249,0Z" transform="translate(65.535 39.05)" fill="#e8e8e8"/>
          <path id="Trazado_193929" data-name="Trazado 193929" d="M1.249,0A1.248,1.248,0,1,1,0,1.249,1.249,1.249,0,0,1,1.249,0Z" transform="translate(72.156 39.05)" fill="#e8e8e8"/>
          <path id="Trazado_193930" data-name="Trazado 193930" d="M1.249,0A1.248,1.248,0,1,1,0,1.249,1.249,1.249,0,0,1,1.249,0Z" transform="translate(78.778 39.05)" fill="#e8e8e8"/>
          <path id="Trazado_193931" data-name="Trazado 193931" d="M1.249,0A1.248,1.248,0,1,1,0,1.249,1.249,1.249,0,0,1,1.249,0Z" transform="translate(85.399 39.05)" fill="#e8e8e8"/>
          <path id="Trazado_193932" data-name="Trazado 193932" d="M1.249,0A1.248,1.248,0,1,1,0,1.249,1.249,1.249,0,0,1,1.249,0Z" transform="translate(92.02 39.05)" fill="#e8e8e8"/>
          <path id="Trazado_193933" data-name="Trazado 193933" d="M1.247,0A1.248,1.248,0,1,1,0,1.249,1.248,1.248,0,0,1,1.247,0Z" transform="translate(98.643 39.05)" fill="#e8e8e8"/>
          <ellipse id="Elipse_5611" data-name="Elipse 5611" cx="0.275" cy="0.275" rx="0.275" ry="0.275" transform="translate(106.237 40.023)" fill="#e8e8e8"/>
          <ellipse id="Elipse_5612" data-name="Elipse 5612" cx="0.018" cy="0.018" rx="0.018" ry="0.018" transform="translate(0.551 33.658)" fill="#e8e8e8"/>
          <path id="Trazado_193934" data-name="Trazado 193934" d="M1.1,0A1.1,1.1,0,1,1,0,1.1,1.1,1.1,0,0,1,1.1,0Z" transform="translate(6.089 32.575)" fill="#e8e8e8"/>
          <path id="Trazado_193935" data-name="Trazado 193935" d="M1.249,0A1.248,1.248,0,1,1,0,1.247,1.247,1.247,0,0,1,1.249,0Z" transform="translate(12.564 32.428)" fill="#e8e8e8"/>
          <path id="Trazado_193936" data-name="Trazado 193936" d="M1.249,0A1.248,1.248,0,1,1,0,1.247,1.247,1.247,0,0,1,1.249,0" transform="translate(19.185 32.428)" fill="#e8e8e8"/>
          <path id="Trazado_193937" data-name="Trazado 193937" d="M1.249,0A1.248,1.248,0,1,1,0,1.247,1.247,1.247,0,0,1,1.249,0Z" transform="translate(25.807 32.428)" fill="#e8e8e8"/>
          <path id="Trazado_193938" data-name="Trazado 193938" d="M1.249,0A1.248,1.248,0,1,1,0,1.247,1.248,1.248,0,0,1,1.249,0Z" transform="translate(32.428 32.428)" fill="#e8e8e8"/>
          <path id="Trazado_193939" data-name="Trazado 193939" d="M1.249,0A1.248,1.248,0,1,1,0,1.247,1.248,1.248,0,0,1,1.249,0Z" transform="translate(39.049 32.428)" fill="#e8e8e8"/>
          <path id="Trazado_193940" data-name="Trazado 193940" d="M1.249,0A1.248,1.248,0,1,1,0,1.247,1.248,1.248,0,0,1,1.249,0Z" transform="translate(45.671 32.428)" fill="#e8e8e8"/>
          <path id="Trazado_193941" data-name="Trazado 193941" d="M1.249,0A1.248,1.248,0,1,1,0,1.247,1.248,1.248,0,0,1,1.249,0Z" transform="translate(52.292 32.428)" fill="#e8e8e8"/>
          <path id="Trazado_193942" data-name="Trazado 193942" d="M1.249,0A1.248,1.248,0,1,1,0,1.247,1.248,1.248,0,0,1,1.249,0Z" transform="translate(58.914 32.428)" fill="#e8e8e8"/>
          <path id="Trazado_193943" data-name="Trazado 193943" d="M1.249,0A1.248,1.248,0,1,1,0,1.247,1.248,1.248,0,0,1,1.249,0Z" transform="translate(65.535 32.428)" fill="#e8e8e8"/>
          <path id="Trazado_193944" data-name="Trazado 193944" d="M1.249,0A1.248,1.248,0,1,1,0,1.247,1.248,1.248,0,0,1,1.249,0Z" transform="translate(72.156 32.428)" fill="#e8e8e8"/>
          <path id="Trazado_193945" data-name="Trazado 193945" d="M1.249,0A1.248,1.248,0,1,1,0,1.247,1.248,1.248,0,0,1,1.249,0Z" transform="translate(78.778 32.428)" fill="#e8e8e8"/>
          <path id="Trazado_193946" data-name="Trazado 193946" d="M1.249,0A1.248,1.248,0,1,1,0,1.247,1.248,1.248,0,0,1,1.249,0Z" transform="translate(85.399 32.428)" fill="#e8e8e8"/>
          <path id="Trazado_193947" data-name="Trazado 193947" d="M1.249,0A1.248,1.248,0,1,1,0,1.247,1.248,1.248,0,0,1,1.249,0Z" transform="translate(92.02 32.428)" fill="#e8e8e8"/>
          <path id="Trazado_193948" data-name="Trazado 193948" d="M1.082,0A1.083,1.083,0,1,1,0,1.082,1.082,1.082,0,0,1,1.082,0Z" transform="translate(98.808 32.594)" fill="#e8e8e8"/>
          <ellipse id="Elipse_5613" data-name="Elipse 5613" cx="0.037" cy="0.037" rx="0.037" ry="0.037" transform="translate(106.476 33.64)" fill="#e8e8e8"/>
          <path id="Trazado_193949" data-name="Trazado 193949" d="M.515,0A.515.515,0,1,1,0,.514.515.515,0,0,1,.515,0Z" transform="translate(6.676 26.54)" fill="#e8e8e8"/>
          <path id="Trazado_193950" data-name="Trazado 193950" d="M1.249,0A1.248,1.248,0,1,1,0,1.247,1.247,1.247,0,0,1,1.249,0Z" transform="translate(12.564 25.807)" fill="#e8e8e8"/>
          <path id="Trazado_193951" data-name="Trazado 193951" d="M1.249,0A1.248,1.248,0,1,1,0,1.247,1.247,1.247,0,0,1,1.249,0Z" transform="translate(19.185 25.807)" fill="#e8e8e8"/>
          <path id="Trazado_193952" data-name="Trazado 193952" d="M1.249,0A1.248,1.248,0,1,1,0,1.247,1.247,1.247,0,0,1,1.249,0Z" transform="translate(25.807 25.807)" fill="#e8e8e8"/>
          <path id="Trazado_193953" data-name="Trazado 193953" d="M1.249,0A1.248,1.248,0,1,1,0,1.247,1.248,1.248,0,0,1,1.249,0Z" transform="translate(32.428 25.807)" fill="#e8e8e8"/>
          <path id="Trazado_193954" data-name="Trazado 193954" d="M1.249,0A1.248,1.248,0,1,1,0,1.247,1.248,1.248,0,0,1,1.249,0Z" transform="translate(39.049 25.807)" fill="#e8e8e8"/>
          <path id="Trazado_193955" data-name="Trazado 193955" d="M1.249,0A1.248,1.248,0,1,1,0,1.247,1.248,1.248,0,0,1,1.249,0Z" transform="translate(45.671 25.807)" fill="#e8e8e8"/>
          <path id="Trazado_193956" data-name="Trazado 193956" d="M1.249,0A1.248,1.248,0,1,1,0,1.247,1.248,1.248,0,0,1,1.249,0Z" transform="translate(52.292 25.807)" fill="#e8e8e8"/>
          <path id="Trazado_193957" data-name="Trazado 193957" d="M1.249,0A1.248,1.248,0,1,1,0,1.247,1.248,1.248,0,0,1,1.249,0Z" transform="translate(58.914 25.807)" fill="#e8e8e8"/>
          <path id="Trazado_193958" data-name="Trazado 193958" d="M1.249,0A1.248,1.248,0,1,1,0,1.247,1.248,1.248,0,0,1,1.249,0Z" transform="translate(65.535 25.807)" fill="#e8e8e8"/>
          <path id="Trazado_193959" data-name="Trazado 193959" d="M1.249,0A1.248,1.248,0,1,1,0,1.247,1.248,1.248,0,0,1,1.249,0Z" transform="translate(72.156 25.807)" fill="#e8e8e8"/>
          <path id="Trazado_193960" data-name="Trazado 193960" d="M1.249,0A1.248,1.248,0,1,1,0,1.247,1.248,1.248,0,0,1,1.249,0Z" transform="translate(78.778 25.807)" fill="#e8e8e8"/>
          <path id="Trazado_193961" data-name="Trazado 193961" d="M1.249,0A1.248,1.248,0,1,1,0,1.247,1.248,1.248,0,0,1,1.249,0Z" transform="translate(85.399 25.807)" fill="#e8e8e8"/>
          <path id="Trazado_193962" data-name="Trazado 193962" d="M1.249,0A1.248,1.248,0,1,1,0,1.247,1.248,1.248,0,0,1,1.249,0Z" transform="translate(92.02 25.807)" fill="#e8e8e8"/>
          <path id="Trazado_193963" data-name="Trazado 193963" d="M.5,0A.5.5,0,1,1,0,.5.5.5,0,0,1,.5,0Z" transform="translate(99.395 26.559)" fill="#e8e8e8"/>
          <ellipse id="Elipse_5614" data-name="Elipse 5614" cx="0.018" cy="0.018" rx="0.018" ry="0.018" transform="translate(7.172 20.415)" fill="#e8e8e8"/>
          <path id="Trazado_193964" data-name="Trazado 193964" d="M.881,0A.881.881,0,1,1,0,.881.883.883,0,0,1,.881,0Z" transform="translate(12.931 19.552)" fill="#e8e8e8"/>
          <ellipse id="Elipse_5615" data-name="Elipse 5615" cx="1.249" cy="1.249" rx="1.249" ry="1.249" transform="translate(19.185 19.185)" fill="#e8e8e8"/>
          <ellipse id="Elipse_5616" data-name="Elipse 5616" cx="1.249" cy="1.249" rx="1.249" ry="1.249" transform="translate(25.806 19.185)" fill="#e8e8e8"/>
          <ellipse id="Elipse_5617" data-name="Elipse 5617" cx="1.249" cy="1.249" rx="1.249" ry="1.249" transform="translate(32.428 19.185)" fill="#e8e8e8"/>
          <ellipse id="Elipse_5618" data-name="Elipse 5618" cx="1.249" cy="1.249" rx="1.249" ry="1.249" transform="translate(39.049 19.185)" fill="#e8e8e8"/>
          <ellipse id="Elipse_5619" data-name="Elipse 5619" cx="1.249" cy="1.249" rx="1.249" ry="1.249" transform="translate(45.671 19.185)" fill="#e8e8e8"/>
          <path id="Trazado_193965" data-name="Trazado 193965" d="M1.249,0A1.248,1.248,0,1,1,0,1.247,1.248,1.248,0,0,1,1.249,0Z" transform="translate(52.292 19.186)" fill="#e8e8e8"/>
          <path id="Trazado_193966" data-name="Trazado 193966" d="M1.249,0A1.248,1.248,0,1,1,0,1.247,1.248,1.248,0,0,1,1.249,0Z" transform="translate(58.914 19.186)" fill="#e8e8e8"/>
          <path id="Trazado_193967" data-name="Trazado 193967" d="M1.249,0A1.248,1.248,0,1,1,0,1.247,1.248,1.248,0,0,1,1.249,0Z" transform="translate(65.535 19.186)" fill="#e8e8e8"/>
          <path id="Trazado_193968" data-name="Trazado 193968" d="M1.249,0A1.248,1.248,0,1,1,0,1.247,1.248,1.248,0,0,1,1.249,0Z" transform="translate(72.156 19.186)" fill="#e8e8e8"/>
          <path id="Trazado_193969" data-name="Trazado 193969" d="M1.249,0A1.248,1.248,0,1,1,0,1.247,1.248,1.248,0,0,1,1.249,0Z" transform="translate(78.778 19.186)" fill="#e8e8e8"/>
          <path id="Trazado_193970" data-name="Trazado 193970" d="M1.249,0A1.248,1.248,0,1,1,0,1.247,1.248,1.248,0,0,1,1.249,0Z" transform="translate(85.399 19.186)" fill="#e8e8e8"/>
          <path id="Trazado_193971" data-name="Trazado 193971" d="M.863,0A.864.864,0,1,1,0,.863.863.863,0,0,1,.863,0Z" transform="translate(92.406 19.57)" fill="#e8e8e8"/>
          <ellipse id="Elipse_5620" data-name="Elipse 5620" cx="0.018" cy="0.018" rx="0.018" ry="0.018" transform="translate(99.873 20.415)" fill="#e8e8e8"/>
          <ellipse id="Elipse_5621" data-name="Elipse 5621" cx="0.055" cy="0.055" rx="0.055" ry="0.055" transform="translate(13.757 13.757)" fill="#e8e8e8"/>
          <path id="Trazado_193972" data-name="Trazado 193972" d="M.881,0A.881.881,0,1,1,0,.881.883.883,0,0,1,.881,0Z" transform="translate(19.553 12.93)" fill="#e8e8e8"/>
          <ellipse id="Elipse_5622" data-name="Elipse 5622" cx="1.249" cy="1.249" rx="1.249" ry="1.249" transform="translate(25.806 12.564)" fill="#e8e8e8"/>
          <ellipse id="Elipse_5623" data-name="Elipse 5623" cx="1.249" cy="1.249" rx="1.249" ry="1.249" transform="translate(32.428 12.564)" fill="#e8e8e8"/>
          <ellipse id="Elipse_5624" data-name="Elipse 5624" cx="1.249" cy="1.249" rx="1.249" ry="1.249" transform="translate(39.049 12.564)" fill="#e8e8e8"/>
          <ellipse id="Elipse_5625" data-name="Elipse 5625" cx="1.249" cy="1.249" rx="1.249" ry="1.249" transform="translate(45.671 12.564)" fill="#e8e8e8"/>
          <path id="Trazado_193973" data-name="Trazado 193973" d="M1.249,0A1.248,1.248,0,1,1,0,1.247,1.248,1.248,0,0,1,1.249,0Z" transform="translate(52.292 12.564)" fill="#e8e8e8"/>
          <path id="Trazado_193974" data-name="Trazado 193974" d="M1.249,0A1.248,1.248,0,1,1,0,1.247,1.248,1.248,0,0,1,1.249,0Z" transform="translate(58.914 12.564)" fill="#e8e8e8"/>
          <path id="Trazado_193975" data-name="Trazado 193975" d="M1.249,0A1.248,1.248,0,1,1,0,1.247,1.248,1.248,0,0,1,1.249,0Z" transform="translate(65.535 12.564)" fill="#e8e8e8"/>
          <path id="Trazado_193976" data-name="Trazado 193976" d="M1.249,0A1.248,1.248,0,1,1,0,1.247,1.248,1.248,0,0,1,1.249,0Z" transform="translate(72.156 12.564)" fill="#e8e8e8"/>
          <path id="Trazado_193977" data-name="Trazado 193977" d="M1.249,0A1.248,1.248,0,1,1,0,1.247,1.248,1.248,0,0,1,1.249,0Z" transform="translate(78.778 12.564)" fill="#e8e8e8"/>
          <path id="Trazado_193978" data-name="Trazado 193978" d="M.863,0A.863.863,0,1,1,0,.863.863.863,0,0,1,.863,0Z" transform="translate(85.785 12.949)" fill="#e8e8e8"/>
          <path id="Trazado_193979" data-name="Trazado 193979" d="M.073,0A.073.073,0,1,1,0,.073.073.073,0,0,1,.073,0Z" transform="translate(93.197 13.739)" fill="#e8e8e8"/>
          <ellipse id="Elipse_5626" data-name="Elipse 5626" cx="0.018" cy="0.018" rx="0.018" ry="0.018" transform="translate(20.415 7.172)" fill="#e8e8e8"/>
          <path id="Trazado_193980" data-name="Trazado 193980" d="M.514,0A.514.514,0,1,1,0,.514.515.515,0,0,1,.514,0Z" transform="translate(26.541 6.676)" fill="#e8e8e8"/>
          <path id="Trazado_193981" data-name="Trazado 193981" d="M1.084,0A1.083,1.083,0,1,1,0,1.082,1.083,1.083,0,0,1,1.084,0Z" transform="translate(32.593 6.108)" fill="#e8e8e8"/>
          <ellipse id="Elipse_5627" data-name="Elipse 5627" cx="1.249" cy="1.249" rx="1.249" ry="1.249" transform="translate(39.049 5.942)" fill="#e8e8e8"/>
          <ellipse id="Elipse_5628" data-name="Elipse 5628" cx="1.249" cy="1.249" rx="1.249" ry="1.249" transform="translate(45.671 5.942)" fill="#e8e8e8"/>
          <path id="Trazado_193982" data-name="Trazado 193982" d="M1.249,0A1.248,1.248,0,1,1,0,1.247,1.248,1.248,0,0,1,1.249,0Z" transform="translate(52.292 5.943)" fill="#e8e8e8"/>
          <path id="Trazado_193983" data-name="Trazado 193983" d="M1.249,0A1.248,1.248,0,1,1,0,1.247,1.248,1.248,0,0,1,1.249,0Z" transform="translate(58.914 5.943)" fill="#e8e8e8"/>
          <path id="Trazado_193984" data-name="Trazado 193984" d="M1.249,0A1.248,1.248,0,1,1,0,1.247,1.248,1.248,0,0,1,1.249,0Z" transform="translate(65.535 5.943)" fill="#e8e8e8"/>
          <path id="Trazado_193985" data-name="Trazado 193985" d="M1.084,0A1.083,1.083,0,1,1,0,1.082,1.083,1.083,0,0,1,1.084,0Z" transform="translate(72.321 6.108)" fill="#e8e8e8"/>
          <path id="Trazado_193986" data-name="Trazado 193986" d="M.5,0A.5.5,0,1,1,0,.5.5.5,0,0,1,.5,0Z" transform="translate(79.531 6.695)" fill="#e8e8e8"/>
          <ellipse id="Elipse_5629" data-name="Elipse 5629" cx="0.018" cy="0.018" rx="0.018" ry="0.018" transform="translate(86.63 7.172)" fill="#e8e8e8"/>
          <ellipse id="Elipse_5630" data-name="Elipse 5630" cx="0.037" cy="0.037" rx="0.037" ry="0.037" transform="translate(33.64 0.532)" fill="#e8e8e8"/>
          <path id="Trazado_193987" data-name="Trazado 193987" d="M.275,0A.276.276,0,1,1,0,.275.274.274,0,0,1,.275,0Z" transform="translate(40.023 0.294)" fill="#e8e8e8"/>
          <path id="Trazado_193988" data-name="Trazado 193988" d="M.514,0A.514.514,0,1,1,0,.514.515.515,0,0,1,.514,0Z" transform="translate(46.406 0.055)" fill="#e8e8e8"/>
          <ellipse id="Elipse_5631" data-name="Elipse 5631" cx="0.569" cy="0.569" rx="0.569" ry="0.569" transform="translate(52.972)" fill="#e8e8e8"/>
          <path id="Trazado_193989" data-name="Trazado 193989" d="M.514,0A.514.514,0,1,1,0,.514.515.515,0,0,1,.514,0Z" transform="translate(59.648 0.055)" fill="#e8e8e8"/>
          <path id="Trazado_193990" data-name="Trazado 193990" d="M.275,0A.276.276,0,1,1,0,.275.274.274,0,0,1,.275,0Z" transform="translate(66.509 0.294)" fill="#e8e8e8"/>
          <ellipse id="Elipse_5632" data-name="Elipse 5632" cx="0.037" cy="0.037" rx="0.037" ry="0.037" transform="translate(73.369 0.532)" fill="#e8e8e8"/>
        </g>
      </g>
      <g id="Grupo_169387" data-name="Grupo 169387" transform="translate(186.993 4929.825)">
        <path id="Trazado_211593" data-name="Trazado 211593" d="M3.618,289.064c.151.246.308.484.47.718l25.228-15.464c-.135-.25-.277-.5-.427-.745-.222-.362-.458-.709-.7-1.047L3,287.96c.187.373.391.741.613,1.1" transform="translate(-1.524 -266.671)" fill="#def2f4"/>
        <path id="Trazado_211594" data-name="Trazado 211594" d="M21.287,306.2l17.105-10.485a14.854,14.854,0,0,0,.514-2.8L18.559,305.383a14.913,14.913,0,0,0,2.728.813" transform="translate(-9.409 -277.006)" fill="#def2f4"/>
        <path id="Trazado_211595" data-name="Trazado 211595" d="M10.805,298.083l23.2-14.221a14.663,14.663,0,0,0-.484-2.188L9.074,296.658a14.721,14.721,0,0,0,1.731,1.424" transform="translate(-4.6 -271.308)" fill="#def2f4"/>
        <path id="Trazado_211596" data-name="Trazado 211596" d="M40.334,312.217a14.778,14.778,0,0,0,4.058-3.667l-9.168,5.62a14.784,14.784,0,0,0,5.11-1.953" transform="translate(-17.858 -284.935)" fill="#def2f4"/>
        <path id="Trazado_211597" data-name="Trazado 211597" d="M.424,281.517l24.257-14.869a14.646,14.646,0,0,0-1.791-1.388L0,279.291a14.665,14.665,0,0,0,.424,2.225" transform="translate(0 -262.987)" fill="#def2f4"/>
        <path id="Trazado_211598" data-name="Trazado 211598" d="M10.811,263a14.808,14.808,0,0,0-3.265,2.711l7.161-4.389a14.8,14.8,0,0,0-3.9,1.678" transform="translate(-3.826 -260.992)" fill="#def2f4"/>
        <path id="Trazado_211599" data-name="Trazado 211599" d="M.029,273.537l19.825-12.152A14.913,14.913,0,0,0,17,260.649L.669,270.658a14.872,14.872,0,0,0-.64,2.878" transform="translate(-0.015 -260.649)" fill="#def2f4"/>
      </g>
    </g>
    <g id="Grupo_173424" data-name="Grupo 173424" transform="translate(1207 2915.575)">
      <g id="Grupo_173423" data-name="Grupo 173423" clip-path="url(#clip-path-2)">
        <path id="Trazado_214238" data-name="Trazado 214238" d="M126.023,66.81l1.411-.674a3.776,3.776,0,0,1,3.184-2.972c3.956-.651,7.928,2.46,9.909,5.554.41.648,1.378-.046.969-.688-2.375-3.708-7.99-7.75-12.612-5.61a5.236,5.236,0,0,0-2.86,4.39" transform="translate(-28.447 -13.956)" fill="#3a435e"/>
        <path id="Trazado_214239" data-name="Trazado 214239" d="M144.332,55.149c-.355-.418-8.095,3.8-8.095,3.8a6.242,6.242,0,0,0,.076-4.122l-.013-.036c-.046-.118-.115-.239-.235-.259a.327.327,0,0,0-.171.027,1.751,1.751,0,0,0-.945,1.1,13.359,13.359,0,0,0-.319,1.459,7.421,7.421,0,0,1-1.3,2.518c-.915,1.331.191,4.036.191,4.036s-.182.147-.428.352l2.547,3.658,1.6-1.132,1.248.01c.892-.111,7.872-4.862,7.7-5.4a3.687,3.687,0,0,0-.18-.446c-.108-.226-.226-.432-.305-.569-.06-.1-.1-.159-.1-.159a5.576,5.576,0,0,0-.039-.676,3.139,3.139,0,0,0-.122-.64.626.626,0,0,0-.3-.425,3.8,3.8,0,0,0-1.319.311c-1.645.547-4.2,1.581-4.155,1.381.063-.277,4.958-3.893,4.958-3.893a1.189,1.189,0,0,0-.045-.431,1.22,1.22,0,0,0-.245-.462" transform="translate(-30.015 -12.308)" fill="#ffa07f"/>
        <path id="Trazado_214240" data-name="Trazado 214240" d="M145.653,59.324a3.8,3.8,0,0,0-1.319.311c-.086.5-.031,1.078-.142,1.535a4.816,4.816,0,0,1-.984,1.947,7.589,7.589,0,0,1-2.977,1.971c-1.109.46-2.267.811-3.338,1.354a12.387,12.387,0,0,0-1.645,1.017l1.006,1.479,1.5-1.309,1.248.01c.892-.111,7.872-4.862,7.7-5.4a3.689,3.689,0,0,0-.18-.446c-.108-.226-.226-.432-.305-.569-.06-.1-.1-.159-.1-.159a5.579,5.579,0,0,0-.039-.676,3.139,3.139,0,0,0-.122-.64.626.626,0,0,0-.3-.425" transform="translate(-30.53 -13.389)" fill="#ff7d6f"/>
        <path id="Trazado_214241" data-name="Trazado 214241" d="M148.157,60.517c-.139.077-.28.153-.427.225a13.572,13.572,0,0,1-2.278.889c-.566.163-.941.233-.986.241.037-.026.355-.236.856-.537.537-.322,1.277-.749,2.117-1.169.2-.1.4-.2.594-.289a3.184,3.184,0,0,1,.123.64" transform="translate(-32.611 -13.516)" fill="#cf4a57"/>
        <path id="Trazado_214242" data-name="Trazado 214242" d="M149.04,62.351a14.3,14.3,0,0,1-2.619,1.062,14.327,14.327,0,0,1,2.317-1.631c.078.136.2.343.3.569" transform="translate(-33.052 -13.946)" fill="#cf4a57"/>
        <path id="Trazado_214243" data-name="Trazado 214243" d="M133.671,64.906c.019-.016.045-.033.063-.05a3.2,3.2,0,0,0,.308-.273,1.077,1.077,0,0,0,.181-.277,1.429,1.429,0,0,0-.007-.885,7.863,7.863,0,0,1-.369-2.883c.175-1.139.954-2.087,1.337-3.176a7.908,7.908,0,0,1,.877-2.338c.061-.079.132-.156.2-.238-.045-.115-.115-.239-.234-.259a.382.382,0,0,0-.172.029,1.739,1.739,0,0,0-.943,1.1,13.563,13.563,0,0,0-.321,1.458,7.427,7.427,0,0,1-1.3,2.517c-.918,1.333.185,4.038.185,4.038s-.2.116-.435.231c-.018.007-.037.018-.057.028l-.176.091Z" transform="translate(-29.981 -12.308)" fill="#ffbf90"/>
        <path id="Trazado_214244" data-name="Trazado 214244" d="M137.083,66.744l.148-.094a2.3,2.3,0,0,0,.369-.31,2.829,2.829,0,0,0,.617-3A2.344,2.344,0,0,0,138,62.9l-.1-.145s0,.063.007.174.009.268.006.457a8.378,8.378,0,0,1-.57,2.778c-.072.175-.135.321-.186.418l-.075.157" transform="translate(-30.944 -14.167)" fill="#cf4a57"/>
        <path id="Trazado_214245" data-name="Trazado 214245" d="M92.238,39.227s6.581.685,9.091,3c2.971,2.737,9.633,22,9.633,22l5.555-1.624,1.879-.9,1.412-.674,3.3-1.576.262-.125.18.276,4.487,7s-3.082,1.908-6.8,4.034c-.328.19-.657.374-.992.565-4.656,2.633-9.944,5.381-11.382,5.158a9.683,9.683,0,0,1-3.058-1.425,73.9,73.9,0,0,1-7.048-5.267L96.744,47.151Z" transform="translate(-20.821 -8.855)" fill="#c2adb9"/>
        <path id="Trazado_214246" data-name="Trazado 214246" d="M111.957,78.158a16.514,16.514,0,0,0,2.3-3.392.3.3,0,0,1,.564.1,14.765,14.765,0,0,0,.691,2.9c.125.361-.431.569-.556.208a15.546,15.546,0,0,1-.583-2.191,17.068,17.068,0,0,1-1.963,2.753c-.252.287-.708-.092-.455-.38" transform="translate(-25.256 -16.84)" fill="#97818d"/>
        <path id="Trazado_214248" data-name="Trazado 214248" d="M132.678,103.755A61.868,61.868,0,0,0,158.355,92.4L144.324,66.487l-21.379,9.458,8.22,23.5Z" transform="translate(-27.752 -15.008)" fill="#ffb15f"/>
        <path id="Trazado_214250" data-name="Trazado 214250" d="M126.75,74.76l1.112-.492a13.955,13.955,0,0,1-.454-6.876L126,68.066a16.929,16.929,0,0,0,.753,6.694" transform="translate(-28.421 -15.212)" fill="#3a435e"/>
        <path id="Trazado_214253" data-name="Trazado 214253" d="M38.115,68.516,36.7,67.841a3.773,3.773,0,0,0-3.183-2.971c-3.957-.652-7.929,2.46-9.909,5.553-.41.648-1.378-.046-.969-.688,2.375-3.708,7.99-7.75,12.612-5.61a5.236,5.236,0,0,1,2.86,4.39" transform="translate(-5.089 -14.341)" fill="#3a435e"/>
        <path id="Trazado_214254" data-name="Trazado 214254" d="M20.491,56.855c.355-.419,8.095,3.8,8.095,3.8a6.242,6.242,0,0,1-.076-4.122l.013-.036c.046-.118.115-.239.235-.26a.335.335,0,0,1,.171.028,1.751,1.751,0,0,1,.945,1.1,13.314,13.314,0,0,1,.319,1.459,7.421,7.421,0,0,0,1.3,2.518c.915,1.331-.191,4.036-.191,4.036s.182.147.428.352l-2.547,3.658-1.6-1.132-1.248.01c-.892-.112-7.872-4.862-7.7-5.4a3.685,3.685,0,0,1,.18-.446c.108-.226.226-.432.3-.569.06-.1.1-.159.1-.159a5.58,5.58,0,0,1,.039-.676,3.139,3.139,0,0,1,.122-.64.626.626,0,0,1,.3-.425A3.8,3.8,0,0,1,21,60.26c1.645.547,4.2,1.581,4.155,1.381-.063-.277-4.958-3.893-4.958-3.893a1.189,1.189,0,0,1,.045-.431,1.232,1.232,0,0,1,.245-.462" transform="translate(-4.207 -12.693)" fill="#ffa07f"/>
        <path id="Trazado_214255" data-name="Trazado 214255" d="M19.685,61.03A3.8,3.8,0,0,1,21,61.341c.086.5.031,1.078.142,1.535a4.8,4.8,0,0,0,.983,1.948A7.6,7.6,0,0,0,25.107,66.8c1.109.46,2.267.811,3.338,1.354a12.392,12.392,0,0,1,1.645,1.017l-1.006,1.479-1.5-1.309-1.248.01c-.892-.112-7.872-4.862-7.7-5.4a3.686,3.686,0,0,1,.18-.446c.108-.227.226-.432.3-.569.06-.1.1-.16.1-.16a5.58,5.58,0,0,1,.039-.676,3.139,3.139,0,0,1,.122-.64.626.626,0,0,1,.3-.425" transform="translate(-4.207 -13.774)" fill="#ff7d6f"/>
        <path id="Trazado_214256" data-name="Trazado 214256" d="M19.445,62.222c.139.077.281.153.427.226a13.628,13.628,0,0,0,2.278.888c.566.163.941.233.986.241-.037-.026-.355-.236-.856-.537-.537-.322-1.277-.749-2.117-1.169-.2-.1-.4-.2-.594-.289a3.182,3.182,0,0,0-.123.64" transform="translate(-4.389 -13.901)" fill="#cf4a57"/>
        <path id="Trazado_214257" data-name="Trazado 214257" d="M18.875,64.056a14.3,14.3,0,0,0,2.619,1.062,14.384,14.384,0,0,0-2.317-1.631c-.078.136-.2.343-.3.569" transform="translate(-4.261 -14.331)" fill="#cf4a57"/>
        <path id="Trazado_214258" data-name="Trazado 214258" d="M34,66.612c-.019-.016-.044-.033-.064-.05a3.3,3.3,0,0,1-.308-.273,1.094,1.094,0,0,1-.18-.277,1.429,1.429,0,0,1,.007-.885,7.863,7.863,0,0,0,.369-2.883c-.176-1.139-.954-2.088-1.337-3.176a7.908,7.908,0,0,0-.877-2.338c-.061-.079-.132-.156-.2-.238.045-.114.115-.238.234-.258a.384.384,0,0,1,.172.029,1.739,1.739,0,0,1,.943,1.1,13.554,13.554,0,0,1,.321,1.458,7.439,7.439,0,0,0,1.3,2.518c.918,1.332-.185,4.037-.185,4.037s.2.116.435.231c.018.007.037.018.057.028l.176.091Z" transform="translate(-7.09 -12.693)" fill="#ffbf90"/>
        <path id="Trazado_214259" data-name="Trazado 214259" d="M31.208,68.45l-.148-.094a2.3,2.3,0,0,1-.369-.31,2.829,2.829,0,0,1-.617-3,2.343,2.343,0,0,1,.217-.43l.1-.145s0,.063-.007.174-.009.268-.006.457a8.378,8.378,0,0,0,.57,2.778c.072.174.135.321.186.418l.075.157" transform="translate(-6.746 -14.552)" fill="#cf4a57"/>
        <path id="Trazado_214260" data-name="Trazado 214260" d="M66,40.932s-6.581.685-9.091,3c-2.971,2.736-9.633,22-9.633,22l-5.555-1.624-1.879-.9-1.411-.674-3.3-1.576-.262-.125-.18.276-4.487,7s3.082,1.908,6.8,4.034c.328.19.658.374.992.565,4.656,2.633,9.944,5.381,11.382,5.158a9.683,9.683,0,0,0,3.058-1.425,73.9,73.9,0,0,0,7.048-5.267L61.5,48.856Z" transform="translate(-6.817 -9.24)" fill="#c2adb9"/>
        <path id="Trazado_214261" data-name="Trazado 214261" d="M55.656,79.864a16.48,16.48,0,0,1-2.3-3.392.3.3,0,0,0-.564.1,14.778,14.778,0,0,1-.691,2.9c-.125.361.431.569.556.208a15.442,15.442,0,0,0,.583-2.191A17.156,17.156,0,0,0,55.2,80.245c.252.286.708-.093.455-.381" transform="translate(-11.756 -17.225)" fill="#97818d"/>
        <path id="Trazado_214263" data-name="Trazado 214263" d="M25.677,105.461A61.868,61.868,0,0,1,0,94.1L14.031,68.193,35.41,77.651l-8.22,23.5Z" transform="translate(0 -15.393)" fill="#456997"/>
        <path id="Trazado_214265" data-name="Trazado 214265" d="M41.358,76.466l-1.112-.492A13.955,13.955,0,0,0,40.7,69.1l1.411.674a16.931,16.931,0,0,1-.753,6.694" transform="translate(-9.085 -15.598)" fill="#3a435e"/>
        <path id="Trazado_214266" data-name="Trazado 214266" d="M47.3,206.553a1.278,1.278,0,0,1,.732-1.025c1.424-.621,6.649-2.545,8.066-3.645a11.048,11.048,0,0,0,2.451-3.5l9.708.5a73.252,73.252,0,0,1,.979,8.241Z" transform="translate(-10.676 -44.78)" fill="#985551"/>
        <path id="Trazado_214267" data-name="Trazado 214267" d="M47.212,211.1l21.936.565.066-2.162-21.936-.565Z" transform="translate(-10.657 -47.163)" fill="#763231"/>
        <path id="Trazado_214268" data-name="Trazado 214268" d="M60.111,203.26l.043.076c.1.192.162.485-.1.592a.712.712,0,0,1-.422,0,4.56,4.56,0,0,1-1.336-.567,3.432,3.432,0,0,1-1.213-1c-.294-.462.141-.876.66-.756a3.9,3.9,0,0,1,2.365,1.653" transform="translate(-12.865 -45.504)" fill="#763231"/>
        <path id="Trazado_214269" data-name="Trazado 214269" d="M57.937,204.7c.015.026.029.05.043.077.1.191.162.485-.1.592a.71.71,0,0,1-.421,0,4.56,4.56,0,0,1-1.336-.567,3.432,3.432,0,0,1-1.213-1c-.294-.462.141-.876.66-.756a3.9,3.9,0,0,1,2.365,1.653" transform="translate(-12.374 -45.83)" fill="#763231"/>
        <path id="Trazado_214270" data-name="Trazado 214270" d="M55.285,205.619c.015.026.029.05.043.077.1.191.162.485-.1.592a.719.719,0,0,1-.422,0,4.559,4.559,0,0,1-1.336-.567,3.431,3.431,0,0,1-1.213-1c-.294-.462.141-.876.66-.756a3.9,3.9,0,0,1,2.365,1.653" transform="translate(-11.775 -46.037)" fill="#763231"/>
        <path id="Trazado_214271" data-name="Trazado 214271" d="M102.13,206.244s-4.76,3.354-6.059,3.462-8.112-1.624-8.112-2.49c0-.3.147-1.377.355-2.671a38.314,38.314,0,0,1,1.267-5.984c.432-.649,0-4.543,0-4.543s7.033-1.624,8.006-1.3c.752.249,3.051,8.171,4.06,11.771.3,1.065.484,1.752.484,1.752" transform="translate(-19.855 -43.493)" fill="#985551"/>
        <path id="Trazado_214272" data-name="Trazado 214272" d="M102.13,209.688s-4.76,3.354-6.059,3.463-8.112-1.624-8.112-2.49c0-.3.147-1.377.355-2.671,2.218.87,6.967,2.591,8.533,2.028,1.063-.382,3.085-1.291,4.8-2.081.3,1.065.484,1.752.484,1.752" transform="translate(-19.855 -46.938)" fill="#763231"/>
        <path id="Trazado_214273" data-name="Trazado 214273" d="M94.923,175.369c-.162.064-.325.125-.487.184a27.987,27.987,0,0,1-15.578.975L77.79,139.262,72.659,110.2l-.293-1.826-.09,1.837-1.35,27.737,2.5,39.378a14.04,14.04,0,0,1-1.5.528c-6.912,2.022-15.815-.528-15.815-.528s1-34.568.82-37.142c-.119-1.673,1-19.287,1.8-31.424.432-6.546.77-11.5.77-11.5H89.657L89.562,107.3l.763,30.646s5.2,37.187,4.6,37.424" transform="translate(-12.665 -21.955)" fill="#424242"/>
        <path id="Trazado_214274" data-name="Trazado 214274" d="M90.421,97.259,90.327,107.3a66.257,66.257,0,0,1-16.9,2.9l-.293-1.826-.091,1.837a47.434,47.434,0,0,1-13.545-1.45c.432-6.546.77-11.5.77-11.5Z" transform="translate(-13.43 -21.954)" fill="#252727"/>
        <path id="Trazado_214275" data-name="Trazado 214275" d="M97.456,201.639l.08.036c.2.092.421.29.28.53a.708.708,0,0,1-.334.256,4.532,4.532,0,0,1-1.408.352,3.419,3.419,0,0,1-1.572-.069c-.514-.191-.415-.784.07-1a3.9,3.9,0,0,1,2.884-.1" transform="translate(-21.255 -45.465)" fill="#763231"/>
        <path id="Trazado_214276" data-name="Trazado 214276" d="M97.456,204.061l.08.036c.2.092.421.29.28.53a.708.708,0,0,1-.334.256,4.532,4.532,0,0,1-1.408.352,3.418,3.418,0,0,1-1.572-.069c-.514-.191-.415-.784.07-1a3.9,3.9,0,0,1,2.884-.1" transform="translate(-21.255 -46.011)" fill="#763231"/>
        <path id="Trazado_214277" data-name="Trazado 214277" d="M97.693,206.278l.08.036c.2.092.421.29.28.53a.714.714,0,0,1-.334.256,4.531,4.531,0,0,1-1.408.352,3.419,3.419,0,0,1-1.572-.069c-.514-.191-.415-.784.07-1a3.9,3.9,0,0,1,2.884-.1" transform="translate(-21.308 -46.512)" fill="#763231"/>
        <path id="Trazado_214278" data-name="Trazado 214278" d="M77.187,179.432a14.313,14.313,0,0,1-1.5.528l-2.9-39.906L75.593,106.6l.539,3.877-.091,1.837-1.35,27.737Z" transform="translate(-16.43 -24.064)" fill="#252727"/>
        <path id="Trazado_214279" data-name="Trazado 214279" d="M104.186,175.369c-.162.064-.325.125-.487.184l-6.151-37.607-.4-40.686H98.92L98.826,107.3l.763,30.646s5.2,37.187,4.6,37.424" transform="translate(-21.928 -21.955)" fill="#252727"/>
        <path id="Trazado_214280" data-name="Trazado 214280" d="M86.205,35.459c-.17.17-7.622,5.684-7.622,5.684s.172-3.4.253-5.166c.024-.548.041-.94.041-1.027,0-.708-.6-3.771-.6-3.771l7.52-3.439s.119,1.551.235,3.263a38.484,38.484,0,0,1,.178,4.457" transform="translate(-17.669 -6.262)" fill="#ffa07f"/>
        <path id="Trazado_214281" data-name="Trazado 214281" d="M86.027,31c-2.089,1.517-6.69,4.835-7.15,4.966a.277.277,0,0,1-.041.009c.024-.548.041-.94.041-1.027,0-.707-.6-3.771-.6-3.771l7.52-3.439s.118,1.551.234,3.263" transform="translate(-17.669 -6.262)" fill="#ff7d6f"/>
        <path id="Trazado_214282" data-name="Trazado 214282" d="M84.616,23.261a3.575,3.575,0,0,1-1.028,1.286h0a7.516,7.516,0,0,1-.6.48c-.883.633-9.142,4.173-10.415,4s-2.471-4.543-2.538-5c-.409-2.821-1.534-11.54-1.534-11.54,3.139-9.5,14.337-4.581,15.61-3.648s.509,14.422.509,14.422" transform="translate(-15.462 -1.521)" fill="#ffa07f"/>
        <path id="Trazado_214283" data-name="Trazado 214283" d="M84.032,29.589a7.516,7.516,0,0,1-.6.48c-.882.633-9.142,4.173-10.415,4s-2.471-4.543-2.538-5c.793,1.921,1.689,4.577,2.589,4.492,1.357-.127,9.963-3.444,10.966-3.972" transform="translate(-15.909 -6.562)" fill="#ffbf90"/>
        <path id="Trazado_214284" data-name="Trazado 214284" d="M69.76,17.9s.842-2.4,1.893-1.882.712.711.712.711Z" transform="translate(-15.747 -3.599)" fill="#55062c"/>
        <path id="Trazado_214285" data-name="Trazado 214285" d="M83.788,14.12s-3.314-2.71-4.252-1.384c-.547.774-.011,1.145-.011,1.145Z" transform="translate(-17.898 -2.792)" fill="#55062c"/>
        <path id="Trazado_214286" data-name="Trazado 214286" d="M82.619,19.725c0,.878-.443,1.59-.99,1.59s-.99-.712-.99-1.59.444-1.59.99-1.59.99.712.99,1.59" transform="translate(-18.203 -4.094)" fill="#161818"/>
        <path id="Trazado_214287" data-name="Trazado 214287" d="M83.78,19.029a2.038,2.038,0,0,1-2.184.884,2.035,2.035,0,0,1,2.184-.884" transform="translate(-18.419 -4.285)" fill="#fff0e7"/>
        <path id="Trazado_214288" data-name="Trazado 214288" d="M71.11,20.608c0,.661.334,1.2.746,1.2s.746-.537.746-1.2-.334-1.2-.746-1.2-.746.536-.746,1.2" transform="translate(-16.052 -4.381)" fill="#161818"/>
        <path id="Trazado_214289" data-name="Trazado 214289" d="M70.283,20.2a1.642,1.642,0,0,0,1.553.629,1.65,1.65,0,0,0-1.553-.629" transform="translate(-15.865 -4.557)" fill="#fff0e7"/>
        <path id="Trazado_214290" data-name="Trazado 214290" d="M80.007,29.772a2.926,2.926,0,0,1-2.437.072,1.258,1.258,0,0,0,1.114.6,2.081,2.081,0,0,0,1.323-.674" transform="translate(-17.51 -6.72)" fill="#fc5b68"/>
        <path id="Trazado_214291" data-name="Trazado 214291" d="M71.214,25.3c-.13.348-.882.388-1.679.09s-1.336-.822-1.206-1.17.882-.388,1.678-.09,1.337.822,1.207,1.17" transform="translate(-15.42 -5.401)" fill="#ff7d6f"/>
        <path id="Trazado_214292" data-name="Trazado 214292" d="M83.731,23.44c.136.525-.728,1.2-1.929,1.514s-2.286.138-2.421-.386.728-1.2,1.929-1.514,2.286-.139,2.422.386" transform="translate(-17.916 -5.169)" fill="#ff7d6f"/>
        <path id="Trazado_214293" data-name="Trazado 214293" d="M81.374,26.727l-.142.194a3.54,3.54,0,0,1-.445.491,4.431,4.431,0,0,1-4.129,1.038,3.559,3.559,0,0,1-.625-.222l-.218-.1.237.043a5.25,5.25,0,0,0,.64.082,6.641,6.641,0,0,0,3.97-1,5.153,5.153,0,0,0,.525-.374l.188-.15" transform="translate(-17.114 -6.033)" fill="#fc5b68"/>
        <path id="Trazado_214294" data-name="Trazado 214294" d="M87.745,26.374a5.184,5.184,0,0,0,3.6-1.988,4.241,4.241,0,0,0,.358-.535c.485-.881.625-3.936-.626-4.646-.876-.5-1.514.224-1.818.7v0a2.9,2.9,0,0,0-.2.362Z" transform="translate(-19.807 -4.297)" fill="#ffbf90"/>
        <path id="Trazado_214295" data-name="Trazado 214295" d="M87.745,26.458a5.184,5.184,0,0,0,3.6-1.988c.057-.087.107-.169.149-.247.486-.881.626-3.936-.625-4.646a1.2,1.2,0,0,0-1.61.412v0a2.9,2.9,0,0,0-.2.362Z" transform="translate(-19.807 -4.381)" fill="#ffa07f"/>
        <path id="Trazado_214296" data-name="Trazado 214296" d="M91.862,22.228a1.311,1.311,0,0,1-.057.74A6.036,6.036,0,0,1,89.459,25.5,2.578,2.578,0,0,0,89.8,23.9c-.021-.19-.062-.379-.064-.57-.007-.769,1.753-2.543,2.124-1.1" transform="translate(-20.194 -4.893)" fill="#ff7d6f"/>
        <path id="Trazado_214297" data-name="Trazado 214297" d="M88.823,25.789l.056-.032c.036-.021.093-.05.158-.094a2.223,2.223,0,0,0,.484-.437,1.983,1.983,0,0,0,.4-.814,1.7,1.7,0,0,0-.124-1.077.9.9,0,0,0-.071-.135l-.019-.033,0,0v0h0l0-.005.016-.029.033-.058c.023-.039.045-.077.069-.115a4.57,4.57,0,0,1,.295-.422c.1-.131.21-.252.315-.362a2.743,2.743,0,0,1,.31-.288.672.672,0,0,1,.317-.14.5.5,0,0,1,.27.044.258.258,0,0,1,.12.109.229.229,0,0,1,.018.052.136.136,0,0,0,0-.055.242.242,0,0,0-.1-.139.555.555,0,0,0-.31-.1.872.872,0,0,0-.42.12,2.807,2.807,0,0,0-.382.274,4.165,4.165,0,0,0-.376.353,3.809,3.809,0,0,0-.348.432c-.027.039-.053.08-.079.12l-.038.061-.05.087-.035.061c.009.02.023.04.034.06l.05.087a.765.765,0,0,1,.061.117,1.793,1.793,0,0,1,.159.952,2.034,2.034,0,0,1-.259.777,2.231,2.231,0,0,1-.37.473c-.052.052-.1.088-.129.115l-.046.04" transform="translate(-20.05 -4.889)" fill="#cf4a57"/>
        <path id="Trazado_214298" data-name="Trazado 214298" d="M73.73,24.546a1.836,1.836,0,0,0,.411.636,5.138,5.138,0,0,0,.807.616,1.915,1.915,0,0,0,1.389-1.164l-.22.044a4.379,4.379,0,0,1-1.673.068,3.318,3.318,0,0,1-.714-.2" transform="translate(-16.643 -5.541)" fill="#ff7d6f"/>
        <path id="Trazado_214299" data-name="Trazado 214299" d="M73.41,22.533a.88.88,0,0,1,.293-.557,1.04,1.04,0,0,1,.5-.24,1.332,1.332,0,0,1,.856.137.351.351,0,0,1,.059.034,12.772,12.772,0,0,1-.42-1.438,12.326,12.326,0,0,1-.289-2.211,11.852,11.852,0,0,1,.695,2.118,12.951,12.951,0,0,1,.255,1.673c0,.049,0,.093.009.132-.049-.019-.1-.034-.166-.053s-.136-.039-.21-.059a1.278,1.278,0,0,0-.7.01.62.62,0,0,0-.469.509,1.583,1.583,0,0,0,.171.816,2.235,2.235,0,0,0,.836.93,1.489,1.489,0,0,0,.171.093,1.374,1.374,0,0,1-.2-.034,1.864,1.864,0,0,1-.509-.221,1.932,1.932,0,0,1-.6-.6,1.583,1.583,0,0,1-.279-1.042" transform="translate(-16.569 -4.121)" fill="#fc5b68"/>
        <path id="Trazado_214300" data-name="Trazado 214300" d="M63.755,8.136a1.724,1.724,0,0,0,2.128.829,1.619,1.619,0,0,0,.046.666,2.128,2.128,0,0,0,1.351,1.426,2.87,2.87,0,0,0,2.574-.492A5.05,5.05,0,0,0,71.43,8.379,3.463,3.463,0,0,0,76.015,7.33a3.756,3.756,0,0,0,4.742-.11l.486,2.9L82.7,11.133l.783,5.385,2.133-1.612a2.609,2.609,0,0,0,.87-.7,2.356,2.356,0,0,0,.58-1.125,2.118,2.118,0,0,0-.742-1.867,2.622,2.622,0,0,0,.962-2.046,2.29,2.29,0,0,0-.98-1.861,2.57,2.57,0,0,0-.162-3.113,2.567,2.567,0,0,0-3.072-.51,1.3,1.3,0,0,0-2.2-1.107A2.958,2.958,0,0,0,78.78.369a2.6,2.6,0,0,0-2.632,1.066,3.016,3.016,0,0,0-5.351.417,3.182,3.182,0,0,0-2.928.2,3.367,3.367,0,0,0-1.7,2.5,3.428,3.428,0,0,0-2.133,1.217,2.292,2.292,0,0,0-.284,2.371" transform="translate(-14.343 0)" fill="#3f0727"/>
        <path id="Trazado_214301" data-name="Trazado 214301" d="M63.755,8.136a1.724,1.724,0,0,0,2.128.829,1.619,1.619,0,0,0,.046.666,5.655,5.655,0,0,0,3.815-3.663,2.882,2.882,0,0,0,5.072-1.38,2.085,2.085,0,0,0,4,.18,3.742,3.742,0,0,0,4.348,1.107,3.182,3.182,0,0,0-.551,2.933,3.2,3.2,0,0,0,2.174,2.053,2.3,2.3,0,0,0,.307,2.684,2.233,2.233,0,0,0,1.391.661,2.356,2.356,0,0,0,.58-1.125,2.118,2.118,0,0,0-.742-1.867,2.622,2.622,0,0,0,.962-2.046,2.141,2.141,0,0,0-.1-.638A2.265,2.265,0,0,0,86.3,7.307a2.57,2.57,0,0,0-.162-3.113,2.567,2.567,0,0,0-3.072-.51,1.3,1.3,0,0,0-2.2-1.107A2.958,2.958,0,0,0,78.78.369a2.6,2.6,0,0,0-2.632,1.066,3.016,3.016,0,0,0-5.351.417,3.182,3.182,0,0,0-2.928.2,3.367,3.367,0,0,0-1.7,2.5,3.428,3.428,0,0,0-2.133,1.217,2.427,2.427,0,0,0-.475,1.159,2.026,2.026,0,0,0,.191,1.212" transform="translate(-14.343 0)" fill="#55062c"/>
        <path id="Trazado_214302" data-name="Trazado 214302" d="M63.57,6.924a5.953,5.953,0,0,1,4.336-.551,2.077,2.077,0,0,1,1.212-2.6,2.8,2.8,0,0,1,2.921.736,2.228,2.228,0,0,1,4.272-1.055,2.291,2.291,0,0,1,4.359.592.833.833,0,1,1,1.357.956,2.264,2.264,0,0,1,3.014.18A2.26,2.26,0,0,1,84.983,8.2a3.091,3.091,0,0,1,2.208.331,2.26,2.26,0,0,0-.881-1.223,2.57,2.57,0,0,0-.162-3.113,2.567,2.567,0,0,0-3.072-.51,1.3,1.3,0,0,0-2.2-1.107A2.957,2.957,0,0,0,78.787.369a2.6,2.6,0,0,0-2.632,1.066,3.016,3.016,0,0,0-5.351.417,3.18,3.18,0,0,0-2.927.2,3.365,3.365,0,0,0-1.7,2.5,3.432,3.432,0,0,0-2.133,1.218,2.435,2.435,0,0,0-.475,1.159" transform="translate(-14.35 0)" fill="#6f0a32"/>
        <path id="Trazado_214303" data-name="Trazado 214303" d="M91,95.4,58.187,94.09s.533-5.283,1.369-12.419C60.8,71.056,62.731,56.358,64.61,48.859A18.065,18.065,0,0,1,66,44.755a38.215,38.215,0,0,1,3.943-3.678.089.089,0,0,0,.019-.015,0,0,0,0,1,0-.005,25.072,25.072,0,0,1,11.705-3.346,7.629,7.629,0,0,1,2.417.929,29.563,29.563,0,0,1,2.881,1.683c4.31,3.052,5.654,13.7,5.792,24.829A258.466,258.466,0,0,1,91,95.4" transform="translate(-13.135 -8.513)" fill="#c2adb9"/>
        <path id="Trazado_214304" data-name="Trazado 214304" d="M88.273,38.04l-1.427-4.073s-11.365.969-11.6,2.9-.572,4.249-.572,4.249l2.787,4.444,9.49-3.961Z" transform="translate(-16.856 -7.667)" fill="#c2adb9"/>
        <path id="Trazado_214305" data-name="Trazado 214305" d="M76.632,41.176c.286-.09.579-.173.871-.257a11.183,11.183,0,0,1-.406-1.388,2.876,2.876,0,0,1-.235-1.369c.022-.091.143-.091.2-.034a2.684,2.684,0,0,1,.423,1.23,11.556,11.556,0,0,1,.328,1.471c.463-.13.931-.255,1.4-.37a8.368,8.368,0,0,1-.415-1.492,7.468,7.468,0,0,1-.26-1.8c.007-.218.3-.194.354-.016.172.559.211,1.166.328,1.741.1.5.249.991.32,1.492.564-.133,1.133-.258,1.706-.362a4.74,4.74,0,0,1-.358-1.162,4.41,4.41,0,0,1-.26-1.739.139.139,0,0,1,.262-.046,5.747,5.747,0,0,1,.386,1.6,6.986,6.986,0,0,1,.267,1.295c.523-.091,1.048-.169,1.573-.228a9.559,9.559,0,0,1-.308-1.393c-.08-.477-.3-1.1-.063-1.549a.1.1,0,0,1,.17-.029c.3.369.242.928.313,1.385.08.516.2,1.029.269,1.548.671-.066,1.343-.108,2.011-.111a3.421,3.421,0,0,1-.04-1.143c.019-.5-.073-1.2.257-1.6a.105.105,0,0,1,.179.016c.225.437.034,1.036,0,1.511a4.756,4.756,0,0,1-.1,1.21c.495.005.987.026,1.475.072.062.006.07.1.005.112a54.786,54.786,0,0,0-10.507,1.878.246.246,0,1,1-.149-.466" transform="translate(-17.255 -8.291)" fill="#97818d"/>
        <path id="Trazado_214306" data-name="Trazado 214306" d="M102.109,46.112c.063-.191.4-.174.373.05-.8,7.839-1.821,15.331-1.138,23.24.045.52-.752.509-.806,0-.8-7.6-.876-15.957,1.571-23.29" transform="translate(-22.581 -10.379)" fill="#97818d"/>
        <path id="Trazado_214307" data-name="Trazado 214307" d="M63.707,59.573a58.2,58.2,0,0,1,3.542-12.7c.072-.163.305-.042.273.115-.88,4.3-2.158,8.491-2.909,12.832-.743,4.293-.746,8.774-1.632,13.015-.07.334-.52.217-.551-.074-.468-4.234.485-9.019,1.277-13.191" transform="translate(-14.064 -10.564)" fill="#97818d"/>
      </g>
    </g>
  </g>
</svg>
