<svg xmlns="http://www.w3.org/2000/svg" xmlns:xlink="http://www.w3.org/1999/xlink" width="208.5" height="213.32" viewBox="0 0 208.5 213.32">
  <defs>
    <filter id="Trazado_150551" x="4.516" y="4.515" width="203.984" height="203.984" filterUnits="userSpaceOnUse">
      <feOffset dx="6" dy="6" input="SourceAlpha"/>
      <feGaussianBlur stdDeviation="12.5" result="blur"/>
      <feFlood flood-opacity="0.039"/>
      <feComposite operator="in" in2="blur"/>
      <feComposite in="SourceGraphic"/>
    </filter>
  </defs>
  <g id="Grupo_177314" data-name="Grupo 177314" transform="translate(9381 9354)">
    <g id="Grupo_145237" data-name="Grupo 145237" transform="translate(-9876 -11377.001)">
      <path id="Trazado_150550" data-name="Trazado 150550" d="M100.508,100.508H0A100.505,100.505,0,0,1,100.508,0Z" transform="translate(494.999 2023)" fill="#43a99b"/>
      <path id="Trazado_156683" data-name="Trazado 156683" d="M148.749,253.813H101.213l47.535,80.482,47.535-80.482Z" transform="translate(445.759 1902.026)" fill="#89d0c7"/>
      <circle id="Elipse_4894" data-name="Elipse 4894" cx="80.5" cy="80.5" r="80.5" transform="translate(515 2043)" fill="#b1e0d9"/>
      <g transform="matrix(1, 0, 0, 1, 495, 2023)" filter="url(#Trazado_150551)">
        <path id="Trazado_150551-2" data-name="Trazado 150551" d="M209.272,144.78A64.492,64.492,0,1,1,144.78,80.288a64.493,64.493,0,0,1,64.492,64.492" transform="translate(-44.27 -44.27)" fill="#fff"/>
      </g>
    </g>
    <path id="Trazado_214354" data-name="Trazado 214354" d="M30.773,13.047h0a2.906,2.906,0,0,1-2.906,2.906H25.314L21.063,33.92H2.5l20.1-22.8a2.906,2.906,0,0,1,2.18-.984h3.091a2.906,2.906,0,0,1,2.906,2.906Z" transform="translate(-9323.5 -9291.37)" fill="#afafaf"/>
    <path id="Trazado_214355" data-name="Trazado 214355" d="M82.543,24.4V48.512a6.67,6.67,0,0,1-6.67,6.67H53.4a6.67,6.67,0,0,1-5.9-3.555L44,45a1.668,1.668,0,0,0-2.949,0l-3.5,6.628a6.67,6.67,0,0,1-5.9,3.555H9.17a6.67,6.67,0,0,1-6.67-6.67V24.4Z" transform="translate(-9323.5 -9281.853)" fill="#e8e8e8"/>
    <path id="Trazado_214356" data-name="Trazado 214356" d="M6.5,42.5V31.734A3.335,3.335,0,0,1,9.835,28.4H32.656A3.335,3.335,0,0,1,35.6,33.293L29.912,44.06a3.335,3.335,0,0,1-2.948,1.776H9.835A3.335,3.335,0,0,1,6.5,42.5Z" transform="translate(-9320.83 -9279.182)" fill="#f34624"/>
    <path id="Trazado_214357" data-name="Trazado 214357" d="M34.9,44.06,29.2,33.293A3.335,3.335,0,0,1,32.152,28.4H54.973a3.335,3.335,0,0,1,3.335,3.335V42.5a3.335,3.335,0,0,1-3.335,3.335H37.844A3.335,3.335,0,0,1,34.9,44.06Z" transform="translate(-9305.936 -9279.182)" fill="#00aeff"/>
    <path id="Trazado_214358" data-name="Trazado 214358" d="M33.545,13.047h0a2.906,2.906,0,0,0,2.906,2.906H39L43.255,33.92H61.818l-20.1-22.8a2.906,2.906,0,0,0-2.18-.984H36.451a2.906,2.906,0,0,0-2.906,2.906Z" transform="translate(-9302.775 -9291.37)" fill="#afafaf"/>
  </g>
</svg>
