<svg xmlns="http://www.w3.org/2000/svg" xmlns:xlink="http://www.w3.org/1999/xlink" width="207.984" height="213.32" viewBox="0 0 207.984 213.32">
  <defs>
    <filter id="Trazado_150551" x="5.031" y="5.03" width="202.953" height="202.953" filterUnits="userSpaceOnUse">
      <feOffset dx="6" dy="6" input="SourceAlpha"/>
      <feGaussianBlur stdDeviation="12.5" result="blur"/>
      <feFlood flood-opacity="0.039"/>
      <feComposite operator="in" in2="blur"/>
      <feComposite in="SourceGraphic"/>
    </filter>
  </defs>
  <g id="Grupo_177315" data-name="Grupo 177315" transform="translate(9128 9354)">
    <g id="Grupo_145237" data-name="Grupo 145237" transform="translate(-9623 -11377.001)">
      <path id="Trazado_150550" data-name="Trazado 150550" d="M100.508,100.508H0A100.505,100.505,0,0,1,100.508,0Z" transform="translate(494.999 2023)" fill="#60deff"/>
      <path id="Trazado_156683" data-name="Trazado 156683" d="M148.749,253.813H101.213l47.535,80.482,47.535-80.482Z" transform="translate(445.759 1902.026)" fill="#60deff"/>
      <circle id="Elipse_4894" data-name="Elipse 4894" cx="80.5" cy="80.5" r="80.5" transform="translate(515 2043)" fill="#ace3ff"/>
      <g transform="matrix(1, 0, 0, 1, 495, 2023)" filter="url(#Trazado_150551)">
        <path id="Trazado_150551-2" data-name="Trazado 150551" d="M208.241,144.265a63.977,63.977,0,1,1-63.977-63.977,63.977,63.977,0,0,1,63.977,63.977" transform="translate(-43.76 -43.76)" fill="#fff"/>
      </g>
    </g>
    <g id="Grupo_173456" data-name="Grupo 173456" transform="translate(-9061.817 -9287)">
      <path id="Trazado_214359" data-name="Trazado 214359" d="M21.1,5.729H6.911A1.182,1.182,0,0,0,5.729,6.911V21.1a1.182,1.182,0,0,1-1.182,1.182H2.182A1.182,1.182,0,0,1,1,21.1V3.364A2.364,2.364,0,0,1,3.364,1H21.1a1.182,1.182,0,0,1,1.182,1.182V4.546A1.182,1.182,0,0,1,21.1,5.729Z" transform="translate(-1 -1)" fill="#0b67d1"/>
      <path id="Trazado_214360" data-name="Trazado 214360" d="M42.182,5.729H56.368A1.182,1.182,0,0,1,57.55,6.911V21.1a1.182,1.182,0,0,0,1.182,1.182H61.1A1.182,1.182,0,0,0,62.278,21.1V3.364A2.364,2.364,0,0,0,59.914,1H42.182A1.182,1.182,0,0,0,41,2.182V4.546A1.182,1.182,0,0,0,42.182,5.729Z" transform="translate(6.285 -1)" fill="#0b67d1"/>
      <path id="Trazado_214361" data-name="Trazado 214361" d="M21.1,57.55H6.911a1.182,1.182,0,0,1-1.182-1.182V42.182A1.182,1.182,0,0,0,4.546,41H2.182A1.182,1.182,0,0,0,1,42.182V59.914a2.364,2.364,0,0,0,2.364,2.364H21.1A1.182,1.182,0,0,0,22.278,61.1V58.732A1.182,1.182,0,0,0,21.1,57.55Z" transform="translate(-1 6.285)" fill="#0b67d1"/>
      <path id="Trazado_214362" data-name="Trazado 214362" d="M42.182,57.55H56.368a1.182,1.182,0,0,0,1.182-1.182V42.182A1.182,1.182,0,0,1,58.732,41H61.1a1.182,1.182,0,0,1,1.182,1.182V59.914a2.364,2.364,0,0,1-2.364,2.364H42.182A1.182,1.182,0,0,1,41,61.1V58.732A1.182,1.182,0,0,1,42.182,57.55Z" transform="translate(6.285 6.285)" fill="#0b67d1"/>
    </g>
    <path id="Trazado_214363" data-name="Trazado 214363" d="M41.016,51.828c-2.323,0-2.893-3.808-4.143-18.813-.453-5.425-1.043-12.494-1.78-15.507-.736,3.013-1.325,10.082-1.773,15.507-1.254,15-1.824,18.813-4.13,18.813-2.352,0-2.936-4.019-4.129-16.439C24.624,30.847,24,24.327,23.242,21.838A81.57,81.57,0,0,0,21.5,33.049C20.315,43.458,19.693,47.1,17.368,47.1c-2.4,0-3.063-4-4.126-11.658a61.314,61.314,0,0,0-1.628-8.859c-.467,1.549-.985,4.452-1.358,6.54-1.227,6.872-1.741,9.249-3.527,9.249-1.843,0-2.345-2.35-2.929-5.071a15.213,15.213,0,0,0-.914-3.241,1.182,1.182,0,0,1,.3-2.326c1.843,0,2.345,2.35,2.929,5.071.136.635.324,1.514.525,2.219.449-1.594.937-4.325,1.293-6.316,1.227-6.872,1.741-9.249,3.527-9.249,2.4,0,3.063,4,4.126,11.658.427,3.074,1.04,7.485,1.735,9.139.751-1.967,1.389-7.587,1.831-11.474,1.182-10.41,1.8-14.052,4.129-14.052,2.351,0,2.935,4.019,4.128,16.432a114.019,114.019,0,0,0,1.742,13.29c.753-2.933,1.351-10.131,1.81-15.634C32.211,17.809,32.779,14,35.093,14s2.884,3.809,4.137,18.818c.46,5.515,1.064,12.73,1.816,15.651a113.113,113.113,0,0,0,1.746-13.31c1.194-12.412,1.777-16.432,4.129-16.432,2.325,0,2.947,3.642,4.129,14.052.442,3.887,1.08,9.507,1.831,11.474.7-1.655,1.309-6.07,1.735-9.139,1.063-7.66,1.731-11.658,4.126-11.658,1.786,0,2.3,2.377,3.528,9.249.355,1.991.844,4.729,1.293,6.316.2-.709.389-1.584.525-2.219.584-2.719,1.086-5.071,2.929-5.071a1.182,1.182,0,0,1,.3,2.326A15.213,15.213,0,0,0,66.4,37.3c-.584,2.721-1.086,5.071-2.929,5.071-1.786,0-2.3-2.377-3.528-9.249-.374-2.088-.891-4.991-1.358-6.54a61.316,61.316,0,0,0-1.628,8.859C55.895,43.1,55.227,47.1,52.832,47.1c-2.325,0-2.947-3.642-4.129-14.052a81.541,81.541,0,0,0-1.739-11.211c-.752,2.49-1.382,9.01-1.816,13.56-1.2,12.412-1.779,16.432-4.132,16.432Z" transform="translate(-9062.636 -9285.632)" fill="#eeac3a"/>
    <path id="Trazado_214364" data-name="Trazado 214364" d="M69.746,31.364H1.182a1.182,1.182,0,0,1,0-2.364H69.746a1.182,1.182,0,1,1,0,2.364Z" transform="translate(-9063 -9282.9)" fill="#43a99b"/>
  </g>
</svg>
