<svg xmlns="http://www.w3.org/2000/svg" xmlns:xlink="http://www.w3.org/1999/xlink" width="935" height="384" viewBox="0 0 935 384">
  <defs>
    <clipPath id="clip-path">
      <rect id="Rectángulo_56732" data-name="Rectángulo 56732" width="819.999" height="383.872" fill="none"/>
    </clipPath>
    <clipPath id="clip-path-3">
      <rect id="Rectángulo_56737" data-name="Rectángulo 56737" width="636.957" height="197.302" fill="none"/>
    </clipPath>
  </defs>
  <g id="Grupo_177308" data-name="Grupo 177308" transform="translate(-19523 8763)">
    <path id="Trazado_226161" data-name="Trazado 226161" d="M0,0H747V286H0Z" transform="translate(19711 -8665)" fill="#fff"/>
    <path id="Trazado_221229" data-name="Trazado 221229" d="M73.557,0,97.8,27.146,73.557,54.288h139.86l24.24-27.142L213.417,0Z" transform="translate(19781.459 -8744.356)" fill="#0b67d1"/>
    <path id="Trazado_221230" data-name="Trazado 221230" d="M123.143,0l24.24,27.146-24.24,27.142H263l24.24-27.142L263,0Z" transform="translate(19878.168 -8744.356)" fill="#43a99b"/>
    <path id="Trazado_221231" data-name="Trazado 221231" d="M172.729,0l24.24,27.146-24.24,27.142h139.86l24.24-27.142L312.589,0Z" transform="translate(19974.875 -8744.356)" fill="#afafaf"/>
    <path id="Trazado_221232" data-name="Trazado 221232" d="M222.315,0l24.24,27.146-24.24,27.142h139.86l24.24-27.142L362.175,0Z" transform="translate(20071.586 -8744.356)" fill="#7fa8bc"/>
    <path id="Trazado_221233" data-name="Trazado 221233" d="M24.08,0V54.288H163.94l24.24-27.142L163.94,0Z" transform="translate(19684.965 -8744.356)" fill="#8c5be1"/>
    <rect id="Rectángulo_56730" data-name="Rectángulo 56730" width="174.85" height="80.846" transform="translate(19523 -8618.91)" fill="#43a99b"/>
    <rect id="Rectángulo_56731" data-name="Rectángulo 56731" width="174.85" height="79.239" transform="translate(19523 -8521.345)" fill="#a98e43"/>
    <line id="Línea_1748" data-name="Línea 1748" x2="7.376" transform="translate(19697.887 -8528.345)" fill="none" stroke="#bcbec0" stroke-miterlimit="10" stroke-width="1"/>
    <path id="Trazado_224632" data-name="Trazado 224632" d="M0,0H719.086" transform="translate(19719.789 -8528.345)" fill="none" stroke="#0b67d1" stroke-width="1" stroke-dasharray="4.924 4.924"/>
    <g id="Grupo_176790" data-name="Grupo 176790" transform="translate(19638 -8763)" clip-path="url(#clip-path)">
      <line id="Línea_1750" data-name="Línea 1750" x2="7.376" transform="translate(808.14 234.655)" fill="none" stroke="#bcbec0" stroke-miterlimit="10" stroke-width="1"/>
    </g>
    <g id="Grupo_176792" data-name="Grupo 176792" transform="translate(19638 -8763)" clip-path="url(#clip-path)">
      <g id="Grupo_176797" data-name="Grupo 176797" transform="translate(123.689 134)">
        <path id="Trazado_221234" data-name="Trazado 221234" d="M5.007,57,131.975,31.948,301.868,61.911,461.737,5.262,611.5,172.536" transform="translate(10.328 10.855)" fill="none" stroke="#a7a9ac" stroke-miterlimit="10" stroke-width="2" stroke-dasharray="3"/>
        <g id="Grupo_176796" data-name="Grupo 176796" transform="translate(0 0)">
          <g id="Grupo_176795" data-name="Grupo 176795" clip-path="url(#clip-path-3)">
            <path id="Trazado_221235" data-name="Trazado 221235" d="M29.917,32.228A14.959,14.959,0,1,1,14.959,17.269,14.958,14.958,0,0,1,29.917,32.228" transform="translate(0 35.624)" fill="#636363"/>
            <path id="Trazado_221236" data-name="Trazado 221236" d="M14.256,24.765H9.815V20.324H7.5v4.441H3.056v2.319H7.5v4.441H9.815V27.084h4.441Z" transform="translate(6.303 41.926)" fill="#fff"/>
            <path id="Trazado_221237" data-name="Trazado 221237" d="M71.117,23.672A14.959,14.959,0,1,1,56.159,8.713,14.96,14.96,0,0,1,71.117,23.672" transform="translate(84.987 17.974)" fill="#8c5be1"/>
            <path id="Trazado_221238" data-name="Trazado 221238" d="M55.456,16.209H51.015V11.768H48.7v4.441H44.255v2.319H48.7v4.441h2.319V18.528h4.441Z" transform="translate(91.29 24.277)" fill="#fff"/>
            <path id="Trazado_221239" data-name="Trazado 221239" d="M127.345,33.455A14.96,14.96,0,1,1,112.387,18.5a14.96,14.96,0,0,1,14.959,14.959" transform="translate(200.968 38.155)" fill="#636363"/>
            <path id="Trazado_221240" data-name="Trazado 221240" d="M111.682,25.992h-4.441V21.551h-2.315v4.441h-4.444v2.319h4.444v4.441h2.315V28.311h4.441Z" transform="translate(207.272 44.457)" fill="#fff"/>
            <path id="Trazado_221241" data-name="Trazado 221241" d="M178.784,14.959A14.959,14.959,0,1,1,163.826,0a14.962,14.962,0,0,1,14.959,14.959" transform="translate(307.082 0.001)" fill="#8c5be1"/>
            <path id="Trazado_221242" data-name="Trazado 221242" d="M163.122,7.5h-4.441V3.056h-2.315V7.5h-4.444V9.815h4.444v4.441h2.315V9.815h4.441Z" transform="translate(313.383 6.304)" fill="#fff"/>
            <path id="Trazado_221243" data-name="Trazado 221243" d="M228.117,69.609A14.96,14.96,0,1,1,213.159,54.65a14.96,14.96,0,0,1,14.959,14.959" transform="translate(408.84 112.733)" fill="#eeac3a"/>
            <rect id="Rectángulo_56736" data-name="Rectángulo 56736" width="11.204" height="2.319" transform="translate(616.396 181.183)" fill="#fff"/>
          </g>
        </g>
      </g>
    </g>
    <path id="Trazado_224633" data-name="Trazado 224633" d="M0,131.625V143H7.625v-1.883H2.344v-3.062h4.5v-1.82h-4.5v-2.712H7.609v-1.9Z" transform="translate(19566 -8724.327)" fill="#fff"/>
    <path id="Trazado_224634" data-name="Trazado 224634" d="M12.07,137.07l1.422-2.523h2.414l-2.406,4.14L16.008,143H13.586l-1.508-2.657L10.578,143H8.148l2.508-4.313-2.4-4.14h2.422Z" transform="translate(19566 -8724.327)" fill="#fff"/>
    <path id="Trazado_224635" data-name="Trazado 224635" d="M24.6,138.852a5.065,5.065,0,0,1-.887,3.129,2.842,2.842,0,0,1-2.394,1.176,2.636,2.636,0,0,1-2.071-.891v3.984H16.992v-11.7h2.094l.078.828a2.655,2.655,0,0,1,2.141-.984,2.865,2.865,0,0,1,2.43,1.156,5.208,5.208,0,0,1,.867,3.188Zm-2.258-.172a3.344,3.344,0,0,0-.418-1.826,1.359,1.359,0,0,0-1.215-.643,1.479,1.479,0,0,0-1.461.815V140.5a1.5,1.5,0,0,0,1.477.839q1.617,0,1.617-2.656" transform="translate(19566 -8724.327)" fill="#fff"/>
    <path id="Trazado_224636" data-name="Trazado 224636" d="M29.891,143.156a4.156,4.156,0,0,1-3.028-1.14,4.059,4.059,0,0,1-1.168-3.039v-.219a5.1,5.1,0,0,1,.493-2.277,3.616,3.616,0,0,1,1.394-1.547,3.907,3.907,0,0,1,2.059-.543,3.508,3.508,0,0,1,2.73,1.093,4.446,4.446,0,0,1,1,3.1v.922H27.985a2.1,2.1,0,0,0,.66,1.328,2,2,0,0,0,1.394.5,2.436,2.436,0,0,0,2.039-.945l1.11,1.242a3.394,3.394,0,0,1-1.375,1.121,4.5,4.5,0,0,1-1.922.4m-.258-6.945a1.411,1.411,0,0,0-1.09.455,2.364,2.364,0,0,0-.535,1.3h3.141v-.181a1.677,1.677,0,0,0-.407-1.165,1.455,1.455,0,0,0-1.109-.412" transform="translate(19566 -8724.327)" fill="#fff"/>
    <path id="Trazado_224637" data-name="Trazado 224637" d="M39.4,136.664a6.062,6.062,0,0,0-.812-.062,1.654,1.654,0,0,0-1.68.867V143H34.648v-8.453h2.133l.062,1.008a2.09,2.09,0,0,1,1.883-1.164,2.384,2.384,0,0,1,.7.1Z" transform="translate(19566 -8724.327)" fill="#fff"/>
    <path id="Trazado_224638" data-name="Trazado 224638" d="M40.469,132.359a1.11,1.11,0,0,1,.34-.836,1.464,1.464,0,0,1,1.847,0,1.193,1.193,0,0,1,0,1.68,1.449,1.449,0,0,1-1.836,0,1.111,1.111,0,0,1-.347-.844M42.867,143H40.6v-8.453h2.266Z" transform="translate(19566 -8724.327)" fill="#fff"/>
    <path id="Trazado_224639" data-name="Trazado 224639" d="M48.617,143.156a4.156,4.156,0,0,1-3.028-1.14,4.059,4.059,0,0,1-1.168-3.039v-.219a5.1,5.1,0,0,1,.493-2.277,3.616,3.616,0,0,1,1.394-1.547,3.907,3.907,0,0,1,2.059-.543,3.508,3.508,0,0,1,2.73,1.093,4.446,4.446,0,0,1,1,3.1v.922H46.711a2.1,2.1,0,0,0,.66,1.328,2,2,0,0,0,1.394.5,2.436,2.436,0,0,0,2.039-.945l1.11,1.242a3.394,3.394,0,0,1-1.375,1.121,4.5,4.5,0,0,1-1.922.4m-.258-6.945a1.411,1.411,0,0,0-1.09.455,2.364,2.364,0,0,0-.535,1.3h3.141v-.181a1.677,1.677,0,0,0-.407-1.165,1.455,1.455,0,0,0-1.109-.412" transform="translate(19566 -8724.327)" fill="#fff"/>
    <path id="Trazado_224640" data-name="Trazado 224640" d="M55.453,134.547l.07.977a2.953,2.953,0,0,1,2.43-1.133,2.45,2.45,0,0,1,2,.789,3.681,3.681,0,0,1,.672,2.359V143H58.367v-5.419a1.469,1.469,0,0,0-.312-1.045,1.4,1.4,0,0,0-1.04-.325,1.554,1.554,0,0,0-1.429.815V143H53.328v-8.453Z" transform="translate(19566 -8724.327)" fill="#fff"/>
    <path id="Trazado_224641" data-name="Trazado 224641" d="M65.852,141.336a1.477,1.477,0,0,0,1.016-.344,1.2,1.2,0,0,0,.406-.914h2.117a2.886,2.886,0,0,1-.469,1.574,3.08,3.08,0,0,1-1.261,1.11,3.961,3.961,0,0,1-1.77.394A3.667,3.667,0,0,1,63.032,142a4.561,4.561,0,0,1-1.047-3.184v-.148a4.506,4.506,0,0,1,1.039-3.117,3.624,3.624,0,0,1,2.851-1.164,3.551,3.551,0,0,1,2.543.9,3.19,3.19,0,0,1,.973,2.4H67.274a1.555,1.555,0,0,0-.406-1.072,1.511,1.511,0,0,0-2.223.163,3.336,3.336,0,0,0-.4,1.866v.235a3.374,3.374,0,0,0,.4,1.878,1.378,1.378,0,0,0,1.211.571" transform="translate(19566 -8724.327)" fill="#fff"/>
    <path id="Trazado_224642" data-name="Trazado 224642" d="M70.664,132.359a1.11,1.11,0,0,1,.34-.836,1.466,1.466,0,0,1,1.848,0,1.2,1.2,0,0,1,0,1.68,1.449,1.449,0,0,1-1.836,0,1.109,1.109,0,0,1-.348-.844M73.063,143H70.8v-8.453h2.266Z" transform="translate(19566 -8724.327)" fill="#fff"/>
    <path id="Trazado_224643" data-name="Trazado 224643" d="M79.82,143a2.517,2.517,0,0,1-.226-.758,2.731,2.731,0,0,1-2.133.915,3,3,0,0,1-2.059-.719,2.313,2.313,0,0,1-.816-1.813,2.389,2.389,0,0,1,1-2.062,4.908,4.908,0,0,1,2.879-.727H79.5v-.484a1.392,1.392,0,0,0-.3-.938,1.183,1.183,0,0,0-.949-.351,1.35,1.35,0,0,0-.895.273.934.934,0,0,0-.324.75H74.773a2.276,2.276,0,0,1,.453-1.359,3.01,3.01,0,0,1,1.282-.981,4.669,4.669,0,0,1,1.859-.355,3.692,3.692,0,0,1,2.481.785,2.747,2.747,0,0,1,.918,2.207v3.664a4.048,4.048,0,0,0,.335,1.82V143Zm-1.867-1.57a1.936,1.936,0,0,0,.922-.223,1.458,1.458,0,0,0,.625-.6v-1.453h-.844q-1.695,0-1.805,1.171l-.007.133a.905.905,0,0,0,.3.7,1.153,1.153,0,0,0,.812.273" transform="translate(19566 -8724.327)" fill="#fff"/>
    <path id="Trazado_224644" data-name="Trazado 224644" d="M88.078,140.664a.728.728,0,0,0-.41-.652,4.624,4.624,0,0,0-1.317-.426q-3.013-.633-3.015-2.563a2.324,2.324,0,0,1,.933-1.879,3.772,3.772,0,0,1,2.442-.753,4.053,4.053,0,0,1,2.574.757,2.387,2.387,0,0,1,.965,1.969H87.992a1.09,1.09,0,0,0-.312-.8A1.322,1.322,0,0,0,86.7,136a1.353,1.353,0,0,0-.883.258.814.814,0,0,0-.312.656.7.7,0,0,0,.355.6,3.65,3.65,0,0,0,1.2.4,9.72,9.72,0,0,1,1.422.379,2.334,2.334,0,0,1,1.789,2.273,2.2,2.2,0,0,1-.992,1.871,4.274,4.274,0,0,1-2.562.715,4.468,4.468,0,0,1-1.887-.379,3.161,3.161,0,0,1-1.293-1.039,2.41,2.41,0,0,1-.469-1.426h2.141a1.182,1.182,0,0,0,.445.922,1.766,1.766,0,0,0,1.11.321,1.634,1.634,0,0,0,.98-.246.766.766,0,0,0,.332-.645" transform="translate(19566 -8724.327)" fill="#fff"/>
    <path id="Trazado_224645" data-name="Trazado 224645" d="M20.927,158.852a5.071,5.071,0,0,1-.887,3.129,2.844,2.844,0,0,1-2.394,1.176,2.633,2.633,0,0,1-2.071-.891v3.984H13.317v-11.7h2.094l.078.828a2.654,2.654,0,0,1,2.141-.984,2.867,2.867,0,0,1,2.43,1.156,5.208,5.208,0,0,1,.867,3.188Zm-2.258-.172a3.352,3.352,0,0,0-.418-1.826,1.36,1.36,0,0,0-1.215-.643,1.478,1.478,0,0,0-1.461.815V160.5a1.5,1.5,0,0,0,1.477.839q1.617,0,1.617-2.656" transform="translate(19566 -8724.327)" fill="#fff"/>
    <path id="Trazado_224646" data-name="Trazado 224646" d="M21.973,158.7a5,5,0,0,1,.485-2.242,3.539,3.539,0,0,1,1.394-1.524,4.072,4.072,0,0,1,2.113-.539,3.848,3.848,0,0,1,2.793,1.047,4.207,4.207,0,0,1,1.207,2.844l.016.578A4.418,4.418,0,0,1,28.9,161.98a3.775,3.775,0,0,1-2.914,1.176,3.8,3.8,0,0,1-2.918-1.172,4.494,4.494,0,0,1-1.09-3.188Zm2.258.16a3.152,3.152,0,0,0,.453,1.843,1.629,1.629,0,0,0,2.578.008,3.461,3.461,0,0,0,.461-2.015,3.13,3.13,0,0,0-.461-1.831,1.5,1.5,0,0,0-1.3-.65,1.472,1.472,0,0,0-1.281.646,3.51,3.51,0,0,0-.453,2" transform="translate(19566 -8724.327)" fill="#fff"/>
    <path id="Trazado_224647" data-name="Trazado 224647" d="M35.95,160.664a.728.728,0,0,0-.41-.652,4.635,4.635,0,0,0-1.317-.426q-3.015-.633-3.015-2.563a2.321,2.321,0,0,1,.933-1.879,3.769,3.769,0,0,1,2.442-.753,4.057,4.057,0,0,1,2.574.757,2.39,2.39,0,0,1,.965,1.969H35.864a1.094,1.094,0,0,0-.312-.8,1.325,1.325,0,0,0-.977-.316,1.349,1.349,0,0,0-.883.258.811.811,0,0,0-.312.656.694.694,0,0,0,.355.6,3.641,3.641,0,0,0,1.2.4,9.72,9.72,0,0,1,1.422.379,2.335,2.335,0,0,1,1.789,2.273,2.2,2.2,0,0,1-.992,1.871,4.276,4.276,0,0,1-2.562.715,4.462,4.462,0,0,1-1.887-.379,3.155,3.155,0,0,1-1.293-1.039,2.41,2.41,0,0,1-.469-1.426h2.141a1.176,1.176,0,0,0,.445.922,1.765,1.765,0,0,0,1.11.321,1.638,1.638,0,0,0,.98-.246.768.768,0,0,0,.332-.645" transform="translate(19566 -8724.327)" fill="#fff"/>
    <path id="Trazado_224648" data-name="Trazado 224648" d="M39.583,152.359a1.11,1.11,0,0,1,.34-.836,1.466,1.466,0,0,1,1.848,0,1.2,1.2,0,0,1,0,1.68,1.449,1.449,0,0,1-1.836,0,1.1,1.1,0,0,1-.348-.844M41.981,163H39.715v-8.453h2.266Z" transform="translate(19566 -8724.327)" fill="#fff"/>
    <path id="Trazado_224649" data-name="Trazado 224649" d="M46.544,152.469v2.078h1.445V156.2H46.544v4.219a1.007,1.007,0,0,0,.18.672.9.9,0,0,0,.687.2,3.554,3.554,0,0,0,.664-.055v1.711a4.629,4.629,0,0,1-1.367.2,2.156,2.156,0,0,1-2.422-2.4V156.2H43.052v-1.656h1.234v-2.078Z" transform="translate(19566 -8724.327)" fill="#fff"/>
    <path id="Trazado_224650" data-name="Trazado 224650" d="M49.231,152.359a1.114,1.114,0,0,1,.34-.836,1.466,1.466,0,0,1,1.848,0,1.193,1.193,0,0,1,0,1.68,1.449,1.449,0,0,1-1.836,0,1.109,1.109,0,0,1-.348-.844M51.63,163H49.364v-8.453H51.63Z" transform="translate(19566 -8724.327)" fill="#fff"/>
    <path id="Trazado_224651" data-name="Trazado 224651" d="M56.653,160.242l1.57-5.695h2.36L57.731,163H55.575l-2.852-8.453h2.36Z" transform="translate(19566 -8724.327)" fill="#fff"/>
    <path id="Trazado_224652" data-name="Trazado 224652" d="M66.356,163a2.489,2.489,0,0,1-.226-.758,2.731,2.731,0,0,1-2.133.915,3,3,0,0,1-2.059-.719,2.31,2.31,0,0,1-.816-1.813,2.389,2.389,0,0,1,1-2.062A4.906,4.906,0,0,1,65,157.836h1.039v-.484a1.4,1.4,0,0,0-.3-.938,1.185,1.185,0,0,0-.949-.351,1.346,1.346,0,0,0-.9.273.931.931,0,0,0-.324.75H61.309a2.269,2.269,0,0,1,.453-1.359,3,3,0,0,1,1.282-.981,4.665,4.665,0,0,1,1.859-.355,3.7,3.7,0,0,1,2.481.785,2.75,2.75,0,0,1,.918,2.207v3.664a4.034,4.034,0,0,0,.335,1.82V163Zm-1.867-1.57a1.939,1.939,0,0,0,.922-.223,1.463,1.463,0,0,0,.625-.6v-1.453h-.844q-1.7,0-1.805,1.171l-.007.133a.9.9,0,0,0,.3.7,1.151,1.151,0,0,0,.812.273" transform="translate(19566 -8724.327)" fill="#fff"/>
    <path id="Trazado_224653" data-name="Trazado 224653" d="M74.614,160.664a.728.728,0,0,0-.41-.652,4.635,4.635,0,0,0-1.317-.426q-3.015-.633-3.015-2.563a2.321,2.321,0,0,1,.933-1.879,3.769,3.769,0,0,1,2.442-.753,4.057,4.057,0,0,1,2.574.757,2.39,2.39,0,0,1,.965,1.969H74.528a1.094,1.094,0,0,0-.312-.8,1.325,1.325,0,0,0-.977-.316,1.349,1.349,0,0,0-.883.258.811.811,0,0,0-.312.656.694.694,0,0,0,.355.6,3.641,3.641,0,0,0,1.2.4,9.72,9.72,0,0,1,1.422.379,2.335,2.335,0,0,1,1.789,2.273,2.2,2.2,0,0,1-.992,1.871,4.276,4.276,0,0,1-2.562.715,4.462,4.462,0,0,1-1.887-.379,3.155,3.155,0,0,1-1.293-1.039,2.41,2.41,0,0,1-.469-1.426h2.141a1.175,1.175,0,0,0,.445.922,1.765,1.765,0,0,0,1.11.321,1.638,1.638,0,0,0,.98-.246.768.768,0,0,0,.332-.645" transform="translate(19566 -8724.327)" fill="#fff"/>
    <path id="Trazado_226162" data-name="Trazado 226162" d="M0,0H839.814V261.35H0Z" transform="translate(19566 -8724.327)" fill="none"/>
    <path id="Trazado_224654" data-name="Trazado 224654" d="M168.095,6.742h-4.93v4.031h5.727V12h-7.227V.625h7.149V1.851h-5.649V5.515h4.93Z" transform="translate(19566 -8724.327)" fill="#fff"/>
    <path id="Trazado_224655" data-name="Trazado 224655" d="M171.9,3.547l.047,1.062a3.079,3.079,0,0,1,2.531-1.218q2.679,0,2.7,3.023V12h-1.445V6.406a1.947,1.947,0,0,0-.418-1.351,1.673,1.673,0,0,0-1.277-.438,2.089,2.089,0,0,0-1.235.375,2.545,2.545,0,0,0-.828.985V12h-1.445V3.547Z" transform="translate(19566 -8724.327)" fill="#fff"/>
    <path id="Trazado_224656" data-name="Trazado 224656" d="M181.321,1.5V3.547H182.9V4.664h-1.578V9.913a1.173,1.173,0,0,0,.211.763.89.89,0,0,0,.719.254,3.538,3.538,0,0,0,.687-.094V12a4.234,4.234,0,0,1-1.109.155,1.8,1.8,0,0,1-1.461-.586,2.516,2.516,0,0,1-.492-1.664V4.664h-1.539V3.547h1.539V1.5Z" transform="translate(19566 -8724.327)" fill="#fff"/>
    <path id="Trazado_224657" data-name="Trazado 224657" d="M188.673,4.844a4.386,4.386,0,0,0-.711-.055A1.906,1.906,0,0,0,186.032,6v6h-1.445V3.547h1.406l.024.977a2.249,2.249,0,0,1,2.015-1.133,1.476,1.476,0,0,1,.641.109Z" transform="translate(19566 -8724.327)" fill="#fff"/>
    <path id="Trazado_224658" data-name="Trazado 224658" d="M194.907,12a3.052,3.052,0,0,1-.2-.891,3.223,3.223,0,0,1-2.406,1.047,2.987,2.987,0,0,1-2.051-.707,2.29,2.29,0,0,1-.8-1.793,2.391,2.391,0,0,1,1-2.051,4.734,4.734,0,0,1,2.825-.73h1.406V6.211A1.627,1.627,0,0,0,194.228,5a1.822,1.822,0,0,0-1.336-.449,2.1,2.1,0,0,0-1.3.391,1.15,1.15,0,0,0-.523.945h-1.454a1.99,1.99,0,0,1,.45-1.222,3.06,3.06,0,0,1,1.218-.934,4.088,4.088,0,0,1,1.692-.344,3.338,3.338,0,0,1,2.289.731,2.631,2.631,0,0,1,.859,2.011v3.891a4.756,4.756,0,0,0,.3,1.852V12Zm-2.4-1.1a2.534,2.534,0,0,0,1.289-.352,2.13,2.13,0,0,0,.883-.914V7.9h-1.133q-2.655,0-2.656,1.555a1.315,1.315,0,0,0,.453,1.062,1.742,1.742,0,0,0,1.164.383" transform="translate(19566 -8724.327)" fill="#fff"/>
    <path id="Trazado_224659" data-name="Trazado 224659" d="M198.04,7.7a4.949,4.949,0,0,1,.922-3.129,3.135,3.135,0,0,1,4.765-.168V0h1.445V12h-1.328l-.07-.906a2.944,2.944,0,0,1-2.414,1.062,2.889,2.889,0,0,1-2.4-1.2,5.009,5.009,0,0,1-.925-3.141Zm1.445.164a3.75,3.75,0,0,0,.594,2.25,1.917,1.917,0,0,0,1.64.813,2.109,2.109,0,0,0,2.008-1.235V5.812a2.123,2.123,0,0,0-1.992-1.195,1.927,1.927,0,0,0-1.656.82,4.128,4.128,0,0,0-.594,2.43" transform="translate(19566 -8724.327)" fill="#fff"/>
    <path id="Trazado_224660" data-name="Trazado 224660" d="M212.633,12a3.052,3.052,0,0,1-.2-.891,3.223,3.223,0,0,1-2.406,1.047,2.987,2.987,0,0,1-2.051-.707,2.29,2.29,0,0,1-.8-1.793,2.391,2.391,0,0,1,1-2.051A4.734,4.734,0,0,1,211,6.875h1.406V6.211A1.627,1.627,0,0,0,211.954,5a1.822,1.822,0,0,0-1.336-.449,2.1,2.1,0,0,0-1.3.391,1.15,1.15,0,0,0-.523.945h-1.454a1.99,1.99,0,0,1,.45-1.222,3.06,3.06,0,0,1,1.218-.934A4.088,4.088,0,0,1,210.7,3.39a3.338,3.338,0,0,1,2.289.731,2.631,2.631,0,0,1,.859,2.011v3.891a4.756,4.756,0,0,0,.3,1.852V12Zm-2.4-1.1a2.534,2.534,0,0,0,1.289-.352,2.13,2.13,0,0,0,.883-.914V7.9h-1.133q-2.655,0-2.656,1.555a1.315,1.315,0,0,0,.453,1.062,1.742,1.742,0,0,0,1.164.383" transform="translate(19566 -8724.327)" fill="#fff"/>
    <path id="Trazado_224661" data-name="Trazado 224661" d="M225.3,12a3.052,3.052,0,0,1-.2-.891,3.223,3.223,0,0,1-2.406,1.047,2.987,2.987,0,0,1-2.051-.707,2.29,2.29,0,0,1-.8-1.793,2.391,2.391,0,0,1,1-2.051,4.734,4.734,0,0,1,2.825-.73h1.406V6.211A1.627,1.627,0,0,0,224.618,5a1.822,1.822,0,0,0-1.336-.449,2.1,2.1,0,0,0-1.3.391,1.15,1.15,0,0,0-.523.945h-1.454a1.99,1.99,0,0,1,.45-1.222,3.06,3.06,0,0,1,1.218-.934,4.088,4.088,0,0,1,1.692-.344,3.338,3.338,0,0,1,2.289.731,2.631,2.631,0,0,1,.859,2.011v3.891a4.756,4.756,0,0,0,.3,1.852V12Zm-2.4-1.1a2.534,2.534,0,0,0,1.289-.352,2.13,2.13,0,0,0,.883-.914V7.9h-1.133q-2.655,0-2.656,1.555a1.315,1.315,0,0,0,.453,1.062,1.742,1.742,0,0,0,1.164.383" transform="translate(19566 -8724.327)" fill="#fff"/>
    <path id="Trazado_226163" data-name="Trazado 226163" d="M0,0H1.445V12H0Z" transform="translate(19794.908 -8724.327)" fill="#fff"/>
    <path id="Trazado_226164" data-name="Trazado 226164" d="M0,0H1.445V12H0Z" transform="translate(19802.752 -8724.327)" fill="#fff"/>
    <path id="Trazado_224662" data-name="Trazado 224662" d="M240.126,7.7a5,5,0,0,1,.488-2.234,3.64,3.64,0,0,1,1.36-1.532,3.7,3.7,0,0,1,1.988-.539,3.565,3.565,0,0,1,2.793,1.2,4.6,4.6,0,0,1,1.066,3.179v.1a5.036,5.036,0,0,1-.472,2.215A3.6,3.6,0,0,1,246,11.609a3.748,3.748,0,0,1-2.02.547,3.556,3.556,0,0,1-2.785-1.195A4.576,4.576,0,0,1,240.126,7.8Zm1.453.172a3.624,3.624,0,0,0,.652,2.258,2.211,2.211,0,0,0,3.5-.012,3.95,3.95,0,0,0,.649-2.418,3.61,3.61,0,0,0-.66-2.254,2.1,2.1,0,0,0-1.754-.863,2.078,2.078,0,0,0-1.727.851,3.929,3.929,0,0,0-.656,2.438" transform="translate(19566 -8724.327)" fill="#fff"/>
    <path id="Trazado_224663" data-name="Trazado 224663" d="M253.024,10.977a2.081,2.081,0,0,0,1.352-.469,1.65,1.65,0,0,0,.64-1.172h1.367a2.612,2.612,0,0,1-.5,1.383,3.29,3.29,0,0,1-1.23,1.047,3.544,3.544,0,0,1-1.629.391A3.481,3.481,0,0,1,250.278,11a4.588,4.588,0,0,1-1.02-3.152V7.61a5.1,5.1,0,0,1,.453-2.2,3.457,3.457,0,0,1,1.3-1.493,3.7,3.7,0,0,1,2-.531,3.387,3.387,0,0,1,2.363.852,3.041,3.041,0,0,1,1,2.211h-1.367a1.994,1.994,0,0,0-.621-1.348,1.929,1.929,0,0,0-1.379-.527,2.022,2.022,0,0,0-1.707.793,3.726,3.726,0,0,0-.605,2.292v.274a3.65,3.65,0,0,0,.6,2.25,2.034,2.034,0,0,0,1.719.789" transform="translate(19566 -8724.327)" fill="#fff"/>
    <path id="Trazado_224664" data-name="Trazado 224664" d="M263.227,12a3.053,3.053,0,0,1-.2-.891,3.223,3.223,0,0,1-2.406,1.047,2.987,2.987,0,0,1-2.051-.707,2.29,2.29,0,0,1-.8-1.793,2.391,2.391,0,0,1,1-2.051,4.734,4.734,0,0,1,2.825-.73H263V6.211A1.627,1.627,0,0,0,262.548,5a1.822,1.822,0,0,0-1.336-.449,2.1,2.1,0,0,0-1.3.391,1.15,1.15,0,0,0-.523.945h-1.454a1.99,1.99,0,0,1,.45-1.222,3.06,3.06,0,0,1,1.218-.934A4.088,4.088,0,0,1,261.3,3.39a3.338,3.338,0,0,1,2.289.731,2.631,2.631,0,0,1,.859,2.011v3.891a4.756,4.756,0,0,0,.3,1.852V12Zm-2.4-1.1a2.534,2.534,0,0,0,1.289-.352A2.131,2.131,0,0,0,263,9.632V7.9h-1.133q-2.655,0-2.656,1.555a1.315,1.315,0,0,0,.453,1.062,1.742,1.742,0,0,0,1.164.383" transform="translate(19566 -8724.327)" fill="#fff"/>
    <path id="Trazado_226165" data-name="Trazado 226165" d="M0,0H1.445V12H0Z" transform="translate(19832.838 -8724.327)" fill="#fff"/>
    <path id="Trazado_226166" data-name="Trazado 226166" d="M0,0H839.814V261.35H0Z" transform="translate(19566 -8724.327)" fill="none"/>
    <path id="Trazado_224665" data-name="Trazado 224665" d="M350,9.024h-4.764L344.165,12h-1.547L346.961.625h1.314L352.625,12h-1.539ZM345.689,7.8h3.866l-1.937-5.32Z" transform="translate(19566 -8724.327)" fill="#fff"/>
    <path id="Trazado_224666" data-name="Trazado 224666" d="M355.759,1.5V3.547h1.578V4.664h-1.578V9.913a1.173,1.173,0,0,0,.211.763.89.89,0,0,0,.719.254,3.538,3.538,0,0,0,.687-.094V12a4.234,4.234,0,0,1-1.109.155,1.8,1.8,0,0,1-1.461-.586,2.516,2.516,0,0,1-.492-1.664V4.664h-1.539V3.547h1.539V1.5Z" transform="translate(19566 -8724.327)" fill="#fff"/>
    <path id="Trazado_224667" data-name="Trazado 224667" d="M362.533,12.156a3.691,3.691,0,0,1-2.8-1.129,4.185,4.185,0,0,1-1.078-3.019V7.742a5.089,5.089,0,0,1,.479-2.246,3.742,3.742,0,0,1,1.345-1.547,3.374,3.374,0,0,1,1.871-.558,3.168,3.168,0,0,1,2.562,1.085,4.7,4.7,0,0,1,.914,3.11v.6H360.1a3.012,3.012,0,0,0,.729,2.02,2.3,2.3,0,0,0,1.779.769,2.527,2.527,0,0,0,1.3-.312,3.224,3.224,0,0,0,.928-.828l.883.687a3.546,3.546,0,0,1-3.186,1.633m-.18-7.578a1.93,1.93,0,0,0-1.47.637A3.1,3.1,0,0,0,360.15,7h4.233V6.891a2.746,2.746,0,0,0-.594-1.708,1.815,1.815,0,0,0-1.436-.605" transform="translate(19566 -8724.327)" fill="#fff"/>
    <path id="Trazado_224668" data-name="Trazado 224668" d="M368.868,3.547l.047,1.062a3.079,3.079,0,0,1,2.531-1.218q2.679,0,2.7,3.023V12H372.7V6.406a1.947,1.947,0,0,0-.418-1.351,1.673,1.673,0,0,0-1.277-.438,2.089,2.089,0,0,0-1.235.375,2.545,2.545,0,0,0-.828.985V12H367.5V3.547Z" transform="translate(19566 -8724.327)" fill="#fff"/>
    <path id="Trazado_224669" data-name="Trazado 224669" d="M379.72,10.977a2.081,2.081,0,0,0,1.352-.469,1.65,1.65,0,0,0,.64-1.172h1.367a2.612,2.612,0,0,1-.5,1.383,3.291,3.291,0,0,1-1.23,1.047,3.544,3.544,0,0,1-1.629.391A3.481,3.481,0,0,1,376.974,11a4.588,4.588,0,0,1-1.02-3.152V7.61a5.1,5.1,0,0,1,.453-2.2,3.457,3.457,0,0,1,1.3-1.493,3.7,3.7,0,0,1,2-.531,3.387,3.387,0,0,1,2.363.852,3.041,3.041,0,0,1,1,2.211h-1.367a1.994,1.994,0,0,0-.621-1.348,1.929,1.929,0,0,0-1.379-.527,2.022,2.022,0,0,0-1.707.793,3.726,3.726,0,0,0-.605,2.292v.274a3.65,3.65,0,0,0,.6,2.25,2.034,2.034,0,0,0,1.719.789" transform="translate(19566 -8724.327)" fill="#fff"/>
    <path id="Trazado_224670" data-name="Trazado 224670" d="M384.712,1.3a.858.858,0,0,1,.215-.594.807.807,0,0,1,.636-.242.819.819,0,0,1,.641.242.852.852,0,0,1,.219.594.827.827,0,0,1-.219.586.833.833,0,0,1-.641.234.82.82,0,0,1-.636-.234.833.833,0,0,1-.215-.586M386.274,12h-1.445V3.547h1.445Z" transform="translate(19566 -8724.327)" fill="#fff"/>
    <path id="Trazado_224671" data-name="Trazado 224671" d="M388.2,7.7a5,5,0,0,1,.488-2.235,3.636,3.636,0,0,1,1.359-1.531,3.709,3.709,0,0,1,1.989-.539,3.564,3.564,0,0,1,2.793,1.195,4.6,4.6,0,0,1,1.066,3.18v.1a5.018,5.018,0,0,1-.473,2.214,3.589,3.589,0,0,1-1.351,1.528,3.748,3.748,0,0,1-2.02.547,3.557,3.557,0,0,1-2.785-1.2A4.574,4.574,0,0,1,388.2,7.8Zm1.453.172a3.619,3.619,0,0,0,.652,2.257,2.21,2.21,0,0,0,3.5-.011,3.952,3.952,0,0,0,.649-2.418,3.61,3.61,0,0,0-.66-2.254,2.1,2.1,0,0,0-1.754-.864,2.079,2.079,0,0,0-1.727.852,3.927,3.927,0,0,0-.656,2.438M392.7.016h1.75l-2.094,2.3-1.164,0Z" transform="translate(19566 -8724.327)" fill="#fff"/>
    <path id="Trazado_224672" data-name="Trazado 224672" d="M399.079,3.547l.047,1.062a3.079,3.079,0,0,1,2.531-1.218q2.679,0,2.7,3.023V12h-1.445V6.406a1.947,1.947,0,0,0-.418-1.351,1.673,1.673,0,0,0-1.277-.438,2.089,2.089,0,0,0-1.235.375,2.545,2.545,0,0,0-.828.985V12h-1.445V3.547Z" transform="translate(19566 -8724.327)" fill="#fff"/>
    <path id="Trazado_224673" data-name="Trazado 224673" d="M510.185,8.391a4.187,4.187,0,0,1-1.332,2.785,4.37,4.37,0,0,1-2.98.981,4.008,4.008,0,0,1-3.231-1.446,5.81,5.81,0,0,1-1.215-3.867V5.75a6.476,6.476,0,0,1,.567-2.789A4.225,4.225,0,0,1,503.6,1.114a4.464,4.464,0,0,1,2.406-.645,4.112,4.112,0,0,1,2.907,1.012,4.242,4.242,0,0,1,1.273,2.8h-1.508a3.275,3.275,0,0,0-.847-1.975,2.569,2.569,0,0,0-1.825-.611,2.682,2.682,0,0,0-2.254,1.063,4.879,4.879,0,0,0-.816,3.027v1.1a5.02,5.02,0,0,0,.773,2.948,2.5,2.5,0,0,0,2.165,1.1,2.882,2.882,0,0,0,1.917-.566,3.144,3.144,0,0,0,.887-1.973Z" transform="translate(19566 -8724.327)" fill="#fff"/>
    <path id="Trazado_224674" data-name="Trazado 224674" d="M517.223,12a3.018,3.018,0,0,1-.2-.891,3.225,3.225,0,0,1-2.406,1.047,2.984,2.984,0,0,1-2.051-.707,2.29,2.29,0,0,1-.8-1.793,2.389,2.389,0,0,1,1-2.051,4.734,4.734,0,0,1,2.825-.73H517V6.211A1.627,1.627,0,0,0,516.544,5a1.825,1.825,0,0,0-1.336-.449,2.1,2.1,0,0,0-1.3.391,1.148,1.148,0,0,0-.523.945h-1.454a1.99,1.99,0,0,1,.45-1.222,3.046,3.046,0,0,1,1.218-.934,4.088,4.088,0,0,1,1.692-.344,3.34,3.34,0,0,1,2.289.731,2.634,2.634,0,0,1,.859,2.011v3.891a4.756,4.756,0,0,0,.3,1.852V12Zm-2.4-1.1a2.534,2.534,0,0,0,1.289-.352A2.13,2.13,0,0,0,517,9.632V7.9h-1.133q-2.656,0-2.656,1.555a1.312,1.312,0,0,0,.453,1.062,1.741,1.741,0,0,0,1.164.383" transform="translate(19566 -8724.327)" fill="#fff"/>
    <path id="Trazado_224675" data-name="Trazado 224675" d="M524.794,4.844a4.386,4.386,0,0,0-.711-.055A1.9,1.9,0,0,0,522.153,6v6h-1.445V3.547h1.406l.024.977a2.249,2.249,0,0,1,2.015-1.133,1.476,1.476,0,0,1,.641.109Z" transform="translate(19566 -8724.327)" fill="#fff"/>
    <path id="Trazado_224676" data-name="Trazado 224676" d="M528.474,1.5V3.547h1.578V4.664h-1.578V9.913a1.173,1.173,0,0,0,.211.763.89.89,0,0,0,.719.254,3.548,3.548,0,0,0,.687-.094V12a4.24,4.24,0,0,1-1.109.155,1.8,1.8,0,0,1-1.461-.586,2.516,2.516,0,0,1-.492-1.664V4.664H525.49V3.547h1.539V1.5Z" transform="translate(19566 -8724.327)" fill="#fff"/>
    <path id="Trazado_224677" data-name="Trazado 224677" d="M536.958,12a3.02,3.02,0,0,1-.2-.891,3.225,3.225,0,0,1-2.406,1.047,2.984,2.984,0,0,1-2.051-.707,2.29,2.29,0,0,1-.8-1.793,2.389,2.389,0,0,1,1-2.051,4.734,4.734,0,0,1,2.825-.73h1.406V6.211A1.627,1.627,0,0,0,536.279,5a1.825,1.825,0,0,0-1.336-.449,2.1,2.1,0,0,0-1.3.391,1.148,1.148,0,0,0-.523.945h-1.454a1.99,1.99,0,0,1,.45-1.222,3.045,3.045,0,0,1,1.218-.934,4.088,4.088,0,0,1,1.692-.344,3.34,3.34,0,0,1,2.289.731,2.634,2.634,0,0,1,.859,2.011v3.891a4.756,4.756,0,0,0,.3,1.852V12Zm-2.4-1.1a2.534,2.534,0,0,0,1.289-.352,2.13,2.13,0,0,0,.883-.914V7.9H535.6q-2.656,0-2.656,1.555a1.312,1.312,0,0,0,.453,1.062,1.741,1.741,0,0,0,1.164.383" transform="translate(19566 -8724.327)" fill="#fff"/>
    <path id="Trazado_224678" data-name="Trazado 224678" d="M651.575,7.547V12h-1.5V.625h4.2a4.213,4.213,0,0,1,2.926.953A3.23,3.23,0,0,1,658.255,4.1a3.189,3.189,0,0,1-1.035,2.551,4.4,4.4,0,0,1-2.965.895Zm0-1.227h2.7a2.7,2.7,0,0,0,1.844-.567,2.075,2.075,0,0,0,.641-1.64,2.145,2.145,0,0,0-.641-1.628,2.526,2.526,0,0,0-1.758-.634h-2.781Z" transform="translate(19566 -8724.327)" fill="#fff"/>
    <path id="Trazado_224679" data-name="Trazado 224679" d="M659.458,7.7a5,5,0,0,1,.488-2.234,3.64,3.64,0,0,1,1.36-1.532,3.7,3.7,0,0,1,1.988-.539,3.565,3.565,0,0,1,2.793,1.2,4.6,4.6,0,0,1,1.066,3.179v.1a5.037,5.037,0,0,1-.472,2.215,3.6,3.6,0,0,1-1.352,1.527,3.748,3.748,0,0,1-2.02.547,3.556,3.556,0,0,1-2.785-1.195A4.576,4.576,0,0,1,659.458,7.8Zm1.453.172a3.624,3.624,0,0,0,.652,2.258,2.211,2.211,0,0,0,3.5-.012,3.95,3.95,0,0,0,.649-2.418,3.61,3.61,0,0,0-.66-2.254,2.1,2.1,0,0,0-1.754-.863,2.078,2.078,0,0,0-1.727.851,3.929,3.929,0,0,0-.656,2.438" transform="translate(19566 -8724.327)" fill="#fff"/>
    <path id="Trazado_224680" data-name="Trazado 224680" d="M673.888,9.758a1.063,1.063,0,0,0-.441-.91,4.268,4.268,0,0,0-1.539-.559,7.266,7.266,0,0,1-1.743-.562,2.49,2.49,0,0,1-.953-.782,1.863,1.863,0,0,1-.308-1.078,2.192,2.192,0,0,1,.879-1.757,3.425,3.425,0,0,1,2.246-.719,3.533,3.533,0,0,1,2.332.742,2.359,2.359,0,0,1,.894,1.9H673.8a1.3,1.3,0,0,0-.5-1.023,1.89,1.89,0,0,0-1.269-.43,1.977,1.977,0,0,0-1.235.344,1.081,1.081,0,0,0-.445.9.878.878,0,0,0,.414.79,5.109,5.109,0,0,0,1.5.507,7.863,7.863,0,0,1,1.754.578,2.558,2.558,0,0,1,1,.809,1.99,1.99,0,0,1,.324,1.152,2.163,2.163,0,0,1-.906,1.817,3.8,3.8,0,0,1-2.351.683,4.264,4.264,0,0,1-1.8-.359,2.914,2.914,0,0,1-1.223-1,2.42,2.42,0,0,1-.441-1.394h1.445a1.5,1.5,0,0,0,.582,1.152,2.258,2.258,0,0,0,1.434.426,2.335,2.335,0,0,0,1.316-.332,1.021,1.021,0,0,0,.5-.887" transform="translate(19566 -8724.327)" fill="#fff"/>
    <path id="Trazado_224681" data-name="Trazado 224681" d="M679.177,1.5V3.547h1.578V4.664h-1.578V9.913a1.173,1.173,0,0,0,.211.763.89.89,0,0,0,.719.254,3.538,3.538,0,0,0,.687-.094V12a4.234,4.234,0,0,1-1.109.155,1.8,1.8,0,0,1-1.461-.586,2.516,2.516,0,0,1-.492-1.664V4.664h-1.539V3.547h1.539V1.5Z" transform="translate(19566 -8724.327)" fill="#fff"/>
    <path id="Trazado_224682" data-name="Trazado 224682" d="M686.528,4.844a4.386,4.386,0,0,0-.711-.055A1.906,1.906,0,0,0,683.887,6v6h-1.445V3.547h1.406l.024.977a2.249,2.249,0,0,1,2.015-1.133,1.476,1.476,0,0,1,.641.109Z" transform="translate(19566 -8724.327)" fill="#fff"/>
    <path id="Trazado_224683" data-name="Trazado 224683" d="M691.216,12.156a3.692,3.692,0,0,1-2.8-1.129,4.189,4.189,0,0,1-1.078-3.019V7.742a5.075,5.075,0,0,1,.48-2.246,3.747,3.747,0,0,1,1.344-1.547,3.379,3.379,0,0,1,1.871-.558A3.17,3.17,0,0,1,693.6,4.476a4.706,4.706,0,0,1,.914,3.11v.6h-5.727a3.013,3.013,0,0,0,.73,2.02,2.3,2.3,0,0,0,1.778.769,2.522,2.522,0,0,0,1.3-.312,3.241,3.241,0,0,0,.929-.828l.883.687a3.547,3.547,0,0,1-3.187,1.633m-.18-7.578a1.928,1.928,0,0,0-1.469.637A3.1,3.1,0,0,0,688.833,7h4.234V6.891a2.752,2.752,0,0,0-.594-1.708,1.816,1.816,0,0,0-1.437-.605" transform="translate(19566 -8724.327)" fill="#fff"/>
    <path id="Trazado_224684" data-name="Trazado 224684" d="M798.135,7.547V12h-1.5V.625h4.2a4.216,4.216,0,0,1,2.926.953A3.234,3.234,0,0,1,804.815,4.1a3.192,3.192,0,0,1-1.035,2.551,4.407,4.407,0,0,1-2.965.895Zm0-1.227h2.7a2.7,2.7,0,0,0,1.844-.567,2.079,2.079,0,0,0,.641-1.64,2.149,2.149,0,0,0-.641-1.628,2.53,2.53,0,0,0-1.758-.634h-2.781Z" transform="translate(19566 -8724.327)" fill="#fff"/>
    <path id="Trazado_224685" data-name="Trazado 224685" d="M810.588,4.844a4.395,4.395,0,0,0-.711-.055A1.9,1.9,0,0,0,807.947,6v6H806.5V3.547h1.406l.024.977a2.247,2.247,0,0,1,2.015-1.133,1.476,1.476,0,0,1,.641.109Z" transform="translate(19566 -8724.327)" fill="#fff"/>
    <path id="Trazado_224686" data-name="Trazado 224686" d="M815.276,12.156a3.691,3.691,0,0,1-2.8-1.129A4.189,4.189,0,0,1,811.4,8.008V7.742a5.075,5.075,0,0,1,.48-2.246,3.74,3.74,0,0,1,1.344-1.547,3.377,3.377,0,0,1,1.871-.558,3.171,3.171,0,0,1,2.563,1.085,4.706,4.706,0,0,1,.914,3.11v.6h-5.727a3,3,0,0,0,.73,2.02,2.3,2.3,0,0,0,1.778.769,2.527,2.527,0,0,0,1.3-.312,3.254,3.254,0,0,0,.929-.828l.883.687a3.549,3.549,0,0,1-3.187,1.633m-.18-7.578a1.925,1.925,0,0,0-1.469.637A3.1,3.1,0,0,0,812.893,7h4.234V6.891a2.764,2.764,0,0,0-.594-1.708,1.817,1.817,0,0,0-1.437-.605" transform="translate(19566 -8724.327)" fill="#fff"/>
    <path id="Trazado_224687" data-name="Trazado 224687" d="M823.635,10.977a2.083,2.083,0,0,0,1.352-.469,1.657,1.657,0,0,0,.64-1.172h1.367a2.629,2.629,0,0,1-.5,1.383,3.306,3.306,0,0,1-1.23,1.047,3.549,3.549,0,0,1-1.629.391A3.479,3.479,0,0,1,820.889,11a4.588,4.588,0,0,1-1.02-3.152V7.61a5.087,5.087,0,0,1,.453-2.2,3.444,3.444,0,0,1,1.3-1.493,3.7,3.7,0,0,1,2-.531,3.391,3.391,0,0,1,2.363.852,3.048,3.048,0,0,1,1,2.211h-1.367a2,2,0,0,0-.621-1.348,1.931,1.931,0,0,0-1.379-.527,2.022,2.022,0,0,0-1.707.793,3.719,3.719,0,0,0-.6,2.292v.274a3.643,3.643,0,0,0,.6,2.25,2.032,2.032,0,0,0,1.719.789" transform="translate(19566 -8724.327)" fill="#fff"/>
    <path id="Trazado_224688" data-name="Trazado 224688" d="M828.627,1.3a.854.854,0,0,1,.215-.594.806.806,0,0,1,.637-.242.82.82,0,0,1,.64.242.857.857,0,0,1,.219.594.832.832,0,0,1-.219.586.834.834,0,0,1-.64.234.82.82,0,0,1-.637-.234.829.829,0,0,1-.215-.586M830.189,12h-1.445V3.547h1.445Z" transform="translate(19566 -8724.327)" fill="#fff"/>
    <path id="Trazado_224689" data-name="Trazado 224689" d="M832.119,7.7a4.984,4.984,0,0,1,.488-2.234,3.634,3.634,0,0,1,1.36-1.532,3.7,3.7,0,0,1,1.988-.539,3.567,3.567,0,0,1,2.793,1.2,4.6,4.6,0,0,1,1.066,3.179v.1a5.05,5.05,0,0,1-.472,2.215,3.6,3.6,0,0,1-1.352,1.527,3.751,3.751,0,0,1-2.02.547,3.555,3.555,0,0,1-2.785-1.195A4.576,4.576,0,0,1,832.119,7.8Zm1.453.172a3.618,3.618,0,0,0,.652,2.258,2.211,2.211,0,0,0,3.5-.012,3.956,3.956,0,0,0,.649-2.418,3.616,3.616,0,0,0-.66-2.254,2.1,2.1,0,0,0-1.754-.863,2.076,2.076,0,0,0-1.727.851,3.929,3.929,0,0,0-.656,2.438" transform="translate(19566 -8724.327)" fill="#fff"/>
    <path id="Trazado_226167" data-name="Trazado 226167" d="M0,0H839.814V261.35H0Z" transform="translate(19566 -8724.327)" fill="none"/>
    <path id="Trazado_224690" data-name="Trazado 224690" d="M0,226.647v11.375H7.625v-1.883H2.344v-3.062h4.5v-1.82h-4.5v-2.712H7.609v-1.9Z" transform="translate(19566 -8724.327)" fill="#fff"/>
    <path id="Trazado_224691" data-name="Trazado 224691" d="M12.07,232.092l1.422-2.523h2.414l-2.406,4.14,2.508,4.313H13.586l-1.508-2.657-1.5,2.657H8.148l2.508-4.313-2.4-4.14h2.422Z" transform="translate(19566 -8724.327)" fill="#fff"/>
    <path id="Trazado_224692" data-name="Trazado 224692" d="M24.6,233.874A5.065,5.065,0,0,1,23.715,237a2.842,2.842,0,0,1-2.394,1.176,2.636,2.636,0,0,1-2.071-.891v3.984H16.992v-11.7h2.094l.078.828a2.655,2.655,0,0,1,2.141-.984,2.866,2.866,0,0,1,2.43,1.156,5.208,5.208,0,0,1,.867,3.188Zm-2.258-.172a3.344,3.344,0,0,0-.418-1.826,1.359,1.359,0,0,0-1.215-.643,1.479,1.479,0,0,0-1.461.815v3.471a1.5,1.5,0,0,0,1.477.839q1.617,0,1.617-2.656" transform="translate(19566 -8724.327)" fill="#fff"/>
    <path id="Trazado_224693" data-name="Trazado 224693" d="M29.891,238.178a4.156,4.156,0,0,1-3.028-1.14A4.059,4.059,0,0,1,25.695,234v-.219a5.1,5.1,0,0,1,.493-2.277,3.616,3.616,0,0,1,1.394-1.547,3.907,3.907,0,0,1,2.059-.543,3.507,3.507,0,0,1,2.73,1.093,4.446,4.446,0,0,1,1,3.1v.922H27.985a2.1,2.1,0,0,0,.66,1.328,2,2,0,0,0,1.394.5,2.436,2.436,0,0,0,2.039-.945l1.11,1.242a3.394,3.394,0,0,1-1.375,1.121,4.5,4.5,0,0,1-1.922.4m-.258-6.945a1.411,1.411,0,0,0-1.09.455,2.363,2.363,0,0,0-.535,1.3h3.141v-.181a1.677,1.677,0,0,0-.407-1.165,1.455,1.455,0,0,0-1.109-.412" transform="translate(19566 -8724.327)" fill="#fff"/>
    <path id="Trazado_224694" data-name="Trazado 224694" d="M39.4,231.686a6.062,6.062,0,0,0-.812-.062,1.654,1.654,0,0,0-1.68.867v5.531H34.648v-8.453h2.133l.062,1.008a2.09,2.09,0,0,1,1.883-1.164,2.384,2.384,0,0,1,.7.1Z" transform="translate(19566 -8724.327)" fill="#fff"/>
    <path id="Trazado_224695" data-name="Trazado 224695" d="M40.469,227.381a1.11,1.11,0,0,1,.34-.836,1.464,1.464,0,0,1,1.847,0,1.193,1.193,0,0,1,0,1.68,1.449,1.449,0,0,1-1.836,0,1.111,1.111,0,0,1-.347-.844m2.4,10.641H40.6v-8.453h2.266Z" transform="translate(19566 -8724.327)" fill="#fff"/>
    <path id="Trazado_224696" data-name="Trazado 224696" d="M48.617,238.178a4.156,4.156,0,0,1-3.028-1.14A4.059,4.059,0,0,1,44.421,234v-.219a5.1,5.1,0,0,1,.493-2.277,3.616,3.616,0,0,1,1.394-1.547,3.907,3.907,0,0,1,2.059-.543,3.507,3.507,0,0,1,2.73,1.093,4.446,4.446,0,0,1,1,3.1v.922H46.711a2.1,2.1,0,0,0,.66,1.328,2,2,0,0,0,1.394.5,2.436,2.436,0,0,0,2.039-.945l1.11,1.242a3.394,3.394,0,0,1-1.375,1.121,4.5,4.5,0,0,1-1.922.4m-.258-6.945a1.411,1.411,0,0,0-1.09.455,2.363,2.363,0,0,0-.535,1.3h3.141v-.181a1.677,1.677,0,0,0-.407-1.165,1.455,1.455,0,0,0-1.109-.412" transform="translate(19566 -8724.327)" fill="#fff"/>
    <path id="Trazado_224697" data-name="Trazado 224697" d="M55.453,229.569l.07.977a2.953,2.953,0,0,1,2.43-1.133,2.45,2.45,0,0,1,2,.789,3.681,3.681,0,0,1,.672,2.359v5.461H58.367V232.6a1.469,1.469,0,0,0-.312-1.045,1.4,1.4,0,0,0-1.04-.325,1.554,1.554,0,0,0-1.429.815v5.974H53.328v-8.453Z" transform="translate(19566 -8724.327)" fill="#fff"/>
    <path id="Trazado_224698" data-name="Trazado 224698" d="M65.852,236.358a1.477,1.477,0,0,0,1.016-.344,1.2,1.2,0,0,0,.406-.914h2.117a2.886,2.886,0,0,1-.469,1.574,3.08,3.08,0,0,1-1.261,1.11,3.961,3.961,0,0,1-1.77.394,3.667,3.667,0,0,1-2.859-1.152,4.561,4.561,0,0,1-1.047-3.184v-.148a4.506,4.506,0,0,1,1.039-3.117,3.624,3.624,0,0,1,2.851-1.164,3.551,3.551,0,0,1,2.543.9,3.19,3.19,0,0,1,.973,2.4H67.274a1.555,1.555,0,0,0-.406-1.072,1.511,1.511,0,0,0-2.223.163,3.336,3.336,0,0,0-.4,1.866v.235a3.374,3.374,0,0,0,.4,1.878,1.378,1.378,0,0,0,1.211.571" transform="translate(19566 -8724.327)" fill="#fff"/>
    <path id="Trazado_224699" data-name="Trazado 224699" d="M70.664,227.381a1.11,1.11,0,0,1,.34-.836,1.465,1.465,0,0,1,1.848,0,1.2,1.2,0,0,1,0,1.68,1.449,1.449,0,0,1-1.836,0,1.109,1.109,0,0,1-.348-.844m2.4,10.641H70.8v-8.453h2.266Z" transform="translate(19566 -8724.327)" fill="#fff"/>
    <path id="Trazado_224700" data-name="Trazado 224700" d="M79.82,238.022a2.517,2.517,0,0,1-.226-.758,2.731,2.731,0,0,1-2.133.915,3,3,0,0,1-2.059-.719,2.313,2.313,0,0,1-.816-1.813,2.389,2.389,0,0,1,1-2.062,4.908,4.908,0,0,1,2.879-.727H79.5v-.484a1.392,1.392,0,0,0-.3-.938,1.183,1.183,0,0,0-.949-.351,1.35,1.35,0,0,0-.895.273.934.934,0,0,0-.324.75H74.773a2.276,2.276,0,0,1,.453-1.359,3.01,3.01,0,0,1,1.282-.981,4.669,4.669,0,0,1,1.859-.355,3.692,3.692,0,0,1,2.481.785,2.747,2.747,0,0,1,.918,2.207v3.664a4.048,4.048,0,0,0,.335,1.82v.133Zm-1.867-1.57a1.936,1.936,0,0,0,.922-.223,1.458,1.458,0,0,0,.625-.6v-1.453h-.844q-1.695,0-1.805,1.171l-.007.133a.905.905,0,0,0,.3.7,1.153,1.153,0,0,0,.812.273" transform="translate(19566 -8724.327)" fill="#fff"/>
    <path id="Trazado_224701" data-name="Trazado 224701" d="M88.078,235.686a.728.728,0,0,0-.41-.652,4.623,4.623,0,0,0-1.317-.426q-3.013-.633-3.015-2.563a2.324,2.324,0,0,1,.933-1.879,3.772,3.772,0,0,1,2.442-.753,4.053,4.053,0,0,1,2.574.757,2.387,2.387,0,0,1,.965,1.969H87.992a1.09,1.09,0,0,0-.312-.8,1.322,1.322,0,0,0-.977-.316,1.353,1.353,0,0,0-.883.258.814.814,0,0,0-.312.656.7.7,0,0,0,.355.6,3.65,3.65,0,0,0,1.2.4,9.718,9.718,0,0,1,1.422.379,2.334,2.334,0,0,1,1.789,2.273,2.2,2.2,0,0,1-.992,1.871,4.274,4.274,0,0,1-2.562.715,4.468,4.468,0,0,1-1.887-.379,3.161,3.161,0,0,1-1.293-1.039,2.41,2.41,0,0,1-.469-1.426h2.141a1.182,1.182,0,0,0,.445.922,1.766,1.766,0,0,0,1.11.321,1.634,1.634,0,0,0,.98-.246.766.766,0,0,0,.332-.645" transform="translate(19566 -8724.327)" fill="#fff"/>
    <path id="Trazado_224702" data-name="Trazado 224702" d="M13,249.569l.07.977a2.953,2.953,0,0,1,2.43-1.133,2.45,2.45,0,0,1,2,.789,3.687,3.687,0,0,1,.672,2.359v5.461H15.911V252.6a1.474,1.474,0,0,0-.312-1.045,1.4,1.4,0,0,0-1.04-.325,1.552,1.552,0,0,0-1.429.815v5.974H10.872v-8.453Z" transform="translate(19566 -8724.327)" fill="#fff"/>
    <path id="Trazado_224703" data-name="Trazado 224703" d="M23.771,258.178a4.154,4.154,0,0,1-3.028-1.14A4.059,4.059,0,0,1,19.575,254v-.219a5.1,5.1,0,0,1,.493-2.277,3.616,3.616,0,0,1,1.394-1.547,3.907,3.907,0,0,1,2.059-.543,3.507,3.507,0,0,1,2.73,1.093,4.446,4.446,0,0,1,1,3.1v.922H21.865a2.1,2.1,0,0,0,.66,1.328,2,2,0,0,0,1.394.5,2.436,2.436,0,0,0,2.039-.945l1.11,1.242a3.4,3.4,0,0,1-1.375,1.121,4.5,4.5,0,0,1-1.922.4m-.258-6.945a1.408,1.408,0,0,0-1.09.455,2.363,2.363,0,0,0-.535,1.3h3.141v-.181a1.681,1.681,0,0,0-.407-1.165,1.457,1.457,0,0,0-1.109-.412" transform="translate(19566 -8724.327)" fill="#fff"/>
    <path id="Trazado_224704" data-name="Trazado 224704" d="M28.2,253.733a4.956,4.956,0,0,1,.926-3.133,3,3,0,0,1,2.5-1.187,2.628,2.628,0,0,1,2.164.953l.094-.8h2.047v8.172a3.612,3.612,0,0,1-.5,1.929,3.235,3.235,0,0,1-1.418,1.25,4.991,4.991,0,0,1-2.141.43,4.641,4.641,0,0,1-1.812-.371,3.207,3.207,0,0,1-1.336-.957l1-1.375a2.645,2.645,0,0,0,2.047.945,1.937,1.937,0,0,0,1.4-.48,1.805,1.805,0,0,0,.5-1.364V257.3a2.61,2.61,0,0,1-2.055.883,2.992,2.992,0,0,1-2.464-1.191,4.951,4.951,0,0,1-.942-3.16Zm2.258.16a3.1,3.1,0,0,0,.461,1.81,1.468,1.468,0,0,0,1.266.655,1.565,1.565,0,0,0,1.476-.778v-3.57a1.563,1.563,0,0,0-1.461-.777,1.472,1.472,0,0,0-1.277.667,3.494,3.494,0,0,0-.465,1.993" transform="translate(19566 -8724.327)" fill="#fff"/>
    <path id="Trazado_224705" data-name="Trazado 224705" d="M42.559,258.022a2.489,2.489,0,0,1-.226-.758,2.731,2.731,0,0,1-2.133.915,3,3,0,0,1-2.059-.719,2.313,2.313,0,0,1-.816-1.813,2.389,2.389,0,0,1,1-2.062,4.908,4.908,0,0,1,2.879-.727h1.039v-.484a1.4,1.4,0,0,0-.3-.938,1.183,1.183,0,0,0-.949-.351,1.348,1.348,0,0,0-.895.273.934.934,0,0,0-.324.75H37.512a2.276,2.276,0,0,1,.453-1.359,3,3,0,0,1,1.282-.981,4.665,4.665,0,0,1,1.859-.355,3.694,3.694,0,0,1,2.481.785,2.747,2.747,0,0,1,.918,2.207v3.664a4.034,4.034,0,0,0,.335,1.82v.133Zm-1.867-1.57a1.939,1.939,0,0,0,.922-.223,1.463,1.463,0,0,0,.625-.6v-1.453H41.4q-1.7,0-1.805,1.171l-.007.133a.9.9,0,0,0,.3.7,1.153,1.153,0,0,0,.812.273" transform="translate(19566 -8724.327)" fill="#fff"/>
    <path id="Trazado_224706" data-name="Trazado 224706" d="M48.942,247.491v2.078h1.445v1.656H48.942v4.219a1.007,1.007,0,0,0,.18.672.9.9,0,0,0,.687.2,3.547,3.547,0,0,0,.664-.055v1.711a4.624,4.624,0,0,1-1.367.2,2.156,2.156,0,0,1-2.422-2.4v-4.555H45.45v-1.656h1.234v-2.078Z" transform="translate(19566 -8724.327)" fill="#fff"/>
    <path id="Trazado_224707" data-name="Trazado 224707" d="M51.63,247.381a1.11,1.11,0,0,1,.34-.836,1.464,1.464,0,0,1,1.847,0,1.193,1.193,0,0,1,0,1.68,1.447,1.447,0,0,1-1.835,0,1.109,1.109,0,0,1-.348-.844m2.4,10.641H51.762v-8.453h2.266Z" transform="translate(19566 -8724.327)" fill="#fff"/>
    <path id="Trazado_224708" data-name="Trazado 224708" d="M59.052,255.264l1.57-5.695h2.36l-2.852,8.453H57.974l-2.852-8.453h2.36Z" transform="translate(19566 -8724.327)" fill="#fff"/>
    <path id="Trazado_224709" data-name="Trazado 224709" d="M68.755,258.022a2.489,2.489,0,0,1-.226-.758,2.731,2.731,0,0,1-2.133.915,3,3,0,0,1-2.059-.719,2.313,2.313,0,0,1-.816-1.813,2.389,2.389,0,0,1,1-2.062,4.908,4.908,0,0,1,2.879-.727h1.039v-.484a1.4,1.4,0,0,0-.3-.938,1.183,1.183,0,0,0-.949-.351,1.348,1.348,0,0,0-.895.273.934.934,0,0,0-.324.75H63.708a2.276,2.276,0,0,1,.453-1.359,3,3,0,0,1,1.282-.981,4.665,4.665,0,0,1,1.859-.355,3.694,3.694,0,0,1,2.481.785A2.747,2.747,0,0,1,70.7,252.4v3.664a4.034,4.034,0,0,0,.335,1.82v.133Zm-1.867-1.57a1.939,1.939,0,0,0,.922-.223,1.463,1.463,0,0,0,.625-.6v-1.453h-.844q-1.7,0-1.805,1.171l-.007.133a.9.9,0,0,0,.3.7,1.153,1.153,0,0,0,.812.273" transform="translate(19566 -8724.327)" fill="#fff"/>
    <path id="Trazado_224710" data-name="Trazado 224710" d="M77.013,255.686a.728.728,0,0,0-.41-.652,4.623,4.623,0,0,0-1.317-.426q-3.015-.633-3.015-2.563a2.324,2.324,0,0,1,.933-1.879,3.77,3.77,0,0,1,2.442-.753,4.055,4.055,0,0,1,2.574.757,2.387,2.387,0,0,1,.965,1.969H76.927a1.094,1.094,0,0,0-.312-.8,1.324,1.324,0,0,0-.977-.316,1.351,1.351,0,0,0-.883.258.814.814,0,0,0-.312.656.694.694,0,0,0,.355.6,3.65,3.65,0,0,0,1.2.4,9.718,9.718,0,0,1,1.422.379,2.335,2.335,0,0,1,1.789,2.273,2.2,2.2,0,0,1-.992,1.871,4.274,4.274,0,0,1-2.562.715,4.469,4.469,0,0,1-1.887-.379,3.155,3.155,0,0,1-1.293-1.039A2.41,2.41,0,0,1,72,255.334h2.141a1.176,1.176,0,0,0,.445.922,1.765,1.765,0,0,0,1.11.321,1.636,1.636,0,0,0,.98-.246.766.766,0,0,0,.332-.645" transform="translate(19566 -8724.327)" fill="#fff"/>
    <path id="Trazado_226168" data-name="Trazado 226168" d="M0,0H839.814V261.35H0Z" transform="translate(19566 -8724.327)" fill="none"/>
  </g>
</svg>
