<svg xmlns="http://www.w3.org/2000/svg" width="1337.5" height="411" viewBox="0 0 1337.5 411">
  <g id="Grupo_173986" data-name="Grupo 173986" transform="translate(-127 -5163)">
    <rect id="Rectángulo_55314" data-name="Rectángulo 55314" width="1337.5" height="411" transform="translate(127 5163)" fill="#f3f3f3"/>
    <g id="Grupo_173985" data-name="Grupo 173985" transform="translate(1219.146 5326.883)" opacity="0.23">
      <path id="Trazado_174290" data-name="Trazado 174290" d="M59.688,315.342-111.288,486.318a14.937,14.937,0,0,1-21.126,0h0a14.939,14.939,0,0,1,0-21.126L38.562,294.215a14.939,14.939,0,0,1,21.126,0h0A14.939,14.939,0,0,1,59.688,315.342Z" transform="translate(136.79 -289.84)" fill="none" stroke="#d8d8d8" stroke-miterlimit="10" stroke-width="2"/>
      <path id="Trazado_174291" data-name="Trazado 174291" d="M57.955,407.627l-130.5,130.5a11.4,11.4,0,0,1-16.125,0h0a11.4,11.4,0,0,1,0-16.126l130.5-130.5a11.4,11.4,0,0,1,16.126,0h0A11.4,11.4,0,0,1,57.955,407.627Z" transform="translate(128.113 -308.893)" fill="none" stroke="#d8d8d8" stroke-miterlimit="10" stroke-width="2"/>
    </g>
    <g id="Grupo_173987" data-name="Grupo 173987" transform="translate(473.146 5180.306)" opacity="0.23">
      <path id="Trazado_174290-2" data-name="Trazado 174290" d="M-32.264,303.407l-90.959,90.959a7.947,7.947,0,0,1-11.239,0h0a7.947,7.947,0,0,1,0-11.239L-43.5,292.168a7.947,7.947,0,0,1,11.239,0h0A7.947,7.947,0,0,1-32.264,303.407Z" transform="translate(136.79 -289.84)" fill="none" stroke="#d8d8d8" stroke-miterlimit="10" stroke-width="2"/>
      <path id="Trazado_174291-2" data-name="Trazado 174291" d="M-12.231,398.517l-69.428,69.428a6.066,6.066,0,0,1-8.579,0h0a6.066,6.066,0,0,1,0-8.579l69.427-69.428a6.067,6.067,0,0,1,8.579,0h0A6.067,6.067,0,0,1-12.231,398.517Z" transform="translate(111.219 -345.991)" fill="none" stroke="#d8d8d8" stroke-miterlimit="10" stroke-width="2"/>
    </g>
  </g>
</svg>
