<svg xmlns="http://www.w3.org/2000/svg" width="30.755" height="70.053" viewBox="0 0 30.755 70.053">
  <g id="Grupo_177213" data-name="Grupo 177213" transform="translate(0 0)">
    <g id="Grupo_152551" data-name="Grupo 152551" transform="translate(0 70.053) rotate(-90)">
      <rect id="Rectángulo_45220" data-name="Rectángulo 45220" width="46.328" height="21.268" transform="translate(70.053 21.268) rotate(180)" fill="#ece5f7"/>
      <g id="Grupo_152556" data-name="Grupo 152556" transform="translate(0 11.781)">
        <rect id="Rectángulo_45221" data-name="Rectángulo 45221" width="3.614" height="3.614" transform="translate(38.399 15.36)" fill="#43a99b"/>
        <rect id="Rectángulo_45222" data-name="Rectángulo 45222" width="3.614" height="3.614" transform="translate(30.719 15.36)" fill="#43a99b"/>
        <rect id="Rectángulo_45223" data-name="Rectángulo 45223" width="3.614" height="3.614" transform="translate(23.04 15.36)" fill="#43a99b"/>
        <rect id="Rectángulo_45224" data-name="Rectángulo 45224" width="3.614" height="3.614" transform="translate(15.36 15.36)" fill="#43a99b"/>
        <rect id="Rectángulo_45225" data-name="Rectángulo 45225" width="3.614" height="3.614" transform="translate(7.68 15.36)" fill="#43a99b"/>
        <rect id="Rectángulo_45226" data-name="Rectángulo 45226" width="3.614" height="3.614" transform="translate(0 15.36)" fill="#43a99b"/>
        <rect id="Rectángulo_45232" data-name="Rectángulo 45232" width="3.614" height="3.614" transform="translate(38.399 7.68)" fill="#43a99b"/>
        <rect id="Rectángulo_45233" data-name="Rectángulo 45233" width="3.614" height="3.614" transform="translate(30.719 7.68)" fill="#43a99b"/>
        <rect id="Rectángulo_45234" data-name="Rectángulo 45234" width="3.614" height="3.614" transform="translate(23.04 7.68)" fill="#43a99b"/>
        <rect id="Rectángulo_45235" data-name="Rectángulo 45235" width="3.614" height="3.614" transform="translate(15.36 7.68)" fill="#43a99b"/>
        <rect id="Rectángulo_45236" data-name="Rectángulo 45236" width="3.614" height="3.614" transform="translate(7.68 7.68)" fill="#43a99b"/>
        <rect id="Rectángulo_45237" data-name="Rectángulo 45237" width="3.614" height="3.614" transform="translate(0 7.68)" fill="#43a99b"/>
        <rect id="Rectángulo_45243" data-name="Rectángulo 45243" width="3.614" height="3.614" transform="translate(38.399)" fill="#43a99b"/>
        <rect id="Rectángulo_45244" data-name="Rectángulo 45244" width="3.614" height="3.614" transform="translate(30.719)" fill="#43a99b"/>
        <rect id="Rectángulo_45245" data-name="Rectángulo 45245" width="3.614" height="3.614" transform="translate(23.04)" fill="#43a99b"/>
        <rect id="Rectángulo_45246" data-name="Rectángulo 45246" width="3.614" height="3.614" transform="translate(15.36)" fill="#43a99b"/>
        <rect id="Rectángulo_45247" data-name="Rectángulo 45247" width="3.614" height="3.614" transform="translate(7.68)" fill="#43a99b"/>
        <rect id="Rectángulo_45248" data-name="Rectángulo 45248" width="3.614" height="3.614" fill="#43a99b"/>
      </g>
    </g>
  </g>
</svg>
