<svg xmlns="http://www.w3.org/2000/svg" xmlns:xlink="http://www.w3.org/1999/xlink" width="196.249" height="188.762" viewBox="0 0 196.249 188.762">
  <defs>
    <clipPath id="clip-path">
      <rect id="Rect치ngulo_52193" data-name="Rect치ngulo 52193" width="190.835" height="162.002" fill="#ece5f7"/>
    </clipPath>
    <clipPath id="clip-path-2">
      <rect id="Rect치ngulo_55066" data-name="Rect치ngulo 55066" width="96.37" height="173" fill="none"/>
    </clipPath>
  </defs>
  <g id="Grupo_177309" data-name="Grupo 177309" transform="translate(-544 -2904.304)">
    <g id="Grupo_173416" data-name="Grupo 173416" transform="translate(357.007 -1895.544)">
      <g id="Grupo_169303" data-name="Grupo 169303" transform="translate(192.407 4799.848)">
        <g id="Grupo_168636" data-name="Grupo 168636" transform="translate(0 0)" clip-path="url(#clip-path)">
          <path id="Trazado_211592" data-name="Trazado 211592" d="M141.129,136.942S241.7,61.516,173.666,41.551,35.385-27.959,16.9,20.846s31.8,69.51,8.134,96.131,29.579,74.686,116.1,19.966" transform="translate(-6.45 0)" fill="#ece5f7"/>
        </g>
      </g>
      <g id="Grupo_169306" data-name="Grupo 169306" transform="translate(229.524 4988.609) rotate(-90)">
        <circle id="Elipse_5566" data-name="Elipse 5566" cx="32.745" cy="32.745" r="32.745" transform="translate(58.474 46.308) rotate(-45)" fill="#def2f4"/>
        <ellipse id="Elipse_5567" data-name="Elipse 5567" cx="52.584" cy="52.584" rx="52.584" ry="52.584" transform="translate(0 54.134) rotate(-22.5)" fill="#fff"/>
        <g id="Grupo_152550" data-name="Grupo 152550" transform="translate(4.31 6.644)">
          <ellipse id="Elipse_5568" data-name="Elipse 5568" cx="0.037" cy="0.037" rx="0.037" ry="0.037" transform="translate(33.64 106.476)" fill="#e8e8e8"/>
          <path id="Trazado_193815" data-name="Trazado 193815" d="M.312,0A.312.312,0,1,1,0,.312.312.312,0,0,1,.312,0Z" transform="translate(39.986 106.201)" fill="#e8e8e8"/>
          <path id="Trazado_193816" data-name="Trazado 193816" d="M.533,0A.533.533,0,1,1,0,.533.534.534,0,0,1,.533,0Z" transform="translate(46.387 105.98)" fill="#e8e8e8"/>
          <ellipse id="Elipse_5569" data-name="Elipse 5569" cx="0.569" cy="0.569" rx="0.569" ry="0.569" transform="translate(52.972 105.943)" fill="#e8e8e8"/>
          <path id="Trazado_193817" data-name="Trazado 193817" d="M.533,0A.533.533,0,1,1,0,.533.533.533,0,0,1,.533,0Z" transform="translate(59.63 105.98)" fill="#e8e8e8"/>
          <path id="Trazado_193818" data-name="Trazado 193818" d="M.293,0A.293.293,0,1,1,0,.293.293.293,0,0,1,.293,0Z" transform="translate(66.49 106.219)" fill="#e8e8e8"/>
          <ellipse id="Elipse_5570" data-name="Elipse 5570" cx="0.018" cy="0.018" rx="0.018" ry="0.018" transform="translate(73.387 106.494)" fill="#e8e8e8"/>
          <ellipse id="Elipse_5571" data-name="Elipse 5571" cx="0.018" cy="0.018" rx="0.018" ry="0.018" transform="translate(20.415 99.873)" fill="#e8e8e8"/>
          <path id="Trazado_193819" data-name="Trazado 193819" d="M.551,0A.551.551,0,1,1,0,.551.551.551,0,0,1,.551,0Z" transform="translate(26.504 99.34)" fill="#e8e8e8"/>
          <path id="Trazado_193820" data-name="Trazado 193820" d="M1.121,0A1.121,1.121,0,1,1,0,1.121,1.121,1.121,0,0,1,1.121,0Z" transform="translate(32.556 98.77)" fill="#e8e8e8"/>
          <ellipse id="Elipse_5572" data-name="Elipse 5572" cx="1.249" cy="1.249" rx="1.249" ry="1.249" transform="translate(39.049 98.643)" fill="#e8e8e8"/>
          <ellipse id="Elipse_5573" data-name="Elipse 5573" cx="1.249" cy="1.249" rx="1.249" ry="1.249" transform="translate(45.671 98.643)" fill="#e8e8e8"/>
          <path id="Trazado_193821" data-name="Trazado 193821" d="M1.249,0A1.249,1.249,0,1,1,0,1.249,1.249,1.249,0,0,1,1.249,0Z" transform="translate(52.292 98.642)" fill="#e8e8e8"/>
          <path id="Trazado_193822" data-name="Trazado 193822" d="M1.249,0A1.249,1.249,0,1,1,0,1.249,1.249,1.249,0,0,1,1.249,0Z" transform="translate(58.914 98.642)" fill="#e8e8e8"/>
          <path id="Trazado_193823" data-name="Trazado 193823" d="M1.249,0A1.249,1.249,0,1,1,0,1.249,1.249,1.249,0,0,1,1.249,0Z" transform="translate(65.535 98.642)" fill="#e8e8e8"/>
          <path id="Trazado_193824" data-name="Trazado 193824" d="M1.1,0A1.1,1.1,0,1,1,0,1.1,1.1,1.1,0,0,1,1.1,0Z" transform="translate(72.303 98.789)" fill="#e8e8e8"/>
          <path id="Trazado_193825" data-name="Trazado 193825" d="M.514,0A.514.514,0,1,1,0,.514.514.514,0,0,1,.514,0Z" transform="translate(79.512 99.377)" fill="#e8e8e8"/>
          <ellipse id="Elipse_5574" data-name="Elipse 5574" cx="0.018" cy="0.018" rx="0.018" ry="0.018" transform="translate(86.63 99.873)" fill="#e8e8e8"/>
          <path id="Trazado_193826" data-name="Trazado 193826" d="M.093,0A.091.091,0,0,1,.184.091.092.092,0,1,1,.093,0Z" transform="translate(13.72 93.178)" fill="#e8e8e8"/>
          <path id="Trazado_193827" data-name="Trazado 193827" d="M.9,0A.9.9,0,1,1,0,.9.9.9,0,0,1,.9,0Z" transform="translate(19.534 92.37)" fill="#e8e8e8"/>
          <ellipse id="Elipse_5575" data-name="Elipse 5575" cx="1.249" cy="1.249" rx="1.249" ry="1.249" transform="translate(25.806 92.021)" fill="#e8e8e8"/>
          <ellipse id="Elipse_5576" data-name="Elipse 5576" cx="1.249" cy="1.249" rx="1.249" ry="1.249" transform="translate(32.428 92.021)" fill="#e8e8e8"/>
          <ellipse id="Elipse_5577" data-name="Elipse 5577" cx="1.249" cy="1.249" rx="1.249" ry="1.249" transform="translate(39.049 92.021)" fill="#e8e8e8"/>
          <ellipse id="Elipse_5578" data-name="Elipse 5578" cx="1.249" cy="1.249" rx="1.249" ry="1.249" transform="translate(45.671 92.021)" fill="#e8e8e8"/>
          <path id="Trazado_193828" data-name="Trazado 193828" d="M1.249,0A1.249,1.249,0,1,1,0,1.249,1.249,1.249,0,0,1,1.249,0Z" transform="translate(52.292 92.021)" fill="#e8e8e8"/>
          <path id="Trazado_193829" data-name="Trazado 193829" d="M1.249,0A1.249,1.249,0,1,1,0,1.249,1.249,1.249,0,0,1,1.249,0Z" transform="translate(58.914 92.021)" fill="#e8e8e8"/>
          <path id="Trazado_193830" data-name="Trazado 193830" d="M1.249,0A1.249,1.249,0,1,1,0,1.249,1.249,1.249,0,0,1,1.249,0Z" transform="translate(65.535 92.021)" fill="#e8e8e8"/>
          <path id="Trazado_193831" data-name="Trazado 193831" d="M1.249,0A1.249,1.249,0,1,1,0,1.249,1.249,1.249,0,0,1,1.249,0Z" transform="translate(72.156 92.021)" fill="#e8e8e8"/>
          <path id="Trazado_193832" data-name="Trazado 193832" d="M1.249,0A1.249,1.249,0,1,1,0,1.249,1.249,1.249,0,0,1,1.249,0Z" transform="translate(78.778 92.021)" fill="#e8e8e8"/>
          <path id="Trazado_193833" data-name="Trazado 193833" d="M.881,0A.881.881,0,1,1,0,.881.881.881,0,0,1,.881,0Z" transform="translate(85.766 92.388)" fill="#e8e8e8"/>
          <path id="Trazado_193834" data-name="Trazado 193834" d="M.054,0a.056.056,0,1,1,0,.111A.056.056,0,0,1,.054,0Z" transform="translate(93.215 93.214)" fill="#e8e8e8"/>
          <ellipse id="Elipse_5579" data-name="Elipse 5579" cx="0.018" cy="0.018" rx="0.018" ry="0.018" transform="translate(7.172 86.63)" fill="#e8e8e8"/>
          <path id="Trazado_193835" data-name="Trazado 193835" d="M.9,0A.9.9,0,1,1,0,.9.9.9,0,0,1,.9,0Z" transform="translate(12.913 85.748)" fill="#e8e8e8"/>
          <ellipse id="Elipse_5580" data-name="Elipse 5580" cx="1.249" cy="1.249" rx="1.249" ry="1.249" transform="translate(19.185 85.4)" fill="#e8e8e8"/>
          <ellipse id="Elipse_5581" data-name="Elipse 5581" cx="1.249" cy="1.249" rx="1.249" ry="1.249" transform="translate(25.806 85.4)" fill="#e8e8e8"/>
          <ellipse id="Elipse_5582" data-name="Elipse 5582" cx="1.249" cy="1.249" rx="1.249" ry="1.249" transform="translate(32.428 85.4)" fill="#e8e8e8"/>
          <ellipse id="Elipse_5583" data-name="Elipse 5583" cx="1.249" cy="1.249" rx="1.249" ry="1.249" transform="translate(39.049 85.4)" fill="#e8e8e8"/>
          <ellipse id="Elipse_5584" data-name="Elipse 5584" cx="1.249" cy="1.249" rx="1.249" ry="1.249" transform="translate(45.671 85.4)" fill="#e8e8e8"/>
          <path id="Trazado_193836" data-name="Trazado 193836" d="M1.249,0A1.249,1.249,0,1,1,0,1.249,1.249,1.249,0,0,1,1.249,0Z" transform="translate(52.292 85.399)" fill="#e8e8e8"/>
          <path id="Trazado_193837" data-name="Trazado 193837" d="M1.249,0A1.249,1.249,0,1,1,0,1.249,1.249,1.249,0,0,1,1.249,0Z" transform="translate(58.914 85.399)" fill="#e8e8e8"/>
          <path id="Trazado_193838" data-name="Trazado 193838" d="M1.249,0A1.249,1.249,0,1,1,0,1.249,1.249,1.249,0,0,1,1.249,0Z" transform="translate(65.535 85.399)" fill="#e8e8e8"/>
          <path id="Trazado_193839" data-name="Trazado 193839" d="M1.249,0A1.249,1.249,0,1,1,0,1.249,1.249,1.249,0,0,1,1.249,0Z" transform="translate(72.156 85.399)" fill="#e8e8e8"/>
          <path id="Trazado_193840" data-name="Trazado 193840" d="M1.249,0A1.249,1.249,0,1,1,0,1.249,1.249,1.249,0,0,1,1.249,0Z" transform="translate(78.778 85.399)" fill="#e8e8e8"/>
          <path id="Trazado_193841" data-name="Trazado 193841" d="M1.249,0A1.249,1.249,0,1,1,0,1.249,1.249,1.249,0,0,1,1.249,0Z" transform="translate(85.399 85.399)" fill="#e8e8e8"/>
          <path id="Trazado_193842" data-name="Trazado 193842" d="M.881,0A.881.881,0,1,1,0,.881.881.881,0,0,1,.881,0Z" transform="translate(92.388 85.767)" fill="#e8e8e8"/>
          <ellipse id="Elipse_5585" data-name="Elipse 5585" cx="0.018" cy="0.018" rx="0.018" ry="0.018" transform="translate(99.873 86.63)" fill="#e8e8e8"/>
          <path id="Trazado_193843" data-name="Trazado 193843" d="M.551,0A.551.551,0,1,1,0,.551.55.55,0,0,1,.551,0Z" transform="translate(6.64 79.476)" fill="#e8e8e8"/>
          <ellipse id="Elipse_5586" data-name="Elipse 5586" cx="1.249" cy="1.249" rx="1.249" ry="1.249" transform="translate(12.564 78.778)" fill="#e8e8e8"/>
          <ellipse id="Elipse_5587" data-name="Elipse 5587" cx="1.249" cy="1.249" rx="1.249" ry="1.249" transform="translate(19.185 78.778)" fill="#e8e8e8"/>
          <ellipse id="Elipse_5588" data-name="Elipse 5588" cx="1.249" cy="1.249" rx="1.249" ry="1.249" transform="translate(25.806 78.778)" fill="#e8e8e8"/>
          <ellipse id="Elipse_5589" data-name="Elipse 5589" cx="1.249" cy="1.249" rx="1.249" ry="1.249" transform="translate(32.428 78.778)" fill="#e8e8e8"/>
          <ellipse id="Elipse_5590" data-name="Elipse 5590" cx="1.249" cy="1.249" rx="1.249" ry="1.249" transform="translate(39.049 78.778)" fill="#e8e8e8"/>
          <ellipse id="Elipse_5591" data-name="Elipse 5591" cx="1.249" cy="1.249" rx="1.249" ry="1.249" transform="translate(45.671 78.778)" fill="#e8e8e8"/>
          <path id="Trazado_193844" data-name="Trazado 193844" d="M1.249,0A1.249,1.249,0,1,1,0,1.249,1.249,1.249,0,0,1,1.249,0Z" transform="translate(52.292 78.778)" fill="#e8e8e8"/>
          <path id="Trazado_193845" data-name="Trazado 193845" d="M1.249,0A1.249,1.249,0,1,1,0,1.249,1.249,1.249,0,0,1,1.249,0Z" transform="translate(58.914 78.778)" fill="#e8e8e8"/>
          <path id="Trazado_193846" data-name="Trazado 193846" d="M1.249,0A1.249,1.249,0,1,1,0,1.249,1.249,1.249,0,0,1,1.249,0Z" transform="translate(65.535 78.778)" fill="#e8e8e8"/>
          <path id="Trazado_193847" data-name="Trazado 193847" d="M1.249,0A1.249,1.249,0,1,1,0,1.249,1.249,1.249,0,0,1,1.249,0Z" transform="translate(72.156 78.778)" fill="#e8e8e8"/>
          <path id="Trazado_193848" data-name="Trazado 193848" d="M1.249,0A1.249,1.249,0,1,1,0,1.249,1.249,1.249,0,0,1,1.249,0Z" transform="translate(78.778 78.778)" fill="#e8e8e8"/>
          <path id="Trazado_193849" data-name="Trazado 193849" d="M1.249,0A1.249,1.249,0,1,1,0,1.249,1.249,1.249,0,0,1,1.249,0Z" transform="translate(85.399 78.778)" fill="#e8e8e8"/>
          <path id="Trazado_193850" data-name="Trazado 193850" d="M1.249,0A1.249,1.249,0,1,1,0,1.249,1.249,1.249,0,0,1,1.249,0Z" transform="translate(92.02 78.778)" fill="#e8e8e8"/>
          <path id="Trazado_193851" data-name="Trazado 193851" d="M.514,0A.514.514,0,1,1,0,.514.514.514,0,0,1,.514,0Z" transform="translate(99.377 79.513)" fill="#e8e8e8"/>
          <ellipse id="Elipse_5592" data-name="Elipse 5592" cx="0.037" cy="0.037" rx="0.037" ry="0.037" transform="translate(0.532 73.369)" fill="#e8e8e8"/>
          <path id="Trazado_193852" data-name="Trazado 193852" d="M1.1,0A1.1,1.1,0,1,1,0,1.1,1.1,1.1,0,0,1,1.1,0Z" transform="translate(6.089 72.303)" fill="#e8e8e8"/>
          <ellipse id="Elipse_5593" data-name="Elipse 5593" cx="1.249" cy="1.249" rx="1.249" ry="1.249" transform="translate(12.564 72.157)" fill="#e8e8e8"/>
          <ellipse id="Elipse_5594" data-name="Elipse 5594" cx="1.249" cy="1.249" rx="1.249" ry="1.249" transform="translate(19.185 72.157)" fill="#e8e8e8"/>
          <ellipse id="Elipse_5595" data-name="Elipse 5595" cx="1.249" cy="1.249" rx="1.249" ry="1.249" transform="translate(25.806 72.157)" fill="#e8e8e8"/>
          <ellipse id="Elipse_5596" data-name="Elipse 5596" cx="1.249" cy="1.249" rx="1.249" ry="1.249" transform="translate(32.428 72.157)" fill="#e8e8e8"/>
          <ellipse id="Elipse_5597" data-name="Elipse 5597" cx="1.249" cy="1.249" rx="1.249" ry="1.249" transform="translate(39.049 72.157)" fill="#e8e8e8"/>
          <ellipse id="Elipse_5598" data-name="Elipse 5598" cx="1.249" cy="1.249" rx="1.249" ry="1.249" transform="translate(45.671 72.157)" fill="#e8e8e8"/>
          <path id="Trazado_193853" data-name="Trazado 193853" d="M1.249,0A1.249,1.249,0,1,1,0,1.249,1.249,1.249,0,0,1,1.249,0Z" transform="translate(52.292 72.157)" fill="#e8e8e8"/>
          <path id="Trazado_193854" data-name="Trazado 193854" d="M1.249,0A1.249,1.249,0,1,1,0,1.249,1.249,1.249,0,0,1,1.249,0Z" transform="translate(58.914 72.157)" fill="#e8e8e8"/>
          <path id="Trazado_193855" data-name="Trazado 193855" d="M1.249,0A1.249,1.249,0,1,1,0,1.249,1.249,1.249,0,0,1,1.249,0Z" transform="translate(65.535 72.157)" fill="#e8e8e8"/>
          <path id="Trazado_193856" data-name="Trazado 193856" d="M1.249,0A1.249,1.249,0,1,1,0,1.249,1.249,1.249,0,0,1,1.249,0Z" transform="translate(72.156 72.157)" fill="#e8e8e8"/>
          <path id="Trazado_193857" data-name="Trazado 193857" d="M1.249,0A1.249,1.249,0,1,1,0,1.249,1.249,1.249,0,0,1,1.249,0Z" transform="translate(78.778 72.157)" fill="#e8e8e8"/>
          <path id="Trazado_193858" data-name="Trazado 193858" d="M1.249,0A1.249,1.249,0,1,1,0,1.249,1.249,1.249,0,0,1,1.249,0Z" transform="translate(85.399 72.157)" fill="#e8e8e8"/>
          <path id="Trazado_193859" data-name="Trazado 193859" d="M1.249,0A1.249,1.249,0,1,1,0,1.249,1.249,1.249,0,0,1,1.249,0Z" transform="translate(92.02 72.157)" fill="#e8e8e8"/>
          <path id="Trazado_193860" data-name="Trazado 193860" d="M1.082,0A1.084,1.084,0,1,1,0,1.084,1.083,1.083,0,0,1,1.082,0Z" transform="translate(98.808 72.322)" fill="#e8e8e8"/>
          <ellipse id="Elipse_5599" data-name="Elipse 5599" cx="0.037" cy="0.037" rx="0.037" ry="0.037" transform="translate(106.476 73.369)" fill="#e8e8e8"/>
          <ellipse id="Elipse_5600" data-name="Elipse 5600" cx="0.312" cy="0.312" rx="0.312" ry="0.312" transform="translate(0.257 66.472)" fill="#e8e8e8"/>
          <ellipse id="Elipse_5601" data-name="Elipse 5601" cx="1.249" cy="1.249" rx="1.249" ry="1.249" transform="translate(5.942 65.535)" fill="#e8e8e8"/>
          <ellipse id="Elipse_5602" data-name="Elipse 5602" cx="1.249" cy="1.249" rx="1.249" ry="1.249" transform="translate(12.564 65.535)" fill="#e8e8e8"/>
          <ellipse id="Elipse_5603" data-name="Elipse 5603" cx="1.249" cy="1.249" rx="1.249" ry="1.249" transform="translate(19.185 65.535)" fill="#e8e8e8"/>
          <ellipse id="Elipse_5604" data-name="Elipse 5604" cx="1.249" cy="1.249" rx="1.249" ry="1.249" transform="translate(25.806 65.535)" fill="#e8e8e8"/>
          <ellipse id="Elipse_5605" data-name="Elipse 5605" cx="1.249" cy="1.249" rx="1.249" ry="1.249" transform="translate(32.428 65.535)" fill="#e8e8e8"/>
          <ellipse id="Elipse_5606" data-name="Elipse 5606" cx="1.249" cy="1.249" rx="1.249" ry="1.249" transform="translate(39.049 65.535)" fill="#e8e8e8"/>
          <ellipse id="Elipse_5607" data-name="Elipse 5607" cx="1.249" cy="1.249" rx="1.249" ry="1.249" transform="translate(45.671 65.535)" fill="#e8e8e8"/>
          <path id="Trazado_193861" data-name="Trazado 193861" d="M1.249,0A1.249,1.249,0,1,1,0,1.249,1.249,1.249,0,0,1,1.249,0Z" transform="translate(52.292 65.535)" fill="#e8e8e8"/>
          <path id="Trazado_193862" data-name="Trazado 193862" d="M1.249,0A1.249,1.249,0,1,1,0,1.249,1.249,1.249,0,0,1,1.249,0Z" transform="translate(58.914 65.535)" fill="#e8e8e8"/>
          <path id="Trazado_193863" data-name="Trazado 193863" d="M1.249,0A1.249,1.249,0,1,1,0,1.249,1.249,1.249,0,0,1,1.249,0Z" transform="translate(65.535 65.535)" fill="#e8e8e8"/>
          <path id="Trazado_193864" data-name="Trazado 193864" d="M1.249,0A1.249,1.249,0,1,1,0,1.249,1.249,1.249,0,0,1,1.249,0Z" transform="translate(72.156 65.535)" fill="#e8e8e8"/>
          <path id="Trazado_193865" data-name="Trazado 193865" d="M1.249,0A1.249,1.249,0,1,1,0,1.249,1.249,1.249,0,0,1,1.249,0Z" transform="translate(78.778 65.535)" fill="#e8e8e8"/>
          <path id="Trazado_193866" data-name="Trazado 193866" d="M1.249,0A1.249,1.249,0,1,1,0,1.249,1.249,1.249,0,0,1,1.249,0Z" transform="translate(85.399 65.535)" fill="#e8e8e8"/>
          <path id="Trazado_193867" data-name="Trazado 193867" d="M1.249,0A1.249,1.249,0,1,1,0,1.249,1.249,1.249,0,0,1,1.249,0Z" transform="translate(92.02 65.535)" fill="#e8e8e8"/>
          <path id="Trazado_193868" data-name="Trazado 193868" d="M1.247,0A1.249,1.249,0,1,1,0,1.249,1.248,1.248,0,0,1,1.247,0Z" transform="translate(98.643 65.535)" fill="#e8e8e8"/>
          <ellipse id="Elipse_5608" data-name="Elipse 5608" cx="0.275" cy="0.275" rx="0.275" ry="0.275" transform="translate(106.237 66.508)" fill="#e8e8e8"/>
          <path id="Trazado_193869" data-name="Trazado 193869" d="M.533,0A.533.533,0,1,1,0,.533.533.533,0,0,1,.533,0Z" transform="translate(0.037 59.63)" fill="#e8e8e8"/>
          <path id="Trazado_193870" data-name="Trazado 193870" d="M1.249,0A1.249,1.249,0,1,1,0,1.249,1.247,1.247,0,0,1,1.249,0Z" transform="translate(5.942 58.914)" fill="#e8e8e8"/>
          <path id="Trazado_193871" data-name="Trazado 193871" d="M1.249,0A1.249,1.249,0,1,1,0,1.249,1.247,1.247,0,0,1,1.249,0Z" transform="translate(12.564 58.914)" fill="#e8e8e8"/>
          <path id="Trazado_193872" data-name="Trazado 193872" d="M1.249,0A1.249,1.249,0,1,1,0,1.249,1.247,1.247,0,0,1,1.249,0Z" transform="translate(19.185 58.914)" fill="#e8e8e8"/>
          <path id="Trazado_193873" data-name="Trazado 193873" d="M1.249,0A1.249,1.249,0,1,1,0,1.249,1.247,1.247,0,0,1,1.249,0Z" transform="translate(25.807 58.914)" fill="#e8e8e8"/>
          <path id="Trazado_193874" data-name="Trazado 193874" d="M1.249,0A1.249,1.249,0,1,1,0,1.249,1.248,1.248,0,0,1,1.249,0Z" transform="translate(32.428 58.914)" fill="#e8e8e8"/>
          <path id="Trazado_193875" data-name="Trazado 193875" d="M1.249,0A1.249,1.249,0,1,1,0,1.249,1.248,1.248,0,0,1,1.249,0Z" transform="translate(39.049 58.914)" fill="#e8e8e8"/>
          <path id="Trazado_193876" data-name="Trazado 193876" d="M1.249,0A1.249,1.249,0,1,1,0,1.249,1.248,1.248,0,0,1,1.249,0Z" transform="translate(45.671 58.914)" fill="#e8e8e8"/>
          <path id="Trazado_193877" data-name="Trazado 193877" d="M1.249,0A1.249,1.249,0,1,1,0,1.249,1.248,1.248,0,0,1,1.249,0Z" transform="translate(52.292 58.914)" fill="#e8e8e8"/>
          <path id="Trazado_193878" data-name="Trazado 193878" d="M1.249,0A1.249,1.249,0,1,1,0,1.249,1.248,1.248,0,0,1,1.249,0Z" transform="translate(58.914 58.914)" fill="#e8e8e8"/>
          <path id="Trazado_193879" data-name="Trazado 193879" d="M1.249,0A1.249,1.249,0,1,1,0,1.249,1.248,1.248,0,0,1,1.249,0Z" transform="translate(65.535 58.914)" fill="#e8e8e8"/>
          <path id="Trazado_193880" data-name="Trazado 193880" d="M1.249,0A1.249,1.249,0,1,1,0,1.249,1.248,1.248,0,0,1,1.249,0Z" transform="translate(72.156 58.914)" fill="#e8e8e8"/>
          <path id="Trazado_193881" data-name="Trazado 193881" d="M1.249,0A1.249,1.249,0,1,1,0,1.249,1.248,1.248,0,0,1,1.249,0Z" transform="translate(78.778 58.914)" fill="#e8e8e8"/>
          <path id="Trazado_193882" data-name="Trazado 193882" d="M1.249,0A1.249,1.249,0,1,1,0,1.249,1.248,1.248,0,0,1,1.249,0Z" transform="translate(85.399 58.914)" fill="#e8e8e8"/>
          <path id="Trazado_193883" data-name="Trazado 193883" d="M1.249,0A1.249,1.249,0,1,1,0,1.249,1.248,1.248,0,0,1,1.249,0Z" transform="translate(92.02 58.914)" fill="#e8e8e8"/>
          <path id="Trazado_193884" data-name="Trazado 193884" d="M1.247,0A1.249,1.249,0,1,1,0,1.249,1.248,1.248,0,0,1,1.247,0Z" transform="translate(98.643 58.914)" fill="#e8e8e8"/>
          <path id="Trazado_193885" data-name="Trazado 193885" d="M.514,0A.514.514,0,1,1,0,.514.513.513,0,0,1,.514,0Z" transform="translate(105.998 59.649)" fill="#e8e8e8"/>
          <ellipse id="Elipse_5609" data-name="Elipse 5609" cx="0.569" cy="0.569" rx="0.569" ry="0.569" transform="translate(0 52.972)" fill="#e8e8e8"/>
          <path id="Trazado_193886" data-name="Trazado 193886" d="M1.249,0A1.249,1.249,0,1,1,0,1.249,1.247,1.247,0,0,1,1.249,0Z" transform="translate(5.942 52.293)" fill="#e8e8e8"/>
          <path id="Trazado_193887" data-name="Trazado 193887" d="M1.249,0A1.249,1.249,0,1,1,0,1.249,1.247,1.247,0,0,1,1.249,0Z" transform="translate(12.564 52.293)" fill="#e8e8e8"/>
          <path id="Trazado_193888" data-name="Trazado 193888" d="M1.249,0A1.249,1.249,0,1,1,0,1.249,1.247,1.247,0,0,1,1.249,0Z" transform="translate(19.185 52.293)" fill="#e8e8e8"/>
          <path id="Trazado_193889" data-name="Trazado 193889" d="M1.249,0A1.249,1.249,0,1,1,0,1.249,1.247,1.247,0,0,1,1.249,0Z" transform="translate(25.807 52.293)" fill="#e8e8e8"/>
          <path id="Trazado_193890" data-name="Trazado 193890" d="M1.249,0A1.249,1.249,0,1,1,0,1.249,1.249,1.249,0,0,1,1.249,0Z" transform="translate(32.428 52.293)" fill="#e8e8e8"/>
          <path id="Trazado_193891" data-name="Trazado 193891" d="M1.249,0A1.249,1.249,0,1,1,0,1.249,1.249,1.249,0,0,1,1.249,0Z" transform="translate(39.049 52.293)" fill="#e8e8e8"/>
          <path id="Trazado_193892" data-name="Trazado 193892" d="M1.249,0A1.249,1.249,0,1,1,0,1.249,1.249,1.249,0,0,1,1.249,0Z" transform="translate(45.671 52.293)" fill="#e8e8e8"/>
          <path id="Trazado_193893" data-name="Trazado 193893" d="M1.249,0A1.249,1.249,0,1,1,0,1.249,1.249,1.249,0,0,1,1.249,0Z" transform="translate(52.292 52.293)" fill="#e8e8e8"/>
          <path id="Trazado_193894" data-name="Trazado 193894" d="M1.249,0A1.249,1.249,0,1,1,0,1.249,1.249,1.249,0,0,1,1.249,0Z" transform="translate(58.914 52.293)" fill="#e8e8e8"/>
          <path id="Trazado_193895" data-name="Trazado 193895" d="M1.249,0A1.249,1.249,0,1,1,0,1.249,1.249,1.249,0,0,1,1.249,0Z" transform="translate(65.535 52.293)" fill="#e8e8e8"/>
          <path id="Trazado_193896" data-name="Trazado 193896" d="M1.249,0A1.249,1.249,0,1,1,0,1.249,1.249,1.249,0,0,1,1.249,0Z" transform="translate(72.156 52.293)" fill="#e8e8e8"/>
          <path id="Trazado_193897" data-name="Trazado 193897" d="M1.249,0A1.249,1.249,0,1,1,0,1.249,1.249,1.249,0,0,1,1.249,0Z" transform="translate(78.778 52.293)" fill="#e8e8e8"/>
          <path id="Trazado_193898" data-name="Trazado 193898" d="M1.249,0A1.249,1.249,0,1,1,0,1.249,1.249,1.249,0,0,1,1.249,0Z" transform="translate(85.399 52.293)" fill="#e8e8e8"/>
          <path id="Trazado_193899" data-name="Trazado 193899" d="M1.249,0A1.249,1.249,0,1,1,0,1.249,1.249,1.249,0,0,1,1.249,0Z" transform="translate(92.02 52.293)" fill="#e8e8e8"/>
          <path id="Trazado_193900" data-name="Trazado 193900" d="M1.247,0A1.249,1.249,0,1,1,0,1.249,1.248,1.248,0,0,1,1.247,0Z" transform="translate(98.643 52.293)" fill="#e8e8e8"/>
          <path id="Trazado_193901" data-name="Trazado 193901" d="M.568,0A.569.569,0,1,1,0,.57.569.569,0,0,1,.568,0Z" transform="translate(105.944 52.972)" fill="#e8e8e8"/>
          <path id="Trazado_193902" data-name="Trazado 193902" d="M.533,0A.533.533,0,1,1,0,.533.533.533,0,0,1,.533,0Z" transform="translate(0.037 46.387)" fill="#e8e8e8"/>
          <path id="Trazado_193903" data-name="Trazado 193903" d="M1.249,0A1.248,1.248,0,1,1,0,1.249,1.247,1.247,0,0,1,1.249,0Z" transform="translate(5.942 45.671)" fill="#e8e8e8"/>
          <path id="Trazado_193904" data-name="Trazado 193904" d="M1.249,0A1.248,1.248,0,1,1,0,1.249,1.247,1.247,0,0,1,1.249,0Z" transform="translate(12.564 45.671)" fill="#e8e8e8"/>
          <path id="Trazado_193905" data-name="Trazado 193905" d="M1.249,0A1.248,1.248,0,1,1,0,1.249,1.247,1.247,0,0,1,1.249,0Z" transform="translate(19.185 45.671)" fill="#e8e8e8"/>
          <path id="Trazado_193906" data-name="Trazado 193906" d="M1.249,0A1.248,1.248,0,1,1,0,1.249,1.247,1.247,0,0,1,1.249,0Z" transform="translate(25.807 45.671)" fill="#e8e8e8"/>
          <path id="Trazado_193907" data-name="Trazado 193907" d="M1.249,0A1.248,1.248,0,1,1,0,1.249,1.249,1.249,0,0,1,1.249,0Z" transform="translate(32.428 45.671)" fill="#e8e8e8"/>
          <path id="Trazado_193908" data-name="Trazado 193908" d="M1.249,0A1.248,1.248,0,1,1,0,1.249,1.249,1.249,0,0,1,1.249,0Z" transform="translate(39.049 45.671)" fill="#e8e8e8"/>
          <path id="Trazado_193909" data-name="Trazado 193909" d="M1.249,0A1.248,1.248,0,1,1,0,1.249,1.249,1.249,0,0,1,1.249,0Z" transform="translate(45.671 45.671)" fill="#e8e8e8"/>
          <path id="Trazado_193910" data-name="Trazado 193910" d="M1.249,0A1.248,1.248,0,1,1,0,1.249,1.249,1.249,0,0,1,1.249,0Z" transform="translate(52.292 45.671)" fill="#e8e8e8"/>
          <path id="Trazado_193911" data-name="Trazado 193911" d="M1.249,0A1.248,1.248,0,1,1,0,1.249,1.249,1.249,0,0,1,1.249,0Z" transform="translate(58.914 45.671)" fill="#e8e8e8"/>
          <path id="Trazado_193912" data-name="Trazado 193912" d="M1.249,0A1.248,1.248,0,1,1,0,1.249,1.249,1.249,0,0,1,1.249,0Z" transform="translate(65.535 45.671)" fill="#e8e8e8"/>
          <path id="Trazado_193913" data-name="Trazado 193913" d="M1.249,0A1.248,1.248,0,1,1,0,1.249,1.249,1.249,0,0,1,1.249,0Z" transform="translate(72.156 45.671)" fill="#e8e8e8"/>
          <path id="Trazado_193914" data-name="Trazado 193914" d="M1.249,0A1.248,1.248,0,1,1,0,1.249,1.249,1.249,0,0,1,1.249,0Z" transform="translate(78.778 45.671)" fill="#e8e8e8"/>
          <path id="Trazado_193915" data-name="Trazado 193915" d="M1.249,0A1.248,1.248,0,1,1,0,1.249,1.249,1.249,0,0,1,1.249,0Z" transform="translate(85.399 45.671)" fill="#e8e8e8"/>
          <path id="Trazado_193916" data-name="Trazado 193916" d="M1.249,0A1.248,1.248,0,1,1,0,1.249,1.249,1.249,0,0,1,1.249,0Z" transform="translate(92.02 45.671)" fill="#e8e8e8"/>
          <path id="Trazado_193917" data-name="Trazado 193917" d="M1.247,0A1.248,1.248,0,1,1,0,1.249,1.248,1.248,0,0,1,1.247,0Z" transform="translate(98.643 45.671)" fill="#e8e8e8"/>
          <path id="Trazado_193918" data-name="Trazado 193918" d="M.5,0A.5.5,0,1,1,0,.5.5.5,0,0,1,.5,0Z" transform="translate(106.016 46.424)" fill="#e8e8e8"/>
          <ellipse id="Elipse_5610" data-name="Elipse 5610" cx="0.294" cy="0.294" rx="0.294" ry="0.294" transform="translate(0.275 40.004)" fill="#e8e8e8"/>
          <path id="Trazado_193919" data-name="Trazado 193919" d="M1.249,0A1.248,1.248,0,1,1,0,1.249,1.247,1.247,0,0,1,1.249,0Z" transform="translate(5.942 39.05)" fill="#e8e8e8"/>
          <path id="Trazado_193920" data-name="Trazado 193920" d="M1.249,0A1.248,1.248,0,1,1,0,1.249,1.247,1.247,0,0,1,1.249,0Z" transform="translate(12.564 39.05)" fill="#e8e8e8"/>
          <path id="Trazado_193921" data-name="Trazado 193921" d="M1.249,0A1.248,1.248,0,1,1,0,1.249,1.247,1.247,0,0,1,1.249,0Z" transform="translate(19.185 39.05)" fill="#e8e8e8"/>
          <path id="Trazado_193922" data-name="Trazado 193922" d="M1.249,0A1.248,1.248,0,1,1,0,1.249,1.247,1.247,0,0,1,1.249,0Z" transform="translate(25.807 39.05)" fill="#e8e8e8"/>
          <path id="Trazado_193923" data-name="Trazado 193923" d="M1.249,0A1.248,1.248,0,1,1,0,1.249,1.249,1.249,0,0,1,1.249,0Z" transform="translate(32.428 39.05)" fill="#e8e8e8"/>
          <path id="Trazado_193924" data-name="Trazado 193924" d="M1.249,0A1.248,1.248,0,1,1,0,1.249,1.249,1.249,0,0,1,1.249,0Z" transform="translate(39.049 39.05)" fill="#e8e8e8"/>
          <path id="Trazado_193925" data-name="Trazado 193925" d="M1.249,0A1.248,1.248,0,1,1,0,1.249,1.249,1.249,0,0,1,1.249,0Z" transform="translate(45.671 39.05)" fill="#e8e8e8"/>
          <path id="Trazado_193926" data-name="Trazado 193926" d="M1.249,0A1.248,1.248,0,1,1,0,1.249,1.249,1.249,0,0,1,1.249,0Z" transform="translate(52.292 39.05)" fill="#e8e8e8"/>
          <path id="Trazado_193927" data-name="Trazado 193927" d="M1.249,0A1.248,1.248,0,1,1,0,1.249,1.249,1.249,0,0,1,1.249,0Z" transform="translate(58.914 39.05)" fill="#e8e8e8"/>
          <path id="Trazado_193928" data-name="Trazado 193928" d="M1.249,0A1.248,1.248,0,1,1,0,1.249,1.249,1.249,0,0,1,1.249,0Z" transform="translate(65.535 39.05)" fill="#e8e8e8"/>
          <path id="Trazado_193929" data-name="Trazado 193929" d="M1.249,0A1.248,1.248,0,1,1,0,1.249,1.249,1.249,0,0,1,1.249,0Z" transform="translate(72.156 39.05)" fill="#e8e8e8"/>
          <path id="Trazado_193930" data-name="Trazado 193930" d="M1.249,0A1.248,1.248,0,1,1,0,1.249,1.249,1.249,0,0,1,1.249,0Z" transform="translate(78.778 39.05)" fill="#e8e8e8"/>
          <path id="Trazado_193931" data-name="Trazado 193931" d="M1.249,0A1.248,1.248,0,1,1,0,1.249,1.249,1.249,0,0,1,1.249,0Z" transform="translate(85.399 39.05)" fill="#e8e8e8"/>
          <path id="Trazado_193932" data-name="Trazado 193932" d="M1.249,0A1.248,1.248,0,1,1,0,1.249,1.249,1.249,0,0,1,1.249,0Z" transform="translate(92.02 39.05)" fill="#e8e8e8"/>
          <path id="Trazado_193933" data-name="Trazado 193933" d="M1.247,0A1.248,1.248,0,1,1,0,1.249,1.248,1.248,0,0,1,1.247,0Z" transform="translate(98.643 39.05)" fill="#e8e8e8"/>
          <ellipse id="Elipse_5611" data-name="Elipse 5611" cx="0.275" cy="0.275" rx="0.275" ry="0.275" transform="translate(106.237 40.023)" fill="#e8e8e8"/>
          <ellipse id="Elipse_5612" data-name="Elipse 5612" cx="0.018" cy="0.018" rx="0.018" ry="0.018" transform="translate(0.551 33.658)" fill="#e8e8e8"/>
          <path id="Trazado_193934" data-name="Trazado 193934" d="M1.1,0A1.1,1.1,0,1,1,0,1.1,1.1,1.1,0,0,1,1.1,0Z" transform="translate(6.089 32.575)" fill="#e8e8e8"/>
          <path id="Trazado_193935" data-name="Trazado 193935" d="M1.249,0A1.248,1.248,0,1,1,0,1.247,1.247,1.247,0,0,1,1.249,0Z" transform="translate(12.564 32.428)" fill="#e8e8e8"/>
          <path id="Trazado_193936" data-name="Trazado 193936" d="M1.249,0A1.248,1.248,0,1,1,0,1.247,1.247,1.247,0,0,1,1.249,0" transform="translate(19.185 32.428)" fill="#e8e8e8"/>
          <path id="Trazado_193937" data-name="Trazado 193937" d="M1.249,0A1.248,1.248,0,1,1,0,1.247,1.247,1.247,0,0,1,1.249,0Z" transform="translate(25.807 32.428)" fill="#e8e8e8"/>
          <path id="Trazado_193938" data-name="Trazado 193938" d="M1.249,0A1.248,1.248,0,1,1,0,1.247,1.248,1.248,0,0,1,1.249,0Z" transform="translate(32.428 32.428)" fill="#e8e8e8"/>
          <path id="Trazado_193939" data-name="Trazado 193939" d="M1.249,0A1.248,1.248,0,1,1,0,1.247,1.248,1.248,0,0,1,1.249,0Z" transform="translate(39.049 32.428)" fill="#e8e8e8"/>
          <path id="Trazado_193940" data-name="Trazado 193940" d="M1.249,0A1.248,1.248,0,1,1,0,1.247,1.248,1.248,0,0,1,1.249,0Z" transform="translate(45.671 32.428)" fill="#e8e8e8"/>
          <path id="Trazado_193941" data-name="Trazado 193941" d="M1.249,0A1.248,1.248,0,1,1,0,1.247,1.248,1.248,0,0,1,1.249,0Z" transform="translate(52.292 32.428)" fill="#e8e8e8"/>
          <path id="Trazado_193942" data-name="Trazado 193942" d="M1.249,0A1.248,1.248,0,1,1,0,1.247,1.248,1.248,0,0,1,1.249,0Z" transform="translate(58.914 32.428)" fill="#e8e8e8"/>
          <path id="Trazado_193943" data-name="Trazado 193943" d="M1.249,0A1.248,1.248,0,1,1,0,1.247,1.248,1.248,0,0,1,1.249,0Z" transform="translate(65.535 32.428)" fill="#e8e8e8"/>
          <path id="Trazado_193944" data-name="Trazado 193944" d="M1.249,0A1.248,1.248,0,1,1,0,1.247,1.248,1.248,0,0,1,1.249,0Z" transform="translate(72.156 32.428)" fill="#e8e8e8"/>
          <path id="Trazado_193945" data-name="Trazado 193945" d="M1.249,0A1.248,1.248,0,1,1,0,1.247,1.248,1.248,0,0,1,1.249,0Z" transform="translate(78.778 32.428)" fill="#e8e8e8"/>
          <path id="Trazado_193946" data-name="Trazado 193946" d="M1.249,0A1.248,1.248,0,1,1,0,1.247,1.248,1.248,0,0,1,1.249,0Z" transform="translate(85.399 32.428)" fill="#e8e8e8"/>
          <path id="Trazado_193947" data-name="Trazado 193947" d="M1.249,0A1.248,1.248,0,1,1,0,1.247,1.248,1.248,0,0,1,1.249,0Z" transform="translate(92.02 32.428)" fill="#e8e8e8"/>
          <path id="Trazado_193948" data-name="Trazado 193948" d="M1.082,0A1.083,1.083,0,1,1,0,1.082,1.082,1.082,0,0,1,1.082,0Z" transform="translate(98.808 32.594)" fill="#e8e8e8"/>
          <ellipse id="Elipse_5613" data-name="Elipse 5613" cx="0.037" cy="0.037" rx="0.037" ry="0.037" transform="translate(106.476 33.64)" fill="#e8e8e8"/>
          <path id="Trazado_193949" data-name="Trazado 193949" d="M.515,0A.515.515,0,1,1,0,.514.515.515,0,0,1,.515,0Z" transform="translate(6.676 26.54)" fill="#e8e8e8"/>
          <path id="Trazado_193950" data-name="Trazado 193950" d="M1.249,0A1.248,1.248,0,1,1,0,1.247,1.247,1.247,0,0,1,1.249,0Z" transform="translate(12.564 25.807)" fill="#e8e8e8"/>
          <path id="Trazado_193951" data-name="Trazado 193951" d="M1.249,0A1.248,1.248,0,1,1,0,1.247,1.247,1.247,0,0,1,1.249,0Z" transform="translate(19.185 25.807)" fill="#e8e8e8"/>
          <path id="Trazado_193952" data-name="Trazado 193952" d="M1.249,0A1.248,1.248,0,1,1,0,1.247,1.247,1.247,0,0,1,1.249,0Z" transform="translate(25.807 25.807)" fill="#e8e8e8"/>
          <path id="Trazado_193953" data-name="Trazado 193953" d="M1.249,0A1.248,1.248,0,1,1,0,1.247,1.248,1.248,0,0,1,1.249,0Z" transform="translate(32.428 25.807)" fill="#e8e8e8"/>
          <path id="Trazado_193954" data-name="Trazado 193954" d="M1.249,0A1.248,1.248,0,1,1,0,1.247,1.248,1.248,0,0,1,1.249,0Z" transform="translate(39.049 25.807)" fill="#e8e8e8"/>
          <path id="Trazado_193955" data-name="Trazado 193955" d="M1.249,0A1.248,1.248,0,1,1,0,1.247,1.248,1.248,0,0,1,1.249,0Z" transform="translate(45.671 25.807)" fill="#e8e8e8"/>
          <path id="Trazado_193956" data-name="Trazado 193956" d="M1.249,0A1.248,1.248,0,1,1,0,1.247,1.248,1.248,0,0,1,1.249,0Z" transform="translate(52.292 25.807)" fill="#e8e8e8"/>
          <path id="Trazado_193957" data-name="Trazado 193957" d="M1.249,0A1.248,1.248,0,1,1,0,1.247,1.248,1.248,0,0,1,1.249,0Z" transform="translate(58.914 25.807)" fill="#e8e8e8"/>
          <path id="Trazado_193958" data-name="Trazado 193958" d="M1.249,0A1.248,1.248,0,1,1,0,1.247,1.248,1.248,0,0,1,1.249,0Z" transform="translate(65.535 25.807)" fill="#e8e8e8"/>
          <path id="Trazado_193959" data-name="Trazado 193959" d="M1.249,0A1.248,1.248,0,1,1,0,1.247,1.248,1.248,0,0,1,1.249,0Z" transform="translate(72.156 25.807)" fill="#e8e8e8"/>
          <path id="Trazado_193960" data-name="Trazado 193960" d="M1.249,0A1.248,1.248,0,1,1,0,1.247,1.248,1.248,0,0,1,1.249,0Z" transform="translate(78.778 25.807)" fill="#e8e8e8"/>
          <path id="Trazado_193961" data-name="Trazado 193961" d="M1.249,0A1.248,1.248,0,1,1,0,1.247,1.248,1.248,0,0,1,1.249,0Z" transform="translate(85.399 25.807)" fill="#e8e8e8"/>
          <path id="Trazado_193962" data-name="Trazado 193962" d="M1.249,0A1.248,1.248,0,1,1,0,1.247,1.248,1.248,0,0,1,1.249,0Z" transform="translate(92.02 25.807)" fill="#e8e8e8"/>
          <path id="Trazado_193963" data-name="Trazado 193963" d="M.5,0A.5.5,0,1,1,0,.5.5.5,0,0,1,.5,0Z" transform="translate(99.395 26.559)" fill="#e8e8e8"/>
          <ellipse id="Elipse_5614" data-name="Elipse 5614" cx="0.018" cy="0.018" rx="0.018" ry="0.018" transform="translate(7.172 20.415)" fill="#e8e8e8"/>
          <path id="Trazado_193964" data-name="Trazado 193964" d="M.881,0A.881.881,0,1,1,0,.881.883.883,0,0,1,.881,0Z" transform="translate(12.931 19.552)" fill="#e8e8e8"/>
          <ellipse id="Elipse_5615" data-name="Elipse 5615" cx="1.249" cy="1.249" rx="1.249" ry="1.249" transform="translate(19.185 19.185)" fill="#e8e8e8"/>
          <ellipse id="Elipse_5616" data-name="Elipse 5616" cx="1.249" cy="1.249" rx="1.249" ry="1.249" transform="translate(25.806 19.185)" fill="#e8e8e8"/>
          <ellipse id="Elipse_5617" data-name="Elipse 5617" cx="1.249" cy="1.249" rx="1.249" ry="1.249" transform="translate(32.428 19.185)" fill="#e8e8e8"/>
          <ellipse id="Elipse_5618" data-name="Elipse 5618" cx="1.249" cy="1.249" rx="1.249" ry="1.249" transform="translate(39.049 19.185)" fill="#e8e8e8"/>
          <ellipse id="Elipse_5619" data-name="Elipse 5619" cx="1.249" cy="1.249" rx="1.249" ry="1.249" transform="translate(45.671 19.185)" fill="#e8e8e8"/>
          <path id="Trazado_193965" data-name="Trazado 193965" d="M1.249,0A1.248,1.248,0,1,1,0,1.247,1.248,1.248,0,0,1,1.249,0Z" transform="translate(52.292 19.186)" fill="#e8e8e8"/>
          <path id="Trazado_193966" data-name="Trazado 193966" d="M1.249,0A1.248,1.248,0,1,1,0,1.247,1.248,1.248,0,0,1,1.249,0Z" transform="translate(58.914 19.186)" fill="#e8e8e8"/>
          <path id="Trazado_193967" data-name="Trazado 193967" d="M1.249,0A1.248,1.248,0,1,1,0,1.247,1.248,1.248,0,0,1,1.249,0Z" transform="translate(65.535 19.186)" fill="#e8e8e8"/>
          <path id="Trazado_193968" data-name="Trazado 193968" d="M1.249,0A1.248,1.248,0,1,1,0,1.247,1.248,1.248,0,0,1,1.249,0Z" transform="translate(72.156 19.186)" fill="#e8e8e8"/>
          <path id="Trazado_193969" data-name="Trazado 193969" d="M1.249,0A1.248,1.248,0,1,1,0,1.247,1.248,1.248,0,0,1,1.249,0Z" transform="translate(78.778 19.186)" fill="#e8e8e8"/>
          <path id="Trazado_193970" data-name="Trazado 193970" d="M1.249,0A1.248,1.248,0,1,1,0,1.247,1.248,1.248,0,0,1,1.249,0Z" transform="translate(85.399 19.186)" fill="#e8e8e8"/>
          <path id="Trazado_193971" data-name="Trazado 193971" d="M.863,0A.864.864,0,1,1,0,.863.863.863,0,0,1,.863,0Z" transform="translate(92.406 19.57)" fill="#e8e8e8"/>
          <ellipse id="Elipse_5620" data-name="Elipse 5620" cx="0.018" cy="0.018" rx="0.018" ry="0.018" transform="translate(99.873 20.415)" fill="#e8e8e8"/>
          <ellipse id="Elipse_5621" data-name="Elipse 5621" cx="0.055" cy="0.055" rx="0.055" ry="0.055" transform="translate(13.757 13.757)" fill="#e8e8e8"/>
          <path id="Trazado_193972" data-name="Trazado 193972" d="M.881,0A.881.881,0,1,1,0,.881.883.883,0,0,1,.881,0Z" transform="translate(19.553 12.93)" fill="#e8e8e8"/>
          <ellipse id="Elipse_5622" data-name="Elipse 5622" cx="1.249" cy="1.249" rx="1.249" ry="1.249" transform="translate(25.806 12.564)" fill="#e8e8e8"/>
          <ellipse id="Elipse_5623" data-name="Elipse 5623" cx="1.249" cy="1.249" rx="1.249" ry="1.249" transform="translate(32.428 12.564)" fill="#e8e8e8"/>
          <ellipse id="Elipse_5624" data-name="Elipse 5624" cx="1.249" cy="1.249" rx="1.249" ry="1.249" transform="translate(39.049 12.564)" fill="#e8e8e8"/>
          <ellipse id="Elipse_5625" data-name="Elipse 5625" cx="1.249" cy="1.249" rx="1.249" ry="1.249" transform="translate(45.671 12.564)" fill="#e8e8e8"/>
          <path id="Trazado_193973" data-name="Trazado 193973" d="M1.249,0A1.248,1.248,0,1,1,0,1.247,1.248,1.248,0,0,1,1.249,0Z" transform="translate(52.292 12.564)" fill="#e8e8e8"/>
          <path id="Trazado_193974" data-name="Trazado 193974" d="M1.249,0A1.248,1.248,0,1,1,0,1.247,1.248,1.248,0,0,1,1.249,0Z" transform="translate(58.914 12.564)" fill="#e8e8e8"/>
          <path id="Trazado_193975" data-name="Trazado 193975" d="M1.249,0A1.248,1.248,0,1,1,0,1.247,1.248,1.248,0,0,1,1.249,0Z" transform="translate(65.535 12.564)" fill="#e8e8e8"/>
          <path id="Trazado_193976" data-name="Trazado 193976" d="M1.249,0A1.248,1.248,0,1,1,0,1.247,1.248,1.248,0,0,1,1.249,0Z" transform="translate(72.156 12.564)" fill="#e8e8e8"/>
          <path id="Trazado_193977" data-name="Trazado 193977" d="M1.249,0A1.248,1.248,0,1,1,0,1.247,1.248,1.248,0,0,1,1.249,0Z" transform="translate(78.778 12.564)" fill="#e8e8e8"/>
          <path id="Trazado_193978" data-name="Trazado 193978" d="M.863,0A.863.863,0,1,1,0,.863.863.863,0,0,1,.863,0Z" transform="translate(85.785 12.949)" fill="#e8e8e8"/>
          <path id="Trazado_193979" data-name="Trazado 193979" d="M.073,0A.073.073,0,1,1,0,.073.073.073,0,0,1,.073,0Z" transform="translate(93.197 13.739)" fill="#e8e8e8"/>
          <ellipse id="Elipse_5626" data-name="Elipse 5626" cx="0.018" cy="0.018" rx="0.018" ry="0.018" transform="translate(20.415 7.172)" fill="#e8e8e8"/>
          <path id="Trazado_193980" data-name="Trazado 193980" d="M.514,0A.514.514,0,1,1,0,.514.515.515,0,0,1,.514,0Z" transform="translate(26.541 6.676)" fill="#e8e8e8"/>
          <path id="Trazado_193981" data-name="Trazado 193981" d="M1.084,0A1.083,1.083,0,1,1,0,1.082,1.083,1.083,0,0,1,1.084,0Z" transform="translate(32.593 6.108)" fill="#e8e8e8"/>
          <ellipse id="Elipse_5627" data-name="Elipse 5627" cx="1.249" cy="1.249" rx="1.249" ry="1.249" transform="translate(39.049 5.942)" fill="#e8e8e8"/>
          <ellipse id="Elipse_5628" data-name="Elipse 5628" cx="1.249" cy="1.249" rx="1.249" ry="1.249" transform="translate(45.671 5.942)" fill="#e8e8e8"/>
          <path id="Trazado_193982" data-name="Trazado 193982" d="M1.249,0A1.248,1.248,0,1,1,0,1.247,1.248,1.248,0,0,1,1.249,0Z" transform="translate(52.292 5.943)" fill="#e8e8e8"/>
          <path id="Trazado_193983" data-name="Trazado 193983" d="M1.249,0A1.248,1.248,0,1,1,0,1.247,1.248,1.248,0,0,1,1.249,0Z" transform="translate(58.914 5.943)" fill="#e8e8e8"/>
          <path id="Trazado_193984" data-name="Trazado 193984" d="M1.249,0A1.248,1.248,0,1,1,0,1.247,1.248,1.248,0,0,1,1.249,0Z" transform="translate(65.535 5.943)" fill="#e8e8e8"/>
          <path id="Trazado_193985" data-name="Trazado 193985" d="M1.084,0A1.083,1.083,0,1,1,0,1.082,1.083,1.083,0,0,1,1.084,0Z" transform="translate(72.321 6.108)" fill="#e8e8e8"/>
          <path id="Trazado_193986" data-name="Trazado 193986" d="M.5,0A.5.5,0,1,1,0,.5.5.5,0,0,1,.5,0Z" transform="translate(79.531 6.695)" fill="#e8e8e8"/>
          <ellipse id="Elipse_5629" data-name="Elipse 5629" cx="0.018" cy="0.018" rx="0.018" ry="0.018" transform="translate(86.63 7.172)" fill="#e8e8e8"/>
          <ellipse id="Elipse_5630" data-name="Elipse 5630" cx="0.037" cy="0.037" rx="0.037" ry="0.037" transform="translate(33.64 0.532)" fill="#e8e8e8"/>
          <path id="Trazado_193987" data-name="Trazado 193987" d="M.275,0A.276.276,0,1,1,0,.275.274.274,0,0,1,.275,0Z" transform="translate(40.023 0.294)" fill="#e8e8e8"/>
          <path id="Trazado_193988" data-name="Trazado 193988" d="M.514,0A.514.514,0,1,1,0,.514.515.515,0,0,1,.514,0Z" transform="translate(46.406 0.055)" fill="#e8e8e8"/>
          <ellipse id="Elipse_5631" data-name="Elipse 5631" cx="0.569" cy="0.569" rx="0.569" ry="0.569" transform="translate(52.972)" fill="#e8e8e8"/>
          <path id="Trazado_193989" data-name="Trazado 193989" d="M.514,0A.514.514,0,1,1,0,.514.515.515,0,0,1,.514,0Z" transform="translate(59.648 0.055)" fill="#e8e8e8"/>
          <path id="Trazado_193990" data-name="Trazado 193990" d="M.275,0A.276.276,0,1,1,0,.275.274.274,0,0,1,.275,0Z" transform="translate(66.509 0.294)" fill="#e8e8e8"/>
          <ellipse id="Elipse_5632" data-name="Elipse 5632" cx="0.037" cy="0.037" rx="0.037" ry="0.037" transform="translate(73.369 0.532)" fill="#e8e8e8"/>
        </g>
      </g>
      <g id="Grupo_169387" data-name="Grupo 169387" transform="translate(186.993 4929.825)">
        <path id="Trazado_211593" data-name="Trazado 211593" d="M3.618,289.064c.151.246.308.484.47.718l25.228-15.464c-.135-.25-.277-.5-.427-.745-.222-.362-.458-.709-.7-1.047L3,287.96c.187.373.391.741.613,1.1" transform="translate(-1.524 -266.671)" fill="#def2f4"/>
        <path id="Trazado_211594" data-name="Trazado 211594" d="M21.287,306.2l17.105-10.485a14.854,14.854,0,0,0,.514-2.8L18.559,305.383a14.913,14.913,0,0,0,2.728.813" transform="translate(-9.409 -277.006)" fill="#def2f4"/>
        <path id="Trazado_211595" data-name="Trazado 211595" d="M10.805,298.083l23.2-14.221a14.663,14.663,0,0,0-.484-2.188L9.074,296.658a14.721,14.721,0,0,0,1.731,1.424" transform="translate(-4.6 -271.308)" fill="#def2f4"/>
        <path id="Trazado_211596" data-name="Trazado 211596" d="M40.334,312.217a14.778,14.778,0,0,0,4.058-3.667l-9.168,5.62a14.784,14.784,0,0,0,5.11-1.953" transform="translate(-17.858 -284.935)" fill="#def2f4"/>
        <path id="Trazado_211597" data-name="Trazado 211597" d="M.424,281.517l24.257-14.869a14.646,14.646,0,0,0-1.791-1.388L0,279.291a14.665,14.665,0,0,0,.424,2.225" transform="translate(0 -262.987)" fill="#def2f4"/>
        <path id="Trazado_211598" data-name="Trazado 211598" d="M10.811,263a14.808,14.808,0,0,0-3.265,2.711l7.161-4.389a14.8,14.8,0,0,0-3.9,1.678" transform="translate(-3.826 -260.992)" fill="#def2f4"/>
        <path id="Trazado_211599" data-name="Trazado 211599" d="M.029,273.537l19.825-12.152A14.913,14.913,0,0,0,17,260.649L.669,270.658a14.872,14.872,0,0,0-.64,2.878" transform="translate(-0.015 -260.649)" fill="#def2f4"/>
      </g>
    </g>
    <g id="Grupo_173420" data-name="Grupo 173420" transform="translate(600 2908.793)">
      <g id="Grupo_173419" data-name="Grupo 173419" clip-path="url(#clip-path-2)">
        <path id="Trazado_214107" data-name="Trazado 214107" d="M96.118,106.453c-1.421-3.6-4.766-6.3-8.807-5.686-3.5.535-6.641,4.111-5.285,7.723a.414.414,0,0,0,.809-.109c.012-3.44,1.841-6.457,5.677-6.367,3.063.071,5.25,2.29,6.435,4.932.294.655,1.439.183,1.171-.494" transform="translate(-10.686 -13.168)" fill="#e94e21"/>
        <path id="Trazado_214108" data-name="Trazado 214108" d="M106.065,136.783A67.857,67.857,0,0,1,75.5,140.539L74.13,108.252l25.448-3.127,5.484,26.746Z" transform="translate(-9.695 -13.749)" fill="#0b67d1"/>
        <path id="Trazado_214109" data-name="Trazado 214109" d="M89.782,100.664a.419.419,0,0,0-.36.628c.833,1.094,2.036,1.748,2.782,2.967a8.232,8.232,0,0,1,1.176,4.466.712.712,0,0,0,1.424,0c.2-2.845-1.685-7.748-5.022-8.06" transform="translate(-11.687 -13.165)" fill="#254f79"/>
        <path id="Trazado_214110" data-name="Trazado 214110" d="M80.967,102.686a16.505,16.505,0,0,0,.217-4.77c-.2-.382,1.872-2.263,1.872-2.263L81.531,92.09l5.152-3.149.043.1,1.912,3.438s.8,1.972,1.067,2.557,1.491,2.713,1.735,3.453-.971,2.482-1.443,2.862-.474,1.5-.5,2.1-1.124.891-2.019,1.113a1.094,1.094,0,0,1-.752-.2c-.945-.54-2.155-1.921-2.535-1.851a7,7,0,0,0-1.751,1.248s-1.745-.544-1.475-1.08" transform="translate(-10.586 -11.632)" fill="#cc7256"/>
        <path id="Trazado_214111" data-name="Trazado 214111" d="M89.942,98.146a20.8,20.8,0,0,0-2.34-7.479c-.216-.47-.435-.939-.653-1.409l.52-.317.042.1,1.913,3.438s.8,1.972,1.067,2.556,1.491,2.714,1.735,3.454-.971,2.482-1.443,2.862-.475,1.5-.5,2.1-1.124.891-2.02,1.113a1.1,1.1,0,0,1-.752-.2,7.6,7.6,0,0,0,2.429-6.223" transform="translate(-11.372 -11.632)" fill="#a04f39"/>
        <path id="Trazado_214112" data-name="Trazado 214112" d="M77.645,86.415,85.7,82.047s-6.675-23.615-7.527-25.485S69.621,39.441,59.79,36.229l6.44,14.638,3.118,12.445Z" transform="translate(-7.82 -4.738)" fill="#456997"/>
        <path id="Trazado_214113" data-name="Trazado 214113" d="M26.686,104.99c-2.549,1-3.424,4.788-2.95,7.2.153.781,1.508.615,1.408-.19a6.825,6.825,0,0,1,.339-3.465,19.141,19.141,0,0,1,1.823-2.738c.229-.382-.159-.987-.62-.807" transform="translate(-3.088 -13.727)" fill="#3a435e"/>
        <path id="Trazado_214114" data-name="Trazado 214114" d="M33.35,113c.038-3.867-2.042-7.634-6.018-8.583-3.445-.821-7.7,1.308-7.8,5.165a.414.414,0,0,0,.791.2c1.306-3.182,4.136-5.288,7.656-3.761,2.811,1.22,4,4.1,4.1,6.992.026.717,1.264.711,1.271-.017" transform="translate(-2.554 -13.633)" fill="#e94e21"/>
        <path id="Trazado_214115" data-name="Trazado 214115" d="M29.729,144.97A67.832,67.832,0,0,1,0,136.943l10.885-30.427L35.638,113.2l-4.989,26.842Z" transform="translate(0 -13.931)" fill="#ffb15f"/>
        <path id="Trazado_214116" data-name="Trazado 214116" d="M37.5,176.135l7.877.672,2.554-20.442.682-5.482H38.955l-.3,5.221Z" transform="translate(-4.904 -19.734)" fill="#cc7256"/>
        <path id="Trazado_214117" data-name="Trazado 214117" d="M61.936,149.7l.154,6.769.564,25.339h8.38l1.41-25.232.349-6.277Z" transform="translate(-8.1 -19.579)" fill="#cc7256"/>
        <path id="Trazado_214118" data-name="Trazado 214118" d="M72.792,150.3l-10.856-.6.154,6.769c4.02.071,7.7.123,10.354.108Z" transform="translate(-8.1 -19.579)" fill="#a04f39"/>
        <path id="Trazado_214119" data-name="Trazado 214119" d="M38.826,156.1c2.667.082,5.887.175,9.277.262l.682-5.482H39.128Z" transform="translate(-5.078 -19.734)" fill="#a04f39"/>
        <path id="Trazado_214120" data-name="Trazado 214120" d="M83.538,192.38a1.338,1.338,0,0,0-.768-1.074c-1.492-.652-6.97-2.668-8.456-3.822a11.586,11.586,0,0,1-2.57-3.674l-10.178.522a76.7,76.7,0,0,0-1.027,8.641Z" transform="translate(-7.918 -24.04)" fill="#3a435e"/>
        <path id="Trazado_214121" data-name="Trazado 214121" d="M83.606,195.936l-23,.592-.069-2.266,23-.592Z" transform="translate(-7.918 -25.33)" fill="#fde4d9"/>
        <path id="Trazado_214122" data-name="Trazado 214122" d="M31.931,192.709s4.991,3.516,6.352,3.63,8.505-1.7,8.505-2.61c0-.318-.155-1.444-.372-2.8a40.159,40.159,0,0,0-1.328-6.273c-.454-.681,0-4.763,0-4.763s-7.374-1.7-8.394-1.361c-.788.263-3.2,8.567-4.257,12.341-.312,1.117-.507,1.838-.507,1.838" transform="translate(-4.176 -23.344)" fill="#3a435e"/>
        <path id="Trazado_214123" data-name="Trazado 214123" d="M31.931,194.573s4.991,3.516,6.352,3.63,8.505-1.7,8.505-2.61c0-.318-.155-1.444-.372-2.8-2.325.912-7.3,2.716-8.947,2.126-1.114-.4-3.235-1.353-5.032-2.183-.312,1.117-.507,1.838-.507,1.838" transform="translate(-4.176 -25.207)" fill="#fde4d9"/>
        <path id="Trazado_214124" data-name="Trazado 214124" d="M70.429,173.163l-14.137,1.524.959-42.656-1.414-29.08-.095-1.926-.307,1.914-5.378,30.473-3.124,39.382-13.887-1.848c.875-6.482,3.866-38.915,3.866-38.915l.8-32.13-.1-10.525H69.231s.355,5.191.807,12.054c.841,12.725,2.017,31.191,1.891,32.945-.056.788-1.6,34.026-1.5,38.789" transform="translate(-4.322 -11.689)" fill="#c2adb9"/>
        <path id="Trazado_214125" data-name="Trazado 214125" d="M56.8,102.967l2.44,29.063-1.362,41.891H55.99l1.253-41.891-1.414-29.08-.095-1.925-.307,1.914A68.725,68.725,0,0,1,39.36,100.37l-.315,31.661-4.229,38.791H32.981c.875-6.481,3.924-38.791,3.924-38.791l.8-32.13-.1-10.525H69.223s.355,5.192.807,12.054A49.157,49.157,0,0,1,56.8,102.967" transform="translate(-4.313 -11.689)" fill="#af97a6"/>
        <path id="Trazado_214126" data-name="Trazado 214126" d="M36.966,94.241l34.406-1.369s-.559-5.539-1.436-13.021c-1.308-11.129-3.328-26.54-5.3-34.4a18.919,18.919,0,0,0-1.457-4.3,40.175,40.175,0,0,0-4.133-3.857.067.067,0,0,1-.02-.016.005.005,0,0,0-.005-.005,26.286,26.286,0,0,0-12.272-3.507,8,8,0,0,0-2.534.974A30.961,30.961,0,0,0,41.2,36.5c-4.517,3.2-5.928,14.365-6.071,26.031a270.974,270.974,0,0,0,1.841,31.709" transform="translate(-4.592 -4.416)" fill="#456997"/>
        <path id="Trazado_214127" data-name="Trazado 214127" d="M47.864,32.534s-4.063,2.12-4.091,2.908,8.592,8.516,8.592,8.516l3.833-3.61,2.648,2.064s-.787-5.768-1.152-6.667-3.32-2.143-3.32-2.143Z" transform="translate(-5.725 -4.255)" fill="#fde4d9"/>
        <path id="Trazado_214128" data-name="Trazado 214128" d="M48.5,32.544c.178.178,7.991,5.959,7.991,5.959s-.18-3.561-.265-5.417c-.025-.575-.043-.986-.043-1.076,0-.741.633-3.954.633-3.954L48.928,24.45s-.124,1.626-.245,3.421a40.188,40.188,0,0,0-.187,4.673" transform="translate(-6.338 -3.198)" fill="#cc7256"/>
        <path id="Trazado_214129" data-name="Trazado 214129" d="M48.716,27.87c2.19,1.591,7.014,5.07,7.5,5.207a.369.369,0,0,0,.043.009c-.024-.575-.043-.985-.043-1.076,0-.741.634-3.954.634-3.954L48.961,24.45s-.124,1.625-.245,3.42" transform="translate(-6.371 -3.198)" fill="#a04f39"/>
        <path id="Trazado_214130" data-name="Trazado 214130" d="M47.721,22.16A3.745,3.745,0,0,0,48.8,23.508h0a7.723,7.723,0,0,0,.632.5c.925.664,9.584,4.375,10.918,4.2s2.592-4.762,2.662-5.245c.429-2.958,1.608-12.1,1.608-12.1C61.33.9,49.589,6.061,48.255,7.04s-.534,15.12-.534,15.12" transform="translate(-6.21 -0.632)" fill="#cc7256"/>
        <path id="Trazado_214131" data-name="Trazado 214131" d="M64.492,6.879c-.058,1.243-.436,3.352-.436,3.352-1.718-.13-4.256-2.688-5.538-4.113-.084.261-.176.521-.28.774C57.367,9.04,47.99,10.608,47.99,10.608l-.853,5.284c-.084-.4-.722-.814-1.288-1.107a1.263,1.263,0,0,0-1.536.28l-.7-2.479-.3-1.06s-.541-3.71.435-5.877,4.341-4.556,7.92-5.48a7.627,7.627,0,0,1,5.069.774A4.909,4.909,0,0,1,59.488.5c1.34.409,4.718,5,4.959,5.57a2.346,2.346,0,0,1,.045.814" transform="translate(-5.645 0)" fill="#fbca8c"/>
        <path id="Trazado_214132" data-name="Trazado 214132" d="M64.493,6.879a19.592,19.592,0,0,1-1.887-.664c.026.423.052.853.071,1.276A15.355,15.355,0,0,1,58.909,3.43a83.5,83.5,0,0,1-14.791,7.1,5.725,5.725,0,0,0,1.861,1.555,6.6,6.6,0,0,1-2.369.5l-.3-1.06a17.58,17.58,0,0,1-.091-3.632,7.446,7.446,0,0,1,.527-2.245c.976-2.174,4.341-4.556,7.92-5.48a7.627,7.627,0,0,1,5.069.774A4.909,4.909,0,0,1,59.488.5,4.709,4.709,0,0,1,61.05,1.719a28.278,28.278,0,0,1,3.4,4.347,2.346,2.346,0,0,1,.045.814" transform="translate(-5.645 0)" fill="#ffdd9d"/>
        <path id="Trazado_214133" data-name="Trazado 214133" d="M57.955,1.406A28.813,28.813,0,0,1,44.823,6.032a8.324,8.324,0,0,0,2,1.848c-1.2.007-2.4.013-3.6.013a7.421,7.421,0,0,1,.528-2.245C44.732,3.475,48.1,1.093,51.675.17a7.616,7.616,0,0,1,5.069.774A4.911,4.911,0,0,1,59.5.495a4.713,4.713,0,0,1,1.562,1.223c-.071.007-.15.007-.222.013.241.56.489,1.12.729,1.679-1.2-.67-2.408-1.334-3.612-2" transform="translate(-5.654 0)" fill="#ffeaac"/>
        <path id="Trazado_214134" data-name="Trazado 214134" d="M61.86,21.479a5.719,5.719,0,0,1-2.894.429,2.241,2.241,0,0,0,.78,1.406,6.129,6.129,0,0,0,2.114-1.835" transform="translate(-7.712 -2.809)" fill="#e1836c"/>
        <path id="Trazado_214135" data-name="Trazado 214135" d="M61.169,18.625a10.838,10.838,0,0,1-.444-2.744c-.011-.306-.486-.309-.478,0a9.868,9.868,0,0,0,.462,2.871,4.053,4.053,0,0,0,.935,1.844,7.854,7.854,0,0,1-.834.925c-.314.293-.694.522-.988.833-.081.085,0,.25.121.208a5.5,5.5,0,0,0,2.13-1.806c.164-.2-.725-1.527-.9-2.13" transform="translate(-7.82 -2.047)" fill="#a14f39"/>
        <path id="Trazado_214136" data-name="Trazado 214136" d="M49,26.236a7.721,7.721,0,0,0,.632.5c.925.664,9.584,4.375,10.918,4.2s2.592-4.762,2.661-5.245c-.83,2.014-1.77,4.8-2.714,4.709-1.423-.134-10.445-3.612-11.5-4.164" transform="translate(-6.408 -3.36)" fill="#e1836c"/>
        <path id="Trazado_214137" data-name="Trazado 214137" d="M65.6,13.307s-.883-2.514-1.984-1.973-.747.745-.747.745Z" transform="translate(-8.215 -1.472)" fill="#ffdd9d"/>
        <path id="Trazado_214138" data-name="Trazado 214138" d="M51.831,14.041s3.474-2.841,4.457-1.452c.575.812.011,1.2.011,1.2Z" transform="translate(-6.779 -1.596)" fill="#ffdd9d"/>
        <path id="Trazado_214139" data-name="Trazado 214139" d="M53.471,17.146c0,.92.465,1.666,1.038,1.666s1.038-.746,1.038-1.666-.465-1.666-1.038-1.666-1.038.746-1.038,1.666" transform="translate(-6.993 -2.025)" fill="#161818"/>
        <path id="Trazado_214140" data-name="Trazado 214140" d="M52.331,16.32a2.134,2.134,0,0,0,2.29.927,2.135,2.135,0,0,0-2.29-.927" transform="translate(-6.844 -2.128)" fill="#fff0e7"/>
        <path id="Trazado_214141" data-name="Trazado 214141" d="M64.524,17.927c0,.694-.35,1.256-.782,1.256s-.782-.562-.782-1.256.35-1.256.782-1.256.782.562.782,1.256" transform="translate(-8.234 -2.18)" fill="#161818"/>
        <path id="Trazado_214142" data-name="Trazado 214142" d="M65.286,17.413a1.725,1.725,0,0,1-1.629.66,1.725,1.725,0,0,1,1.629-.66" transform="translate(-8.326 -2.275)" fill="#fff0e7"/>
        <path id="Trazado_214143" data-name="Trazado 214143" d="M55.786,26.348a3.07,3.07,0,0,0,2.555.076,1.317,1.317,0,0,1-1.168.63,2.181,2.181,0,0,1-1.387-.706" transform="translate(-7.296 -3.446)" fill="#a04f39"/>
        <path id="Trazado_214144" data-name="Trazado 214144" d="M63.867,22.324c.136.365.924.407,1.759.095s1.4-.862,1.266-1.227-.925-.407-1.76-.094-1.4.861-1.265,1.226" transform="translate(-8.35 -2.732)" fill="#e1836c"/>
        <path id="Trazado_214145" data-name="Trazado 214145" d="M51.78,20.5c-.143.55.763,1.26,2.023,1.587s2.4.144,2.539-.406-.763-1.26-2.023-1.586-2.4-.145-2.539.405" transform="translate(-6.77 -2.606)" fill="#e1836c"/>
        <path id="Trazado_214146" data-name="Trazado 214146" d="M53.659,23.5s.054.075.15.2a3.749,3.749,0,0,0,.467.515A4.647,4.647,0,0,0,58.6,25.311a3.754,3.754,0,0,0,.655-.233l.228-.109-.248.045a5.383,5.383,0,0,1-.671.085,6.955,6.955,0,0,1-4.162-1.046,5.46,5.46,0,0,1-.551-.393l-.2-.157" transform="translate(-7.018 -3.074)" fill="#a04f39"/>
        <path id="Trazado_214147" data-name="Trazado 214147" d="M48.542,24.015a5.435,5.435,0,0,1-3.777-2.084,4.315,4.315,0,0,1-.375-.561c-.509-.923-.656-4.127.655-4.871.919-.522,1.588.235,1.905.734v0a3.049,3.049,0,0,1,.208.379Z" transform="translate(-5.757 -2.135)" fill="#e1836c"/>
        <path id="Trazado_214148" data-name="Trazado 214148" d="M48.575,24.06A5.435,5.435,0,0,1,44.8,21.976c-.06-.09-.113-.176-.157-.258-.509-.924-.655-4.127.655-4.871a1.259,1.259,0,0,1,1.687.432v0a3.05,3.05,0,0,1,.208.379Z" transform="translate(-5.79 -2.18)" fill="#cc7256"/>
        <path id="Trazado_214149" data-name="Trazado 214149" d="M44.718,19.365a1.373,1.373,0,0,0,.06.776,6.328,6.328,0,0,0,2.46,2.656,2.7,2.7,0,0,1-.361-1.683,5.824,5.824,0,0,0,.067-.6c.008-.807-1.838-2.667-2.226-1.152" transform="translate(-5.844 -2.457)" fill="#e1836c"/>
        <path id="Trazado_214150" data-name="Trazado 214150" d="M47.8,23.1l-.058-.033c-.037-.023-.1-.052-.166-.1a2.326,2.326,0,0,1-.507-.458,2.062,2.062,0,0,1-.417-.854,1.784,1.784,0,0,1,.13-1.129.912.912,0,0,1,.075-.141l.021-.035c0-.009,0,0,0,0v0h0l0-.005-.017-.031-.035-.061c-.023-.041-.047-.081-.071-.12a4.865,4.865,0,0,0-.31-.442,5.028,5.028,0,0,0-.33-.38,2.92,2.92,0,0,0-.325-.3.712.712,0,0,0-.332-.147.525.525,0,0,0-.283.047.265.265,0,0,0-.126.114.222.222,0,0,0-.018.054.131.131,0,0,1,0-.057.254.254,0,0,1,.105-.146.58.58,0,0,1,.325-.1.9.9,0,0,1,.441.126,2.887,2.887,0,0,1,.4.287,4.426,4.426,0,0,1,.395.37,3.794,3.794,0,0,1,.365.453c.029.041.056.083.083.125l.04.064.052.091.037.064c-.01.021-.024.043-.036.063l-.053.091a.963.963,0,0,0-.063.123,1.877,1.877,0,0,0-.166,1,2.124,2.124,0,0,0,.272.815,2.336,2.336,0,0,0,.388.5c.055.055.105.093.136.121l.048.043" transform="translate(-5.889 -2.455)" fill="#a04f39"/>
        <path id="Trazado_214151" data-name="Trazado 214151" d="M43.028,108.305c-1.619-3.512-5.109-6.029-9.109-5.187-3.466.73-6.4,4.475-4.847,8.005a.414.414,0,0,0,.8-.154c-.179-3.435,1.479-6.549,5.313-6.673,3.063-.1,5.369,1.994,6.7,4.566.329.637,1.445.1,1.141-.558" transform="translate(-3.746 -13.465)" fill="#d94562"/>
        <path id="Trazado_214152" data-name="Trazado 214152" d="M54.624,137.878a67.84,67.84,0,0,1-30.307,5.453l-3.167-32.16,25.234-4.54,6.965,26.4Z" transform="translate(-2.766 -13.946)" fill="#43a99b"/>
        <path id="Trazado_214153" data-name="Trazado 214153" d="M36.869,104.027a16.459,16.459,0,0,1-2.673-3.958c-.03-.43-2.778-.954-2.778-.954l-.556-3.836H24.823l.015.1L25,99.315s.345,2.1.422,2.739.143,3.093.321,3.851,2.123,1.612,2.724,1.69,1.186,1.033,1.523,1.536,1.424.174,2.3-.1a1.093,1.093,0,0,0,.539-.56c.525-.954.837-2.762,1.2-2.9a7.009,7.009,0,0,1,2.145.151s1.2-1.373.7-1.69" transform="translate(-3.247 -12.461)" fill="#cc7256"/>
        <path id="Trazado_214154" data-name="Trazado 214154" d="M27.514,104.424a20.838,20.838,0,0,1-1.9-7.6c-.06-.515-.117-1.028-.176-1.543h-.61l.015.1L25,99.315s.346,2.1.423,2.739.143,3.093.321,3.851,2.123,1.612,2.723,1.69,1.187,1.033,1.524,1.536,1.424.174,2.3-.1a1.1,1.1,0,0,0,.539-.56,7.6,7.6,0,0,1-5.318-4.043" transform="translate(-3.247 -12.461)" fill="#a04f39"/>
        <path id="Trazado_214155" data-name="Trazado 214155" d="M40.262,35.879s-7.756,2.4-9.22,4.238S17.547,63.43,16.973,65.869s4.47,25.717,4.47,25.717l12.551-2.634L29.9,66.683,42.738,48.706Z" transform="translate(-2.214 -4.693)" fill="#456997"/>
        <path id="Trazado_214156" data-name="Trazado 214156" d="M43.027,144a67.825,67.825,0,0,1-30.792-.3l2.889-32.185,25.638.249L42.678,139Z" transform="translate(-1.6 -14.585)" fill="#d94562"/>
        <path id="Trazado_214157" data-name="Trazado 214157" d="M39.362,110.789l-1.672-.013a6.791,6.791,0,0,0-1.2-2.928c-1.061-1.347-2.467-1.666-3.827-2.538a.494.494,0,0,1,.248-.911c2.915-.364,6.266,3.326,6.449,6.39" transform="translate(-4.242 -13.651)" fill="#3a435e"/>
        <path id="Trazado_214158" data-name="Trazado 214158" d="M100.029,141.069a67.863,67.863,0,0,1-30.794-.129l2.712-32.2,25.639.108,2.067,27.223Z" transform="translate(-9.055 -14.222)" fill="#8c5be1"/>
        <path id="Trazado_214159" data-name="Trazado 214159" d="M83.738,101.264c-1.327,1.256-2.512,1.939-3.111,3.82a12.49,12.49,0,0,0-.338,2.6l-1.581-.007a11.342,11.342,0,0,1,.9-3.931c.651-1.483,1.991-3.332,3.775-3.338a.509.509,0,0,1,.351.859" transform="translate(-10.294 -13.132)" fill="#254f79"/>
        <path id="Trazado_214160" data-name="Trazado 214160" d="M58.71,46.683l1.215,1.827,4.56,26.836-2.755,6-4.72-5.749.92-27.083Z" transform="translate(-7.456 -6.106)" fill="#eeac3a"/>
        <path id="Trazado_214161" data-name="Trazado 214161" d="M55.786,43.392l1.984-1.869,1.995,1.555v4.757H57.77Z" transform="translate(-7.296 -5.431)" fill="#eeac3a"/>
      </g>
    </g>
  </g>
</svg>
