<svg xmlns="http://www.w3.org/2000/svg" xmlns:xlink="http://www.w3.org/1999/xlink" width="196.249" height="188.762" viewBox="0 0 196.249 188.762">
  <defs>
    <clipPath id="clip-path">
      <rect id="Rect치ngulo_52193" data-name="Rect치ngulo 52193" width="190.835" height="162.002" fill="#ece5f7"/>
    </clipPath>
    <clipPath id="clip-path-2">
      <rect id="Rect치ngulo_55067" data-name="Rect치ngulo 55067" width="94.076" height="166.218" fill="none"/>
    </clipPath>
  </defs>
  <g id="Grupo_177308" data-name="Grupo 177308" transform="translate(-859 -2904.304)">
    <g id="Grupo_173417" data-name="Grupo 173417" transform="translate(672.007 -1895.544)">
      <g id="Grupo_169303" data-name="Grupo 169303" transform="translate(192.407 4799.848)">
        <g id="Grupo_168636" data-name="Grupo 168636" transform="translate(0 0)" clip-path="url(#clip-path)">
          <path id="Trazado_211592" data-name="Trazado 211592" d="M141.129,136.942S241.7,61.516,173.666,41.551,35.385-27.959,16.9,20.846s31.8,69.51,8.134,96.131,29.579,74.686,116.1,19.966" transform="translate(-6.45 0)" fill="#ece5f7"/>
        </g>
      </g>
      <g id="Grupo_169306" data-name="Grupo 169306" transform="translate(229.524 4988.609) rotate(-90)">
        <circle id="Elipse_5566" data-name="Elipse 5566" cx="32.745" cy="32.745" r="32.745" transform="translate(58.474 46.308) rotate(-45)" fill="#def2f4"/>
        <ellipse id="Elipse_5567" data-name="Elipse 5567" cx="52.584" cy="52.584" rx="52.584" ry="52.584" transform="translate(0 54.134) rotate(-22.5)" fill="#fff"/>
        <g id="Grupo_152550" data-name="Grupo 152550" transform="translate(4.31 6.644)">
          <ellipse id="Elipse_5568" data-name="Elipse 5568" cx="0.037" cy="0.037" rx="0.037" ry="0.037" transform="translate(33.64 106.476)" fill="#e8e8e8"/>
          <path id="Trazado_193815" data-name="Trazado 193815" d="M.312,0A.312.312,0,1,1,0,.312.312.312,0,0,1,.312,0Z" transform="translate(39.986 106.201)" fill="#e8e8e8"/>
          <path id="Trazado_193816" data-name="Trazado 193816" d="M.533,0A.533.533,0,1,1,0,.533.534.534,0,0,1,.533,0Z" transform="translate(46.387 105.98)" fill="#e8e8e8"/>
          <ellipse id="Elipse_5569" data-name="Elipse 5569" cx="0.569" cy="0.569" rx="0.569" ry="0.569" transform="translate(52.972 105.943)" fill="#e8e8e8"/>
          <path id="Trazado_193817" data-name="Trazado 193817" d="M.533,0A.533.533,0,1,1,0,.533.533.533,0,0,1,.533,0Z" transform="translate(59.63 105.98)" fill="#e8e8e8"/>
          <path id="Trazado_193818" data-name="Trazado 193818" d="M.293,0A.293.293,0,1,1,0,.293.293.293,0,0,1,.293,0Z" transform="translate(66.49 106.219)" fill="#e8e8e8"/>
          <ellipse id="Elipse_5570" data-name="Elipse 5570" cx="0.018" cy="0.018" rx="0.018" ry="0.018" transform="translate(73.387 106.494)" fill="#e8e8e8"/>
          <ellipse id="Elipse_5571" data-name="Elipse 5571" cx="0.018" cy="0.018" rx="0.018" ry="0.018" transform="translate(20.415 99.873)" fill="#e8e8e8"/>
          <path id="Trazado_193819" data-name="Trazado 193819" d="M.551,0A.551.551,0,1,1,0,.551.551.551,0,0,1,.551,0Z" transform="translate(26.504 99.34)" fill="#e8e8e8"/>
          <path id="Trazado_193820" data-name="Trazado 193820" d="M1.121,0A1.121,1.121,0,1,1,0,1.121,1.121,1.121,0,0,1,1.121,0Z" transform="translate(32.556 98.77)" fill="#e8e8e8"/>
          <ellipse id="Elipse_5572" data-name="Elipse 5572" cx="1.249" cy="1.249" rx="1.249" ry="1.249" transform="translate(39.049 98.643)" fill="#e8e8e8"/>
          <ellipse id="Elipse_5573" data-name="Elipse 5573" cx="1.249" cy="1.249" rx="1.249" ry="1.249" transform="translate(45.671 98.643)" fill="#e8e8e8"/>
          <path id="Trazado_193821" data-name="Trazado 193821" d="M1.249,0A1.249,1.249,0,1,1,0,1.249,1.249,1.249,0,0,1,1.249,0Z" transform="translate(52.292 98.642)" fill="#e8e8e8"/>
          <path id="Trazado_193822" data-name="Trazado 193822" d="M1.249,0A1.249,1.249,0,1,1,0,1.249,1.249,1.249,0,0,1,1.249,0Z" transform="translate(58.914 98.642)" fill="#e8e8e8"/>
          <path id="Trazado_193823" data-name="Trazado 193823" d="M1.249,0A1.249,1.249,0,1,1,0,1.249,1.249,1.249,0,0,1,1.249,0Z" transform="translate(65.535 98.642)" fill="#e8e8e8"/>
          <path id="Trazado_193824" data-name="Trazado 193824" d="M1.1,0A1.1,1.1,0,1,1,0,1.1,1.1,1.1,0,0,1,1.1,0Z" transform="translate(72.303 98.789)" fill="#e8e8e8"/>
          <path id="Trazado_193825" data-name="Trazado 193825" d="M.514,0A.514.514,0,1,1,0,.514.514.514,0,0,1,.514,0Z" transform="translate(79.512 99.377)" fill="#e8e8e8"/>
          <ellipse id="Elipse_5574" data-name="Elipse 5574" cx="0.018" cy="0.018" rx="0.018" ry="0.018" transform="translate(86.63 99.873)" fill="#e8e8e8"/>
          <path id="Trazado_193826" data-name="Trazado 193826" d="M.093,0A.091.091,0,0,1,.184.091.092.092,0,1,1,.093,0Z" transform="translate(13.72 93.178)" fill="#e8e8e8"/>
          <path id="Trazado_193827" data-name="Trazado 193827" d="M.9,0A.9.9,0,1,1,0,.9.9.9,0,0,1,.9,0Z" transform="translate(19.534 92.37)" fill="#e8e8e8"/>
          <ellipse id="Elipse_5575" data-name="Elipse 5575" cx="1.249" cy="1.249" rx="1.249" ry="1.249" transform="translate(25.806 92.021)" fill="#e8e8e8"/>
          <ellipse id="Elipse_5576" data-name="Elipse 5576" cx="1.249" cy="1.249" rx="1.249" ry="1.249" transform="translate(32.428 92.021)" fill="#e8e8e8"/>
          <ellipse id="Elipse_5577" data-name="Elipse 5577" cx="1.249" cy="1.249" rx="1.249" ry="1.249" transform="translate(39.049 92.021)" fill="#e8e8e8"/>
          <ellipse id="Elipse_5578" data-name="Elipse 5578" cx="1.249" cy="1.249" rx="1.249" ry="1.249" transform="translate(45.671 92.021)" fill="#e8e8e8"/>
          <path id="Trazado_193828" data-name="Trazado 193828" d="M1.249,0A1.249,1.249,0,1,1,0,1.249,1.249,1.249,0,0,1,1.249,0Z" transform="translate(52.292 92.021)" fill="#e8e8e8"/>
          <path id="Trazado_193829" data-name="Trazado 193829" d="M1.249,0A1.249,1.249,0,1,1,0,1.249,1.249,1.249,0,0,1,1.249,0Z" transform="translate(58.914 92.021)" fill="#e8e8e8"/>
          <path id="Trazado_193830" data-name="Trazado 193830" d="M1.249,0A1.249,1.249,0,1,1,0,1.249,1.249,1.249,0,0,1,1.249,0Z" transform="translate(65.535 92.021)" fill="#e8e8e8"/>
          <path id="Trazado_193831" data-name="Trazado 193831" d="M1.249,0A1.249,1.249,0,1,1,0,1.249,1.249,1.249,0,0,1,1.249,0Z" transform="translate(72.156 92.021)" fill="#e8e8e8"/>
          <path id="Trazado_193832" data-name="Trazado 193832" d="M1.249,0A1.249,1.249,0,1,1,0,1.249,1.249,1.249,0,0,1,1.249,0Z" transform="translate(78.778 92.021)" fill="#e8e8e8"/>
          <path id="Trazado_193833" data-name="Trazado 193833" d="M.881,0A.881.881,0,1,1,0,.881.881.881,0,0,1,.881,0Z" transform="translate(85.766 92.388)" fill="#e8e8e8"/>
          <path id="Trazado_193834" data-name="Trazado 193834" d="M.054,0a.056.056,0,1,1,0,.111A.056.056,0,0,1,.054,0Z" transform="translate(93.215 93.214)" fill="#e8e8e8"/>
          <ellipse id="Elipse_5579" data-name="Elipse 5579" cx="0.018" cy="0.018" rx="0.018" ry="0.018" transform="translate(7.172 86.63)" fill="#e8e8e8"/>
          <path id="Trazado_193835" data-name="Trazado 193835" d="M.9,0A.9.9,0,1,1,0,.9.9.9,0,0,1,.9,0Z" transform="translate(12.913 85.748)" fill="#e8e8e8"/>
          <ellipse id="Elipse_5580" data-name="Elipse 5580" cx="1.249" cy="1.249" rx="1.249" ry="1.249" transform="translate(19.185 85.4)" fill="#e8e8e8"/>
          <ellipse id="Elipse_5581" data-name="Elipse 5581" cx="1.249" cy="1.249" rx="1.249" ry="1.249" transform="translate(25.806 85.4)" fill="#e8e8e8"/>
          <ellipse id="Elipse_5582" data-name="Elipse 5582" cx="1.249" cy="1.249" rx="1.249" ry="1.249" transform="translate(32.428 85.4)" fill="#e8e8e8"/>
          <ellipse id="Elipse_5583" data-name="Elipse 5583" cx="1.249" cy="1.249" rx="1.249" ry="1.249" transform="translate(39.049 85.4)" fill="#e8e8e8"/>
          <ellipse id="Elipse_5584" data-name="Elipse 5584" cx="1.249" cy="1.249" rx="1.249" ry="1.249" transform="translate(45.671 85.4)" fill="#e8e8e8"/>
          <path id="Trazado_193836" data-name="Trazado 193836" d="M1.249,0A1.249,1.249,0,1,1,0,1.249,1.249,1.249,0,0,1,1.249,0Z" transform="translate(52.292 85.399)" fill="#e8e8e8"/>
          <path id="Trazado_193837" data-name="Trazado 193837" d="M1.249,0A1.249,1.249,0,1,1,0,1.249,1.249,1.249,0,0,1,1.249,0Z" transform="translate(58.914 85.399)" fill="#e8e8e8"/>
          <path id="Trazado_193838" data-name="Trazado 193838" d="M1.249,0A1.249,1.249,0,1,1,0,1.249,1.249,1.249,0,0,1,1.249,0Z" transform="translate(65.535 85.399)" fill="#e8e8e8"/>
          <path id="Trazado_193839" data-name="Trazado 193839" d="M1.249,0A1.249,1.249,0,1,1,0,1.249,1.249,1.249,0,0,1,1.249,0Z" transform="translate(72.156 85.399)" fill="#e8e8e8"/>
          <path id="Trazado_193840" data-name="Trazado 193840" d="M1.249,0A1.249,1.249,0,1,1,0,1.249,1.249,1.249,0,0,1,1.249,0Z" transform="translate(78.778 85.399)" fill="#e8e8e8"/>
          <path id="Trazado_193841" data-name="Trazado 193841" d="M1.249,0A1.249,1.249,0,1,1,0,1.249,1.249,1.249,0,0,1,1.249,0Z" transform="translate(85.399 85.399)" fill="#e8e8e8"/>
          <path id="Trazado_193842" data-name="Trazado 193842" d="M.881,0A.881.881,0,1,1,0,.881.881.881,0,0,1,.881,0Z" transform="translate(92.388 85.767)" fill="#e8e8e8"/>
          <ellipse id="Elipse_5585" data-name="Elipse 5585" cx="0.018" cy="0.018" rx="0.018" ry="0.018" transform="translate(99.873 86.63)" fill="#e8e8e8"/>
          <path id="Trazado_193843" data-name="Trazado 193843" d="M.551,0A.551.551,0,1,1,0,.551.55.55,0,0,1,.551,0Z" transform="translate(6.64 79.476)" fill="#e8e8e8"/>
          <ellipse id="Elipse_5586" data-name="Elipse 5586" cx="1.249" cy="1.249" rx="1.249" ry="1.249" transform="translate(12.564 78.778)" fill="#e8e8e8"/>
          <ellipse id="Elipse_5587" data-name="Elipse 5587" cx="1.249" cy="1.249" rx="1.249" ry="1.249" transform="translate(19.185 78.778)" fill="#e8e8e8"/>
          <ellipse id="Elipse_5588" data-name="Elipse 5588" cx="1.249" cy="1.249" rx="1.249" ry="1.249" transform="translate(25.806 78.778)" fill="#e8e8e8"/>
          <ellipse id="Elipse_5589" data-name="Elipse 5589" cx="1.249" cy="1.249" rx="1.249" ry="1.249" transform="translate(32.428 78.778)" fill="#e8e8e8"/>
          <ellipse id="Elipse_5590" data-name="Elipse 5590" cx="1.249" cy="1.249" rx="1.249" ry="1.249" transform="translate(39.049 78.778)" fill="#e8e8e8"/>
          <ellipse id="Elipse_5591" data-name="Elipse 5591" cx="1.249" cy="1.249" rx="1.249" ry="1.249" transform="translate(45.671 78.778)" fill="#e8e8e8"/>
          <path id="Trazado_193844" data-name="Trazado 193844" d="M1.249,0A1.249,1.249,0,1,1,0,1.249,1.249,1.249,0,0,1,1.249,0Z" transform="translate(52.292 78.778)" fill="#e8e8e8"/>
          <path id="Trazado_193845" data-name="Trazado 193845" d="M1.249,0A1.249,1.249,0,1,1,0,1.249,1.249,1.249,0,0,1,1.249,0Z" transform="translate(58.914 78.778)" fill="#e8e8e8"/>
          <path id="Trazado_193846" data-name="Trazado 193846" d="M1.249,0A1.249,1.249,0,1,1,0,1.249,1.249,1.249,0,0,1,1.249,0Z" transform="translate(65.535 78.778)" fill="#e8e8e8"/>
          <path id="Trazado_193847" data-name="Trazado 193847" d="M1.249,0A1.249,1.249,0,1,1,0,1.249,1.249,1.249,0,0,1,1.249,0Z" transform="translate(72.156 78.778)" fill="#e8e8e8"/>
          <path id="Trazado_193848" data-name="Trazado 193848" d="M1.249,0A1.249,1.249,0,1,1,0,1.249,1.249,1.249,0,0,1,1.249,0Z" transform="translate(78.778 78.778)" fill="#e8e8e8"/>
          <path id="Trazado_193849" data-name="Trazado 193849" d="M1.249,0A1.249,1.249,0,1,1,0,1.249,1.249,1.249,0,0,1,1.249,0Z" transform="translate(85.399 78.778)" fill="#e8e8e8"/>
          <path id="Trazado_193850" data-name="Trazado 193850" d="M1.249,0A1.249,1.249,0,1,1,0,1.249,1.249,1.249,0,0,1,1.249,0Z" transform="translate(92.02 78.778)" fill="#e8e8e8"/>
          <path id="Trazado_193851" data-name="Trazado 193851" d="M.514,0A.514.514,0,1,1,0,.514.514.514,0,0,1,.514,0Z" transform="translate(99.377 79.513)" fill="#e8e8e8"/>
          <ellipse id="Elipse_5592" data-name="Elipse 5592" cx="0.037" cy="0.037" rx="0.037" ry="0.037" transform="translate(0.532 73.369)" fill="#e8e8e8"/>
          <path id="Trazado_193852" data-name="Trazado 193852" d="M1.1,0A1.1,1.1,0,1,1,0,1.1,1.1,1.1,0,0,1,1.1,0Z" transform="translate(6.089 72.303)" fill="#e8e8e8"/>
          <ellipse id="Elipse_5593" data-name="Elipse 5593" cx="1.249" cy="1.249" rx="1.249" ry="1.249" transform="translate(12.564 72.157)" fill="#e8e8e8"/>
          <ellipse id="Elipse_5594" data-name="Elipse 5594" cx="1.249" cy="1.249" rx="1.249" ry="1.249" transform="translate(19.185 72.157)" fill="#e8e8e8"/>
          <ellipse id="Elipse_5595" data-name="Elipse 5595" cx="1.249" cy="1.249" rx="1.249" ry="1.249" transform="translate(25.806 72.157)" fill="#e8e8e8"/>
          <ellipse id="Elipse_5596" data-name="Elipse 5596" cx="1.249" cy="1.249" rx="1.249" ry="1.249" transform="translate(32.428 72.157)" fill="#e8e8e8"/>
          <ellipse id="Elipse_5597" data-name="Elipse 5597" cx="1.249" cy="1.249" rx="1.249" ry="1.249" transform="translate(39.049 72.157)" fill="#e8e8e8"/>
          <ellipse id="Elipse_5598" data-name="Elipse 5598" cx="1.249" cy="1.249" rx="1.249" ry="1.249" transform="translate(45.671 72.157)" fill="#e8e8e8"/>
          <path id="Trazado_193853" data-name="Trazado 193853" d="M1.249,0A1.249,1.249,0,1,1,0,1.249,1.249,1.249,0,0,1,1.249,0Z" transform="translate(52.292 72.157)" fill="#e8e8e8"/>
          <path id="Trazado_193854" data-name="Trazado 193854" d="M1.249,0A1.249,1.249,0,1,1,0,1.249,1.249,1.249,0,0,1,1.249,0Z" transform="translate(58.914 72.157)" fill="#e8e8e8"/>
          <path id="Trazado_193855" data-name="Trazado 193855" d="M1.249,0A1.249,1.249,0,1,1,0,1.249,1.249,1.249,0,0,1,1.249,0Z" transform="translate(65.535 72.157)" fill="#e8e8e8"/>
          <path id="Trazado_193856" data-name="Trazado 193856" d="M1.249,0A1.249,1.249,0,1,1,0,1.249,1.249,1.249,0,0,1,1.249,0Z" transform="translate(72.156 72.157)" fill="#e8e8e8"/>
          <path id="Trazado_193857" data-name="Trazado 193857" d="M1.249,0A1.249,1.249,0,1,1,0,1.249,1.249,1.249,0,0,1,1.249,0Z" transform="translate(78.778 72.157)" fill="#e8e8e8"/>
          <path id="Trazado_193858" data-name="Trazado 193858" d="M1.249,0A1.249,1.249,0,1,1,0,1.249,1.249,1.249,0,0,1,1.249,0Z" transform="translate(85.399 72.157)" fill="#e8e8e8"/>
          <path id="Trazado_193859" data-name="Trazado 193859" d="M1.249,0A1.249,1.249,0,1,1,0,1.249,1.249,1.249,0,0,1,1.249,0Z" transform="translate(92.02 72.157)" fill="#e8e8e8"/>
          <path id="Trazado_193860" data-name="Trazado 193860" d="M1.082,0A1.084,1.084,0,1,1,0,1.084,1.083,1.083,0,0,1,1.082,0Z" transform="translate(98.808 72.322)" fill="#e8e8e8"/>
          <ellipse id="Elipse_5599" data-name="Elipse 5599" cx="0.037" cy="0.037" rx="0.037" ry="0.037" transform="translate(106.476 73.369)" fill="#e8e8e8"/>
          <ellipse id="Elipse_5600" data-name="Elipse 5600" cx="0.312" cy="0.312" rx="0.312" ry="0.312" transform="translate(0.257 66.472)" fill="#e8e8e8"/>
          <ellipse id="Elipse_5601" data-name="Elipse 5601" cx="1.249" cy="1.249" rx="1.249" ry="1.249" transform="translate(5.942 65.535)" fill="#e8e8e8"/>
          <ellipse id="Elipse_5602" data-name="Elipse 5602" cx="1.249" cy="1.249" rx="1.249" ry="1.249" transform="translate(12.564 65.535)" fill="#e8e8e8"/>
          <ellipse id="Elipse_5603" data-name="Elipse 5603" cx="1.249" cy="1.249" rx="1.249" ry="1.249" transform="translate(19.185 65.535)" fill="#e8e8e8"/>
          <ellipse id="Elipse_5604" data-name="Elipse 5604" cx="1.249" cy="1.249" rx="1.249" ry="1.249" transform="translate(25.806 65.535)" fill="#e8e8e8"/>
          <ellipse id="Elipse_5605" data-name="Elipse 5605" cx="1.249" cy="1.249" rx="1.249" ry="1.249" transform="translate(32.428 65.535)" fill="#e8e8e8"/>
          <ellipse id="Elipse_5606" data-name="Elipse 5606" cx="1.249" cy="1.249" rx="1.249" ry="1.249" transform="translate(39.049 65.535)" fill="#e8e8e8"/>
          <ellipse id="Elipse_5607" data-name="Elipse 5607" cx="1.249" cy="1.249" rx="1.249" ry="1.249" transform="translate(45.671 65.535)" fill="#e8e8e8"/>
          <path id="Trazado_193861" data-name="Trazado 193861" d="M1.249,0A1.249,1.249,0,1,1,0,1.249,1.249,1.249,0,0,1,1.249,0Z" transform="translate(52.292 65.535)" fill="#e8e8e8"/>
          <path id="Trazado_193862" data-name="Trazado 193862" d="M1.249,0A1.249,1.249,0,1,1,0,1.249,1.249,1.249,0,0,1,1.249,0Z" transform="translate(58.914 65.535)" fill="#e8e8e8"/>
          <path id="Trazado_193863" data-name="Trazado 193863" d="M1.249,0A1.249,1.249,0,1,1,0,1.249,1.249,1.249,0,0,1,1.249,0Z" transform="translate(65.535 65.535)" fill="#e8e8e8"/>
          <path id="Trazado_193864" data-name="Trazado 193864" d="M1.249,0A1.249,1.249,0,1,1,0,1.249,1.249,1.249,0,0,1,1.249,0Z" transform="translate(72.156 65.535)" fill="#e8e8e8"/>
          <path id="Trazado_193865" data-name="Trazado 193865" d="M1.249,0A1.249,1.249,0,1,1,0,1.249,1.249,1.249,0,0,1,1.249,0Z" transform="translate(78.778 65.535)" fill="#e8e8e8"/>
          <path id="Trazado_193866" data-name="Trazado 193866" d="M1.249,0A1.249,1.249,0,1,1,0,1.249,1.249,1.249,0,0,1,1.249,0Z" transform="translate(85.399 65.535)" fill="#e8e8e8"/>
          <path id="Trazado_193867" data-name="Trazado 193867" d="M1.249,0A1.249,1.249,0,1,1,0,1.249,1.249,1.249,0,0,1,1.249,0Z" transform="translate(92.02 65.535)" fill="#e8e8e8"/>
          <path id="Trazado_193868" data-name="Trazado 193868" d="M1.247,0A1.249,1.249,0,1,1,0,1.249,1.248,1.248,0,0,1,1.247,0Z" transform="translate(98.643 65.535)" fill="#e8e8e8"/>
          <ellipse id="Elipse_5608" data-name="Elipse 5608" cx="0.275" cy="0.275" rx="0.275" ry="0.275" transform="translate(106.237 66.508)" fill="#e8e8e8"/>
          <path id="Trazado_193869" data-name="Trazado 193869" d="M.533,0A.533.533,0,1,1,0,.533.533.533,0,0,1,.533,0Z" transform="translate(0.037 59.63)" fill="#e8e8e8"/>
          <path id="Trazado_193870" data-name="Trazado 193870" d="M1.249,0A1.249,1.249,0,1,1,0,1.249,1.247,1.247,0,0,1,1.249,0Z" transform="translate(5.942 58.914)" fill="#e8e8e8"/>
          <path id="Trazado_193871" data-name="Trazado 193871" d="M1.249,0A1.249,1.249,0,1,1,0,1.249,1.247,1.247,0,0,1,1.249,0Z" transform="translate(12.564 58.914)" fill="#e8e8e8"/>
          <path id="Trazado_193872" data-name="Trazado 193872" d="M1.249,0A1.249,1.249,0,1,1,0,1.249,1.247,1.247,0,0,1,1.249,0Z" transform="translate(19.185 58.914)" fill="#e8e8e8"/>
          <path id="Trazado_193873" data-name="Trazado 193873" d="M1.249,0A1.249,1.249,0,1,1,0,1.249,1.247,1.247,0,0,1,1.249,0Z" transform="translate(25.807 58.914)" fill="#e8e8e8"/>
          <path id="Trazado_193874" data-name="Trazado 193874" d="M1.249,0A1.249,1.249,0,1,1,0,1.249,1.248,1.248,0,0,1,1.249,0Z" transform="translate(32.428 58.914)" fill="#e8e8e8"/>
          <path id="Trazado_193875" data-name="Trazado 193875" d="M1.249,0A1.249,1.249,0,1,1,0,1.249,1.248,1.248,0,0,1,1.249,0Z" transform="translate(39.049 58.914)" fill="#e8e8e8"/>
          <path id="Trazado_193876" data-name="Trazado 193876" d="M1.249,0A1.249,1.249,0,1,1,0,1.249,1.248,1.248,0,0,1,1.249,0Z" transform="translate(45.671 58.914)" fill="#e8e8e8"/>
          <path id="Trazado_193877" data-name="Trazado 193877" d="M1.249,0A1.249,1.249,0,1,1,0,1.249,1.248,1.248,0,0,1,1.249,0Z" transform="translate(52.292 58.914)" fill="#e8e8e8"/>
          <path id="Trazado_193878" data-name="Trazado 193878" d="M1.249,0A1.249,1.249,0,1,1,0,1.249,1.248,1.248,0,0,1,1.249,0Z" transform="translate(58.914 58.914)" fill="#e8e8e8"/>
          <path id="Trazado_193879" data-name="Trazado 193879" d="M1.249,0A1.249,1.249,0,1,1,0,1.249,1.248,1.248,0,0,1,1.249,0Z" transform="translate(65.535 58.914)" fill="#e8e8e8"/>
          <path id="Trazado_193880" data-name="Trazado 193880" d="M1.249,0A1.249,1.249,0,1,1,0,1.249,1.248,1.248,0,0,1,1.249,0Z" transform="translate(72.156 58.914)" fill="#e8e8e8"/>
          <path id="Trazado_193881" data-name="Trazado 193881" d="M1.249,0A1.249,1.249,0,1,1,0,1.249,1.248,1.248,0,0,1,1.249,0Z" transform="translate(78.778 58.914)" fill="#e8e8e8"/>
          <path id="Trazado_193882" data-name="Trazado 193882" d="M1.249,0A1.249,1.249,0,1,1,0,1.249,1.248,1.248,0,0,1,1.249,0Z" transform="translate(85.399 58.914)" fill="#e8e8e8"/>
          <path id="Trazado_193883" data-name="Trazado 193883" d="M1.249,0A1.249,1.249,0,1,1,0,1.249,1.248,1.248,0,0,1,1.249,0Z" transform="translate(92.02 58.914)" fill="#e8e8e8"/>
          <path id="Trazado_193884" data-name="Trazado 193884" d="M1.247,0A1.249,1.249,0,1,1,0,1.249,1.248,1.248,0,0,1,1.247,0Z" transform="translate(98.643 58.914)" fill="#e8e8e8"/>
          <path id="Trazado_193885" data-name="Trazado 193885" d="M.514,0A.514.514,0,1,1,0,.514.513.513,0,0,1,.514,0Z" transform="translate(105.998 59.649)" fill="#e8e8e8"/>
          <ellipse id="Elipse_5609" data-name="Elipse 5609" cx="0.569" cy="0.569" rx="0.569" ry="0.569" transform="translate(0 52.972)" fill="#e8e8e8"/>
          <path id="Trazado_193886" data-name="Trazado 193886" d="M1.249,0A1.249,1.249,0,1,1,0,1.249,1.247,1.247,0,0,1,1.249,0Z" transform="translate(5.942 52.293)" fill="#e8e8e8"/>
          <path id="Trazado_193887" data-name="Trazado 193887" d="M1.249,0A1.249,1.249,0,1,1,0,1.249,1.247,1.247,0,0,1,1.249,0Z" transform="translate(12.564 52.293)" fill="#e8e8e8"/>
          <path id="Trazado_193888" data-name="Trazado 193888" d="M1.249,0A1.249,1.249,0,1,1,0,1.249,1.247,1.247,0,0,1,1.249,0Z" transform="translate(19.185 52.293)" fill="#e8e8e8"/>
          <path id="Trazado_193889" data-name="Trazado 193889" d="M1.249,0A1.249,1.249,0,1,1,0,1.249,1.247,1.247,0,0,1,1.249,0Z" transform="translate(25.807 52.293)" fill="#e8e8e8"/>
          <path id="Trazado_193890" data-name="Trazado 193890" d="M1.249,0A1.249,1.249,0,1,1,0,1.249,1.249,1.249,0,0,1,1.249,0Z" transform="translate(32.428 52.293)" fill="#e8e8e8"/>
          <path id="Trazado_193891" data-name="Trazado 193891" d="M1.249,0A1.249,1.249,0,1,1,0,1.249,1.249,1.249,0,0,1,1.249,0Z" transform="translate(39.049 52.293)" fill="#e8e8e8"/>
          <path id="Trazado_193892" data-name="Trazado 193892" d="M1.249,0A1.249,1.249,0,1,1,0,1.249,1.249,1.249,0,0,1,1.249,0Z" transform="translate(45.671 52.293)" fill="#e8e8e8"/>
          <path id="Trazado_193893" data-name="Trazado 193893" d="M1.249,0A1.249,1.249,0,1,1,0,1.249,1.249,1.249,0,0,1,1.249,0Z" transform="translate(52.292 52.293)" fill="#e8e8e8"/>
          <path id="Trazado_193894" data-name="Trazado 193894" d="M1.249,0A1.249,1.249,0,1,1,0,1.249,1.249,1.249,0,0,1,1.249,0Z" transform="translate(58.914 52.293)" fill="#e8e8e8"/>
          <path id="Trazado_193895" data-name="Trazado 193895" d="M1.249,0A1.249,1.249,0,1,1,0,1.249,1.249,1.249,0,0,1,1.249,0Z" transform="translate(65.535 52.293)" fill="#e8e8e8"/>
          <path id="Trazado_193896" data-name="Trazado 193896" d="M1.249,0A1.249,1.249,0,1,1,0,1.249,1.249,1.249,0,0,1,1.249,0Z" transform="translate(72.156 52.293)" fill="#e8e8e8"/>
          <path id="Trazado_193897" data-name="Trazado 193897" d="M1.249,0A1.249,1.249,0,1,1,0,1.249,1.249,1.249,0,0,1,1.249,0Z" transform="translate(78.778 52.293)" fill="#e8e8e8"/>
          <path id="Trazado_193898" data-name="Trazado 193898" d="M1.249,0A1.249,1.249,0,1,1,0,1.249,1.249,1.249,0,0,1,1.249,0Z" transform="translate(85.399 52.293)" fill="#e8e8e8"/>
          <path id="Trazado_193899" data-name="Trazado 193899" d="M1.249,0A1.249,1.249,0,1,1,0,1.249,1.249,1.249,0,0,1,1.249,0Z" transform="translate(92.02 52.293)" fill="#e8e8e8"/>
          <path id="Trazado_193900" data-name="Trazado 193900" d="M1.247,0A1.249,1.249,0,1,1,0,1.249,1.248,1.248,0,0,1,1.247,0Z" transform="translate(98.643 52.293)" fill="#e8e8e8"/>
          <path id="Trazado_193901" data-name="Trazado 193901" d="M.568,0A.569.569,0,1,1,0,.57.569.569,0,0,1,.568,0Z" transform="translate(105.944 52.972)" fill="#e8e8e8"/>
          <path id="Trazado_193902" data-name="Trazado 193902" d="M.533,0A.533.533,0,1,1,0,.533.533.533,0,0,1,.533,0Z" transform="translate(0.037 46.387)" fill="#e8e8e8"/>
          <path id="Trazado_193903" data-name="Trazado 193903" d="M1.249,0A1.248,1.248,0,1,1,0,1.249,1.247,1.247,0,0,1,1.249,0Z" transform="translate(5.942 45.671)" fill="#e8e8e8"/>
          <path id="Trazado_193904" data-name="Trazado 193904" d="M1.249,0A1.248,1.248,0,1,1,0,1.249,1.247,1.247,0,0,1,1.249,0Z" transform="translate(12.564 45.671)" fill="#e8e8e8"/>
          <path id="Trazado_193905" data-name="Trazado 193905" d="M1.249,0A1.248,1.248,0,1,1,0,1.249,1.247,1.247,0,0,1,1.249,0Z" transform="translate(19.185 45.671)" fill="#e8e8e8"/>
          <path id="Trazado_193906" data-name="Trazado 193906" d="M1.249,0A1.248,1.248,0,1,1,0,1.249,1.247,1.247,0,0,1,1.249,0Z" transform="translate(25.807 45.671)" fill="#e8e8e8"/>
          <path id="Trazado_193907" data-name="Trazado 193907" d="M1.249,0A1.248,1.248,0,1,1,0,1.249,1.249,1.249,0,0,1,1.249,0Z" transform="translate(32.428 45.671)" fill="#e8e8e8"/>
          <path id="Trazado_193908" data-name="Trazado 193908" d="M1.249,0A1.248,1.248,0,1,1,0,1.249,1.249,1.249,0,0,1,1.249,0Z" transform="translate(39.049 45.671)" fill="#e8e8e8"/>
          <path id="Trazado_193909" data-name="Trazado 193909" d="M1.249,0A1.248,1.248,0,1,1,0,1.249,1.249,1.249,0,0,1,1.249,0Z" transform="translate(45.671 45.671)" fill="#e8e8e8"/>
          <path id="Trazado_193910" data-name="Trazado 193910" d="M1.249,0A1.248,1.248,0,1,1,0,1.249,1.249,1.249,0,0,1,1.249,0Z" transform="translate(52.292 45.671)" fill="#e8e8e8"/>
          <path id="Trazado_193911" data-name="Trazado 193911" d="M1.249,0A1.248,1.248,0,1,1,0,1.249,1.249,1.249,0,0,1,1.249,0Z" transform="translate(58.914 45.671)" fill="#e8e8e8"/>
          <path id="Trazado_193912" data-name="Trazado 193912" d="M1.249,0A1.248,1.248,0,1,1,0,1.249,1.249,1.249,0,0,1,1.249,0Z" transform="translate(65.535 45.671)" fill="#e8e8e8"/>
          <path id="Trazado_193913" data-name="Trazado 193913" d="M1.249,0A1.248,1.248,0,1,1,0,1.249,1.249,1.249,0,0,1,1.249,0Z" transform="translate(72.156 45.671)" fill="#e8e8e8"/>
          <path id="Trazado_193914" data-name="Trazado 193914" d="M1.249,0A1.248,1.248,0,1,1,0,1.249,1.249,1.249,0,0,1,1.249,0Z" transform="translate(78.778 45.671)" fill="#e8e8e8"/>
          <path id="Trazado_193915" data-name="Trazado 193915" d="M1.249,0A1.248,1.248,0,1,1,0,1.249,1.249,1.249,0,0,1,1.249,0Z" transform="translate(85.399 45.671)" fill="#e8e8e8"/>
          <path id="Trazado_193916" data-name="Trazado 193916" d="M1.249,0A1.248,1.248,0,1,1,0,1.249,1.249,1.249,0,0,1,1.249,0Z" transform="translate(92.02 45.671)" fill="#e8e8e8"/>
          <path id="Trazado_193917" data-name="Trazado 193917" d="M1.247,0A1.248,1.248,0,1,1,0,1.249,1.248,1.248,0,0,1,1.247,0Z" transform="translate(98.643 45.671)" fill="#e8e8e8"/>
          <path id="Trazado_193918" data-name="Trazado 193918" d="M.5,0A.5.5,0,1,1,0,.5.5.5,0,0,1,.5,0Z" transform="translate(106.016 46.424)" fill="#e8e8e8"/>
          <ellipse id="Elipse_5610" data-name="Elipse 5610" cx="0.294" cy="0.294" rx="0.294" ry="0.294" transform="translate(0.275 40.004)" fill="#e8e8e8"/>
          <path id="Trazado_193919" data-name="Trazado 193919" d="M1.249,0A1.248,1.248,0,1,1,0,1.249,1.247,1.247,0,0,1,1.249,0Z" transform="translate(5.942 39.05)" fill="#e8e8e8"/>
          <path id="Trazado_193920" data-name="Trazado 193920" d="M1.249,0A1.248,1.248,0,1,1,0,1.249,1.247,1.247,0,0,1,1.249,0Z" transform="translate(12.564 39.05)" fill="#e8e8e8"/>
          <path id="Trazado_193921" data-name="Trazado 193921" d="M1.249,0A1.248,1.248,0,1,1,0,1.249,1.247,1.247,0,0,1,1.249,0Z" transform="translate(19.185 39.05)" fill="#e8e8e8"/>
          <path id="Trazado_193922" data-name="Trazado 193922" d="M1.249,0A1.248,1.248,0,1,1,0,1.249,1.247,1.247,0,0,1,1.249,0Z" transform="translate(25.807 39.05)" fill="#e8e8e8"/>
          <path id="Trazado_193923" data-name="Trazado 193923" d="M1.249,0A1.248,1.248,0,1,1,0,1.249,1.249,1.249,0,0,1,1.249,0Z" transform="translate(32.428 39.05)" fill="#e8e8e8"/>
          <path id="Trazado_193924" data-name="Trazado 193924" d="M1.249,0A1.248,1.248,0,1,1,0,1.249,1.249,1.249,0,0,1,1.249,0Z" transform="translate(39.049 39.05)" fill="#e8e8e8"/>
          <path id="Trazado_193925" data-name="Trazado 193925" d="M1.249,0A1.248,1.248,0,1,1,0,1.249,1.249,1.249,0,0,1,1.249,0Z" transform="translate(45.671 39.05)" fill="#e8e8e8"/>
          <path id="Trazado_193926" data-name="Trazado 193926" d="M1.249,0A1.248,1.248,0,1,1,0,1.249,1.249,1.249,0,0,1,1.249,0Z" transform="translate(52.292 39.05)" fill="#e8e8e8"/>
          <path id="Trazado_193927" data-name="Trazado 193927" d="M1.249,0A1.248,1.248,0,1,1,0,1.249,1.249,1.249,0,0,1,1.249,0Z" transform="translate(58.914 39.05)" fill="#e8e8e8"/>
          <path id="Trazado_193928" data-name="Trazado 193928" d="M1.249,0A1.248,1.248,0,1,1,0,1.249,1.249,1.249,0,0,1,1.249,0Z" transform="translate(65.535 39.05)" fill="#e8e8e8"/>
          <path id="Trazado_193929" data-name="Trazado 193929" d="M1.249,0A1.248,1.248,0,1,1,0,1.249,1.249,1.249,0,0,1,1.249,0Z" transform="translate(72.156 39.05)" fill="#e8e8e8"/>
          <path id="Trazado_193930" data-name="Trazado 193930" d="M1.249,0A1.248,1.248,0,1,1,0,1.249,1.249,1.249,0,0,1,1.249,0Z" transform="translate(78.778 39.05)" fill="#e8e8e8"/>
          <path id="Trazado_193931" data-name="Trazado 193931" d="M1.249,0A1.248,1.248,0,1,1,0,1.249,1.249,1.249,0,0,1,1.249,0Z" transform="translate(85.399 39.05)" fill="#e8e8e8"/>
          <path id="Trazado_193932" data-name="Trazado 193932" d="M1.249,0A1.248,1.248,0,1,1,0,1.249,1.249,1.249,0,0,1,1.249,0Z" transform="translate(92.02 39.05)" fill="#e8e8e8"/>
          <path id="Trazado_193933" data-name="Trazado 193933" d="M1.247,0A1.248,1.248,0,1,1,0,1.249,1.248,1.248,0,0,1,1.247,0Z" transform="translate(98.643 39.05)" fill="#e8e8e8"/>
          <ellipse id="Elipse_5611" data-name="Elipse 5611" cx="0.275" cy="0.275" rx="0.275" ry="0.275" transform="translate(106.237 40.023)" fill="#e8e8e8"/>
          <ellipse id="Elipse_5612" data-name="Elipse 5612" cx="0.018" cy="0.018" rx="0.018" ry="0.018" transform="translate(0.551 33.658)" fill="#e8e8e8"/>
          <path id="Trazado_193934" data-name="Trazado 193934" d="M1.1,0A1.1,1.1,0,1,1,0,1.1,1.1,1.1,0,0,1,1.1,0Z" transform="translate(6.089 32.575)" fill="#e8e8e8"/>
          <path id="Trazado_193935" data-name="Trazado 193935" d="M1.249,0A1.248,1.248,0,1,1,0,1.247,1.247,1.247,0,0,1,1.249,0Z" transform="translate(12.564 32.428)" fill="#e8e8e8"/>
          <path id="Trazado_193936" data-name="Trazado 193936" d="M1.249,0A1.248,1.248,0,1,1,0,1.247,1.247,1.247,0,0,1,1.249,0" transform="translate(19.185 32.428)" fill="#e8e8e8"/>
          <path id="Trazado_193937" data-name="Trazado 193937" d="M1.249,0A1.248,1.248,0,1,1,0,1.247,1.247,1.247,0,0,1,1.249,0Z" transform="translate(25.807 32.428)" fill="#e8e8e8"/>
          <path id="Trazado_193938" data-name="Trazado 193938" d="M1.249,0A1.248,1.248,0,1,1,0,1.247,1.248,1.248,0,0,1,1.249,0Z" transform="translate(32.428 32.428)" fill="#e8e8e8"/>
          <path id="Trazado_193939" data-name="Trazado 193939" d="M1.249,0A1.248,1.248,0,1,1,0,1.247,1.248,1.248,0,0,1,1.249,0Z" transform="translate(39.049 32.428)" fill="#e8e8e8"/>
          <path id="Trazado_193940" data-name="Trazado 193940" d="M1.249,0A1.248,1.248,0,1,1,0,1.247,1.248,1.248,0,0,1,1.249,0Z" transform="translate(45.671 32.428)" fill="#e8e8e8"/>
          <path id="Trazado_193941" data-name="Trazado 193941" d="M1.249,0A1.248,1.248,0,1,1,0,1.247,1.248,1.248,0,0,1,1.249,0Z" transform="translate(52.292 32.428)" fill="#e8e8e8"/>
          <path id="Trazado_193942" data-name="Trazado 193942" d="M1.249,0A1.248,1.248,0,1,1,0,1.247,1.248,1.248,0,0,1,1.249,0Z" transform="translate(58.914 32.428)" fill="#e8e8e8"/>
          <path id="Trazado_193943" data-name="Trazado 193943" d="M1.249,0A1.248,1.248,0,1,1,0,1.247,1.248,1.248,0,0,1,1.249,0Z" transform="translate(65.535 32.428)" fill="#e8e8e8"/>
          <path id="Trazado_193944" data-name="Trazado 193944" d="M1.249,0A1.248,1.248,0,1,1,0,1.247,1.248,1.248,0,0,1,1.249,0Z" transform="translate(72.156 32.428)" fill="#e8e8e8"/>
          <path id="Trazado_193945" data-name="Trazado 193945" d="M1.249,0A1.248,1.248,0,1,1,0,1.247,1.248,1.248,0,0,1,1.249,0Z" transform="translate(78.778 32.428)" fill="#e8e8e8"/>
          <path id="Trazado_193946" data-name="Trazado 193946" d="M1.249,0A1.248,1.248,0,1,1,0,1.247,1.248,1.248,0,0,1,1.249,0Z" transform="translate(85.399 32.428)" fill="#e8e8e8"/>
          <path id="Trazado_193947" data-name="Trazado 193947" d="M1.249,0A1.248,1.248,0,1,1,0,1.247,1.248,1.248,0,0,1,1.249,0Z" transform="translate(92.02 32.428)" fill="#e8e8e8"/>
          <path id="Trazado_193948" data-name="Trazado 193948" d="M1.082,0A1.083,1.083,0,1,1,0,1.082,1.082,1.082,0,0,1,1.082,0Z" transform="translate(98.808 32.594)" fill="#e8e8e8"/>
          <ellipse id="Elipse_5613" data-name="Elipse 5613" cx="0.037" cy="0.037" rx="0.037" ry="0.037" transform="translate(106.476 33.64)" fill="#e8e8e8"/>
          <path id="Trazado_193949" data-name="Trazado 193949" d="M.515,0A.515.515,0,1,1,0,.514.515.515,0,0,1,.515,0Z" transform="translate(6.676 26.54)" fill="#e8e8e8"/>
          <path id="Trazado_193950" data-name="Trazado 193950" d="M1.249,0A1.248,1.248,0,1,1,0,1.247,1.247,1.247,0,0,1,1.249,0Z" transform="translate(12.564 25.807)" fill="#e8e8e8"/>
          <path id="Trazado_193951" data-name="Trazado 193951" d="M1.249,0A1.248,1.248,0,1,1,0,1.247,1.247,1.247,0,0,1,1.249,0Z" transform="translate(19.185 25.807)" fill="#e8e8e8"/>
          <path id="Trazado_193952" data-name="Trazado 193952" d="M1.249,0A1.248,1.248,0,1,1,0,1.247,1.247,1.247,0,0,1,1.249,0Z" transform="translate(25.807 25.807)" fill="#e8e8e8"/>
          <path id="Trazado_193953" data-name="Trazado 193953" d="M1.249,0A1.248,1.248,0,1,1,0,1.247,1.248,1.248,0,0,1,1.249,0Z" transform="translate(32.428 25.807)" fill="#e8e8e8"/>
          <path id="Trazado_193954" data-name="Trazado 193954" d="M1.249,0A1.248,1.248,0,1,1,0,1.247,1.248,1.248,0,0,1,1.249,0Z" transform="translate(39.049 25.807)" fill="#e8e8e8"/>
          <path id="Trazado_193955" data-name="Trazado 193955" d="M1.249,0A1.248,1.248,0,1,1,0,1.247,1.248,1.248,0,0,1,1.249,0Z" transform="translate(45.671 25.807)" fill="#e8e8e8"/>
          <path id="Trazado_193956" data-name="Trazado 193956" d="M1.249,0A1.248,1.248,0,1,1,0,1.247,1.248,1.248,0,0,1,1.249,0Z" transform="translate(52.292 25.807)" fill="#e8e8e8"/>
          <path id="Trazado_193957" data-name="Trazado 193957" d="M1.249,0A1.248,1.248,0,1,1,0,1.247,1.248,1.248,0,0,1,1.249,0Z" transform="translate(58.914 25.807)" fill="#e8e8e8"/>
          <path id="Trazado_193958" data-name="Trazado 193958" d="M1.249,0A1.248,1.248,0,1,1,0,1.247,1.248,1.248,0,0,1,1.249,0Z" transform="translate(65.535 25.807)" fill="#e8e8e8"/>
          <path id="Trazado_193959" data-name="Trazado 193959" d="M1.249,0A1.248,1.248,0,1,1,0,1.247,1.248,1.248,0,0,1,1.249,0Z" transform="translate(72.156 25.807)" fill="#e8e8e8"/>
          <path id="Trazado_193960" data-name="Trazado 193960" d="M1.249,0A1.248,1.248,0,1,1,0,1.247,1.248,1.248,0,0,1,1.249,0Z" transform="translate(78.778 25.807)" fill="#e8e8e8"/>
          <path id="Trazado_193961" data-name="Trazado 193961" d="M1.249,0A1.248,1.248,0,1,1,0,1.247,1.248,1.248,0,0,1,1.249,0Z" transform="translate(85.399 25.807)" fill="#e8e8e8"/>
          <path id="Trazado_193962" data-name="Trazado 193962" d="M1.249,0A1.248,1.248,0,1,1,0,1.247,1.248,1.248,0,0,1,1.249,0Z" transform="translate(92.02 25.807)" fill="#e8e8e8"/>
          <path id="Trazado_193963" data-name="Trazado 193963" d="M.5,0A.5.5,0,1,1,0,.5.5.5,0,0,1,.5,0Z" transform="translate(99.395 26.559)" fill="#e8e8e8"/>
          <ellipse id="Elipse_5614" data-name="Elipse 5614" cx="0.018" cy="0.018" rx="0.018" ry="0.018" transform="translate(7.172 20.415)" fill="#e8e8e8"/>
          <path id="Trazado_193964" data-name="Trazado 193964" d="M.881,0A.881.881,0,1,1,0,.881.883.883,0,0,1,.881,0Z" transform="translate(12.931 19.552)" fill="#e8e8e8"/>
          <ellipse id="Elipse_5615" data-name="Elipse 5615" cx="1.249" cy="1.249" rx="1.249" ry="1.249" transform="translate(19.185 19.185)" fill="#e8e8e8"/>
          <ellipse id="Elipse_5616" data-name="Elipse 5616" cx="1.249" cy="1.249" rx="1.249" ry="1.249" transform="translate(25.806 19.185)" fill="#e8e8e8"/>
          <ellipse id="Elipse_5617" data-name="Elipse 5617" cx="1.249" cy="1.249" rx="1.249" ry="1.249" transform="translate(32.428 19.185)" fill="#e8e8e8"/>
          <ellipse id="Elipse_5618" data-name="Elipse 5618" cx="1.249" cy="1.249" rx="1.249" ry="1.249" transform="translate(39.049 19.185)" fill="#e8e8e8"/>
          <ellipse id="Elipse_5619" data-name="Elipse 5619" cx="1.249" cy="1.249" rx="1.249" ry="1.249" transform="translate(45.671 19.185)" fill="#e8e8e8"/>
          <path id="Trazado_193965" data-name="Trazado 193965" d="M1.249,0A1.248,1.248,0,1,1,0,1.247,1.248,1.248,0,0,1,1.249,0Z" transform="translate(52.292 19.186)" fill="#e8e8e8"/>
          <path id="Trazado_193966" data-name="Trazado 193966" d="M1.249,0A1.248,1.248,0,1,1,0,1.247,1.248,1.248,0,0,1,1.249,0Z" transform="translate(58.914 19.186)" fill="#e8e8e8"/>
          <path id="Trazado_193967" data-name="Trazado 193967" d="M1.249,0A1.248,1.248,0,1,1,0,1.247,1.248,1.248,0,0,1,1.249,0Z" transform="translate(65.535 19.186)" fill="#e8e8e8"/>
          <path id="Trazado_193968" data-name="Trazado 193968" d="M1.249,0A1.248,1.248,0,1,1,0,1.247,1.248,1.248,0,0,1,1.249,0Z" transform="translate(72.156 19.186)" fill="#e8e8e8"/>
          <path id="Trazado_193969" data-name="Trazado 193969" d="M1.249,0A1.248,1.248,0,1,1,0,1.247,1.248,1.248,0,0,1,1.249,0Z" transform="translate(78.778 19.186)" fill="#e8e8e8"/>
          <path id="Trazado_193970" data-name="Trazado 193970" d="M1.249,0A1.248,1.248,0,1,1,0,1.247,1.248,1.248,0,0,1,1.249,0Z" transform="translate(85.399 19.186)" fill="#e8e8e8"/>
          <path id="Trazado_193971" data-name="Trazado 193971" d="M.863,0A.864.864,0,1,1,0,.863.863.863,0,0,1,.863,0Z" transform="translate(92.406 19.57)" fill="#e8e8e8"/>
          <ellipse id="Elipse_5620" data-name="Elipse 5620" cx="0.018" cy="0.018" rx="0.018" ry="0.018" transform="translate(99.873 20.415)" fill="#e8e8e8"/>
          <ellipse id="Elipse_5621" data-name="Elipse 5621" cx="0.055" cy="0.055" rx="0.055" ry="0.055" transform="translate(13.757 13.757)" fill="#e8e8e8"/>
          <path id="Trazado_193972" data-name="Trazado 193972" d="M.881,0A.881.881,0,1,1,0,.881.883.883,0,0,1,.881,0Z" transform="translate(19.553 12.93)" fill="#e8e8e8"/>
          <ellipse id="Elipse_5622" data-name="Elipse 5622" cx="1.249" cy="1.249" rx="1.249" ry="1.249" transform="translate(25.806 12.564)" fill="#e8e8e8"/>
          <ellipse id="Elipse_5623" data-name="Elipse 5623" cx="1.249" cy="1.249" rx="1.249" ry="1.249" transform="translate(32.428 12.564)" fill="#e8e8e8"/>
          <ellipse id="Elipse_5624" data-name="Elipse 5624" cx="1.249" cy="1.249" rx="1.249" ry="1.249" transform="translate(39.049 12.564)" fill="#e8e8e8"/>
          <ellipse id="Elipse_5625" data-name="Elipse 5625" cx="1.249" cy="1.249" rx="1.249" ry="1.249" transform="translate(45.671 12.564)" fill="#e8e8e8"/>
          <path id="Trazado_193973" data-name="Trazado 193973" d="M1.249,0A1.248,1.248,0,1,1,0,1.247,1.248,1.248,0,0,1,1.249,0Z" transform="translate(52.292 12.564)" fill="#e8e8e8"/>
          <path id="Trazado_193974" data-name="Trazado 193974" d="M1.249,0A1.248,1.248,0,1,1,0,1.247,1.248,1.248,0,0,1,1.249,0Z" transform="translate(58.914 12.564)" fill="#e8e8e8"/>
          <path id="Trazado_193975" data-name="Trazado 193975" d="M1.249,0A1.248,1.248,0,1,1,0,1.247,1.248,1.248,0,0,1,1.249,0Z" transform="translate(65.535 12.564)" fill="#e8e8e8"/>
          <path id="Trazado_193976" data-name="Trazado 193976" d="M1.249,0A1.248,1.248,0,1,1,0,1.247,1.248,1.248,0,0,1,1.249,0Z" transform="translate(72.156 12.564)" fill="#e8e8e8"/>
          <path id="Trazado_193977" data-name="Trazado 193977" d="M1.249,0A1.248,1.248,0,1,1,0,1.247,1.248,1.248,0,0,1,1.249,0Z" transform="translate(78.778 12.564)" fill="#e8e8e8"/>
          <path id="Trazado_193978" data-name="Trazado 193978" d="M.863,0A.863.863,0,1,1,0,.863.863.863,0,0,1,.863,0Z" transform="translate(85.785 12.949)" fill="#e8e8e8"/>
          <path id="Trazado_193979" data-name="Trazado 193979" d="M.073,0A.073.073,0,1,1,0,.073.073.073,0,0,1,.073,0Z" transform="translate(93.197 13.739)" fill="#e8e8e8"/>
          <ellipse id="Elipse_5626" data-name="Elipse 5626" cx="0.018" cy="0.018" rx="0.018" ry="0.018" transform="translate(20.415 7.172)" fill="#e8e8e8"/>
          <path id="Trazado_193980" data-name="Trazado 193980" d="M.514,0A.514.514,0,1,1,0,.514.515.515,0,0,1,.514,0Z" transform="translate(26.541 6.676)" fill="#e8e8e8"/>
          <path id="Trazado_193981" data-name="Trazado 193981" d="M1.084,0A1.083,1.083,0,1,1,0,1.082,1.083,1.083,0,0,1,1.084,0Z" transform="translate(32.593 6.108)" fill="#e8e8e8"/>
          <ellipse id="Elipse_5627" data-name="Elipse 5627" cx="1.249" cy="1.249" rx="1.249" ry="1.249" transform="translate(39.049 5.942)" fill="#e8e8e8"/>
          <ellipse id="Elipse_5628" data-name="Elipse 5628" cx="1.249" cy="1.249" rx="1.249" ry="1.249" transform="translate(45.671 5.942)" fill="#e8e8e8"/>
          <path id="Trazado_193982" data-name="Trazado 193982" d="M1.249,0A1.248,1.248,0,1,1,0,1.247,1.248,1.248,0,0,1,1.249,0Z" transform="translate(52.292 5.943)" fill="#e8e8e8"/>
          <path id="Trazado_193983" data-name="Trazado 193983" d="M1.249,0A1.248,1.248,0,1,1,0,1.247,1.248,1.248,0,0,1,1.249,0Z" transform="translate(58.914 5.943)" fill="#e8e8e8"/>
          <path id="Trazado_193984" data-name="Trazado 193984" d="M1.249,0A1.248,1.248,0,1,1,0,1.247,1.248,1.248,0,0,1,1.249,0Z" transform="translate(65.535 5.943)" fill="#e8e8e8"/>
          <path id="Trazado_193985" data-name="Trazado 193985" d="M1.084,0A1.083,1.083,0,1,1,0,1.082,1.083,1.083,0,0,1,1.084,0Z" transform="translate(72.321 6.108)" fill="#e8e8e8"/>
          <path id="Trazado_193986" data-name="Trazado 193986" d="M.5,0A.5.5,0,1,1,0,.5.5.5,0,0,1,.5,0Z" transform="translate(79.531 6.695)" fill="#e8e8e8"/>
          <ellipse id="Elipse_5629" data-name="Elipse 5629" cx="0.018" cy="0.018" rx="0.018" ry="0.018" transform="translate(86.63 7.172)" fill="#e8e8e8"/>
          <ellipse id="Elipse_5630" data-name="Elipse 5630" cx="0.037" cy="0.037" rx="0.037" ry="0.037" transform="translate(33.64 0.532)" fill="#e8e8e8"/>
          <path id="Trazado_193987" data-name="Trazado 193987" d="M.275,0A.276.276,0,1,1,0,.275.274.274,0,0,1,.275,0Z" transform="translate(40.023 0.294)" fill="#e8e8e8"/>
          <path id="Trazado_193988" data-name="Trazado 193988" d="M.514,0A.514.514,0,1,1,0,.514.515.515,0,0,1,.514,0Z" transform="translate(46.406 0.055)" fill="#e8e8e8"/>
          <ellipse id="Elipse_5631" data-name="Elipse 5631" cx="0.569" cy="0.569" rx="0.569" ry="0.569" transform="translate(52.972)" fill="#e8e8e8"/>
          <path id="Trazado_193989" data-name="Trazado 193989" d="M.514,0A.514.514,0,1,1,0,.514.515.515,0,0,1,.514,0Z" transform="translate(59.648 0.055)" fill="#e8e8e8"/>
          <path id="Trazado_193990" data-name="Trazado 193990" d="M.275,0A.276.276,0,1,1,0,.275.274.274,0,0,1,.275,0Z" transform="translate(66.509 0.294)" fill="#e8e8e8"/>
          <ellipse id="Elipse_5632" data-name="Elipse 5632" cx="0.037" cy="0.037" rx="0.037" ry="0.037" transform="translate(73.369 0.532)" fill="#e8e8e8"/>
        </g>
      </g>
      <g id="Grupo_169387" data-name="Grupo 169387" transform="translate(186.993 4929.825)">
        <path id="Trazado_211593" data-name="Trazado 211593" d="M3.618,289.064c.151.246.308.484.47.718l25.228-15.464c-.135-.25-.277-.5-.427-.745-.222-.362-.458-.709-.7-1.047L3,287.96c.187.373.391.741.613,1.1" transform="translate(-1.524 -266.671)" fill="#def2f4"/>
        <path id="Trazado_211594" data-name="Trazado 211594" d="M21.287,306.2l17.105-10.485a14.854,14.854,0,0,0,.514-2.8L18.559,305.383a14.913,14.913,0,0,0,2.728.813" transform="translate(-9.409 -277.006)" fill="#def2f4"/>
        <path id="Trazado_211595" data-name="Trazado 211595" d="M10.805,298.083l23.2-14.221a14.663,14.663,0,0,0-.484-2.188L9.074,296.658a14.721,14.721,0,0,0,1.731,1.424" transform="translate(-4.6 -271.308)" fill="#def2f4"/>
        <path id="Trazado_211596" data-name="Trazado 211596" d="M40.334,312.217a14.778,14.778,0,0,0,4.058-3.667l-9.168,5.62a14.784,14.784,0,0,0,5.11-1.953" transform="translate(-17.858 -284.935)" fill="#def2f4"/>
        <path id="Trazado_211597" data-name="Trazado 211597" d="M.424,281.517l24.257-14.869a14.646,14.646,0,0,0-1.791-1.388L0,279.291a14.665,14.665,0,0,0,.424,2.225" transform="translate(0 -262.987)" fill="#def2f4"/>
        <path id="Trazado_211598" data-name="Trazado 211598" d="M10.811,263a14.808,14.808,0,0,0-3.265,2.711l7.161-4.389a14.8,14.8,0,0,0-3.9,1.678" transform="translate(-3.826 -260.992)" fill="#def2f4"/>
        <path id="Trazado_211599" data-name="Trazado 211599" d="M.029,273.537l19.825-12.152A14.913,14.913,0,0,0,17,260.649L.669,270.658a14.872,14.872,0,0,0-.64,2.878" transform="translate(-0.015 -260.649)" fill="#def2f4"/>
      </g>
    </g>
    <g id="Grupo_173422" data-name="Grupo 173422" transform="translate(915 2915.575)">
      <g id="Grupo_173421" data-name="Grupo 173421" clip-path="url(#clip-path-2)">
        <path id="Trazado_214162" data-name="Trazado 214162" d="M40.41,31.686a10.768,10.768,0,0,0,4.334,6.791,16.2,16.2,0,0,0,7.2,2.731,19.215,19.215,0,0,0,13.879-2.682,15.368,15.368,0,0,0,6.609-13.352A34.206,34.206,0,0,0,69.2,13.48a23.23,23.23,0,0,0-9.322-9.668L59.57,3.63A12.3,12.3,0,0,0,47.79,3.5s-.5,1.73-.917,3.308c-.157.6-.3,1.171-.394,1.626-.352,1.645-.352,3.362-.649,5.025-.571,3.186-2.173,6-3.508,8.9s-2.446,6.136-1.911,9.334" transform="translate(-11.039 -0.39)" fill="#3f0727"/>
        <path id="Trazado_214163" data-name="Trazado 214163" d="M40.41,32.053a10.768,10.768,0,0,0,4.334,6.791,16.2,16.2,0,0,0,7.2,2.731,19.215,19.215,0,0,0,13.879-2.682,15.368,15.368,0,0,0,6.609-13.352A34.206,34.206,0,0,0,69.2,13.847a23.23,23.23,0,0,0-9.322-9.668L59.57,4,58.9,5.466,66.8,14.575s7.088,12.046-.431,18-20.84,4.315-23.2.94S44.925,20.48,44.925,20.48L47.808,7.668l-.935-.5c-.157.6-.3,1.171-.394,1.626-.352,1.645-.352,3.362-.649,5.025-.571,3.186-2.173,6-3.508,8.9s-2.446,6.136-1.911,9.334" transform="translate(-11.039 -0.757)" fill="#55062c"/>
        <path id="Trazado_214164" data-name="Trazado 214164" d="M44.318,134.6s4.8,9.88,4.993,13.818c.1,2.05.723,25.064.723,25.064l-6.332-.169s-5.361-29.291-6.854-32.752c-.673-1.56-1.971-8.415-3.195-15.478,3.713-.27,7.4-.724,11.026-1.3-.187,5.895-.362,10.817-.362,10.817" transform="translate(16.762 -23.443)" fill="#ffa07f"/>
        <path id="Trazado_214165" data-name="Trazado 214165" d="M69.013,125.591c-.246,5.326-.485,9.921-.6,10.464,0,0,2.072,6.692,2.654,10.2.427,2.565-3.088,30.009-3.088,30.009l-6.455-.171s-1.039-35.046-1.827-37.53a129.723,129.723,0,0,1-1.83-13.433,84.549,84.549,0,0,0,11.143.464" transform="translate(-23.939 -23.698)" fill="#ffa07f"/>
        <path id="Trazado_214166" data-name="Trazado 214166" d="M36.225,134.6s4.8,9.88,4.993,13.818c.1,2.05.723,25.064.723,25.064l-1.034-.028c-.215-6.867-.991-25.076-1.434-25.543-.533-.563-5.82-14.41-5.82-14.41s.3-4.074.623-9.368q1.159-.165,2.31-.349c-.187,5.895-.362,10.817-.362,10.817" transform="translate(24.854 -23.443)" fill="#ff7d6f"/>
        <path id="Trazado_214167" data-name="Trazado 214167" d="M59.743,136.163s2.072,6.692,2.653,10.2c.428,2.565-3.088,30.009-3.088,30.009l-1.438-.038,2.924-28.193L57.878,135.39l.331-9.669q1.066,0,2.132-.022c-.246,5.326-.486,9.921-.6,10.464" transform="translate(-15.266 -23.806)" fill="#ff7d6f"/>
        <path id="Trazado_214168" data-name="Trazado 214168" d="M48.291,142.472a.523.523,0,0,1-.216.282.488.488,0,0,1-.355,0,2.955,2.955,0,0,1-1.426-1.12c-.8-1.064-2.472-4.693.011-4.683,2.438.011,2.664,3.931,1.986,5.526" transform="translate(8.98 -25.936)" fill="#ff7d6f"/>
        <path id="Trazado_214169" data-name="Trazado 214169" d="M69.388,143.105a1.937,1.937,0,0,1-1.059,1.249,1.452,1.452,0,0,1-1.309-.308,3.6,3.6,0,0,1-.845-1.1,6.649,6.649,0,0,1-.869-2.4c-.2-1.727,1.175-3.944,3.123-3.035,1.973.921,1.584,3.977.958,5.6" transform="translate(-28.742 -26.002)" fill="#ff7d6f"/>
        <path id="Trazado_214170" data-name="Trazado 214170" d="M59.564,186.106l-.256-7.946,9.692.257-1.111,8.85Z" transform="translate(-22.999 -33.742)" fill="#fde4d9"/>
        <path id="Trazado_214171" data-name="Trazado 214171" d="M58.829,195.228a1.331,1.331,0,0,1,.775-1.048c1.47-.609,6.855-2.472,8.331-3.579a11.54,11.54,0,0,0,2.6-3.585l9.893.782a77.8,77.8,0,0,1,.771,8.613Z" transform="translate(-34.809 -35.419)" fill="#d94562"/>
        <path id="Trazado_214172" data-name="Trazado 214172" d="M58.828,199.4,81.2,200.58l.127-2.25-22.37-1.183Z" transform="translate(-34.935 -37.338)" fill="#fde4d9"/>
        <path id="Trazado_214173" data-name="Trazado 214173" d="M75.911,191.915c.015.027.028.053.041.08.1.2.152.51-.115.614a.707.707,0,0,1-.43-.007,4.6,4.6,0,0,1-1.348-.627,3.515,3.515,0,0,1-1.21-1.076c-.289-.49.168-.91.694-.771a3.986,3.986,0,0,1,2.368,1.787" transform="translate(-40.937 -36.004)" fill="#fde4d9"/>
        <path id="Trazado_214174" data-name="Trazado 214174" d="M78.067,193.293c.015.027.028.054.041.08.1.2.152.51-.114.614a.71.71,0,0,1-.43-.007,4.6,4.6,0,0,1-1.348-.627,3.5,3.5,0,0,1-1.21-1.076c-.289-.49.168-.91.694-.771a3.986,3.986,0,0,1,2.368,1.787" transform="translate(-44.84 -36.265)" fill="#fde4d9"/>
        <path id="Trazado_214175" data-name="Trazado 214175" d="M80.677,194.138c.015.027.028.054.041.08.1.2.152.51-.114.614a.716.716,0,0,1-.43-.007,4.585,4.585,0,0,1-1.348-.627,3.5,3.5,0,0,1-1.21-1.076c-.289-.49.168-.91.694-.771a3.986,3.986,0,0,1,2.368,1.787" transform="translate(-49.566 -36.425)" fill="#fde4d9"/>
        <path id="Trazado_214176" data-name="Trazado 214176" d="M35.037,183.882l-1.925-6.713,9.231-1.449s.44,6.907.122,7.892-7.428.27-7.428.27" transform="translate(24.655 -33.28)" fill="#fde4d9"/>
        <path id="Trazado_214177" data-name="Trazado 214177" d="M42.726,197.469s-4.95,3.365-6.278,3.443S28.214,199,28.238,198.1c.008-.316.188-1.432.436-2.774a40.53,40.53,0,0,1,1.458-6.2c.459-.665.126-4.733.126-4.733s7.222-1.5,8.206-1.136c.76.28,2.887,8.6,3.817,12.374.275,1.117.445,1.838.445,1.838" transform="translate(28.46 -34.696)" fill="#d94562"/>
        <path id="Trazado_214178" data-name="Trazado 214178" d="M42.726,200.3s-4.95,3.365-6.278,3.443-8.234-1.911-8.21-2.813c.008-.316.188-1.432.436-2.774,2.239.966,7.038,2.887,8.652,2.343,1.094-.37,3.184-1.26,4.954-2.038.275,1.117.445,1.838.445,1.838" transform="translate(28.46 -37.529)" fill="#fde4d9"/>
        <path id="Trazado_214179" data-name="Trazado 214179" d="M38.547,192.084l.08.039c.2.1.422.314.272.561a.73.73,0,0,1-.349.258,4.57,4.57,0,0,1-1.447.329,3.427,3.427,0,0,1-1.6-.114c-.52-.214-.4-.828.1-1.042a3.909,3.909,0,0,1,2.946-.031" transform="translate(26.623 -36.327)" fill="#fde4d9"/>
        <path id="Trazado_214180" data-name="Trazado 214180" d="M38.612,194.494l.08.039c.2.1.422.314.271.561a.724.724,0,0,1-.348.258,4.57,4.57,0,0,1-1.447.329,3.426,3.426,0,0,1-1.6-.114c-.52-.214-.4-.828.1-1.042a3.909,3.909,0,0,1,2.946-.031" transform="translate(26.507 -36.784)" fill="#fde4d9"/>
        <path id="Trazado_214181" data-name="Trazado 214181" d="M38.439,196.707l.08.039c.2.1.422.314.272.561a.73.73,0,0,1-.349.258,4.57,4.57,0,0,1-1.447.329,3.427,3.427,0,0,1-1.6-.114c-.52-.214-.4-.828.1-1.042a3.909,3.909,0,0,1,2.946-.031" transform="translate(26.819 -37.203)" fill="#fde4d9"/>
        <path id="Trazado_214182" data-name="Trazado 214182" d="M37.172,128.3c7.234,2.428,34.258-1.42,34.258-1.42s-.9-34.313-1.292-35.8-4.048-7.3-4.048-7.3l-3.683.238L42.688,85.268,37.833,123.15Z" transform="translate(-7.486 -15.866)" fill="#ca9f87"/>
        <path id="Trazado_214183" data-name="Trazado 214183" d="M37.172,128.3c7.234,2.428,34.258-1.42,34.258-1.42s-.9-34.313-1.292-35.8-4.048-7.3-4.048-7.3l-3.683.238c2.069,3.071,5.45,8.405,5.164,10.1-.407,2.428-1.013,28.323-1.013,28.323s-17.824,2.476-28.724.716Z" transform="translate(-7.486 -15.866)" fill="#b48674"/>
        <path id="Trazado_214184" data-name="Trazado 214184" d="M66.439,33.151l-.031.182-.011.091a.628.628,0,0,0-.012.109c-.219,1.512-.729,5.207-1.141,9.649-.073.741-.139,1.505-.2,2.282-.242,3.041-.413,6.294-.413,9.364,0,6.593,4.928,14.533,6.372,18.674l-26.154.913c.719-6.518-.093-20.649-.093-20.649a5.78,5.78,0,0,1-.976-1.166,11.03,11.03,0,0,1-1.474-9,65.272,65.272,0,0,1,3.931-10.346s.874.066,2.118.139c2.943.165,7.962.37,8.387-.145.595-.734-.576-5.219-.576-5.219l5.262-1.8s.9,6.263,1.554,6.664l2.306-.067,1.208-.036-.036.218Z" transform="translate(-10.918 -4.968)" fill="#ffb15f"/>
        <path id="Trazado_214185" data-name="Trazado 214185" d="M54.958,43.393a11.434,11.434,0,0,0,5.665,2.688c2.009.312,3.808-.184,5.781-.456a.286.286,0,0,1,.22.52c-3.609,2.662-9.522.93-12.444-1.975-.511-.508.242-1.223.778-.778" transform="translate(-16.464 -8.192)" fill="#f79244"/>
        <path id="Trazado_214186" data-name="Trazado 214186" d="M48.986,33.394c.449,2.124,1.972,6.439,6.985,7.373,5.553,1.032,8.939-5.607,9.947-7.937l-2.306.066c-.656-.4-1.554-6.663-1.554-6.663l-5.262,1.8s1.171,4.484.577,5.219c-.425.516-5.444.31-8.387.146" transform="translate(-11.55 -4.968)" fill="#ffa07f"/>
        <path id="Trazado_214187" data-name="Trazado 214187" d="M60.847,2.865c-.2-.013-7.659,1.236-9.029,3.694s-3.587,11.632-1.876,16.172,4.76,4.071,5.85,3.807,6.244-2.134,7.49-3.729,4.148-9.986,3.693-12.229-6.128-7.715-6.128-7.715" transform="translate(-12.926 -0.543)" fill="#ffbf90"/>
        <path id="Trazado_214188" data-name="Trazado 214188" d="M60.384,2.061c-.2-.013-7.659,1.236-9.029,3.694s-3.587,11.632-1.876,16.172S54.239,26,55.33,25.734s6.243-2.134,7.489-3.729,4.148-9.986,3.693-12.229-6.128-7.715-6.128-7.715" transform="translate(-12.088 -0.39)" fill="#ffa07f"/>
        <path id="Trazado_214189" data-name="Trazado 214189" d="M64.568,21.531a1.581,1.581,0,0,1,.7-.013,2.247,2.247,0,0,1-1.466.857.338.338,0,0,1-.134,0,.333.333,0,0,1-.135-.091,2.651,2.651,0,0,1-.588-.851.508.508,0,0,1-.053-.2c0-.233.141-.148.259-.064a2.09,2.09,0,0,0,1.419.366" transform="translate(-22.166 -3.992)" fill="#ff7d6f"/>
        <path id="Trazado_214190" data-name="Trazado 214190" d="M65.2,21.3c-.105-.152-.231-.291-.34-.442a3.5,3.5,0,0,1-.351-.59c.835-.319,1.01-1.068,1.181-1.923a2.526,2.526,0,0,0-.041-1.167,2.532,2.532,0,0,0-.406-.837.9.9,0,0,0-.214-.2c.032.062.048.127.075.188a5.007,5.007,0,0,1,.2.482,3.132,3.132,0,0,1,.118.516,3.093,3.093,0,0,1-.03,1.055,2.545,2.545,0,0,1-.4.952,2.013,2.013,0,0,1-.941.749s.35.689.387.747a2.685,2.685,0,0,0,.327.419.926.926,0,0,0,.435.308.292.292,0,0,0,.167-.008.591.591,0,0,1-.067-.088q-.013-.021-.024-.041c-.024-.042-.049-.082-.076-.121" transform="translate(-23.586 -3.058)" fill="#fc5b68"/>
        <path id="Trazado_214191" data-name="Trazado 214191" d="M49.6,21.565c.276-.116,1.725-1.83,2.625-.7a3.087,3.087,0,0,1,.114,3.9c-.869.875-2.065,1.808-3.444,1.381Z" transform="translate(1.461 -3.879)" fill="#ffa07f"/>
        <path id="Trazado_214192" data-name="Trazado 214192" d="M52.328,22.51a1.357,1.357,0,0,1-.1.719,5.779,5.779,0,0,1-2.3,2.345,2.654,2.654,0,0,0,.409-1.549c-.008-.186-.035-.374-.025-.56.039-.751,1.758-2.386,2.014-.955" transform="translate(1.259 -4.156)" fill="#ff7d6f"/>
        <path id="Trazado_214193" data-name="Trazado 214193" d="M50.212,25.827l.053-.028c.034-.019.088-.044.151-.083a2.094,2.094,0,0,0,.469-.4,1.985,1.985,0,0,0,.413-.773,1.761,1.761,0,0,0-.05-1.058.906.906,0,0,0-.058-.135l-.016-.033c0-.008,0,0,0,0h0s0,0,0-.006l.017-.028.033-.055.07-.108a4.486,4.486,0,0,1,.3-.4c.1-.122.208-.234.31-.336a2.519,2.519,0,0,1,.3-.264A.608.608,0,0,1,52.5,22a.435.435,0,0,1,.246.058.244.244,0,0,1,.1.113.248.248,0,0,1,.013.051.178.178,0,0,0,0-.054.24.24,0,0,0-.084-.142.492.492,0,0,0-.279-.112.761.761,0,0,0-.392.094,2.5,2.5,0,0,0-.366.246,3.782,3.782,0,0,0-.366.324,3.576,3.576,0,0,0-.345.4c-.028.037-.054.075-.079.113l-.038.058-.051.083-.035.058a.5.5,0,0,0,.028.061l.041.088a.875.875,0,0,1,.049.118,1.86,1.86,0,0,1,.09.939,2.084,2.084,0,0,1-.284.745,2.167,2.167,0,0,1-.368.441c-.051.049-.1.081-.125.105l-.045.037" transform="translate(0.507 -4.151)" fill="#cf4a57"/>
        <path id="Trazado_214194" data-name="Trazado 214194" d="M65.558,12.846a4.419,4.419,0,0,1,2.211-.841c.829.121,1.042.9.706,1.033a18.13,18.13,0,0,1-2.917-.192" transform="translate(-27.694 -2.272)" fill="#3f0727"/>
        <path id="Trazado_214195" data-name="Trazado 214195" d="M59.524,14.858a9.755,9.755,0,0,0-3.116-2.093c-1.28-.31-1.8.422-1.33.747a40.709,40.709,0,0,0,4.446,1.346" transform="translate(-9.956 -2.403)" fill="#3f0727"/>
        <path id="Trazado_214196" data-name="Trazado 214196" d="M58.929,16.271a1.781,1.781,0,0,1-.944.674.751.751,0,0,0-.533-.337c-.532-.047-1.024.607-1.1,1.461s.294,1.584.826,1.631,1.024-.607,1.1-1.462a2.347,2.347,0,0,0-.05-.741,2.852,2.852,0,0,0,.7-1.226" transform="translate(-10.525 -3.082)" fill="#161818"/>
        <path id="Trazado_214197" data-name="Trazado 214197" d="M55.622,18.648a1.988,1.988,0,0,0,2.262-.422,1.988,1.988,0,0,0-2.262.422" transform="translate(-8.895 -3.418)" fill="#fff0e7"/>
        <path id="Trazado_214198" data-name="Trazado 214198" d="M66.568,14.932a1.459,1.459,0,0,0,.62.719.616.616,0,0,1,.49-.165c.432.066.7.682.591,1.376s-.542,1.2-.974,1.136-.7-.682-.59-1.376a1.9,1.9,0,0,1,.183-.58,2.341,2.341,0,0,1-.319-1.111" transform="translate(-28.177 -2.828)" fill="#161818"/>
        <path id="Trazado_214199" data-name="Trazado 214199" d="M69.254,17.149a1.627,1.627,0,0,1-1.717-.776,1.629,1.629,0,0,1,1.717.776" transform="translate(-29.924 -3.097)" fill="#fff0e7"/>
        <path id="Trazado_214200" data-name="Trazado 214200" d="M54.745,22.227c.032.4.913.652,1.965.565s1.88-.48,1.847-.879-.913-.651-1.965-.565-1.879.48-1.847.879" transform="translate(-8.857 -4.04)" fill="#ff7d6f"/>
        <path id="Trazado_214201" data-name="Trazado 214201" d="M68.295,19.278c-.143.267.395.832,1.2,1.261s1.573.561,1.716.294-.395-.832-1.2-1.262-1.573-.561-1.716-.293" transform="translate(-32.499 -3.625)" fill="#ff7d6f"/>
        <path id="Trazado_214202" data-name="Trazado 214202" d="M58.991,24.76a8.528,8.528,0,0,1,7.061.121s-1.627,2.809-3.456,2.73c-2.219-.095-3.606-2.851-3.606-2.851" transform="translate(-19.795 -4.551)" fill="#fc5b68"/>
        <path id="Trazado_214203" data-name="Trazado 214203" d="M59.251,24.978a17.3,17.3,0,0,1,6.645.082,3.674,3.674,0,0,1-3.417,2.105,3.776,3.776,0,0,1-3.229-2.187" transform="translate(-19.85 -4.681)" fill="#fff0e7"/>
        <path id="Trazado_214204" data-name="Trazado 214204" d="M62.816,17.761s1.453-1.3,2.465-.756a4.451,4.451,0,0,1,.991,1.967s.635-2.534,1.332-5.16c0,0,0,0,0-.009.126-.487.253-.978.362-1.461a12.048,12.048,0,0,0,.491-4.1c-.012-.047-.024-.087-.034-.122a1.139,1.139,0,0,0-.053-.141c-.828-1.711-6.055-7.6-9.143-7.932a12.262,12.262,0,0,0-2.567.063c-.116.012-.231.024-.346.04-.158.018-.315.036-.473.063-.11.015-.221.031-.332.05a30.056,30.056,0,0,0-4.2.986l-.463.152-.219.075q-.435.15-.8.308c-.063.024-.122.052-.18.076a4.423,4.423,0,0,0-1.049.585,6.125,6.125,0,0,0-1.282,2.3,34.283,34.283,0,0,0-1.175,4.025A9.041,9.041,0,0,1,51.2,8.336l2.905.592s5.688,1.072,7.42,1.962l2.05.786Z" transform="translate(-11.837 0)" fill="#3f0727"/>
        <path id="Trazado_214205" data-name="Trazado 214205" d="M66.794,12.342c-.109.482-.236.974-.362,1.461,0,0,0,0,0,.008s0,0,0,.008c-.835-.516-1.145-2.711-1.492-3.586-.414-1.046-.374-2.317-1.222-3.1a3.667,3.667,0,0,0-2.465-.721A8.822,8.822,0,0,1,58.621,6.2c-1.446-.479-2.319-1.89-3.709-2.489-1.669-.721-3.619-.115-5.372.432a10.451,10.451,0,0,1-3.4.593,6.134,6.134,0,0,1,1.282-2.3,4.481,4.481,0,0,1,1.049-.585c.058-.024.117-.052.18-.076.246-.105.515-.207.8-.307l.218-.075.463-.151a30.068,30.068,0,0,1,4.2-.986c.11-.019.221-.035.332-.05.158-.027.315-.045.473-.064.115-.015.23-.027.345-.039A12.216,12.216,0,0,1,58.055.042C61.143.374,66.37,6.263,67.2,7.973a1.152,1.152,0,0,1,.053.142c.011.036.022.075.034.122a12.048,12.048,0,0,1-.491,4.1" transform="translate(-10.66 0)" fill="#55062c"/>
        <path id="Trazado_214206" data-name="Trazado 214206" d="M63.362,8.115A4.832,4.832,0,0,1,61.2,6.8c-.611-.66-1.055-1.515-1.894-1.906-.95-.439-2.125-.148-3.128-.475-1.415-.46-2.1-2-3.4-2.69C51.539,1.075,50.014,1.3,48.6,1.4a7.576,7.576,0,0,1-2.353-.152,23.379,23.379,0,0,1,7.922-1.2c3.088.333,8.314,6.221,9.143,7.932a1.141,1.141,0,0,1,.053.141" transform="translate(-6.771 0)" fill="#6f0a32"/>
        <path id="Trazado_214207" data-name="Trazado 214207" d="M26.177,34.4S23.994,59.99,25.3,64.238s5.926,30.5,8.4,30.5,14.76-6.072,14.306-8.5S38.752,55.59,38.752,55.59s-1.085-18.206-1.984-19.117S31.318,33.534,26.177,34.4" transform="translate(25.884 -6.476)" fill="#ff8035"/>
        <path id="Trazado_214208" data-name="Trazado 214208" d="M36.171,81.152l1.76-.961,7.546,8.142-1.214,1.315Z" transform="translate(19.278 -15.188)" fill="#fde4d9"/>
        <path id="Trazado_214209" data-name="Trazado 214209" d="M84.79,35.107s-8.361,56.121-8.63,58.211-11.272-8.105-11.424-10.23,8.138-25.944,8.138-25.944-1.715-6.119-.653-9.609S77.487,34.5,77.487,34.5s2.475-.493,7.3.607" transform="translate(-43.188 -6.513)" fill="#ff8035"/>
        <path id="Trazado_214210" data-name="Trazado 214210" d="M49.384,31.457s4.927,1.337,5.1,2.31-4.851,7.578-4.851,7.578L46.537,36.4Z" transform="translate(1.867 -5.958)" fill="#fde4d9"/>
        <path id="Trazado_214211" data-name="Trazado 214211" d="M67.467,30.841s.772,2.169.139,3.28-4.9,4.889-4.9,4.889L59.22,33.78s4.189-1.77,4.493-1.8,3.754-1.141,3.754-1.141" transform="translate(-21.784 -5.841)" fill="#fde4d9"/>
        <path id="Trazado_214212" data-name="Trazado 214212" d="M3.293,111.338a64.759,64.759,0,0,0,28.884-5.459L24.049,76.122,0,80.667,2.78,106.58Z" transform="translate(61.899 -14.417)" fill="#0b67d1"/>
        <path id="Trazado_214213" data-name="Trazado 214213" d="M9.05,110.367a64.778,64.778,0,0,0,29.394,0L35.985,79.618H11.51L9.429,105.6Z" transform="translate(48.296 -15.079)" fill="#8c5be1"/>
        <path id="Trazado_214214" data-name="Trazado 214214" d="M28.2,71.334l-7.485-3.844s-.859-6.574.2-10.822c0,0-8.193-1.517-10.621-3.641L11.375,35.88s20.769,6.982,23.956,18.664S28.2,71.334,28.2,71.334" transform="translate(49.788 -6.795)" fill="#ff8035"/>
        <path id="Trazado_214215" data-name="Trazado 214215" d="M16.238,77.92H17.5a7.668,7.668,0,0,1,15.213,0h1.267a8.925,8.925,0,0,0-17.741,0" transform="translate(46.934 -13.253)" fill="#e94e21"/>
        <path id="Trazado_214216" data-name="Trazado 214216" d="M14.089,78.868l1.239-.234a7.668,7.668,0,0,1,14.948-2.825l1.245-.236a8.925,8.925,0,0,0-17.432,3.3" transform="translate(51.143 -13.118)" fill="#fde4d9"/>
        <path id="Trazado_214217" data-name="Trazado 214217" d="M24.15,78.3c.194.843,5.813-1.128,5.813-1.128l1.061,1.261-2.268,1.046-2.184,2.913s.339.621.794,1.357a1.456,1.456,0,0,0,.128.2.057.057,0,0,0,.011.017c.012.019.031.041.043.06.049.083.107.173.163.255a11.3,11.3,0,0,0,.726,1.013.955.955,0,0,1,.084.111,4.457,4.457,0,0,0,.448.46.906.906,0,0,0,.423.245l2.146-1.851a25.194,25.194,0,0,0,4.414.508,8.889,8.889,0,0,0,1.583-1.814c.247-.332.491-.679.734-1.01a.2.2,0,0,1,.021-.026c.08-.118.169-.236.255-.354l-.682-.971-.172-.24-.075-.113-.072-.112-2.265-3.254-.262-.107c-.317-.126-.7-.266-1.115-.409-.263-.085-.543-.18-.829-.268a11.667,11.667,0,0,0-3.107-.6,2.935,2.935,0,0,0-1.024.135c-1.973.715-4.978,1.83-4.793,2.669" transform="translate(35.961 -14.297)" fill="#ffa07f"/>
        <path id="Trazado_214218" data-name="Trazado 214218" d="M34.091,85.121c.057.092.117.186.176.28a.54.54,0,0,0,.051-.054c.282-.315.67-.734,1.1-1.179a9.355,9.355,0,0,1,1.193-1.061l.235-.163c.075-.044.14-.08.192-.112l.167-.1s-.07,0-.2.019c-.064.009-.145.018-.238.033s-.191.049-.3.081a3.717,3.717,0,0,0-1.5.935,4.381,4.381,0,0,0-.873,1.32" transform="translate(29.237 -15.669)" fill="#cf4a57"/>
        <path id="Trazado_214219" data-name="Trazado 214219" d="M32.568,86.917c.028.038.058.074.086.109l.3-.343c.282-.315.67-.736,1.1-1.18a9.264,9.264,0,0,1,1.193-1.059l.237-.166.192-.109.167-.1s-.071.006-.2.02c-.064.007-.145.018-.237.032s-.19.048-.3.082a3.709,3.709,0,0,0-1.5.933,4.424,4.424,0,0,0-.91,1.409c-.058.145-.1.272-.128.374" transform="translate(31.829 -15.922)" fill="#cf4a57"/>
        <path id="Trazado_214220" data-name="Trazado 214220" d="M27.743,78.72a7.292,7.292,0,0,1-3.737,3.08L19.847,76.32l.411-1.444Z" transform="translate(50.245 -14.181)" fill="#fde4d9"/>
        <path id="Trazado_214221" data-name="Trazado 214221" d="M81.516,70.58,89,66.736s1.513-7.013-1.1-10.529c0,0,7.292-2.212,8.721-5.105L99.35,34.527S75.371,39.708,73.778,59.771c-.644,8.116,7.737,10.809,7.737,10.809" transform="translate(-65.051 -6.539)" fill="#ff8035"/>
        <path id="Trazado_214222" data-name="Trazado 214222" d="M40.211,40.444c.165-.119.355.108.266.266-1.033,1.843-2.229,3.359-2.718,5.5a12.037,12.037,0,0,0,1.169,8.17c.292.593-.587,1.116-.892.521-2.255-4.382-2.232-11.289,2.176-14.452" transform="translate(23.943 -7.653)" fill="#e94e21"/>
        <path id="Trazado_214223" data-name="Trazado 214223" d="M83.5,80.579l-1.76-.961L74.2,87.76l1.214,1.315Z" transform="translate(-49.574 -15.079)" fill="#fde4d9"/>
        <path id="Trazado_214224" data-name="Trazado 214224" d="M79.513,37.33a.043.043,0,0,1,.062.049c-.706,2.113-2.123,3.956-2.969,6.039a30.75,30.75,0,0,0-2.079,8.218c-.082.73-1.234.743-1.157,0,.479-4.647,2.071-11.426,6.143-14.306" transform="translate(-44.973 -7.069)" fill="#e94e21"/>
        <path id="Trazado_214225" data-name="Trazado 214225" d="M23.714,59.649a23.745,23.745,0,0,1,1.969-2.156c.461-.43,1.054.2.677.677-.356.447-.751.875-1.158,1.292.194-.015.387-.028.581-.052a5.437,5.437,0,0,1,1.556-.136c.289.047.263.426.074.563-.826.6-2.391.567-3.374.6a.465.465,0,0,1-.325-.785" transform="translate(47.393 -10.862)" fill="#e94e21"/>
        <path id="Trazado_214226" data-name="Trazado 214226" d="M89.012,58.619c.541-.208,1.116.219,1.612.431l1.046.448c-.052-.188-.107-.375-.16-.563a2.385,2.385,0,0,1-.157-1.243.3.3,0,0,1,.491-.13,2.412,2.412,0,0,1,.541,1.131c.159.5.319,1,.469,1.5a.48.48,0,0,1-.7.535l-2.006-.872c-.528-.229-1.106-.332-1.338-.89-.063-.152.07-.3.2-.35" transform="translate(-70.779 -10.886)" fill="#e94e21"/>
        <path id="Trazado_214227" data-name="Trazado 214227" d="M77.2,106.483a64.758,64.758,0,0,0,29.017,4.693L108.7,80.429,84.535,76.521l-6.2,25.313Z" transform="translate(-77.197 -14.492)" fill="#43a99b"/>
        <path id="Trazado_214228" data-name="Trazado 214228" d="M81.32,75.81l1.245.2A7.668,7.668,0,0,1,97.582,78.44l1.251.2A8.925,8.925,0,0,0,81.32,75.81" transform="translate(-70.678 -13.118)" fill="#fde4d9"/>
        <path id="Trazado_214229" data-name="Trazado 214229" d="M100.059,111.3a64.778,64.778,0,0,1-29.394,0l2.459-30.749H97.6l2.082,25.978Z" transform="translate(-63.265 -15.256)" fill="#456997"/>
        <path id="Trazado_214230" data-name="Trazado 214230" d="M95.594,78.853H94.333a7.667,7.667,0,0,0-15.212,0H77.854a8.924,8.924,0,0,1,17.74,0" transform="translate(-64.627 -13.43)" fill="#e94e21"/>
        <path id="Trazado_214231" data-name="Trazado 214231" d="M88.076,77.681c-.194.843-5.813-1.128-5.813-1.128L81.2,77.814,83.47,78.86l2.184,2.913s-.339.621-.794,1.357a1.457,1.457,0,0,1-.128.2.057.057,0,0,1-.011.017c-.011.019-.031.041-.043.06-.049.084-.107.173-.163.255a11.185,11.185,0,0,1-.726,1.013.954.954,0,0,0-.084.111,4.456,4.456,0,0,1-.448.46.916.916,0,0,1-.423.246l-2.146-1.852a25.194,25.194,0,0,1-4.414.508,8.889,8.889,0,0,1-1.583-1.814c-.247-.332-.491-.679-.734-1.01a.2.2,0,0,0-.021-.026c-.08-.118-.169-.236-.255-.354l.682-.971.172-.239.075-.113.072-.112,2.265-3.254.262-.107c.317-.127.7-.266,1.115-.41.263-.085.543-.18.829-.268a11.631,11.631,0,0,1,3.107-.6,2.914,2.914,0,0,1,1.024.135c1.973.714,4.978,1.829,4.793,2.669" transform="translate(-53.733 -14.181)" fill="#ffa07f"/>
        <path id="Trazado_214232" data-name="Trazado 214232" d="M80.773,84.506c-.056.092-.116.186-.175.28a.54.54,0,0,1-.051-.054c-.282-.315-.67-.734-1.1-1.179a9.356,9.356,0,0,0-1.193-1.061l-.235-.163c-.075-.044-.14-.08-.192-.112l-.167-.1s.07,0,.2.019c.064.009.145.018.238.033s.191.049.3.081a3.723,3.723,0,0,1,1.5.935,4.371,4.371,0,0,1,.872,1.32" transform="translate(-49.649 -15.552)" fill="#cf4a57"/>
        <path id="Trazado_214233" data-name="Trazado 214233" d="M82.257,86.3c-.028.037-.058.073-.086.109-.079-.088-.181-.2-.3-.344-.282-.315-.67-.735-1.1-1.18a9.39,9.39,0,0,0-1.193-1.059l-.237-.165c-.075-.042-.139-.08-.192-.109l-.167-.1s.071,0,.2.02c.064.006.145.017.237.032s.19.049.3.083a3.709,3.709,0,0,1,1.5.933,4.424,4.424,0,0,1,.91,1.409c.058.146.1.272.128.374" transform="translate(-52.201 -15.805)" fill="#cf4a57"/>
        <path id="Trazado_214234" data-name="Trazado 214234" d="M86,78.1a7.292,7.292,0,0,0,3.737,3.08L93.9,75.7l-.411-1.443Z" transform="translate(-69.538 -14.064)" fill="#fde4d9"/>
        <path id="Trazado_214235" data-name="Trazado 214235" d="M41.1,12.572l5.065-.49L44.825,9.4l-3.034,1.607.986-4.228-2.5,4.228Z" transform="translate(15.26 -1.284)" fill="#55062c"/>
      </g>
    </g>
  </g>
</svg>
