<svg xmlns="http://www.w3.org/2000/svg" width="138.887" height="121.908" viewBox="0 0 138.887 121.908">
  <g id="Grupo_177351" data-name="Grupo 177351" transform="translate(-1837.303 4111.939)">
    <path id="Trazado_216882" data-name="Trazado 216882" d="M109.35,103.051s75.679-56.759,24.484-71.783S29.776-21.04,15.865,15.687s23.928,52.307,6.121,72.34,22.258,56.2,87.365,15.024" transform="translate(1824.581 -4111.939)" fill="#fff"/>
    <g id="casa" transform="translate(1841.303 -4151.53)">
      <g id="Grupo_174777" data-name="Grupo 174777" transform="translate(0 57.5)">
        <path id="Trazado_216867" data-name="Trazado 216867" d="M123.845,146.232h-4.183v-6.644a15.845,15.845,0,1,0-14.831-27.737V101.037l.2.156a5.7,5.7,0,0,0,8-1.053,5.711,5.711,0,0,0-1.052-8L96.634,80.365a1.9,1.9,0,0,0-2.315,3.017l15.346,11.777a1.9,1.9,0,0,1-1.16,3.41,1.883,1.883,0,0,1-1.155-.393L66.059,66.487a1.9,1.9,0,0,0-2.315,0L22.454,98.176a1.9,1.9,0,1,1-2.315-3.017L63.744,61.693a1.9,1.9,0,0,1,2.315,0l21.825,16.75A1.9,1.9,0,0,0,90.2,75.426L68.374,58.676a5.713,5.713,0,0,0-6.945,0L17.823,92.142a5.7,5.7,0,1,0,6.946,9.051l.2-.156v10.814a15.846,15.846,0,1,0-14.831,27.737v6.644H5.958a5.958,5.958,0,0,0,0,11.916h99.475a1.9,1.9,0,1,0,0-3.8H5.958a2.155,2.155,0,1,1,0-4.31H123.845a2.155,2.155,0,1,1,0,4.31h-10.2a1.9,1.9,0,1,0,0,3.8h10.2a5.958,5.958,0,0,0,0-11.916Zm-9.887-33.466a12.043,12.043,0,1,1-9.127,19.9V116.955a11.963,11.963,0,0,1,9.127-4.188Zm-9.127,25a15.64,15.64,0,0,0,3.423,1.829v6.636h-3.423Zm-79.859,0v8.465H21.549V139.6a15.64,15.64,0,0,0,3.423-1.829ZM3.8,124.809a12.041,12.041,0,0,1,21.169-7.854v15.708A12.041,12.041,0,0,1,3.8,124.809Zm10.141,21.423v-5.7a15.9,15.9,0,0,0,1.9.118,16.131,16.131,0,0,0,1.9-.114v5.692h-3.8Zm48.549,0V111.626a1.9,1.9,0,0,0-1.9-1.9H37.775a1.9,1.9,0,0,0-1.9,1.9v22.505a1.9,1.9,0,0,0,3.8,0v-20.6H58.69v32.705H39.676V142.3a1.9,1.9,0,1,0-3.8,0v3.936h-7.1V98.118L64.9,70.392l36.127,27.726v48.114Zm49.564,0V140.54a16.128,16.128,0,0,0,1.9.114,15.9,15.9,0,0,0,1.9-.118v5.7h-3.8Z" transform="translate(0 -57.5)"/>
        <path id="Trazado_216868" data-name="Trazado 216868" d="M286.148,278.734V265.4a1.9,1.9,0,0,0-1.9-1.9h-22.31a1.9,1.9,0,0,0-1.9,1.9v13.338a2.918,2.918,0,0,0-2.535,2.888V287.2a2.919,2.919,0,0,0,2.915,2.916h25.352a2.919,2.919,0,0,0,2.916-2.916v-5.577A2.918,2.918,0,0,0,286.148,278.734Zm-3.8-.028h-7.352V267.3h7.352ZM263.838,267.3h7.352v11.409h-7.352Zm21.042,19.015H261.3v-3.8H284.88Z" transform="translate(-192.218 -211.271)"/>
        <path id="Trazado_216869" data-name="Trazado 216869" d="M235.049,156.807a10.775,10.775,0,1,0-10.775,10.775A10.787,10.787,0,0,0,235.049,156.807Zm-4.035-1.785h-4.838V150.1A7,7,0,0,1,231.014,155.022Zm-8.641-4.922v4.922h-4.838A7,7,0,0,1,222.373,150.1Zm-4.772,8.725h4.772v4.688A7,7,0,0,1,217.6,158.825Zm8.574,4.688v-4.688h4.772A7,7,0,0,1,226.176,163.513Z" transform="translate(-159.373 -123.587)"/>
      </g>
    </g>
  </g>
</svg>
