<svg xmlns="http://www.w3.org/2000/svg" width="138.887" height="121.909" viewBox="0 0 138.887 121.909">
  <g id="Grupo_177352" data-name="Grupo 177352" transform="translate(-1135.12 3839.997)">
    <path id="Trazado_216883" data-name="Trazado 216883" d="M109.35,103.051s75.679-56.759,24.484-71.783S29.776-21.04,15.865,15.687s23.928,52.307,6.121,72.34,22.258,56.2,87.365,15.024" transform="translate(1122.398 -3839.997)" fill="#fff"/>
    <g id="obrero" transform="translate(1155 -3822.088)">
      <path id="Trazado_216870" data-name="Trazado 216870" d="M35.367,64.641H29.273A3.446,3.446,0,0,1,25.83,61.2V57.8a.456.456,0,0,0-.352-.432,25.8,25.8,0,0,1-6.056-2.516.415.415,0,0,0-.506.05l-2.426,2.426a3.444,3.444,0,0,1-4.869,0l-4.31-4.31a3.442,3.442,0,0,1,0-4.869l2.426-2.426a.413.413,0,0,0,.05-.506,25.835,25.835,0,0,1-2.515-6.056.456.456,0,0,0-.432-.352h-3.4A3.447,3.447,0,0,1,0,35.367V29.273A3.447,3.447,0,0,1,3.443,25.83h3.4a.456.456,0,0,0,.432-.352,25.832,25.832,0,0,1,2.516-6.056.415.415,0,0,0-.05-.506L7.311,16.489a3.442,3.442,0,0,1,0-4.869l4.31-4.31a3.444,3.444,0,0,1,4.869,0l2.426,2.426a.415.415,0,0,0,.506.05,25.831,25.831,0,0,1,6.056-2.516.455.455,0,0,0,.353-.432v-3.4A3.447,3.447,0,0,1,29.273,0h6.094A3.447,3.447,0,0,1,38.81,3.443v3.4a.454.454,0,0,0,.352.431,25.848,25.848,0,0,1,6.056,2.517.416.416,0,0,0,.507-.05L48.15,7.311a3.441,3.441,0,0,1,4.869,0l.456.456a1.522,1.522,0,0,1-2.153,2.153c-.281-.243-.641-.835-1.019-.456l-2.426,2.426a3.469,3.469,0,0,1-4.175.538,22.817,22.817,0,0,0-5.341-2.219,3.512,3.512,0,0,1-2.6-3.37v-3.4a.4.4,0,0,0-.4-.4H29.272a.4.4,0,0,0-.4.4v3.4a3.512,3.512,0,0,1-2.6,3.37,22.806,22.806,0,0,0-5.342,2.219,3.468,3.468,0,0,1-4.174-.538L14.337,9.465a.4.4,0,0,0-.562,0l-4.31,4.31a.4.4,0,0,0,0,.562l2.426,2.426a3.468,3.468,0,0,1,.538,4.174,22.822,22.822,0,0,0-2.219,5.342,3.511,3.511,0,0,1-3.369,2.6h-3.4a.4.4,0,0,0-.4.4v6.094a.4.4,0,0,0,.4.4h3.4a3.512,3.512,0,0,1,3.37,2.6A22.758,22.758,0,0,0,12.428,43.7a3.468,3.468,0,0,1-.538,4.174L9.465,50.3a.388.388,0,0,0-.117.281.394.394,0,0,0,.117.281l4.31,4.309a.4.4,0,0,0,.563,0l2.426-2.426a3.469,3.469,0,0,1,4.175-.538,22.8,22.8,0,0,0,5.341,2.219,3.512,3.512,0,0,1,2.6,3.37v3.4a.4.4,0,0,0,.4.4h6.094a.4.4,0,0,0,.4-.4V57.8a3.512,3.512,0,0,1,2.6-3.37,1.522,1.522,0,0,1,.8,2.937.456.456,0,0,0-.353.433v3.4a3.447,3.447,0,0,1-3.443,3.443Zm0,0"/>
      <path id="Trazado_216871" data-name="Trazado 216871" d="M88.535,102.843a14.367,14.367,0,0,1,19.45-13.414,1.523,1.523,0,0,1-1.085,2.846,11.3,11.3,0,1,0-3.342,21.852,1.523,1.523,0,0,1,.179,3.04,14.365,14.365,0,0,1-15.2-14.324Zm0,0" transform="translate(-70.564 -70.522)"/>
      <path id="Trazado_216872" data-name="Trazado 216872" d="M158.678,117.681l-15.426-3v-3.812a16.1,16.1,0,0,0,7.188-11.841,4.378,4.378,0,0,0,4.023-4.358V91.542a4.151,4.151,0,0,0-.707-7.846V82.488A19.66,19.66,0,0,0,134.1,62.828h-1.648A19.659,19.659,0,0,0,112.79,82.487V83.7a4.151,4.151,0,0,0-.707,7.846v3.129a4.378,4.378,0,0,0,4.023,4.358,16.059,16.059,0,0,0,5.4,10.465,20.011,20.011,0,0,0,1.788,1.376v3.812l-15.426,3c-8.139,1.583-14.482,6.171-14.482,14.636V147.8a6.2,6.2,0,0,0,6.2,6.2h67.366a6.2,6.2,0,0,0,6.2-6.2V132.316c0-8.438-6.3-13.046-14.482-14.636Zm-12.672.638c-1.105,1.607-2.8,4.061-4.62,6.7a2.215,2.215,0,0,1-2.6.9l-2.4-1.442c2.345-1.385,5.591-3.764,6.576-6.756Zm-12.734,4.387c-2.312-1.164-6.921-4.04-6.934-6.758v-3.4a17.483,17.483,0,0,0,13.869,0v3.385c0,2.723-4.62,5.605-6.935,6.77ZM115.835,82.487a16.626,16.626,0,0,1,8.571-14.534v1.909a1.522,1.522,0,0,0,3.045,0V66.642a16.507,16.507,0,0,1,4.3-.753v7.528a1.522,1.522,0,0,0,3.045,0V65.888a16.513,16.513,0,0,1,4.3.753v3.221a1.522,1.522,0,0,0,3.045,0V67.954a16.626,16.626,0,0,1,8.571,14.534v1.1H115.835Zm-2.1,4.145h39.086a1.1,1.1,0,0,1,0,2.205H113.731A1.1,1.1,0,0,1,113.731,86.633Zm5.324,10.854A1.522,1.522,0,0,0,117.532,96c-.254-.063-2.4.4-2.4-1.327V91.884h36.292v2.787c0,1.719-2.208,1.278-2.4,1.327a1.523,1.523,0,0,0-1.522,1.49,13.128,13.128,0,0,1-4.437,9.7,14.616,14.616,0,0,1-19.562,0,13.126,13.126,0,0,1-4.438-9.7Zm4.535,20.238c.986,2.992,4.23,5.37,6.577,6.756-2.41,1.291-2.24,1.677-3.335,1.548A2.4,2.4,0,0,1,125.148,125c-1.821-2.636-3.5-5.082-4.608-6.685ZM106.023,150.96H99.59a3.159,3.159,0,0,1-3.159-3.159V132.316c0-4.562,2.073-7.717,6.619-9.9a62.618,62.618,0,0,1,2.973,18.962Zm25.727,0H109.068v-9.578a63.884,63.884,0,0,0-3.179-20.094c1.778-.591.458-.136,11.391-2.337,3.142,4.566,9.007,13.086,12.464,18a10.957,10.957,0,0,1,2.006,6.339Zm1.522-14.037a14.333,14.333,0,0,0-1.038-1.723c-1.169-1.66-2.686-3.839-4.268-6.124a4.563,4.563,0,0,0,1.36-.542l3.946-2.367,3.947,2.367a4.555,4.555,0,0,0,1.36.542c-1.583,2.283-3.1,4.462-4.268,6.124A14.233,14.233,0,0,0,133.273,136.923ZM170.115,147.8a3.159,3.159,0,0,1-3.159,3.159h-6.434v-5.744a1.522,1.522,0,0,0-3.045,0v5.744H134.8v-7.67a10.958,10.958,0,0,1,2.006-6.338c1.966-2.8,10.063-14.479,12.465-18,10.928,2.2,9.61,1.745,11.39,2.337a66.393,66.393,0,0,0-3.137,17.776,1.522,1.522,0,0,0,3.042.109,60.886,60.886,0,0,1,2.934-16.753c4.547,2.179,6.619,5.333,6.619,9.895Zm0,0" transform="translate(-74.43 -50.075)"/>
    </g>
  </g>
</svg>
