<svg xmlns="http://www.w3.org/2000/svg" width="138.886" height="121.909" viewBox="0 0 138.886 121.909">
  <g id="Grupo_177348" data-name="Grupo 177348" transform="translate(-1872 4428.087)">
    <path id="Trazado_226206" data-name="Trazado 226206" d="M109.35,103.051s75.679-56.759,24.484-71.783S29.776-21.04,15.865,15.687s23.928,52.307,6.121,72.34,22.258,56.2,87.365,15.024" transform="translate(1859.278 -4428.087)" fill="#fff"/>
    <g id="anillos" transform="translate(1885 -4434.096)">
      <path id="Trazado_216862" data-name="Trazado 216862" d="M111.644,45.871,97.879,36a3.088,3.088,0,0,0-3.393-.282c-.12.049-6.747,2.345-6.775,2.357a5.994,5.994,0,0,0-.766.37,1.649,1.649,0,0,0-.453.31,3.06,3.06,0,0,0-.971,2.652l.01,11.155a38.082,38.082,0,0,0-24.578-1.5,38.14,38.14,0,0,0-13.795-6.4l6.513-9.07a3.051,3.051,0,0,0,.533-3.3c-.1-.217-4.44-6.433-4.508-6.542a3.07,3.07,0,0,0-2.918-1.756H29.833a3.07,3.07,0,0,0-2.918,1.756c-.068.109-4.452,6.405-4.561,6.655a1.641,1.641,0,0,0-.157.44,3.039,3.039,0,0,0,.747,2.753l6.505,9.066a38.349,38.349,0,1,0,18.908,74.322l.341.248a37.988,37.988,0,0,0,22.236,7.191,38.745,38.745,0,0,0,6.3-.519,38.06,38.06,0,0,0,24.914-15.5,38.445,38.445,0,0,0-2.227-47.507l10.565-3.571a2.982,2.982,0,0,0,2.45-3.148c0-.028.048-7.043.056-7.172a3.079,3.079,0,0,0-1.352-3.132ZM95.955,38.692l13.751,9.864c0,.074-.07,6.505-.07,6.505L90.971,40.449S95.889,38.718,95.955,38.692Zm-7.121,4.289,17.992,14.085L97.4,60.254a38.466,38.466,0,0,0-8.554-6.142ZM29.849,27.3H46.764c.04.061,2.941,4.212,2.941,4.212h-22.8S29.809,27.359,29.849,27.3Zm-3.382,7.524H50.144l-6.579,9.161a38.265,38.265,0,0,0-10.523,0ZM3.311,81.967a34.995,34.995,0,1,1,69.989,0A35.463,35.463,0,0,1,60.192,109.33a24.17,24.17,0,0,1-3.062-1.871,23.86,23.86,0,0,1-3.482-3.051A26.776,26.776,0,0,0,65.454,81.967a27.063,27.063,0,0,0-5.817-16.793c-.01-.017-.018-.034-.029-.051a1.669,1.669,0,0,0-.27-.321,27.313,27.313,0,0,0-9.6-7.48,1.671,1.671,0,0,0-.248-.116,27.134,27.134,0,0,0-33.461,9.21c-.264.385-.495.735-.707,1.068a1.656,1.656,0,1,0,2.795,1.776c.192-.3.4-.62.636-.961A23.831,23.831,0,0,1,45.7,59.276a38.4,38.4,0,0,0-8.652,46.529,23.9,23.9,0,0,1-21.8-29.935,1.656,1.656,0,0,0-3.2-.839A27.207,27.207,0,0,0,38.306,109.15c.257,0,.482,0,.7-.008a38.017,38.017,0,0,0,6.127,7.192A35.014,35.014,0,0,1,3.311,81.967Zm58.832,0a23.5,23.5,0,0,1-10.6,19.864,23.932,23.932,0,0,1,.1-27.677,23.684,23.684,0,0,1,6.131-5.945A23.755,23.755,0,0,1,62.143,81.967ZM99.46,108.473a34.969,34.969,0,0,1-48.829,8.066c-.305-.22-.594-.428-.866-.643l-.024-.019a34.748,34.748,0,0,1-8.4-9.226c-.026-.048-.055-.094-.086-.139a35.079,35.079,0,0,1,7.884-45.8,23.975,23.975,0,0,1,6.532,4.925,27.2,27.2,0,0,0-5.918,39.327,1.663,1.663,0,0,0,.207.255,27.1,27.1,0,0,0,5.239,4.932,27.442,27.442,0,0,0,4.512,2.628l.015.008a26.814,26.814,0,0,0,11.233,2.461,27.488,27.488,0,0,0,4.472-.368,26.971,26.971,0,0,0,17.654-10.985,1.656,1.656,0,1,0-2.692-1.928,23.853,23.853,0,0,1-26.776,8.794,38.787,38.787,0,0,0,13-28.792,38.142,38.142,0,0,0-4.354-17.74A23.856,23.856,0,0,1,84.9,68.659a24.1,24.1,0,0,1,8.79,26.8,1.656,1.656,0,1,0,3.148,1.025A27.179,27.179,0,0,0,70.291,60.89,38.638,38.638,0,0,0,64.164,53.7a34.732,34.732,0,0,1,22.21,2.868,1.587,1.587,0,0,0,.142.072A35.066,35.066,0,0,1,99.46,108.473Z" transform="translate(0 0)"/>
    </g>
  </g>
</svg>
