<svg xmlns="http://www.w3.org/2000/svg" width="138.886" height="121.909" viewBox="0 0 138.886 121.909">
  <g id="Grupo_177347" data-name="Grupo 177347" transform="translate(-1521 4428.087)">
    <path id="Trazado_226205" data-name="Trazado 226205" d="M109.35,103.051s75.679-56.759,24.484-71.783S29.776-21.04,15.865,15.687s23.928,52.307,6.121,72.34,22.258,56.2,87.365,15.024" transform="translate(1508.278 -4428.087)" fill="#fff"/>
    <g id="grupo-de-edad" transform="translate(1527.902 -4410.11)">
      <path id="Trazado_216847" data-name="Trazado 216847" d="M403.536,380.9a1.525,1.525,0,0,0,1.525-1.525v-2.622a1.525,1.525,0,0,0-3.051,0v2.622A1.526,1.526,0,0,0,403.536,380.9Z" transform="translate(-310.765 -299.056)"/>
      <path id="Trazado_216848" data-name="Trazado 216848" d="M332.876,380.9a1.525,1.525,0,0,0,1.525-1.525v-2.622a1.525,1.525,0,0,0-3.051,0v2.622A1.525,1.525,0,0,0,332.876,380.9Z" transform="translate(-254.448 -299.056)"/>
      <path id="Trazado_216849" data-name="Trazado 216849" d="M337.7,405.469c-1.473,0-5.148.3-7.459,3.057-1.661,1.982-2.2,4.7-1.6,8.073a1.525,1.525,0,0,0,1.21,1.23c.223.043,4.787.886,7.848-2.165a8.615,8.615,0,0,0,6.146,2.3,9.569,9.569,0,0,0,1.7-.139,1.526,1.526,0,0,0,1.21-1.23c.6-3.375.063-6.091-1.6-8.073C342.848,405.767,339.173,405.469,337.7,405.469Zm6.206,9.451a5.245,5.245,0,0,1-4.868-2.518,1.525,1.525,0,0,0-2.676,0,5.217,5.217,0,0,1-4.8,2.521h-.072a5.909,5.909,0,0,1,1.085-4.437c1.486-1.773,4.076-1.965,5.121-1.965s3.635.191,5.121,1.965A5.907,5.907,0,0,1,343.906,414.92Z" transform="translate(-252.1 -323.163)"/>
      <path id="Trazado_216850" data-name="Trazado 216850" d="M357.218,354.429a1.525,1.525,0,0,0,0,3.051h4.461a1.525,1.525,0,0,0,0-3.051Z" transform="translate(-273.849 -282.483)"/>
      <path id="Trazado_216851" data-name="Trazado 216851" d="M352.138,330.7h6.523a1.525,1.525,0,0,0,0-3.051h-6.523a1.525,1.525,0,1,0,0,3.051Z" transform="translate(-269.8 -261.138)"/>
      <path id="Trazado_216852" data-name="Trazado 216852" d="M105.724,61.937A1.525,1.525,0,0,0,103.1,63.5a21.771,21.771,0,0,1,2.984,11.166,6.885,6.885,0,0,0-2.98-.186,17.716,17.716,0,0,0-35.014,0,7.01,7.01,0,0,0-1.068-.084,6.918,6.918,0,0,0-1.916.271,21.069,21.069,0,0,1,5.516-14.547,20.237,20.237,0,0,1,28.906-1.046,1.525,1.525,0,0,0,2.082-2.23A23.969,23.969,0,0,0,93.2,51.766a17.757,17.757,0,0,0,10-14,6.94,6.94,0,0,0,5.192-12.385,20.588,20.588,0,0,0,.664-10.76,14.789,14.789,0,0,0-5.218-8.907,12.929,12.929,0,0,0-8.511-2.329A15.205,15.205,0,0,0,85.6,0,27.676,27.676,0,0,0,70.722,4.252a1.525,1.525,0,1,0,1.7,2.531C77.571,3.321,83.808,3.052,85.6,3.052A11.744,11.744,0,0,1,93.711,6.03a1.537,1.537,0,0,0,1.37.45,10.034,10.034,0,0,1,6.952,1.692c4.326,3.18,5.249,10.455,3.564,15.922a6.961,6.961,0,0,0-3.756.255c-4.63-2.468-9.669-9.579-9.721-9.653a1.525,1.525,0,0,0-2.2-.315c-.112.089-11.1,8.791-20.289,10.077a6.918,6.918,0,0,0-4.176-.331c-.525-5.535.478-10.091,3-13.555a1.525,1.525,0,1,0-2.467-1.8c-3.156,4.336-4.312,9.988-3.443,16.809a7,7,0,0,0-.939.963,6.931,6.931,0,0,0-5.415-2.606,7.006,7.006,0,0,0-1.068.084A17.751,17.751,0,0,0,39.309,9.108a8.23,8.23,0,0,1,4.746-6.182A1.525,1.525,0,1,0,42.84.128a11.075,11.075,0,0,0-6.4,7.826A8.193,8.193,0,0,1,34.06,2.223a1.525,1.525,0,0,0-3.049-.089,11.546,11.546,0,0,0,2.654,7.338A17.764,17.764,0,0,0,20.109,24.026a6.944,6.944,0,1,0-.095,13.733,17.761,17.761,0,0,0,11,14.443q-.462.106-.912.205c-5.654,1.235-8.156-1.2-8.345-1.4a1.493,1.493,0,0,0-2.247-.022c-.184.2-4.263,4.634-2.8,9.76A16.873,16.873,0,0,0,14.6,64.586,1.525,1.525,0,1,0,17.443,65.7a12.88,12.88,0,0,1,2.1-3.619,1.526,1.526,0,0,0,.291-1.611c-1-2.451.175-4.92,1.072-6.295,1.687,1.048,4.9,2.292,9.844,1.213.689-.15,1.38-.312,2.111-.483,6.412-1.5,13.044-3.052,16.615,2.831a1.542,1.542,0,0,0,.975.7,11.009,11.009,0,0,1,6.356,4.785c1.75,2.914,2.12,6.756,1.112,11.434a6.932,6.932,0,0,0-3.628.021A35.125,35.125,0,0,1,50.336,67.5a1.526,1.526,0,0,0-1.8-.906c-.07.018-7.071,1.822-10.948,1.822s-10.878-1.8-10.948-1.822a1.526,1.526,0,0,0-1.8.906,35.145,35.145,0,0,1-3.958,7.174A6.917,6.917,0,0,0,17.1,74.7a14.342,14.342,0,0,1-.6-3.6,1.525,1.525,0,1,0-3.049.1,17.575,17.575,0,0,0,.928,5.015A6.935,6.935,0,0,0,19.036,88.3a7,7,0,0,0,.971-.07,17.7,17.7,0,0,0,35.169,0,6.906,6.906,0,0,0,6.415-2.576A6.913,6.913,0,0,0,68,88.211a17.714,17.714,0,0,0,35.2,0,6.933,6.933,0,0,0,7.916-6.873,6.921,6.921,0,0,0-2.022-4.893,25.584,25.584,0,0,0-3.372-14.508Zm-2.411-34.843a3.894,3.894,0,1,1,0,7.6ZM19.9,34.683a3.893,3.893,0,1,1,0-7.594Zm-.008,50.468a3.887,3.887,0,1,1,0-7.584Zm32.345,1.082a14.647,14.647,0,0,1-29.295,0V77.027a37.435,37.435,0,0,0,4.212-7.166A54.5,54.5,0,0,0,37.59,71.467a54.52,54.52,0,0,0,10.436-1.605,38.821,38.821,0,0,0,2.8,5.14c.409.632.84,1.254,1.245,1.8l.17.227v9.205ZM70.929,27.339C74.912,26.62,79.5,24.72,84.6,21.68c2.6-1.55,4.712-3.035,5.967-3.96,1.757,2.287,5.7,7.039,9.7,9.244v8.806a14.667,14.667,0,1,1-29.334,0ZM67.017,27a3.892,3.892,0,0,1,.861.1v7.6A3.894,3.894,0,1,1,67.017,27Zm-11.687.091a3.892,3.892,0,1,1,0,7.594ZM37.615,50.429A14.681,14.681,0,0,1,22.951,35.765V26.741a14.664,14.664,0,0,1,29.328,0v9.023A14.681,14.681,0,0,1,37.615,50.429Zm14.139,5.2A11.024,11.024,0,0,0,46.2,51.253a17.75,17.75,0,0,0,9.012-13.494,6.913,6.913,0,0,0,6.384-2.53,6.933,6.933,0,0,0,5.417,2.606,7,7,0,0,0,.974-.07A17.757,17.757,0,0,0,78.006,51.774a24,24,0,0,0-9.619,6.271c-3.16,3.412-6.765,9.347-6.286,18.4a7.011,7.011,0,0,0-.529.6,7,7,0,0,0-.86-.9c1.424-5.865.982-10.756-1.319-14.547a14.007,14.007,0,0,0-7.639-5.963Zm4.392,29.614a3.9,3.9,0,0,1-.857-.095V77.568a3.887,3.887,0,1,1,.857,7.679Zm11.739-.112a3.893,3.893,0,1,1,0-7.594Zm32.379,1.082a14.664,14.664,0,0,1-29.328,0V77.193a14.664,14.664,0,1,1,29.328,0Zm3.911-.986a3.9,3.9,0,0,1-.86-.1V77.541a3.893,3.893,0,1,1,.86,7.689Z" transform="translate(0 0)"/>
      <path id="Trazado_216853" data-name="Trazado 216853" d="M403.522,145.581a1.525,1.525,0,0,0,1.525-1.525v-2.623a1.525,1.525,0,0,0-3.051,0v2.623A1.525,1.525,0,0,0,403.522,145.581Z" transform="translate(-310.754 -111.507)"/>
      <path id="Trazado_216854" data-name="Trazado 216854" d="M332.847,145.581a1.525,1.525,0,0,0,1.525-1.525v-2.623a1.525,1.525,0,0,0-3.051,0v2.623A1.526,1.526,0,0,0,332.847,145.581Z" transform="translate(-254.425 -111.507)"/>
      <path id="Trazado_216855" data-name="Trazado 216855" d="M346.127,193.949a6.533,6.533,0,0,0,11.2,0,1.525,1.525,0,1,0-2.821-1.162c-.005.013-.589,1.282-2.781,1.282s-2.775-1.269-2.781-1.282a1.525,1.525,0,1,0-2.821,1.162Z" transform="translate(-266.133 -152.9)"/>
      <path id="Trazado_216856" data-name="Trazado 216856" d="M167.145,139.909a1.525,1.525,0,0,0-1.525,1.525v2.622a1.525,1.525,0,0,0,3.051,0v-2.622A1.526,1.526,0,0,0,167.145,139.909Z" transform="translate(-122.359 -111.508)"/>
      <path id="Trazado_216857" data-name="Trazado 216857" d="M98.008,141.433a1.525,1.525,0,1,0-3.051,0v2.622a1.525,1.525,0,1,0,3.051,0Z" transform="translate(-66.04 -111.508)"/>
      <path id="Trazado_216858" data-name="Trazado 216858" d="M120.13,191.956a1.525,1.525,0,0,0-1.991.83c-.005.013-.589,1.282-2.781,1.282s-2.775-1.269-2.781-1.282a1.525,1.525,0,1,0-2.821,1.162,6.533,6.533,0,0,0,11.2,0A1.526,1.526,0,0,0,120.13,191.956Z" transform="translate(-77.743 -152.899)"/>
      <path id="Trazado_216859" data-name="Trazado 216859" d="M166.986,381.018a1.525,1.525,0,0,0,1.525-1.525v-2.62a1.525,1.525,0,1,0-3.051,0v2.62A1.525,1.525,0,0,0,166.986,381.018Z" transform="translate(-122.232 -299.156)"/>
      <path id="Trazado_216860" data-name="Trazado 216860" d="M96.4,381.018a1.525,1.525,0,0,0,1.525-1.525v-2.62a1.525,1.525,0,1,0-3.051,0v2.62A1.526,1.526,0,0,0,96.4,381.018Z" transform="translate(-65.972 -299.156)"/>
      <path id="Trazado_216861" data-name="Trazado 216861" d="M101.217,405.564c-1.471,0-5.144.3-7.453,3.054-1.659,1.981-2.2,4.695-1.6,8.066a1.525,1.525,0,0,0,1.21,1.23c.222.043,4.782.884,7.84-2.162a8.609,8.609,0,0,0,6.14,2.3,9.522,9.522,0,0,0,1.7-.139,1.526,1.526,0,0,0,1.21-1.23c.6-3.371.063-6.085-1.6-8.066C106.361,405.862,102.688,405.564,101.217,405.564Zm6.2,9.443a5.238,5.238,0,0,1-4.86-2.516,1.525,1.525,0,0,0-2.676,0,5.245,5.245,0,0,1-4.86,2.517,5.9,5.9,0,0,1,1.084-4.43c1.484-1.771,4.071-1.962,5.115-1.962s3.63.191,5.114,1.962A5.9,5.9,0,0,1,107.415,415.007Z" transform="translate(-63.627 -323.238)"/>
    </g>
  </g>
</svg>
