<svg xmlns="http://www.w3.org/2000/svg" width="138.887" height="121.908" viewBox="0 0 138.887 121.908">
  <g id="Grupo_177349" data-name="Grupo 177349" transform="translate(-1135.303 4111.939)">
    <path id="Trazado_216880" data-name="Trazado 216880" d="M109.35,103.051s75.679-56.759,24.484-71.783S29.776-21.04,15.865,15.687s23.928,52.307,6.121,72.34,22.258,56.2,87.365,15.024" transform="translate(1122.581 -4111.939)" fill="#fff"/>
    <g id="Page-1" transform="translate(1152.303 -4094.029)">
      <g id="_059---Money-Bag" data-name="059---Money-Bag" transform="translate(0 -0.001)">
        <path id="Shape" d="M60.684,52.525a16.629,16.629,0,0,0,3.18-9.71A1.732,1.732,0,0,0,62.217,41,1.751,1.751,0,0,0,60.4,42.648a13.265,13.265,0,0,1-2.437,7.725c-3.379,4.268-9.792,4.485-11.044,4.485a1.732,1.732,0,0,0,0,3.464c1.531,0,9.39-.279,13.762-5.8Z" transform="translate(33.086 28.287)"/>
        <path id="Shape-2" data-name="Shape" d="M35.464,43.786a1.732,1.732,0,1,0-3.464,0,6.929,6.929,0,0,0,6.929,6.929v1.732a1.732,1.732,0,0,0,3.464,0V50.714a6.929,6.929,0,0,0,0-13.857V29.929a3.464,3.464,0,0,1,3.464,3.464,1.732,1.732,0,1,0,3.464,0,6.929,6.929,0,0,0-6.929-6.929V24.732a1.732,1.732,0,0,0-3.464,0v1.732a6.929,6.929,0,0,0,0,13.857V47.25A3.464,3.464,0,0,1,35.464,43.786Zm0-10.393a3.464,3.464,0,0,1,3.464-3.464v6.929A3.464,3.464,0,0,1,35.464,33.393Zm6.929,6.929a3.464,3.464,0,0,1,0,6.929Z" transform="translate(23.429 15.109)"/>
        <path id="Shape-3" data-name="Shape" d="M102.481,59.5C98.213,41.36,88.724,30.851,81.872,25.361c8.593.648,11.359,4.223,11.441,4.33a1.732,1.732,0,0,0,2.868-1.942c-.125-.187-2.531-3.624-9.527-5.2a7.945,7.945,0,0,0,2.9-5.964,8.9,8.9,0,0,0-6.624-8.068,31.6,31.6,0,0,0,.232-3.771,3.464,3.464,0,0,0-4.817-3.184,9.9,9.9,0,0,0-2.411,1.547,4.465,4.465,0,0,1-3.239,1.351,4.471,4.471,0,0,1-3.234-1.351,7.968,7.968,0,0,0-10.812,0A4.455,4.455,0,0,1,55.4,4.465a4.453,4.453,0,0,1-3.232-1.351,9.911,9.911,0,0,0-2.4-1.545,3.464,3.464,0,0,0-4.81,3.184c0,4.31.852,12,6.248,17.159a47.787,47.787,0,0,0-7.9,6.012V14.858c0-3.949-5.586-6.929-12.991-6.929s-12.991,2.979-12.991,6.929V32.309c-6.075.606-10.393,3.334-10.393,6.8V83.165C2.744,84.289,0,86.569,0,89.34V98c0,3.949,5.586,6.929,12.991,6.929,6.622,0,11.779-2.385,12.8-5.716a19.457,19.457,0,0,0,9.723,2.252c7.4,0,12.991-2.979,12.991-6.929V72.019c0-3.949-5.586-6.929-12.991-6.929a25.7,25.7,0,0,0-2.6.13V39.108c0-3.793-5.157-6.683-12.125-6.906V19.654a19.726,19.726,0,0,0,9.527,2.132,19.726,19.726,0,0,0,9.527-2.132V31.467c-1.141,1.277-2.288,2.668-3.419,4.209a1.732,1.732,0,0,0,2.792,2.046,52.506,52.506,0,0,1,3.572-4.33c.014-.016.026-.031.04-.045a45.535,45.535,0,0,1,11.5-9.213,10.992,10.992,0,0,0,2.673.889L52.527,29.19a1.733,1.733,0,0,0,2.366,2.532l6.929-6.463h.553v5.2a1.732,1.732,0,1,0,3.464,0V25.251h.553l6.929,6.463a1.733,1.733,0,0,0,2.366-2.532L71.191,25a10.912,10.912,0,0,0,2.655-.892C78.425,26.581,93.474,36.368,99.11,60.29c2.451,10.414,1.568,18.38-2.624,23.672-5.363,6.764-14.668,7.11-16.478,7.11H55.429a1.732,1.732,0,1,0,0,3.464H80.008c2.945,0,13-.608,19.192-8.423,4.881-6.165,5.986-15.12,3.281-26.616ZM12.991,85.876c5.728,0,9.527,2.079,9.527,3.464s-3.8,3.464-9.527,3.464S3.464,90.726,3.464,89.34,7.263,85.876,12.991,85.876Zm0,15.589c-5.728,0-9.527-2.079-9.527-3.464V94.136a19.726,19.726,0,0,0,9.527,2.132,19.726,19.726,0,0,0,9.527-2.132V98C22.518,99.387,18.719,101.465,12.991,101.465ZM35.509,98c-5.728,0-9.527-2.079-9.527-3.464V76.815a19.726,19.726,0,0,0,9.527,2.132,19.726,19.726,0,0,0,9.527-2.132V94.537C45.036,95.922,41.237,98,35.509,98Zm9.527-25.982c0,1.386-3.8,3.464-9.527,3.464s-9.527-2.079-9.527-3.464,3.8-3.464,9.527-3.464S45.036,70.633,45.036,72.019Zm-22.518,0V84.544a19.726,19.726,0,0,0-9.527-2.132,25.7,25.7,0,0,0-2.6.13V43.9a19.726,19.726,0,0,0,9.527,2.132A19.726,19.726,0,0,0,29.447,43.9V65.844C25.262,66.968,22.518,69.247,22.518,72.019Zm6.929-32.911c0,1.386-3.8,3.464-9.527,3.464s-9.527-2.079-9.527-3.464,3.8-3.464,9.527-3.464S29.447,37.722,29.447,39.108Zm.866-20.786c-5.728,0-9.527-2.079-9.527-3.464s3.8-3.464,9.527-3.464,9.527,2.079,9.527,3.464S36.041,18.322,30.313,18.322ZM86.088,16.59c0,2.839-3.075,5.169-6.929,5.2a8.945,8.945,0,0,1-1.916-.22,20.522,20.522,0,0,0,5.06-9.579A5.307,5.307,0,0,1,86.088,16.59ZM50,5.816a7.819,7.819,0,0,0,5.4,2.113,7.817,7.817,0,0,0,5.4-2.113,4.559,4.559,0,0,1,6.478,0,7.81,7.81,0,0,0,5.406,2.113A7.817,7.817,0,0,0,78.1,5.816a7.255,7.255,0,0,1,1.588-1.067c0,3.217-.6,11.169-6.179,15.529a7.429,7.429,0,0,1-4.348,1.488A37.465,37.465,0,0,0,72.7,13.588a1.733,1.733,0,1,0-3.34-.928,31.777,31.777,0,0,1-4.368,9.127H63.208a32.076,32.076,0,0,1-4.37-9.127,1.733,1.733,0,1,0-3.338.93,37.491,37.491,0,0,0,3.539,8.184A7.448,7.448,0,0,1,54.6,20.279c-5.581-4.358-6.179-12.31-6.179-15.517A6.774,6.774,0,0,1,50,5.816Z" transform="translate(0 -0.999)"/>
        <path id="Shape-4" data-name="Shape" d="M60.684,52.524a16.629,16.629,0,0,0,3.18-9.71A1.732,1.732,0,0,0,62.217,41,1.755,1.755,0,0,0,60.4,42.648a13.265,13.265,0,0,1-2.437,7.725c-3.379,4.268-9.792,4.485-11.044,4.485a1.732,1.732,0,0,0,0,3.464c1.531,0,9.39-.279,13.762-5.8Z" transform="translate(33.086 28.287)"/>
      </g>
    </g>
  </g>
</svg>
