<svg xmlns="http://www.w3.org/2000/svg" width="138.887" height="123.952" viewBox="0 0 138.887 123.952">
  <g id="Grupo_177353" data-name="Grupo 177353" transform="translate(-1486.12 3839.997)">
    <path id="Trazado_216884" data-name="Trazado 216884" d="M109.35,103.051s75.679-56.759,24.484-71.783S29.776-21.04,15.865,15.687s23.928,52.307,6.121,72.34,22.258,56.2,87.365,15.024" transform="translate(1473.398 -3839.997)" fill="#fff"/>
    <g id="raqueta-de-tenis" transform="translate(1501.999 -3822.091)">
      <g id="Grupo_174779" data-name="Grupo 174779" transform="translate(0.001 0.003)">
        <g id="Grupo_174778" data-name="Grupo 174778" transform="translate(0 0)">
          <path id="Trazado_216873" data-name="Trazado 216873" d="M97.887,8.16C91.8,2.073,83.213-.762,73.713.18A42.926,42.926,0,0,0,47.891,12.892q-.953.953-1.849,1.959A14.256,14.256,0,1,0,32.083,34.945a14.428,14.428,0,0,0,3.718-.233,34.56,34.56,0,0,0-.242,13.51h-.028c-.044,4.261-.963,16.122-4.631,19.79l-7.443,7.443a3.762,3.762,0,0,0-1.022-.143,3.725,3.725,0,0,0-2.651,1.1L8.206,87.989a1.584,1.584,0,1,0,2.24,2.24L22.025,78.651a.581.581,0,0,1,.821,0L27.4,83.2a.582.582,0,0,1,0,.82L8.711,102.709a.581.581,0,0,1-.822,0l-4.55-4.55a.581.581,0,0,1,0-.822l1.91-1.91a1.584,1.584,0,0,0-2.24-2.24L1.1,95.1a3.75,3.75,0,0,0,0,5.3l4.55,4.55a3.754,3.754,0,0,0,5.3,0L29.638,86.263a3.751,3.751,0,0,0,.954-3.672l7.444-7.444c3.663-3.663,15.528-4.585,19.791-4.631v-.023a31.981,31.981,0,0,0,3.27.438q1.384.114,2.783.114a38.743,38.743,0,0,0,16.366-3.783,1.589,1.589,0,0,0,.75-2.166h0a1.579,1.579,0,0,0-2.069-.715,34.824,34.824,0,0,1-17.57,3.393A25.081,25.081,0,0,1,45.4,60.647c-6.591-6.591-8.832-16.689-6.06-27.129a14.259,14.259,0,0,0,7.781-15.045,44.074,44.074,0,0,1,3.01-3.341,39.754,39.754,0,0,1,23.894-11.8C82.565,2.486,90.243,5,95.647,10.4c11.243,11.245,9.12,31.663-4.732,45.515a43.753,43.753,0,0,1-5.457,4.633,1.584,1.584,0,0,0,1.861,2.564,46.917,46.917,0,0,0,5.836-4.957,42.924,42.924,0,0,0,12.712-25.821C106.809,22.835,103.975,14.249,97.887,8.16ZM25.208,28.56a11.032,11.032,0,0,1-3.159-6.5,11.1,11.1,0,0,1,9.656,9.662A11,11,0,0,1,25.208,28.56ZM47.064,66.118a27.171,27.171,0,0,0,3.049,1.794q-.555.07-1.127.151-2.6.371-4.762.9Zm-3.9-3.23q.666.666,1.373,1.28L28.689,80.012l-2.653-2.653L41.881,61.514Q42.495,62.22,43.159,62.888ZM39.933,58.98,37.09,61.824q.523-2.161.9-4.762.083-.582.153-1.147A27.362,27.362,0,0,0,39.933,58.98Zm.958-30.42a11.006,11.006,0,0,1-6.007,3.095A14.254,14.254,0,0,0,22.12,18.885a11.052,11.052,0,0,1,9.1-9.1A14.257,14.257,0,0,0,43.979,22.555,11.024,11.024,0,0,1,40.891,28.56ZM37.56,16.208a10.967,10.967,0,0,1-3.165-6.489,11.054,11.054,0,0,1,9.655,9.655A10.964,10.964,0,0,1,37.56,16.208Z" transform="translate(-0.001 -0.003)"/>
        </g>
      </g>
      <g id="Grupo_174781" data-name="Grupo 174781" transform="translate(42.693 7.694)">
        <g id="Grupo_174780" data-name="Grupo 174780">
          <path id="Trazado_216874" data-name="Trazado 216874" d="M255.885,43.042c-4.428-4.428-10.813-6.476-17.979-5.767a35.227,35.227,0,0,0-21.142,10.5,35.227,35.227,0,0,0-10.5,21.142c-.71,7.165,1.338,13.55,5.767,17.979a21.092,21.092,0,0,0,15.23,5.9q1.352,0,2.749-.138a35.228,35.228,0,0,0,21.142-10.5,35.228,35.228,0,0,0,10.5-21.142C262.361,53.855,260.313,47.47,255.885,43.042Zm-1.177,3.418a16.868,16.868,0,0,1,3.13,6.052l-4.591-4.591ZM219.152,64.968l6.283-6.283,6.283,6.283-6.283,6.283Zm4.043,8.524-6.284,6.284-6.283-6.283,6.284-6.284Zm4.482-17.048,6.282-6.282,6.283,6.283-6.282,6.282Zm6.283,10.765,6.282,6.282-6.283,6.283-6.282-6.282Zm2.241-2.241,6.282-6.282,6.282,6.282-6.282,6.282Zm8.522-8.522,6.284-6.284,6.282,6.282L251,62.727Zm7.743-12.224-1.46,1.46-4.586-4.586A16.865,16.865,0,0,1,252.465,44.22Zm-9.983-2.582,6.283,6.283L242.481,54.2,236.2,47.922Zm-4.264-1.21c.361-.036.719-.062,1.075-.082l-5.335,5.335L230.58,42.3A28.471,28.471,0,0,1,238.218,40.429Zm-10.71,3.284,4.209,4.209L225.436,54.2l-5.286-5.286A34.817,34.817,0,0,1,227.508,43.712Zm-9.6,7.446,5.286,5.286-6.283,6.283L212.7,58.518A34.822,34.822,0,0,1,217.908,51.158Zm-8.489,18.069a28.473,28.473,0,0,1,1.875-7.636l3.377,3.377L209.336,70.3C209.356,69.947,209.383,69.588,209.419,69.227Zm3.791,14.249a16.874,16.874,0,0,1-3.129-6.05l4.59,4.59Zm2.241,2.241,1.461-1.461,4.59,4.59A16.872,16.872,0,0,1,215.45,85.716Zm9.983,2.581-6.282-6.282,6.284-6.284,6.282,6.282Zm4.265,1.209q-.542.054-1.077.083l5.335-5.335,3.378,3.378A28.464,28.464,0,0,1,229.7,89.507Zm10.709-3.283-4.21-4.21,6.283-6.283,5.287,5.287A34.817,34.817,0,0,1,240.408,86.224Zm9.6-7.447-5.287-5.287L251,67.209l4.21,4.21A34.829,34.829,0,0,1,250.009,78.777ZM258.5,60.708a28.475,28.475,0,0,1-1.875,7.638l-3.378-3.378,5.336-5.336Q258.551,60.166,258.5,60.708Z" transform="translate(-206.129 -37.138)"/>
        </g>
      </g>
    </g>
  </g>
</svg>
