<svg xmlns="http://www.w3.org/2000/svg" width="138.887" height="121.909" viewBox="0 0 138.887 121.909">
  <g id="Grupo_177354" data-name="Grupo 177354" transform="translate(-1837.12 3839.997)">
    <path id="Trazado_216885" data-name="Trazado 216885" d="M109.35,103.051s75.679-56.759,24.484-71.783S29.776-21.04,15.865,15.687s23.928,52.307,6.121,72.34,22.258,56.2,87.365,15.024" transform="translate(1824.398 -3839.997)" fill="#fff"/>
    <g id="las-compras-en-linea" transform="translate(1835 -3857.454)">
      <path id="Trazado_216875" data-name="Trazado 216875" d="M123.725,85.722a1.857,1.857,0,0,0-1.852-1.715H95.221L94.009,59.768A1.857,1.857,0,0,0,92.154,58h-13V48.716A16.711,16.711,0,0,0,56.863,32.958,16.711,16.711,0,0,0,34.574,48.716V58h-13a1.857,1.857,0,0,0-1.855,1.765L16,134.065a1.857,1.857,0,0,0,1.855,1.95h107.73a1.857,1.857,0,0,0,1.852-2Zm-5.567,40.639,3.959,5.939H114.2Zm5.033.852-3.231-4.846L116.5,87.722h3.657ZM112.762,87.722l3.483,34.814-4.077,6.114-3.149-40.928ZM91.5,84.007h-3.5L86.694,61.718h3.692ZM82.973,61.718l1.311,22.289H80.361L79.246,61.718Zm-20.538-26a13.017,13.017,0,0,1,13,13V58h-7.43V48.716A16.69,16.69,0,0,0,61.8,35.73C62.012,35.72,62.223,35.714,62.435,35.714Zm-5.572,1.257a13.018,13.018,0,0,1,7.43,11.745V58H49.433V48.716A13.018,13.018,0,0,1,56.863,36.971ZM38.289,48.716a13.017,13.017,0,0,1,13-13c.212,0,.423.006.633.016a16.69,16.69,0,0,0-6.205,12.986V58h-7.43ZM60.715,132.3H19.81l3.529-70.582H34.574V73.726L29.829,76.89A1.857,1.857,0,0,0,29,78.435V93.294a1.857,1.857,0,0,0,1.857,1.857H42a1.857,1.857,0,0,0,1.857-1.857V78.435a1.857,1.857,0,0,0-.827-1.545l-4.745-3.163V61.718h26V67.29a1.857,1.857,0,1,0,3.715,0V61.718h7.52l1.114,22.289H66.15A1.857,1.857,0,0,0,64.3,85.722ZM36.432,76.952l3.715,2.476V91.437h-7.43V79.429ZM67.87,87.722h37.423l3.429,44.578H64.441Z" transform="translate(0)"/>
      <path id="Trazado_216876" data-name="Trazado 216876" d="M292.432,304a1.857,1.857,0,0,0-1.857,1.857v14.859A5.578,5.578,0,0,1,285,326.289h-3.715a5.578,5.578,0,0,1-5.572-5.572V305.857a1.857,1.857,0,0,0-3.715,0v14.859A9.3,9.3,0,0,0,281.287,330H285a9.3,9.3,0,0,0,9.287-9.287V305.857A1.857,1.857,0,0,0,292.432,304Z" transform="translate(-196.563 -208.848)"/>
    </g>
  </g>
</svg>
