<svg xmlns="http://www.w3.org/2000/svg" xmlns:xlink="http://www.w3.org/1999/xlink" width="190" height="124" viewBox="0 0 190 124">
  <defs>
    <clipPath id="clip-path">
      <rect id="Rectángulo_56125" data-name="Rectángulo 56125" width="126.48" height="104.371" fill="none"/>
    </clipPath>
    <clipPath id="clip-path-3">
      <rect id="Rectángulo_56122" data-name="Rectángulo 56122" width="9.278" height="5.44" fill="none"/>
    </clipPath>
    <clipPath id="clip-path-4">
      <rect id="Rectángulo_56123" data-name="Rectángulo 56123" width="32.926" height="12.352" fill="none"/>
    </clipPath>
  </defs>
  <g id="Grupo_175468" data-name="Grupo 175468" transform="translate(-7305 8314)">
    <rect id="Rectángulo_56091" data-name="Rectángulo 56091" width="190" height="124" transform="translate(7305 -8314)" fill="none"/>
    <g id="Grupo_175333" data-name="Grupo 175333" transform="translate(7337 -8314)">
      <g id="Grupo_175341" data-name="Grupo 175341" clip-path="url(#clip-path)">
        <g id="Grupo_175340" data-name="Grupo 175340" transform="translate(0 0)">
          <g id="Grupo_175339" data-name="Grupo 175339" clip-path="url(#clip-path)">
            <path id="Trazado_217733" data-name="Trazado 217733" d="M124.647,103.329c-.6-31.489-.189-66.079,1.238-97.533C81.45,5.8,39.167,5.408.63,5.408c.332,32.067.67,64.412.67,97.921,36.768,0,81.442-1.776,123.347,0" transform="translate(0.059 0.505)" fill="#fff"/>
            <path id="Trazado_217734" data-name="Trazado 217734" d="M1.346,103.912a.538.538,0,0,1-.538-.538c0-33.2-.336-65.651-.661-97.034L.138,5.459a.538.538,0,0,1,.537-.543c18.585,0,37.821.09,58.187.184,21.663.1,44.062.206,67.069.206a.538.538,0,0,1,.537.561c-1.408,31.015-1.847,65.64-1.238,97.5a.537.537,0,0,1-.56.547c-28.432-1.2-57.6-.781-85.8-.373-13.222.192-25.712.374-37.523.374M1.218,5.991l0,.339c.324,31.217.658,63.489.661,96.507,11.646-.005,23.952-.184,36.971-.372,28.029-.407,57.009-.828,85.29.349-.59-31.53-.156-65.727,1.223-96.434-22.812,0-45.023-.1-66.511-.206-20.165-.093-39.224-.181-57.638-.184" transform="translate(0.013 0.459)"/>
            <path id="Trazado_217735" data-name="Trazado 217735" d="M78.211,22.379c-.27,5.491-.359,9.035-.359,12.682-6.3-.094-13.665,0-19.927,0,.143-3.247.2-8.03-.014-12.9,6.8.131,13.766.109,20.3.218" transform="translate(5.403 2.068)" fill="#fff"/>
            <path id="Trazado_217736" data-name="Trazado 217736" d="M57.97,35.644a.538.538,0,0,1-.537-.562c.173-3.891.167-8.7-.013-12.852a.537.537,0,0,1,.537-.561h.011c3.642.07,7.373.1,10.982.122,3.089.022,6.282.045,9.315.1a.536.536,0,0,1,.528.563c-.257,5.226-.358,8.774-.358,12.656a.534.534,0,0,1-.16.383.542.542,0,0,1-.386.155c-4.238-.063-8.945-.042-13.5-.021-2.207.01-4.373.021-6.421.021m.548-12.889c.151,3.85.155,8.179.013,11.813,1.878,0,3.85-.011,5.855-.02,4.364-.02,8.872-.04,12.976.012.008-3.554.1-6.9.331-11.608-2.862-.044-5.852-.066-8.751-.086-3.424-.024-6.958-.049-10.425-.112" transform="translate(5.357 2.022)"/>
            <path id="Trazado_217737" data-name="Trazado 217737" d="M78.211,44.507c-.27,5.491-.359,9.035-.359,12.682-6.3-.094-13.665,0-19.927,0,.143-3.247.2-8.03-.014-12.9,6.8.13,13.766.109,20.3.216" transform="translate(5.403 4.133)" fill="#fff"/>
            <path id="Trazado_217738" data-name="Trazado 217738" d="M57.97,57.773a.536.536,0,0,1-.537-.561c.173-3.891.167-8.7-.013-12.852a.537.537,0,0,1,.537-.561h.011c3.64.07,7.368.1,10.975.122,3.091.022,6.288.045,9.323.1a.536.536,0,0,1,.528.563c-.257,5.225-.358,8.774-.358,12.656a.536.536,0,0,1-.546.537c-4.238-.063-8.945-.04-13.5-.02-2.207.01-4.373.02-6.421.02m.548-12.888c.151,3.85.155,8.179.013,11.813,1.878,0,3.85-.011,5.855-.02,4.364-.02,8.872-.042,12.976.012.008-3.554.1-6.9.331-11.608-2.864-.044-5.858-.066-8.758-.086-3.421-.024-6.953-.049-10.417-.112" transform="translate(5.357 4.087)"/>
            <path id="Trazado_217739" data-name="Trazado 217739" d="M78.211,66.637c-.27,5.491-.359,9.035-.359,12.682-6.3-.094-13.665,0-19.927,0,.143-3.247.2-8.03-.014-12.9,6.8.13,13.766.109,20.3.216" transform="translate(5.403 6.198)" fill="#fff"/>
            <path id="Trazado_217740" data-name="Trazado 217740" d="M57.97,79.9a.536.536,0,0,1-.537-.561c.173-3.891.167-8.7-.013-12.852a.543.543,0,0,1,.152-.4.574.574,0,0,1,.4-.162c3.646.07,7.382.1,10.994.122,3.085.022,6.274.045,9.3.1a.536.536,0,0,1,.528.563c-.257,5.225-.358,8.774-.358,12.656a.536.536,0,0,1-.16.383.528.528,0,0,1-.386.154c-4.238-.062-8.945-.04-13.5-.02-2.207.01-4.373.02-6.421.02m.548-12.888c.151,3.85.155,8.179.013,11.813,1.878,0,3.85-.011,5.855-.02,4.364-.02,8.872-.04,12.976.012.008-3.554.1-6.9.331-11.608-2.858-.044-5.844-.066-8.739-.086-3.428-.024-6.965-.049-10.437-.112" transform="translate(5.357 6.152)"/>
            <path id="Trazado_217741" data-name="Trazado 217741" d="M103.19.951C85.113.877,67.036.7,48.958.529,33.661.381,15.938.731.642.52a99.622,99.622,0,0,0,0,11.012c39.322,0,85.558-.613,125.136,0,.223-2.858.062-6.907.062-10.451-6.654,0-16-.1-22.65-.13" transform="translate(0.046 0.046)" fill="#acd4f7"/>
            <path id="Trazado_217742" data-name="Trazado 217742" d="M125.825,12.116h-.009c-26.637-.413-56.219-.271-84.827-.132-14.116.068-27.447.132-40.3.132a.538.538,0,0,1-.537-.5A99.375,99.375,0,0,1,.152.543.538.538,0,0,1,.688.028H.7C8.8.14,17.717.094,26.34.049,33.95.009,41.819-.032,49.011.037,65.722.2,84.663.384,103.24.459c2.716.012,5.882.035,9.131.059,4.711.034,9.583.07,13.517.072a.537.537,0,0,1,.538.537c0,1.043.013,2.129.027,3.215.033,2.575.067,5.238-.092,7.277a.538.538,0,0,1-.536.5M1.2,1.111c-.167,4.172-.171,7.356-.012,9.93,12.694,0,25.863-.066,39.792-.132,28.432-.138,57.824-.279,84.34.125.116-1.921.084-4.336.055-6.678-.011-.905-.023-1.811-.027-2.691-3.839-.005-8.486-.039-12.987-.072-3.248-.024-6.413-.047-9.128-.058C84.656,1.458,65.712,1.275,49,1.113c-7.182-.07-15.047-.03-22.654.011C17.9,1.168,9.178,1.214,1.2,1.111" transform="translate(0 0)"/>
            <path id="Trazado_217743" data-name="Trazado 217743" d="M103.039,26.857h0L84.1,26.621a.179.179,0,0,1-.177-.181.182.182,0,0,1,.18-.177l18.934.236a.179.179,0,0,1,0,.359" transform="translate(7.831 2.451)"/>
            <path id="Trazado_217744" data-name="Trazado 217744" d="M102.87,53.075h0l-18.933-.236a.179.179,0,0,1-.177-.181.174.174,0,0,1,.18-.177l18.934.236a.179.179,0,0,1,0,.359" transform="translate(7.815 4.897)"/>
            <path id="Trazado_217745" data-name="Trazado 217745" d="M97.543,30.89h0L84.1,30.675a.18.18,0,0,1-.178-.181.2.2,0,0,1,.183-.177l13.437.215a.179.179,0,0,1,0,.359" transform="translate(7.831 2.829)"/>
            <path id="Trazado_217746" data-name="Trazado 217746" d="M97.374,48.915h0L83.935,48.7a.181.181,0,0,1-.178-.181.183.183,0,0,1,.183-.177l13.438.215a.179.179,0,0,1,0,.359" transform="translate(7.815 4.511)"/>
            <path id="Trazado_217747" data-name="Trazado 217747" d="M34.376,30.872c-5.8-1.57-12.322.76-16.241,5.312A20.027,20.027,0,0,0,14.027,53.1c1.392,6.711,7.8,11.834,12.749,12.443,8.036.989,14.626-2.881,16.677-5.368a19.537,19.537,0,0,0,4.09-16.695c-1.4-5.773-6.056-10.685-13.168-12.61" transform="translate(1.269 2.835)" fill="#fff"/>
            <path id="Trazado_217748" data-name="Trazado 217748" d="M29.374,66.284a21.592,21.592,0,0,1-2.617-.16c-5.224-.644-11.779-5.967-13.209-12.868A20.653,20.653,0,0,1,17.773,35.88,16.884,16.884,0,0,1,34.562,30.4c6.969,1.886,12.034,6.748,13.549,13a20.136,20.136,0,0,1-4.2,17.163c-2.116,2.567-7.788,5.72-14.54,5.72m1.291-35.32a16.186,16.186,0,0,0-12.078,5.617A19.561,19.561,0,0,0,14.6,53.039c1.336,6.448,7.433,11.421,12.288,12.019,8.18,1.006,14.446-3.053,16.2-5.177a19.038,19.038,0,0,0,3.983-16.226c-1.421-5.869-6.2-10.437-12.785-12.219a13.863,13.863,0,0,0-3.617-.472" transform="translate(1.224 2.789)"/>
            <path id="Trazado_217749" data-name="Trazado 217749" d="M30.417,37.317a5.352,5.352,0,0,0-4.1,1.724,4.324,4.324,0,0,0-.933,4.015,4.185,4.185,0,0,0,1.378,2.081,4.973,4.973,0,0,0,5.139.485,4.479,4.479,0,0,0,2.5-4.163,4.351,4.351,0,0,0-3.981-4.141" transform="translate(2.353 3.482)" fill="#fff"/>
            <path id="Trazado_217750" data-name="Trazado 217750" d="M29.772,46.7a5.3,5.3,0,0,1-3.305-1.1,4.745,4.745,0,0,1-1.556-2.348,4.874,4.874,0,0,1,1.045-4.519,5.933,5.933,0,0,1,4.521-1.907,4.9,4.9,0,0,1,4.5,4.648,5.007,5.007,0,0,1-2.8,4.675,5.425,5.425,0,0,1-2.412.548m.542-8.8a4.8,4.8,0,0,0-3.55,1.543,3.79,3.79,0,0,0-.82,3.512,3.656,3.656,0,0,0,1.2,1.812,4.421,4.421,0,0,0,4.56.423,3.922,3.922,0,0,0,2.2-3.652A3.825,3.825,0,0,0,30.448,37.9l-.133,0" transform="translate(2.308 3.436)"/>
            <path id="Trazado_217751" data-name="Trazado 217751" d="M29.831,56.691c5.993,0,7.385-1.96,7.594-2.147-.479-2.317-1.354-5.287-2.863-6.772A6.519,6.519,0,0,0,30.2,45.748a4.811,4.811,0,0,0-2.75.637c-2.893,1.981-4.27,5.472-4.917,8.012,1.029.69,2.66,2.294,7.293,2.294" transform="translate(2.103 4.269)" fill="#acd4f7"/>
            <path id="Trazado_217752" data-name="Trazado 217752" d="M29.877,57.275c-4.287,0-6.132-1.335-7.235-2.132-.129-.093-.247-.178-.358-.253a.538.538,0,0,1-.222-.579c.676-2.656,2.114-6.255,5.134-8.323a5.234,5.234,0,0,1,3.061-.73,6.992,6.992,0,0,1,4.727,2.177c1.615,1.591,2.529,4.71,3.012,7.047a.539.539,0,0,1-.167.508l-.028.031c-1.745,1.863-5.273,2.254-7.924,2.254M23.2,54.219l.073.052c1,.722,2.667,1.929,6.606,1.929,3.321,0,5.8-.632,7.008-1.782-.646-3-1.562-5.142-2.655-6.218a6.062,6.062,0,0,0-3.987-1.868,4.237,4.237,0,0,0-2.44.543c-2.613,1.789-3.94,4.911-4.6,7.344" transform="translate(2.057 4.223)"/>
            <g id="Grupo_175335" data-name="Grupo 175335" transform="translate(27.363 45.78)" opacity="0.129">
              <g id="Grupo_175334" data-name="Grupo 175334">
                <g id="Grupo_175333-2" data-name="Grupo 175333" clip-path="url(#clip-path-3)">
                  <path id="Trazado_217753" data-name="Trazado 217753" d="M31.39,46.161c-.524.113-.747-.677-.223-.8a4.758,4.758,0,0,0,1.445-.569,3.549,3.549,0,0,0,.957-.907,8.737,8.737,0,0,0,.737-1.25.691.691,0,0,0-.828.121c-1.237,1.695-3.909,1.6-4.544,1.515a4.823,4.823,0,0,1-1.677-.617,5.113,5.113,0,0,1-1.6-1.253,1.888,1.888,0,0,0-.624-.525c.153.325.279.661.418,1s.277.68.414,1.02c.01.013.015.026.025.038a5.147,5.147,0,0,0,.788.921,8.942,8.942,0,0,0,.849.649c.086-.031.172-.058.258-.083a1.319,1.319,0,0,1,.148-.035.625.625,0,0,1,.255,0,.37.37,0,0,1,.2.115.377.377,0,0,1,0,.531.391.391,0,0,1-.249.125h0l-.01,0h0a2.04,2.04,0,0,0-.3.087.5.5,0,0,1-.18.2.788.788,0,0,0,.787.849c.74.01,1.48.047,2.222.014.305-.031.657,0,.886-.244a.718.718,0,0,0,.059-.945c-.072.016-.144.034-.216.049" transform="translate(-25.028 -41.873)"/>
                </g>
              </g>
            </g>
            <g id="Grupo_175338" data-name="Grupo 175338" transform="translate(14.871 56.539)" opacity="0.129">
              <g id="Grupo_175337" data-name="Grupo 175337">
                <g id="Grupo_175336" data-name="Grupo 175336" clip-path="url(#clip-path-4)">
                  <path id="Trazado_217754" data-name="Trazado 217754" d="M35.419,63.184a20.381,20.381,0,0,0,7.132-3.917,11.1,11.1,0,0,0,2.656-2.886c.471-.784.9-1.6,1.321-2.411a.89.89,0,0,0-.712.262,25.168,25.168,0,0,1-4.12,3.822,14.853,14.853,0,0,1-5.473,2.805c-3.092,1.013-5.141,1.528-8.16,1.256a14.661,14.661,0,0,1-3.153-.635,18.944,18.944,0,0,1-2.38-1.105c-.987-.565-1.94-1.187-2.863-1.845a11.9,11.9,0,0,1-1.5-1.357,19.232,19.232,0,0,1-2.083-2.041c-.034-.042-.022-.026.035.045-.448-.515-1.041-1.487-1.408-1.852A1.218,1.218,0,0,0,13.6,51.713a23.848,23.848,0,0,0,1.335,3.316c.1.2.21.4.319.6q.415.684.837,1.363a20.625,20.625,0,0,0,2.979,3.461,23.066,23.066,0,0,0,3.465,2.108,11.452,11.452,0,0,0,3.3,1.133,19.584,19.584,0,0,0,6.109.226c1.063-.141,2.137-.311,3.192-.548a.482.482,0,0,1,.277-.194" transform="translate(-13.602 -51.713)"/>
                </g>
              </g>
            </g>
            <path id="Trazado_217755" data-name="Trazado 217755" d="M5.563,6.389a.538.538,0,0,1-.02-1.075l5.016-.191a.545.545,0,0,1,.558.517A.539.539,0,0,1,10.6,6.2l-5.016.191H5.563" transform="translate(0.469 0.478)"/>
            <path id="Trazado_217756" data-name="Trazado 217756" d="M15.557,6a.537.537,0,0,1,0-1.075l5.019-.023h0a.537.537,0,0,1,0,1.075L15.559,6Z" transform="translate(1.401 0.458)"/>
            <path id="Trazado_217757" data-name="Trazado 217757" d="M25.063,6.007a.538.538,0,0,1-.021-1.075l5.017-.191A.538.538,0,1,1,30.1,5.816l-5.016.191h-.02" transform="translate(2.288 0.443)"/>
          </g>
        </g>
      </g>
    </g>
  </g>
</svg>
