<svg xmlns="http://www.w3.org/2000/svg" xmlns:xlink="http://www.w3.org/1999/xlink" width="190" height="125" viewBox="0 0 190 125">
  <defs>
    <clipPath id="clip-path">
      <rect id="Rectángulo_56048" data-name="Rectángulo 56048" width="132.946" height="117.217" fill="none"/>
    </clipPath>
    <clipPath id="clip-path-3">
      <rect id="Rectángulo_56042" data-name="Rectángulo 56042" width="93.409" height="76.557" fill="none"/>
    </clipPath>
  </defs>
  <g id="Grupo_175464" data-name="Grupo 175464" transform="translate(-7297 9791)">
    <rect id="Rectángulo_56060" data-name="Rectángulo 56060" width="190" height="124" transform="translate(7297 -9790)" fill="none"/>
    <g id="Grupo_175223" data-name="Grupo 175223" transform="translate(7326 -9791)">
      <g id="Grupo_175232" data-name="Grupo 175232" clip-path="url(#clip-path)">
        <g id="Grupo_175231" data-name="Grupo 175231">
          <g id="Grupo_175230" data-name="Grupo 175230" clip-path="url(#clip-path)">
            <path id="Trazado_217521" data-name="Trazado 217521" d="M41.057,13.711h69.421A23.509,23.509,0,0,1,133.988,37.22V69.215A23.514,23.514,0,0,1,116.85,91.843l4.8,26.017L99.981,92.724H41.057A23.509,23.509,0,0,1,17.548,69.215V37.22A23.509,23.509,0,0,1,41.057,13.711" transform="translate(-1.821 -1.423)" fill="#fff"/>
            <path id="Trazado_217522" data-name="Trazado 217522" d="M121.562,118.55a.779.779,0,0,1-.591-.271L99.533,93.413H40.967A24.317,24.317,0,0,1,16.678,69.124V37.13A24.317,24.317,0,0,1,40.967,12.841h69.421A24.317,24.317,0,0,1,134.678,37.13V69.124A24.372,24.372,0,0,1,117.654,92.3l4.674,25.328a.781.781,0,0,1-.43.844.771.771,0,0,1-.336.077M40.967,14.4a22.755,22.755,0,0,0-22.73,22.73V69.124a22.755,22.755,0,0,0,22.73,22.73H99.891a.777.777,0,0,1,.59.271l19.792,22.956-4.279-23.186a.78.78,0,0,1,.556-.893,22.8,22.8,0,0,0,16.569-21.877V37.13a22.756,22.756,0,0,0-22.73-22.73Z" transform="translate(-1.73 -1.332)"/>
            <path id="Trazado_217523" data-name="Trazado 217523" d="M38.348,97.225a.26.26,0,0,1-.184-.444l5.146-5.146a.26.26,0,1,1,.367.367l-5.146,5.146a.258.258,0,0,1-.184.076" transform="translate(-3.952 -9.5)"/>
            <path id="Trazado_217524" data-name="Trazado 217524" d="M45.6,97.225a.26.26,0,0,1-.184-.444l5.146-5.146a.26.26,0,0,1,.367.367l-5.146,5.146a.258.258,0,0,1-.184.076" transform="translate(-4.704 -9.5)"/>
            <path id="Trazado_217525" data-name="Trazado 217525" d="M52.558,97.225a.26.26,0,0,1-.184-.444l5.146-5.146a.26.26,0,0,1,.367.367l-5.146,5.146a.258.258,0,0,1-.184.076" transform="translate(-5.426 -9.5)"/>
            <path id="Trazado_217526" data-name="Trazado 217526" d="M59.6,97.225a.26.26,0,0,1-.184-.444l5.146-5.146a.26.26,0,0,1,.367.367l-5.146,5.146a.258.258,0,0,1-.184.076" transform="translate(-6.157 -9.5)"/>
            <path id="Trazado_217527" data-name="Trazado 217527" d="M65.8,97.225a.26.26,0,0,1-.184-.444l5.146-5.146A.26.26,0,0,1,71.13,92l-5.146,5.146a.259.259,0,0,1-.184.076" transform="translate(-6.8 -9.5)"/>
            <path id="Trazado_217528" data-name="Trazado 217528" d="M73.05,97.225a.26.26,0,0,1-.184-.444l5.146-5.146A.26.26,0,0,1,78.38,92l-5.146,5.146a.258.258,0,0,1-.184.076" transform="translate(-7.552 -9.5)"/>
            <path id="Trazado_217529" data-name="Trazado 217529" d="M80.01,97.225a.26.26,0,0,1-.184-.444l5.146-5.146A.26.26,0,0,1,85.34,92l-5.146,5.146a.258.258,0,0,1-.184.076" transform="translate(-8.274 -9.5)"/>
            <path id="Trazado_217530" data-name="Trazado 217530" d="M87.057,97.225a.26.26,0,0,1-.184-.444l5.146-5.146a.26.26,0,0,1,.367.367l-5.146,5.146a.258.258,0,0,1-.184.076" transform="translate(-9.006 -9.5)"/>
            <path id="Trazado_217531" data-name="Trazado 217531" d="M94.8,97.225a.26.26,0,0,1-.184-.444l5.146-5.146a.26.26,0,1,1,.367.367l-5.146,5.146a.259.259,0,0,1-.184.076" transform="translate(-9.809 -9.5)"/>
            <path id="Trazado_217532" data-name="Trazado 217532" d="M102.05,97.225a.26.26,0,0,1-.184-.444l5.146-5.146a.26.26,0,0,1,.367.367l-5.146,5.146a.259.259,0,0,1-.184.076" transform="translate(-10.561 -9.5)"/>
            <path id="Trazado_217533" data-name="Trazado 217533" d="M109.006,97.123a.26.26,0,0,1-.184-.444l6.065-6.065a.26.26,0,0,1,.367.367l-6.065,6.065a.259.259,0,0,1-.184.076" transform="translate(-11.283 -9.394)"/>
            <path id="Trazado_217534" data-name="Trazado 217534" d="M131.379,74.057a.26.26,0,0,1-.184-.444l12.038-12.038a.26.26,0,1,1,.367.367L131.563,73.981a.259.259,0,0,1-.184.076" transform="translate(-13.604 -6.381)"/>
            <path id="Trazado_217535" data-name="Trazado 217535" d="M134.045,64.042a.26.26,0,0,1-.184-.444l9.649-9.649a.26.26,0,1,1,.367.367l-9.649,9.649a.259.259,0,0,1-.184.076" transform="translate(-13.881 -5.59)"/>
            <path id="Trazado_217536" data-name="Trazado 217536" d="M134.045,56.588a.26.26,0,0,1-.184-.444L143.51,46.5a.26.26,0,1,1,.367.367l-9.649,9.649a.259.259,0,0,1-.184.076" transform="translate(-13.881 -4.816)"/>
            <path id="Trazado_217537" data-name="Trazado 217537" d="M133.508,50.252a.26.26,0,0,1-.184-.444l9.649-9.649a.26.26,0,0,1,.367.367l-9.649,9.649a.259.259,0,0,1-.184.076" transform="translate(-13.825 -4.159)"/>
            <path id="Trazado_217538" data-name="Trazado 217538" d="M133.511,43.384a.26.26,0,0,1-.184-.444l8.087-8.086a.26.26,0,0,1,.367.367l-8.087,8.086a.259.259,0,0,1-.184.076" transform="translate(-13.825 -3.608)"/>
            <path id="Trazado_217539" data-name="Trazado 217539" d="M133.529,36.344a.26.26,0,0,1-.184-.444l6.249-6.249a.26.26,0,0,1,.367.367l-6.249,6.249a.259.259,0,0,1-.184.076" transform="translate(-13.827 -3.069)"/>
            <path id="Trazado_217540" data-name="Trazado 217540" d="M134.036,29.69a.26.26,0,0,1-.184-.444l3.584-3.584a.26.26,0,0,1,.367.367l-3.584,3.584a.259.259,0,0,1-.184.076" transform="translate(-13.88 -2.655)"/>
            <path id="Trazado_217541" data-name="Trazado 217541" d="M133.174,23.232a.26.26,0,0,1-.184-.444l1.562-1.562a.26.26,0,1,1,.367.367l-1.563,1.562a.257.257,0,0,1-.183.076" transform="translate(-13.79 -2.194)"/>
            <path id="Trazado_217542" data-name="Trazado 217542" d="M113.318,97.787a.26.26,0,0,1-.184-.444l27.66-27.66a.26.26,0,1,1,.367.367L113.5,97.711a.258.258,0,0,1-.184.076" transform="translate(-11.73 -7.222)"/>
            <path id="Trazado_217543" data-name="Trazado 217543" d="M116.788,101.974a.26.26,0,0,1-.184-.444l23.708-23.708a.26.26,0,1,1,.367.367L116.972,101.9a.259.259,0,0,1-.184.076" transform="translate(-12.09 -8.067)"/>
            <path id="Trazado_217544" data-name="Trazado 217544" d="M132.657,94.511a.26.26,0,0,1-.184-.444l7.811-7.811a.26.26,0,0,1,.367.367l-7.811,7.811a.259.259,0,0,1-.184.076" transform="translate(-13.737 -8.942)"/>
            <path id="Trazado_217545" data-name="Trazado 217545" d="M119.968,108.727a.26.26,0,0,1-.184-.444l4.87-4.87a.26.26,0,0,1,.367.367l-4.87,4.87a.259.259,0,0,1-.184.076" transform="translate(-12.42 -10.722)"/>
            <path id="Trazado_217546" data-name="Trazado 217546" d="M123.173,112.941a.26.26,0,0,1-.184-.444l3.217-3.216a.26.26,0,1,1,.367.367l-3.217,3.216a.258.258,0,0,1-.184.076" transform="translate(-12.753 -11.331)"/>
            <path id="Trazado_217547" data-name="Trazado 217547" d="M126.21,117.471a.256.256,0,0,1-.184-.076.26.26,0,0,1,0-.367l1.837-1.838a.26.26,0,0,1,.367.367l-1.838,1.838a.258.258,0,0,1-.183.076" transform="translate(-13.068 -11.944)"/>
            <g id="Grupo_175226" data-name="Grupo 175226" transform="translate(28.216 13.755)" opacity="0.129">
              <g id="Grupo_175225" data-name="Grupo 175225">
                <g id="Grupo_175224" data-name="Grupo 175224" clip-path="url(#clip-path-3)">
                  <path id="Trazado_217548" data-name="Trazado 217548" d="M124.834,39.831c-.168-4.32-.762-8.622-.687-12.951a21.311,21.311,0,0,0-1.455-9.266c-.657-1.281-1.08-2.408-2.578-2.253a1.758,1.758,0,0,0-1.49,1.285,2.118,2.118,0,0,0,.012.978l0-.012,0,.013a1.552,1.552,0,0,0,.167.4,10.563,10.563,0,0,0,.519,1.1l.005.011a14.109,14.109,0,0,1,.806,3.061c.294,2.328.118,4.68.188,7.02.115,3.056.345,6.108.492,9.162.173,5.326-.157,10.655-.145,15.984.041,3.078-.029,7.279-.427,8.775-.031.149-.072.3-.1.445-.027.078-.051.158-.081.234a31.926,31.926,0,0,1-1.072,3.054c-1.614,4.2-7.417,11.579-11.265,12.77a23.231,23.231,0,0,1-9.843,1.137c-3.608.03-7.213-.09-10.82-.091-3.705-.118-7.407.128-11.109.017-4.323-.21-8.651.1-12.977-.012-6.793-.093-13.8-.445-18.85.14-2.567.2-2.958-.332-4.644.377-2.692,2-4.663,4.845-7.333,6.9a2.223,2.223,0,0,0,3.143,3.143c1.926-1.542,4.639-4.693,5.959-5.953.6.062,1.2.087,1.8.135,6.513-.055,13.026-.4,19.543-.444,6.88-.04,13.758-.083,20.635-.274,5.011-.032,10.026.027,15.031-.246a34.3,34.3,0,0,0,6.31-.383,20.2,20.2,0,0,0,5.773-1.655,16.871,16.871,0,0,0,3.8-2.656,33.959,33.959,0,0,0,5.607-6.5,26.281,26.281,0,0,0,2.866-5.413,17.932,17.932,0,0,0,1.5-4.937,43.815,43.815,0,0,0,.6-4.665c-.052-2.426-.021-4.851,0-7.278-.071-3.719.323-7.432.122-11.148" transform="translate(-31.482 -15.347)"/>
                </g>
              </g>
            </g>
            <path id="Trazado_217549" data-name="Trazado 217549" d="M93.8.87H24.379A23.509,23.509,0,0,0,.87,24.379V56.374A23.514,23.514,0,0,0,18.008,79l-4.8,26.017,21.67-25.136H93.8A23.509,23.509,0,0,0,117.31,56.374V24.379A23.509,23.509,0,0,0,93.8.87" transform="translate(-0.09 -0.09)" fill="#fff"/>
            <path id="Trazado_217550" data-name="Trazado 217550" d="M13.115,105.709a.771.771,0,0,1-.336-.077.781.781,0,0,1-.43-.844l4.675-25.328A24.371,24.371,0,0,1,0,56.283V24.289A24.317,24.317,0,0,1,24.289,0H93.71A24.317,24.317,0,0,1,118,24.289V56.283A24.317,24.317,0,0,1,93.71,80.572H35.144L13.706,105.438a.782.782,0,0,1-.592.271M24.289,1.559a22.756,22.756,0,0,0-22.73,22.73V56.283A22.8,22.8,0,0,0,18.128,78.161a.78.78,0,0,1,.556.893l-4.279,23.186L34.2,79.284a.779.779,0,0,1,.591-.271H93.71a22.756,22.756,0,0,0,22.731-22.73V24.289A22.756,22.756,0,0,0,93.71,1.559Z"/>
            <path id="Trazado_217551" data-name="Trazado 217551" d="M38.348,97.225a.26.26,0,0,1-.184-.444l5.146-5.146a.26.26,0,1,1,.367.367l-5.146,5.146a.258.258,0,0,1-.184.076" transform="translate(-3.952 -9.5)"/>
            <path id="Trazado_217552" data-name="Trazado 217552" d="M45.6,97.225a.26.26,0,0,1-.184-.444l5.146-5.146a.26.26,0,0,1,.367.367l-5.146,5.146a.258.258,0,0,1-.184.076" transform="translate(-4.704 -9.5)"/>
            <path id="Trazado_217553" data-name="Trazado 217553" d="M52.558,97.225a.26.26,0,0,1-.184-.444l5.146-5.146a.26.26,0,0,1,.367.367l-5.146,5.146a.258.258,0,0,1-.184.076" transform="translate(-5.426 -9.5)"/>
            <path id="Trazado_217554" data-name="Trazado 217554" d="M59.6,97.225a.26.26,0,0,1-.184-.444l5.146-5.146a.26.26,0,0,1,.367.367l-5.146,5.146a.258.258,0,0,1-.184.076" transform="translate(-6.157 -9.5)"/>
            <path id="Trazado_217555" data-name="Trazado 217555" d="M65.8,97.225a.26.26,0,0,1-.184-.444l5.146-5.146A.26.26,0,0,1,71.13,92l-5.146,5.146a.259.259,0,0,1-.184.076" transform="translate(-6.8 -9.5)"/>
            <path id="Trazado_217556" data-name="Trazado 217556" d="M73.05,97.225a.26.26,0,0,1-.184-.444l5.146-5.146A.26.26,0,0,1,78.38,92l-5.146,5.146a.258.258,0,0,1-.184.076" transform="translate(-7.552 -9.5)"/>
            <path id="Trazado_217557" data-name="Trazado 217557" d="M80.01,97.225a.26.26,0,0,1-.184-.444l5.146-5.146A.26.26,0,0,1,85.34,92l-5.146,5.146a.258.258,0,0,1-.184.076" transform="translate(-8.274 -9.5)"/>
            <path id="Trazado_217558" data-name="Trazado 217558" d="M87.057,97.225a.26.26,0,0,1-.184-.444l5.146-5.146a.26.26,0,0,1,.367.367l-5.146,5.146a.258.258,0,0,1-.184.076" transform="translate(-9.006 -9.5)"/>
            <path id="Trazado_217559" data-name="Trazado 217559" d="M94.8,97.225a.26.26,0,0,1-.184-.444l5.146-5.146a.26.26,0,1,1,.367.367l-5.146,5.146a.259.259,0,0,1-.184.076" transform="translate(-9.809 -9.5)"/>
            <path id="Trazado_217560" data-name="Trazado 217560" d="M102.05,97.225a.26.26,0,0,1-.184-.444l5.146-5.146a.26.26,0,0,1,.367.367l-5.146,5.146a.259.259,0,0,1-.184.076" transform="translate(-10.561 -9.5)"/>
            <path id="Trazado_217561" data-name="Trazado 217561" d="M109.006,97.123a.26.26,0,0,1-.184-.444l6.065-6.065a.26.26,0,0,1,.367.367l-6.065,6.065a.259.259,0,0,1-.184.076" transform="translate(-11.283 -9.394)"/>
            <path id="Trazado_217562" data-name="Trazado 217562" d="M131.379,74.057a.26.26,0,0,1-.184-.444l12.038-12.038a.26.26,0,1,1,.367.367L131.563,73.981a.259.259,0,0,1-.184.076" transform="translate(-13.604 -6.381)"/>
            <path id="Trazado_217563" data-name="Trazado 217563" d="M134.045,64.042a.26.26,0,0,1-.184-.444l9.649-9.649a.26.26,0,1,1,.367.367l-9.649,9.649a.259.259,0,0,1-.184.076" transform="translate(-13.881 -5.59)"/>
            <path id="Trazado_217564" data-name="Trazado 217564" d="M134.045,56.588a.26.26,0,0,1-.184-.444L143.51,46.5a.26.26,0,1,1,.367.367l-9.649,9.649a.259.259,0,0,1-.184.076" transform="translate(-13.881 -4.816)"/>
            <path id="Trazado_217565" data-name="Trazado 217565" d="M133.508,50.252a.26.26,0,0,1-.184-.444l9.649-9.649a.26.26,0,0,1,.367.367l-9.649,9.649a.259.259,0,0,1-.184.076" transform="translate(-13.825 -4.159)"/>
            <path id="Trazado_217566" data-name="Trazado 217566" d="M133.511,43.384a.26.26,0,0,1-.184-.444l8.087-8.086a.26.26,0,0,1,.367.367l-8.087,8.086a.259.259,0,0,1-.184.076" transform="translate(-13.825 -3.608)"/>
            <path id="Trazado_217567" data-name="Trazado 217567" d="M133.529,36.344a.26.26,0,0,1-.184-.444l6.249-6.249a.26.26,0,0,1,.367.367l-6.249,6.249a.259.259,0,0,1-.184.076" transform="translate(-13.827 -3.069)"/>
            <path id="Trazado_217568" data-name="Trazado 217568" d="M134.036,29.69a.26.26,0,0,1-.184-.444l3.584-3.584a.26.26,0,0,1,.367.367l-3.584,3.584a.259.259,0,0,1-.184.076" transform="translate(-13.88 -2.655)"/>
            <path id="Trazado_217569" data-name="Trazado 217569" d="M133.174,23.232a.26.26,0,0,1-.184-.444l1.562-1.562a.26.26,0,1,1,.367.367l-1.563,1.562a.257.257,0,0,1-.183.076" transform="translate(-13.79 -2.194)"/>
            <path id="Trazado_217570" data-name="Trazado 217570" d="M113.318,97.787a.26.26,0,0,1-.184-.444l27.66-27.66a.26.26,0,1,1,.367.367L113.5,97.711a.258.258,0,0,1-.184.076" transform="translate(-11.73 -7.222)"/>
            <path id="Trazado_217571" data-name="Trazado 217571" d="M116.788,101.974a.26.26,0,0,1-.184-.444l23.708-23.708a.26.26,0,1,1,.367.367L116.972,101.9a.259.259,0,0,1-.184.076" transform="translate(-12.09 -8.067)"/>
            <path id="Trazado_217572" data-name="Trazado 217572" d="M132.657,94.511a.26.26,0,0,1-.184-.444l7.811-7.811a.26.26,0,0,1,.367.367l-7.811,7.811a.259.259,0,0,1-.184.076" transform="translate(-13.737 -8.942)"/>
            <path id="Trazado_217573" data-name="Trazado 217573" d="M119.968,108.727a.26.26,0,0,1-.184-.444l4.87-4.87a.26.26,0,0,1,.367.367l-4.87,4.87a.259.259,0,0,1-.184.076" transform="translate(-12.42 -10.722)"/>
            <path id="Trazado_217574" data-name="Trazado 217574" d="M123.173,112.941a.26.26,0,0,1-.184-.444l3.217-3.216a.26.26,0,1,1,.367.367l-3.217,3.216a.258.258,0,0,1-.184.076" transform="translate(-12.753 -11.331)"/>
            <path id="Trazado_217575" data-name="Trazado 217575" d="M126.21,117.471a.256.256,0,0,1-.184-.076.26.26,0,0,1,0-.367l1.837-1.838a.26.26,0,0,1,.367.367l-1.838,1.838a.258.258,0,0,1-.183.076" transform="translate(-13.068 -11.944)"/>
            <g id="Grupo_175229" data-name="Grupo 175229" transform="translate(28.216 13.755)" opacity="0.129">
              <g id="Grupo_175228" data-name="Grupo 175228">
                <g id="Grupo_175227" data-name="Grupo 175227" clip-path="url(#clip-path-3)">
                  <path id="Trazado_217576" data-name="Trazado 217576" d="M124.834,39.831c-.168-4.32-.762-8.622-.687-12.951a21.311,21.311,0,0,0-1.455-9.266c-.657-1.281-1.08-2.408-2.578-2.253a1.758,1.758,0,0,0-1.49,1.285,2.118,2.118,0,0,0,.012.978l0-.012,0,.013a1.552,1.552,0,0,0,.167.4,10.563,10.563,0,0,0,.519,1.1l.005.011a14.109,14.109,0,0,1,.806,3.061c.294,2.328.118,4.68.188,7.02.115,3.056.345,6.108.492,9.162.173,5.326-.157,10.655-.145,15.984.041,3.078-.029,7.279-.427,8.775-.031.149-.072.3-.1.445-.027.078-.051.158-.081.234a31.926,31.926,0,0,1-1.072,3.054c-1.614,4.2-7.417,11.579-11.265,12.77a23.231,23.231,0,0,1-9.843,1.137c-3.608.03-7.213-.09-10.82-.091-3.705-.118-7.407.128-11.109.017-4.323-.21-8.651.1-12.977-.012-6.793-.093-13.8-.445-18.85.14-2.567.2-2.958-.332-4.644.377-2.692,2-4.663,4.845-7.333,6.9a2.223,2.223,0,0,0,3.143,3.143c1.926-1.542,4.639-4.693,5.959-5.953.6.062,1.2.087,1.8.135,6.513-.055,13.026-.4,19.543-.444,6.88-.04,13.758-.083,20.635-.274,5.011-.032,10.026.027,15.031-.246a34.3,34.3,0,0,0,6.31-.383,20.2,20.2,0,0,0,5.773-1.655,16.871,16.871,0,0,0,3.8-2.656,33.959,33.959,0,0,0,5.607-6.5,26.281,26.281,0,0,0,2.866-5.413,17.932,17.932,0,0,0,1.5-4.937,43.815,43.815,0,0,0,.6-4.665c-.052-2.426-.021-4.851,0-7.278-.071-3.719.323-7.432.122-11.148" transform="translate(-31.482 -15.347)"/>
                </g>
              </g>
            </g>
            <rect id="Rectángulo_56044" data-name="Rectángulo 56044" width="49.12" height="6.135" transform="translate(37.56 21.859)" fill="#acd4f7"/>
            <path id="Trazado_217577" data-name="Trazado 217577" d="M90.96,31.213H41.84a.705.705,0,0,1-.591-.78V24.3a.705.705,0,0,1,.591-.78H90.96a.705.705,0,0,1,.591.78v6.135a.705.705,0,0,1-.591.78M42.43,29.654H90.369V25.079H42.43Z" transform="translate(-4.28 -2.44)"/>
            <rect id="Rectángulo_56045" data-name="Rectángulo 56045" width="39.848" height="6.135" transform="translate(21.633 36.488)" fill="#fff"/>
            <path id="Trazado_217578" data-name="Trazado 217578" d="M63.895,47.535H24.047a.78.78,0,0,1-.78-.78V40.622a.78.78,0,0,1,.78-.78H63.895a.78.78,0,0,1,.779.78v6.134a.779.779,0,0,1-.779.78M24.826,45.976H63.115V41.4H24.826Z" transform="translate(-2.414 -4.134)"/>
            <rect id="Rectángulo_56046" data-name="Rectángulo 56046" width="64.859" height="6.135" transform="translate(21.633 51.116)" fill="#acd4f7"/>
            <path id="Trazado_217579" data-name="Trazado 217579" d="M88.905,63.858H24.047a.78.78,0,0,1-.78-.78V56.945a.78.78,0,0,1,.78-.78H88.905a.78.78,0,0,1,.78.78v6.134a.78.78,0,0,1-.78.78M24.826,62.3h63.3V57.724h-63.3Z" transform="translate(-2.414 -5.827)"/>
            <path id="Trazado_217580" data-name="Trazado 217580" d="M27.2,24.3l-1.464,4.436H23.851l4.812-14.1h2.176l4.813,14.1H33.706L32.2,24.3Zm4.645-1.423-1.4-4.059c-.315-.92-.523-1.758-.732-2.573h-.042c-.21.816-.419,1.694-.712,2.553l-1.381,4.08Z" transform="translate(-2.475 -1.518)"/>
          </g>
        </g>
      </g>
    </g>
  </g>
</svg>
