<svg xmlns="http://www.w3.org/2000/svg" xmlns:xlink="http://www.w3.org/1999/xlink" width="190" height="124" viewBox="0 0 190 124">
  <defs>
    <clipPath id="clip-path">
      <rect id="Rectángulo_56058" data-name="Rectángulo 56058" width="152.201" height="112.671" fill="none"/>
    </clipPath>
    <clipPath id="clip-path-3">
      <rect id="Rectángulo_56053" data-name="Rectángulo 56053" width="17.826" height="3.688" fill="none"/>
    </clipPath>
    <clipPath id="clip-path-4">
      <rect id="Rectángulo_56054" data-name="Rectángulo 56054" width="66.147" height="16.653" fill="none"/>
    </clipPath>
    <clipPath id="clip-path-5">
      <rect id="Rectángulo_56055" data-name="Rectángulo 56055" width="8.335" height="9.388" fill="none"/>
    </clipPath>
  </defs>
  <g id="Grupo_175463" data-name="Grupo 175463" transform="translate(-285 -1891)">
    <rect id="Rectángulo_56059" data-name="Rectángulo 56059" width="190" height="124" transform="translate(285 1891)" fill="none"/>
    <g id="Grupo_175245" data-name="Grupo 175245" transform="translate(314 1891)">
      <g id="Grupo_175244" data-name="Grupo 175244" clip-path="url(#clip-path)">
        <rect id="Rectángulo_56049" data-name="Rectángulo 56049" width="17.826" height="23.315" transform="translate(54.106 88.566)" fill="#acd4f7"/>
        <g id="Grupo_175243" data-name="Grupo 175243" transform="translate(0 0)">
          <g id="Grupo_175242" data-name="Grupo 175242" clip-path="url(#clip-path)">
            <path id="Trazado_217581" data-name="Trazado 217581" d="M77.315,121.533H59.489a.791.791,0,0,1-.79-.79V97.426a.791.791,0,0,1,.79-.79H77.315a.79.79,0,0,1,.79.79v23.316a.79.79,0,0,1-.79.79m-17.035-1.58H76.524V98.216H60.279Z" transform="translate(-5.383 -8.861)"/>
            <path id="Trazado_217582" data-name="Trazado 217582" d="M92.98,123.886H40.173a.79.79,0,1,1,0-1.58H92.98a.79.79,0,0,1,0,1.58" transform="translate(-3.611 -11.215)"/>
            <rect id="Rectángulo_56050" data-name="Rectángulo 56050" width="124.349" height="89.755" transform="translate(0.845 0.79)" fill="#fff"/>
            <path id="Trazado_217583" data-name="Trazado 217583" d="M125.2,91.335H.85a.791.791,0,0,1-.79-.79V.79A.791.791,0,0,1,.85,0H125.2a.79.79,0,0,1,.79.79V90.545a.79.79,0,0,1-.79.79M1.64,89.755H124.409V1.58H1.64Z" transform="translate(-0.006 0)"/>
            <rect id="Rectángulo_56051" data-name="Rectángulo 56051" width="124.349" height="11.358" transform="translate(0.79 79.186)" fill="#acd4f7"/>
            <path id="Trazado_217584" data-name="Trazado 217584" d="M125.14,99.25H.79a.791.791,0,0,1-.79-.79V87.1a.791.791,0,0,1,.79-.79H125.14a.79.79,0,0,1,.79.79V98.459a.79.79,0,0,1-.79.79M1.58,97.669H124.349V87.89H1.58Z" transform="translate(0 -7.914)"/>
            <g id="Grupo_175235" data-name="Grupo 175235" transform="translate(54.106 91.397)" opacity="0.129">
              <g id="Grupo_175234" data-name="Grupo 175234">
                <g id="Grupo_175233" data-name="Grupo 175233" clip-path="url(#clip-path-3)">
                  <rect id="Rectángulo_56052" data-name="Rectángulo 56052" width="17.826" height="3.688" transform="translate(0 0)"/>
                </g>
              </g>
            </g>
            <path id="Trazado_217585" data-name="Trazado 217585" d="M128.612,37.174a8.471,8.471,0,1,1,16.907,0,8.471,8.471,0,1,1-16.907,0" transform="translate(-11.793 -2.582)" fill="#fff"/>
            <path id="Trazado_217586" data-name="Trazado 217586" d="M136.986,46.9c-5.1,0-9.244-4.4-9.244-9.805s4.146-9.806,9.244-9.806,9.244,4.4,9.244,9.806-4.146,9.805-9.244,9.805m0-18.031a7.968,7.968,0,0,0-7.663,8.226,7.683,7.683,0,1,0,15.327,0,7.968,7.968,0,0,0-7.663-8.226" transform="translate(-11.714 -2.502)"/>
            <path id="Trazado_217587" data-name="Trazado 217587" d="M76.127,66.323q13.228,16.683,27.106,32.755a9.3,9.3,0,0,0,2.527,2.288c2.758,1.452,6.279-.708,7.244-3.818s-.131-6.63-2-9.256-4.433-4.559-6.874-6.57a107.836,107.836,0,0,1-20.14-22c-.784-1.136-1.85-2.431-3.132-2.171A3.478,3.478,0,0,0,78.962,59.2c-1.524,2.193-2.971,5.545-2.835,7.12" transform="translate(-6.98 -5.274)" fill="#fff"/>
            <path id="Trazado_217588" data-name="Trazado 217588" d="M107.566,102.539a4.812,4.812,0,0,1-2.254-.552,9.941,9.941,0,0,1-2.757-2.472c-9.213-10.669-18.339-21.7-27.126-32.78a.792.792,0,0,1-.168-.422c-.16-1.847,1.419-5.4,2.974-7.64a4.165,4.165,0,0,1,2.385-1.978c1.943-.392,3.343,1.631,3.939,2.5a106.835,106.835,0,0,0,19.992,21.844q.452.372.907.741a31.744,31.744,0,0,1,6.107,5.979c2.268,3.183,3.057,6.9,2.113,9.948a7.156,7.156,0,0,1-3.982,4.4,5.571,5.571,0,0,1-2.131.44M76.83,65.957c8.724,11,17.781,21.938,26.922,32.525a8.777,8.777,0,0,0,2.3,2.105,3.537,3.537,0,0,0,3.043.052,5.535,5.535,0,0,0,3.077-3.405c.8-2.578.094-5.779-1.89-8.563A30.566,30.566,0,0,0,104.459,83l-.914-.748A108.421,108.421,0,0,1,83.258,60.087c-.6-.872-1.507-2.014-2.323-1.845-.512.1-.974.715-1.4,1.332-1.44,2.071-2.669,5-2.7,6.383" transform="translate(-6.9 -5.194)"/>
            <path id="Trazado_217589" data-name="Trazado 217589" d="M81.075,48.833,70.526,54.279a4.882,4.882,0,0,0-2.183,6.406l5.149,11.009a4.882,4.882,0,0,0,6.429,2.382l11.126-5.018Z" transform="translate(-6.225 -4.478)" fill="#fff"/>
            <path id="Trazado_217590" data-name="Trazado 217590" d="M77.856,75.214A5.7,5.7,0,0,1,72.7,71.95L67.548,60.941A5.652,5.652,0,0,1,70.084,53.5l10.547-5.447A.793.793,0,0,1,81.7,48.4l9.971,20.224a.79.79,0,0,1-.384,1.069L80.167,74.716a5.61,5.61,0,0,1-2.311.5m2.787-25.389L70.808,54.9a4.078,4.078,0,0,0-1.829,5.368l5.148,11.009a4.109,4.109,0,0,0,5.389,2L89.9,68.594Z" transform="translate(-6.144 -4.398)"/>
            <path id="Trazado_217591" data-name="Trazado 217591" d="M82.007,45.855l38.907-32.692,20.407,45.923L91.7,66.077Z" transform="translate(-7.52 -1.207)" fill="#fff"/>
            <path id="Trazado_217592" data-name="Trazado 217592" d="M91.618,66.788a.79.79,0,0,1-.712-.449L81.214,46.116a.791.791,0,0,1,.2-.946l38.907-32.692a.79.79,0,0,1,1.231.284l20.407,45.923a.79.79,0,0,1-.612,1.1L91.729,66.78a.907.907,0,0,1-.111.007M82.9,45.986l9.177,19.149,48.013-6.764L120.538,14.364Z" transform="translate(-7.44 -1.127)"/>
            <path id="Trazado_217593" data-name="Trazado 217593" d="M147.1,19.442a.777.777,0,0,1-.325-.07.79.79,0,0,1-.4-1.045l4-8.865a.79.79,0,1,1,1.441.65l-4,8.865a.791.791,0,0,1-.72.465" transform="translate(-13.417 -0.825)"/>
            <path id="Trazado_217594" data-name="Trazado 217594" d="M154.741,28.762a.791.791,0,0,1-.391-1.478c2.681-1.522,5.443-2.984,8.212-4.345a.79.79,0,0,1,.7,1.418c-2.74,1.348-5.475,2.795-8.129,4.3a.787.787,0,0,1-.39.1" transform="translate(-14.117 -2.096)"/>
            <path id="Trazado_217595" data-name="Trazado 217595" d="M165.655,45.591a.81.81,0,0,1-.243-.038l-9.517-3.085a.79.79,0,0,1,.488-1.5L165.9,44.05a.79.79,0,0,1-.243,1.541" transform="translate(-14.245 -3.753)"/>
            <path id="Trazado_217596" data-name="Trazado 217596" d="M69.872,60.671a.248.248,0,0,1-.084-.014.262.262,0,0,1-.166-.333l1.108-3.334a.263.263,0,1,1,.5.167l-1.108,3.334a.264.264,0,0,1-.25.18" transform="translate(-6.383 -5.209)"/>
            <path id="Trazado_217597" data-name="Trazado 217597" d="M71.913,64.438a.245.245,0,0,1-.072-.01.263.263,0,0,1-.182-.325c.885-3.1,1.9-6.213,3.013-9.249a.264.264,0,0,1,.5.182c-1.111,3.025-2.121,6.124-3,9.211a.264.264,0,0,1-.253.192" transform="translate(-6.57 -5.014)"/>
            <path id="Trazado_217598" data-name="Trazado 217598" d="M74.081,67.15a.276.276,0,0,1-.092-.016.264.264,0,0,1-.155-.339c1.74-4.7,3.356-9.51,4.8-14.3a.263.263,0,1,1,.5.152c-1.45,4.8-3.069,9.619-4.813,14.329a.264.264,0,0,1-.247.172" transform="translate(-6.769 -4.797)"/>
            <path id="Trazado_217599" data-name="Trazado 217599" d="M76.538,72.32a.249.249,0,0,1-.067-.009.262.262,0,0,1-.187-.322c1.475-5.622,3.133-11.28,4.926-16.816a.264.264,0,0,1,.5.163c-1.79,5.526-3.444,11.175-4.918,16.788a.263.263,0,0,1-.254.2" transform="translate(-6.994 -5.043)"/>
            <path id="Trazado_217600" data-name="Trazado 217600" d="M80.105,74a.276.276,0,0,1-.066-.008.264.264,0,0,1-.189-.322l3.674-14.143a.264.264,0,0,1,.51.134L80.361,73.8a.264.264,0,0,1-.255.2" transform="translate(-7.321 -5.44)"/>
            <path id="Trazado_217601" data-name="Trazado 217601" d="M83.861,72.069a.244.244,0,0,1-.072-.01.263.263,0,0,1-.182-.325c.719-2.537,1.422-5.126,2.085-7.7a.264.264,0,0,1,.51.132c-.666,2.575-1.369,5.168-2.089,7.709a.264.264,0,0,1-.253.192" transform="translate(-7.666 -5.854)"/>
            <path id="Trazado_217602" data-name="Trazado 217602" d="M87.414,71.177a.277.277,0,0,1-.047,0,.262.262,0,0,1-.213-.305,22.525,22.525,0,0,1,.8-3.148.263.263,0,1,1,.5.166,21.917,21.917,0,0,0-.784,3.075.263.263,0,0,1-.259.217" transform="translate(-7.991 -6.193)"/>
            <g id="Grupo_175238" data-name="Grupo 175238" transform="translate(67.347 55.512)" opacity="0.129">
              <g id="Grupo_175237" data-name="Grupo 175237">
                <g id="Grupo_175236" data-name="Grupo 175236" clip-path="url(#clip-path-4)">
                  <path id="Trazado_217603" data-name="Trazado 217603" d="M137.936,61.283a1.093,1.093,0,0,0-.423.253c.15-.123.146-.125.039-.076l-.055.015-.219.045c-1.566.213-3.151.215-4.722.379-6.7.754-13.4,1.532-20.127,1.986-3.076.167-6.14.459-9.2.838a58.306,58.306,0,0,0-7.457.829,69.087,69.087,0,0,0-13.6,4.244c-2.63,1.112-2.854,1.206-4.987,2.066-.878.458-2.025.629-2.642,1.449a2.045,2.045,0,0,0-.4.782c.214.114.78.478.865.526.124.071,1.252.609.9.49.812.309,1.629.574,2.426.907.632-.253,1.392-.54,2.223-.844a1.088,1.088,0,0,1,.44-.608A.966.966,0,0,1,82.3,74.9l1.6,2.271q.207.3.415.593a2.542,2.542,0,0,0,.306-.063c1.967-.7,4.3-1.9,4.747-2.067,1.411-.694,4.019-1.171,4.24-2.949a13.152,13.152,0,0,1-.854-1.215.8.8,0,0,1,.283-1.081.768.768,0,0,1,.887.074c2.1-.646,4.214-1.226,6.356-1.694,2.848-.392,6.073-.831,7.75-1,5.125-.3,9.738-.769,13.729-1.221,4.358-.6,12.089-1.268,14.317-1.7.794-.112,1.6-.173,2.381-.355l-.421.056c.2-.025.4-.054.6-.083a1.569,1.569,0,0,0,1-.359,1.664,1.664,0,0,0-1.7-2.83" transform="translate(-74.146 -61.117)"/>
                </g>
              </g>
            </g>
            <g id="Grupo_175241" data-name="Grupo 175241" transform="translate(125.746 33.796)" opacity="0.129">
              <g id="Grupo_175240" data-name="Grupo 175240">
                <g id="Grupo_175239" data-name="Grupo 175239" clip-path="url(#clip-path-5)">
                  <path id="Trazado_217604" data-name="Trazado 217604" d="M146.748,38.372a1.6,1.6,0,0,0-2.5-.827,2.213,2.213,0,0,0-.725,1.253,14.967,14.967,0,0,1-1.2,2.136l-.043.054a6.954,6.954,0,0,1-2.062,1.193,8.382,8.382,0,0,0-1.777,1.045,13.431,13.431,0,0,1,.927,1.8c.225.522.442,1.046.661,1.57a1.907,1.907,0,0,0,.826-.266A10.332,10.332,0,0,0,145.732,42a6.833,6.833,0,0,0,1.016-3.625" transform="translate(-138.441 -37.207)"/>
                </g>
              </g>
            </g>
            <path id="Trazado_217605" data-name="Trazado 217605" d="M84.274,21.184H66.553a.79.79,0,0,1,0-1.58H84.274a.79.79,0,0,1,0,1.58" transform="translate(-6.03 -1.798)"/>
            <path id="Trazado_217606" data-name="Trazado 217606" d="M45.882,58.676H14.6a.79.79,0,0,1,0-1.58h31.28a.79.79,0,1,1,0,1.58" transform="translate(-1.267 -5.236)"/>
            <path id="Trazado_217607" data-name="Trazado 217607" d="M45.882,71.779H14.6a.79.79,0,0,1,0-1.58h31.28a.79.79,0,1,1,0,1.58" transform="translate(-1.267 -6.437)"/>
            <rect id="Rectángulo_56056" data-name="Rectángulo 56056" width="35.823" height="26.868" transform="translate(13.337 13.619)" fill="#fff"/>
            <path id="Trazado_217608" data-name="Trazado 217608" d="M50.427,42.572H14.6a.791.791,0,0,1-.79-.79V14.914a.79.79,0,0,1,.79-.79H50.427a.79.79,0,0,1,.79.79V41.782a.791.791,0,0,1-.79.79m-35.033-1.58H49.636V15.7H15.393Z" transform="translate(-1.267 -1.295)"/>
          </g>
        </g>
      </g>
    </g>
  </g>
</svg>
