<svg xmlns="http://www.w3.org/2000/svg" xmlns:xlink="http://www.w3.org/1999/xlink" width="190" height="124" viewBox="0 0 190 124">
  <defs>
    <clipPath id="clip-path">
      <rect id="Rectángulo_56169" data-name="Rectángulo 56169" width="130.444" height="107.551" fill="none"/>
    </clipPath>
    <clipPath id="clip-path-3">
      <rect id="Rectángulo_56164" data-name="Rectángulo 56164" width="61.983" height="4.562" fill="none"/>
    </clipPath>
    <clipPath id="clip-path-4">
      <rect id="Rectángulo_56165" data-name="Rectángulo 56165" width="9.194" height="8.248" fill="none"/>
    </clipPath>
    <clipPath id="clip-path-5">
      <rect id="Rectángulo_56166" data-name="Rectángulo 56166" width="10.683" height="3.49" fill="none"/>
    </clipPath>
    <clipPath id="clip-path-6">
      <rect id="Rectángulo_56167" data-name="Rectángulo 56167" width="8.612" height="10.35" fill="none"/>
    </clipPath>
  </defs>
  <g id="Grupo_175473" data-name="Grupo 175473" transform="translate(-7305 6431)">
    <rect id="Rectángulo_56096" data-name="Rectángulo 56096" width="190" height="124" transform="translate(7305 -6431)" fill="none"/>
    <g id="Grupo_175401" data-name="Grupo 175401" transform="translate(7333.036 -6431)">
      <g id="Grupo_175400" data-name="Grupo 175400" clip-path="url(#clip-path)">
        <g id="Grupo_175399" data-name="Grupo 175399">
          <g id="Grupo_175398" data-name="Grupo 175398" clip-path="url(#clip-path)">
            <path id="Trazado_217885" data-name="Trazado 217885" d="M40.916,95.485v-83.1A11.517,11.517,0,0,1,52.433.87H90.414a11.517,11.517,0,0,1,11.517,11.517v83.1A11.517,11.517,0,0,1,90.414,107H52.433A11.517,11.517,0,0,1,40.916,95.485" transform="translate(-7.522 -0.16)" fill="#acd4f7"/>
            <path id="Trazado_217886" data-name="Trazado 217886" d="M90.18,107.551H52.347a12.315,12.315,0,0,1-12.3-12.3V12.3A12.315,12.315,0,0,1,52.347,0H90.18a12.315,12.315,0,0,1,12.3,12.3V95.25a12.315,12.315,0,0,1-12.3,12.3M52.347,1.42A10.894,10.894,0,0,0,41.466,12.3V95.25a10.894,10.894,0,0,0,10.881,10.881H90.18A10.894,10.894,0,0,0,101.061,95.25V12.3A10.894,10.894,0,0,0,90.18,1.42Z" transform="translate(-7.362 0)"/>
            <rect id="Rectángulo_56163" data-name="Rectángulo 56163" width="61.015" height="80.033" transform="translate(33.394 11.997)" fill="#fff"/>
            <path id="Trazado_217887" data-name="Trazado 217887" d="M101.771,95.283H40.756a.71.71,0,0,1-.71-.71V14.54a.71.71,0,0,1,.71-.71h61.015a.71.71,0,0,1,.71.71V94.573a.711.711,0,0,1-.71.71m-60.3-1.42h59.595V15.25H41.466Z" transform="translate(-7.362 -2.543)"/>
            <path id="Trazado_217888" data-name="Trazado 217888" d="M83.152,120.359H72.162a.71.71,0,0,1,0-1.42h10.99a.71.71,0,0,1,0,1.42" transform="translate(-13.136 -21.866)"/>
            <path id="Trazado_217889" data-name="Trazado 217889" d="M80.181,33.373H53.2a.71.71,0,1,1,0-1.42H80.181a.71.71,0,1,1,0,1.42" transform="translate(-9.65 -5.874)"/>
            <path id="Trazado_217890" data-name="Trazado 217890" d="M66.69,53.718H53.2a.71.71,0,1,1,0-1.42H66.69a.71.71,0,1,1,0,1.42" transform="translate(-9.65 -9.615)"/>
            <path id="Trazado_217891" data-name="Trazado 217891" d="M66.69,74.062H53.2a.71.71,0,0,1,0-1.42H66.69a.71.71,0,0,1,0,1.42" transform="translate(-9.65 -13.355)"/>
            <path id="Trazado_217892" data-name="Trazado 217892" d="M66.69,94.406H53.2a.71.71,0,1,1,0-1.42H66.69a.71.71,0,1,1,0,1.42" transform="translate(-9.65 -17.095)"/>
            <g id="Grupo_175388" data-name="Grupo 175388" transform="translate(32.936 11.611)" opacity="0.129">
              <g id="Grupo_175387" data-name="Grupo 175387">
                <g id="Grupo_175386" data-name="Grupo 175386" clip-path="url(#clip-path-3)">
                  <path id="Trazado_217893" data-name="Trazado 217893" d="M97.742,14.756c-2.082-.059-4.162-.154-6.245-.13q-8.4-.086-16.81.028c-4.409.031-8.819.214-13.223-.084-5.405-.166-10.809-.486-16.219-.272-.758.013-1.516.009-2.274-.029a2.3,2.3,0,0,0-1.364.14,2.067,2.067,0,0,0,.8,3.964c2.637.19,5.285-.017,7.927.042,3.15-.015,6.293.247,9.44.313,11.753.071,23.512.118,35.264-.088,1.561.024,3.123-.007,4.683-.038,1.293.145,2.6-.463,2.62-1.921-.158-2.506-2.853-1.831-4.6-1.924" transform="translate(-40.355 -14.226)"/>
                </g>
              </g>
            </g>
            <path id="Trazado_217894" data-name="Trazado 217894" d="M.658,34.987c8.094,0,15.141.055,22.741,0,0-6.709-.331-13.451-.21-20.21-7.745-.064-15.029,0-22.558,0,0,6.755.027,13.489.027,20.21" transform="translate(-0.116 -2.711)" fill="#fff"/>
            <path id="Trazado_217895" data-name="Trazado 217895" d="M15.784,35.411c-2.405,0-4.812-.007-7.287-.012-2.573-.007-5.2-.013-7.955-.013a.514.514,0,0,1-.515-.515q0-5.034-.014-10.079T0,14.661a.515.515,0,0,1,.515-.516c2.51,0,4.993-.007,7.476-.014,4.877-.014,9.921-.029,15.086.014a.516.516,0,0,1,.511.525c-.069,3.9.012,7.851.091,11.677.058,2.8.118,5.687.118,8.524a.515.515,0,0,1-.512.515c-2.546.019-5.023.025-7.5.025m-14.728-.54h0Zm0-.515c2.567,0,5.03.007,7.443.013,4.85.011,9.443.023,14.266-.01-.006-2.662-.062-5.369-.117-7.99-.076-3.666-.154-7.451-.1-11.2-4.977-.038-9.844-.024-14.555-.011-2.313.007-4.627.014-6.963.015q0,4.814.014,9.614t.013,9.565" transform="translate(0 -2.595)"/>
            <path id="Trazado_217896" data-name="Trazado 217896" d="M3.245,19.054a.17.17,0,0,1-.1-.033.172.172,0,0,1-.036-.24,13.78,13.78,0,0,1,1.53-1.747.172.172,0,0,1,.238.248,13.465,13.465,0,0,0-1.493,1.7.172.172,0,0,1-.138.069" transform="translate(-0.565 -3.123)"/>
            <path id="Trazado_217897" data-name="Trazado 217897" d="M2.528,23.056a.172.172,0,0,1-.126-.289c1.849-1.986,3.687-4.04,5.461-6.106a.173.173,0,0,1,.242-.018.171.171,0,0,1,.018.242C6.347,18.954,4.507,21.012,2.654,23a.173.173,0,0,1-.126.055" transform="translate(-0.433 -3.052)"/>
            <path id="Trazado_217898" data-name="Trazado 217898" d="M2.548,27.21a.168.168,0,0,1-.111-.041.171.171,0,0,1-.02-.242L10.84,16.97a.173.173,0,0,1,.242-.02.17.17,0,0,1,.02.242L2.68,27.15a.172.172,0,0,1-.131.06" transform="translate(-0.437 -3.109)"/>
            <path id="Trazado_217899" data-name="Trazado 217899" d="M2.776,31.031a.172.172,0,0,1-.128-.286c3.949-4.409,7.833-8.983,11.545-13.594a.172.172,0,1,1,.268.215C10.744,21.982,6.857,26.56,2.9,30.974a.173.173,0,0,1-.128.057" transform="translate(-0.479 -3.141)"/>
            <path id="Trazado_217900" data-name="Trazado 217900" d="M4.283,33.959a.166.166,0,0,1-.107-.038.171.171,0,0,1-.027-.241c4.5-5.6,9.176-11.193,13.909-16.616a.172.172,0,1,1,.259.226c-4.73,5.42-9.407,11.007-13.9,16.6a.171.171,0,0,1-.134.064" transform="translate(-0.756 -3.126)"/>
            <path id="Trazado_217901" data-name="Trazado 217901" d="M8.884,33.846a.172.172,0,0,1-.133-.281L22.2,17.113a.172.172,0,1,1,.265.218L9.017,33.783a.171.171,0,0,1-.133.063" transform="translate(-1.602 -3.135)"/>
            <path id="Trazado_217902" data-name="Trazado 217902" d="M13.6,34.843a.17.17,0,0,1-.112-.042.172.172,0,0,1-.018-.242C16.895,30.59,20.3,26.5,23.587,22.394a.172.172,0,1,1,.268.215c-3.292,4.105-6.7,8.2-10.121,12.175a.171.171,0,0,1-.13.06" transform="translate(-2.469 -4.105)"/>
            <path id="Trazado_217903" data-name="Trazado 217903" d="M18.851,35.936a.169.169,0,0,1-.1-.033.172.172,0,0,1-.039-.24c1.755-2.427,3.612-4.823,5.523-7.123a.172.172,0,0,1,.264.22c-1.906,2.293-3.759,4.683-5.508,7.1a.173.173,0,0,1-.14.071" transform="translate(-3.434 -5.236)"/>
            <path id="Trazado_217904" data-name="Trazado 217904" d="M22.993,37.105a.168.168,0,0,1-.111-.041.172.172,0,0,1-.02-.242c.722-.846,1.417-1.737,2.065-2.644a.171.171,0,1,1,.279.2c-.653.917-1.354,1.813-2.083,2.668a.172.172,0,0,1-.131.06" transform="translate(-4.196 -6.27)"/>
            <path id="Trazado_217905" data-name="Trazado 217905" d="M138.236,68.264l8.159-2.292-3.289-10.852-7.126,2.294-4.686-6.9,3.934-6.806-9.892-4.43-3.121,7.682-8.355.106-3.336-6.695L100.4,45.99l4.224,6.051L99.034,58.6l-5.5-1.841-2.9,11.934,6.5,1.325,2.816,7.7L95.02,82.906l8.337,7.372,3.978-5.457,7.66,1.594.78,7.326,10.2-.642L125,86.428l5.933-3.839,5.623,5.155,7.656-9.38-6.786-3.951Zm-19.725,5.463a7.219,7.219,0,1,1,7.219-7.219,7.219,7.219,0,0,1-7.219,7.219" transform="translate(-16.661 -7.22)" fill="#fff"/>
            <path id="Trazado_217906" data-name="Trazado 217906" d="M115.615,94.291a.709.709,0,0,1-.705-.635l-.727-6.812-6.7-1.394-3.709,5.085a.71.71,0,0,1-1.044.113L94.39,83.278a.71.71,0,0,1-.045-1.021l4.621-4.872-2.529-6.914-6.111-1.245a.709.709,0,0,1-.548-.863l2.9-11.934a.708.708,0,0,1,.914-.506l5.049,1.689,4.923-5.773-3.909-5.6A.71.71,0,0,1,99.9,45.21l10.124-5.623a.71.71,0,0,1,.98.3l3.137,6.3,7.437-.095,2.944-7.245a.711.711,0,0,1,.948-.381l9.891,4.43a.71.71,0,0,1,.325,1l-3.711,6.421,4.138,6.1,6.619-2.131a.71.71,0,0,1,.9.47l3.288,10.852a.711.711,0,0,1-.487.89l-7.709,2.164-.689,5.216,6.377,3.714a.71.71,0,0,1,.193,1.063l-7.656,9.38a.709.709,0,0,1-1.03.074L130.7,83.324l-5.089,3.292.912,6.22a.711.711,0,0,1-.658.812l-10.2.641-.045,0m-8.442-10.34a.732.732,0,0,1,.145.015l7.66,1.594a.709.709,0,0,1,.561.619l.709,6.651L125,92.28l-.867-5.908a.711.711,0,0,1,.317-.7l5.933-3.839a.711.711,0,0,1,.865.073l5.068,4.647,6.655-8.153-6.067-3.533a.709.709,0,0,1-.347-.706l.812-6.149a.711.711,0,0,1,.513-.591l7.46-2.1-2.869-9.467-6.438,2.073a.71.71,0,0,1-.806-.277l-4.686-6.9a.709.709,0,0,1-.028-.754l3.54-6.124-8.5-3.808-2.845,7a.71.71,0,0,1-.648.443l-8.354.106h-.01a.709.709,0,0,1-.635-.393L110.06,41.19l-8.786,4.88,3.773,5.405a.711.711,0,0,1-.042.868L99.415,58.9a.713.713,0,0,1-.766.213l-4.77-1.6L91.331,67.981l5.778,1.178a.711.711,0,0,1,.525.452l2.817,7.7a.711.711,0,0,1-.153.733L95.881,82.7l7.2,6.367,3.518-4.825a.712.712,0,0,1,.574-.292m11.177-9.674a7.929,7.929,0,1,1,7.929-7.929,7.938,7.938,0,0,1-7.929,7.929m0-14.438a6.509,6.509,0,1,0,6.509,6.509,6.516,6.516,0,0,0-6.509-6.509" transform="translate(-16.501 -7.061)"/>
            <g id="Grupo_175391" data-name="Grupo 175391" transform="translate(78.903 73.758)" opacity="0.129">
              <g id="Grupo_175390" data-name="Grupo 175390">
                <g id="Grupo_175389" data-name="Grupo 175389" clip-path="url(#clip-path-4)">
                  <path id="Trazado_217907" data-name="Trazado 217907" d="M105.813,96.576c-.278-.928-1.315-1.3-1.995-1.9-.22-.2-1.4-1.01-2.615-2.106a14.222,14.222,0,0,0-2.274-2.052,1.624,1.624,0,0,0-1.778,2.638,40.529,40.529,0,0,0,5.723,4.815c.448.234.214.487,1.381.646a1.631,1.631,0,0,0,1.557-2.044" transform="translate(-96.676 -90.372)"/>
                </g>
              </g>
            </g>
            <g id="Grupo_175394" data-name="Grupo 175394" transform="translate(98.486 83.13)" opacity="0.129">
              <g id="Grupo_175393" data-name="Grupo 175393">
                <g id="Grupo_175392" data-name="Grupo 175392" clip-path="url(#clip-path-5)">
                  <path id="Trazado_217908" data-name="Trazado 217908" d="M130.206,102.151a2.061,2.061,0,0,0-.975.027,18.9,18.9,0,0,1-3.039-.037c-.989-.1-1.983-.124-2.973-.2A2.715,2.715,0,0,0,121.7,102a1.689,1.689,0,0,0,.652,3.239,37.914,37.914,0,0,0,4.844.062,19.992,19.992,0,0,0,2.3-.036,2.015,2.015,0,0,0,1.094-.225,1.588,1.588,0,0,0-.377-2.888" transform="translate(-120.67 -101.856)"/>
                </g>
              </g>
            </g>
            <g id="Grupo_175397" data-name="Grupo 175397" transform="translate(118.006 69.697)" opacity="0.129">
              <g id="Grupo_175396" data-name="Grupo 175396">
                <g id="Grupo_175395" data-name="Grupo 175395" clip-path="url(#clip-path-6)">
                  <path id="Trazado_217909" data-name="Trazado 217909" d="M150.359,86.139c-1.421,2.291-3.793,5.094-4.381,6.108-.356.529-1.026.824-1.253,1.436a1.488,1.488,0,0,0,2.417,1.629,21.67,21.67,0,0,0,2.495-3.05c.911-1.12,1.785-2.271,2.595-3.466.312-.554.883-1.026.944-1.682a1.523,1.523,0,0,0-2.817-.974" transform="translate(-144.587 -85.396)"/>
                </g>
              </g>
            </g>
            <path id="Trazado_217910" data-name="Trazado 217910" d="M94.162,71.361a.243.243,0,0,1-.123-.034A.236.236,0,0,1,93.96,71l3.147-5.158a.237.237,0,0,1,.4.247l-3.147,5.157a.236.236,0,0,1-.2.113" transform="translate(-17.268 -12.084)"/>
            <path id="Trazado_217911" data-name="Trazado 217911" d="M98.754,69.114a.231.231,0,0,1-.134-.041.236.236,0,0,1-.061-.329c4.258-6.205,8.742-12.374,13.326-18.336a.237.237,0,1,1,.375.289c-4.579,5.954-9.058,12.117-13.312,18.314a.234.234,0,0,1-.2.1" transform="translate(-18.112 -9.25)"/>
            <path id="Trazado_217912" data-name="Trazado 217912" d="M108.733,49.9a.237.237,0,0,1-.189-.38l3.52-4.63a.237.237,0,1,1,.377.286l-3.52,4.631a.239.239,0,0,1-.189.093" transform="translate(-19.946 -8.236)"/>
            <path id="Trazado_217913" data-name="Trazado 217913" d="M102.3,73.639a.237.237,0,0,1-.2-.365C106.788,66,111.788,58.8,116.964,51.861a.237.237,0,0,1,.38.282c-5.169,6.928-10.164,14.124-14.845,21.387a.235.235,0,0,1-.2.109" transform="translate(-18.764 -9.517)"/>
            <path id="Trazado_217914" data-name="Trazado 217914" d="M104.769,81.778a.237.237,0,0,1-.186-.384c2.2-2.8,4.326-5.716,6.318-8.675a.237.237,0,0,1,.393.264c-2,2.968-4.131,5.9-6.339,8.7a.236.236,0,0,1-.186.091" transform="translate(-19.218 -13.35)"/>
            <path id="Trazado_217915" data-name="Trazado 217915" d="M119.724,60.565a.244.244,0,0,1-.138-.043.238.238,0,0,1-.055-.331c2.024-2.812,4.131-5.626,6.262-8.362a.237.237,0,1,1,.374.291c-2.128,2.732-4.23,5.541-6.25,8.348a.239.239,0,0,1-.193.1" transform="translate(-21.967 -9.511)"/>
            <path id="Trazado_217916" data-name="Trazado 217916" d="M127.286,57.794a.237.237,0,0,1-.2-.363c2.73-4.33,5.627-8.63,8.61-12.781a.237.237,0,0,1,.384.277c-2.977,4.143-5.869,8.435-8.595,12.757a.236.236,0,0,1-.2.11" transform="translate(-23.357 -8.19)"/>
            <path id="Trazado_217917" data-name="Trazado 217917" d="M102.433,92.081a.237.237,0,0,1-.187-.381c3.22-4.173,6.623-8.293,10.115-12.243a.237.237,0,0,1,.355.313c-3.486,3.943-6.883,8.054-10.1,12.219a.235.235,0,0,1-.187.092" transform="translate(-18.788 -14.593)"/>
            <path id="Trazado_217918" data-name="Trazado 217918" d="M111.258,90.532a.237.237,0,0,1-.193-.374c1.531-2.148,3.14-4.286,4.783-6.358a.236.236,0,1,1,.371.294c-1.638,2.065-3.242,4.2-4.768,6.338a.235.235,0,0,1-.193.1" transform="translate(-20.411 -15.39)"/>
            <path id="Trazado_217919" data-name="Trazado 217919" d="M132.151,61.491a.237.237,0,0,1-.19-.378,57.859,57.859,0,0,1,5.336-6.2.237.237,0,1,1,.335.334,57.329,57.329,0,0,0-5.291,6.147.236.236,0,0,1-.19.1" transform="translate(-24.252 -10.083)"/>
            <path id="Trazado_217920" data-name="Trazado 217920" d="M116.521,91.971a.231.231,0,0,1-.134-.042.236.236,0,0,1-.061-.329c1.358-1.981,2.8-3.94,4.294-5.823a.237.237,0,0,1,.371.294c-1.485,1.875-2.923,3.825-4.275,5.8a.236.236,0,0,1-.2.1" transform="translate(-21.378 -15.753)"/>
            <path id="Trazado_217921" data-name="Trazado 217921" d="M135.215,67.1a.237.237,0,0,1-.188-.381c1.729-2.249,3.534-4.482,5.365-6.636a.237.237,0,0,1,.361.307c-1.827,2.149-3.627,4.375-5.351,6.618a.236.236,0,0,1-.188.092" transform="translate(-24.815 -11.03)"/>
            <path id="Trazado_217922" data-name="Trazado 217922" d="M122.292,89.151a.237.237,0,0,1-.186-.384c6.871-8.714,14.141-17.3,21.606-25.511a.236.236,0,0,1,.35.317c-7.458,8.2-14.719,16.78-21.584,25.487a.237.237,0,0,1-.186.09" transform="translate(-22.439 -11.615)"/>
            <path id="Trazado_217923" data-name="Trazado 217923" d="M124.062,96.893a.239.239,0,0,1-.153-.056.237.237,0,0,1-.028-.334l16.055-19.035a.237.237,0,0,1,.362.305L124.242,96.809a.235.235,0,0,1-.18.084" transform="translate(-22.764 -14.227)"/>
            <path id="Trazado_217924" data-name="Trazado 217924" d="M149.389,70.109a.24.24,0,0,1-.156-.058.237.237,0,0,1-.023-.335l4.05-4.638a.237.237,0,1,1,.357.312l-4.049,4.638a.238.238,0,0,1-.179.081" transform="translate(-27.421 -11.949)"/>
            <path id="Trazado_217925" data-name="Trazado 217925" d="M140.574,88.44a.237.237,0,0,1-.178-.393l3.057-3.489a.237.237,0,0,1,.356.313l-3.057,3.488a.235.235,0,0,1-.178.081" transform="translate(-25.8 -15.531)"/>
            <path id="Trazado_217926" data-name="Trazado 217926" d="M145.053,91.483a.23.23,0,0,1-.149-.053.235.235,0,0,1-.035-.332c.464-.574.965-1.151,1.45-1.709.658-.757,1.338-1.54,1.942-2.33.032-.041.064-.078.1-.112a.236.236,0,0,1,.174-.22c.1-.028.288-.079.383.1a.278.278,0,0,1-.108.35,1.227,1.227,0,0,0-.169.173c-.613.8-1.3,1.591-1.96,2.354-.482.554-.981,1.129-1.441,1.7a.235.235,0,0,1-.184.088" transform="translate(-26.624 -15.939)"/>
          </g>
        </g>
      </g>
    </g>
  </g>
</svg>
