<svg xmlns="http://www.w3.org/2000/svg" xmlns:xlink="http://www.w3.org/1999/xlink" width="190" height="124" viewBox="0 0 190 124">
  <defs>
    <clipPath id="clip-path">
      <rect id="Rectángulo_56209" data-name="Rectángulo 56209" width="126.48" height="91.734" fill="none"/>
    </clipPath>
    <clipPath id="clip-path-3">
      <rect id="Rectángulo_56207" data-name="Rectángulo 56207" width="124.893" height="3.704" fill="none"/>
    </clipPath>
  </defs>
  <g id="Grupo_175477" data-name="Grupo 175477" transform="translate(-7305 4990)">
    <g id="Grupo_175462" data-name="Grupo 175462">
      <rect id="Rectángulo_56100" data-name="Rectángulo 56100" width="190" height="124" transform="translate(7305 -4990)" fill="none"/>
      <g id="Grupo_175461" data-name="Grupo 175461" transform="translate(7337 -4990)">
        <g id="Grupo_175460" data-name="Grupo 175460" clip-path="url(#clip-path)">
          <rect id="Rectángulo_56203" data-name="Rectángulo 56203" width="124.893" height="86.464" transform="translate(0.794 4.477)" fill="#fff"/>
          <g id="Grupo_175459" data-name="Grupo 175459">
            <g id="Grupo_175458" data-name="Grupo 175458" clip-path="url(#clip-path)">
              <path id="Trazado_218042" data-name="Trazado 218042" d="M125.686,92.088H.794A.794.794,0,0,1,0,91.295V4.831a.794.794,0,0,1,.794-.794H125.686a.794.794,0,0,1,.794.794V91.295a.794.794,0,0,1-.794.794M1.587,90.5H124.893V5.624H1.587Z" transform="translate(0 -0.354)"/>
              <rect id="Rectángulo_56204" data-name="Rectángulo 56204" width="124.893" height="11.409" transform="translate(0.794 0.794)" fill="#acd4f7"/>
              <path id="Trazado_218043" data-name="Trazado 218043" d="M125.686,13H.794A.794.794,0,0,1,0,12.2V.794A.794.794,0,0,1,.794,0H125.686a.794.794,0,0,1,.794.794V12.2a.794.794,0,0,1-.794.794M1.587,11.408H124.893V1.587H1.587Z"/>
              <path id="Trazado_218044" data-name="Trazado 218044" d="M16.551,58.109c12.469,0,23.327.086,35.033,0,0-10.335-.508-20.723-.323-31.136-11.93-.1-23.153,0-34.752,0,0,10.407.042,20.781.042,31.136" transform="translate(-1.448 -2.362)" fill="#fff"/>
              <path id="Trazado_218045" data-name="Trazado 218045" d="M39.957,58.865c-3.706,0-7.414-.009-11.227-.019-3.963-.009-8.016-.019-12.255-.019a.794.794,0,0,1-.794-.794q0-7.756-.021-15.528-.015-7.794-.02-15.607a.793.793,0,0,1,.794-.795c3.867,0,7.692-.01,11.517-.022,7.514-.021,15.285-.045,23.242.022a.793.793,0,0,1,.786.807c-.107,6,.019,12.1.142,17.99.088,4.307.181,8.761.181,13.131a.794.794,0,0,1-.787.794c-3.923.029-7.739.039-11.557.039m-22.689-.832h0Zm0-.795c3.954,0,7.749.011,11.466.02,7.471.017,14.547.036,21.978-.015-.01-4.1-.1-8.27-.18-12.309-.118-5.649-.238-11.479-.155-17.25-7.668-.058-15.165-.036-22.424-.016-3.563.011-7.128.021-10.727.023q0,7.415.02,14.81.015,7.378.021,14.737" transform="translate(-1.372 -2.286)"/>
              <path id="Trazado_218046" data-name="Trazado 218046" d="M20.141,33.2a.259.259,0,0,1-.157-.052.264.264,0,0,1-.056-.369,21.257,21.257,0,0,1,2.357-2.69.265.265,0,0,1,.367.381,20.96,20.96,0,0,0-2.3,2.623.262.262,0,0,1-.213.108" transform="translate(-1.744 -2.633)"/>
              <path id="Trazado_218047" data-name="Trazado 218047" d="M19.153,39.427a.261.261,0,0,1-.181-.071.265.265,0,0,1-.013-.374c2.849-3.059,5.68-6.224,8.413-9.407a.265.265,0,0,1,.4.345c-2.738,3.188-5.573,6.359-8.428,9.424a.263.263,0,0,1-.193.084" transform="translate(-1.657 -2.586)"/>
              <path id="Trazado_218048" data-name="Trazado 218048" d="M19.18,45.777a.267.267,0,0,1-.171-.062.264.264,0,0,1-.031-.373L31.954,30a.265.265,0,0,1,.4.342L19.382,45.684a.268.268,0,0,1-.2.093" transform="translate(-1.659 -2.624)"/>
              <path id="Trazado_218049" data-name="Trazado 218049" d="M19.495,51.635a.265.265,0,0,1-.2-.442C25.381,44.4,31.364,37.355,37.082,30.251a.265.265,0,1,1,.412.332c-5.724,7.111-11.714,14.164-17.8,20.964a.267.267,0,0,1-.2.088" transform="translate(-1.687 -2.645)"/>
              <path id="Trazado_218050" data-name="Trazado 218050" d="M21.571,56.158a.261.261,0,0,1-.165-.058.264.264,0,0,1-.041-.371C28.29,47.1,35.5,38.486,42.792,30.129a.265.265,0,0,1,.4.348C35.9,38.828,28.7,47.434,21.777,56.059a.262.262,0,0,1-.206.1" transform="translate(-1.869 -2.635)"/>
              <path id="Trazado_218051" data-name="Trazado 218051" d="M27.913,55.977a.26.26,0,0,1-.168-.06.263.263,0,0,1-.036-.371L48.421,30.2a.264.264,0,1,1,.409.335L28.117,55.88a.262.262,0,0,1-.2.1" transform="translate(-2.426 -2.641)"/>
              <path id="Trazado_218052" data-name="Trazado 218052" d="M34.417,56.657a.262.262,0,0,1-.172-.064.265.265,0,0,1-.028-.373C39.488,50.1,44.73,43.8,49.8,37.478a.264.264,0,0,1,.412.33c-5.07,6.325-10.317,12.635-15.592,18.756a.262.262,0,0,1-.2.092" transform="translate(-2.996 -3.279)"/>
              <path id="Trazado_218053" data-name="Trazado 218053" d="M41.651,57.341a.264.264,0,0,1-.214-.42c2.7-3.739,5.565-7.431,8.508-10.973a.265.265,0,0,1,.408.338C47.415,49.82,44.56,53.5,41.865,57.232a.265.265,0,0,1-.214.109" transform="translate(-3.631 -4.023)"/>
              <path id="Trazado_218054" data-name="Trazado 218054" d="M47.359,58.23a.265.265,0,0,1-.2-.436c1.113-1.3,2.183-2.676,3.181-4.074a.264.264,0,1,1,.431.307c-1.006,1.412-2.086,2.794-3.208,4.111a.266.266,0,0,1-.2.093" transform="translate(-4.131 -4.703)"/>
              <path id="Trazado_218055" data-name="Trazado 218055" d="M99.173,7.84H92.587a.794.794,0,1,1,0-1.587h6.587a.794.794,0,0,1,0,1.587" transform="translate(-8.053 -0.549)"/>
              <path id="Trazado_218056" data-name="Trazado 218056" d="M113.822,7.84h-6.587a.794.794,0,0,1,0-1.587h6.587a.794.794,0,1,1,0,1.587" transform="translate(-9.338 -0.549)"/>
              <path id="Trazado_218057" data-name="Trazado 218057" d="M128.471,7.84h-6.587a.794.794,0,0,1,0-1.587h6.587a.794.794,0,0,1,0,1.587" transform="translate(-10.623 -0.549)"/>
              <rect id="Rectángulo_56205" data-name="Rectángulo 56205" width="124.893" height="11.409" transform="translate(0.794 0.794)" fill="#acd4f7"/>
              <path id="Trazado_218058" data-name="Trazado 218058" d="M125.686,13H.794A.794.794,0,0,1,0,12.2V.794A.794.794,0,0,1,.794,0H125.686a.794.794,0,0,1,.794.794V12.2a.794.794,0,0,1-.794.794M1.587,11.408H124.893V1.587H1.587Z"/>
              <path id="Trazado_218059" data-name="Trazado 218059" d="M99.173,7.84H92.587a.794.794,0,1,1,0-1.587h6.587a.794.794,0,0,1,0,1.587" transform="translate(-8.053 -0.549)"/>
              <path id="Trazado_218060" data-name="Trazado 218060" d="M113.822,7.84h-6.587a.794.794,0,0,1,0-1.587h6.587a.794.794,0,1,1,0,1.587" transform="translate(-9.338 -0.549)"/>
              <path id="Trazado_218061" data-name="Trazado 218061" d="M128.471,7.84h-6.587a.794.794,0,0,1,0-1.587h6.587a.794.794,0,0,1,0,1.587" transform="translate(-10.623 -0.549)"/>
              <g id="Grupo_175457" data-name="Grupo 175457" transform="translate(0.794 13.175)" opacity="0.129">
                <g id="Grupo_175456" data-name="Grupo 175456">
                  <g id="Grupo_175455" data-name="Grupo 175455" clip-path="url(#clip-path-3)">
                    <rect id="Rectángulo_56206" data-name="Rectángulo 56206" width="124.893" height="3.704" transform="translate(0 0)"/>
                  </g>
                </g>
              </g>
              <path id="Trazado_218062" data-name="Trazado 218062" d="M121.113,58.36a.474.474,0,0,1-.136-.021c-7.366-2.338-14.8-4.822-22.1-7.384a.449.449,0,0,1-.222-.676c4.272-6.259,8.816-12.692,13.212-18.912a.448.448,0,0,1,.733.517C108.322,37.941,103.9,44.2,99.73,50.3c7.11,2.491,14.347,4.906,21.52,7.182a.449.449,0,0,1-.136.876" transform="translate(-8.648 -2.735)"/>
              <path id="Trazado_218063" data-name="Trazado 218063" d="M69.847,59.843a.443.443,0,0,1-.14-.022.449.449,0,0,1-.286-.567l6.823-20.67a.449.449,0,0,1,.665-.238C83.237,42.33,89.492,46.608,95.5,51.06a.448.448,0,0,1-.534.721C89.13,47.455,83.06,43.3,76.916,39.411L70.273,59.536a.448.448,0,0,1-.426.307" transform="translate(-6.088 -3.358)"/>
              <path id="Trazado_218064" data-name="Trazado 218064" d="M91.182,51.838a6.631,6.631,0,1,1,6.631,6.631,6.631,6.631,0,0,1-6.631-6.631" transform="translate(-7.999 -3.966)" fill="#fff"/>
              <path id="Trazado_218065" data-name="Trazado 218065" d="M97.769,58.874a7.079,7.079,0,1,1,7.079-7.079,7.087,7.087,0,0,1-7.079,7.079m0-13.262a6.182,6.182,0,1,0,6.182,6.182,6.189,6.189,0,0,0-6.182-6.182" transform="translate(-7.956 -3.923)"/>
              <path id="Trazado_218066" data-name="Trazado 218066" d="M72.355,37.733a4.685,4.685,0,1,1,4.685,4.685,4.685,4.685,0,0,1-4.685-4.685" transform="translate(-6.348 -2.899)" fill="#acd4f7"/>
              <path id="Trazado_218067" data-name="Trazado 218067" d="M77,42.824a5.133,5.133,0,1,1,5.133-5.133A5.139,5.139,0,0,1,77,42.824m0-9.37a4.237,4.237,0,1,0,4.237,4.237A4.241,4.241,0,0,0,77,33.454" transform="translate(-6.305 -2.856)"/>
              <path id="Trazado_218068" data-name="Trazado 218068" d="M109.206,30.529a3.894,3.894,0,1,1,3.894,3.894,3.894,3.894,0,0,1-3.894-3.894" transform="translate(-9.581 -2.337)" fill="#fff"/>
              <path id="Trazado_218069" data-name="Trazado 218069" d="M113.057,34.83a4.343,4.343,0,1,1,4.342-4.343,4.348,4.348,0,0,1-4.342,4.343m0-7.789a3.446,3.446,0,1,0,3.446,3.446,3.449,3.449,0,0,0-3.446-3.446" transform="translate(-9.537 -2.294)"/>
              <path id="Trazado_218070" data-name="Trazado 218070" d="M120.349,60.286a3.067,3.067,0,1,1,3.067,3.067,3.067,3.067,0,0,1-3.067-3.067" transform="translate(-10.558 -5.02)" fill="#acd4f7"/>
              <path id="Trazado_218071" data-name="Trazado 218071" d="M123.373,63.758a3.515,3.515,0,1,1,3.516-3.516,3.519,3.519,0,0,1-3.516,3.516m0-6.134a2.619,2.619,0,1,0,2.618,2.618,2.621,2.621,0,0,0-2.618-2.618" transform="translate(-10.515 -4.977)"/>
              <path id="Trazado_218072" data-name="Trazado 218072" d="M65.473,61.113a3.894,3.894,0,1,1,3.894,3.894,3.894,3.894,0,0,1-3.894-3.894" transform="translate(-5.744 -5.02)" fill="#fff"/>
              <path id="Trazado_218073" data-name="Trazado 218073" d="M69.324,65.413a4.343,4.343,0,1,1,4.342-4.343,4.348,4.348,0,0,1-4.342,4.343m0-7.789a3.446,3.446,0,1,0,3.446,3.446,3.45,3.45,0,0,0-3.446-3.446" transform="translate(-5.701 -4.977)"/>
              <path id="Trazado_218074" data-name="Trazado 218074" d="M92.639,51.511a.15.15,0,0,1-.111-.249c1.451-1.616,2.958-3.222,4.477-4.776a.15.15,0,0,1,.213.21c-1.516,1.55-3.02,3.153-4.468,4.766a.148.148,0,0,1-.111.049" transform="translate(-8.114 -4.074)"/>
              <path id="Trazado_218075" data-name="Trazado 218075" d="M92.853,54.048a.149.149,0,0,1-.108-.253l6.716-6.972a.149.149,0,0,1,.215.207L92.96,54a.15.15,0,0,1-.108.046" transform="translate(-8.133 -4.104)"/>
              <path id="Trazado_218076" data-name="Trazado 218076" d="M94.409,56.146a.15.15,0,0,1-.109-.253l7.261-7.678a.15.15,0,0,1,.218.206L94.517,56.1a.149.149,0,0,1-.109.047" transform="translate(-8.269 -4.226)"/>
              <path id="Trazado_218077" data-name="Trazado 218077" d="M97.027,57.467a.151.151,0,0,1-.1-.04.149.149,0,0,1-.006-.212c1.992-2.122,3.951-4.328,5.822-6.557a.149.149,0,1,1,.229.192c-1.875,2.234-3.838,4.445-5.834,6.57a.145.145,0,0,1-.109.047" transform="translate(-8.499 -4.439)"/>
              <path id="Trazado_218078" data-name="Trazado 218078" d="M100.392,57.642a.15.15,0,0,1-.111-.25c1.011-1.12,2.023-2.27,3.01-3.417a.149.149,0,0,1,.226.2c-.988,1.149-2,2.3-3.014,3.423a.15.15,0,0,1-.111.049" transform="translate(-8.794 -4.731)"/>
              <path id="Trazado_218079" data-name="Trazado 218079" d="M94.435,75.533H63.019a.794.794,0,1,1,0-1.587H94.435a.794.794,0,1,1,0,1.587" transform="translate(-5.459 -6.487)"/>
              <path id="Trazado_218080" data-name="Trazado 218080" d="M94.435,84.972H63.019a.794.794,0,1,1,0-1.587H94.435a.794.794,0,1,1,0,1.587" transform="translate(-5.459 -7.315)"/>
              <path id="Trazado_218081" data-name="Trazado 218081" d="M46.966,75.533H15.549a.794.794,0,0,1,0-1.587H46.966a.794.794,0,1,1,0,1.587" transform="translate(-1.295 -6.487)"/>
              <path id="Trazado_218082" data-name="Trazado 218082" d="M46.966,84.972H15.549a.794.794,0,0,1,0-1.587H46.966a.794.794,0,1,1,0,1.587" transform="translate(-1.295 -7.315)"/>
            </g>
          </g>
        </g>
      </g>
    </g>
  </g>
</svg>
