<svg xmlns="http://www.w3.org/2000/svg" xmlns:xlink="http://www.w3.org/1999/xlink" width="190" height="125" viewBox="0 0 190 125">
  <defs>
    <clipPath id="clip-path">
      <rect id="Rectángulo_56162" data-name="Rectángulo 56162" width="126.48" height="119.435" fill="none"/>
    </clipPath>
    <clipPath id="clip-path-3">
      <rect id="Rectángulo_56156" data-name="Rectángulo 56156" width="88.866" height="72.833" fill="none"/>
    </clipPath>
  </defs>
  <g id="Grupo_175472" data-name="Grupo 175472" transform="translate(-7305 6780)">
    <rect id="Rectángulo_56095" data-name="Rectángulo 56095" width="190" height="124" transform="translate(7305 -6779)" fill="none"/>
    <g id="Grupo_175385" data-name="Grupo 175385" transform="translate(7337 -6780)">
      <g id="Grupo_175384" data-name="Grupo 175384" clip-path="url(#clip-path)">
        <g id="Grupo_175383" data-name="Grupo 175383">
          <g id="Grupo_175382" data-name="Grupo 175382" clip-path="url(#clip-path)">
            <path id="Trazado_217822" data-name="Trazado 217822" d="M39.914,23h66.045a22.366,22.366,0,0,1,22.366,22.366V75.8a22.371,22.371,0,0,1-16.3,21.528l4.568,24.752L95.972,98.169H39.914A22.366,22.366,0,0,1,17.548,75.8V45.365A22.366,22.366,0,0,1,39.914,23" transform="translate(-2.586 -3.389)" fill="#fff"/>
            <path id="Trazado_217823" data-name="Trazado 217823" d="M116.461,122.7a.741.741,0,0,1-.562-.258L95.5,98.782H39.786A23.135,23.135,0,0,1,16.678,75.675V45.237A23.134,23.134,0,0,1,39.786,22.129h66.045a23.134,23.134,0,0,1,23.108,23.108V75.675a23.186,23.186,0,0,1-16.2,22.049l4.447,24.1a.743.743,0,0,1-.409.8.733.733,0,0,1-.32.073M39.786,23.613A21.648,21.648,0,0,0,18.162,45.237V75.675A21.648,21.648,0,0,0,39.786,97.3H95.843a.739.739,0,0,1,.561.257L115.234,119.4l-4.071-22.058a.742.742,0,0,1,.529-.849,21.693,21.693,0,0,0,15.763-20.813V45.237a21.649,21.649,0,0,0-21.624-21.624Z" transform="translate(-2.457 -3.261)"/>
            <path id="Trazado_217824" data-name="Trazado 217824" d="M38.335,106.237a.247.247,0,0,1-.175-.422l4.9-4.9a.247.247,0,1,1,.35.35l-4.9,4.9a.246.246,0,0,1-.175.072" transform="translate(-5.612 -14.859)"/>
            <path id="Trazado_217825" data-name="Trazado 217825" d="M45.585,106.237a.247.247,0,0,1-.175-.422l4.9-4.9a.247.247,0,1,1,.35.35l-4.9,4.9a.246.246,0,0,1-.175.072" transform="translate(-6.68 -14.859)"/>
            <path id="Trazado_217826" data-name="Trazado 217826" d="M52.545,106.237a.247.247,0,0,1-.175-.422l4.9-4.9a.247.247,0,1,1,.35.35l-4.9,4.9a.246.246,0,0,1-.175.072" transform="translate(-7.706 -14.859)"/>
            <path id="Trazado_217827" data-name="Trazado 217827" d="M59.592,106.237a.247.247,0,0,1-.175-.422l4.9-4.9a.247.247,0,1,1,.35.35l-4.9,4.9a.246.246,0,0,1-.175.072" transform="translate(-8.744 -14.859)"/>
            <path id="Trazado_217828" data-name="Trazado 217828" d="M65.787,106.237a.247.247,0,0,1-.175-.422l4.9-4.9a.247.247,0,1,1,.35.35l-4.9,4.9a.246.246,0,0,1-.175.072" transform="translate(-9.657 -14.859)"/>
            <path id="Trazado_217829" data-name="Trazado 217829" d="M73.037,106.237a.247.247,0,0,1-.175-.422l4.9-4.9a.247.247,0,1,1,.35.35l-4.9,4.9a.246.246,0,0,1-.175.072" transform="translate(-10.725 -14.859)"/>
            <path id="Trazado_217830" data-name="Trazado 217830" d="M80,106.237a.247.247,0,0,1-.175-.422l4.9-4.9a.247.247,0,1,1,.35.35l-4.9,4.9a.246.246,0,0,1-.175.072" transform="translate(-11.751 -14.859)"/>
            <path id="Trazado_217831" data-name="Trazado 217831" d="M87.044,106.237a.247.247,0,0,1-.175-.422l4.9-4.9a.247.247,0,1,1,.35.35l-4.9,4.9a.246.246,0,0,1-.175.072" transform="translate(-12.789 -14.859)"/>
            <path id="Trazado_217832" data-name="Trazado 217832" d="M94.787,106.237a.247.247,0,0,1-.175-.422l4.9-4.9a.247.247,0,1,1,.35.35l-4.9,4.9a.246.246,0,0,1-.175.072" transform="translate(-13.93 -14.859)"/>
            <path id="Trazado_217833" data-name="Trazado 217833" d="M102.037,106.237a.247.247,0,0,1-.175-.422l4.9-4.9a.247.247,0,1,1,.35.35l-4.9,4.9a.246.246,0,0,1-.175.072" transform="translate(-14.998 -14.859)"/>
            <path id="Trazado_217834" data-name="Trazado 217834" d="M108.993,106.089a.247.247,0,0,1-.175-.422l5.77-5.77a.247.247,0,1,1,.35.35l-5.77,5.77a.246.246,0,0,1-.175.072" transform="translate(-16.023 -14.709)"/>
            <path id="Trazado_217835" data-name="Trazado 217835" d="M131.366,82.734a.247.247,0,0,1-.175-.422L142.644,70.86a.247.247,0,0,1,.35.35L131.541,82.662a.246.246,0,0,1-.175.072" transform="translate(-19.32 -10.43)"/>
            <path id="Trazado_217836" data-name="Trazado 217836" d="M134.032,72.835a.247.247,0,0,1-.175-.422l9.18-9.18a.247.247,0,1,1,.35.35l-9.18,9.18a.246.246,0,0,1-.175.072" transform="translate(-19.713 -9.307)"/>
            <path id="Trazado_217837" data-name="Trazado 217837" d="M134.032,65.381a.247.247,0,0,1-.175-.422l9.18-9.18a.247.247,0,1,1,.35.35l-9.18,9.18a.246.246,0,0,1-.175.072" transform="translate(-19.713 -8.208)"/>
            <path id="Trazado_217838" data-name="Trazado 217838" d="M133.5,59.045a.247.247,0,0,1-.175-.422l9.18-9.18a.247.247,0,1,1,.35.35l-9.18,9.18a.246.246,0,0,1-.175.072" transform="translate(-19.634 -7.275)"/>
            <path id="Trazado_217839" data-name="Trazado 217839" d="M133.5,52.252a.247.247,0,0,1-.175-.421l7.693-7.693a.246.246,0,0,1,.35,0,.249.249,0,0,1,0,.35l-7.693,7.692a.246.246,0,0,1-.175.072" transform="translate(-19.634 -6.493)"/>
            <path id="Trazado_217840" data-name="Trazado 217840" d="M133.516,45.3a.247.247,0,0,1-.175-.422l5.945-5.945a.247.247,0,1,1,.35.35l-5.945,5.945a.246.246,0,0,1-.175.072" transform="translate(-19.637 -5.726)"/>
            <path id="Trazado_217841" data-name="Trazado 217841" d="M134.023,38.778a.247.247,0,0,1-.175-.422l3.41-3.41a.247.247,0,0,1,.35.35l-3.41,3.41a.246.246,0,0,1-.175.072" transform="translate(-19.712 -5.139)"/>
            <path id="Trazado_217842" data-name="Trazado 217842" d="M133.161,32.419a.247.247,0,0,1-.175-.422l1.486-1.486a.247.247,0,0,1,.35.35l-1.487,1.486a.244.244,0,0,1-.174.072" transform="translate(-19.584 -4.485)"/>
            <path id="Trazado_217843" data-name="Trazado 217843" d="M113.305,105.7a.247.247,0,0,1-.175-.422l26.315-26.315a.247.247,0,0,1,.35.35L113.48,105.632a.246.246,0,0,1-.175.072" transform="translate(-16.659 -11.625)"/>
            <path id="Trazado_217844" data-name="Trazado 217844" d="M116.775,110.084a.247.247,0,0,1-.175-.422l22.555-22.555a.247.247,0,0,1,.35.35L116.95,110.011a.246.246,0,0,1-.175.072" transform="translate(-17.17 -12.824)"/>
            <path id="Trazado_217845" data-name="Trazado 217845" d="M132.644,103.393a.247.247,0,0,1-.175-.422l7.431-7.431a.247.247,0,0,1,.35.35l-7.431,7.431a.246.246,0,0,1-.175.072" transform="translate(-19.508 -14.067)"/>
            <path id="Trazado_217846" data-name="Trazado 217846" d="M119.955,117.753a.247.247,0,0,1-.175-.422l4.633-4.633a.247.247,0,1,1,.35.35l-4.633,4.633a.246.246,0,0,1-.175.072" transform="translate(-17.639 -16.595)"/>
            <path id="Trazado_217847" data-name="Trazado 217847" d="M123.16,122.048a.247.247,0,0,1-.175-.422l3.06-3.059a.247.247,0,0,1,.35.35l-3.06,3.059a.246.246,0,0,1-.175.072" transform="translate(-18.111 -17.46)"/>
            <path id="Trazado_217848" data-name="Trazado 217848" d="M126.2,126.644a.243.243,0,0,1-.175-.072.248.248,0,0,1,0-.35l1.748-1.749a.247.247,0,1,1,.35.35l-1.749,1.749a.245.245,0,0,1-.174.072" transform="translate(-18.558 -18.33)"/>
            <g id="Grupo_175378" data-name="Grupo 175378" transform="translate(26.843 21.005)" opacity="0.129">
              <g id="Grupo_175377" data-name="Grupo 175377">
                <g id="Grupo_175376" data-name="Grupo 175376" clip-path="url(#clip-path-3)">
                  <path id="Trazado_217849" data-name="Trazado 217849" d="M120.294,47.928c-.16-4.11-.725-8.2-.653-12.321a20.275,20.275,0,0,0-1.385-8.816c-.625-1.218-1.027-2.291-2.452-2.144a1.673,1.673,0,0,0-1.418,1.223,2.015,2.015,0,0,0,.011.93l0-.011,0,.012a1.476,1.476,0,0,0,.159.379,10.052,10.052,0,0,0,.494,1.043l.005.01a13.423,13.423,0,0,1,.767,2.912c.28,2.214.113,4.453.179,6.679.109,2.908.328,5.811.468,8.717.165,5.067-.149,10.136-.138,15.206a46.741,46.741,0,0,1-.406,8.348c-.03.142-.068.281-.1.423-.026.074-.049.15-.077.223a30.371,30.371,0,0,1-1.02,2.9c-1.536,4-7.057,11.015-10.717,12.149a22.1,22.1,0,0,1-9.365,1.082c-3.433.028-6.862-.085-10.294-.086-3.525-.113-7.046.122-10.569.016-4.112-.2-8.23.1-12.346-.011-6.462-.089-13.129-.424-17.933.133-2.442.193-2.814-.315-4.418.359C36.525,89.193,34.65,91.9,32.11,93.85a2.115,2.115,0,0,0,2.99,2.99c1.832-1.467,4.413-4.464,5.669-5.663.568.059,1.141.083,1.71.129,6.2-.052,12.392-.38,18.592-.422,6.545-.038,13.089-.079,19.631-.261,4.767-.031,9.539.026,14.3-.234a32.63,32.63,0,0,0,6-.364,19.218,19.218,0,0,0,5.492-1.575,16.051,16.051,0,0,0,3.617-2.527,32.307,32.307,0,0,0,5.334-6.18,25,25,0,0,0,2.727-5.15,17.06,17.06,0,0,0,1.429-4.7,41.685,41.685,0,0,0,.57-4.438c-.049-2.308-.02-4.615,0-6.924-.067-3.538.307-7.07.116-10.606" transform="translate(-31.482 -24.635)"/>
                </g>
              </g>
            </g>
            <path id="Trazado_217850" data-name="Trazado 217850" d="M89.281,10.158H23.236A22.366,22.366,0,0,0,.87,32.524V62.962a22.371,22.371,0,0,0,16.3,21.528l-4.568,24.752L33.223,85.328H89.281a22.366,22.366,0,0,0,22.366-22.366V32.524A22.366,22.366,0,0,0,89.281,10.158" transform="translate(-0.128 -1.497)" fill="#fff"/>
            <path id="Trazado_217851" data-name="Trazado 217851" d="M12.477,109.855a.733.733,0,0,1-.32-.073.743.743,0,0,1-.409-.8l4.447-24.1A23.185,23.185,0,0,1,0,62.834V32.4A23.134,23.134,0,0,1,23.108,9.288H89.152A23.134,23.134,0,0,1,112.26,32.4V62.834A23.135,23.135,0,0,1,89.152,85.941H33.435L13.04,109.6a.744.744,0,0,1-.563.258M23.108,10.772A21.649,21.649,0,0,0,1.484,32.4V62.834A21.692,21.692,0,0,0,17.247,83.647a.742.742,0,0,1,.529.849L13.7,106.554,32.533,84.715a.741.741,0,0,1,.562-.258H89.152a21.649,21.649,0,0,0,21.625-21.624V32.4A21.649,21.649,0,0,0,89.152,10.772Z" transform="translate(0 -1.369)"/>
            <path id="Trazado_217852" data-name="Trazado 217852" d="M38.335,106.237a.247.247,0,0,1-.175-.422l4.9-4.9a.247.247,0,1,1,.35.35l-4.9,4.9a.246.246,0,0,1-.175.072" transform="translate(-5.612 -14.859)"/>
            <path id="Trazado_217853" data-name="Trazado 217853" d="M45.585,106.237a.247.247,0,0,1-.175-.422l4.9-4.9a.247.247,0,1,1,.35.35l-4.9,4.9a.246.246,0,0,1-.175.072" transform="translate(-6.68 -14.859)"/>
            <path id="Trazado_217854" data-name="Trazado 217854" d="M52.545,106.237a.247.247,0,0,1-.175-.422l4.9-4.9a.247.247,0,1,1,.35.35l-4.9,4.9a.246.246,0,0,1-.175.072" transform="translate(-7.706 -14.859)"/>
            <path id="Trazado_217855" data-name="Trazado 217855" d="M59.592,106.237a.247.247,0,0,1-.175-.422l4.9-4.9a.247.247,0,1,1,.35.35l-4.9,4.9a.246.246,0,0,1-.175.072" transform="translate(-8.744 -14.859)"/>
            <path id="Trazado_217856" data-name="Trazado 217856" d="M65.787,106.237a.247.247,0,0,1-.175-.422l4.9-4.9a.247.247,0,1,1,.35.35l-4.9,4.9a.246.246,0,0,1-.175.072" transform="translate(-9.657 -14.859)"/>
            <path id="Trazado_217857" data-name="Trazado 217857" d="M73.037,106.237a.247.247,0,0,1-.175-.422l4.9-4.9a.247.247,0,1,1,.35.35l-4.9,4.9a.246.246,0,0,1-.175.072" transform="translate(-10.725 -14.859)"/>
            <path id="Trazado_217858" data-name="Trazado 217858" d="M80,106.237a.247.247,0,0,1-.175-.422l4.9-4.9a.247.247,0,1,1,.35.35l-4.9,4.9a.246.246,0,0,1-.175.072" transform="translate(-11.751 -14.859)"/>
            <path id="Trazado_217859" data-name="Trazado 217859" d="M87.044,106.237a.247.247,0,0,1-.175-.422l4.9-4.9a.247.247,0,1,1,.35.35l-4.9,4.9a.246.246,0,0,1-.175.072" transform="translate(-12.789 -14.859)"/>
            <path id="Trazado_217860" data-name="Trazado 217860" d="M94.787,106.237a.247.247,0,0,1-.175-.422l4.9-4.9a.247.247,0,1,1,.35.35l-4.9,4.9a.246.246,0,0,1-.175.072" transform="translate(-13.93 -14.859)"/>
            <path id="Trazado_217861" data-name="Trazado 217861" d="M102.037,106.237a.247.247,0,0,1-.175-.422l4.9-4.9a.247.247,0,1,1,.35.35l-4.9,4.9a.246.246,0,0,1-.175.072" transform="translate(-14.998 -14.859)"/>
            <path id="Trazado_217862" data-name="Trazado 217862" d="M108.993,106.089a.247.247,0,0,1-.175-.422l5.77-5.77a.247.247,0,1,1,.35.35l-5.77,5.77a.246.246,0,0,1-.175.072" transform="translate(-16.023 -14.709)"/>
            <path id="Trazado_217863" data-name="Trazado 217863" d="M131.366,82.734a.247.247,0,0,1-.175-.422L142.644,70.86a.247.247,0,0,1,.35.35L131.541,82.662a.246.246,0,0,1-.175.072" transform="translate(-19.32 -10.43)"/>
            <path id="Trazado_217864" data-name="Trazado 217864" d="M134.032,72.835a.247.247,0,0,1-.175-.422l9.18-9.18a.247.247,0,1,1,.35.35l-9.18,9.18a.246.246,0,0,1-.175.072" transform="translate(-19.713 -9.307)"/>
            <path id="Trazado_217865" data-name="Trazado 217865" d="M134.032,65.381a.247.247,0,0,1-.175-.422l9.18-9.18a.247.247,0,1,1,.35.35l-9.18,9.18a.246.246,0,0,1-.175.072" transform="translate(-19.713 -8.208)"/>
            <path id="Trazado_217866" data-name="Trazado 217866" d="M133.5,59.045a.247.247,0,0,1-.175-.422l9.18-9.18a.247.247,0,1,1,.35.35l-9.18,9.18a.246.246,0,0,1-.175.072" transform="translate(-19.634 -7.275)"/>
            <path id="Trazado_217867" data-name="Trazado 217867" d="M133.5,52.252a.247.247,0,0,1-.175-.421l7.693-7.693a.246.246,0,0,1,.35,0,.249.249,0,0,1,0,.35l-7.693,7.692a.246.246,0,0,1-.175.072" transform="translate(-19.634 -6.493)"/>
            <path id="Trazado_217868" data-name="Trazado 217868" d="M133.516,45.3a.247.247,0,0,1-.175-.422l5.945-5.945a.247.247,0,1,1,.35.35l-5.945,5.945a.246.246,0,0,1-.175.072" transform="translate(-19.637 -5.726)"/>
            <path id="Trazado_217869" data-name="Trazado 217869" d="M134.023,38.778a.247.247,0,0,1-.175-.422l3.41-3.41a.247.247,0,0,1,.35.35l-3.41,3.41a.246.246,0,0,1-.175.072" transform="translate(-19.712 -5.139)"/>
            <path id="Trazado_217870" data-name="Trazado 217870" d="M133.161,32.419a.247.247,0,0,1-.175-.422l1.486-1.486a.247.247,0,0,1,.35.35l-1.487,1.486a.244.244,0,0,1-.174.072" transform="translate(-19.584 -4.485)"/>
            <path id="Trazado_217871" data-name="Trazado 217871" d="M113.305,105.7a.247.247,0,0,1-.175-.422l26.315-26.315a.247.247,0,0,1,.35.35L113.48,105.632a.246.246,0,0,1-.175.072" transform="translate(-16.659 -11.625)"/>
            <path id="Trazado_217872" data-name="Trazado 217872" d="M116.775,110.084a.247.247,0,0,1-.175-.422l22.555-22.555a.247.247,0,0,1,.35.35L116.95,110.011a.246.246,0,0,1-.175.072" transform="translate(-17.17 -12.824)"/>
            <path id="Trazado_217873" data-name="Trazado 217873" d="M132.644,103.393a.247.247,0,0,1-.175-.422l7.431-7.431a.247.247,0,0,1,.35.35l-7.431,7.431a.246.246,0,0,1-.175.072" transform="translate(-19.508 -14.067)"/>
            <path id="Trazado_217874" data-name="Trazado 217874" d="M119.955,117.753a.247.247,0,0,1-.175-.422l4.633-4.633a.247.247,0,1,1,.35.35l-4.633,4.633a.246.246,0,0,1-.175.072" transform="translate(-17.639 -16.595)"/>
            <path id="Trazado_217875" data-name="Trazado 217875" d="M123.16,122.048a.247.247,0,0,1-.175-.422l3.06-3.059a.247.247,0,0,1,.35.35l-3.06,3.059a.246.246,0,0,1-.175.072" transform="translate(-18.111 -17.46)"/>
            <path id="Trazado_217876" data-name="Trazado 217876" d="M126.2,126.644a.243.243,0,0,1-.175-.072.248.248,0,0,1,0-.35l1.748-1.749a.247.247,0,1,1,.35.35l-1.749,1.749a.245.245,0,0,1-.174.072" transform="translate(-18.558 -18.33)"/>
            <g id="Grupo_175381" data-name="Grupo 175381" transform="translate(26.843 21.005)" opacity="0.129">
              <g id="Grupo_175380" data-name="Grupo 175380">
                <g id="Grupo_175379" data-name="Grupo 175379" clip-path="url(#clip-path-3)">
                  <path id="Trazado_217877" data-name="Trazado 217877" d="M120.294,47.928c-.16-4.11-.725-8.2-.653-12.321a20.275,20.275,0,0,0-1.385-8.816c-.625-1.218-1.027-2.291-2.452-2.144a1.673,1.673,0,0,0-1.418,1.223,2.015,2.015,0,0,0,.011.93l0-.011,0,.012a1.476,1.476,0,0,0,.159.379,10.052,10.052,0,0,0,.494,1.043l.005.01a13.423,13.423,0,0,1,.767,2.912c.28,2.214.113,4.453.179,6.679.109,2.908.328,5.811.468,8.717.165,5.067-.149,10.136-.138,15.206a46.741,46.741,0,0,1-.406,8.348c-.03.142-.068.281-.1.423-.026.074-.049.15-.077.223a30.371,30.371,0,0,1-1.02,2.9c-1.536,4-7.057,11.015-10.717,12.149a22.1,22.1,0,0,1-9.365,1.082c-3.433.028-6.862-.085-10.294-.086-3.525-.113-7.046.122-10.569.016-4.112-.2-8.23.1-12.346-.011-6.462-.089-13.129-.424-17.933.133-2.442.193-2.814-.315-4.418.359C36.525,89.193,34.65,91.9,32.11,93.85a2.115,2.115,0,0,0,2.99,2.99c1.832-1.467,4.413-4.464,5.669-5.663.568.059,1.141.083,1.71.129,6.2-.052,12.392-.38,18.592-.422,6.545-.038,13.089-.079,19.631-.261,4.767-.031,9.539.026,14.3-.234a32.63,32.63,0,0,0,6-.364,19.218,19.218,0,0,0,5.492-1.575,16.051,16.051,0,0,0,3.617-2.527,32.307,32.307,0,0,0,5.334-6.18,25,25,0,0,0,2.727-5.15,17.06,17.06,0,0,0,1.429-4.7,41.685,41.685,0,0,0,.57-4.438c-.049-2.308-.02-4.615,0-6.924-.067-3.538.307-7.07.116-10.606" transform="translate(-31.482 -24.635)"/>
                </g>
              </g>
            </g>
            <rect id="Rectángulo_56158" data-name="Rectángulo 56158" width="46.731" height="5.836" transform="translate(20.682 28.715)" fill="#acd4f7"/>
            <path id="Trazado_217878" data-name="Trazado 217878" d="M70.89,40.127H24.159a.671.671,0,0,1-.562-.742V33.549a.671.671,0,0,1,.562-.742H70.89a.671.671,0,0,1,.562.742v5.836a.671.671,0,0,1-.562.742M24.721,38.643H70.328V34.291H24.721Z" transform="translate(-3.477 -4.834)"/>
            <rect id="Rectángulo_56159" data-name="Rectángulo 56159" width="37.91" height="5.836" transform="translate(20.58 42.633)" fill="#fff"/>
            <path id="Trazado_217879" data-name="Trazado 217879" d="M61.919,56.449H24.009a.742.742,0,0,1-.742-.742V49.872a.742.742,0,0,1,.742-.742h37.91a.742.742,0,0,1,.741.742v5.836a.741.741,0,0,1-.741.742M24.751,54.966H61.177V50.614H24.751Z" transform="translate(-3.428 -7.239)"/>
            <rect id="Rectángulo_56160" data-name="Rectángulo 56160" width="61.704" height="5.836" transform="translate(20.58 56.55)" fill="#acd4f7"/>
            <path id="Trazado_217880" data-name="Trazado 217880" d="M85.713,72.772h-61.7a.742.742,0,0,1-.742-.742V66.195a.742.742,0,0,1,.742-.742h61.7a.742.742,0,0,1,.742.742V72.03a.742.742,0,0,1-.742.742M24.751,71.289h60.22V66.937H24.751Z" transform="translate(-3.428 -9.644)"/>
            <path id="Trazado_217881" data-name="Trazado 217881" d="M111.355.673c-11.934,0-21.607,10.049-21.607,22.444a22.9,22.9,0,0,0,4.444,13.63L91.546,47.609l9.065-5.02a20.886,20.886,0,0,0,10.743,2.974c11.934,0,21.607-10.049,21.607-22.445S123.289.673,111.355.673" transform="translate(-13.224 -0.099)" fill="#fff"/>
            <path id="Trazado_217882" data-name="Trazado 217882" d="M91.447,48.082a.574.574,0,0,1-.558-.709l2.583-10.6a23.375,23.375,0,0,1-4.4-13.752C89.075,10.325,99.025,0,111.256,0s22.181,10.326,22.181,23.019-9.95,23.018-22.181,23.018A21.551,21.551,0,0,1,100.5,43.148L91.725,48.01a.577.577,0,0,1-.278.072M111.256,1.147c-11.6,0-21.033,9.811-21.033,21.871a22.232,22.232,0,0,0,4.332,13.289.575.575,0,0,1,.095.477l-2.335,9.59,7.92-4.387a.574.574,0,0,1,.572.009,20.407,20.407,0,0,0,10.449,2.893c11.6,0,21.033-9.811,21.033-21.871S122.854,1.147,111.256,1.147" transform="translate(-13.125 0)"/>
            <path id="Trazado_217883" data-name="Trazado 217883" d="M113.178,11.682l2.83,9.157h9.158l-7.409,5.66,2.83,9.157L113.178,30l-7.409,5.66L108.6,26.5l-7.409-5.66h9.157Z" transform="translate(-14.91 -1.721)" fill="#acd4f7"/>
            <path id="Trazado_217884" data-name="Trazado 217884" d="M105.67,36.132a.574.574,0,0,1-.548-.743l2.712-8.776L100.743,21.2a.574.574,0,0,1,.348-1.03h8.735l2.7-8.753a.574.574,0,0,1,1.1,0l2.7,8.752h8.735a.574.574,0,0,1,.349,1.03l-7.091,5.416,2.711,8.776a.574.574,0,0,1-.9.625l-7.061-5.394-7.06,5.394a.579.579,0,0,1-.349.118m-2.883-14.817,6.061,4.63a.573.573,0,0,1,.2.625l-2.3,7.444,5.983-4.571a.574.574,0,0,1,.7,0l5.982,4.571-2.3-7.444a.574.574,0,0,1,.2-.625l6.062-4.63h-7.462a.574.574,0,0,1-.548-.4l-2.282-7.385L110.8,20.91a.574.574,0,0,1-.548.4Z" transform="translate(-14.811 -1.622)"/>
          </g>
        </g>
      </g>
    </g>
  </g>
</svg>
