<svg xmlns="http://www.w3.org/2000/svg" xmlns:xlink="http://www.w3.org/1999/xlink" width="190" height="125" viewBox="0 0 190 125">
  <defs>
    <clipPath id="clip-path">
      <rect id="Rectángulo_56202" data-name="Rectángulo 56202" width="138.538" height="112.32" fill="none"/>
    </clipPath>
    <clipPath id="clip-path-3">
      <rect id="Rectángulo_56194" data-name="Rectángulo 56194" width="64.731" height="4.765" fill="none"/>
    </clipPath>
    <clipPath id="clip-path-4">
      <rect id="Rectángulo_56195" data-name="Rectángulo 56195" width="7.016" height="3.896" fill="none"/>
    </clipPath>
    <clipPath id="clip-path-5">
      <rect id="Rectángulo_56196" data-name="Rectángulo 56196" width="7.419" height="3.749" fill="none"/>
    </clipPath>
    <clipPath id="clip-path-6">
      <rect id="Rectángulo_56197" data-name="Rectángulo 56197" width="7.49" height="3.67" fill="none"/>
    </clipPath>
    <clipPath id="clip-path-7">
      <rect id="Rectángulo_56198" data-name="Rectángulo 56198" width="26.323" height="8.451" fill="none"/>
    </clipPath>
  </defs>
  <g id="Grupo_175476" data-name="Grupo 175476" transform="translate(-7305 5337)">
    <rect id="Rectángulo_56099" data-name="Rectángulo 56099" width="190" height="124" transform="translate(7305 -5336)" fill="none"/>
    <path id="Trazado_218041" data-name="Trazado 218041" d="M7383.773-5323.961H7330.8v74.2h52.971" transform="translate(0 2.789)" fill="#fff" stroke="#12263f" stroke-width="1"/>
    <g id="Grupo_175454" data-name="Grupo 175454" transform="translate(7337 -5337)">
      <g id="Grupo_175453" data-name="Grupo 175453" clip-path="url(#clip-path)">
        <g id="Grupo_175452" data-name="Grupo 175452">
          <g id="Grupo_175451" data-name="Grupo 175451" clip-path="url(#clip-path)">
            <path id="Trazado_218012" data-name="Trazado 218012" d="M54.346,99.516V13.062A12.192,12.192,0,0,1,66.537.87h39.337a12.192,12.192,0,0,1,12.192,12.192V99.516a12.192,12.192,0,0,1-12.192,12.191H66.537A12.191,12.191,0,0,1,54.346,99.516" transform="translate(-8.025 -0.128)" fill="#acd4f7"/>
            <path id="Trazado_218013" data-name="Trazado 218013" d="M105.832,112.32H66.322A12.861,12.861,0,0,1,53.475,99.473V12.847A12.861,12.861,0,0,1,66.322,0h39.509a12.861,12.861,0,0,1,12.847,12.847V99.473a12.861,12.861,0,0,1-12.847,12.846M66.322,1.483A11.377,11.377,0,0,0,54.958,12.847V99.473a11.377,11.377,0,0,0,11.364,11.363h39.509A11.376,11.376,0,0,0,117.2,99.473V12.847A11.376,11.376,0,0,0,105.832,1.483Z" transform="translate(-7.896)"/>
            <rect id="Rectángulo_56193" data-name="Rectángulo 56193" width="63.72" height="83.582" transform="translate(46.321 12.529)" fill="#fff"/>
            <path id="Trazado_218014" data-name="Trazado 218014" d="M117.937,98.895H54.218a.742.742,0,0,1-.742-.742V14.572a.741.741,0,0,1,.742-.742h63.719a.741.741,0,0,1,.742.742V98.153a.742.742,0,0,1-.742.742M54.959,97.412H117.2v-82.1H54.959Z" transform="translate(-7.896 -2.042)"/>
            <path id="Trazado_218015" data-name="Trazado 218015" d="M97.1,120.422H85.623a.742.742,0,1,1,0-1.483H97.1a.742.742,0,0,1,0,1.483" transform="translate(-12.533 -17.562)"/>
            <g id="Grupo_175438" data-name="Grupo 175438" transform="translate(45.843 12.125)" opacity="0.129">
              <g id="Grupo_175437" data-name="Grupo 175437">
                <g id="Grupo_175436" data-name="Grupo 175436" clip-path="url(#clip-path-3)">
                  <path id="Trazado_218016" data-name="Trazado 218016" d="M113.717,14.779c-2.174-.061-4.346-.161-6.522-.136q-8.777-.089-17.555.029c-4.6.032-9.21.223-13.809-.088-5.645-.174-11.288-.508-16.939-.284-.792.014-1.585.009-2.375-.03a2.4,2.4,0,0,0-1.424.146,2.159,2.159,0,0,0,.833,4.14c2.755.2,5.52-.018,8.279.044,3.29-.016,6.572.258,9.858.326,12.274.074,24.554.124,36.827-.092,1.631.026,3.261-.008,4.891-.04,1.35.152,2.72-.483,2.735-2.006-.164-2.618-2.979-1.912-4.8-2.01" transform="translate(-53.785 -14.226)"/>
                </g>
              </g>
            </g>
            <path id="Trazado_218017" data-name="Trazado 218017" d="M124.059,30.3c-15.426,0-27.931,12.99-27.931,29.014a29.61,29.61,0,0,0,5.745,17.619L98.452,90.97l11.719-6.49a27,27,0,0,0,13.888,3.845c15.426,0,27.931-12.991,27.931-29.015S139.485,30.3,124.059,30.3" transform="translate(-14.194 -4.474)" fill="#fff"/>
            <path id="Trazado_218018" data-name="Trazado 218018" d="M98.324,91.583a.742.742,0,0,1-.72-.918l3.339-13.706a30.22,30.22,0,0,1-5.684-17.777c0-16.407,12.863-29.755,28.673-29.755S152.6,42.776,152.6,59.182s-12.863,29.756-28.673,29.756a27.854,27.854,0,0,1-13.9-3.733L98.684,91.49a.751.751,0,0,1-.36.093M123.931,30.91c-14.993,0-27.19,12.683-27.19,28.272a28.741,28.741,0,0,0,5.6,17.179.741.741,0,0,1,.124.615l-3.02,12.4,10.239-5.67a.741.741,0,0,1,.739.012,26.377,26.377,0,0,0,13.508,3.74c14.993,0,27.19-12.683,27.19-28.273s-12.2-28.272-27.19-28.272" transform="translate(-14.066 -4.345)"/>
            <path id="Trazado_218019" data-name="Trazado 218019" d="M73.638,27.435a2.618,2.618,0,1,1,2.618,2.618,2.619,2.619,0,0,1-2.618-2.618" transform="translate(-10.873 -3.664)" fill="#fff"/>
            <path id="Trazado_218020" data-name="Trazado 218020" d="M76.128,30.666a3.36,3.36,0,1,1,3.36-3.359,3.364,3.364,0,0,1-3.36,3.359m0-5.236A1.876,1.876,0,1,0,78,27.307a1.879,1.879,0,0,0-1.877-1.877" transform="translate(-10.745 -3.536)"/>
            <path id="Trazado_218021" data-name="Trazado 218021" d="M88.512,27.435a2.618,2.618,0,1,1,2.618,2.618,2.619,2.619,0,0,1-2.618-2.618" transform="translate(-13.069 -3.664)" fill="#fff"/>
            <path id="Trazado_218022" data-name="Trazado 218022" d="M91,30.666a3.36,3.36,0,1,1,3.36-3.359A3.364,3.364,0,0,1,91,30.666m0-5.236a1.876,1.876,0,1,0,1.877,1.877A1.879,1.879,0,0,0,91,25.43" transform="translate(-12.941 -3.536)"/>
            <path id="Trazado_218023" data-name="Trazado 218023" d="M103.386,27.435A2.618,2.618,0,1,1,106,30.054a2.619,2.619,0,0,1-2.618-2.618" transform="translate(-15.266 -3.664)" fill="#fff"/>
            <path id="Trazado_218024" data-name="Trazado 218024" d="M105.875,30.666a3.36,3.36,0,1,1,3.36-3.359,3.364,3.364,0,0,1-3.36,3.359m0-5.236a1.876,1.876,0,1,0,1.877,1.877,1.879,1.879,0,0,0-1.877-1.877" transform="translate(-15.137 -3.536)"/>
            <g id="Grupo_175441" data-name="Grupo 175441" transform="translate(61.927 25.115)" opacity="0.129">
              <g id="Grupo_175440" data-name="Grupo 175440">
                <g id="Grupo_175439" data-name="Grupo 175439" clip-path="url(#clip-path-4)">
                  <path id="Trazado_218025" data-name="Trazado 218025" d="M79.552,30.375a1.519,1.519,0,0,0-2.573-.348l-.014.011a2.5,2.5,0,0,1-.288.184l0,0c-.122.04-.246.076-.372.1l-.069,0c-.051,0-.1-.005-.153-.009l-.18-.039c-.136-.038-.242-.072-.305-.095-.076-.041-.156-.086-.228-.13a1.446,1.446,0,0,0-.326-.252A1.546,1.546,0,0,0,72.714,31.5c.361,1.07,1.631,1.538,2.642,1.777,1.559.444,5-.9,4.2-2.9" transform="translate(-72.655 -29.466)"/>
                </g>
              </g>
            </g>
            <g id="Grupo_175444" data-name="Grupo 175444" transform="translate(74.547 25.026)" opacity="0.129">
              <g id="Grupo_175443" data-name="Grupo 175443">
                <g id="Grupo_175442" data-name="Grupo 175442" clip-path="url(#clip-path-5)">
                  <path id="Trazado_218026" data-name="Trazado 218026" d="M94.758,30.225a1.421,1.421,0,0,0-2.3-.458c-.075.078-.157.148-.238.219l-.078.05a2.289,2.289,0,0,1-1.145.266c-.091,0-.182-.007-.274-.014a2.907,2.907,0,0,1-.29-.084,4.1,4.1,0,0,1-.451-.244l-.061-.04a1.425,1.425,0,0,0-.55-.377,1.376,1.376,0,0,0-1.505,2.234A4.8,4.8,0,0,0,92.632,32.9c1.082-.355,2.711-1.329,2.126-2.674" transform="translate(-87.462 -29.361)"/>
                </g>
              </g>
            </g>
            <g id="Grupo_175447" data-name="Grupo 175447" transform="translate(87.001 24.906)" opacity="0.129">
              <g id="Grupo_175446" data-name="Grupo 175446">
                <g id="Grupo_175445" data-name="Grupo 175445" clip-path="url(#clip-path-6)">
                  <path id="Trazado_218027" data-name="Trazado 218027" d="M109.514,30.482a1.4,1.4,0,0,0-2.262-.627,1.915,1.915,0,0,1-.3.153l-.152.065c-.051.019-.184.066-.343.113-.063.016-.121.029-.175.04a3.285,3.285,0,0,1-.355-.006,2.272,2.272,0,0,1-.883-.291c-.618-.327-1.273-.869-2.01-.663a1.347,1.347,0,0,0-.32,2.44,18.094,18.094,0,0,0,1.693.891,5.616,5.616,0,0,0,2.181.286c1.288-.048,3.312-.792,2.922-2.4" transform="translate(-102.073 -29.221)"/>
                </g>
              </g>
            </g>
            <path id="Trazado_218028" data-name="Trazado 218028" d="M68.066,85.135a.247.247,0,0,1-.171-.426L88.548,64.956a.247.247,0,1,1,.342.357L68.238,85.067a.251.251,0,0,1-.171.068" transform="translate(-10.014 -9.581)"/>
            <path id="Trazado_218029" data-name="Trazado 218029" d="M67.76,94.08a.247.247,0,0,1-.178-.419c6.933-7.21,14.074-14.425,21.223-21.443a.247.247,0,1,1,.347.352C82.005,79.586,74.869,86.8,67.938,94a.247.247,0,0,1-.178.076" transform="translate(-9.969 -10.653)"/>
            <path id="Trazado_218030" data-name="Trazado 218030" d="M75.816,94.889a.247.247,0,0,1-.176-.421l15.591-15.8a.247.247,0,1,1,.351.348l-15.591,15.8a.246.246,0,0,1-.176.073" transform="translate(-11.158 -11.605)"/>
            <path id="Trazado_218031" data-name="Trazado 218031" d="M84.141,96.142a.247.247,0,0,1-.178-.418c3.379-3.509,6.7-7.169,9.862-10.876a.247.247,0,0,1,.376.321c-3.172,3.715-6.5,7.38-9.882,10.9a.247.247,0,0,1-.178.076" transform="translate(-12.388 -12.516)"/>
            <path id="Trazado_218032" data-name="Trazado 218032" d="M92.536,96.941a.247.247,0,0,1-.187-.409l4.128-4.754a.247.247,0,1,1,.373.324l-4.128,4.754a.248.248,0,0,1-.187.085" transform="translate(-13.627 -13.539)"/>
            <g id="Grupo_175450" data-name="Grupo 175450" transform="translate(83.96 80.266)" opacity="0.129">
              <g id="Grupo_175449" data-name="Grupo 175449">
                <g id="Grupo_175448" data-name="Grupo 175448" clip-path="url(#clip-path-7)">
                  <path id="Trazado_218033" data-name="Trazado 218033" d="M123.588,97.724a1.826,1.826,0,0,0-.981.02c-.123.008-.246.011-.369.009a21.465,21.465,0,0,1-5.17-1.289l-.193-.076c-.118-.064-.627-.3-.846-.4a26.63,26.63,0,0,0-2.936-1.053,10.339,10.339,0,0,0-2.454-.764,2.143,2.143,0,0,0-1.111.322c-.266.15-.54.288-.814.424q-3.125,1.469-6.138,3.156a23.24,23.24,0,0,1-2.585,1.286c-.4.2-.9.305-1.145.714a1.582,1.582,0,0,0,1.663,2.484c3.433-1.4,6.685-3.2,10.043-4.771,2.081.984,4.365,1.382,6.488,2.266,1.78.533,3.641,1.277,5.526.969l-.442.059a3.647,3.647,0,0,0,1.872-.24,1.715,1.715,0,0,0-.407-3.117" transform="translate(-98.504 -94.171)"/>
                </g>
              </g>
            </g>
            <rect id="Rectángulo_56199" data-name="Rectángulo 56199" width="22.29" height="19.761" transform="translate(98.72 50.92)" fill="none" stroke="#000" stroke-miterlimit="10" stroke-width="1.5"/>
            <path id="Trazado_218034" data-name="Trazado 218034" d="M118.729,57.189s-.451-12.653,8.667-12.654c10.232,0,8.741,12.654,8.741,12.654" transform="translate(-17.531 -6.576)" fill="none" stroke="#000" stroke-miterlimit="10" stroke-width="1.5"/>
            <path id="Trazado_218035" data-name="Trazado 218035" d="M126.884,69.706s-1.478-2.253.334-3.935c1.738-1.613,4.866.652,3.518,2.867a2.951,2.951,0,0,1-.2.281L130,70.128l1.873,4.409H125.4Z" transform="translate(-18.516 -9.631)" fill="none" stroke="#000" stroke-miterlimit="10" stroke-width="1.5"/>
            <path id="Trazado_218036" data-name="Trazado 218036" d="M34.871,64.5H1.125C.5,64.5,0,64.171,0,63.762s.5-.742,1.125-.742H34.871c.621,0,1.125.332,1.125.742s-.5.742-1.125.742" transform="translate(0 -9.305)"/>
            <path id="Trazado_218037" data-name="Trazado 218037" d="M34.871,74.3H1.125C.5,74.3,0,73.966,0,73.557s.5-.742,1.125-.742H34.871c.621,0,1.125.332,1.125.742s-.5.742-1.125.742" transform="translate(0 -10.752)"/>
            <path id="Trazado_218038" data-name="Trazado 218038" d="M34.871,85.353H1.125C.5,85.353,0,85.021,0,84.612s.5-.742,1.125-.742H34.871c.621,0,1.125.332,1.125.742s-.5.742-1.125.742" transform="translate(0 -12.384)"/>
            <path id="Trazado_218039" data-name="Trazado 218039" d="M22.3,95.521H.719a.742.742,0,0,1,0-1.483H22.3a.742.742,0,0,1,0,1.483" transform="translate(0 -13.885)"/>
            <rect id="Rectángulo_56200" data-name="Rectángulo 56200" width="33.616" height="25.212" transform="translate(2.38 21.898)" fill="#fff"/>
            <path id="Trazado_218040" data-name="Trazado 218040" d="M36.279,51.517H2.663a.742.742,0,0,1-.742-.742V25.564a.742.742,0,0,1,.742-.742H36.279a.742.742,0,0,1,.742.742V50.776a.741.741,0,0,1-.742.742M3.4,50.034H35.537V26.305H3.4Z" transform="translate(-0.284 -3.665)"/>
          </g>
        </g>
      </g>
    </g>
  </g>
</svg>
