<svg xmlns="http://www.w3.org/2000/svg" xmlns:xlink="http://www.w3.org/1999/xlink" width="1030" height="393" viewBox="0 0 1030 393">
  <defs>
    <filter id="Trazado_221092" x="293.672" y="10.428" width="209.451" height="209.451" filterUnits="userSpaceOnUse">
      <feOffset dx="6" dy="6" input="SourceAlpha"/>
      <feGaussianBlur stdDeviation="12.5" result="blur"/>
      <feFlood flood-opacity="0.039"/>
      <feComposite operator="in" in2="blur"/>
      <feComposite in="SourceGraphic"/>
    </filter>
    <linearGradient id="linear-gradient" x1="0.574" y1="0.983" x2="0.572" gradientUnits="objectBoundingBox">
      <stop offset="0" stop-color="#fdfeff"/>
      <stop offset="0.442" stop-color="#ecf2fb"/>
      <stop offset="1" stop-color="#ece5f7"/>
    </linearGradient>
    <filter id="Trazado_150551" x="55.73" y="36.428" width="189.486" height="189.485" filterUnits="userSpaceOnUse">
      <feOffset dx="6" dy="6" input="SourceAlpha"/>
      <feGaussianBlur stdDeviation="12.5" result="blur-2"/>
      <feFlood flood-opacity="0.039"/>
      <feComposite operator="in" in2="blur-2"/>
      <feComposite in="SourceGraphic"/>
    </filter>
    <filter id="Trazado_150551-2" x="560.379" y="36.428" width="189.486" height="189.485" filterUnits="userSpaceOnUse">
      <feOffset dx="6" dy="6" input="SourceAlpha"/>
      <feGaussianBlur stdDeviation="12.5" result="blur-3"/>
      <feFlood flood-opacity="0.039"/>
      <feComposite operator="in" in2="blur-3"/>
      <feComposite in="SourceGraphic"/>
    </filter>
    <filter id="Trazado_150551-3" x="818.379" y="36.428" width="189.486" height="189.485" filterUnits="userSpaceOnUse">
      <feOffset dx="6" dy="6" input="SourceAlpha"/>
      <feGaussianBlur stdDeviation="12.5" result="blur-4"/>
      <feFlood flood-opacity="0.039"/>
      <feComposite operator="in" in2="blur-4"/>
      <feComposite in="SourceGraphic"/>
    </filter>
    <filter id="Trazado_150551-4" x="293.672" y="10.428" width="209.451" height="209.451" filterUnits="userSpaceOnUse">
      <feOffset dx="6" dy="6" input="SourceAlpha"/>
      <feGaussianBlur stdDeviation="12.5" result="blur-5"/>
      <feFlood flood-opacity="0.039"/>
      <feComposite operator="in" in2="blur-5"/>
      <feComposite in="SourceGraphic"/>
    </filter>
    <clipPath id="clip-path">
      <g transform="matrix(1, 0, 0, 1, 0, 0)" filter="url(#Trazado_221092)">
        <path id="Trazado_221092-2" data-name="Trazado 221092" d="M214.739,147.514a67.226,67.226,0,1,1-67.226-67.226,67.226,67.226,0,0,1,67.226,67.226" transform="translate(529.88 4740.64)" fill="#fff"/>
      </g>
    </clipPath>
  </defs>
  <g id="Grupo_177311" data-name="Grupo 177311" transform="translate(-18441 6155)">
    <path id="Trazado_226170" data-name="Trazado 226170" d="M43,0h987V393H0V43A43,43,0,0,1,43,0Z" transform="translate(18441 -6155)" fill="url(#linear-gradient)"/>
    <g id="Grupo_177310" data-name="Grupo 177310">
      <path id="Trazado_174290" data-name="Trazado 174290" d="M11.892,309.138-117.492,438.522a11.3,11.3,0,0,1-15.987,0h0a11.3,11.3,0,0,1,0-15.987L-4.1,293.151a11.3,11.3,0,0,1,15.987,0h0A11.3,11.3,0,0,1,11.892,309.138Z" transform="translate(18740.797 -6257.84)" fill="none" stroke="#fff" stroke-miterlimit="10" stroke-width="2"/>
      <path id="Trazado_174291" data-name="Trazado 174291" d="M21.473,402.892l-98.757,98.757a8.629,8.629,0,0,1-12.2,0h0a8.628,8.628,0,0,1,0-12.2L9.27,390.689a8.629,8.629,0,0,1,12.2,0h0A8.629,8.629,0,0,1,21.473,402.892Z" transform="translate(18723.34 -6296.176)" fill="none" stroke="#fff" stroke-miterlimit="10" stroke-width="2"/>
      <path id="Trazado_174290-2" data-name="Trazado 174290" d="M11.892,309.138-117.492,438.522a11.3,11.3,0,0,1-15.987,0h0a11.3,11.3,0,0,1,0-15.987L-4.1,293.151a11.3,11.3,0,0,1,15.987,0h0A11.3,11.3,0,0,1,11.892,309.138Z" transform="translate(19312.789 -6423.514)" fill="none" stroke="#fff" stroke-miterlimit="10" stroke-width="2"/>
      <path id="Trazado_174291-2" data-name="Trazado 174291" d="M21.473,402.892l-98.757,98.757a8.629,8.629,0,0,1-12.2,0h0a8.628,8.628,0,0,1,0-12.2L9.27,390.689a8.629,8.629,0,0,1,12.2,0h0A8.629,8.629,0,0,1,21.473,402.892Z" transform="translate(19295.332 -6461.851)" fill="none" stroke="#fff" stroke-miterlimit="10" stroke-width="2"/>
      <path id="Trazado_226169" data-name="Trazado 226169" d="M126.057,383.022A41.979,41.979,0,1,0,168.035,425,41.979,41.979,0,0,0,126.057,383.022Zm0,75.566A33.588,33.588,0,1,1,159.644,425,33.588,33.588,0,0,1,126.057,458.588Z" transform="translate(18787.965 -6501.779)" fill="#fdfdfd" opacity="0.32"/>
      <g id="Grupo_176685" data-name="Grupo 176685" transform="translate(18107.352 -10049.952)">
        <g id="Grupo_145237" data-name="Grupo 145237" transform="translate(402 3944.001)">
          <path id="Trazado_150549" data-name="Trazado 150549" d="M139.911,253.813h-38.7l38.7,65.518,38.7-65.518Z" transform="translate(-63.789 -151.372)" fill="#eeac3a"/>
          <path id="Trazado_150550" data-name="Trazado 150550" d="M81.821,81.821H0A81.819,81.819,0,0,1,81.821,0Z" transform="translate(-0.001 -0.001)" fill="#eeac3a"/>
          <circle id="Elipse_4894" data-name="Elipse 4894" cx="65.533" cy="65.533" r="65.533" transform="translate(10.583 10.582)" fill="#ffe4b6"/>
          <g transform="matrix(1, 0, 0, 1, -68.35, -49.05)" filter="url(#Trazado_150551)">
            <path id="Trazado_150551-5" data-name="Trazado 150551" d="M194.773,137.531a57.243,57.243,0,1,1-57.243-57.243,57.243,57.243,0,0,1,57.243,57.243" transform="translate(6.94 -12.36)" fill="#fff"/>
          </g>
        </g>
      </g>
      <g id="Grupo_176686" data-name="Grupo 176686" transform="translate(18612 -10049.952)">
        <g id="Grupo_145237-2" data-name="Grupo 145237" transform="translate(402 3944.001)">
          <path id="Trazado_150549-2" data-name="Trazado 150549" d="M139.911,253.813h-38.7l38.7,65.518,38.7-65.518Z" transform="translate(-63.789 -151.372)" fill="#43a99b"/>
          <path id="Trazado_150550-2" data-name="Trazado 150550" d="M81.821,81.821H0A81.819,81.819,0,0,1,81.821,0Z" transform="translate(-0.001 -0.001)" fill="#43a99b"/>
          <circle id="Elipse_4894-2" data-name="Elipse 4894" cx="65.533" cy="65.533" r="65.533" transform="translate(10.583 10.582)" fill="#a6e1d9"/>
          <g transform="matrix(1, 0, 0, 1, -573, -49.05)" filter="url(#Trazado_150551-2)">
            <path id="Trazado_150551-6" data-name="Trazado 150551" d="M194.773,137.531a57.243,57.243,0,1,1-57.243-57.243,57.243,57.243,0,0,1,57.243,57.243" transform="translate(511.59 -12.36)" fill="#fff"/>
          </g>
        </g>
      </g>
      <g id="Grupo_176687" data-name="Grupo 176687" transform="translate(18870 -10049.952)">
        <g id="Grupo_145237-3" data-name="Grupo 145237" transform="translate(402 3944.001)">
          <path id="Trazado_150549-3" data-name="Trazado 150549" d="M139.911,253.813h-38.7l38.7,65.518,38.7-65.518Z" transform="translate(-63.789 -151.372)" fill="#0b67d1"/>
          <path id="Trazado_150550-3" data-name="Trazado 150550" d="M81.821,81.821H0A81.819,81.819,0,0,1,81.821,0Z" transform="translate(-0.001 -0.001)" fill="#0b67d1"/>
          <circle id="Elipse_4894-3" data-name="Elipse 4894" cx="65.533" cy="65.533" r="65.533" transform="translate(10.583 10.582)" fill="#9cc7f8"/>
          <g transform="matrix(1, 0, 0, 1, -831, -49.05)" filter="url(#Trazado_150551-3)">
            <path id="Trazado_150551-7" data-name="Trazado 150551" d="M194.773,137.531a57.243,57.243,0,1,1-57.243-57.243,57.243,57.243,0,0,1,57.243,57.243" transform="translate(769.59 -12.36)" fill="#fff"/>
          </g>
        </g>
      </g>
      <g id="Grupo_176688" data-name="Grupo 176688" transform="translate(18342 -10079.244)">
        <g id="Grupo_145237-4" data-name="Grupo 145237" transform="translate(402 3944.001)">
          <path id="Trazado_150549-4" data-name="Trazado 150549" d="M146.659,253.813H101.213l45.446,76.944L192.1,253.813Z" transform="translate(-57.262 -133.506)" fill="#7f4fc7"/>
          <path id="Trazado_150550-4" data-name="Trazado 150550" d="M96.09,96.091H0A96.088,96.088,0,0,1,96.09,0Z" transform="translate(-0.001 -0.001)" fill="#7f4fc7"/>
          <circle id="Elipse_4894-4" data-name="Elipse 4894" cx="76.961" cy="76.961" r="76.961" transform="translate(12.429 12.428)" fill="#c8c7ff"/>
          <g transform="matrix(1, 0, 0, 1, -303, -19.76)" filter="url(#Trazado_150551-4)">
            <path id="Trazado_150551-8" data-name="Trazado 150551" d="M214.739,147.514a67.226,67.226,0,1,1-67.226-67.226,67.226,67.226,0,0,1,67.226,67.226" transform="translate(244.88 -38.36)" fill="#fff"/>
          </g>
        </g>
      </g>
      <path id="Trazado_221067" data-name="Trazado 221067" d="M16980-6688h762.234" transform="translate(1605 766)" fill="none" stroke="#707070" stroke-width="2" stroke-dasharray="4"/>
      <path id="Trazado_226171" data-name="Trazado 226171" d="M10,0A10,10,0,1,1,0,10,10,10,0,0,1,10,0Z" transform="translate(18575 -5932)" fill="#afafaf"/>
      <path id="Trazado_226172" data-name="Trazado 226172" d="M10,0A10,10,0,1,1,0,10,10,10,0,0,1,10,0Z" transform="translate(18823 -5932)" fill="#afafaf"/>
      <path id="Trazado_226173" data-name="Trazado 226173" d="M10,0A10,10,0,1,1,0,10,10,10,0,0,1,10,0Z" transform="translate(19079 -5932)" fill="#afafaf"/>
      <path id="Trazado_226174" data-name="Trazado 226174" d="M10,0A10,10,0,1,1,0,10,10,10,0,0,1,10,0Z" transform="translate(19338 -5932)" fill="#afafaf"/>
      <path id="Trazado_226175" data-name="Trazado 226175" d="M6,0A6,6,0,1,1,0,6,6,6,0,0,1,6,0Z" transform="translate(18579 -5928)" fill="#fff"/>
      <path id="Trazado_226176" data-name="Trazado 226176" d="M6,0A6,6,0,1,1,0,6,6,6,0,0,1,6,0Z" transform="translate(18827 -5928)" fill="#fff"/>
      <path id="Trazado_226177" data-name="Trazado 226177" d="M6,0A6,6,0,1,1,0,6,6,6,0,0,1,6,0Z" transform="translate(19083 -5928)" fill="#fff"/>
      <path id="Trazado_226178" data-name="Trazado 226178" d="M6,0A6,6,0,1,1,0,6,6,6,0,0,1,6,0Z" transform="translate(19342 -5928)" fill="#fff"/>
      <path id="Trazado_221068" data-name="Trazado 221068" d="M17742.234-6607.149v26.882h-517.445v-26.882" transform="translate(1605 766)" fill="none" stroke="#43a99b" stroke-width="1"/>
      <g id="anadir-al-carrito" transform="translate(19042.064 -6088)">
        <g id="Grupo_176660" data-name="Grupo 176660" transform="translate(15.43 71.347)">
          <path id="Trazado_221067-2" data-name="Trazado 221067" d="M147.347,361.095h-47.8a7.547,7.547,0,1,1,0-15.095h7.547l-4.535,5.031H99.547a2.516,2.516,0,1,0,0,5.031h47.8Z" transform="translate(-92 -346)" fill="#6cf"/>
        </g>
        <path id="Trazado_221068-2" data-name="Trazado 221068" d="M287,406h22.642v5.031H287Z" transform="translate(-238.865 -324.59)" fill="#59abff"/>
        <g id="Grupo_176661" data-name="Grupo 176661" transform="translate(0 26.063)">
          <path id="Trazado_221069" data-name="Trazado 221069" d="M18.177,91.1,15.929,81.032H0V76H19.963l4.358,19.517Z" transform="translate(0 -76)" fill="#6cf"/>
        </g>
        <path id="Trazado_221070" data-name="Trazado 221070" d="M149.162,166.862,148.41,166h-40l7.808,35.221h44.22l8.866-34.311c-1.722.43-11.911,9.405-20.138-.047Zm12.657,8.884-1.382,5.348h-11.8l.64-7.675A17.923,17.923,0,0,0,161.819,175.746Zm-28.693,5.348-.839-10.063h12.145l-.839,10.063Zm10.048,5.032-.839,10.063h-7.951l-.839-10.063ZM127.24,171.031l.839,10.063H116.907l-2.231-10.063Zm-9.219,15.095H128.5l.839,10.063h-9.084Zm29.36,10.063.839-10.063h10.917l-2.6,10.063Z" transform="translate(-90.225 -124.842)" fill="#6cf"/>
        <path id="Trazado_221071" data-name="Trazado 221071" d="M297.8,166.862l-.752-.862H287v5.031h6.072l-.839,10.063H287v5.032h4.814l-.839,10.063H287v5.031h22.074l8.867-34.311c-1.722.43-11.911,9.405-20.138-.047Zm7.375,29.327h-9.155l.839-10.063h10.917Zm5.282-20.443-1.382,5.348h-11.8l.64-7.675A17.923,17.923,0,0,0,310.46,175.746Z" transform="translate(-238.865 -124.842)" fill="#59abff"/>
        <g id="_Add_2_" transform="translate(25.493 16)">
          <g id="Grupo_176662" data-name="Grupo 176662" transform="translate(0 65.41)">
            <path id="Trazado_221072" data-name="Trazado 221072" d="M159.547,421.095a7.547,7.547,0,1,1,7.547-7.547A7.556,7.556,0,0,1,159.547,421.095Z" transform="translate(-152 -406)" fill="#665151"/>
          </g>
          <g id="Grupo_176663" data-name="Grupo 176663" transform="translate(25.158 65.41)">
            <path id="Trazado_221073" data-name="Trazado 221073" d="M309.547,421.095a7.547,7.547,0,1,1,7.547-7.547A7.556,7.556,0,0,1,309.547,421.095Z" transform="translate(-302 -406)" fill="#4d3535"/>
          </g>
          <g id="Grupo_176664" data-name="Grupo 176664" transform="translate(25.158)">
            <path id="Trazado_221074" data-name="Trazado 221074" d="M319.61,51.221a17.61,17.61,0,1,1,17.61-17.61A17.619,17.619,0,0,1,319.61,51.221Z" transform="translate(-302 -16)" fill="#a0e65c"/>
          </g>
        </g>
        <circle id="Elipse_6212" data-name="Elipse 6212" cx="2.453" cy="2.453" r="2.453" transform="translate(30.259 86.332)" fill="#fff7e6"/>
        <circle id="Elipse_6213" data-name="Elipse 6213" cx="2.453" cy="2.453" r="2.453" transform="translate(55.612 86.332)" fill="#ffeacc"/>
        <path id="Trazado_221075" data-name="Trazado 221075" d="M424.61,33.61A17.632,17.632,0,0,0,407,16V51.221A17.593,17.593,0,0,0,424.61,33.61Z" transform="translate(-338.739)" fill="#79cc52"/>
        <text id="_" data-name="$" transform="translate(60.936 42.939)" fill="#fff" font-size="25" font-family="Roboto-Bold, Roboto" font-weight="700"><tspan x="0" y="0">$</tspan></text>
      </g>
      <g id="hogar" transform="translate(19289.35 -6067.999)">
        <g id="Grupo_176665" data-name="Grupo 176665" transform="translate(32.17 7.137)">
          <path id="Trazado_221076" data-name="Trazado 221076" d="M104.375,48.007,77.894,73.766V111.6h52.961V73.766Z" transform="translate(-77.894 -48.007)" fill="#dfebfa"/>
        </g>
        <path id="Trazado_221077" data-name="Trazado 221077" d="M84.174,77.629a3.345,3.345,0,0,1,1.013-2.4l23.588-22.944-4.4-4.28L77.894,73.766V111.6h6.28Z" transform="translate(-45.724 -40.87)" fill="#b1dbfc"/>
        <g id="Grupo_176667" data-name="Grupo 176667" transform="translate(74.879 5.388)">
          <g id="Grupo_176666" data-name="Grupo 176666" transform="translate(0)">
            <path id="Trazado_221078" data-name="Trazado 221078" d="M365.151,36.245v9.6l8.48,8.248V36.245Z" transform="translate(-365.151 -36.245)" fill="#695d67"/>
          </g>
        </g>
        <path id="Trazado_221079" data-name="Trazado 221079" d="M370.062,46.5a2.216,2.216,0,0,1-.671-1.589V36.245h-4.24v9.6l8.48,8.248V49.973Z" transform="translate(-290.272 -30.857)" fill="#544e55"/>
        <path id="Trazado_221080" data-name="Trazado 221080" d="M92.157,31.339,60.862.9a3.171,3.171,0,0,0-4.423,0L25.144,31.339a3.172,3.172,0,1,0,4.423,4.547L58.215,8.02a.624.624,0,0,1,.871,0L87.733,35.886a3.172,3.172,0,0,0,4.423-4.547Z" transform="translate(0 0)" fill="#ff656f"/>
        <g id="Grupo_176668" data-name="Grupo 176668" transform="translate(24.184 -0.001)">
          <path id="Trazado_221081" data-name="Trazado 221081" d="M58.215,8.02a.62.62,0,0,1,.388-.172l2.788-2.712A3.167,3.167,0,0,1,64.4,4.342L60.862.9a3.171,3.171,0,0,0-4.423,0L25.145,31.339a3.172,3.172,0,0,0,4.423,4.547Z" transform="translate(-24.184 0.001)" fill="#ff4756"/>
        </g>
        <path id="Trazado_221082" data-name="Trazado 221082" d="M362.006,4.741V1.108A1.108,1.108,0,0,0,360.9,0H349.714a1.108,1.108,0,0,0-1.108,1.108V4.741a1.108,1.108,0,0,0,1.108,1.108H360.9A1.108,1.108,0,0,0,362.006,4.741Z" transform="translate(-276.188 -0.001)" fill="#7b6c79"/>
        <path id="Trazado_221083" data-name="Trazado 221083" d="M352.847,4.741V1.108A1.108,1.108,0,0,1,353.954,0h-4.24a1.108,1.108,0,0,0-1.108,1.108V4.741a1.108,1.108,0,0,0,1.108,1.108h4.24A1.108,1.108,0,0,1,352.847,4.741Z" transform="translate(-276.188 -0.001)" fill="#695d67"/>
        <path id="Trazado_221084" data-name="Trazado 221084" d="M119.1,282.861h17.763V311.54H119.1Z" transform="translate(-80.807 -240.806)" fill="#ab6b51"/>
        <path id="Trazado_221085" data-name="Trazado 221085" d="M119.1,282.861h5.753V311.54H119.1Z" transform="translate(-80.807 -240.806)" fill="#965a44"/>
        <path id="Trazado_221086" data-name="Trazado 221086" d="M273.423,283.891v21.448a.857.857,0,0,0,.857.857h16.05a.857.857,0,0,0,.857-.857V283.891Z" transform="translate(-212.182 -241.683)" fill="#60b8fe"/>
        <path id="Trazado_221087" data-name="Trazado 221087" d="M279.176,305.339V283.891h-5.753v21.448a.857.857,0,0,0,.857.857h5.753A.857.857,0,0,1,279.176,305.339Z" transform="translate(-212.182 -241.683)" fill="#23a8fe"/>
        <path id="Trazado_221088" data-name="Trazado 221088" d="M283.453,284.044a1.158,1.158,0,0,0-.011-.153h-2.275a1.158,1.158,0,0,0-.011.153v9.927h-7.733v2.3h7.733V306.2h2.3v-9.927h7.733v-2.3h-7.733v-9.927Z" transform="translate(-212.182 -241.683)" fill="#8bcaff"/>
        <path id="Trazado_221089" data-name="Trazado 221089" d="M273.423,351.689h5.753v2.3h-5.753Z" transform="translate(-212.182 -299.401)" fill="#60b8fe"/>
        <path id="Trazado_221090" data-name="Trazado 221090" d="M290.33,247.41H274.28a.856.856,0,0,0-.857.857v4.721h17.763v-4.721A.857.857,0,0,0,290.33,247.41Z" transform="translate(-212.182 -210.626)" fill="#23a8fe"/>
        <path id="Trazado_221091" data-name="Trazado 221091" d="M280.032,247.41H274.28a.856.856,0,0,0-.857.857v4.721h5.753v-4.721A.857.857,0,0,1,280.032,247.41Z" transform="translate(-212.182 -210.626)" fill="#0193fa"/>
        <path id="Trazado_221092-3" data-name="Trazado 221092" d="M136.011,247.41h-16.05a.857.857,0,0,0-.857.857v4.721h17.763v-4.721A.857.857,0,0,0,136.011,247.41Z" transform="translate(-80.807 -210.626)" fill="#bc7c63"/>
        <path id="Trazado_221093" data-name="Trazado 221093" d="M125.713,247.41h-5.753a.857.857,0,0,0-.857.857v4.721h5.753v-4.721A.857.857,0,0,1,125.713,247.41Z" transform="translate(-80.807 -210.626)" fill="#ab6b51"/>
        <circle id="Elipse_6214" data-name="Elipse 6214" cx="2.3" cy="2.3" r="2.3" transform="translate(47.57 52.406)" fill="#dfebfa"/>
        <path id="Trazado_221094" data-name="Trazado 221094" d="M119.229,472.664h-55.2a1.108,1.108,0,0,0-1.108,1.108V477.4a1.108,1.108,0,0,0,1.108,1.108h55.2a1.108,1.108,0,0,0,1.108-1.108v-3.633A1.108,1.108,0,0,0,119.229,472.664Z" transform="translate(-32.98 -402.389)" fill="#43cb8e"/>
        <path id="Trazado_221095" data-name="Trazado 221095" d="M69.931,477.4v-3.633a1.108,1.108,0,0,1,1.108-1.108H64.032a1.108,1.108,0,0,0-1.108,1.108V477.4a1.108,1.108,0,0,0,1.108,1.108h7.007A1.108,1.108,0,0,1,69.931,477.4Z" transform="translate(-32.98 -402.388)" fill="#00ba66"/>
      </g>
      <g id="web-design" transform="translate(18799.137 -6157.501)">
        <path id="Trazado_221096" data-name="Trazado 221096" d="M242.412,379.674h-20.55l2.609-12.7H239.8Z" transform="translate(-183.848 -252.797)" fill="#e1effa"/>
        <path id="Trazado_221097" data-name="Trazado 221097" d="M255.028,379.674l-2.612-12.7h-15.33l12.7,12.7Z" transform="translate(-196.464 -252.797)" fill="#b6d4ed"/>
        <rect id="Rectángulo_56671" data-name="Rectángulo 56671" width="31.552" height="1.54" transform="translate(32.511 126.878)" fill="#e1effa"/>
        <path id="Trazado_221098" data-name="Trazado 221098" d="M53.646,61.9a1.924,1.924,0,0,0-1.914,1.917v48.434a1.923,1.923,0,0,0,1.914,1.92h75.026a1.928,1.928,0,0,0,1.922-1.92V63.821a1.928,1.928,0,0,0-1.922-1.917H53.646Z" transform="translate(-42.868)" fill="#34495e"/>
        <rect id="Rectángulo_56672" data-name="Rectángulo 56672" width="70.892" height="44.302" transform="translate(12.847 65.886)" fill="#fff"/>
        <rect id="Rectángulo_56673" data-name="Rectángulo 56673" width="19.613" height="5.878" transform="translate(15.795 68.366)" fill="#ff8e31"/>
        <g id="Grupo_176669" data-name="Grupo 176669" transform="translate(15.328 68.366)">
          <rect id="Rectángulo_56674" data-name="Rectángulo 56674" width="42.771" height="5.878" transform="translate(23.162 0)" fill="#e1effa"/>
          <rect id="Rectángulo_56675" data-name="Rectángulo 56675" width="65.931" height="1.944" transform="translate(0 33.167)" fill="#e1effa"/>
          <rect id="Rectángulo_56676" data-name="Rectángulo 56676" width="65.931" height="1.934" transform="translate(0 37.409)" fill="#e1effa"/>
        </g>
        <g id="Grupo_176670" data-name="Grupo 176670" transform="translate(15.328 88.05)">
          <rect id="Rectángulo_56677" data-name="Rectángulo 56677" width="19.613" height="11.19" transform="translate(0 0)" fill="#d0e070"/>
          <rect id="Rectángulo_56678" data-name="Rectángulo 56678" width="19.611" height="11.19" transform="translate(23.162 0)" fill="#d0e070"/>
          <rect id="Rectángulo_56679" data-name="Rectángulo 56679" width="19.615" height="11.19" transform="translate(46.318 0)" fill="#d0e070"/>
        </g>
        <rect id="Rectángulo_56680" data-name="Rectángulo 56680" width="65.931" height="9.206" transform="translate(15.328 76.544)" fill="#b8d1e6"/>
        <path id="Trazado_221099" data-name="Trazado 221099" d="M91.92,231.991H53.656a1.925,1.925,0,0,1-1.909-1.925V204.079h3.981V228h32.2Z" transform="translate(-42.881 -117.815)" fill="#2e445c"/>
        <path id="Trazado_221100" data-name="Trazado 221100" d="M107.183,228H74.98V204.079h6.765a3.588,3.588,0,0,1,2.523,1.007.755.755,0,0,1,.18.18l.6.6H77.462v11.189H96.233l2.293,2.293H77.461V221.3h23.014l2.293,2.293H77.461v1.933H104.7Z" transform="translate(-62.133 -117.815)" fill="#e1effa"/>
        <path id="Trazado_221101" data-name="Trazado 221101" d="M108.234,225.689H89.462V214.5h7.584Z" transform="translate(-74.134 -126.451)" fill="#b8d26e"/>
        <g id="Grupo_176671" data-name="Grupo 176671" transform="translate(15.329 101.531)">
          <path id="Trazado_221102" data-name="Trazado 221102" d="M112.476,295.129H89.462V293.18h21.065Z" transform="translate(-89.462 -293.18)" fill="#c7e0f4"/>
          <path id="Trazado_221103" data-name="Trazado 221103" d="M116.7,319.873H89.462V317.94h25.307Z" transform="translate(-89.462 -313.698)" fill="#c7e0f4"/>
        </g>
        <path id="Trazado_221104" data-name="Trazado 221104" d="M2.88,250.216A2.889,2.889,0,0,1,0,247.333v-35.56a2.892,2.892,0,0,1,2.88-2.883H19.606a2.892,2.892,0,0,1,2.88,2.883v35.56a2.891,2.891,0,0,1-2.88,2.884H2.88Z" transform="translate(8.059 -116.46) rotate(7)" fill="#34495e"/>
        <g id="Grupo_176672" data-name="Grupo 176672" transform="translate(-8.994 94.214) rotate(7)">
          <path id="Trazado_221105" data-name="Trazado 221105" d="M56.044,427.971a.686.686,0,0,1-.686.688H51.746a.693.693,0,0,1-.689-.688v-.29a.7.7,0,0,1,.689-.69h3.612a.689.689,0,0,1,.686.69Z" transform="translate(-51.057 -391.914)" fill="#283a4d"/>
          <path id="Trazado_221106" data-name="Trazado 221106" d="M62.439,223.1a.831.831,0,1,1-.828-.829A.827.827,0,0,1,62.439,223.1Z" transform="translate(-59.112 -222.266)" fill="#283a4d"/>
        </g>
        <path id="Trazado_221107" data-name="Trazado 221107" d="M64.122,225.221a.385.385,0,0,1-.386.391.39.39,0,1,1,0-.781A.384.384,0,0,1,64.122,225.221Z" transform="translate(-42.429 -135.968) rotate(7)" fill="#5d6d7e"/>
        <rect id="Rectángulo_56681" data-name="Rectángulo 56681" width="19.222" height="28.834" transform="translate(-16.539 97.276) rotate(7)" fill="#fff"/>
        <rect id="Rectángulo_56682" data-name="Rectángulo 56682" width="16.269" height="2.487" transform="translate(-15.249 98.919) rotate(7)" fill="#ff8e31"/>
        <g id="Grupo_176673" data-name="Grupo 176673" transform="translate(-18.085 122.015) rotate(7)">
          <rect id="Rectángulo_56683" data-name="Rectángulo 56683" width="16.269" height="0.815" transform="translate(0 0)" fill="#e1effa"/>
          <rect id="Rectángulo_56684" data-name="Rectángulo 56684" width="16.269" height="0.815" transform="translate(0 1.794)" fill="#e1effa"/>
        </g>
        <rect id="Rectángulo_56685" data-name="Rectángulo 56685" width="16.269" height="12.742" transform="translate(-16.413 108.402) rotate(7)" fill="#d0e070"/>
        <rect id="Rectángulo_56686" data-name="Rectángulo 56686" width="16.269" height="5.128" transform="translate(-15.67 102.35) rotate(7)" fill="#b8d1e6"/>
      </g>
      <g id="Enmascarar_grupo_141297" data-name="Enmascarar grupo 141297" transform="translate(18156 -10934)" clip-path="url(#clip-path)">
        <g id="empresario" transform="translate(582.09 4878.303)">
          <path id="Trazado_221069-2" data-name="Trazado 221069" d="M207.231,285.568h-4.5l-5.44-3.4-2.563,3.915,3.45,31.576,1.3,1.276h10.434l1.141-.913,3.624-32.6-3.308-4Z" transform="translate(-107.785 -235.648)" fill="#eee1dd"/>
          <path id="Trazado_221070-2" data-name="Trazado 221070" d="M224.5,246.3l.363-1.2a1.206,1.206,0,0,1-.283-.77l0-4.076-.647-.691H211.842l-.653.873v3.887a1.108,1.108,0,0,1-.28.774l.291.919-.719,1.1,5.44,3.4h4.5l4.139-4.139Z" transform="translate(-120.975 -200.595)" fill="#fed1a3"/>
          <path id="Trazado_221071-2" data-name="Trazado 221071" d="M217.669,239.566h-5.827l-.653.873v3.887a1.108,1.108,0,0,1-.28.774l.291.919-.719,1.1,5.44,3.4h1.749V239.566Z" transform="translate(-120.975 -200.595)" fill="#ffbc85"/>
          <path id="Trazado_221072-2" data-name="Trazado 221072" d="M326.607,296.123l-9.985-3.867-1.1,1.229-4.3,32.878,1.25,1.64h18.494a2.18,2.18,0,0,0,2.18-2.18V306.271A11.168,11.168,0,0,0,326.607,296.123Z" transform="translate(-205.33 -244.713)" fill="#7b6c79"/>
          <path id="Trazado_221073-2" data-name="Trazado 221073" d="M87.8,325.462,83.16,293.006l-.68-.826-9.933,3.879A11.2,11.2,0,0,0,66,306.207v19.552a2.18,2.18,0,0,0,2.18,2.18H86.737Z" transform="translate(-0.001 -244.65)" fill="#7b6c79"/>
          <path id="Trazado_221074-2" data-name="Trazado 221074" d="M71.057,340.75V318.6a11.2,11.2,0,0,1,3.964-8.521l-2.476.967A11.2,11.2,0,0,0,66,321.2V340.75a2.18,2.18,0,0,0,2.18,2.18h5.054A2.181,2.181,0,0,1,71.057,340.75Z" transform="translate(0 -259.64)" fill="#665e68"/>
          <path id="Trazado_221075-2" data-name="Trazado 221075" d="M231.433,336.806l-.48-.4h-3.91l-.181.4-2.931,28.162h10.434Z" transform="translate(-132.236 -281.679)" fill="#f27182"/>
          <path id="Trazado_221076-2" data-name="Trazado 221076" d="M231.433,336.806l-.48-.4h-3.91l-.181.4-2.931,28.162H228.6l2.884-27.712Z" transform="translate(-132.236 -281.679)" fill="#ed5469"/>
          <path id="Trazado_221077-2" data-name="Trazado 221077" d="M378.76,387.062V364.046a1.257,1.257,0,1,0-2.514,0v23.016Z" transform="translate(-259.774 -303.772)" fill="#665e68"/>
          <path id="Trazado_221078-2" data-name="Trazado 221078" d="M122.817,387.062V364.046a1.257,1.257,0,1,0-2.514,0v23.016Z" transform="translate(-45.467 -303.772)" fill="#665e68"/>
          <path id="Trazado_221079-2" data-name="Trazado 221079" d="M236.883,299.957l-.31-.134h-4.682l-.33.176L230,302.638v.5l1.943,3.038h4.572l1.943-3.038.139-.458Z" transform="translate(-137.322 -251.049)" fill="#f27182"/>
          <path id="Trazado_221080-2" data-name="Trazado 221080" d="M201.935,277.076l-4.215-3.5a1.3,1.3,0,0,1-.235.205l-2.544.993-.212.264.5,4.218.268.146,2.935,2.434a1.189,1.189,0,0,0,1.744-.25l1.982-2.936A1.189,1.189,0,0,0,201.935,277.076Z" transform="translate(-107.785 -229.076)" fill="#fff5f5"/>
          <path id="Trazado_221081-2" data-name="Trazado 221081" d="M277.75,274.842l-2.288-.886a1.2,1.2,0,0,1-.49-.355l-4.211,3.492a1.189,1.189,0,0,0-.227,1.581l1.982,2.936a1.189,1.189,0,0,0,1.744.25l2.935-2.434.293-.314.492-3.928Z" transform="translate(-171.089 -229.093)" fill="#fff5f5"/>
          <path id="Trazado_221082-2" data-name="Trazado 221082" d="M298.339,297.781a.913.913,0,0,0-.182-.8l-1.646-1.993a.912.912,0,0,1,.114-1.277l2.155-1.823a.912.912,0,0,0,.3-.9l-1.846-7.958-4.631-1.794-4.533,37.541h5.017Z" transform="translate(-185.942 -235.482)" fill="#938493"/>
          <path id="Trazado_221083-2" data-name="Trazado 221083" d="M162.6,280.951l-4.677,1.827-1.794,7.971a.912.912,0,0,0,.3.9l2.155,1.823a.912.912,0,0,1,.114,1.277l-1.646,1.993a.912.912,0,0,0-.182.8l5.312,20.99h4.958Z" transform="translate(-75.446 -235.247)" fill="#938493"/>
          <path id="Trazado_221084-2" data-name="Trazado 221084" d="M184.518,10.787a.864.864,0,0,1-.486-.554c-.425-1.406-2.088-7.162-5.975-7.892a50.67,50.67,0,0,1-7.6-2.128,3.527,3.527,0,0,0-2.42,0,50.677,50.677,0,0,1-7.6,2.128c-3.887.73-5.55,6.485-5.975,7.892a.864.864,0,0,1-.486.554,2.581,2.581,0,0,0-1.583,2.39V23.189l.757.72h32.386l.567-.72V13.178a2.582,2.582,0,0,0-1.583-2.39Z" transform="translate(-72.335 0)" fill="#bd7b62"/>
          <path id="Trazado_221085-2" data-name="Trazado 221085" d="M159.361,13.178a2.582,2.582,0,0,1,1.583-2.39.864.864,0,0,0,.486-.554c.425-1.406,2.088-7.162,5.975-7.892A46.966,46.966,0,0,0,172.73.984c-.907-.285-1.686-.556-2.276-.77a3.527,3.527,0,0,0-2.42,0,50.676,50.676,0,0,1-7.6,2.128c-3.887.73-5.55,6.485-5.975,7.892a.864.864,0,0,1-.486.554,2.581,2.581,0,0,0-1.583,2.39V23.189l.757.72h6.972l-.757-.72Z" transform="translate(-72.333)" fill="#ad6a50"/>
          <path id="Trazado_221086-2" data-name="Trazado 221086" d="M327.354,132.025a5.154,5.154,0,0,0-.934.087l-.773.445v8.351l.686.734a5.159,5.159,0,0,0,1.02.1,4.863,4.863,0,1,0,0-9.722Z" transform="translate(-217.407 -110.548)" fill="#fed1a3"/>
          <path id="Trazado_221087-2" data-name="Trazado 221087" d="M329.11,132.332a5.128,5.128,0,0,0-2.69-.22l-.773.445v8.351l.686.734a5.134,5.134,0,0,0,2.776-.2Z" transform="translate(-217.407 -110.548)" fill="#ffbc85"/>
          <path id="Trazado_221088-2" data-name="Trazado 221088" d="M150.053,132.025a4.863,4.863,0,1,0,0,9.722,5.175,5.175,0,0,0,1.01-.1l.592-.206V133l-.669-.892A5.143,5.143,0,0,0,150.053,132.025Z" transform="translate(-66.178 -110.548)" fill="#fed1a3"/>
          <path id="Trazado_221089-2" data-name="Trazado 221089" d="M148.5,136.885a4.849,4.849,0,0,1,2.8-4.36l-.31-.414a5.156,5.156,0,0,0-.934-.087,4.863,4.863,0,1,0,0,9.722,5.173,5.173,0,0,0,1.01-.1l.592-.206V141.4A4.866,4.866,0,0,1,148.5,136.885Z" transform="translate(-66.179 -110.547)" fill="#ffbc85"/>
          <path id="Trazado_221090-2" data-name="Trazado 221090" d="M239.234,89.279a12.74,12.74,0,0,1-6.161,1.57,14.671,14.671,0,0,1-4.7-.522,3.718,3.718,0,0,0-.389,1.665v12.2a12.325,12.325,0,0,0,7.749,11.465,12.087,12.087,0,0,0,8.911-11.621V92.394A3.6,3.6,0,0,0,239.234,89.279Z" transform="translate(-135.631 -74.344)" fill="#ffe5c1"/>
          <g id="Grupo_176689" data-name="Grupo 176689" transform="translate(84.808 14.438)">
            <path id="Trazado_221091-2" data-name="Trazado 221091" d="M189.478,104.09V92.364a3.569,3.569,0,0,1,.557-1.929,13.772,13.772,0,0,1-3.136-1.25,3.6,3.6,0,0,0-5.294,3.179V104.09a11.942,11.942,0,0,0,12.259,11.93,11.686,11.686,0,0,0,3.809-.635A11.85,11.85,0,0,1,189.478,104.09Z" transform="translate(-181.604 -88.752)" fill="#fed1a3"/>
          </g>
        </g>
      </g>
      <path id="Trazado_221093-2" data-name="Trazado 221093" d="M17222.387-6581.956h7.789l-4-8.86Z" transform="translate(1603.574 745.236)" fill="#43a99b"/>
      <g id="_x33_4" transform="translate(18552.537 -6065.323)">
        <g id="Grupo_176675" data-name="Grupo 176675" transform="translate(13.882 2.507)">
          <path id="Trazado_221133" data-name="Trazado 221133" d="M51.046,55.7l-.029,6.773C51,65.216,49.2,67.94,45.627,70.016a27.837,27.837,0,0,1-9.7,2.974c-5.816.633-12.059-.353-16.58-2.974-3.652-2.106-5.478-4.874-5.463-7.642L13.91,55.6c-.015-2.754,1.782-5.492,5.389-7.583a21.576,21.576,0,0,1,2.753-1.325c-.28.5-.589,1-.928,1.487a20.948,20.948,0,0,0,2.65-5.4,49.522,49.522,0,0,0,2.753-12.148,12.987,12.987,0,0,1-2.65-1.149c-2.385-1.384-3.578-3.2-3.578-5.006l.015-4.432a5.215,5.215,0,0,1,2.047-3.917,10.79,10.79,0,0,1-.442-3.033,10.594,10.594,0,1,1,20.717,3.136,5.2,5.2,0,0,1,1.988,3.858L44.6,24.532c0,1.8-1.178,3.578-3.519,4.947a13.917,13.917,0,0,1-3.136,1.31,45,45,0,0,0,2.842,11.839,23.563,23.563,0,0,0,1.929,4.034,19.435,19.435,0,0,1,2.842,1.355c3.7,2.12,5.522,4.9,5.492,7.686Z" transform="translate(-13.881 -2.504)" fill="#b0b8cf"/>
        </g>
        <g id="Grupo_176681" data-name="Grupo 176681" transform="translate(13.879 2.5)">
          <path id="Trazado_221134" data-name="Trazado 221134" d="M35.925,55.964c-5.814.628-12.057-.36-16.577-2.97-3.652-2.109-5.477-4.883-5.47-7.654l.028-6.795c-.008,2.771,1.817,5.545,5.47,7.654,7.287,4.207,19.053,4.2,26.28,0,3.584-2.083,5.381-4.813,5.389-7.549l-.028,6.795c-.008,2.736-1.8,5.466-5.389,7.549a27.966,27.966,0,0,1-9.7,2.97Z" transform="translate(-13.879 14.53)" fill="#c9cee2"/>
          <path id="Trazado_221135" data-name="Trazado 221135" d="M45.64,49.064c-7.217,4.187-18.992,4.2-26.268,0s-7.306-11.018-.074-15.22a22.343,22.343,0,0,1,2.747-1.322,15.55,15.55,0,0,1-.935,1.485,4.29,4.29,0,0,0-.861,2.48v.059c0,1.722,1.2,3.445,3.579,4.752,4.811,2.643,12.547,2.643,17.3,0,2.376-1.307,3.549-3.029,3.534-4.752a4.354,4.354,0,0,0-.995-2.658,14.615,14.615,0,0,1-.965-1.4,20.992,20.992,0,0,1,2.851,1.351c7.291,4.2,7.306,11.018.089,15.22Z" transform="translate(-13.869 11.67)" fill="#e3e7f0"/>
          <g id="Grupo_176676" data-name="Grupo 176676" transform="translate(6.429 48.212)">
            <path id="Trazado_221136" data-name="Trazado 221136" d="M42.553,35.308l-.018,4.939c-.005,1.706-1.18,3.409-3.525,4.707-4.727,2.619-12.422,2.624-17.188,0-2.389-1.315-3.583-3.045-3.577-4.773l.018-4.939c-.005,1.728,1.189,3.458,3.577,4.773,4.766,2.624,12.462,2.619,17.188,0,2.344-1.3,3.519-3,3.525-4.707Z" transform="translate(-18.245 -35.242)" fill="#b0b8cf"/>
          </g>
          <path id="Trazado_221137" data-name="Trazado 221137" d="M42.623,41.692c.015,1.722-1.158,3.445-3.534,4.752-4.752,2.643-12.488,2.643-17.3,0-2.376-1.307-3.579-3.029-3.579-4.752v-.059a4.29,4.29,0,0,1,.861-2.48,20.8,20.8,0,0,0,2.658-5.405A48.93,48.93,0,0,0,24.477,21.6a20.055,20.055,0,0,0,11.419.163A45.031,45.031,0,0,0,38.732,33.6a20.584,20.584,0,0,0,2.9,5.435,4.354,4.354,0,0,1,.995,2.658Z" transform="translate(-11.832 6.525)" fill="#c9cee2"/>
          <g id="Grupo_176678" data-name="Grupo 176678" transform="translate(6.424 17.525)">
            <g id="Grupo_176677" data-name="Grupo 176677">
              <path id="Trazado_221138" data-name="Trazado 221138" d="M42.56,14.471l-.018,4.446c-.005,1.79-1.181,3.577-3.526,4.939-4.729,2.748-12.427,2.753-17.2,0-2.39-1.38-3.584-3.2-3.579-5.008L18.26,14.4c-.005,1.813,1.189,3.628,3.579,5.008,4.768,2.753,12.467,2.748,17.2,0,2.345-1.363,3.521-3.149,3.526-4.939Z" transform="translate(-18.242 -14.402)" fill="#b0b8cf"/>
            </g>
          </g>
          <g id="Grupo_176680" data-name="Grupo 176680" transform="translate(6.443 13.634)">
            <g id="Grupo_176679" data-name="Grupo 176679">
              <path id="Trazado_221139" data-name="Trazado 221139" d="M39.024,20.654c-4.722,2.747-12.429,2.762-17.2,0-4.187-2.406-4.692-6.162-1.529-8.895a10.592,10.592,0,0,0,20.269.089c3.089,2.717,2.569,6.43-1.544,8.805Z" transform="translate(-18.255 -11.759)" fill="#c9cee2"/>
            </g>
          </g>
          <circle id="Elipse_6215" data-name="Elipse 6215" cx="10.593" cy="10.593" r="10.593" transform="translate(8.041)" fill="#e3e7f0"/>
        </g>
      </g>
      <path id="Trazado_221094-2" data-name="Trazado 221094" d="M16990.6-6819.166s11.113,5.22,7.408,20.037" transform="translate(1604 752)" fill="none" stroke="#707070" stroke-width="2"/>
      <path id="Trazado_221095-2" data-name="Trazado 221095" d="M16998.768-6819.166s-11.113,5.22-7.408,20.037" transform="translate(1576.43 752)" fill="none" stroke="#707070" stroke-width="2"/>
      <path id="Trazado_221096-2" data-name="Trazado 221096" d="M16990.6-6819.166s16.057,7.541,10.7,28.943" transform="translate(1610.084 745.548)" fill="none" stroke="#707070" stroke-width="2"/>
      <path id="Trazado_221097-2" data-name="Trazado 221097" d="M17002.4-6819.166s-16.057,7.541-10.7,28.943" transform="translate(1566.717 745.548)" fill="none" stroke="#707070" stroke-width="2"/>
      <path id="Trazado_221098-2" data-name="Trazado 221098" d="M16990.6-6819.166s21,9.863,14,37.857" transform="translate(1616.166 738.414)" fill="none" stroke="#707070" stroke-width="2"/>
      <path id="Trazado_221099-2" data-name="Trazado 221099" d="M17006.031-6819.166s-21,9.863-14,37.857" transform="translate(1557.002 738.414)" fill="none" stroke="#707070" stroke-width="2"/>
      <path id="Trazado_224711" data-name="Trazado 224711" d="M0,.7V13.5H8.578V11.382H2.637V7.936H7.7V5.889H2.637V2.839H8.561V.7Z" transform="translate(18547 -5895)" fill="#12263f"/>
      <path id="Trazado_224712" data-name="Trazado 224712" d="M15.108,10.872a.816.816,0,0,0-.462-.733,5.243,5.243,0,0,0-1.48-.48Q9.773,8.948,9.773,6.776a2.615,2.615,0,0,1,1.05-2.114,4.245,4.245,0,0,1,2.747-.848,4.558,4.558,0,0,1,2.9.853,2.686,2.686,0,0,1,1.086,2.215h-2.54a1.234,1.234,0,0,0-.351-.9,1.5,1.5,0,0,0-1.1-.355,1.521,1.521,0,0,0-.993.29.916.916,0,0,0-.352.738.781.781,0,0,0,.4.681,4.086,4.086,0,0,0,1.349.449,11.066,11.066,0,0,1,1.6.426,2.628,2.628,0,0,1,2.013,2.558,2.478,2.478,0,0,1-1.116,2.1,4.813,4.813,0,0,1-2.883.8,5.048,5.048,0,0,1-2.123-.426A3.544,3.544,0,0,1,10,12.08a2.71,2.71,0,0,1-.528-1.6h2.408a1.331,1.331,0,0,0,.5,1.038,1.99,1.99,0,0,0,1.248.36,1.849,1.849,0,0,0,1.1-.276.865.865,0,0,0,.374-.726" transform="translate(18548 -5895)" fill="#12263f"/>
      <path id="Trazado_224713" data-name="Trazado 224713" d="M22.254,1.652V3.99H23.88V5.853H22.254V10.6a1.131,1.131,0,0,0,.2.756,1.018,1.018,0,0,0,.774.229,4.052,4.052,0,0,0,.747-.062v1.925a5.241,5.241,0,0,1-1.538.228,2.425,2.425,0,0,1-2.725-2.7V5.853H18.325V3.99h1.389V1.652Z" transform="translate(18548 -5895)" fill="#12263f"/>
      <path id="Trazado_224714" data-name="Trazado 224714" d="M28.037,13.5H25.5V3.99h2.54ZM27.29.132h2.769L27.624,2.857H25.559Z" transform="translate(18548 -5895)" fill="#12263f"/>
      <path id="Trazado_224715" data-name="Trazado 224715" d="M32.607,3.99l.079,1.063A3.343,3.343,0,0,1,35.42,3.814a2.537,2.537,0,0,1,2.522,1.45A3.267,3.267,0,0,1,40.8,3.814a2.838,2.838,0,0,1,2.3.9,4.141,4.141,0,0,1,.756,2.712V13.5H41.308V7.422a1.821,1.821,0,0,0-.316-1.186,1.4,1.4,0,0,0-1.116-.374,1.584,1.584,0,0,0-1.582,1.093L38.3,13.5h-2.54V7.43a1.794,1.794,0,0,0-.325-1.2,1.413,1.413,0,0,0-1.107-.37,1.646,1.646,0,0,0-1.565.9V13.5h-2.54V3.99Z" transform="translate(18548 -5895)" fill="#12263f"/>
      <path id="Trazado_224716" data-name="Trazado 224716" d="M51.5,12.533a3.185,3.185,0,0,1-2.6,1.143,3.007,3.007,0,0,1-2.334-.879,3.756,3.756,0,0,1-.821-2.576V3.99h2.54v6.15q0,1.488,1.354,1.488a1.833,1.833,0,0,0,1.775-.9V3.99h2.549V13.5H51.574Z" transform="translate(18548 -5895)" fill="#12263f"/>
      <rect id="Rectángulo_57242" data-name="Rectángulo 57242" width="2.549" height="13.5" transform="translate(18604.014 -5895)" fill="#12263f"/>
      <path id="Trazado_224717" data-name="Trazado 224717" d="M60.258,8.657A5.642,5.642,0,0,1,60.8,6.135a3.99,3.99,0,0,1,1.568-1.714,4.584,4.584,0,0,1,2.378-.606,4.331,4.331,0,0,1,3.142,1.177,4.731,4.731,0,0,1,1.358,3.2l.018.65a4.97,4.97,0,0,1-1.222,3.512,4.736,4.736,0,0,1-6.561,0,5.057,5.057,0,0,1-1.226-3.586Zm2.54.181a3.549,3.549,0,0,0,.51,2.072,1.83,1.83,0,0,0,2.9.009,3.885,3.885,0,0,0,.519-2.267,3.516,3.516,0,0,0-.519-2.059,1.686,1.686,0,0,0-1.459-.731,1.659,1.659,0,0,0-1.441.727,3.949,3.949,0,0,0-.51,2.249" transform="translate(18548 -5895)" fill="#12263f"/>
      <path id="Trazado_224718" data-name="Trazado 224718" d="M475.637,8.991V13.5H473V.7h4.992a5.773,5.773,0,0,1,2.536.527,3.9,3.9,0,0,1,1.683,1.5,4.178,4.178,0,0,1,.589,2.211,3.678,3.678,0,0,1-1.288,2.967,5.364,5.364,0,0,1-3.563,1.085Zm0-2.136h2.355a2.314,2.314,0,0,0,1.6-.492,1.791,1.791,0,0,0,.55-1.406,2.113,2.113,0,0,0-.554-1.521,2.068,2.068,0,0,0-1.529-.6h-2.417Z" transform="translate(18526 -5895)" fill="#12263f"/>
      <path id="Trazado_224719" data-name="Trazado 224719" d="M489.787,6.372a6.872,6.872,0,0,0-.914-.07,1.861,1.861,0,0,0-1.89.975V13.5h-2.54V3.99h2.4l.07,1.134a2.354,2.354,0,0,1,2.118-1.31,2.636,2.636,0,0,1,.791.115Z" transform="translate(18526 -5895)" fill="#12263f"/>
      <path id="Trazado_224720" data-name="Trazado 224720" d="M490.991,1.529a1.249,1.249,0,0,1,.382-.94,1.645,1.645,0,0,1,2.079,0,1.242,1.242,0,0,1,.387.94,1.246,1.246,0,0,1-.392.949,1.629,1.629,0,0,1-2.065,0,1.245,1.245,0,0,1-.391-.949m2.7,11.971H491.14V3.99h2.549Z" transform="translate(18526 -5895)" fill="#12263f"/>
      <path id="Trazado_224721" data-name="Trazado 224721" d="M498.163,3.99l.079,1.063a3.343,3.343,0,0,1,2.734-1.239,2.537,2.537,0,0,1,2.522,1.45,3.267,3.267,0,0,1,2.856-1.45,2.838,2.838,0,0,1,2.3.9,4.141,4.141,0,0,1,.756,2.712V13.5h-2.549V7.422a1.821,1.821,0,0,0-.316-1.186,1.4,1.4,0,0,0-1.116-.374,1.584,1.584,0,0,0-1.582,1.093l.008,6.545h-2.54V7.43a1.794,1.794,0,0,0-.325-1.2,1.413,1.413,0,0,0-1.107-.37,1.646,1.646,0,0,0-1.565.9V13.5h-2.54V3.99Z" transform="translate(18526 -5895)" fill="#12263f"/>
      <path id="Trazado_224722" data-name="Trazado 224722" d="M515.741,13.675a4.667,4.667,0,0,1-3.406-1.283,4.56,4.56,0,0,1-1.314-3.419V8.727a5.743,5.743,0,0,1,.554-2.561,4.071,4.071,0,0,1,1.568-1.741,4.411,4.411,0,0,1,2.317-.611,3.943,3.943,0,0,1,3.071,1.231,5,5,0,0,1,1.121,3.489V9.571H513.6a2.359,2.359,0,0,0,.742,1.494,2.245,2.245,0,0,0,1.569.563,2.742,2.742,0,0,0,2.294-1.064l1.248,1.4a3.794,3.794,0,0,1-1.547,1.26,5.07,5.07,0,0,1-2.162.453m-.29-7.813a1.591,1.591,0,0,0-1.227.512,2.658,2.658,0,0,0-.6,1.466h3.533v-.2a1.888,1.888,0,0,0-.457-1.31,1.634,1.634,0,0,0-1.248-.464" transform="translate(18526 -5895)" fill="#12263f"/>
      <path id="Trazado_224723" data-name="Trazado 224723" d="M526.438,6.372a6.9,6.9,0,0,0-.915-.07,1.862,1.862,0,0,0-1.89.975V13.5h-2.54V3.99h2.4l.07,1.134a2.354,2.354,0,0,1,2.118-1.31,2.635,2.635,0,0,1,.791.115Z" transform="translate(18526 -5895)" fill="#12263f"/>
      <path id="Trazado_224724" data-name="Trazado 224724" d="M534.523,3.99l.079,1.063a3.343,3.343,0,0,1,2.734-1.239,2.537,2.537,0,0,1,2.522,1.45,3.267,3.267,0,0,1,2.856-1.45,2.838,2.838,0,0,1,2.3.9,4.141,4.141,0,0,1,.756,2.712V13.5h-2.549V7.422a1.821,1.821,0,0,0-.316-1.186,1.4,1.4,0,0,0-1.116-.374,1.584,1.584,0,0,0-1.582,1.093l.008,6.545h-2.54V7.43a1.794,1.794,0,0,0-.325-1.2,1.413,1.413,0,0,0-1.107-.37,1.646,1.646,0,0,0-1.565.9V13.5h-2.54V3.99Z" transform="translate(18526 -5895)" fill="#12263f"/>
      <path id="Trazado_224725" data-name="Trazado 224725" d="M547.329,8.657a5.641,5.641,0,0,1,.545-2.522,3.989,3.989,0,0,1,1.568-1.714,4.584,4.584,0,0,1,2.378-.606,4.331,4.331,0,0,1,3.142,1.177,4.731,4.731,0,0,1,1.358,3.2l.018.65a4.97,4.97,0,0,1-1.222,3.512,4.736,4.736,0,0,1-6.561,0,5.057,5.057,0,0,1-1.226-3.586Zm2.54.181a3.549,3.549,0,0,0,.51,2.072,1.83,1.83,0,0,0,2.9.009,3.885,3.885,0,0,0,.519-2.267,3.516,3.516,0,0,0-.519-2.059,1.686,1.686,0,0,0-1.459-.731,1.659,1.659,0,0,0-1.441.727,3.949,3.949,0,0,0-.51,2.249" transform="translate(18526 -5895)" fill="#12263f"/>
      <path id="Trazado_224726" data-name="Trazado 224726" d="M560.284,3.99l.079,1.063A3.343,3.343,0,0,1,563.1,3.814a2.537,2.537,0,0,1,2.522,1.45,3.266,3.266,0,0,1,2.856-1.45,2.838,2.838,0,0,1,2.3.9,4.141,4.141,0,0,1,.756,2.712V13.5h-2.549V7.422a1.821,1.821,0,0,0-.316-1.186,1.4,1.4,0,0,0-1.116-.374,1.584,1.584,0,0,0-1.582,1.093l.008,6.545h-2.54V7.43a1.794,1.794,0,0,0-.325-1.2,1.413,1.413,0,0,0-1.107-.37,1.646,1.646,0,0,0-1.565.9V13.5H557.9V3.99Z" transform="translate(18526 -5895)" fill="#12263f"/>
      <path id="Trazado_224727" data-name="Trazado 224727" d="M577.862,13.675a4.668,4.668,0,0,1-3.406-1.283,4.56,4.56,0,0,1-1.314-3.419V8.727a5.743,5.743,0,0,1,.554-2.561,4.072,4.072,0,0,1,1.568-1.741,4.411,4.411,0,0,1,2.317-.611,3.942,3.942,0,0,1,3.071,1.231,5,5,0,0,1,1.121,3.489V9.571h-6.055a2.359,2.359,0,0,0,.742,1.494,2.245,2.245,0,0,0,1.569.563,2.742,2.742,0,0,0,2.294-1.064l1.248,1.4a3.794,3.794,0,0,1-1.547,1.26,5.07,5.07,0,0,1-2.162.453m-.29-7.813a1.591,1.591,0,0,0-1.227.512,2.658,2.658,0,0,0-.6,1.466h3.533v-.2a1.888,1.888,0,0,0-.457-1.31,1.634,1.634,0,0,0-1.248-.464" transform="translate(18526 -5895)" fill="#12263f"/>
      <path id="Trazado_224728" data-name="Trazado 224728" d="M585.553,3.99l.079,1.1a3.321,3.321,0,0,1,2.734-1.275,2.757,2.757,0,0,1,2.249.888,4.132,4.132,0,0,1,.756,2.654V13.5h-2.54V7.4a1.658,1.658,0,0,0-.351-1.177,1.575,1.575,0,0,0-1.169-.365,1.749,1.749,0,0,0-1.609.916V13.5h-2.54V3.99Z" transform="translate(18526 -5895)" fill="#12263f"/>
      <path id="Trazado_224729" data-name="Trazado 224729" d="M596.337,1.652V3.99h1.626V5.853h-1.626V10.6a1.131,1.131,0,0,0,.2.756,1.018,1.018,0,0,0,.774.229,4.052,4.052,0,0,0,.747-.062v1.925a5.241,5.241,0,0,1-1.538.228,2.425,2.425,0,0,1-2.725-2.7V5.853h-1.389V3.99H593.8V1.652Z" transform="translate(18526 -5895)" fill="#12263f"/>
      <path id="Trazado_224730" data-name="Trazado 224730" d="M598.719,8.657a5.642,5.642,0,0,1,.545-2.522,3.99,3.99,0,0,1,1.568-1.714,4.584,4.584,0,0,1,2.378-.606,4.331,4.331,0,0,1,3.142,1.177,4.731,4.731,0,0,1,1.358,3.2l.018.65a4.97,4.97,0,0,1-1.222,3.512,4.736,4.736,0,0,1-6.561,0,5.057,5.057,0,0,1-1.226-3.586Zm2.54.181a3.549,3.549,0,0,0,.51,2.072,1.83,1.83,0,0,0,2.9.009,3.885,3.885,0,0,0,.519-2.267,3.516,3.516,0,0,0-.519-2.059,1.686,1.686,0,0,0-1.459-.731,1.659,1.659,0,0,0-1.441.727,3.95,3.95,0,0,0-.51,2.249" transform="translate(18526 -5895)" fill="#12263f"/>
      <path id="Trazado_224731" data-name="Trazado 224731" d="M613.379,8.674a5.732,5.732,0,0,1,1-3.542,3.237,3.237,0,0,1,2.73-1.318A2.912,2.912,0,0,1,619.4,4.851V0h2.549V13.5h-2.294l-.123-1.011a2.988,2.988,0,0,1-2.443,1.186,3.227,3.227,0,0,1-2.694-1.322,5.915,5.915,0,0,1-1.015-3.679m2.54.181a3.775,3.775,0,0,0,.466,2.058,1.516,1.516,0,0,0,1.353.714,1.7,1.7,0,0,0,1.661-1V6.86a1.674,1.674,0,0,0-1.643-1q-1.837,0-1.837,2.993" transform="translate(18526 -5895)" fill="#12263f"/>
      <path id="Trazado_224732" data-name="Trazado 224732" d="M628.294,13.675a4.668,4.668,0,0,1-3.406-1.283,4.56,4.56,0,0,1-1.314-3.419V8.727a5.743,5.743,0,0,1,.554-2.561A4.072,4.072,0,0,1,625.7,4.425a4.411,4.411,0,0,1,2.317-.611,3.943,3.943,0,0,1,3.071,1.231,5,5,0,0,1,1.121,3.489V9.571H626.15a2.359,2.359,0,0,0,.742,1.494,2.245,2.245,0,0,0,1.569.563,2.742,2.742,0,0,0,2.294-1.064l1.248,1.4a3.794,3.794,0,0,1-1.547,1.26,5.07,5.07,0,0,1-2.162.453M628,5.862a1.591,1.591,0,0,0-1.227.512,2.658,2.658,0,0,0-.6,1.466h3.533v-.2a1.888,1.888,0,0,0-.457-1.31A1.634,1.634,0,0,0,628,5.862" transform="translate(18526 -5895)" fill="#12263f"/>
      <rect id="Rectángulo_57244" data-name="Rectángulo 57244" width="2.549" height="13.5" transform="translate(18998.965 -5871)" fill="#12263f"/>
      <path id="Trazado_224733" data-name="Trazado 224733" d="M483.117,37.5a2.783,2.783,0,0,1-.255-.853,3.073,3.073,0,0,1-2.4,1.028,3.377,3.377,0,0,1-2.316-.808,2.6,2.6,0,0,1-.918-2.039,2.688,2.688,0,0,1,1.12-2.321,5.532,5.532,0,0,1,3.239-.817h1.169v-.545a1.567,1.567,0,0,0-.339-1.055,1.331,1.331,0,0,0-1.067-.4,1.51,1.51,0,0,0-1.007.308,1.044,1.044,0,0,0-.364.843h-2.54a2.552,2.552,0,0,1,.51-1.529,3.365,3.365,0,0,1,1.441-1.1,5.262,5.262,0,0,1,2.092-.4,4.154,4.154,0,0,1,2.79.883A3.094,3.094,0,0,1,485.3,31.18V35.3a4.549,4.549,0,0,0,.378,2.048v.15Zm-2.1-1.767a2.175,2.175,0,0,0,1.037-.251,1.635,1.635,0,0,0,.7-.672V33.175h-.949q-1.906,0-2.03,1.319l-.009.149a1.014,1.014,0,0,0,.334.782,1.3,1.3,0,0,0,.914.308" transform="translate(18526 -5895)" fill="#12263f"/>
      <path id="Trazado_224734" data-name="Trazado 224734" d="M495.3,34.4l1.767-6.407h2.654l-3.208,9.51h-2.426l-3.208-9.51h2.654Z" transform="translate(18526 -5895)" fill="#12263f"/>
      <path id="Trazado_224735" data-name="Trazado 224735" d="M505.1,37.675a4.668,4.668,0,0,1-3.406-1.283,4.56,4.56,0,0,1-1.314-3.419v-.246a5.743,5.743,0,0,1,.554-2.561,4.072,4.072,0,0,1,1.568-1.741,4.411,4.411,0,0,1,2.317-.611,3.943,3.943,0,0,1,3.071,1.231,5,5,0,0,1,1.121,3.489v1.037h-6.055a2.359,2.359,0,0,0,.742,1.494,2.245,2.245,0,0,0,1.569.563,2.742,2.742,0,0,0,2.294-1.064l1.248,1.4a3.794,3.794,0,0,1-1.547,1.26,5.07,5.07,0,0,1-2.162.453m-.29-7.813a1.591,1.591,0,0,0-1.227.512,2.658,2.658,0,0,0-.6,1.466h3.533v-.2a1.888,1.888,0,0,0-.457-1.31,1.634,1.634,0,0,0-1.248-.464" transform="translate(18526 -5895)" fill="#12263f"/>
      <path id="Trazado_224736" data-name="Trazado 224736" d="M515.794,30.372a6.873,6.873,0,0,0-.914-.07,1.861,1.861,0,0,0-1.89.975V37.5h-2.54V27.99h2.4l.07,1.134a2.354,2.354,0,0,1,2.118-1.31,2.635,2.635,0,0,1,.791.115Z" transform="translate(18526 -5895)" fill="#12263f"/>
      <path id="Trazado_224737" data-name="Trazado 224737" d="M516.453,32.674a5.732,5.732,0,0,1,1-3.542,3.237,3.237,0,0,1,2.73-1.318,2.912,2.912,0,0,1,2.293,1.037V24h2.549V37.5h-2.294l-.123-1.011a2.988,2.988,0,0,1-2.443,1.186,3.226,3.226,0,0,1-2.694-1.322,5.915,5.915,0,0,1-1.015-3.679m2.54.181a3.776,3.776,0,0,0,.466,2.058,1.516,1.516,0,0,0,1.353.714,1.7,1.7,0,0,0,1.661-1V30.86a1.674,1.674,0,0,0-1.643-1q-1.838,0-1.837,2.993" transform="translate(18526 -5895)" fill="#12263f"/>
      <path id="Trazado_224738" data-name="Trazado 224738" d="M532.5,37.5a2.782,2.782,0,0,1-.255-.853,3.073,3.073,0,0,1-2.4,1.028,3.377,3.377,0,0,1-2.316-.808,2.6,2.6,0,0,1-.918-2.039,2.688,2.688,0,0,1,1.12-2.321,5.532,5.532,0,0,1,3.239-.817h1.169v-.545a1.567,1.567,0,0,0-.339-1.055,1.331,1.331,0,0,0-1.067-.4,1.51,1.51,0,0,0-1.007.308,1.044,1.044,0,0,0-.364.843h-2.54a2.552,2.552,0,0,1,.51-1.529,3.365,3.365,0,0,1,1.441-1.1,5.262,5.262,0,0,1,2.092-.4,4.154,4.154,0,0,1,2.79.883,3.094,3.094,0,0,1,1.033,2.483V35.3a4.549,4.549,0,0,0,.378,2.048v.15Zm-2.1-1.767a2.175,2.175,0,0,0,1.037-.251,1.634,1.634,0,0,0,.7-.672V33.175h-.949q-1.906,0-2.03,1.319l-.009.149a1.014,1.014,0,0,0,.334.782,1.3,1.3,0,0,0,.914.308" transform="translate(18526 -5895)" fill="#12263f"/>
      <path id="Trazado_224739" data-name="Trazado 224739" d="M536.246,32.674a5.732,5.732,0,0,1,1-3.542,3.237,3.237,0,0,1,2.73-1.318,2.912,2.912,0,0,1,2.293,1.037V24h2.549V37.5h-2.294l-.123-1.011a2.988,2.988,0,0,1-2.443,1.186,3.227,3.227,0,0,1-2.694-1.322,5.915,5.915,0,0,1-1.015-3.679m2.54.181a3.775,3.775,0,0,0,.466,2.058,1.516,1.516,0,0,0,1.353.714,1.7,1.7,0,0,0,1.661-1V30.86a1.674,1.674,0,0,0-1.643-1q-1.837,0-1.837,2.993" transform="translate(18526 -5895)" fill="#12263f"/>
      <path id="Trazado_224740" data-name="Trazado 224740" d="M551.381,32.3a13.5,13.5,0,0,1,.536-3.832,10.133,10.133,0,0,1,1.582-3.221,5.905,5.905,0,0,1,2.268-1.947l.492,1.371a6.11,6.11,0,0,0-2,2.936,13.6,13.6,0,0,0-.721,4.64v.273a13.867,13.867,0,0,0,.712,4.658,6.239,6.239,0,0,0,2.013,2.979l-.492,1.345a5.918,5.918,0,0,1-2.229-1.893,9.973,9.973,0,0,1-1.577-3.134,13.406,13.406,0,0,1-.58-3.709Z" transform="translate(18526 -5895)" fill="#12263f"/>
      <path id="Trazado_224741" data-name="Trazado 224741" d="M567.878,35.883a4.57,4.57,0,0,1-2.013,1.322,8.415,8.415,0,0,1-2.883.471,5.718,5.718,0,0,1-2.914-.725,4.837,4.837,0,0,1-1.933-2.1,7.4,7.4,0,0,1-.7-3.243v-.87a7.871,7.871,0,0,1,.645-3.319,4.8,4.8,0,0,1,1.863-2.144,6.139,6.139,0,0,1,6.412.343,4.637,4.637,0,0,1,1.521,3.16h-2.566a2.554,2.554,0,0,0-.779-1.609,2.481,2.481,0,0,0-1.656-.51,2.339,2.339,0,0,0-2.048,1.011,5.315,5.315,0,0,0-.712,3.006v.817a5.056,5.056,0,0,0,.765,3.041,2.618,2.618,0,0,0,2.241,1.029,2.924,2.924,0,0,0,2.118-.633V32.719h-2.4V30.777h5.036Z" transform="translate(18526 -5895)" fill="#12263f"/>
      <path id="Trazado_224742" data-name="Trazado 224742" d="M569.451,32.657A5.629,5.629,0,0,1,570,30.135a3.978,3.978,0,0,1,1.568-1.714,4.584,4.584,0,0,1,2.378-.607,4.332,4.332,0,0,1,3.142,1.178,4.731,4.731,0,0,1,1.358,3.2l.018.651a4.975,4.975,0,0,1-1.222,3.512,4.736,4.736,0,0,1-6.562,0,5.057,5.057,0,0,1-1.225-3.586Zm2.54.181a3.549,3.549,0,0,0,.51,2.072,1.83,1.83,0,0,0,2.9.009,3.887,3.887,0,0,0,.519-2.267,3.516,3.516,0,0,0-.519-2.059,1.684,1.684,0,0,0-1.459-.731,1.655,1.655,0,0,0-1.441.727,3.95,3.95,0,0,0-.51,2.249M574.443,24h2.769l-2.435,2.725h-2.065Z" transform="translate(18526 -5895)" fill="#12263f"/>
      <path id="Trazado_224743" data-name="Trazado 224743" d="M582.362,27.99l.079,1.1a3.321,3.321,0,0,1,2.734-1.275,2.758,2.758,0,0,1,2.249.888,4.132,4.132,0,0,1,.756,2.654V37.5h-2.54V31.4a1.658,1.658,0,0,0-.351-1.177,1.576,1.576,0,0,0-1.169-.365,1.749,1.749,0,0,0-1.609.916V37.5h-2.54V27.99Z" transform="translate(18526 -5895)" fill="#12263f"/>
      <path id="Trazado_224744" data-name="Trazado 224744" d="M589.71,32.674a5.732,5.732,0,0,1,1-3.542,3.237,3.237,0,0,1,2.73-1.318,2.912,2.912,0,0,1,2.293,1.037V24h2.549V37.5h-2.294l-.123-1.011a2.988,2.988,0,0,1-2.443,1.186,3.227,3.227,0,0,1-2.694-1.322,5.915,5.915,0,0,1-1.015-3.679m2.54.181a3.776,3.776,0,0,0,.466,2.058,1.516,1.516,0,0,0,1.353.714,1.7,1.7,0,0,0,1.661-1V30.86a1.674,1.674,0,0,0-1.643-1q-1.837,0-1.837,2.993" transform="translate(18526 -5895)" fill="#12263f"/>
      <path id="Trazado_224745" data-name="Trazado 224745" d="M599.853,32.657a5.641,5.641,0,0,1,.545-2.522,3.989,3.989,0,0,1,1.568-1.714,4.584,4.584,0,0,1,2.378-.606,4.331,4.331,0,0,1,3.142,1.177,4.731,4.731,0,0,1,1.358,3.2l.018.65a4.97,4.97,0,0,1-1.222,3.512,4.736,4.736,0,0,1-6.561,0,5.057,5.057,0,0,1-1.226-3.586Zm2.54.181a3.549,3.549,0,0,0,.51,2.072,1.83,1.83,0,0,0,2.9.009,3.885,3.885,0,0,0,.519-2.267,3.516,3.516,0,0,0-.519-2.059,1.686,1.686,0,0,0-1.459-.731,1.659,1.659,0,0,0-1.441.727,3.949,3.949,0,0,0-.51,2.249" transform="translate(18526 -5895)" fill="#12263f"/>
      <rect id="Rectángulo_57245" data-name="Rectángulo 57245" width="2.549" height="13.5" transform="translate(19136.557 -5871)" fill="#12263f"/>
      <path id="Trazado_224746" data-name="Trazado 224746" d="M620.709,37.5a2.784,2.784,0,0,1-.255-.853,3.073,3.073,0,0,1-2.4,1.028,3.377,3.377,0,0,1-2.316-.808,2.6,2.6,0,0,1-.918-2.039,2.688,2.688,0,0,1,1.12-2.321,5.532,5.532,0,0,1,3.239-.817h1.169v-.545a1.567,1.567,0,0,0-.339-1.055,1.331,1.331,0,0,0-1.067-.4,1.51,1.51,0,0,0-1.007.308,1.044,1.044,0,0,0-.364.843h-2.54a2.552,2.552,0,0,1,.51-1.529,3.365,3.365,0,0,1,1.441-1.1,5.262,5.262,0,0,1,2.092-.4,4.154,4.154,0,0,1,2.79.883A3.094,3.094,0,0,1,622.9,31.18V35.3a4.549,4.549,0,0,0,.378,2.048v.15Zm-2.1-1.767a2.175,2.175,0,0,0,1.037-.251,1.635,1.635,0,0,0,.7-.672V33.175H619.4q-1.906,0-2.03,1.319l-.009.149a1.014,1.014,0,0,0,.334.782,1.3,1.3,0,0,0,.914.308" transform="translate(18526 -5895)" fill="#12263f"/>
      <path id="Trazado_224747" data-name="Trazado 224747" d="M629.226,32.5a12.792,12.792,0,0,1-.571,3.823,10.369,10.369,0,0,1-1.644,3.243,5.919,5.919,0,0,1-2.294,1.934l-.492-1.345a6.181,6.181,0,0,0,1.969-2.9,13.456,13.456,0,0,0,.747-4.509v-.466a13.723,13.723,0,0,0-.717-4.632,6.443,6.443,0,0,0-2-3l.492-1.345a5.926,5.926,0,0,1,2.254,1.881,10.253,10.253,0,0,1,1.644,3.173,12.741,12.741,0,0,1,.611,3.752Z" transform="translate(18526 -5895)" fill="#12263f"/>
      <path id="Trazado_224748" data-name="Trazado 224748" d="M403.1,104.466l.246,1.687.36-1.52,2.532-8.93h1.424l2.469,8.93.352,1.547.272-1.723,1.987-8.754h1.7l-3.1,12.8H409.8l-2.636-9.325-.2-.976-.2.976-2.733,9.325h-1.538l-3.094-12.8h1.688Z" transform="translate(18526 -5895)" fill="#40514f"/>
      <path id="Trazado_224749" data-name="Trazado 224749" d="M417.684,100.141a3.457,3.457,0,0,1,2.813-1.327q3.014,0,3.041,3.4V108.5h-1.626v-6.293a2.192,2.192,0,0,0-.471-1.52,1.884,1.884,0,0,0-1.437-.492,2.339,2.339,0,0,0-1.388.422,2.861,2.861,0,0,0-.932,1.107V108.5h-1.626V95h1.626Z" transform="translate(18526 -5895)" fill="#40514f"/>
      <path id="Trazado_224750" data-name="Trazado 224750" d="M425.98,96.468a.97.97,0,0,1,.242-.668.906.906,0,0,1,.716-.273.92.92,0,0,1,.721.273.959.959,0,0,1,.246.668.93.93,0,0,1-.246.659.941.941,0,0,1-.721.263.926.926,0,0,1-.716-.263.94.94,0,0,1-.242-.659m1.758,12.032h-1.626V98.99h1.626Z" transform="translate(18526 -5895)" fill="#40514f"/>
      <path id="Trazado_224751" data-name="Trazado 224751" d="M434.154,107.348a2.347,2.347,0,0,0,1.521-.527,1.858,1.858,0,0,0,.72-1.319h1.538a2.943,2.943,0,0,1-.562,1.556,3.713,3.713,0,0,1-1.385,1.178,3.989,3.989,0,0,1-1.832.439,3.914,3.914,0,0,1-3.09-1.3,5.163,5.163,0,0,1-1.146-3.546v-.272a5.739,5.739,0,0,1,.509-2.47,3.89,3.89,0,0,1,1.463-1.679,4.164,4.164,0,0,1,2.255-.6,3.81,3.81,0,0,1,2.658.958,3.426,3.426,0,0,1,1.13,2.487h-1.538a2.236,2.236,0,0,0-.7-1.515,2.168,2.168,0,0,0-1.551-.594,2.279,2.279,0,0,0-1.921.892,4.189,4.189,0,0,0-.68,2.579v.308a4.1,4.1,0,0,0,.676,2.531,2.288,2.288,0,0,0,1.934.888" transform="translate(18526 -5895)" fill="#40514f"/>
      <path id="Trazado_224752" data-name="Trazado 224752" d="M441.388,100.141a3.457,3.457,0,0,1,2.813-1.327q3.014,0,3.041,3.4V108.5h-1.626v-6.293a2.192,2.192,0,0,0-.471-1.52,1.884,1.884,0,0,0-1.437-.492,2.339,2.339,0,0,0-1.388.422,2.861,2.861,0,0,0-.932,1.107V108.5h-1.626V95h1.626Z" transform="translate(18526 -5895)" fill="#40514f"/>
      <path id="Trazado_224753" data-name="Trazado 224753" d="M462.183,103.851a5.656,5.656,0,0,1-1,3.5,3.2,3.2,0,0,1-2.689,1.322A3.316,3.316,0,0,1,455.7,107.4l-.079,1.1h-1.494V95h1.626v5.036a3.3,3.3,0,0,1,2.716-1.222,3.221,3.221,0,0,1,2.72,1.31,5.825,5.825,0,0,1,.989,3.586Zm-1.626-.185a4.39,4.39,0,0,0-.642-2.566,2.122,2.122,0,0,0-1.845-.906,2.387,2.387,0,0,0-2.312,1.494V105.8a2.454,2.454,0,0,0,2.329,1.494,2.114,2.114,0,0,0,1.82-.9,4.679,4.679,0,0,0,.65-2.725" transform="translate(18526 -5895)" fill="#40514f"/>
      <path id="Trazado_224754" data-name="Trazado 224754" d="M468.177,108.675a4.151,4.151,0,0,1-3.146-1.269,4.715,4.715,0,0,1-1.213-3.4v-.3a5.7,5.7,0,0,1,.54-2.527,4.212,4.212,0,0,1,1.512-1.74,3.8,3.8,0,0,1,2.105-.629,3.562,3.562,0,0,1,2.883,1.222,5.291,5.291,0,0,1,1.028,3.5v.677h-6.442a3.376,3.376,0,0,0,.821,2.271,2.58,2.58,0,0,0,2,.866,2.835,2.835,0,0,0,1.459-.351,3.68,3.68,0,0,0,1.046-.932l.993.773a3.993,3.993,0,0,1-3.586,1.837m-.2-8.525a2.167,2.167,0,0,0-1.652.717,3.477,3.477,0,0,0-.827,2.008h4.764v-.123a3.091,3.091,0,0,0-.668-1.92,2.041,2.041,0,0,0-1.617-.682" transform="translate(18526 -5895)" fill="#40514f"/>
      <path id="Trazado_224755" data-name="Trazado 224755" d="M477.581,107.348a2.347,2.347,0,0,0,1.521-.527,1.858,1.858,0,0,0,.72-1.319h1.538a2.943,2.943,0,0,1-.562,1.556,3.713,3.713,0,0,1-1.385,1.178,3.989,3.989,0,0,1-1.832.439,3.914,3.914,0,0,1-3.09-1.3,5.163,5.163,0,0,1-1.146-3.546v-.272a5.739,5.739,0,0,1,.509-2.47,3.89,3.89,0,0,1,1.463-1.679,4.164,4.164,0,0,1,2.255-.6,3.81,3.81,0,0,1,2.658.958,3.426,3.426,0,0,1,1.13,2.487h-1.538a2.236,2.236,0,0,0-.7-1.515,2.168,2.168,0,0,0-1.551-.594,2.279,2.279,0,0,0-1.921.892,4.189,4.189,0,0,0-.68,2.579v.308a4.1,4.1,0,0,0,.676,2.531,2.288,2.288,0,0,0,1.934.888" transform="translate(18526 -5895)" fill="#40514f"/>
      <path id="Trazado_224756" data-name="Trazado 224756" d="M482.758,103.657a5.62,5.62,0,0,1,.549-2.514,4.1,4.1,0,0,1,1.529-1.723,4.171,4.171,0,0,1,2.238-.606,4.007,4.007,0,0,1,3.141,1.345,5.17,5.17,0,0,1,1.2,3.577v.114a5.651,5.651,0,0,1-.532,2.491,4.026,4.026,0,0,1-1.52,1.719,4.21,4.21,0,0,1-2.272.615,4,4,0,0,1-3.134-1.345,5.15,5.15,0,0,1-1.2-3.559Zm1.635.193a4.07,4.07,0,0,0,.733,2.54,2.487,2.487,0,0,0,3.934-.014,4.444,4.444,0,0,0,.729-2.719,4.064,4.064,0,0,0-.743-2.536,2.36,2.36,0,0,0-1.972-.971,2.334,2.334,0,0,0-1.943.958,4.416,4.416,0,0,0-.738,2.742" transform="translate(18526 -5895)" fill="#40514f"/>
      <path id="Trazado_224757" data-name="Trazado 224757" d="M494.983,98.99l.044,1.055a3.51,3.51,0,0,1,2.821-1.231,2.719,2.719,0,0,1,2.716,1.53,3.593,3.593,0,0,1,1.234-1.108,3.654,3.654,0,0,1,1.8-.422q3.129,0,3.182,3.314V108.5h-1.626v-6.276a2.185,2.185,0,0,0-.466-1.525,2.054,2.054,0,0,0-1.564-.5,2.161,2.161,0,0,0-1.5.54,2.2,2.2,0,0,0-.695,1.455V108.5H499.29v-6.232a1.815,1.815,0,0,0-2.031-2.074,2.175,2.175,0,0,0-2.188,1.362V108.5h-1.626V98.99Z" transform="translate(18526 -5895)" fill="#40514f"/>
      <path id="Trazado_224758" data-name="Trazado 224758" d="M513.177,108.675a4.151,4.151,0,0,1-3.146-1.269,4.715,4.715,0,0,1-1.213-3.4v-.3a5.7,5.7,0,0,1,.54-2.527,4.212,4.212,0,0,1,1.512-1.74,3.8,3.8,0,0,1,2.1-.629,3.561,3.561,0,0,1,2.883,1.222,5.29,5.29,0,0,1,1.028,3.5v.677h-6.442a3.376,3.376,0,0,0,.821,2.271,2.58,2.58,0,0,0,2,.866,2.835,2.835,0,0,0,1.459-.351,3.681,3.681,0,0,0,1.046-.932l.993.773a3.993,3.993,0,0,1-3.586,1.837m-.2-8.525a2.167,2.167,0,0,0-1.652.717,3.477,3.477,0,0,0-.827,2.008h4.764v-.123a3.091,3.091,0,0,0-.668-1.92,2.041,2.041,0,0,0-1.617-.682" transform="translate(18526 -5895)" fill="#40514f"/>
      <path id="Trazado_224759" data-name="Trazado 224759" d="M524.3,105.977a1.2,1.2,0,0,0-.5-1.024,4.767,4.767,0,0,0-1.732-.628,8.187,8.187,0,0,1-1.959-.633,2.789,2.789,0,0,1-1.073-.879,2.105,2.105,0,0,1-.346-1.213,2.466,2.466,0,0,1,.988-1.977,3.857,3.857,0,0,1,2.527-.809,3.971,3.971,0,0,1,2.623.835,2.652,2.652,0,0,1,1.007,2.136h-1.635a1.469,1.469,0,0,0-.567-1.152,2.125,2.125,0,0,0-1.428-.483,2.219,2.219,0,0,0-1.388.387,1.215,1.215,0,0,0-.5,1.01.987.987,0,0,0,.465.888,5.719,5.719,0,0,0,1.683.571,8.786,8.786,0,0,1,1.974.651,2.878,2.878,0,0,1,1.12.909,2.241,2.241,0,0,1,.365,1.3,2.432,2.432,0,0,1-1.02,2.043,4.271,4.271,0,0,1-2.645.769,4.8,4.8,0,0,1-2.022-.4,3.314,3.314,0,0,1-1.376-1.129,2.725,2.725,0,0,1-.5-1.569H520a1.682,1.682,0,0,0,.655,1.3,2.536,2.536,0,0,0,1.613.479,2.611,2.611,0,0,0,1.48-.374,1.147,1.147,0,0,0,.559-1" transform="translate(18526 -5895)" fill="#40514f"/>
      <path id="Trazado_224760" data-name="Trazado 224760" d="M534.71,96.687v2.3h1.775v1.257H534.71v5.9a1.317,1.317,0,0,0,.237.857,1,1,0,0,0,.809.286,3.953,3.953,0,0,0,.773-.1v1.31a4.712,4.712,0,0,1-1.248.175,2.023,2.023,0,0,1-1.643-.659,2.831,2.831,0,0,1-.554-1.872v-5.9h-1.731V98.99h1.731v-2.3Z" transform="translate(18526 -5895)" fill="#40514f"/>
      <path id="Trazado_224761" data-name="Trazado 224761" d="M540.01,100.141a3.457,3.457,0,0,1,2.813-1.327q3.013,0,3.041,3.4V108.5h-1.626v-6.293a2.192,2.192,0,0,0-.471-1.52,1.885,1.885,0,0,0-1.437-.492,2.339,2.339,0,0,0-1.388.422,2.861,2.861,0,0,0-.932,1.107V108.5h-1.626V95h1.626Z" transform="translate(18526 -5895)" fill="#40514f"/>
      <path id="Trazado_224762" data-name="Trazado 224762" d="M552.244,108.675a4.151,4.151,0,0,1-3.146-1.269,4.715,4.715,0,0,1-1.213-3.4v-.3a5.7,5.7,0,0,1,.54-2.527,4.212,4.212,0,0,1,1.512-1.74,3.8,3.8,0,0,1,2.1-.629,3.561,3.561,0,0,1,2.883,1.222,5.291,5.291,0,0,1,1.028,3.5v.677h-6.442a3.376,3.376,0,0,0,.821,2.271,2.58,2.58,0,0,0,2,.866,2.835,2.835,0,0,0,1.459-.351,3.68,3.68,0,0,0,1.046-.932l.993.773a3.993,3.993,0,0,1-3.586,1.837m-.2-8.525a2.167,2.167,0,0,0-1.652.717,3.476,3.476,0,0,0-.827,2.008h4.764v-.123a3.091,3.091,0,0,0-.668-1.92,2.041,2.041,0,0,0-1.617-.682" transform="translate(18526 -5895)" fill="#40514f"/>
      <path id="Trazado_224763" data-name="Trazado 224763" d="M563.828,98.99l.053,1.195a3.465,3.465,0,0,1,2.847-1.371q3.015,0,3.041,3.4V108.5h-1.626v-6.293a2.188,2.188,0,0,0-.47-1.521,1.884,1.884,0,0,0-1.437-.492,2.346,2.346,0,0,0-1.388.422,2.86,2.86,0,0,0-.932,1.107V108.5H562.29V98.99Z" transform="translate(18526 -5895)" fill="#40514f"/>
      <path id="Trazado_224764" data-name="Trazado 224764" d="M576.168,108.675a4.151,4.151,0,0,1-3.146-1.269,4.715,4.715,0,0,1-1.213-3.4v-.3a5.7,5.7,0,0,1,.54-2.527,4.212,4.212,0,0,1,1.512-1.74,3.8,3.8,0,0,1,2.1-.629,3.561,3.561,0,0,1,2.883,1.222,5.291,5.291,0,0,1,1.028,3.5v.677h-6.442a3.376,3.376,0,0,0,.821,2.271,2.58,2.58,0,0,0,2,.866,2.835,2.835,0,0,0,1.459-.351,3.681,3.681,0,0,0,1.046-.932l.993.773a3.993,3.993,0,0,1-3.586,1.837m-.2-8.525a2.167,2.167,0,0,0-1.652.717,3.476,3.476,0,0,0-.827,2.008h4.764v-.123a3.091,3.091,0,0,0-.668-1.92,2.041,2.041,0,0,0-1.617-.682" transform="translate(18526 -5895)" fill="#40514f"/>
      <path id="Trazado_224765" data-name="Trazado 224765" d="M584.948,102.462l2.109-3.472h1.9l-3.112,4.7,3.208,4.808h-1.88l-2.2-3.559-2.2,3.559h-1.89l3.208-4.808-3.111-4.7h1.881Z" transform="translate(18526 -5895)" fill="#40514f"/>
      <path id="Trazado_224766" data-name="Trazado 224766" d="M592.885,96.687v2.3h1.775v1.257h-1.775v5.9a1.317,1.317,0,0,0,.237.857,1,1,0,0,0,.809.286,3.953,3.953,0,0,0,.773-.1v1.31a4.711,4.711,0,0,1-1.248.175,2.023,2.023,0,0,1-1.643-.659,2.831,2.831,0,0,1-.554-1.872v-5.9h-1.731V98.99h1.731v-2.3Z" transform="translate(18526 -5895)" fill="#40514f"/>
      <path id="Trazado_224767" data-name="Trazado 224767" d="M609.048,103.851a5.7,5.7,0,0,1-.993,3.5,3.186,3.186,0,0,1-2.69,1.327,3.485,3.485,0,0,1-2.724-1.1v4.579h-1.626V98.99H602.5l.079,1.055a3.351,3.351,0,0,1,2.76-1.231,3.242,3.242,0,0,1,2.711,1.292,5.759,5.759,0,0,1,1,3.595Zm-1.626-.185a4.2,4.2,0,0,0-.686-2.54,2.209,2.209,0,0,0-1.88-.932,2.39,2.39,0,0,0-2.215,1.31v4.544a2.394,2.394,0,0,0,2.232,1.3,2.2,2.2,0,0,0,1.859-.927,4.587,4.587,0,0,0,.69-2.756" transform="translate(18526 -5895)" fill="#40514f"/>
      <path id="Trazado_224768" data-name="Trazado 224768" d="M615.059,108.675a4.151,4.151,0,0,1-3.146-1.269,4.715,4.715,0,0,1-1.213-3.4v-.3a5.7,5.7,0,0,1,.54-2.527,4.212,4.212,0,0,1,1.512-1.74,3.8,3.8,0,0,1,2.1-.629,3.561,3.561,0,0,1,2.883,1.222,5.291,5.291,0,0,1,1.028,3.5v.677h-6.442a3.376,3.376,0,0,0,.821,2.271,2.58,2.58,0,0,0,2,.866,2.835,2.835,0,0,0,1.459-.351,3.68,3.68,0,0,0,1.046-.932l.993.773a3.993,3.993,0,0,1-3.586,1.837m-.2-8.525a2.167,2.167,0,0,0-1.652.717,3.476,3.476,0,0,0-.827,2.008h4.764v-.123a3.091,3.091,0,0,0-.668-1.92,2.041,2.041,0,0,0-1.617-.682" transform="translate(18526 -5895)" fill="#40514f"/>
      <path id="Trazado_224769" data-name="Trazado 224769" d="M625.246,100.449a4.874,4.874,0,0,0-.8-.062,2.144,2.144,0,0,0-2.171,1.363v6.75h-1.626V98.99h1.582l.027,1.1a2.531,2.531,0,0,1,2.267-1.275,1.661,1.661,0,0,1,.721.123Z" transform="translate(18526 -5895)" fill="#40514f"/>
      <path id="Trazado_224770" data-name="Trazado 224770" d="M632.277,105.977a1.2,1.2,0,0,0-.5-1.024,4.767,4.767,0,0,0-1.732-.628,8.188,8.188,0,0,1-1.959-.633,2.789,2.789,0,0,1-1.073-.879,2.105,2.105,0,0,1-.346-1.213,2.466,2.466,0,0,1,.988-1.977,3.857,3.857,0,0,1,2.527-.809,3.97,3.97,0,0,1,2.623.835,2.652,2.652,0,0,1,1.007,2.136H632.18a1.469,1.469,0,0,0-.567-1.152,2.125,2.125,0,0,0-1.428-.483,2.219,2.219,0,0,0-1.388.387,1.215,1.215,0,0,0-.5,1.01.987.987,0,0,0,.465.888,5.72,5.72,0,0,0,1.683.571,8.787,8.787,0,0,1,1.974.651,2.878,2.878,0,0,1,1.12.909,2.241,2.241,0,0,1,.365,1.3,2.433,2.433,0,0,1-1.02,2.043,4.272,4.272,0,0,1-2.645.769,4.8,4.8,0,0,1-2.022-.4,3.314,3.314,0,0,1-1.376-1.129,2.724,2.724,0,0,1-.5-1.569h1.626a1.682,1.682,0,0,0,.655,1.3,2.536,2.536,0,0,0,1.613.479,2.611,2.611,0,0,0,1.48-.374,1.147,1.147,0,0,0,.559-1" transform="translate(18526 -5895)" fill="#40514f"/>
      <path id="Trazado_224771" data-name="Trazado 224771" d="M635.591,103.657a5.619,5.619,0,0,1,.549-2.514,4.1,4.1,0,0,1,1.529-1.723,4.171,4.171,0,0,1,2.238-.606,4.007,4.007,0,0,1,3.141,1.345,5.17,5.17,0,0,1,1.2,3.577v.114a5.651,5.651,0,0,1-.532,2.491,4.026,4.026,0,0,1-1.52,1.719,4.21,4.21,0,0,1-2.272.615,4,4,0,0,1-3.134-1.345,5.15,5.15,0,0,1-1.2-3.559Zm1.635.193a4.07,4.07,0,0,0,.733,2.54,2.487,2.487,0,0,0,3.934-.014,4.444,4.444,0,0,0,.729-2.719,4.064,4.064,0,0,0-.743-2.536,2.36,2.36,0,0,0-1.972-.971,2.335,2.335,0,0,0-1.943.958,4.416,4.416,0,0,0-.738,2.742" transform="translate(18526 -5895)" fill="#40514f"/>
      <path id="Trazado_224772" data-name="Trazado 224772" d="M647.825,98.99l.053,1.195a3.465,3.465,0,0,1,2.847-1.371q3.015,0,3.041,3.4V108.5H652.14v-6.293a2.188,2.188,0,0,0-.47-1.521,1.884,1.884,0,0,0-1.437-.492,2.346,2.346,0,0,0-1.388.422,2.861,2.861,0,0,0-.932,1.107V108.5h-1.626V98.99Z" transform="translate(18526 -5895)" fill="#40514f"/>
      <path id="Trazado_224773" data-name="Trazado 224773" d="M657.766,95.017h1.969L657.379,97.6l-1.309,0Z" transform="translate(18526 -5895)" fill="#40514f"/>
      <path id="Trazado_224774" data-name="Trazado 224774" d="M667.4,105.977a1.2,1.2,0,0,0-.5-1.024,4.767,4.767,0,0,0-1.732-.628,8.187,8.187,0,0,1-1.959-.633,2.789,2.789,0,0,1-1.073-.879,2.105,2.105,0,0,1-.346-1.213,2.466,2.466,0,0,1,.988-1.977,3.857,3.857,0,0,1,2.527-.809,3.971,3.971,0,0,1,2.623.835,2.652,2.652,0,0,1,1.007,2.136H667.3a1.469,1.469,0,0,0-.567-1.152,2.125,2.125,0,0,0-1.428-.483,2.219,2.219,0,0,0-1.388.387,1.215,1.215,0,0,0-.5,1.01.987.987,0,0,0,.465.888,5.719,5.719,0,0,0,1.683.571,8.786,8.786,0,0,1,1.974.651,2.877,2.877,0,0,1,1.12.909,2.241,2.241,0,0,1,.365,1.3,2.432,2.432,0,0,1-1.02,2.043,4.272,4.272,0,0,1-2.645.769,4.8,4.8,0,0,1-2.022-.4,3.315,3.315,0,0,1-1.376-1.129,2.725,2.725,0,0,1-.5-1.569h1.626a1.682,1.682,0,0,0,.655,1.3,2.536,2.536,0,0,0,1.613.479,2.611,2.611,0,0,0,1.48-.374,1.147,1.147,0,0,0,.559-1" transform="translate(18526 -5895)" fill="#40514f"/>
      <path id="Trazado_224775" data-name="Trazado 224775" d="M677.119,107.12h7.321v1.38h-9.316v-1.266l7.014-10.151h-6.9V95.7h8.921v1.231Z" transform="translate(18526 -5895)" fill="#40514f"/>
      <path id="Trazado_224776" data-name="Trazado 224776" d="M688.809,95.7l4.184,10.441L697.176,95.7h2.189v12.8h-1.688v-4.984l.158-5.378-4.2,10.362h-1.292L688.15,98.164l.167,5.352V108.5h-1.688V95.7Z" transform="translate(18526 -5895)" fill="#40514f"/>
      <path id="Trazado_224777" data-name="Trazado 224777" d="M712.188,102.514a7.905,7.905,0,0,1-.633,3.282,4.791,4.791,0,0,1-1.793,2.141,4.945,4.945,0,0,1-7.2-2.123,7.56,7.56,0,0,1-.664-3.186v-.922a7.832,7.832,0,0,1,.641-3.261,4.75,4.75,0,0,1,4.5-2.918,4.972,4.972,0,0,1,2.712.742,4.8,4.8,0,0,1,1.806,2.154,7.953,7.953,0,0,1,.633,3.283Zm-1.679-.826a5.736,5.736,0,0,0-.914-3.493,3.014,3.014,0,0,0-2.558-1.218,2.982,2.982,0,0,0-2.518,1.218,5.615,5.615,0,0,0-.945,3.379v.94a5.749,5.749,0,0,0,.927,3.468,3.25,3.25,0,0,0,5.085.07,5.714,5.714,0,0,0,.923-3.415Z" transform="translate(18526 -5895)" fill="#40514f"/>
      <path id="Trazado_224778" data-name="Trazado 224778" d="M723.323,97.083H719.21V108.5h-1.679V97.083h-4.1V95.7h9.9Z" transform="translate(18526 -5895)" fill="#40514f"/>
      <path id="Trazado_224779" data-name="Trazado 224779" d="M276.326,17.558h8.96V20.5H271.748V18.351l8.789-12.658h-8.776V2.726h13.33v2.1Z" transform="translate(18526 -5895)" fill="#8c5be1"/>
      <path id="Trazado_224780" data-name="Trazado 224780" d="M292.378,2.726l4.565,12.891,4.541-12.891h4.81V20.5H302.62V15.641l.366-8.386-4.8,13.244h-2.515L290.889,7.267l.366,8.374V20.5h-3.662V2.726Z" transform="translate(18526 -5895)" fill="#0b67d1"/>
      <path id="Trazado_224781" data-name="Trazado 224781" d="M324.092,12.016a10.734,10.734,0,0,1-.928,4.6,6.977,6.977,0,0,1-2.655,3.052,7.844,7.844,0,0,1-7.9.012,7.041,7.041,0,0,1-2.686-3.034,10.414,10.414,0,0,1-.965-4.535v-.879a10.67,10.67,0,0,1,.947-4.62,7.04,7.04,0,0,1,2.672-3.063,7.83,7.83,0,0,1,7.9,0,7.042,7.042,0,0,1,2.673,3.063,10.645,10.645,0,0,1,.946,4.609Zm-3.711-.8a7.48,7.48,0,0,0-1-4.248,3.535,3.535,0,0,0-5.7-.019,7.386,7.386,0,0,0-1.014,4.205v.867a7.579,7.579,0,0,0,1,4.224,3.506,3.506,0,0,0,5.713.055,7.531,7.531,0,0,0,1-4.218Z" transform="translate(18526 -5895)" fill="#eeac3a"/>
      <path id="Trazado_224782" data-name="Trazado 224782" d="M340.132,5.693h-5.444V20.5h-3.662V5.693h-5.372V2.726h14.478Z" transform="translate(18526 -5895)" fill="#43a99b"/>
      <path id="Trazado_224783" data-name="Trazado 224783" d="M726.635,10.142A1.352,1.352,0,0,0,726.108,9a6.919,6.919,0,0,0-1.9-.844,13.49,13.49,0,0,1-2.17-.875A3.547,3.547,0,0,1,719.86,4.1a3.093,3.093,0,0,1,.584-1.851A3.81,3.81,0,0,1,722.122.984a6.312,6.312,0,0,1,2.456-.457,5.77,5.77,0,0,1,2.444.5,3.9,3.9,0,0,1,1.666,1.4,3.673,3.673,0,0,1,.593,2.057h-2.636a1.729,1.729,0,0,0-.555-1.367,2.275,2.275,0,0,0-1.555-.488,2.427,2.427,0,0,0-1.5.41,1.285,1.285,0,0,0-.535,1.076,1.235,1.235,0,0,0,.628,1.046,7.105,7.105,0,0,0,1.851.791,7.981,7.981,0,0,1,3.277,1.678,3.342,3.342,0,0,1,1.029,2.5,3.078,3.078,0,0,1-1.257,2.606,5.492,5.492,0,0,1-3.383.945,6.51,6.51,0,0,1-2.69-.541,4.248,4.248,0,0,1-1.85-1.48,3.793,3.793,0,0,1-.638-2.18h2.647q0,2.118,2.531,2.118a2.467,2.467,0,0,0,1.467-.382,1.247,1.247,0,0,0,.527-1.068" transform="translate(18526 -5895)" fill="#12263f"/>
      <path id="Trazado_224784" data-name="Trazado 224784" d="M735.275,13.675a4.666,4.666,0,0,1-3.406-1.283,4.561,4.561,0,0,1-1.315-3.419V8.727a5.743,5.743,0,0,1,.555-2.561,4.072,4.072,0,0,1,1.568-1.741,4.411,4.411,0,0,1,2.317-.611,3.943,3.943,0,0,1,3.071,1.231,5,5,0,0,1,1.12,3.489V9.571H733.13a2.365,2.365,0,0,0,.743,1.494,2.243,2.243,0,0,0,1.568.563,2.744,2.744,0,0,0,2.3-1.064l1.248,1.4a3.794,3.794,0,0,1-1.547,1.26,5.07,5.07,0,0,1-2.162.453m-.291-7.813a1.589,1.589,0,0,0-1.226.512,2.658,2.658,0,0,0-.6,1.466h3.533v-.2a1.888,1.888,0,0,0-.457-1.31,1.634,1.634,0,0,0-1.248-.464" transform="translate(18526 -5895)" fill="#12263f"/>
      <path id="Trazado_224785" data-name="Trazado 224785" d="M740.258,8.674A5.575,5.575,0,0,1,741.3,5.15a3.373,3.373,0,0,1,2.808-1.336,2.96,2.96,0,0,1,2.435,1.072l.106-.9h2.3v9.193a4.063,4.063,0,0,1-.567,2.171,3.637,3.637,0,0,1-1.595,1.406,5.594,5.594,0,0,1-2.408.484,5.222,5.222,0,0,1-2.039-.418,3.634,3.634,0,0,1-1.5-1.076l1.125-1.547a2.975,2.975,0,0,0,2.3,1.063,2.185,2.185,0,0,0,1.574-.54,2.03,2.03,0,0,0,.563-1.534v-.51a2.942,2.942,0,0,1-2.313.993,3.362,3.362,0,0,1-2.772-1.34,5.566,5.566,0,0,1-1.06-3.555Zm2.541.181a3.486,3.486,0,0,0,.518,2.035,1.647,1.647,0,0,0,1.423.737,1.764,1.764,0,0,0,1.663-.874V6.736a1.76,1.76,0,0,0-1.645-.874,1.658,1.658,0,0,0-1.437.751,3.935,3.935,0,0,0-.522,2.242" transform="translate(18526 -5895)" fill="#12263f"/>
      <path id="Trazado_224786" data-name="Trazado 224786" d="M756.6,12.533a3.185,3.185,0,0,1-2.6,1.143,3.007,3.007,0,0,1-2.334-.879,3.756,3.756,0,0,1-.822-2.576V3.99h2.541v6.15q0,1.488,1.354,1.488a1.833,1.833,0,0,0,1.775-.9V3.99h2.549V13.5h-2.391Z" transform="translate(18526 -5895)" fill="#12263f"/>
      <path id="Trazado_224787" data-name="Trazado 224787" d="M763.313,3.99l.077,1.1a3.322,3.322,0,0,1,2.735-1.275,2.758,2.758,0,0,1,2.249.888,4.132,4.132,0,0,1,.756,2.654V13.5h-2.541V7.4a1.658,1.658,0,0,0-.351-1.177,1.573,1.573,0,0,0-1.168-.365,1.751,1.751,0,0,0-1.61.916V13.5h-2.539V3.99Z" transform="translate(18526 -5895)" fill="#12263f"/>
      <path id="Trazado_224788" data-name="Trazado 224788" d="M770.66,8.674a5.732,5.732,0,0,1,1-3.542,3.237,3.237,0,0,1,2.729-1.318,2.911,2.911,0,0,1,2.293,1.037V0h2.549V13.5h-2.293l-.123-1.011a2.988,2.988,0,0,1-2.443,1.186,3.227,3.227,0,0,1-2.694-1.322,5.915,5.915,0,0,1-1.015-3.679m2.539.181a3.775,3.775,0,0,0,.467,2.058,1.516,1.516,0,0,0,1.353.714,1.7,1.7,0,0,0,1.66-1V6.86a1.673,1.673,0,0,0-1.642-1q-1.837,0-1.838,2.993" transform="translate(18526 -5895)" fill="#12263f"/>
      <path id="Trazado_224789" data-name="Trazado 224789" d="M780.8,8.657a5.641,5.641,0,0,1,.545-2.522,3.989,3.989,0,0,1,1.568-1.714,4.58,4.58,0,0,1,2.377-.606,4.334,4.334,0,0,1,3.143,1.177,4.731,4.731,0,0,1,1.357,3.2l.018.65a4.974,4.974,0,0,1-1.221,3.512,4.736,4.736,0,0,1-6.561,0A5.057,5.057,0,0,1,780.8,8.772Zm2.539.181a3.549,3.549,0,0,0,.51,2.072,1.83,1.83,0,0,0,2.9.009,3.884,3.884,0,0,0,.52-2.267,3.516,3.516,0,0,0-.52-2.059,1.686,1.686,0,0,0-1.459-.731,1.659,1.659,0,0,0-1.441.727,3.95,3.95,0,0,0-.51,2.249" transform="translate(18526 -5895)" fill="#12263f"/>
      <path id="Trazado_224790" data-name="Trazado 224790" d="M798.24,3.99l.078,1.063a3.345,3.345,0,0,1,2.735-1.239,2.536,2.536,0,0,1,2.521,1.45,3.268,3.268,0,0,1,2.857-1.45,2.838,2.838,0,0,1,2.3.9,4.141,4.141,0,0,1,.756,2.712V13.5h-2.549V7.422a1.821,1.821,0,0,0-.316-1.186,1.4,1.4,0,0,0-1.117-.374,1.585,1.585,0,0,0-1.582,1.093l.009,6.545h-2.541V7.43a1.794,1.794,0,0,0-.324-1.2,1.413,1.413,0,0,0-1.107-.37,1.646,1.646,0,0,0-1.565.9V13.5h-2.541V3.99Z" transform="translate(18526 -5895)" fill="#12263f"/>
      <path id="Trazado_224791" data-name="Trazado 224791" d="M811.045,8.657a5.641,5.641,0,0,1,.545-2.522,3.992,3.992,0,0,1,1.569-1.714,4.584,4.584,0,0,1,2.378-.606,4.331,4.331,0,0,1,3.142,1.177,4.731,4.731,0,0,1,1.358,3.2l.018.65a4.971,4.971,0,0,1-1.223,3.512,4.735,4.735,0,0,1-6.56,0,5.057,5.057,0,0,1-1.227-3.586Zm2.541.181a3.549,3.549,0,0,0,.51,2.072,1.83,1.83,0,0,0,2.9.009,3.885,3.885,0,0,0,.518-2.267A3.517,3.517,0,0,0,817,6.593a1.686,1.686,0,0,0-1.459-.731,1.659,1.659,0,0,0-1.441.727,3.949,3.949,0,0,0-.51,2.249" transform="translate(18526 -5895)" fill="#12263f"/>
      <path id="Trazado_224792" data-name="Trazado 224792" d="M824,3.99l.08,1.063a3.341,3.341,0,0,1,2.733-1.239,2.539,2.539,0,0,1,2.523,1.45,3.265,3.265,0,0,1,2.855-1.45,2.838,2.838,0,0,1,2.3.9,4.141,4.141,0,0,1,.756,2.712V13.5H832.7V7.422a1.821,1.821,0,0,0-.316-1.186,1.4,1.4,0,0,0-1.115-.374,1.586,1.586,0,0,0-1.583,1.093L829.7,13.5h-2.539V7.43a1.793,1.793,0,0,0-.326-1.2,1.413,1.413,0,0,0-1.107-.37,1.646,1.646,0,0,0-1.565.9V13.5h-2.539V3.99Z" transform="translate(18526 -5895)" fill="#12263f"/>
      <path id="Trazado_224793" data-name="Trazado 224793" d="M841.578,13.675a4.665,4.665,0,0,1-3.405-1.283,4.56,4.56,0,0,1-1.314-3.419V8.727a5.743,5.743,0,0,1,.553-2.561,4.074,4.074,0,0,1,1.569-1.741,4.407,4.407,0,0,1,2.316-.611,3.945,3.945,0,0,1,3.072,1.231,5,5,0,0,1,1.121,3.489V9.571h-6.056a2.36,2.36,0,0,0,.743,1.494,2.245,2.245,0,0,0,1.569.563,2.74,2.74,0,0,0,2.293-1.064l1.248,1.4a3.794,3.794,0,0,1-1.547,1.26,5.07,5.07,0,0,1-2.162.453m-.289-7.813a1.591,1.591,0,0,0-1.227.512,2.658,2.658,0,0,0-.6,1.466h3.533v-.2a1.888,1.888,0,0,0-.457-1.31,1.634,1.634,0,0,0-1.248-.464" transform="translate(18526 -5895)" fill="#12263f"/>
      <path id="Trazado_224794" data-name="Trazado 224794" d="M849.269,3.99l.078,1.1a3.323,3.323,0,0,1,2.735-1.275,2.758,2.758,0,0,1,2.249.888,4.132,4.132,0,0,1,.756,2.654V13.5h-2.541V7.4a1.658,1.658,0,0,0-.351-1.177,1.573,1.573,0,0,0-1.168-.365,1.751,1.751,0,0,0-1.61.916V13.5h-2.539V3.99Z" transform="translate(18526 -5895)" fill="#12263f"/>
      <path id="Trazado_224795" data-name="Trazado 224795" d="M860.053,1.652V3.99h1.627V5.853h-1.627V10.6a1.131,1.131,0,0,0,.2.756,1.018,1.018,0,0,0,.774.229,4.04,4.04,0,0,0,.746-.062v1.925a5.234,5.234,0,0,1-1.537.228,2.425,2.425,0,0,1-2.725-2.7V5.853h-1.389V3.99h1.389V1.652Z" transform="translate(18526 -5895)" fill="#12263f"/>
      <path id="Trazado_224796" data-name="Trazado 224796" d="M862.436,8.657a5.641,5.641,0,0,1,.545-2.522,3.989,3.989,0,0,1,1.568-1.714,4.58,4.58,0,0,1,2.377-.606,4.334,4.334,0,0,1,3.143,1.177,4.731,4.731,0,0,1,1.357,3.2l.018.65a4.974,4.974,0,0,1-1.221,3.512,4.736,4.736,0,0,1-6.561,0,5.057,5.057,0,0,1-1.226-3.586Zm2.539.181a3.549,3.549,0,0,0,.51,2.072,1.83,1.83,0,0,0,2.9.009,3.884,3.884,0,0,0,.52-2.267,3.516,3.516,0,0,0-.52-2.059,1.686,1.686,0,0,0-1.459-.731,1.659,1.659,0,0,0-1.441.727,3.95,3.95,0,0,0-.51,2.249" transform="translate(18526 -5895)" fill="#12263f"/>
      <path id="Trazado_224797" data-name="Trazado 224797" d="M877.1,8.674a5.732,5.732,0,0,1,1-3.542,3.236,3.236,0,0,1,2.729-1.318,2.911,2.911,0,0,1,2.293,1.037V0h2.549V13.5h-2.293l-.123-1.011a2.988,2.988,0,0,1-2.443,1.186,3.226,3.226,0,0,1-2.694-1.322A5.915,5.915,0,0,1,877.1,8.674m2.539.181a3.775,3.775,0,0,0,.467,2.058,1.516,1.516,0,0,0,1.353.714,1.7,1.7,0,0,0,1.66-1V6.86a1.673,1.673,0,0,0-1.642-1q-1.838,0-1.838,2.993" transform="translate(18526 -5895)" fill="#12263f"/>
      <path id="Trazado_224798" data-name="Trazado 224798" d="M892.01,13.675a4.665,4.665,0,0,1-3.405-1.283,4.56,4.56,0,0,1-1.314-3.419V8.727a5.742,5.742,0,0,1,.553-2.561,4.074,4.074,0,0,1,1.569-1.741,4.407,4.407,0,0,1,2.316-.611A3.945,3.945,0,0,1,894.8,5.045a5,5,0,0,1,1.121,3.489V9.571h-6.056a2.36,2.36,0,0,0,.743,1.494,2.245,2.245,0,0,0,1.569.563,2.74,2.74,0,0,0,2.293-1.064l1.248,1.4a3.794,3.794,0,0,1-1.547,1.26,5.07,5.07,0,0,1-2.162.453m-.289-7.813a1.591,1.591,0,0,0-1.227.512,2.658,2.658,0,0,0-.6,1.466h3.533v-.2a1.888,1.888,0,0,0-.457-1.31,1.634,1.634,0,0,0-1.248-.464" transform="translate(18526 -5895)" fill="#12263f"/>
      <rect id="Rectángulo_57250" data-name="Rectángulo 57250" width="2.549" height="13.5" transform="translate(19245.965 -5871)" fill="#12263f"/>
      <path id="Trazado_224799" data-name="Trazado 224799" d="M730.116,37.5a2.783,2.783,0,0,1-.254-.853,3.075,3.075,0,0,1-2.4,1.028,3.375,3.375,0,0,1-2.315-.808,2.6,2.6,0,0,1-.919-2.039,2.689,2.689,0,0,1,1.121-2.321,5.528,5.528,0,0,1,3.238-.817h1.17v-.545a1.567,1.567,0,0,0-.339-1.055,1.331,1.331,0,0,0-1.067-.4,1.51,1.51,0,0,0-1.007.308,1.044,1.044,0,0,0-.364.843h-2.541a2.552,2.552,0,0,1,.51-1.529,3.365,3.365,0,0,1,1.441-1.1,5.262,5.262,0,0,1,2.092-.4,4.157,4.157,0,0,1,2.791.883A3.094,3.094,0,0,1,732.3,31.18V35.3a4.55,4.55,0,0,0,.377,2.048v.15Zm-2.1-1.767a2.175,2.175,0,0,0,1.037-.251,1.634,1.634,0,0,0,.7-.672V33.175h-.949q-1.906,0-2.031,1.319l-.008.149a1.014,1.014,0,0,0,.334.782,1.3,1.3,0,0,0,.914.308" transform="translate(18526 -5895)" fill="#12263f"/>
      <path id="Trazado_224800" data-name="Trazado 224800" d="M742.3,34.4l1.768-6.407h2.654L743.51,37.5h-2.426l-3.207-9.51h2.654Z" transform="translate(18526 -5895)" fill="#12263f"/>
      <path id="Trazado_224801" data-name="Trazado 224801" d="M752.1,37.675a4.666,4.666,0,0,1-3.406-1.283,4.561,4.561,0,0,1-1.315-3.419v-.246a5.743,5.743,0,0,1,.555-2.561,4.072,4.072,0,0,1,1.568-1.741,4.411,4.411,0,0,1,2.317-.611,3.943,3.943,0,0,1,3.071,1.231,5,5,0,0,1,1.12,3.489v1.037h-6.055a2.365,2.365,0,0,0,.743,1.494,2.243,2.243,0,0,0,1.568.563,2.744,2.744,0,0,0,2.3-1.064l1.248,1.4a3.794,3.794,0,0,1-1.547,1.26,5.07,5.07,0,0,1-2.162.453m-.291-7.813a1.589,1.589,0,0,0-1.226.512,2.658,2.658,0,0,0-.6,1.466h3.533v-.2a1.888,1.888,0,0,0-.457-1.31,1.634,1.634,0,0,0-1.248-.464" transform="translate(18526 -5895)" fill="#12263f"/>
      <path id="Trazado_224802" data-name="Trazado 224802" d="M762.793,30.372a6.873,6.873,0,0,0-.914-.07,1.86,1.86,0,0,0-1.889.975V37.5h-2.541V27.99h2.4l.07,1.134a2.353,2.353,0,0,1,2.117-1.31,2.636,2.636,0,0,1,.791.115Z" transform="translate(18526 -5895)" fill="#12263f"/>
      <path id="Trazado_224803" data-name="Trazado 224803" d="M763.453,32.674a5.732,5.732,0,0,1,1-3.542,3.236,3.236,0,0,1,2.729-1.318,2.911,2.911,0,0,1,2.293,1.037V24h2.549V37.5h-2.293l-.123-1.011a2.988,2.988,0,0,1-2.443,1.186,3.226,3.226,0,0,1-2.694-1.322,5.915,5.915,0,0,1-1.015-3.679m2.539.181a3.775,3.775,0,0,0,.467,2.058,1.516,1.516,0,0,0,1.353.714,1.7,1.7,0,0,0,1.66-1V30.86a1.673,1.673,0,0,0-1.642-1q-1.838,0-1.838,2.993" transform="translate(18526 -5895)" fill="#12263f"/>
      <path id="Trazado_224804" data-name="Trazado 224804" d="M779.5,37.5a2.781,2.781,0,0,1-.256-.853,3.071,3.071,0,0,1-2.4,1.028,3.377,3.377,0,0,1-2.316-.808,2.6,2.6,0,0,1-.918-2.039,2.688,2.688,0,0,1,1.12-2.321,5.532,5.532,0,0,1,3.239-.817h1.168v-.545a1.567,1.567,0,0,0-.338-1.055,1.333,1.333,0,0,0-1.068-.4,1.507,1.507,0,0,0-1.006.308,1.045,1.045,0,0,0-.365.843h-2.539a2.552,2.552,0,0,1,.51-1.529,3.365,3.365,0,0,1,1.441-1.1,5.262,5.262,0,0,1,2.092-.4,4.154,4.154,0,0,1,2.79.883,3.093,3.093,0,0,1,1.032,2.483V35.3a4.547,4.547,0,0,0,.379,2.048v.15Zm-2.1-1.767a2.175,2.175,0,0,0,1.037-.251,1.635,1.635,0,0,0,.7-.672V33.175h-.949q-1.906,0-2.029,1.319l-.01.149a1.014,1.014,0,0,0,.334.782,1.3,1.3,0,0,0,.914.308" transform="translate(18526 -5895)" fill="#12263f"/>
      <path id="Trazado_224805" data-name="Trazado 224805" d="M783.246,32.674a5.732,5.732,0,0,1,1-3.542,3.237,3.237,0,0,1,2.729-1.318,2.911,2.911,0,0,1,2.293,1.037V24h2.549V37.5h-2.293l-.123-1.011a2.988,2.988,0,0,1-2.443,1.186,3.227,3.227,0,0,1-2.694-1.322,5.915,5.915,0,0,1-1.015-3.679m2.539.181a3.775,3.775,0,0,0,.467,2.058,1.516,1.516,0,0,0,1.353.714,1.7,1.7,0,0,0,1.66-1V30.86a1.673,1.673,0,0,0-1.642-1q-1.837,0-1.838,2.993" transform="translate(18526 -5895)" fill="#12263f"/>
      <path id="Trazado_224806" data-name="Trazado 224806" d="M798.381,32.3a13.5,13.5,0,0,1,.535-3.832,10.132,10.132,0,0,1,1.582-3.221,5.906,5.906,0,0,1,2.268-1.947l.492,1.371a6.116,6.116,0,0,0-2,2.936,13.6,13.6,0,0,0-.721,4.64v.273a13.866,13.866,0,0,0,.713,4.658,6.238,6.238,0,0,0,2.012,2.979l-.492,1.345a5.916,5.916,0,0,1-2.228-1.893,9.973,9.973,0,0,1-1.577-3.134,13.406,13.406,0,0,1-.58-3.709Z" transform="translate(18526 -5895)" fill="#12263f"/>
      <path id="Trazado_224807" data-name="Trazado 224807" d="M812.451,31.936h-5.062v3.445h5.941V37.5h-8.578V24.7h8.56v2.135h-5.923v3.05h5.062Z" transform="translate(18526 -5895)" fill="#12263f"/>
      <path id="Trazado_224808" data-name="Trazado 224808" d="M818.332,30.829l1.6-2.839h2.714l-2.707,4.658,2.823,4.852h-2.725l-1.7-2.988L816.652,37.5H813.92l2.82-4.852-2.7-4.658h2.725Z" transform="translate(18526 -5895)" fill="#12263f"/>
      <path id="Trazado_224809" data-name="Trazado 224809" d="M832.43,32.832a5.707,5.707,0,0,1-1,3.521,3.2,3.2,0,0,1-2.693,1.322,2.963,2.963,0,0,1-2.33-1v4.483h-2.54V27.99h2.356l.088.931a2.985,2.985,0,0,1,2.408-1.107,3.215,3.215,0,0,1,2.732,1.3,5.853,5.853,0,0,1,.977,3.586Zm-2.541-.193a3.764,3.764,0,0,0-.47-2.055,1.529,1.529,0,0,0-1.366-.722,1.661,1.661,0,0,0-1.644.917v3.9a1.691,1.691,0,0,0,1.662.943q1.82,0,1.818-2.988" transform="translate(18526 -5895)" fill="#12263f"/>
      <path id="Trazado_224810" data-name="Trazado 224810" d="M838.379,37.675a4.665,4.665,0,0,1-3.405-1.283,4.56,4.56,0,0,1-1.314-3.419v-.246a5.742,5.742,0,0,1,.553-2.561,4.074,4.074,0,0,1,1.569-1.741,4.407,4.407,0,0,1,2.316-.611,3.945,3.945,0,0,1,3.072,1.231,5,5,0,0,1,1.121,3.489v1.037h-6.056a2.36,2.36,0,0,0,.743,1.494,2.245,2.245,0,0,0,1.569.563,2.74,2.74,0,0,0,2.293-1.064l1.248,1.4a3.794,3.794,0,0,1-1.547,1.26,5.07,5.07,0,0,1-2.162.453m-.289-7.813a1.591,1.591,0,0,0-1.227.512,2.658,2.658,0,0,0-.6,1.466h3.533v-.2a1.888,1.888,0,0,0-.457-1.31,1.634,1.634,0,0,0-1.248-.464" transform="translate(18526 -5895)" fill="#12263f"/>
      <path id="Trazado_224811" data-name="Trazado 224811" d="M849.076,30.372a6.873,6.873,0,0,0-.914-.07,1.863,1.863,0,0,0-1.891.975V37.5h-2.539V27.99h2.4l.07,1.134a2.356,2.356,0,0,1,2.119-1.31,2.636,2.636,0,0,1,.791.115Z" transform="translate(18526 -5895)" fill="#12263f"/>
      <path id="Trazado_224812" data-name="Trazado 224812" d="M850.279,25.529a1.25,1.25,0,0,1,.383-.94,1.644,1.644,0,0,1,2.078,0,1.341,1.341,0,0,1,0,1.889,1.629,1.629,0,0,1-2.065,0,1.246,1.246,0,0,1-.392-.949m2.7,11.971H850.43V27.99h2.549Z" transform="translate(18526 -5895)" fill="#12263f"/>
      <path id="Trazado_224813" data-name="Trazado 224813" d="M859.447,37.675a4.666,4.666,0,0,1-3.406-1.283,4.561,4.561,0,0,1-1.315-3.419v-.246a5.743,5.743,0,0,1,.555-2.561,4.072,4.072,0,0,1,1.568-1.741,4.411,4.411,0,0,1,2.317-.611,3.943,3.943,0,0,1,3.071,1.231,5,5,0,0,1,1.12,3.489v1.037H857.3a2.365,2.365,0,0,0,.743,1.494,2.243,2.243,0,0,0,1.568.563,2.744,2.744,0,0,0,2.3-1.064l1.248,1.4a3.794,3.794,0,0,1-1.547,1.26,5.07,5.07,0,0,1-2.162.453m-.291-7.813a1.589,1.589,0,0,0-1.226.512,2.658,2.658,0,0,0-.6,1.466h3.533v-.2a1.888,1.888,0,0,0-.457-1.31,1.634,1.634,0,0,0-1.248-.464" transform="translate(18526 -5895)" fill="#12263f"/>
      <path id="Trazado_224814" data-name="Trazado 224814" d="M867.137,27.99l.08,1.1a3.319,3.319,0,0,1,2.733-1.275,2.758,2.758,0,0,1,2.249.888,4.132,4.132,0,0,1,.756,2.654V37.5h-2.539V31.4a1.658,1.658,0,0,0-.351-1.177,1.578,1.578,0,0,0-1.17-.365,1.748,1.748,0,0,0-1.608.916V37.5h-2.541V27.99Z" transform="translate(18526 -5895)" fill="#12263f"/>
      <path id="Trazado_224815" data-name="Trazado 224815" d="M878.836,35.628a1.666,1.666,0,0,0,1.143-.387,1.355,1.355,0,0,0,.457-1.028h2.38a3.252,3.252,0,0,1-.527,1.771,3.472,3.472,0,0,1-1.419,1.248,4.452,4.452,0,0,1-1.991.444,4.127,4.127,0,0,1-3.217-1.3,5.128,5.128,0,0,1-1.178-3.581v-.167a5.073,5.073,0,0,1,1.17-3.507,4.08,4.08,0,0,1,3.207-1.309,4,4,0,0,1,2.862,1.015,3.591,3.591,0,0,1,1.093,2.7h-2.38a1.747,1.747,0,0,0-.457-1.206,1.7,1.7,0,0,0-2.5.183,3.75,3.75,0,0,0-.453,2.1v.265a3.792,3.792,0,0,0,.448,2.112,1.55,1.55,0,0,0,1.363.643" transform="translate(18526 -5895)" fill="#12263f"/>
      <path id="Trazado_224816" data-name="Trazado 224816" d="M884.25,25.529a1.249,1.249,0,0,1,.382-.94,1.645,1.645,0,0,1,2.079,0,1.34,1.34,0,0,1-.005,1.889,1.629,1.629,0,0,1-2.065,0,1.245,1.245,0,0,1-.391-.949m2.7,11.971H884.4V27.99h2.549Z" transform="translate(18526 -5895)" fill="#12263f"/>
      <path id="Trazado_224817" data-name="Trazado 224817" d="M894.551,37.5a2.781,2.781,0,0,1-.256-.853,3.071,3.071,0,0,1-2.4,1.028,3.377,3.377,0,0,1-2.316-.808,2.6,2.6,0,0,1-.918-2.039,2.688,2.688,0,0,1,1.12-2.321,5.532,5.532,0,0,1,3.239-.817h1.168v-.545a1.567,1.567,0,0,0-.338-1.055,1.333,1.333,0,0,0-1.068-.4,1.507,1.507,0,0,0-1.006.308,1.045,1.045,0,0,0-.365.843h-2.539a2.552,2.552,0,0,1,.51-1.529,3.365,3.365,0,0,1,1.441-1.1,5.263,5.263,0,0,1,2.092-.4,4.154,4.154,0,0,1,2.79.883,3.093,3.093,0,0,1,1.032,2.483V35.3a4.547,4.547,0,0,0,.379,2.048v.15Zm-2.1-1.767a2.175,2.175,0,0,0,1.037-.251,1.635,1.635,0,0,0,.7-.672V33.175h-.949q-1.906,0-2.029,1.319l-.01.149a1.014,1.014,0,0,0,.334.782,1.3,1.3,0,0,0,.914.308" transform="translate(18526 -5895)" fill="#12263f"/>
      <path id="Trazado_224818" data-name="Trazado 224818" d="M903.066,32.5a12.789,12.789,0,0,1-.57,3.823,10.37,10.37,0,0,1-1.645,3.243,5.918,5.918,0,0,1-2.293,1.934l-.492-1.345a6.181,6.181,0,0,0,1.969-2.9,13.457,13.457,0,0,0,.746-4.509v-.466a13.724,13.724,0,0,0-.716-4.632,6.451,6.451,0,0,0-2-3l.492-1.345a5.926,5.926,0,0,1,2.254,1.881,10.253,10.253,0,0,1,1.644,3.173,12.742,12.742,0,0,1,.61,3.752Z" transform="translate(18526 -5895)" fill="#12263f"/>
    </g>
  </g>
</svg>
